[Module]
VortexTrackerII=0
Version=3.7
Title=MONTANA BY ABCSOFT
Author=SONG COMPILE BY STD
NoteTable=2
Speed=5
PlayOrder=0,0,1,L2,2,3,4,5,5,6,7,8,8,9,9,10,11,12,3,12,4,8,5,8,5,13,14

[Ornament1]
L0

[Ornament2]
24,36,L12,24,24,12,12

[Ornament3]
L0

[Ornament4]
L0,12

[Ornament5]
L0

[Ornament6]
L0

[Ornament7]
L0

[Ornament8]
L0

[Ornament9]
L0

[Ornament10]
L0

[Ornament11]
L0

[Ornament12]
L0

[Ornament13]
L0

[Ornament14]
L0

[Ornament15]
L0

[Sample1]
tNE +000_ +00_ C_
TnE +000_ +00_ F_
TnE +000_ +00_ E_
TnE +000_ +00_ D_
TnE +000_ +00_ D_
TnE +000_ +00_ C_
TnE +000_ +00_ C_
TnE +000_ +00_ B_
TnE +000_ +00_ B_
TnE +000_ +00_ B_
TnE +000_ +00_ A_
TnE +000_ +00_ A_
TnE +000_ +00_ A_
TnE +000_ +00_ 9_
TnE +000_ +00_ 9_
TnE +000_ +00_ 9_
TnE +000_ +00_ 8_
TnE +000_ +00_ 8_
TnE +000_ +00_ 8_
TnE +000_ +00_ 7_
TnE +000_ +00_ 7_
TnE +000_ +00_ 7_
TnE +000_ +00_ 6_
TnE +000_ +00_ 6_
TnE +000_ +00_ 6_
TnE +000_ +00_ 5_
TnE +000_ +00_ 5_
TnE +000_ +00_ 5_
TnE +000_ +00_ 5_
TnE +000_ +00_ 4_
TnE +000_ +00_ 4_
TnE +000_ +00_ 4_
tne +000_ +00_ 0_ L

[Sample2]
TnE +000_ +00_ F_ L

[Sample3]
TnE +000_ +00_ 6_
TnE +000_ +00_ E_
TnE +000_ +00_ D_
TnE +000_ +00_ D_
TnE +000_ +00_ C_
TnE +000_ +00_ C_
TnE +000_ +00_ B_
TnE +000_ +00_ B_
TnE +000_ +00_ B_
TnE +000_ +00_ A_
TnE +000_ +00_ 9_
TnE +000_ +00_ 9_
TnE +000_ +00_ 9_
TnE +000_ +00_ 8_
TnE +000_ +00_ 8_
TnE +000_ +00_ 8_
TnE +003_ +00_ 8_
TnE +003_ +00_ 8_
TnE +000_ +00_ 8_
TnE +000_ +00_ 8_
TnE -003_ +00_ 8_
TnE -003_ +00_ 8_
TnE +000_ +00_ 8_
TnE +000_ +00_ 8_
TnE +003_ +00_ 8_
TnE +003_ +00_ 8_
TnE +000_ +00_ 8_
TnE +000_ +00_ 8_
TnE -003_ +00_ 8_
TnE -003_ +00_ 8_
TnE +000_ +00_ 8_
TnE +000_ +00_ 8_
TnE +000_ +00_ 8_ L
TnE -003_ +00_ 8_
TnE -003_ +00_ 8_
TnE +000_ +00_ 8_
TnE +000_ +00_ 8_
TnE +003_ +00_ 8_
TnE +003_ +00_ 8_
TnE +000_ +00_ 8_
TnE +000_ +00_ 8_
TnE -003_ +00_ 8_
TnE -003_ +00_ 8_
TnE +000_ +00_ 8_

[Sample4]
TNE +200_ -01_ F_
TnE +400_ +00_ F_
TnE +600_ +00_ E_
TnE +000_ +00_ E_
TnE +000_ +00_ D_
TnE +000_ +00_ D_
TnE +000_ +00_ C_
TnE +000_ +00_ C_
TnE +000_ +00_ C_
TnE +000_ +00_ B_
TnE +000_ +00_ B_
TnE +000_ +00_ B_
TnE +000_ +00_ A_
TnE +000_ +00_ A_
TnE +000_ +00_ A_
TnE +000_ +00_ 9_
TnE +000_ +00_ 9_
TnE +000_ +00_ 9_
TnE +000_ +00_ 8_
TnE +000_ +00_ 8_
TnE +000_ +00_ 8_
TnE +000_ +00_ 7_
TnE +000_ +00_ 7_
TnE +000_ +00_ 7_
TnE +000_ +00_ 6_
TnE +000_ +00_ 6_
TnE +000_ +00_ 6_
TnE +000_ +00_ 6_
TnE +000_ +00_ 5_
TnE +000_ +00_ 5_
TnE +000_ +00_ 5_
TnE +000_ +00_ 5_
tne +000_ +00_ 0_ L

[Sample5]
TNE +040_ +05_ E_
TNE +080_ +06_ E_
TNE +0C0_ +07_ D_
TNE +100_ +08_ D_
TNE +11D_ +08_ C_
TNE +154_ +09_ C_
TNE +178_ +09_ B_
TNE +193_ +09_ A_
TNE +1C5_ +08_ A_
TNE +1FC_ +07_ 9_
TNE +21B_ +07_ 9_
TNE +22B_ +06_ 8_
TNE +259_ +05_ 8_
TNE +268_ +04_ 8_
TNE +28D_ +02_ 7_
TNE +2AD_ +01_ 7_
TNE +2CE_ +01_ 6_
TNE +2F6_ +00_ 6_
TNE +309_ +00_ 5_
TNE +36C_ +00_ 3_
TnE +38B_ +00_ 0_
TnE +39C_ +00_ 0_
TnE +000_ +00_ 0_
TnE +000_ +00_ 0_
TnE +000_ +00_ 0_
TnE +000_ +00_ 0_
TnE +000_ +00_ 0_
TnE +000_ +00_ 0_
TnE +000_ +00_ 0_
TnE +000_ +00_ 0_
TnE +000_ +00_ 0_
TnE +000_ +00_ 0_
tne +000_ +00_ 0_ L

[Sample6]
tNE +000_ +00_ C_
tnE +000_ +00_ 0_ L

[Sample7]
tne +000_ +00_ 0_ L

[Sample8]
tne +000_ +00_ 0_ L

[Sample9]
tne +000_ +00_ 0_ L

[Sample10]
tne +000_ +00_ 0_ L

[Sample11]
tne +000_ +00_ 0_ L

[Sample12]
tne +000_ +00_ 0_ L

[Sample13]
tne +000_ +00_ 0_ L

[Sample14]
tne +000_ +00_ 0_ L

[Sample15]
tne +000_ +00_ 0_ L

[Sample16]
tne +000_ +00_ 0_ L

[Sample17]
tne +000_ +00_ 0_ L

[Sample18]
tne +000_ +00_ 0_ L

[Sample19]
tne +000_ +00_ 0_ L

[Sample20]
tne +000_ +00_ 0_ L

[Sample21]
tne +000_ +00_ 0_ L

[Sample22]
tne +000_ +00_ 0_ L

[Sample23]
tne +000_ +00_ 0_ L

[Sample24]
tne +000_ +00_ 0_ L

[Sample25]
tne +000_ +00_ 0_ L

[Sample26]
tne +000_ +00_ 0_ L

[Sample27]
tne +000_ +00_ 0_ L

[Sample28]
tne +000_ +00_ 0_ L

[Sample29]
tne +000_ +00_ 0_ L

[Sample30]
tne +000_ +00_ 0_ L

[Sample31]
tne +000_ +00_ 0_ L

[Pattern0]
....|..|F-7 2F4B 1311|D-2 1F1F ....|D#7 2F4B 1411
....|..|--- .... ....|--- .... ....|--- .... ....
....|..|--- .... ....|D-3 .... ....|--- .... ....
....|..|--- .... ....|D-3 .... ....|--- .... ....
....|..|--- .... ....|D-2 .... ....|--- .... ....
....|..|--- .... ....|--- .... ....|--- .... ....
....|..|--- .... ....|D-3 .... ....|--- .... ....
....|..|--- .... ....|D-3 .... ....|--- .... ....
....|..|--- .... ....|D-2 .... ....|--- .... ....
....|..|--- .... ....|--- .... ....|--- .... ....
....|..|--- .... ....|D-3 .... ....|--- .... ....
....|..|--- .... ....|D-3 .... ....|--- .... ....
....|..|--- .... ....|D-2 .... ....|--- .... ....
....|..|--- .... ....|--- .... ....|--- .... ....
....|..|--- .... ....|D-3 .... ....|--- .... ....
....|..|--- .... ....|D-3 .... ....|--- .... ....
....|..|--- .... ....|D-2 .... ....|--- .... ....
....|..|--- .... ....|--- .... ....|--- .... ....
....|..|--- .... ....|D-3 .... ....|--- .... ....
....|..|--- .... ....|D-3 .... ....|--- .... ....
....|..|--- .... ....|D-2 .... ....|--- .... ....
....|..|--- .... ....|--- .... ....|--- .... ....
....|..|--- .... ....|D-3 .... ....|--- .... ....
....|..|--- .... ....|D-3 .... ....|--- .... ....
....|..|--- .... ....|D-2 .... ....|--- .... ....
....|..|--- .... ....|--- .... ....|--- .... ....
....|..|--- .... ....|D-3 .... ....|--- .... ....
....|..|--- .... ....|D-3 .... ....|--- .... ....
....|..|--- .... ....|D-2 .... ....|--- .... ....
....|..|--- .... ....|--- .... ....|--- .... ....
....|..|--- .... ....|D-3 .... ....|--- .... ....
....|..|--- .... ....|D-3 .... ....|--- .... ....

[Pattern1]
....|..|R-- .... ....|D-2 4F1F ....|R-- .... ....
....|..|--- .... ....|--- .... ....|--- .... ....
....|..|--- .... ....|D-3 1... ....|--- .... ....
....|..|--- .... ....|D-3 .... ....|--- .... ....
....|..|--- .... ....|D-2 .... ....|--- .... ....
....|..|--- .... ....|--- .... ....|--- .... ....
....|..|--- .... ....|D-3 .... ....|--- .... ....
....|..|--- .... ....|D-3 .... ....|--- .... ....
....|..|--- .... ....|D-2 4... ....|--- .... ....
....|..|--- .... ....|--- .... ....|--- .... ....
....|..|--- .... ....|D-3 1... ....|--- .... ....
....|..|--- .... ....|D-3 .... ....|--- .... ....
....|..|--- .... ....|D-2 .... ....|--- .... ....
....|..|--- .... ....|--- .... ....|--- .... ....
....|..|--- .... ....|D-3 .... ....|--- .... ....
....|..|--- .... ....|D-3 .... ....|--- .... ....
....|..|--- .... ....|D-2 4... ....|--- .... ....
....|..|--- .... ....|--- .... ....|--- .... ....
....|..|--- .... ....|D-3 1... ....|--- .... ....
....|..|--- .... ....|D-3 .... ....|--- .... ....
....|..|--- .... ....|D-2 .... ....|--- .... ....
....|..|--- .... ....|--- .... ....|--- .... ....
....|..|--- .... ....|D-3 .... ....|--- .... ....
....|..|--- .... ....|D-3 .... ....|--- .... ....
....|..|--- .... ....|D-2 4... ....|--- .... ....
....|..|--- .... ....|--- .... ....|--- .... ....
....|..|--- .... ....|D-3 1... ....|--- .... ....
....|..|--- .... ....|D-3 .... ....|--- .... ....
....|..|--- .... ....|D-2 .... ....|--- .... ....
....|..|--- .... ....|--- .... ....|--- .... ....
....|..|--- .... ....|D-3 .... ....|--- .... ....
....|..|--- .... ....|D-3 .... ....|--- .... ....
....|..|--- .... ....|D-2 4... ....|--- .... ....
....|..|--- .... ....|--- .... ....|--- .... ....
....|..|--- .... ....|D-3 1... ....|--- .... ....
....|..|--- .... ....|D-3 .... ....|--- .... ....
....|..|--- .... ....|D-2 4... ....|--- .... ....
....|..|--- .... ....|--- .... ....|--- .... ....
....|..|--- .... ....|D-3 1... ....|--- .... ....
....|..|--- .... ....|D-3 .... ....|--- .... ....
....|..|--- .... ....|D-2 4... ....|--- .... ....
....|..|--- .... ....|--- .... ....|--- .... ....
....|..|--- .... ....|D-3 1... ....|--- .... ....
....|..|--- .... ....|D-3 .... ....|--- .... ....
....|..|--- .... ....|D-2 4... ....|--- .... ....
....|..|--- .... ....|--- .... ....|--- .... ....
....|..|--- .... ....|D-3 1... ....|--- .... ....
....|..|--- .... ....|D-3 .... ....|--- .... ....
....|..|F-4 5..D ....|D-2 4... ....|F-4 5..D ....
....|..|--- .... ....|--- .... ....|--- .... ....
....|..|F-4 .... ....|D-3 1... ....|F-4 .... ....
....|..|--- .... ....|D-3 .... ....|--- .... ....
....|..|C-4 .... ....|D-2 4... ....|C-4 .... ....
....|..|C-4 .... ....|--- .... ....|C-4 .... ....
....|..|--- .... ....|D-3 1... ....|--- .... ....
....|..|A-3 .... ....|D-3 .... ....|A-3 .... ....
....|..|--- .... ....|D-2 4... ....|--- .... ....
....|..|A-3 .... ....|--- .... ....|A-3 .... ....
....|..|--- .... ....|D-3 1... ....|--- .... ....
....|..|G-3 .... ....|D-3 .... ....|G-3 .... ....
....|..|G-3 .... ....|D-2 4... ....|G-3 .... ....
....|..|--- .... ....|--- .... ....|--- .... ....
....|..|F-4 .... ....|D-3 1... ....|F-4 .... ....
....|..|F-4 .... ....|D-3 .... ....|F-4 .... ....

[Pattern2]
....|..|D-3 3F2F ....|D-2 4F1F ....|D-4 3F2F ....
....|..|--- .... ....|--- .... ....|--- .... ....
....|..|--- .... ....|D-3 1... ....|--- .... ....
....|..|--- .... ....|D-3 .... ....|--- .... ....
....|..|--- .... ....|C-4 5... ....|--- .... ....
....|..|--- .... ....|--- .... ....|--- .... ....
....|..|--- .... ....|D-3 1... ....|--- .... ....
....|..|--- .... ....|D-3 .... ....|--- .... ....
....|..|--- .... ....|F-2 4... ....|--- .... ....
....|..|--- .... ....|--- .... ....|--- .... ....
....|..|--- .... ....|F-3 1... ....|--- .... ....
....|..|--- .... ....|F-3 .... ....|--- .... ....
....|..|--- .... ....|C-4 5... ....|--- .... ....
....|..|--- .... ....|--- .... ....|--- .... ....
....|..|--- .... ....|F-3 1... ....|--- .... ....
....|..|--- .... ....|F-3 .... ....|--- .... ....
....|..|--- .... ....|C-2 4... ....|--- .... ....
....|..|--- .... ....|--- .... ....|--- .... ....
....|..|--- .... ....|C-3 1... ....|--- .... ....
....|..|--- .... ....|C-3 .... ....|--- .... ....
....|..|--- .... ....|C-4 5... ....|--- .... ....
....|..|--- .... ....|--- .... ....|--- .... ....
....|..|--- .... ....|C-3 1... ....|--- .... ....
....|..|--- .... ....|C-3 .... ....|--- .... ....
....|..|F-4 .... ....|D-2 4... ....|F-3 .... ....
....|..|--- .... ....|--- .... ....|--- .... ....
....|..|--- .... ....|D-3 1... ....|--- .... ....
....|..|--- .... ....|D-3 .... ....|--- .... ....
....|..|G-4 .... ....|C-4 5... ....|G-3 .... ....
....|..|--- .... ....|--- .... ....|--- .... ....
....|..|--- .... ....|D-3 1... ....|--- .... ....
....|..|--- .... ....|D-3 .... ....|--- .... ....
....|..|D-4 .... ....|D-2 4... ....|D-3 .... ....
....|..|--- .... ....|--- .... ....|--- .... ....
....|..|--- .... ....|D-3 1... ....|--- .... ....
....|..|--- .... ....|D-3 .... ....|--- .... ....
....|..|--- .... ....|C-4 5... ....|--- .... ....
....|..|--- .... ....|--- .... ....|--- .... ....
....|..|--- .... ....|D-3 1... ....|--- .... ....
....|..|--- .... ....|D-3 .... ....|--- .... ....
....|..|--- .... ....|C-2 4... ....|--- .... ....
....|..|--- .... ....|--- .... ....|--- .... ....
....|..|--- .... ....|C-3 1... ....|--- .... ....
....|..|--- .... ....|C-3 .... ....|--- .... ....
....|..|--- .... ....|C-4 5... ....|--- .... ....
....|..|--- .... ....|--- .... ....|--- .... ....
....|..|--- .... ....|C-3 1... ....|--- .... ....
....|..|--- .... ....|C-3 .... ....|--- .... ....
....|..|--- .... ....|A-1 4... ....|--- .... ....
....|..|--- .... ....|--- .... ....|--- .... ....
....|..|--- .... ....|A-2 1... ....|--- .... ....
....|..|--- .... ....|A-2 .... ....|--- .... ....
....|..|--- .... ....|C-4 5... ....|--- .... ....
....|..|--- .... ....|--- .... ....|--- .... ....
....|..|--- .... ....|A-2 1... ....|--- .... ....
....|..|--- .... ....|A-2 .... ....|--- .... ....
....|..|A-3 .... ....|D-2 4... ....|A-4 .... ....
....|..|--- .... ....|--- .... ....|--- .... ....
....|..|--- .... ....|D-3 1... ....|--- .... ....
....|..|--- .... ....|D-3 .... ....|--- .... ....
....|..|C-3 .... ....|C-4 5... ....|C-4 .... ....
....|..|--- .... ....|--- .... ....|--- .... ....
....|..|--- .... ....|D-3 1... ....|--- .... ....
....|..|--- .... ....|D-3 .... ....|--- .... ....

[Pattern3]
....|..|D-5 1F.F ....|D-2 4F1F ....|D-4 3.FB ....
....|..|--- .... ....|--- .... ....|--- .... ....
....|..|D-5 .... ....|D-3 1... ....|--- .... ....
....|..|--- .... ....|D-3 .... ....|--- .... ....
....|..|F-5 .... ....|C-4 5... ....|--- .... ....
....|..|--- .... ....|--- .... ....|--- .... ....
....|..|D-5 .... ....|D-3 1... ....|--- .... ....
....|..|--- .... ....|D-3 .... ....|--- .... ....
....|..|F-5 .... ....|F-2 4... ....|F-4 .... ....
....|..|--- .... ....|--- .... ....|--- .... ....
....|..|--- .... ....|F-3 1... ....|--- .... ....
....|..|--- .... ....|F-3 .... ....|--- .... ....
....|..|D-5 .... ....|C-4 5... ....|--- .... ....
....|..|--- .... ....|--- .... ....|--- .... ....
....|..|--- .... ....|F-3 1... ....|--- .... ....
....|..|--- .... ....|F-3 .... ....|--- .... ....
....|..|G-5 .... ....|C-2 4... ....|G-4 .... ....
....|..|--- .... ....|--- .... ....|--- .... ....
....|..|G-5 .... ....|C-3 1... ....|--- .... ....
....|..|--- .... ....|C-3 .... ....|--- .... ....
....|..|A-5 .... ....|C-4 5... ....|--- .... ....
....|..|--- .... ....|--- .... ....|--- .... ....
....|..|C-5 .... ....|C-3 1... ....|--- .... ....
....|..|--- .... ....|C-3 .... ....|--- .... ....
....|..|D-5 .... ....|D-2 4... ....|D-4 .... ....
....|..|--- .... ....|--- .... ....|--- .... ....
....|..|--- .... ....|D-3 1... ....|--- .... ....
....|..|--- .... ....|D-3 .... ....|--- .... ....
....|..|G-5 .... ....|C-4 5... ....|--- .... ....
....|..|--- .... ....|--- .... ....|--- .... ....
....|..|--- .... ....|D-3 1... ....|--- .... ....
....|..|--- .... ....|D-3 .... ....|--- .... ....
....|..|D-5 .... ....|D-2 4... ....|D-4 .... ....
....|..|--- .... ....|--- .... ....|--- .... ....
....|..|D-5 .... ....|D-3 1... ....|--- .... ....
....|..|--- .... ....|D-3 .... ....|--- .... ....
....|..|F-5 .... ....|C-4 5... ....|--- .... ....
....|..|--- .... ....|--- .... ....|--- .... ....
....|..|C-5 .... ....|D-3 1... ....|--- .... ....
....|..|--- .... ....|D-3 .... ....|--- .... ....
....|..|D-5 .... ....|C-2 4... ....|C-4 .... ....
....|..|--- .... ....|--- .... ....|--- .... ....
....|..|--- .... ....|C-3 1... ....|--- .... ....
....|..|--- .... ....|C-3 .... ....|--- .... ....
....|..|A-4 .... ....|C-4 5... ....|--- .... ....
....|..|--- .... ....|--- .... ....|--- .... ....
....|..|--- .... ....|C-3 1... ....|--- .... ....
....|..|--- .... ....|C-3 .... ....|--- .... ....
....|..|D-5 .... ....|A-1 4... ....|F-4 .... ....
....|..|--- .... ....|--- .... ....|--- .... ....
....|..|A-4 .... ....|A-2 1... ....|--- .... ....
....|..|--- .... ....|A-2 .... ....|--- .... ....
....|..|C-5 .... ....|C-4 5... ....|--- .... ....
....|..|--- .... ....|--- .... ....|--- .... ....
....|..|G-4 .... ....|A-2 1... ....|--- .... ....
....|..|--- .... ....|A-2 .... ....|--- .... ....
....|..|D-4 .... ....|D-2 4... ....|D-4 .... ....
....|..|--- .... ....|--- .... ....|--- .... ....
....|..|--- .... ....|D-3 1... ....|--- .... ....
....|..|--- .... ....|D-3 .... ....|--- .... ....
....|..|--- .... ....|C-4 5... ....|--- .... ....
....|..|--- .... ....|--- .... ....|--- .... ....
....|..|--- .... ....|D-3 1... ....|--- .... ....
....|..|--- .... ....|D-3 .... ....|--- .... ....

[Pattern4]
....|..|D-5 1F.F ....|D-2 4F1F ....|D-4 3.FB ....
....|..|--- .... ....|--- .... ....|--- .... ....
....|..|D-5 .... ....|D-3 1... ....|--- .... ....
....|..|D-5 .... ....|D-3 .... ....|--- .... ....
....|..|D-5 .... ....|C-4 5... ....|--- .... ....
....|..|--- .... ....|--- .... ....|--- .... ....
....|..|D-5 .... ....|D-3 1... ....|--- .... ....
....|..|F-5 .... ....|D-3 .... ....|--- .... ....
....|..|--- .... ....|F-2 4... ....|F-4 .... ....
....|..|F-5 .... ....|--- .... ....|--- .... ....
....|..|--- .... ....|F-3 1... ....|--- .... ....
....|..|F-5 .... ....|F-3 .... ....|--- .... ....
....|..|D-5 .... ....|C-4 5... ....|--- .... ....
....|..|--- .... ....|--- .... ....|--- .... ....
....|..|D-5 .... ....|F-3 1... ....|--- .... ....
....|..|--- .... ....|F-3 .... ....|--- .... ....
....|..|G-5 .... ....|C-2 4... ....|G-4 .... ....
....|..|--- .... ....|--- .... ....|--- .... ....
....|..|G-5 .... ....|C-3 1... ....|--- .... ....
....|..|G-5 .... ....|C-3 .... ....|--- .... ....
....|..|C-5 .... ....|C-4 5... ....|--- .... ....
....|..|--- .... ....|--- .... ....|--- .... ....
....|..|C-5 .... ....|C-3 1... ....|--- .... ....
....|..|D-5 .... ....|C-3 .... ....|--- .... ....
....|..|--- .... ....|D-2 4... ....|D-4 .... ....
....|..|D-5 .... ....|--- .... ....|--- .... ....
....|..|--- .... ....|D-3 1... ....|--- .... ....
....|..|D-5 .... ....|D-3 .... ....|--- .... ....
....|..|C-5 .... ....|C-4 5... ....|--- .... ....
....|..|--- .... ....|--- .... ....|--- .... ....
....|..|A-4 .... ....|D-3 1... ....|--- .... ....
....|..|--- .... ....|D-3 .... ....|--- .... ....
....|..|D-5 .... ....|D-2 4... ....|D-4 .... ....
....|..|--- .... ....|--- .... ....|--- .... ....
....|..|D-5 .... ....|D-3 1... ....|--- .... ....
....|..|D-5 .... ....|D-3 .... ....|--- .... ....
....|..|D-5 .... ....|C-4 5... ....|--- .... ....
....|..|--- .... ....|--- .... ....|--- .... ....
....|..|D-5 .... ....|D-3 1... ....|--- .... ....
....|..|F-5 .... ....|D-3 .... ....|--- .... ....
....|..|--- .... ....|C-2 4... ....|C-4 .... ....
....|..|F-5 .... ....|--- .... ....|--- .... ....
....|..|--- .... ....|C-3 1... ....|--- .... ....
....|..|F-5 .... ....|C-3 .... ....|--- .... ....
....|..|C-5 .... ....|C-4 5... ....|--- .... ....
....|..|--- .... ....|--- .... ....|--- .... ....
....|..|C-5 .... ....|C-3 1... ....|--- .... ....
....|..|--- .... ....|C-3 .... ....|--- .... ....
....|..|G-5 .... ....|A-1 4... ....|F-4 .... ....
....|..|--- .... ....|--- .... ....|--- .... ....
....|..|G-5 .... ....|A-2 1... ....|--- .... ....
....|..|G-5 .... ....|A-2 .... ....|--- .... ....
....|..|C-5 .... ....|C-4 5... ....|--- .... ....
....|..|--- .... ....|--- .... ....|--- .... ....
....|..|C-5 .... ....|A-2 1... ....|--- .... ....
....|..|D-5 .... ....|A-2 .... ....|--- .... ....
....|..|--- .... ....|D-2 4... ....|D-4 .... ....
....|..|--- .... ....|--- .... ....|--- .... ....
....|..|--- .... ....|D-3 1... ....|--- .... ....
....|..|--- .... ....|D-3 .... ....|--- .... ....
....|..|--- .... ....|C-4 5... ....|--- .... ....
....|..|--- .... ....|--- .... ....|--- .... ....
....|..|--- .... ....|D-3 1... ....|--- .... ....
....|..|--- .... ....|D-3 .... ....|--- .... ....

[Pattern5]
..2F|..|D-5 28.F ....|D-2 4F1F ....|D-4 3.FB ....
....|..|R-- .... ....|--- .... ....|--- .... ....
..2F|..|D-5 .8.. ....|D-3 1... ....|--- .... ....
....|..|R-- .... ....|D-3 .... ....|--- .... ....
..27|..|F-5 .8.. ....|C-4 5... ....|--- .... ....
....|..|R-- .... ....|--- .... ....|--- .... ....
..2F|..|D-5 .8.. ....|D-3 1... ....|--- .... ....
....|..|R-- .... ....|D-3 .... ....|--- .... ....
..27|..|F-5 .8.. ....|F-2 4... ....|F-4 .... ....
....|..|--- .... ....|--- .... ....|--- .... ....
....|..|--- .... ....|F-3 1... ....|--- .... ....
....|..|--- .... ....|F-3 .... ....|--- .... ....
..2F|..|D-5 .8.. ....|C-4 5... ....|--- .... ....
....|..|R-- .... ....|--- .... ....|--- .... ....
..23|..|G-5 .8.. ....|F-3 1... ....|--- .... ....
....|..|--- .... ....|F-3 .... ....|--- .... ....
....|..|--- .... ....|C-2 4... ....|G-4 .... ....
....|..|R-- .... ....|--- .... ....|--- .... ....
..23|..|G-5 .8.. ....|C-3 1... ....|--- .... ....
....|..|--- .... ....|C-3 .... ....|--- .... ....
..34|..|C-5 .8.. ....|C-4 5... ....|--- .... ....
....|..|--- .... ....|--- .... ....|--- .... ....
....|..|--- .... ....|C-3 1... ....|--- .... ....
....|..|--- .... ....|C-3 .... ....|--- .... ....
..2F|..|D-5 .8.. ....|D-2 4... ....|D-4 .... ....
....|..|--- .... ....|--- .... ....|--- .... ....
....|..|--- .... ....|D-3 1... ....|--- .... ....
....|..|--- .... ....|D-3 .... ....|--- .... ....
....|..|--- .... ....|C-4 5... ....|--- .... ....
....|..|--- .... ....|--- .... ....|--- .... ....
....|..|R-- .... ....|D-3 1... ....|--- .... ....
....|..|--- .... ....|D-3 .... ....|--- .... ....
..2F|..|D-5 .8.. ....|D-2 4... ....|D-4 .... ....
....|..|R-- .... ....|--- .... ....|--- .... ....
..2F|..|D-5 .8.. ....|D-3 1... ....|--- .... ....
....|..|R-- .... ....|D-3 .... ....|--- .... ....
..27|..|F-5 .8.. ....|C-4 5... ....|--- .... ....
....|..|R-- .... ....|--- .... ....|--- .... ....
..2F|..|D-5 .8.. ....|D-3 1... ....|--- .... ....
....|..|R-- .... ....|D-3 .... ....|--- .... ....
..34|..|C-5 .8.. ....|C-2 4... ....|C-4 .... ....
....|..|--- .... ....|--- .... ....|--- .... ....
....|..|--- .... ....|C-3 1... ....|--- .... ....
....|..|--- .... ....|C-3 .... ....|--- .... ....
..37|..|B-4 .8.. ....|C-4 5... ....|--- .... ....
....|..|R-- .... ....|--- .... ....|--- .... ....
..2F|..|D-5 .8.. ....|C-3 1... ....|--- .... ....
....|..|--- .... ....|C-3 .... ....|--- .... ....
..34|..|C-5 .8.. ....|A-1 4... ....|F-4 .... ....
....|..|R-- .... ....|--- .... ....|--- .... ....
..34|..|C-5 .8.. ....|A-2 1... ....|--- .... ....
....|..|R-- .... ....|A-2 .... ....|--- .... ....
..3E|..|A-4 .8.. ....|C-4 5... ....|--- .... ....
....|..|R-- .... ....|--- .... ....|--- .... ....
..3E|..|A-4 .8.. ....|A-2 1... ....|--- .... ....
....|..|R-- .... ....|A-2 .... ....|--- .... ....
..2F|..|D-5 .8.. ....|D-2 4... ....|D-4 .... ....
....|..|--- .... ....|--- .... ....|--- .... ....
....|..|--- .... ....|D-3 1... ....|--- .... ....
....|..|--- .... ....|D-3 .... ....|--- .... ....
....|..|--- .... ....|C-4 5... ....|--- .... ....
....|..|--- .... ....|--- .... ....|--- .... ....
....|..|R-- .... ....|D-3 1... ....|--- .... ....
....|..|--- .... ....|D-3 .... ....|--- .... ....

[Pattern6]
....|..|D-4 3F2D ....|C-4 5..F ....|D-3 3..F ....
....|..|D-4 .... ....|--- .... ....|--- .... ....
....|..|D-4 .... ....|--- .... ....|--- .... ....
....|..|--- .... ....|--- .... ....|--- .... ....
....|..|D-4 .... ....|C-4 .... ....|--- .... ....
....|..|--- .... ....|--- .... ....|--- .... ....
....|..|D-4 .... ....|--- .... ....|--- .... ....
....|..|D-4 .... ....|--- .... ....|--- .... ....
....|..|--- .... ....|C-4 .... ....|--- .... ....
....|..|D-4 .... ....|--- .... ....|--- .... ....
....|..|--- .... ....|--- .... ....|--- .... ....
....|..|D-4 .... ....|--- .... ....|--- .... ....
....|..|D-4 .... ....|C-4 .... ....|--- .... ....
....|..|--- .... ....|--- .... ....|--- .... ....
....|..|D-4 .... ....|--- .... ....|--- .... ....
....|..|--- .... ....|--- .... ....|--- .... ....
....|..|D-4 .... ....|C-4 .... ....|--- .... ....
....|..|D-4 .... ....|--- .... ....|--- .... ....
....|..|D-4 .... ....|--- .... ....|--- .... ....
....|..|--- .... ....|--- .... ....|--- .... ....
....|..|D-4 .... ....|C-4 .... ....|--- .... ....
....|..|--- .... ....|--- .... ....|--- .... ....
....|..|D-4 .... ....|--- .... ....|--- .... ....
....|..|D-4 .... ....|--- .... ....|--- .... ....
....|..|--- .... ....|C-4 .... ....|--- .... ....
....|..|D-4 .... ....|--- .... ....|--- .... ....
....|..|--- .... ....|--- .... ....|--- .... ....
....|..|D-4 .... ....|--- .... ....|--- .... ....
....|..|D-4 .... ....|C-4 .... ....|--- .... ....
....|..|--- .... ....|--- .... ....|--- .... ....
....|..|D-4 .... ....|--- .... ....|--- .... ....
....|..|--- .... ....|--- .... ....|--- .... ....
....|..|D-4 .... ....|C-4 .... ....|F-3 .... ....
....|..|D-4 .... ....|--- .... ....|--- .... ....
....|..|D-4 .... ....|--- .... ....|--- .... ....
....|..|--- .... ....|--- .... ....|--- .... ....
....|..|D-4 .... ....|C-4 .... ....|--- .... ....
....|..|--- .... ....|--- .... ....|--- .... ....
....|..|D-4 .... ....|--- .... ....|--- .... ....
....|..|D-4 .... ....|--- .... ....|--- .... ....
....|..|--- .... ....|C-4 .... ....|--- .... ....
....|..|D-4 .... ....|--- .... ....|--- .... ....
....|..|--- .... ....|--- .... ....|--- .... ....
....|..|D-4 .... ....|--- .... ....|--- .... ....
....|..|D-4 .... ....|C-4 .... ....|--- .... ....
....|..|--- .... ....|--- .... ....|--- .... ....
....|..|D-4 .... ....|--- .... ....|--- .... ....
....|..|--- .... ....|--- .... ....|--- .... ....
....|..|D-4 .... ....|C-4 .... ....|G-3 .... ....
....|..|D-4 .... ....|--- .... ....|--- .... ....
....|..|D-4 .... ....|--- .... ....|--- .... ....
....|..|--- .... ....|--- .... ....|--- .... ....
....|..|D-4 .... ....|C-4 .... ....|--- .... ....
....|..|--- .... ....|--- .... ....|--- .... ....
....|..|D-4 .... ....|--- .... ....|--- .... ....
....|..|D-4 .... ....|--- .... ....|--- .... ....
....|..|--- .... ....|C-4 .... ....|--- .... ....
....|..|D-4 .... ....|--- .... ....|--- .... ....
....|..|--- .... ....|--- .... ....|--- .... ....
....|..|D-4 .... ....|--- .... ....|--- .... ....
....|..|D-4 .... ....|C-4 .... ....|--- .... ....
....|..|--- .... ....|--- .... ....|--- .... ....
....|..|D-4 .... ....|--- .... ....|--- .... ....
....|..|--- .... ....|--- .... ....|--- .... ....

[Pattern7]
....|..|D-4 3F2D ....|C-4 5..F ....|D-3 3..F ....
....|..|D-4 .... ....|--- .... ....|--- .... ....
....|..|D-4 .... ....|D-3 1... ....|--- .... ....
....|..|--- .... ....|D-3 .... ....|--- .... ....
....|..|D-4 .... ....|C-4 5... ....|--- .... ....
....|..|--- .... ....|--- .... ....|--- .... ....
....|..|D-4 .... ....|D-3 1... ....|--- .... ....
....|..|D-4 .... ....|D-3 .... ....|--- .... ....
....|..|--- .... ....|C-4 5... ....|--- .... ....
....|..|D-4 .... ....|--- .... ....|--- .... ....
....|..|--- .... ....|D-3 1... ....|--- .... ....
....|..|D-4 .... ....|D-3 .... ....|--- .... ....
....|..|D-4 .... ....|C-4 5... ....|--- .... ....
....|..|--- .... ....|--- .... ....|--- .... ....
....|..|D-4 .... ....|D-3 1... ....|--- .... ....
....|..|--- .... ....|D-3 .... ....|--- .... ....
....|..|D-4 .... ....|C-4 5... ....|--- .... ....
....|..|D-4 .... ....|--- .... ....|--- .... ....
....|..|D-4 .... ....|D-3 1... ....|--- .... ....
....|..|--- .... ....|D-3 .... ....|--- .... ....
....|..|D-4 .... ....|C-4 5... ....|--- .... ....
....|..|--- .... ....|--- .... ....|--- .... ....
....|..|D-4 .... ....|D-3 1... ....|--- .... ....
....|..|D-4 .... ....|D-3 .... ....|--- .... ....
....|..|--- .... ....|C-4 5... ....|--- .... ....
....|..|D-4 .... ....|--- .... ....|--- .... ....
....|..|--- .... ....|D-3 1... ....|--- .... ....
....|..|D-4 .... ....|D-3 .... ....|--- .... ....
....|..|D-4 .... ....|C-4 5... ....|--- .... ....
....|..|--- .... ....|--- .... ....|--- .... ....
....|..|D-4 .... ....|D-3 1... ....|--- .... ....
....|..|--- .... ....|D-3 .... ....|--- .... ....
....|..|D-4 .... ....|C-4 5... ....|F-3 .... ....
....|..|D-4 .... ....|--- .... ....|--- .... ....
....|..|D-4 .... ....|F-3 1... ....|--- .... ....
....|..|--- .... ....|F-3 .... ....|--- .... ....
....|..|D-4 .... ....|C-4 5... ....|--- .... ....
....|..|--- .... ....|--- .... ....|--- .... ....
....|..|D-4 .... ....|F-3 1... ....|--- .... ....
....|..|D-4 .... ....|F-3 .... ....|--- .... ....
....|..|--- .... ....|C-4 5... ....|--- .... ....
....|..|D-4 .... ....|--- .... ....|--- .... ....
....|..|--- .... ....|F-3 1... ....|--- .... ....
....|..|D-4 .... ....|F-3 .... ....|--- .... ....
....|..|D-4 .... ....|C-4 5... ....|--- .... ....
....|..|--- .... ....|--- .... ....|--- .... ....
....|..|D-4 .... ....|F-3 1... ....|--- .... ....
....|..|--- .... ....|F-3 .... ....|--- .... ....
....|..|F-4 5.1F ....|C-4 5... ....|G-3 .... ....
....|..|--- .... ....|--- .... ....|--- .... ....
....|..|F-4 .... ....|G-3 1... ....|--- .... ....
....|..|--- .... ....|G-3 .... ....|--- .... ....
....|..|C-4 .... ....|C-4 5... ....|--- .... ....
....|..|C-4 .... ....|--- .... ....|--- .... ....
....|..|--- .... ....|G-3 1... ....|--- .... ....
....|..|A-3 .... ....|G-3 .... ....|--- .... ....
....|..|--- .... ....|C-4 5... ....|A-3 .... ....
....|..|A-3 .... ....|--- .... ....|--- .... ....
....|..|--- .... ....|A-3 1... ....|--- .... ....
....|..|G-3 .... ....|A-3 .... ....|--- .... ....
....|..|G-3 .... ....|C-4 5... ....|--- .... ....
....|..|--- .... ....|--- .... ....|--- .... ....
....|..|F-4 .... ....|A-3 1... ....|--- .... ....
....|..|F-4 .... ....|A-3 .... ....|--- .... ....

[Pattern8]
..2F|..|D-5 28.F ....|D-2 4F1F ....|D-4 3.FB ....
....|..|R-- .... ....|--- .... ....|--- .... ....
..2F|..|D-5 .8.. ....|D-3 1... ....|--- .... ....
....|..|--- .... ....|D-3 .... ....|--- .... ....
..27|..|F-5 .8.. ....|C-4 5... ....|--- .... ....
....|..|--- .... ....|--- .... ....|--- .... ....
..23|..|G-5 .8.. ....|D-3 1... ....|--- .... ....
....|..|--- .... ....|D-3 .... ....|--- .... ....
..1F|..|A-5 .8.. ....|D-2 4... ....|--- .... ....
....|..|--- .... ....|--- .... ....|--- .... ....
....|..|--- .... ....|D-3 1... ....|--- .... ....
....|..|--- .... ....|D-3 .... ....|--- .... ....
....|..|--- .... ....|C-4 5... ....|--- .... ....
....|..|--- .... ....|--- .... ....|--- .... ....
....|..|R-- .... ....|D-3 1... ....|--- .... ....
....|..|--- .... ....|D-3 .... ....|--- .... ....
....|..|--- .... ....|D-2 4... ....|--- .... ....
....|..|--- .... ....|--- .... ....|--- .... ....
..2F|..|D-5 .8.. ....|D-3 1... ....|--- .... ....
....|..|--- .... ....|D-3 .... ....|--- .... ....
..27|..|F-5 .8.. ....|C-4 5... ....|--- .... ....
....|..|--- .... ....|--- .... ....|--- .... ....
..23|..|G-5 .8.. ....|D-3 1... ....|--- .... ....
....|..|--- .... ....|D-3 .... ....|--- .... ....
..1F|..|A-5 .8.. ....|D-2 4... ....|--- .... ....
....|..|--- .... ....|--- .... ....|--- .... ....
..1A|..|C-6 .8.. ....|D-3 1... ....|--- .... ....
....|..|--- .... ....|D-3 .... ....|--- .... ....
..1F|..|A-5 .8.. ....|C-4 5... ....|--- .... ....
....|..|--- .... ....|--- .... ....|--- .... ....
....|..|--- .... ....|D-3 1... ....|--- .... ....
....|..|--- .... ....|D-3 .... ....|--- .... ....
....|..|R-- .... ....|F-2 4... ....|F-3 .... ....
....|..|--- .... ....|--- .... ....|--- .... ....
..2F|..|D-5 .8.. ....|F-3 1... ....|--- .... ....
....|..|--- .... ....|F-3 .... ....|--- .... ....
..27|..|F-5 .8.. ....|C-4 5... ....|--- .... ....
....|..|--- .... ....|--- .... ....|--- .... ....
..23|..|G-5 .8.. ....|F-3 1... ....|--- .... ....
....|..|--- .... ....|F-3 .... ....|--- .... ....
..1F|..|A-5 .8.. ....|F-2 4... ....|--- .... ....
....|..|--- .... ....|--- .... ....|--- .... ....
..1A|..|C-6 .8.. ....|F-3 1... ....|--- .... ....
....|..|--- .... ....|F-3 .... ....|--- .... ....
..1F|..|A-5 .8.. ....|C-4 5... ....|--- .... ....
....|..|--- .... ....|--- .... ....|--- .... ....
..17|..|D-6 .8.. ....|F-3 1... ....|--- .... ....
....|..|--- .... ....|F-3 .... ....|--- .... ....
....|..|--- .... ....|G-2 4... ....|G-3 .... ....
....|..|--- .... ....|--- .... ....|--- .... ....
..1F|..|A-5 .8.. ....|G-3 1... ....|--- .... ....
....|..|--- .... ....|G-3 .... ....|--- .... ....
..1A|..|C-6 .8.. ....|C-4 5... ....|--- .... ....
....|..|--- .... ....|--- .... ....|--- .... ....
..23|..|G-5 .8.. ....|G-3 1... ....|--- .... ....
....|..|--- .... ....|G-3 .... ....|--- .... ....
..1F|..|A-5 .8.. ....|G-2 4... ....|--- .... ....
....|..|--- .... ....|--- .... ....|--- .... ....
..27|..|F-5 .8.. ....|G-3 1... ....|--- .... ....
....|..|--- .... ....|G-3 .... ....|--- .... ....
..23|..|G-5 .8.. ....|C-4 5... ....|--- .... ....
....|..|--- .... ....|--- .... ....|--- .... ....
..34|..|C-5 .8.. ....|G-3 1... ....|--- .... ....
....|..|--- .... ....|G-3 .... ....|--- .... ....

[Pattern9]
....|..|D-4 3F2F ....|D-2 4F1F ....|D-4 3.FB ....
....|..|D-4 .... ....|--- .... ....|--- .... ....
....|..|D-4 .... ....|D-3 1... ....|--- .... ....
....|..|--- .... ....|D-3 .... ....|--- .... ....
....|..|D-4 .... ....|C-4 5... ....|--- .... ....
....|..|--- .... ....|--- .... ....|--- .... ....
....|..|D-4 .... ....|D-3 1... ....|--- .... ....
....|..|D-4 .... ....|D-3 .... ....|--- .... ....
....|..|--- .... ....|D-2 4... ....|--- .... ....
....|..|D-4 .... ....|--- .... ....|--- .... ....
....|..|--- .... ....|D-3 1... ....|--- .... ....
....|..|D-4 .... ....|D-3 .... ....|--- .... ....
....|..|D-4 .... ....|C-4 5... ....|--- .... ....
....|..|--- .... ....|--- .... ....|--- .... ....
....|..|D-4 .... ....|D-3 1... ....|--- .... ....
....|..|--- .... ....|D-3 .... ....|--- .... ....
....|..|F-4 .... ....|D-2 4... ....|--- .... ....
....|..|F-4 .... ....|--- .... ....|--- .... ....
....|..|F-4 .... ....|D-3 1... ....|--- .... ....
....|..|--- .... ....|D-3 .... ....|--- .... ....
....|..|F-4 .... ....|C-4 5... ....|--- .... ....
....|..|--- .... ....|--- .... ....|--- .... ....
....|..|F-4 .... ....|D-3 1... ....|--- .... ....
....|..|F-4 .... ....|D-3 .... ....|--- .... ....
....|..|--- .... ....|D-2 4... ....|--- .... ....
....|..|D-4 .... ....|--- .... ....|--- .... ....
....|..|--- .... ....|D-3 1... ....|--- .... ....
....|..|D-4 .... ....|D-3 .... ....|--- .... ....
....|..|D-4 .... ....|C-4 5... ....|--- .... ....
....|..|--- .... ....|--- .... ....|--- .... ....
....|..|D-4 .... ....|D-3 1... ....|--- .... ....
....|..|--- .... ....|D-3 .... ....|--- .... ....
....|..|G-4 .... ....|F-2 4... ....|F-3 .... ....
....|..|G-4 .... ....|--- .... ....|--- .... ....
....|..|G-4 .... ....|F-3 1... ....|--- .... ....
....|..|--- .... ....|F-3 .... ....|--- .... ....
....|..|G-4 .... ....|C-4 5... ....|--- .... ....
....|..|--- .... ....|--- .... ....|--- .... ....
....|..|G-4 .... ....|F-3 1... ....|--- .... ....
....|..|G-4 .... ....|F-3 .... ....|--- .... ....
....|..|--- .... ....|F-2 4... ....|--- .... ....
....|..|F-4 .... ....|--- .... ....|--- .... ....
....|..|--- .... ....|F-3 1... ....|--- .... ....
....|..|F-4 .... ....|F-3 .... ....|--- .... ....
....|..|F-4 .... ....|C-4 5... ....|--- .... ....
....|..|--- .... ....|--- .... ....|--- .... ....
....|..|F-4 .... ....|F-3 1... ....|--- .... ....
....|..|--- .... ....|F-3 .... ....|--- .... ....
....|..|F-4 .... ....|G-2 4... ....|G-3 .... ....
....|..|E-4 .... ....|--- .... ....|--- .... ....
....|..|E-4 .... ....|G-3 1... ....|--- .... ....
....|..|--- .... ....|G-3 .... ....|--- .... ....
....|..|E-4 .... ....|C-4 5... ....|--- .... ....
....|..|--- .... ....|--- .... ....|--- .... ....
....|..|E-4 .... ....|G-3 1... ....|--- .... ....
....|..|E-4 .... ....|G-3 .... ....|--- .... ....
....|..|--- .... ....|G-2 4... ....|--- .... ....
....|..|C-4 .... ....|--- .... ....|--- .... ....
....|..|--- .... ....|G-3 1... ....|--- .... ....
....|..|C-4 .... ....|G-3 .... ....|--- .... ....
....|..|C-4 .... ....|C-4 5... ....|--- .... ....
....|..|--- .... ....|--- .... ....|--- .... ....
....|..|C-4 .... ....|G-3 1... ....|--- .... ....
....|..|C-4 .... ....|G-3 .... ....|--- .... ....

[Pattern10]
..2F|..|D-5 28.F ....|C-4 5..F ....|C-4 6..F ....
....|..|R-- .... ....|--- .... ....|--- .... ....
..2F|..|D-5 .8.. ....|--- .... ....|C-4 .... ....
....|..|--- .... ....|--- .... ....|--- .... ....
..27|..|F-5 .8.. ....|C-4 .... ....|C-4 .... ....
....|..|--- .... ....|--- .... ....|--- .... ....
..23|..|G-5 .8.. ....|--- .... ....|C-4 .... ....
....|..|--- .... ....|--- .... ....|--- .... ....
..1F|..|A-5 .8.. ....|C-4 .... ....|C-4 .... ....
....|..|--- .... ....|--- .... ....|--- .... ....
....|..|--- .... ....|--- .... ....|C-4 .... ....
....|..|--- .... ....|--- .... ....|--- .... ....
....|..|--- .... ....|C-4 .... ....|C-4 .... ....
....|..|--- .... ....|--- .... ....|--- .... ....
....|..|R-- .... ....|--- .... ....|C-4 .... ....
....|..|--- .... ....|--- .... ....|--- .... ....
....|..|--- .... ....|C-4 .... ....|C-4 .... ....
....|..|--- .... ....|--- .... ....|--- .... ....
..2F|..|D-5 .8.. ....|--- .... ....|C-4 .... ....
....|..|--- .... ....|--- .... ....|--- .... ....
..27|..|F-5 .8.. ....|C-4 .... ....|C-4 .... ....
....|..|--- .... ....|--- .... ....|--- .... ....
..23|..|G-5 .8.. ....|--- .... ....|C-4 .... ....
....|..|--- .... ....|--- .... ....|--- .... ....
..1F|..|A-5 .8.. ....|C-4 .... ....|C-4 .... ....
....|..|--- .... ....|--- .... ....|--- .... ....
..1A|..|C-6 .8.. ....|--- .... ....|C-4 .... ....
....|..|--- .... ....|--- .... ....|--- .... ....
..1F|..|A-5 .8.. ....|C-4 .... ....|C-4 .... ....
....|..|--- .... ....|--- .... ....|--- .... ....
....|..|--- .... ....|--- .... ....|C-4 .... ....
....|..|--- .... ....|--- .... ....|--- .... ....
....|..|R-- .... ....|C-4 .... ....|C-4 .... ....
....|..|--- .... ....|--- .... ....|--- .... ....
..2F|..|D-5 .8.. ....|--- .... ....|C-4 .... ....
....|..|--- .... ....|--- .... ....|--- .... ....
..27|..|F-5 .8.. ....|C-4 .... ....|C-4 .... ....
....|..|--- .... ....|--- .... ....|--- .... ....
..23|..|G-5 .8.. ....|--- .... ....|C-4 .... ....
....|..|--- .... ....|--- .... ....|--- .... ....
..1F|..|A-5 .8.. ....|C-4 .... ....|C-4 .... ....
....|..|--- .... ....|--- .... ....|--- .... ....
....|..|--- .... ....|--- .... ....|C-4 .... ....
....|..|--- .... ....|--- .... ....|--- .... ....
....|..|--- .... ....|C-4 .... ....|C-4 .... ....
....|..|--- .... ....|--- .... ....|--- .... ....
....|..|R-- .... ....|--- .... ....|C-4 .... ....
....|..|--- .... ....|--- .... ....|--- .... ....
....|..|--- .... ....|C-4 .... ....|C-4 .... ....
....|..|--- .... ....|--- .... ....|--- .... ....
..2F|..|D-5 .8.. ....|--- .... ....|C-4 .... ....
....|..|--- .... ....|--- .... ....|--- .... ....
..27|..|F-5 .8.. ....|C-4 .... ....|C-4 .... ....
....|..|--- .... ....|--- .... ....|--- .... ....
..23|..|G-5 .8.. ....|--- .... ....|C-4 .... ....
....|..|--- .... ....|--- .... ....|--- .... ....
..1F|..|A-5 .8.. ....|C-4 .... ....|C-4 .... ....
....|..|--- .... ....|--- .... ....|--- .... ....
..23|..|G-5 .8.. ....|--- .... ....|C-4 .... ....
....|..|--- .... ....|--- .... ....|--- .... ....
..1F|..|A-5 .8.. ....|C-4 .... ....|C-4 .... ....
....|..|--- .... ....|--- .... ....|--- .... ....
....|..|--- .... ....|--- .... ....|C-4 .... ....
....|..|--- .... ....|--- .... ....|--- .... ....

[Pattern11]
....|..|F-7 2F4B 1311|C-4 5..F ....|D#7 2F4B 1411
....|..|--- .... ....|--- .... ....|--- .... ....
....|..|--- .... ....|C-4 6... ....|--- .... ....
....|..|--- .... ....|--- .... ....|--- .... ....
....|..|--- .... ....|C-4 5... ....|--- .... ....
....|..|--- .... ....|--- .... ....|--- .... ....
....|..|--- .... ....|C-4 6... ....|--- .... ....
....|..|--- .... ....|--- .... ....|--- .... ....
....|..|--- .... ....|C-4 5... ....|--- .... ....
....|..|--- .... ....|--- .... ....|--- .... ....
....|..|--- .... ....|C-4 6... ....|--- .... ....
....|..|--- .... ....|--- .... ....|--- .... ....
....|..|--- .... ....|C-4 5... ....|--- .... ....
....|..|--- .... ....|--- .... ....|--- .... ....
....|..|--- .... ....|C-4 6... ....|--- .... ....
....|..|--- .... ....|--- .... ....|--- .... ....
....|..|--- .... ....|C-4 5... ....|--- .... ....
....|..|--- .... ....|--- .... ....|--- .... ....
....|..|--- .... ....|C-4 6... ....|--- .... ....
....|..|--- .... ....|--- .... ....|--- .... ....
....|..|--- .... ....|C-4 5... ....|--- .... ....
....|..|--- .... ....|--- .... ....|--- .... ....
....|..|--- .... ....|C-4 6... ....|--- .... ....
....|..|--- .... ....|--- .... ....|--- .... ....
....|..|--- .... ....|C-4 5... ....|--- .... ....
....|..|--- .... ....|--- .... ....|--- .... ....
....|..|--- .... ....|C-4 6... ....|--- .... ....
....|..|--- .... ....|--- .... ....|--- .... ....
....|..|--- .... ....|C-4 5... ....|--- .... ....
....|..|--- .... ....|--- .... ....|--- .... ....
....|..|--- .... ....|C-4 6... ....|--- .... ....
....|..|--- .... ....|--- .... ....|--- .... ....
....|..|F-7 .... 1311|C-4 5... ....|D#7 .... 1411
....|..|--- .... ....|--- .... ....|--- .... ....
....|..|--- .... ....|C-4 6... ....|--- .... ....
....|..|--- .... ....|--- .... ....|--- .... ....
....|..|--- .... ....|C-4 5... ....|--- .... ....
....|..|--- .... ....|--- .... ....|--- .... ....
....|..|--- .... ....|C-4 6... ....|--- .... ....
....|..|--- .... ....|--- .... ....|--- .... ....
....|..|--- .... ....|C-4 5... ....|--- .... ....
....|..|--- .... ....|--- .... ....|--- .... ....
....|..|--- .... ....|C-4 6... ....|--- .... ....
....|..|--- .... ....|--- .... ....|--- .... ....
....|..|--- .... ....|C-4 5... ....|--- .... ....
....|..|--- .... ....|--- .... ....|--- .... ....
....|..|--- .... ....|C-4 6... ....|--- .... ....
....|..|--- .... ....|--- .... ....|--- .... ....
....|..|--- .... ....|F-4 5... ....|--- .... ....
....|..|--- .... ....|--- .... ....|--- .... ....
....|..|--- .... ....|F-4 .... ....|--- .... ....
....|..|--- .... ....|--- .... ....|--- .... ....
....|..|--- .... ....|C-4 .... ....|--- .... ....
....|..|--- .... ....|C-4 .... ....|--- .... ....
....|..|--- .... ....|--- .... ....|--- .... ....
....|..|--- .... ....|A-3 .... ....|--- .... ....
....|..|--- .... ....|--- .... ....|--- .... ....
....|..|--- .... ....|A-3 .... ....|--- .... ....
....|..|--- .... ....|--- .... ....|--- .... ....
....|..|--- .... ....|G-3 .... ....|--- .... ....
....|..|--- .... ....|G-3 .... ....|--- .... ....
....|..|--- .... ....|--- .... ....|--- .... ....
....|..|--- .... ....|F-4 .... ....|--- .... ....
....|..|--- .... ....|F-4 .... ....|--- .... ....

[Pattern12]
....|..|D-5 1F.F ....|D-2 4F1F ....|D-4 3.FB ....
....|..|--- .... ....|--- .... ....|--- .... ....
....|..|D-5 .... ....|D-3 1... ....|--- .... ....
....|..|--- .... ....|D-3 .... ....|--- .... ....
....|..|F-5 .... ....|C-4 5... ....|--- .... ....
....|..|--- .... ....|--- .... ....|--- .... ....
....|..|G-5 .... ....|D-3 1... ....|--- .... ....
....|..|--- .... ....|D-3 .... ....|--- .... ....
....|..|A-5 .... ....|D-2 4... ....|--- .... ....
....|..|--- .... ....|--- .... ....|--- .... ....
....|..|--- .... ....|D-3 1... ....|--- .... ....
....|..|--- .... ....|D-3 .... ....|--- .... ....
....|..|C-6 .... ....|C-4 5... ....|--- .... ....
....|..|--- .... ....|--- .... ....|--- .... ....
....|..|A-5 .... ....|D-3 1... ....|--- .... ....
....|..|--- .... ....|D-3 .... ....|--- .... ....
....|..|--- .... ....|D-2 4... ....|--- .... ....
....|..|--- .... ....|--- .... ....|--- .... ....
....|..|D-6 .... ....|D-3 1... ....|--- .... ....
....|..|--- .... ....|D-3 .... ....|--- .... ....
....|..|C-6 .... ....|C-4 5... ....|--- .... ....
....|..|--- .... ....|--- .... ....|--- .... ....
....|..|G-5 .... ....|D-3 1... ....|--- .... ....
....|..|--- .... ....|D-3 .... ....|--- .... ....
....|..|A-5 .... ....|D-2 4... ....|--- .... ....
....|..|--- .... ....|--- .... ....|--- .... ....
....|..|E-5 .... ....|D-3 1... ....|--- .... ....
....|..|--- .... ....|D-3 .... ....|--- .... ....
....|..|F-5 .... ....|C-4 5... ....|--- .... ....
....|..|--- .... ....|--- .... ....|--- .... ....
....|..|G-5 .... ....|D-3 1... ....|--- .... ....
....|..|--- .... ....|D-3 .... ....|--- .... ....
....|..|F-5 .... ....|F-2 4... ....|F-3 .... ....
....|..|--- .... ....|--- .... ....|--- .... ....
....|..|G-5 .... ....|F-3 1... ....|--- .... ....
....|..|--- .... ....|F-3 .... ....|--- .... ....
....|..|--- .... ....|C-4 5... ....|--- .... ....
....|..|--- .... ....|--- .... ....|--- .... ....
....|..|A-5 .... ....|F-3 1... ....|--- .... ....
....|..|--- .... ....|F-3 .... ....|--- .... ....
....|..|--- .... ....|F-2 4... ....|--- .... ....
....|..|--- .... ....|--- .... ....|--- .... ....
....|..|C-6 .... ....|F-3 1... ....|--- .... ....
....|..|--- .... ....|F-3 .... ....|--- .... ....
....|..|D-6 .... ....|C-4 5... ....|--- .... ....
....|..|--- .... ....|--- .... ....|--- .... ....
....|..|F-6 .... ....|F-3 1... ....|--- .... ....
....|..|--- .... ....|F-3 .... ....|--- .... ....
....|..|D-6 .... ....|G-2 4... ....|G-3 .... ....
....|..|--- .... ....|--- .... ....|--- .... ....
....|..|A-5 .... ....|G-3 1... ....|--- .... ....
....|..|A-5 .... ....|G-3 .... ....|--- .... ....
....|..|C-6 .... ....|C-4 5... ....|--- .... ....
....|..|--- .... ....|--- .... ....|--- .... ....
....|..|G-5 .... ....|G-3 1... ....|--- .... ....
....|..|G-5 .... ....|G-3 .... ....|--- .... ....
....|..|A-5 .... ....|G-2 4... ....|--- .... ....
....|..|--- .... ....|--- .... ....|--- .... ....
....|..|F-5 .... ....|G-3 1... ....|--- .... ....
....|..|F-5 .... ....|G-3 .... ....|--- .... ....
....|..|G-5 .... ....|C-4 5... ....|--- .... ....
....|..|--- .... ....|--- .... ....|--- .... ....
....|..|C-5 .... ....|G-3 1... ....|--- .... ....
....|..|C-5 .... ....|G-3 .... ....|--- .... ....

[Pattern13]
....|..|F-7 2F4B 1311|C-4 5..F ....|D#7 2F4B 1411
....|..|--- .... ....|--- .... ....|--- .... ....
....|..|--- .... ....|C-4 6... ....|--- .... ....
....|..|--- .... ....|--- .... ....|--- .... ....
....|..|--- .... ....|C-4 5... ....|--- .... ....
....|..|--- .... ....|--- .... ....|--- .... ....
....|..|--- .... ....|C-4 6... ....|--- .... ....
....|..|--- .... ....|--- .... ....|--- .... ....
....|..|--- .... ....|C-4 5... ....|--- .... ....
....|..|--- .... ....|--- .... ....|--- .... ....
....|..|--- .... ....|C-4 6... ....|--- .... ....
....|..|--- .... ....|--- .... ....|--- .... ....
....|..|--- .... ....|C-4 5... ....|--- .... ....
....|..|--- .... ....|--- .... ....|--- .... ....
....|..|--- .... ....|C-4 6... ....|--- .... ....
....|..|--- .... ....|--- .... ....|--- .... ....
....|..|--- .... ....|C-4 5... ....|--- .... ....
....|..|--- .... ....|--- .... ....|--- .... ....
....|..|--- .... ....|C-4 6... ....|--- .... ....
....|..|--- .... ....|--- .... ....|--- .... ....
....|..|--- .... ....|C-4 5... ....|--- .... ....
....|..|--- .... ....|--- .... ....|--- .... ....
....|..|--- .... ....|C-4 6... ....|--- .... ....
....|..|--- .... ....|--- .... ....|--- .... ....
....|..|--- .... ....|C-4 5... ....|--- .... ....
....|..|--- .... ....|--- .... ....|--- .... ....
....|..|--- .... ....|C-4 6... ....|--- .... ....
....|..|--- .... ....|--- .... ....|--- .... ....
....|..|--- .... ....|C-4 5... ....|--- .... ....
....|..|--- .... ....|--- .... ....|--- .... ....
....|..|--- .... ....|C-4 6... ....|--- .... ....
....|..|--- .... ....|--- .... ....|--- .... ....
....|..|F-7 .... 1311|C-4 5... ....|D#7 .... 1411
....|..|--- .... ....|--- .... ....|--- .... ....
....|..|--- .... ....|C-4 6... ....|--- .... ....
....|..|--- .... ....|--- .... ....|--- .... ....
....|..|--- .... ....|C-4 5... ....|--- .... ....
....|..|--- .... ....|--- .... ....|--- .... ....
....|..|--- .... ....|C-4 6... ....|--- .... ....
....|..|--- .... ....|--- .... ....|--- .... ....
....|..|--- .... ....|C-4 5... ....|--- .... ....
....|..|--- .... ....|--- .... ....|--- .... ....
....|..|--- .... ....|C-4 6... ....|--- .... ....
....|..|--- .... ....|--- .... ....|--- .... ....
....|..|--- .... ....|C-4 5... ....|--- .... ....
....|..|--- .... ....|--- .... ....|--- .... ....
....|..|--- .... ....|C-4 6... ....|--- .... ....
....|..|--- .... ....|--- .... ....|--- .... ....
....|..|--- .... ....|C-4 5... ....|--- .... ....
....|..|--- .... ....|--- .... ....|--- .... ....
....|..|--- .... ....|C-4 6... ....|--- .... ....
....|..|--- .... ....|--- .... ....|--- .... ....
....|..|--- .... ....|C-4 5... ....|--- .... ....
....|..|--- .... ....|--- .... ....|--- .... ....
....|..|--- .... ....|C-4 6... ....|--- .... ....
....|..|--- .... ....|--- .... ....|--- .... ....
....|..|--- .... ....|C-4 5... ....|--- .... ....
....|..|--- .... ....|--- .... ....|--- .... ....
....|..|--- .... ....|C-4 6... ....|--- .... ....
....|..|--- .... ....|--- .... ....|--- .... ....
....|..|--- .... ....|C-4 5... ....|--- .... ....
....|..|--- .... ....|--- .... ....|--- .... ....
....|..|--- .... ....|C-4 6... ....|--- .... ....
....|..|--- .... ....|--- .... ....|--- .... ....

[Pattern14]
....|..|R-- .... ....|C-4 5..F ....|R-- .... ....
....|..|--- .... ....|--- .... ....|--- .... ....
....|..|--- .... ....|C-4 6... ....|--- .... ....
....|..|--- .... ....|--- .... ....|--- .... ....
....|..|--- .... ....|C-4 5... ....|--- .... ....
....|..|--- .... ....|--- .... ....|--- .... ....
....|..|--- .... ....|C-4 6... ....|--- .... ....
....|..|--- .... ....|--- .... ....|--- .... ....
....|..|--- .... ....|C-4 5... ....|--- .... ....
....|..|--- .... ....|--- .... ....|--- .... ....
....|..|--- .... ....|C-4 6... ....|--- .... ....
....|..|--- .... ....|--- .... ....|--- .... ....
....|..|--- .... ....|C-4 5... ....|--- .... ....
....|..|--- .... ....|--- .... ....|--- .... ....
....|..|--- .... ....|C-4 6... ....|--- .... ....
....|..|--- .... ....|--- .... ....|--- .... ....
....|..|--- .... ....|C-4 5... ....|--- .... ....
....|..|--- .... ....|--- .... ....|--- .... ....
....|..|--- .... ....|C-4 6... ....|--- .... ....
....|..|--- .... ....|--- .... ....|--- .... ....
....|..|--- .... ....|C-4 5... ....|--- .... ....
....|..|--- .... ....|--- .... ....|--- .... ....
....|..|--- .... ....|C-4 6... ....|--- .... ....
....|..|--- .... ....|--- .... ....|--- .... ....
....|..|--- .... ....|C-4 5... ....|--- .... ....
....|..|--- .... ....|--- .... ....|--- .... ....
....|..|--- .... ....|C-4 6... ....|--- .... ....
....|..|--- .... ....|--- .... ....|--- .... ....
....|..|--- .... ....|C-4 5... ....|--- .... ....
....|..|--- .... ....|--- .... ....|--- .... ....
....|..|--- .... ....|C-4 6... ....|--- .... ....
....|..|--- .... ....|--- .... ....|--- .... ....
....|..|--- .... ....|C-4 5... ....|--- .... ....
....|..|--- .... ....|--- .... ....|--- .... ....
....|..|--- .... ....|C-4 6... ....|--- .... ....
....|..|--- .... ....|--- .... ....|--- .... ....
....|..|--- .... ....|C-4 5... ....|--- .... ....
....|..|--- .... ....|--- .... ....|--- .... ....
....|..|--- .... ....|C-4 6... ....|--- .... ....
....|..|--- .... ....|--- .... ....|--- .... ....
....|..|--- .... ....|C-4 5... ....|--- .... ....
....|..|--- .... ....|--- .... ....|--- .... ....
....|..|--- .... ....|C-4 6... ....|--- .... ....
....|..|--- .... ....|--- .... ....|--- .... ....
....|..|--- .... ....|C-4 5... ....|--- .... ....
....|..|--- .... ....|--- .... ....|--- .... ....
....|..|--- .... ....|C-4 6... ....|--- .... ....
....|..|--- .... ....|--- .... ....|--- .... ....
....|..|--- .... ....|F-4 5... ....|--- .... ....
....|..|--- .... ....|--- .... ....|--- .... ....
....|..|--- .... ....|F-4 .... ....|--- .... ....
....|..|--- .... ....|--- .... ....|--- .... ....
....|..|--- .... ....|C-4 .... ....|--- .... ....
....|..|--- .... ....|C-4 .... ....|--- .... ....
....|..|--- .... ....|--- .... ....|--- .... ....
....|..|--- .... ....|A-3 .... ....|--- .... ....
....|..|--- .... ....|--- .... ....|--- .... ....
....|..|--- .... ....|A-3 .... ....|--- .... ....
....|..|--- .... ....|--- .... ....|--- .... ....
....|..|--- .... ....|G-3 .... ....|--- .... ....
....|..|--- .... ....|G-3 .... ....|--- .... ....
....|..|--- .... ....|--- .... ....|--- .... ....
....|..|--- .... ....|F-4 .... ....|--- .... ....
....|..|--- .... ....|F-4 .... ....|--- .... ....

