[Module]
VortexTrackerII=0
Version=3.5
Title=LIFE SALE TO RETAIL(PT2.01 VER)
Author=Avatar,da ovafrozen man
NoteTable=1
Speed=3
PlayOrder=L0,1,2,3,4,5,6,6,6,7,8,9,9,9,10,11,11,14,12,12,15,13,16,17,18,19,20,21,22,21,23,24,25,21,26,6,6,6,31,9,9,9,10,11,11,11,27,28,28,28,29,30

[Ornament1]
L0

[Ornament2]
12,0,L12

[Ornament3]
L0

[Ornament4]
L0

[Ornament5]
L0

[Ornament6]
L0

[Ornament7]
L0

[Ornament8]
0,24,L0

[Ornament9]
L0,12,24,36

[Ornament10]
L0

[Ornament11]
L0

[Ornament12]
L14,0,0,0,19,19,0,0,0,0,0,0,0,0,0,0,19,19,0,0,0,0,7,7,0,0,0,0,0,0,0,0,0,0,7,7,0,0,0,0,0,0,0,0,7,0,12,0

[Ornament13]
L0

[Ornament14]
L0

[Ornament15]
L0

[Sample1]
TNE +000_ +08_ F_
TnE +300_ +00_ F_
TnE +400_ +00_ E_
TnE +580_ +00_ D_
TnE +680_ +00_ A_
TnE +780_ +00_ 4_
TNE +000_ +00_ 0_ L

[Sample2]
TnE +000_ +00_ F_
TnE +000_ +00_ F_
TnE +000_ +00_ E_
TnE +000_ +00_ E_
TnE +000_ +00_ 0_ L

[Sample3]
tnE +000_ +00_ 0_ L

[Sample4]
TNE +040_ +08_ F_
TNE +080_ +07_ E_
TNE +0C0_ +05_ D_
TNE +100_ +04_ B_
TNE +140_ +03_ 9_
TNE +180_ +02_ 6_
TNE +1C0_ +01_ 3_
TNE +000_ +00_ 0_ L

[Sample5]
TNE +000_ +00_ F_ L
TNE -002_ +00_ F_
TNE -005_ +00_ F_
TNE -007_ +00_ F_
TNE -005_ +00_ F_
TNE -002_ +00_ F_
TNE +000_ +00_ F_
TNE -002_ +00_ F_
TNE -005_ +00_ F_
TNE -007_ +00_ F_
TNE -005_ +00_ F_
TNE -002_ +00_ F_
TNE +000_ +00_ F_
TNE -002_ +00_ F_
TNE -005_ +00_ F_
TNE -007_ +00_ F_
TNE -005_ +00_ F_
TNE -002_ +00_ F_
TNE +000_ +00_ F_
TNE -002_ +00_ F_
TNE -005_ +00_ F_
TNE -007_ +00_ F_
TNE -005_ +00_ F_
TNE -002_ +00_ F_
TNE +000_ +00_ F_
TNE -002_ +00_ F_
TNE -005_ +00_ F_
TNE -007_ +00_ F_
TNE -005_ +00_ F_
TNE -002_ +00_ F_
TNE +000_ +00_ F_
TNE -002_ +00_ F_
TNE -005_ +00_ F_
TNE -007_ +00_ F_
TNE -005_ +00_ F_
TNE -002_ +00_ F_
TNE +000_ +00_ F_
TNE -002_ +00_ F_
TNE -005_ +00_ F_
TNE -007_ +00_ F_
TNE -005_ +00_ F_
TNE -002_ +00_ F_

[Sample6]
TNE +000_ +03_ F_
TNE +000_ +07_ F_
TnE +000_ +00_ F_
TnE +000_ +00_ F_
TnE +000_ +00_ F_
TnE +000_ +00_ F_
TnE +000_ +00_ F_
TNE +000_ +03_ E_
TNE +000_ +07_ E_
TNE +000_ +0B_ E_
TnE +000_ +00_ E_
TNE +000_ +03_ D_
TNE +000_ +07_ D_
TNE +000_ +0B_ D_
TnE +000_ +00_ D_
TNE +000_ +03_ C_
TNE +000_ +07_ C_
TNE +000_ +0B_ C_
TnE +000_ +00_ C_
TNE +000_ +03_ B_
TNE +000_ +07_ B_
TNE +000_ +0B_ B_
TnE +000_ +00_ B_
TNE +000_ +03_ A_
TNE +000_ +07_ A_
TNE +000_ +0B_ A_
TnE +000_ +00_ 9_
TNE +000_ +03_ 9_
TNE +000_ +07_ 9_
TNE +000_ +0B_ 8_
TnE +000_ +00_ 8_
TNE +000_ +03_ 7_
TNE +000_ +07_ 7_
TNE +000_ +0B_ 6_
TnE +000_ +00_ 6_
TNE +000_ +03_ 5_
TNE +000_ +07_ 4_
TNE +000_ +0B_ 2_
TnE +000_ +00_ 0_ L

[Sample7]
tne +000_ +00_ 0_ L

[Sample8]
tne +000_ +00_ 0_ L

[Sample9]
tne +000_ +00_ 0_ L

[Sample10]
TnE +000_ +00_ F_ L
TnE +000_ +00_ F_
TnE +000_ +00_ F_
TnE +000_ +00_ F_
TnE +000_ +00_ F_

[Sample11]
tne +000_ +00_ 0_ L

[Sample12]
tNE +000_ +00_ F_
tNE +000_ +00_ F_
tNE +000_ +00_ E_
tNE +000_ +00_ E_
tNE +000_ +00_ D_
tNE +000_ +00_ D_
TNE +000_ +00_ 0_ L

[Sample13]
tne +000_ +00_ 0_ L

[Sample14]
tNE +000_ +00_ F_
tNE +000_ +00_ E_
TNE +000_ +00_ 0_ L

[Sample15]
TNE +000_ +00_ 0_ L

[Sample16]
tne +000_ +00_ 0_ L

[Sample17]
tne +000_ +00_ 0_ L

[Sample18]
tne +000_ +00_ 0_ L

[Sample19]
tne +000_ +00_ 0_ L

[Sample20]
tne +000_ +00_ 0_ L

[Sample21]
tne +000_ +00_ 0_ L

[Sample22]
tne +000_ +00_ 0_ L

[Sample23]
tne +000_ +00_ 0_ L

[Sample24]
tne +000_ +00_ 0_ L

[Sample25]
tne +000_ +00_ 0_ L

[Sample26]
tne +000_ +00_ 0_ L

[Sample27]
tne +000_ +00_ 0_ L

[Sample28]
tne +000_ +00_ 0_ L

[Sample29]
tne +000_ +00_ 0_ L

[Sample30]
tne +000_ +00_ 0_ L

[Sample31]
tne +000_ +00_ 0_ L

[Pattern0]
....|..|C-4 2F8F B..3|C-3 6F9F ....|C-5 6F9D ....
....|..|C-4 ...9 ....|--- .... ....|--- .... ....
....|..|C-4 ...F ....|--- .... ....|--- .... ....
....|..|C-4 ...9 ....|--- .... ....|--- .... ....
....|..|C-5 ..2F ....|--- .... ....|--- .... ....
....|..|C-4 ..89 ....|--- .... ....|--- .... ....
....|..|C-4 ...F ....|--- .... ....|--- .... ....
....|..|C-5 ..29 ....|--- .... ....|--- .... ....
....|..|A#4 ...F ....|--- .... ....|--- .... ....
....|..|C-4 ..89 ....|--- .... ....|--- .... ....
....|..|C-5 ..2F ....|--- .... ....|--- .... ....
....|..|A#4 ...9 ....|--- .... ....|--- .... ....
....|..|C-4 ..8F ....|C-3 ...D ....|C-5 ...B ....
....|..|C-5 ..29 ....|--- .... ....|--- .... ....
....|..|D#5 ...F ....|--- .... ....|--- .... ....
....|..|C-4 ..89 ....|--- .... ....|--- .... ....
....|..|C-4 ...F ....|--- .... ....|--- .... ....
....|..|D#5 ..29 ....|--- .... ....|--- .... ....
....|..|D#5 ...F ....|--- .... ....|--- .... ....
....|..|C-4 ..89 ....|--- .... ....|--- .... ....
....|..|C-4 ...F ....|--- .... ....|--- .... ....
....|..|D#5 ..29 ....|--- .... ....|--- .... ....
....|..|C-4 ..8F ....|--- .... ....|--- .... ....
....|..|C-4 ...9 ....|--- .... ....|--- .... ....
....|..|F-5 ..2F ....|C-3 ...B ....|C-5 ...8 ....
....|..|C-4 ..89 ....|--- .... ....|--- .... ....
....|..|C-4 ...F ....|--- .... ....|--- .... ....
....|..|F-5 ..29 ....|--- .... ....|--- .... ....
....|..|D-5 ...F ....|--- .... ....|--- .... ....
....|..|C-4 ..89 ....|--- .... ....|--- .... ....
....|..|A#4 ..2F ....|--- .... ....|--- .... ....
....|..|D-5 ...9 ....|--- .... ....|--- .... ....
....|..|C-4 ..8F ....|--- .... ....|--- .... ....
....|..|A#4 ..29 ....|--- .... ....|--- .... ....
....|..|C-5 ...F ....|--- .... ....|--- .... ....
....|..|C-4 ..89 ....|--- .... ....|--- .... ....
....|..|C-4 ...F ....|C-4 4F.6 ....|--- .... ....
....|..|C-5 ..29 ....|C-4 ...7 ....|--- .... ....
....|..|C-4 ..8F ....|C-4 ...8 ....|--- .... ....
....|..|C-4 ...9 ....|C-4 ...9 ....|C-4 4F.2 ....
....|..|C-5 ..2F ....|C-4 .... ....|C-4 ...3 ....
....|..|C-4 ..89 ....|C-4 .... ....|C-4 ...5 ....
....|..|C-4 ...F ....|C-4 .... ....|C-4 ...7 ....
....|..|C-5 ..29 ....|C-4 .... ....|C-4 ...9 ....
....|..|A#4 ...F ....|C-4 .... ....|C-4 ...B ....
....|..|C-4 ..89 ....|C-4 .... ....|C-4 ...D ....
....|..|C-5 ..2F ....|C-4 .... ....|C-4 ...F ....
....|..|A#4 ...9 ....|C-4 .... ....|C-4 ...E ....
....|..|C-4 ..8F ....|C-3 6F9F ....|C-4 ...D ....
....|..|C-5 ..29 ....|--- .... ....|C-4 ...C ....
....|..|D#5 ...F ....|--- .... ....|C-4 ...B ....
....|..|C-4 ..89 ....|--- .... ....|C-4 ...A ....
....|..|C-4 ...F ....|--- .... ....|C-4 ...9 ....
....|..|D#5 ..29 ....|--- .... ....|C-4 ...8 ....
....|..|F-5 ...F ....|A#2 .... ....|C-4 ...7 ....
....|..|C-4 ..89 ....|--- .... ....|C-4 ...6 ....
....|..|C-4 ...F ....|--- .... ....|C-4 ...5 ....
....|..|F-5 ..29 ....|--- .... ....|C-4 ...4 ....
....|..|G-5 ...F ....|A#2 .... ....|C-4 ...3 ....
....|..|C-4 ..89 ....|--- .... ....|C-4 ...2 ....
....|..|A#5 ..2F ....|D#3 .... ....|C-4 ...7 ....
....|..|G-5 ...9 ....|--- .... ....|C-4 ...A ....
....|..|C-6 ...F ....|A#2 .... ....|C-4 ...D ....
....|..|A#5 ...9 ....|--- .... ....|C-4 ...F ....

[Pattern1]
....|..|C-4 2F8F ....|C-3 6F9F ....|C-5 6F9D ....
....|..|C-4 ...9 ....|--- .... ....|--- .... ....
....|..|C-4 ...F ....|--- .... ....|--- .... ....
....|..|C-4 ...9 ....|--- .... ....|--- .... ....
....|..|C-5 ..2F ....|--- .... ....|--- .... ....
....|..|C-4 ..89 ....|--- .... ....|--- .... ....
....|..|C-4 ...F ....|--- .... ....|--- .... ....
....|..|C-5 ..29 ....|--- .... ....|--- .... ....
....|..|A#4 ...F ....|--- .... ....|--- .... ....
....|..|C-4 ..89 ....|--- .... ....|--- .... ....
....|..|C-5 ..2F ....|--- .... ....|--- .... ....
....|..|A#4 ...9 ....|--- .... ....|--- .... ....
....|..|C-4 ..8F ....|C-3 ...D ....|C-5 ...B ....
....|..|C-5 ..29 ....|--- .... ....|--- .... ....
....|..|D#5 ...F ....|--- .... ....|--- .... ....
....|..|C-4 ..89 ....|--- .... ....|--- .... ....
....|..|C-4 ...F ....|--- .... ....|--- .... ....
....|..|D#5 ..29 ....|--- .... ....|--- .... ....
....|..|D#5 ...F ....|--- .... ....|--- .... ....
....|..|C-4 ..89 ....|--- .... ....|--- .... ....
....|..|C-4 ...F ....|--- .... ....|--- .... ....
....|..|D#5 ..29 ....|--- .... ....|--- .... ....
....|..|C-4 ..8F ....|--- .... ....|--- .... ....
....|..|C-4 ...9 ....|--- .... ....|--- .... ....
....|..|F-5 ..2F ....|C-3 ...B ....|C-5 ...8 ....
....|..|C-4 ..89 ....|--- .... ....|--- .... ....
....|..|C-4 ...F ....|--- .... ....|--- .... ....
....|..|F-5 ..29 ....|--- .... ....|--- .... ....
....|..|D-5 ...F ....|--- .... ....|--- .... ....
....|..|C-4 ..89 ....|--- .... ....|--- .... ....
....|..|A#4 ..2F ....|--- .... ....|--- .... ....
....|..|D-5 ...9 ....|--- .... ....|--- .... ....
....|..|C-4 ..8F ....|--- .... ....|C-4 4F.F ....
....|..|A#4 ..29 ....|--- .... ....|--- .... ....
....|..|C-5 ...F ....|C-4 FF.F ....|C-4 1... ....
....|..|C-4 ..89 ....|--- .... ....|--- .... ....
....|..|C-4 ...F ....|C-4 6F9. ....|C-4 4... ....
....|..|C-5 ..29 ....|--- .... ....|--- .... ....
....|..|C-4 ..8F ....|--- .... ....|C-4 E... ....
....|..|C-4 ...9 ....|C-4 FF.. ....|--- .... ....
....|..|C-5 ..2F ....|C-4 6F9. ....|C-4 1... ....
....|..|C-4 ..89 ....|--- .... ....|C-4 .... ....
....|..|C-4 ...F ....|A#3 .... ....|C-4 4... ....
....|..|C-5 ..29 ....|--- .... ....|--- .... ....
....|..|A#4 ...F ....|--- .... ....|C-4 .... ....
....|..|C-4 ..89 ....|C-4 FF.. ....|--- .... ....
....|..|C-5 ..2F ....|C-4 6F9. ....|C-4 .... ....
....|..|A#4 ...9 ....|--- .... ....|C-4 .... ....
....|..|C-4 ..8F ....|--- .... ....|C-4 .... ....
....|..|C-5 ..29 ....|C-4 FF.. ....|--- .... ....
....|..|D#5 ...F ....|A#3 6F9. ....|C-4 1... ....
....|..|C-4 ..89 ....|--- .... ....|--- .... ....
....|..|C-4 ...F ....|C-4 .... ....|C-4 E... ....
....|..|D#5 ..29 ....|--- .... ....|--- .... ....
....|..|F-5 ...F ....|--- .... ....|C-4 4... ....
....|..|C-4 ..89 ....|C-4 FF.. ....|--- .... ....
....|..|C-4 ...F ....|A#3 6F9. ....|C-4 1... ....
....|..|F-5 ..29 ....|--- .... ....|--- .... ....
....|..|G-5 ...F ....|D#4 .... ....|C-4 4... ....
....|..|C-4 ..89 ....|--- .... ....|--- .... ....
....|..|A#5 ..2F ....|D-4 .... ....|C-4 .... ....
....|..|G-5 ...9 ....|--- .... ....|C-4 .... ....
....|..|G-5 ...F ....|A#3 .... ....|C-4 .... ....
....|..|A#5 ...9 ....|B-3 .... ....|C-4 .... ....

[Pattern2]
....|..|C-4 2F8F ....|C-4 6F9F ....|C-4 1... ....
....|..|C-4 ...9 ....|--- .... ....|--- .... ....
....|..|C-4 ...F ....|--- .... ....|--- .... ....
....|..|C-4 ...9 ....|--- .... ....|--- .... ....
..3C|..|C-5 ..2F ....|G-4 AC.. ....|C-4 E... ....
....|..|C-4 ..89 ....|--- .... ....|--- .... ....
....|..|C-4 ...F ....|--- .... ....|--- .... ....
....|..|C-5 ..29 ....|--- .... ....|--- .... ....
....|..|A#4 ...F ....|--- .... ....|C-4 1... ....
....|..|C-4 ..89 ....|R-- .... ....|--- .... ....
....|..|C-5 ..2F ....|G-4 .... ....|--- .... ....
....|..|A#4 ...9 ....|--- .... ....|--- .... ....
....|..|C-4 ..8F ....|--- .... ....|C-4 E... ....
....|..|C-5 ..29 ....|--- .... ....|--- .... ....
....|..|D#5 ...F ....|--- .... ....|--- .... ....
....|..|C-4 ..89 ....|R-- .... ....|--- .... ....
....|..|C-4 ...F ....|G-4 .... ....|C-4 1... ....
....|..|D#5 ..29 ....|--- .... ....|--- .... ....
....|..|D#5 ...F ....|--- .... ....|--- .... ....
....|..|C-4 ..89 ....|--- .... ....|--- .... ....
....|..|C-4 ...F ....|--- .... ....|C-4 E... ....
....|..|D#5 ..29 ....|R-- .... ....|--- .... ....
....|..|C-4 ..8F ....|G-4 .... ....|--- .... ....
....|..|C-4 ...9 ....|--- .... ....|--- .... ....
....|..|F-5 ..2F ....|--- .... ....|C-4 1... ....
....|..|C-4 ..89 ....|R-- .... ....|--- .... ....
..3C|..|C-4 ...F ....|G-4 .8.. ....|--- .... ....
....|..|F-5 ..29 ....|--- .... ....|C-4 E... ....
..43|..|D-5 ...F ....|F-4 .8.. ....|C-4 .... ....
....|..|C-4 ..89 ....|--- .... ....|--- .... ....
..32|..|A#4 ..2F ....|A#4 .8.. ....|--- .... ....
....|..|D-5 ...9 ....|--- .... ....|C-4 .... ....
....|..|C-4 ..8F ....|--- .... ....|C-4 1... ....
....|..|A#4 ..29 ....|--- .... ....|--- .... ....
....|..|C-5 ...F ....|--- .... ....|--- .... ....
....|..|C-4 ..89 ....|R-- .... ....|--- .... ....
..3C|..|C-4 ...F ....|G-4 .8.. ....|C-4 E... ....
....|..|C-5 ..29 ....|--- .... ....|--- .... ....
....|..|C-4 ..8F ....|--- .... ....|--- .... ....
....|..|C-4 ...9 ....|--- .... ....|--- .... ....
....|..|C-5 ..2F ....|--- .... ....|C-4 1... ....
....|..|C-4 ..89 ....|R-- .... ....|--- .... ....
....|..|C-4 ...F ....|G-4 .... ....|--- .... ....
....|..|C-5 ..29 ....|--- .... ....|--- .... ....
....|..|A#4 ...F ....|--- .... ....|C-4 E... ....
....|..|C-4 ..89 ....|--- .... ....|--- .... ....
....|..|C-5 ..2F ....|--- .... ....|C-4 1... ....
....|..|A#4 ...9 ....|R-- .... ....|--- .... ....
....|..|C-4 ..8F ....|G-4 .... ....|C-4 E... ....
....|..|C-5 ..29 ....|--- .... ....|--- .... ....
....|..|D#5 ...F ....|--- .... ....|C-4 1... ....
....|..|C-4 ..89 ....|--- .... ....|--- .... ....
....|..|C-4 ...F ....|--- .... ....|C-4 E... ....
....|..|D#5 ..29 ....|R-- .... ....|--- .... ....
....|..|F-5 ...F ....|G-4 .... ....|C-4 .... ....
....|..|C-4 ..89 ....|--- .... ....|C-4 4... ....
....|..|C-4 ...F ....|--- .... ....|C-4 1... ....
....|..|F-5 ..29 ....|--- .... ....|--- .... ....
....|..|G-5 ...F ....|--- .... ....|--- .... ....
....|..|C-4 ..89 ....|--- .... ....|--- .... ....
..43|..|A#5 ..2F ....|F-4 .8.. ....|C-4 .... ....
....|..|G-5 ...9 ....|--- .... ....|--- .... ....
....|..|C-6 ...F ....|--- .... ....|C-4 E... ....
....|..|A#5 ...9 ....|--- .... ....|--- .... ....

[Pattern3]
..3C|..|C-4 2F8F ....|G-4 A8.. ....|C-4 1... ....
....|..|C-4 ...9 ....|--- .... ....|--- .... ....
..43|..|C-4 ...F ....|F-4 .8.. ....|--- .... ....
....|..|C-4 ...9 ....|--- .... ....|--- .... ....
..3C|..|C-5 ..2F ....|G-4 .8.. ....|C-4 E... ....
....|..|C-4 ..89 ....|--- .... ....|--- .... ....
....|..|C-4 ...F ....|--- .... ....|--- .... ....
....|..|C-5 ..29 ....|--- .... ....|--- .... ....
....|..|A#4 ...F ....|--- .... ....|C-4 1... ....
....|..|C-4 ..89 ....|R-- .... ....|--- .... ....
....|..|C-5 ..2F ....|G-4 .... ....|--- .... ....
....|..|A#4 ...9 ....|--- .... ....|--- .... ....
....|..|C-4 ..8F ....|--- .... ....|C-4 E... ....
....|..|C-5 ..29 ....|--- .... ....|--- .... ....
....|..|D#5 ...F ....|--- .... ....|--- .... ....
....|..|C-4 ..89 ....|R-- .... ....|--- .... ....
....|..|C-4 ...F ....|G-4 .... ....|C-4 1... ....
....|..|D#5 ..29 ....|--- .... ....|--- .... ....
....|..|D#5 ...F ....|--- .... ....|--- .... ....
....|..|C-4 ..89 ....|--- .... ....|--- .... ....
....|..|C-4 ...F ....|--- .... ....|C-4 E... ....
....|..|D#5 ..29 ....|R-- .... ....|--- .... ....
....|..|C-4 ..8F ....|G-4 .... ....|--- .... ....
....|..|C-4 ...9 ....|--- .... ....|--- .... ....
....|..|F-5 ..2F ....|--- .... ....|C-4 1... ....
....|..|C-4 ..89 ....|R-- .... ....|--- .... ....
..3C|..|C-4 ...F ....|G-4 .8.. ....|--- .... ....
....|..|F-5 ..29 ....|--- .... ....|C-4 E... ....
..43|..|D-5 ...F ....|F-4 .8.. ....|C-4 .... ....
....|..|C-4 ..89 ....|--- .... ....|--- .... ....
..32|..|A#4 ..2F ....|A#4 .8.. ....|--- .... ....
....|..|D-5 ...9 ....|--- .... ....|C-4 .... ....
....|..|C-4 ..8F ....|--- .... ....|C-4 1... ....
....|..|A#4 ..29 ....|--- .... ....|--- .... ....
....|..|C-5 ...F ....|C-4 4F.F ....|--- .... ....
....|..|C-4 ..89 ....|R-- .... ....|--- .... ....
..3C|..|C-4 ...F ....|G-4 A8.. ....|C-4 E... ....
....|..|C-5 ..29 ....|--- .... ....|--- .... ....
....|..|C-4 ..8F ....|C-4 4F.. ....|--- .... ....
....|..|C-4 ...9 ....|--- .... ....|--- .... ....
....|..|C-5 ..2F ....|--- .... ....|C-4 1... ....
....|..|C-4 ..89 ....|R-- .... ....|--- .... ....
..3C|..|C-4 ...F ....|G-4 A8.. ....|--- .... ....
....|..|C-5 ..29 ....|--- .... ....|--- .... ....
....|..|A#4 ...F ....|C-4 4F.. ....|C-4 E... ....
....|..|C-4 ..89 ....|C-4 .... ....|--- .... ....
....|..|C-5 ..2F ....|C-4 .... ....|C-4 1... ....
....|..|A#4 ...9 ....|R-- .... ....|--- .... ....
..50|..|C-4 ..8F ....|D-4 A8.. ....|C-4 E... ....
....|..|C-5 ..29 ....|--- .... ....|--- .... ....
....|..|D#5 ...F ....|C-4 4F.. ....|C-4 1... ....
....|..|C-4 ..89 ....|--- .... ....|C-4 .... ....
....|..|C-4 ...F ....|C-4 .... ....|C-4 E... ....
....|..|D#5 ..29 ....|R-- .... ....|--- .... ....
..4B|..|F-5 ...F ....|D#4 A8.. ....|C-4 .... ....
....|..|C-4 ..89 ....|--- .... ....|--- .... ....
....|..|C-4 ...F ....|C-4 4F.. ....|C-4 1... ....
....|..|F-5 ..29 ....|--- .... ....|--- .... ....
..43|..|G-5 ...F ....|F-4 A8.. ....|C-4 .... ....
....|..|C-4 ..89 ....|--- .... ....|C-4 E... ....
..4B|..|A#5 ..2F ....|D#4 .8.. ....|C-4 1... ....
....|..|G-5 ...9 ....|--- .... ....|C-4 .... ....
..43|..|G-5 ...F ....|F-4 .8.. ....|C-4 .... ....
....|..|A#5 ...9 ....|--- .... ....|--- .... ....

[Pattern4]
..3C|..|C-4 2F8F ....|G-4 A8.. ....|C-4 1... ....
....|..|C-4 ...9 ....|--- .... ....|--- .... ....
..43|..|C-4 ...F ....|F-4 .8.. ....|C-4 E... ....
....|..|C-4 ...9 ....|--- .... ....|--- .... ....
..3C|..|C-5 ..2F ....|G-4 .8.. ....|C-4 C... ....
....|..|C-4 ..89 ....|--- .... ....|--- .... ....
....|..|C-4 ...F ....|--- .... ....|C-4 E... ....
....|..|C-5 ..29 ....|--- .... ....|--- .... ....
....|..|A#4 ...F ....|--- .... ....|C-4 1... ....
....|..|C-4 ..89 ....|R-- .... ....|--- .... ....
....|..|C-5 ..2F ....|G-4 .... ....|C-4 C... ....
....|..|A#4 ...9 ....|--- .... ....|--- .... ....
....|..|C-4 ..8F ....|--- .... ....|C-4 E... ....
....|..|C-5 ..29 ....|--- .... ....|--- .... ....
....|..|D#5 ...F ....|--- .... ....|C-4 4... ....
....|..|C-4 ..89 ....|R-- .... ....|--- .... ....
....|..|C-4 ...F ....|G-4 .... ....|C-4 1... ....
....|..|D#5 ..29 ....|--- .... ....|--- .... ....
....|..|D#5 ...F ....|--- .... ....|C-4 4... ....
....|..|C-4 ..89 ....|--- .... ....|--- .... ....
....|..|C-4 ...F ....|--- .... ....|C-4 C... ....
....|..|D#5 ..29 ....|R-- .... ....|--- .... ....
....|..|C-4 ..8F ....|G-4 .... ....|C-4 E... ....
....|..|C-4 ...9 ....|--- .... ....|--- .... ....
....|..|F-5 ..2F ....|--- .... ....|C-4 1... ....
....|..|C-4 ..89 ....|R-- .... ....|--- .... ....
..3C|..|C-4 ...F ....|G-4 .8.. ....|C-4 C... ....
....|..|F-5 ..29 ....|--- .... ....|C-4 E... ....
..43|..|D-5 ...F ....|F-4 .8.. ....|C-4 4... ....
....|..|C-4 ..89 ....|--- .... ....|--- .... ....
..32|..|A#4 ..2F ....|A#4 .8.. ....|C-4 .... ....
....|..|D-5 ...9 ....|--- .... ....|--- .... ....
....|..|C-4 ..8F ....|--- .... ....|C-4 1... ....
....|..|A#4 ..29 ....|--- .... ....|--- .... ....
....|..|C-5 ...F ....|--- .... ....|C-4 E... ....
....|..|C-4 ..89 ....|R-- .... ....|--- .... ....
..3C|..|C-4 ...F ....|G-4 .8.. ....|C-4 C... ....
....|..|C-5 ..29 ....|--- .... ....|--- .... ....
....|..|C-4 ..8F ....|--- .... ....|C-4 E... ....
....|..|C-4 ...9 ....|--- .... ....|--- .... ....
....|..|C-5 ..2F ....|--- .... ....|C-4 1... ....
....|..|C-4 ..89 ....|R-- .... ....|--- .... ....
....|..|C-4 ...F ....|G-4 .... ....|C-4 C... ....
....|..|C-5 ..29 ....|--- .... ....|--- .... ....
....|..|A#4 ...F ....|--- .... ....|C-4 E... ....
....|..|C-4 ..89 ....|--- .... ....|--- .... ....
....|..|C-5 ..2F ....|--- .... ....|C-4 1... ....
....|..|A#4 ...9 ....|R-- .... ....|--- .... ....
....|..|C-4 ..8F ....|G-4 .... ....|C-4 E... ....
....|..|C-5 ..29 ....|--- .... ....|--- .... ....
....|..|D#5 ...F ....|--- .... ....|C-4 4... ....
....|..|C-4 ..89 ....|--- .... ....|--- .... ....
....|..|C-4 ...F ....|--- .... ....|C-4 E... ....
....|..|D#5 ..29 ....|R-- .... ....|--- .... ....
..3C|..|F-5 ...F ....|G-4 .8.. ....|C-4 .... ....
....|..|C-4 ..89 ....|--- .... ....|C-4 4... ....
..43|..|C-4 ...F ....|F-4 .8.. ....|C-4 1... ....
....|..|F-5 ..29 ....|--- .... ....|--- .... ....
..4B|..|G-5 ...F ....|D#4 .8.. ....|C-4 4... ....
....|..|C-4 ..89 ....|--- .... ....|--- .... ....
..43|..|A#5 ..2F ....|F-4 .8.. ....|C-4 .... ....
....|..|G-5 ...9 ....|--- .... ....|--- .... ....
....|..|C-6 ...F ....|--- .... ....|C-4 1... ....
....|..|A#5 ...9 ....|--- .... ....|--- .... ....

[Pattern5]
..3C|..|C-4 2F8F ....|G-4 A8.. ....|C-4 1... ....
....|..|C-4 ...9 ....|--- .... ....|--- .... ....
..43|..|C-4 ...F ....|F-4 .8.. ....|C-4 E... ....
....|..|C-4 ...9 ....|--- .... ....|--- .... ....
..3C|..|C-5 ..2F ....|G-4 .8.. ....|C-4 C... ....
....|..|C-4 ..89 ....|--- .... ....|--- .... ....
....|..|C-4 ...F ....|--- .... ....|C-4 E... ....
....|..|C-5 ..29 ....|--- .... ....|--- .... ....
....|..|A#4 ...F ....|--- .... ....|C-4 1... ....
....|..|C-4 ..89 ....|R-- .... ....|--- .... ....
....|..|C-5 ..2F ....|G-4 .... ....|C-4 C... ....
....|..|A#4 ...9 ....|--- .... ....|--- .... ....
....|..|C-4 ..8F ....|--- .... ....|C-4 E... ....
....|..|C-5 ..29 ....|--- .... ....|--- .... ....
....|..|D#5 ...F ....|--- .... ....|C-4 4... ....
....|..|C-4 ..89 ....|R-- .... ....|--- .... ....
....|..|C-4 ...F ....|G-4 .... ....|C-4 1... ....
....|..|D#5 ..29 ....|--- .... ....|--- .... ....
....|..|D#5 ...F ....|--- .... ....|C-4 4... ....
....|..|C-4 ..89 ....|--- .... ....|--- .... ....
....|..|C-4 ...F ....|--- .... ....|C-4 C... ....
....|..|D#5 ..29 ....|R-- .... ....|--- .... ....
....|..|C-4 ..8F ....|G-4 .... ....|C-4 E... ....
....|..|C-4 ...9 ....|--- .... ....|--- .... ....
....|..|F-5 ..2F ....|--- .... ....|C-4 1... ....
....|..|C-4 ..89 ....|R-- .... ....|--- .... ....
..3C|..|C-4 ...F ....|G-4 .8.. ....|C-4 C... ....
....|..|F-5 ..29 ....|--- .... ....|C-4 E... ....
..43|..|D-5 ...F ....|F-4 .8.. ....|C-4 4... ....
....|..|C-4 ..89 ....|--- .... ....|--- .... ....
..32|..|A#4 ..2F ....|A#4 .8.. ....|C-4 .... ....
....|..|D-5 ...9 ....|--- .... ....|--- .... ....
....|..|C-4 ..8F ....|--- .... ....|C-4 1... ....
....|..|A#4 ..29 ....|--- .... ....|--- .... ....
....|..|C-5 ...F ....|--- .... ....|C-4 E... ....
....|..|C-4 ..89 ....|R-- .... ....|--- .... ....
..3C|..|C-4 ...F ....|G-4 .8.. ....|C-4 C... ....
....|..|C-5 ..29 ....|--- .... ....|--- .... ....
....|..|C-4 ..8F ....|--- .... ....|C-4 E... ....
....|..|C-4 ...9 ....|--- .... ....|--- .... ....
....|..|C-5 ..2F ....|--- .... ....|C-4 1... ....
....|..|C-4 ..89 ....|R-- .... ....|--- .... ....
..3C|..|C-4 ...F ....|G-4 .8.. ....|C-4 C... ....
....|..|C-5 ..29 ....|--- .... ....|--- .... ....
....|..|A#4 ...F ....|--- .... ....|C-4 E... ....
....|..|C-4 ..89 ....|--- .... ....|--- .... ....
....|..|C-5 ..2F ....|--- .... ....|C-4 4... ....
....|..|A#4 ...9 ....|R-- .... ....|--- .... ....
..50|..|C-4 ..8F ....|D-4 .8.. ....|C-4 1... ....
....|..|C-5 ..29 ....|--- .... ....|--- .... ....
..5A|..|D#5 ...F ....|C-4 .8.. ....|C-4 E... ....
....|..|C-4 ..89 ....|--- .... ....|--- .... ....
..50|..|C-4 ...F ....|D-4 .8.. ....|C-4 C... ....
....|..|D#5 ..29 ....|R-- .... ....|--- .... ....
..4B|..|F-5 ...F ....|D#4 .8.. ....|C-4 1... ....
....|..|C-4 ..89 ....|--- .... ....|--- .... ....
....|..|C-4 ...F ....|--- .... ....|C-4 4... ....
....|..|F-5 ..29 ....|--- .... ....|C-4 1... ....
..43|..|G-5 ...F ....|F-4 .8.. ....|C-4 4... ....
....|..|C-4 ..89 ....|--- .... ....|--- .... ....
..4B|..|A#5 ..2F ....|D#4 .8.. ....|C-4 .... ....
....|..|G-5 .F.9 ....|--- .... ....|--- .... ....
..43|..|D#6 ..2F ....|F-4 .8.. ....|C-4 .... ....
....|..|A#5 ...9 ....|--- .... ....|C-4 .... ....

[Pattern6]
..77|..|C-4 1F.F ....|G-3 A8.. ....|C-8 1F8F ....
....|..|C-4 5FC2 ....|--- .... ....|C-4 5FCE ....
..43|..|--- ...3 ....|F-4 .8.. ....|--- ...D ....
....|..|--- ...4 ....|--- .... ....|--- ...C ....
..3C|..|--- ...5 ....|G-4 .8.. ....|--- ...B ....
....|..|--- ...6 ....|--- .... ....|--- ...A ....
....|..|--- ...7 ....|--- .... ....|--- ...9 ....
....|..|--- ...8 ....|R-- .... ....|--- ...8 ....
..3C|..|--- ...9 ....|G-4 .8.. ....|--- ...7 ....
....|..|--- ...A ....|--- .... ....|--- ...6 ....
....|..|--- ...B ....|--- .... ....|--- ...5 ....
....|..|--- ...C ....|--- .... ....|--- ...4 ....
....|..|--- ...D ....|--- .... ....|--- ...3 ....
....|..|--- ...E ....|--- .... ....|--- ...2 ....
....|..|--- ...D ....|--- .... ....|--- ...3 ....
....|..|--- ...C ....|--- .... ....|--- ...4 ....
..77|..|--- ...B ....|G-3 .8.. ....|--- ...5 ....
....|..|--- ...A ....|R-- .... ....|--- ...6 ....
..3C|..|--- ...9 ....|G-4 .8.. ....|--- ...7 ....
....|..|--- ...8 ....|--- .... ....|--- ...8 ....
....|..|--- ...7 ....|--- .... ....|--- ...9 ....
....|..|--- ...6 ....|--- .... ....|--- ...A ....
..77|..|--- ...7 ....|G-3 .8.. ....|--- ...9 ....
....|..|--- ...8 ....|R-- .... ....|--- ...8 ....
..3C|..|--- ...9 ....|G-4 .8.. ....|--- ...7 ....
....|..|--- ...A ....|--- .... ....|--- ...6 ....
....|..|--- ...B ....|--- .... ....|--- ...5 ....
....|..|--- ...A ....|--- .... ....|--- ...6 ....
....|..|--- ...9 ....|--- .... ....|--- ...7 ....
....|..|--- ...8 ....|--- .... ....|--- ...8 ....
....|..|--- ...7 ....|--- .... ....|--- ...9 ....
....|..|--- ...6 ....|--- .... ....|--- ...A ....
..A9|..|--- ...7 ....|C#3 .8.. ....|--- ...9 ....
....|..|--- ...8 ....|R-- .... ....|--- ...8 ....
..54|..|--- ...9 ....|C#4 .8.. ....|--- ...7 ....
....|..|--- ...A ....|--- .... ....|--- ...6 ....
....|..|--- ...B ....|--- .... ....|--- ...5 ....
....|..|--- ...C ....|--- .... ....|--- ...4 ....
..A9|..|--- ...D ....|C#3 .8.. ....|--- ...3 ....
....|..|--- ...E ....|R-- .... ....|--- ...2 ....
..54|..|--- ...F ....|C#4 .8.. ....|--- ...1 ....
....|..|--- ...E ....|--- .... ....|--- ...2 ....
....|..|--- ...D ....|--- .... ....|--- ...3 ....
....|..|--- ...C ....|--- .... ....|--- ...4 ....
....|..|--- ...B ....|--- .... ....|--- ...5 ....
....|..|--- ...A ....|--- .... ....|--- ...6 ....
....|..|--- ...9 ....|--- .... ....|--- ...7 ....
....|..|--- ...8 ....|--- .... ....|--- ...8 ....
..71|..|--- ...7 ....|G#3 .8.. ....|--- ...9 ....
....|..|--- ...6 ....|R-- .... ....|--- ...A ....
..38|..|--- ...5 ....|G#4 .8.. ....|--- ...B ....
....|..|--- ...4 ....|--- .... ....|--- ...C ....
....|..|--- ...3 ....|--- .... ....|--- ...B ....
....|..|--- ...4 ....|--- .... ....|--- ...A ....
..64|..|--- ...5 ....|A#3 .8.. ....|--- ...9 ....
....|..|--- ...6 ....|R-- .... ....|--- ...8 ....
..32|..|--- ...7 ....|A#4 .8.. ....|--- ...7 ....
....|..|--- ...6 ....|--- .... ....|--- ...8 ....
..32|..|--- ...5 ....|A#4 38.. ....|--- ...9 ....
....|..|--- ...4 ....|--- .... ....|--- ...A ....
..43|..|--- ...3 ....|F-4 A8.. ....|--- ...B ....
....|..|--- ...2 ....|--- .... ....|--- ...C ....
..38|..|--- ...1 ....|G#4 .8.. ....|--- ...D ....
....|..|--- .... ....|--- .... ....|--- ...E ....

[Pattern7]
..77|..|C-4 1F.F ....|G-3 A8.. ....|C-8 1F.F ....
....|..|C-4 5FC2 ....|--- .... ....|C-4 5FCE ....
..43|..|--- ...3 ....|F-4 .8.. ....|--- ...D ....
....|..|--- ...4 ....|--- .... ....|--- ...C ....
..3C|..|--- ...5 ....|G-4 .8.. ....|--- ...B ....
....|..|--- ...6 ....|--- .... ....|--- ...A ....
....|..|--- ...7 ....|--- .... ....|--- ...9 ....
....|..|--- ...8 ....|R-- .... ....|--- ...8 ....
..3C|..|--- ...9 ....|G-4 .8.. ....|--- ...7 ....
....|..|--- ...A ....|--- .... ....|--- ...6 ....
....|..|--- ...B ....|--- .... ....|--- ...5 ....
....|..|--- ...C ....|--- .... ....|--- ...4 ....
....|..|--- ...D ....|--- .... ....|--- ...3 ....
....|..|--- ...E ....|--- .... ....|--- ...2 ....
....|..|--- ...D ....|--- .... ....|--- ...3 ....
....|..|--- ...C ....|--- .... ....|--- ...4 ....
..77|..|--- ...B ....|G-3 .8.. ....|--- ...5 ....
....|..|--- ...A ....|R-- .... ....|--- ...6 ....
..3C|..|--- ...9 ....|G-4 .8.. ....|--- ...7 ....
....|..|--- ...8 ....|--- .... ....|--- ...8 ....
....|..|--- ...7 ....|--- .... ....|--- ...9 ....
....|..|--- ...6 ....|--- .... ....|--- ...A ....
..77|..|--- ...7 ....|G-3 .8.. ....|--- ...9 ....
....|..|--- ...8 ....|R-- .... ....|--- ...8 ....
..3C|..|--- ...9 ....|G-4 .8.. ....|--- ...7 ....
....|..|--- ...A ....|--- .... ....|--- ...6 ....
....|..|--- ...B ....|--- .... ....|--- ...5 ....
....|..|--- ...A ....|--- .... ....|--- ...6 ....
....|..|--- ...9 ....|--- .... ....|--- ...7 ....
....|..|--- ...8 ....|--- .... ....|--- ...8 ....
....|..|--- ...7 ....|--- .... ....|--- ...9 ....
....|..|--- ...6 ....|--- .... ....|--- ...A ....
..A9|..|C-4 1F.F ....|C#3 .8.. ....|C-8 1F.F ....
....|..|C-4 5FC8 ....|R-- .... ....|C-4 5FC8 ....
..54|..|--- ...9 ....|C#4 .8.. ....|--- ...7 ....
....|..|--- ...A ....|--- .... ....|--- ...6 ....
....|..|--- ...B ....|--- .... ....|--- ...5 ....
....|..|--- ...C ....|--- .... ....|--- ...4 ....
..A9|..|--- ...D ....|C#3 .8.. ....|--- ...3 ....
....|..|--- ...E ....|R-- .... ....|--- ...2 ....
..54|..|C-4 1F.F ....|C#4 .8.. ....|C-8 1F.F ....
....|..|C-4 5FCE ....|--- .... ....|C-4 5FC2 ....
....|..|--- ...D ....|--- .... ....|--- ...3 ....
....|..|--- ...C ....|--- .... ....|--- ...4 ....
....|..|--- ...B ....|--- .... ....|--- ...5 ....
....|..|--- ...A ....|--- .... ....|--- ...6 ....
....|..|--- ...9 ....|--- .... ....|--- ...7 ....
....|..|--- ...8 ....|--- .... ....|--- ...8 ....
..71|..|C-4 1F.F ....|G#3 .8.. ....|C-8 1F.F ....
....|..|--- .... ....|R-- .... ....|C-4 5FCA ....
..38|..|C-4 .... ....|G#4 .8.. ....|--- ...B ....
....|..|C-4 .... ....|--- .... ....|--- ...C ....
....|..|C-4 .... ....|--- .... ....|--- ...B ....
....|..|--- .... ....|--- .... ....|--- ...A ....
..64|..|C-4 .... ....|A#3 .8.. ....|C-8 1F.F ....
....|..|--- .... ....|R-- .... ....|C-4 5FC8 ....
..32|..|C-4 .... ....|A#4 .8.. ....|--- ...7 ....
....|..|C-4 .... ....|--- .... ....|--- ...8 ....
..32|..|C-4 .... ....|A#4 38.. ....|--- ...9 ....
....|..|--- .... ....|--- .... ....|--- ...A ....
..43|..|C-4 .... ....|F-4 A8.. ....|C-8 1F.F ....
....|..|--- .... ....|--- .... ....|C-4 5FCC ....
..38|..|C-4 .... ....|G#4 .8.. ....|--- ...D ....
....|..|--- .... ....|--- .... ....|--- ...E ....

[Pattern8]
..3C|..|C-3 6F9F ....|G-4 A8.. ....|C-8 1F.F ....
....|..|--- .... ....|--- .... ....|C-8 ...9 ....
....|..|--- .... ....|--- .... ....|C-8 .... ....
....|..|--- .... ....|--- .... ....|C-8 .... ....
..43|..|C-3 ...A ....|F-4 .8.. ....|C-8 .... ....
....|..|--- .... ....|--- .... ....|C-8 .... ....
....|..|C-3 ...F ....|--- .... ....|C-8 ...F ....
....|..|--- .... ....|R-- .... ....|C-8 ...9 ....
..3C|..|--- .... ....|G-4 .8.. ....|C-8 .... ....
....|..|--- .... ....|--- .... ....|C-8 .... ....
....|..|C-3 ...A ....|--- .... ....|C-8 .... ....
....|..|--- .... ....|--- .... ....|C-8 .... ....
..43|..|A#2 ...F ....|F-4 .8.. ....|C-8 ...F ....
....|..|--- .... ....|--- .... ....|C-8 ...9 ....
..77|..|C-3 .... ....|G-3 .8.. ....|C-8 ...F ....
....|..|--- .... ....|--- .... ....|C-8 ...9 ....
....|..|--- .... ....|--- .... ....|C-8 ...F ....
....|..|--- .... ....|--- .... ....|C#8 ...E ....
....|..|--- .... ....|--- .... ....|D-8 ...D ....
....|..|--- .... ....|--- .... ....|D#8 ...C ....
....|..|--- .... ....|--- .... ....|E-8 ...B ....
....|..|--- .... ....|--- .... ....|F-8 ...A ....
....|..|--- .... ....|--- .... ....|F#8 ...9 ....
....|..|--- .... ....|--- .... ....|G-8 ...8 ....
..77|..|G-3 A8.. 21.1|R-- .... ....|G#8 ...7 B..F
....|..|--- .... ....|--- .... ....|--- .... ....
....|..|--- .... ....|--- .... ....|--- .... ....
....|..|--- .... ....|--- .... ....|--- .... ....
....|..|--- .... ....|--- .... ....|--- .... ....
....|..|--- .... ....|--- .... ....|--- .... ....
....|..|--- .... ....|--- .... ....|--- .... ....
....|..|--- .... ....|--- .... ....|--- .... ....
....|..|--- .... ....|--- .... ....|--- .... ....
....|..|--- .... ....|--- .... ....|--- .... ....
....|..|--- .... ....|--- .... ....|--- .... ....
....|..|--- .... ....|--- .... ....|--- .... ....
....|..|--- .... ....|--- .... ....|--- .... ....
....|..|--- .... ....|--- .... ....|--- .... ....
....|..|--- .... ....|--- .... ....|--- .... ....
....|..|--- .... ....|--- .... ....|--- .... ....
....|..|--- .... ....|--- .... ....|--- .... ....
....|..|--- .... ....|--- .... ....|--- .... ....
....|..|--- .... ....|--- .... ....|--- .... ....
....|..|--- .... ....|--- .... ....|--- .... ....
....|..|--- .... B..3|--- .... ....|--- .... ....
....|..|--- .... ....|--- .... ....|--- .... ....
....|..|--- .... ....|--- .... ....|--- .... ....
....|..|--- .... ....|--- .... ....|--- .... ....
....|..|--- .... ....|--- .... ....|C-4 4..F ....
....|..|--- .... ....|--- .... ....|--- .... ....
....|..|--- .... ....|C-6 4F.E ....|--- .... ....
....|..|--- .... ....|--- .... ....|--- .... ....
....|..|--- .... ....|C-6 ...C ....|--- .... ....
....|..|--- .... ....|--- .... ....|--- .... ....
....|..|--- .... ....|C-6 ...A ....|C-4 .... ....
....|..|--- .... ....|--- .... ....|--- .... ....
....|..|--- .... ....|C-6 ...D ....|--- .... ....
....|..|--- .... ....|--- .... ....|--- .... ....
....|..|--- .... ....|C-6 ...B ....|C-4 ...B ....
....|..|--- .... ....|--- .... ....|C-4 ...F ....
....|..|--- .... ....|C-6 ...9 ....|C-4 1... ....
....|..|--- .... ....|--- .... ....|--- .... ....
....|..|--- .... ....|C-6 ...D ....|C-4 ...B ....
....|..|--- .... ....|--- .... ....|C-4 ...D ....

[Pattern9]
..77|..|A#4 A8.. B..3|G-3 A8.. ....|C-4 1F.F ....
....|..|B-4 .... ....|--- .... ....|--- .... ....
..43|..|C-5 .... ....|F-4 .8.. ....|C-4 E... ....
....|..|--- .... ....|--- .... ....|--- .... ....
..3C|..|--- .... ....|G-4 .8.. ....|C-4 .... ....
....|..|--- .... ....|--- .... ....|C-4 .... ....
....|..|--- .... ....|--- .... ....|C-4 1... ....
....|..|--- .... ....|R-- .... ....|--- .... ....
..3C|..|--- .... ....|G-4 .8.. ....|C-4 4... ....
....|..|--- .... ....|--- .... ....|--- .... ....
....|..|--- .... ....|--- .... ....|C-4 E... ....
....|..|--- .... ....|--- .... ....|--- .... ....
....|..|--- .... ....|--- .... ....|C-4 1... ....
....|..|--- .... ....|--- .... ....|--- .... ....
....|..|--- .... ....|--- .... ....|C-4 E... ....
....|..|--- .... ....|--- .... ....|--- .... ....
..77|..|A#4 .8.. ....|G-3 .8.. ....|C-4 1... ....
....|..|--- .... ....|R-- .... ....|--- .... ....
..3C|..|C-5 .8.. ....|G-4 .8.. ....|C-4 4... ....
....|..|--- .... ....|--- .... ....|--- .... ....
....|..|A#5 .... ....|--- .... ....|C-4 C... ....
....|..|--- .... ....|--- .... ....|--- .... ....
..77|..|C-6 .8.. ....|G-3 .8.. ....|C-4 1... ....
....|..|--- .... ....|R-- .... ....|--- .... ....
..3C|..|A#5 .... ....|G-4 .8.. ....|C-4 4... ....
....|..|--- .... ....|--- .... ....|C-4 .... ....
....|..|C-6 .... ....|--- .... ....|C-4 .... ....
....|..|--- .... ....|--- .... ....|--- .... ....
....|..|G-5 .... ....|--- .... ....|C-4 1... ....
....|..|--- .... ....|--- .... ....|--- .... ....
....|..|F-5 .... ....|--- .... ....|C-4 4... ....
....|..|G-5 .... ....|--- .... ....|--- .... ....
..A9|..|G#5 .... ....|C#3 .8.. ....|C-4 1... ....
....|..|--- .... ....|R-- .... ....|--- .... ....
..54|..|--- .... ....|C#4 .8.. ....|C-4 E... ....
....|..|--- .... ....|--- .... ....|--- .... ....
....|..|--- .... ....|--- .... ....|C-4 .... ....
....|..|--- .... ....|--- .... ....|C-4 .... ....
..A9|..|--- .... ....|C#3 .8.. ....|C-4 1... ....
....|..|--- .... ....|R-- .... ....|--- .... ....
..54|..|--- .... ....|C#4 .8.. ....|C-4 4... ....
....|..|--- .... ....|--- .... ....|--- .... ....
....|..|--- .... ....|--- .... ....|C-4 E... ....
....|..|--- .... ....|--- .... ....|--- .... ....
....|..|F#5 .... ....|--- .... ....|C-4 1... ....
....|..|--- .... ....|--- .... ....|--- .... ....
....|..|--- .... ....|--- .... ....|C-4 E... ....
....|..|--- .... ....|--- .... ....|--- .... ....
..71|..|--- .... ....|G#3 .8.. ....|C-4 1... ....
....|..|--- .... ....|R-- .... ....|--- .... ....
..38|..|--- .... ....|G#4 .8.. ....|C-4 4... ....
....|..|--- .... ....|--- .... ....|--- .... ....
....|..|--- .... ....|--- .... ....|C-4 C... ....
....|..|--- .... ....|--- .... ....|--- .... ....
..64|..|--- .... ....|A#3 .8.. ....|C-4 1... ....
....|..|--- .... ....|R-- .... ....|--- .... ....
..32|..|C#5 .... ....|A#4 .8.. ....|C-4 4... ....
....|..|--- .... ....|--- .... ....|--- .... ....
..32|..|--- .... ....|A#4 38.. ....|C-4 1... ....
....|..|--- .... ....|--- .... ....|C-4 E... ....
..43|..|--- .... ....|F-4 A8.. ....|C-4 4... ....
....|..|--- .... ....|--- .... ....|--- .... ....
..38|..|--- .... ....|G#4 .8.. ....|C-4 1... ....
....|..|--- .... ....|--- .... ....|--- .... ....

[Pattern10]
..77|..|A#4 A8.F ....|G-3 A8.. ....|C-4 1F.F ....
....|..|B-4 .... ....|--- .... ....|--- .... ....
..43|..|C-5 .... ....|F-4 .8.. ....|C-4 E... ....
....|..|--- .... ....|--- .... ....|--- .... ....
..3C|..|--- .... ....|G-4 .8.. ....|C-4 .... ....
....|..|--- .... ....|--- .... ....|C-4 .... ....
....|..|--- .... ....|--- .... ....|C-4 1... ....
....|..|--- .... ....|R-- .... ....|--- .... ....
..3C|..|--- .... ....|G-4 .8.. ....|C-4 4... ....
....|..|--- .... ....|--- .... ....|--- .... ....
....|..|--- .... ....|--- .... ....|C-4 E... ....
....|..|--- .... ....|--- .... ....|--- .... ....
....|..|--- .... ....|--- .... ....|C-4 1... ....
....|..|--- .... ....|--- .... ....|--- .... ....
....|..|--- .... ....|--- .... ....|C-4 E... ....
....|..|--- .... ....|--- .... ....|--- .... ....
..77|..|A#4 .8.. ....|G-3 .8.. ....|C-4 1... ....
....|..|--- .... ....|R-- .... ....|--- .... ....
..3C|..|C-5 .8.. ....|G-4 .8.. ....|C-4 4... ....
....|..|--- .... ....|--- .... ....|--- .... ....
....|..|A#5 .... ....|--- .... ....|C-4 C... ....
....|..|--- .... ....|--- .... ....|--- .... ....
..77|..|C-6 .8.. ....|G-3 .8.. ....|C-4 1... ....
....|..|--- .... ....|R-- .... ....|--- .... ....
..3C|..|A#5 .... ....|G-4 .8.. ....|C-4 4... ....
....|..|--- .... ....|--- .... ....|C-4 .... ....
....|..|C-6 .... ....|--- .... ....|C-4 .... ....
....|..|--- .... ....|--- .... ....|--- .... ....
....|..|G-5 .... ....|--- .... ....|C-4 1... ....
....|..|--- .... ....|--- .... ....|--- .... ....
....|..|F-5 .... ....|--- .... ....|C-4 4... ....
....|..|G-5 .... ....|--- .... ....|--- .... ....
..A9|..|G#5 .... ....|C#3 .8.. ....|C-4 1... ....
....|..|--- .... ....|R-- .... ....|--- .... ....
..54|..|--- .... ....|C#4 .8.. ....|C-4 E... ....
....|..|--- .... ....|--- .... ....|--- .... ....
....|..|--- .... ....|--- .... ....|C-4 .... ....
....|..|--- .... ....|--- .... ....|C-4 .... ....
..A9|..|--- .... ....|C#3 .8.. ....|C-4 1... ....
....|..|--- .... ....|R-- .... ....|--- .... ....
..54|..|--- .... ....|C#4 .8.. ....|C-4 4... ....
....|..|--- .... ....|--- .... ....|--- .... ....
....|..|--- .... ....|--- .... ....|C-4 E... ....
....|..|--- .... ....|--- .... ....|--- .... ....
....|..|A#5 .... ....|--- .... ....|C-4 1... ....
....|..|--- .... ....|--- .... ....|--- .... ....
....|..|--- .... ....|--- .... ....|C-4 E... ....
....|..|--- .... ....|--- .... ....|--- .... ....
..71|..|--- .... ....|G#3 .8.. ....|C-4 4... ....
....|..|--- .... ....|R-- .... ....|--- .... ....
..38|..|--- .... ....|G#4 .8.. ....|C-4 .... ....
....|..|--- .... ....|--- .... ....|C-4 .... ....
....|..|--- .... ....|--- .... ....|C-4 .... ....
....|..|--- .... ....|--- .... ....|--- .... ....
..64|..|--- .... ....|A#3 .8.. ....|C-4 .... ....
....|..|--- .... ....|R-- .... ....|--- .... ....
..32|..|C#8 .8.. 1113|A#4 .8.. ....|C-4 .... ....
....|..|--- .... ....|--- .... ....|--- .... ....
..32|..|C#8 .8.. 1113|A#4 38.. ....|C-4 .... ....
....|..|--- .... ....|--- .... ....|--- .... ....
..2D|..|C-6 6F9. 1137|C-5 A8.. ....|C-4 .... ....
....|..|--- .... ....|--- .... ....|--- .... ....
..38|..|C-6 .... 1137|G#4 .8.. ....|C-4 .... ....
....|..|--- .... ....|--- .... ....|--- .... ....

[Pattern11]
..77|..|A#4 A8.. B..3|G-3 A8.. ....|C-4 1F.F ....
....|..|B-4 .... ....|--- .... ....|--- .... ....
..43|..|C-5 .... ....|F-4 .8.. ....|C-4 E... ....
....|..|--- .... ....|--- .... ....|--- .... ....
..3C|..|--- .... ....|G-4 .8.. ....|C-4 C... ....
....|..|--- .... ....|--- .... ....|C-4 E... ....
....|..|--- .... ....|--- .... ....|C-4 1... ....
....|..|--- .... ....|R-- .... ....|--- .... ....
..3C|..|--- .... ....|G-5 .8.. ....|C-4 4... ....
....|..|--- .... ....|--- .... ....|--- .... ....
..43|..|--- .... ....|F-5 .8.. ....|C-4 E... ....
....|..|--- .... ....|--- .... ....|--- .... ....
..3C|..|--- .... ....|G-5 .8.. ....|C-4 1... ....
....|..|--- .... ....|--- .... ....|--- .... ....
..43|..|--- .... ....|F-5 .8.. ....|C-4 C... ....
....|..|--- .... ....|--- .... ....|C-4 1..D ....
..77|..|A#4 .8.. ....|G-3 .8.. ....|C-4 ...F ....
....|..|--- .... ....|R-- .... ....|--- .... ....
..3C|..|C-5 .8.. ....|G-4 .8.. ....|C-4 4... ....
....|..|--- .... ....|--- .... ....|--- .... ....
....|..|A#5 .... ....|--- .... ....|C-4 E... ....
....|..|--- .... ....|--- .... ....|--- .... ....
..77|..|C-6 .8.. ....|F-5 .8.. ....|C-4 1... ....
....|..|--- .... ....|R-- .... ....|--- .... ....
..3C|..|A#5 .... ....|G-5 .8.. ....|C-4 4... ....
....|..|--- .... ....|--- .... ....|C-4 .... ....
..43|..|C-6 .... ....|F-5 .8.. ....|C-4 .... ....
....|..|--- .... ....|--- .... ....|--- .... ....
..3C|..|G-5 .... ....|G-5 .8.. ....|C-4 1... ....
....|..|--- .... ....|--- .... ....|--- .... ....
..43|..|F-5 .... ....|F-5 .8.. ....|C-4 4... ....
....|..|G-5 .... ....|--- .... ....|--- .... ....
..A9|..|G#5 .... ....|C#3 .8.. ....|C-4 1... ....
....|..|--- .... ....|R-- .... ....|--- .... ....
..54|..|--- .... ....|C#4 .8.. ....|C-4 E... ....
....|..|--- .... ....|--- .... ....|--- .... ....
..54|..|--- .... ....|C#5 .8.. ....|C-4 C... ....
....|..|--- .... ....|--- .... ....|C-4 E... ....
..A9|..|--- .... ....|C#3 .8.. ....|C-4 1... ....
....|..|--- .... ....|R-- .... ....|--- .... ....
..54|..|--- .... ....|C#4 .8.. ....|C-4 4... ....
....|..|--- .... ....|--- .... ....|--- .... ....
..54|..|--- .... 11.2|C#5 .8.. ....|C-4 E... ....
....|..|--- .... ....|--- .... ....|--- .... ....
..54|..|F#5 .... ....|C#4 .8.. ....|C-4 1... ....
....|..|--- .... ....|--- .... ....|--- .... ....
..54|..|--- .... ....|C#5 .8.. ....|C-4 C... ....
....|..|--- .... ....|--- .... ....|--- .... ....
..71|..|--- .... ....|G#3 .8.. ....|C-4 1... ....
....|..|--- .... ....|R-- .... ....|--- .... ....
..38|..|--- .... ....|G#4 .8.. ....|C-4 4... ....
....|..|--- .... ....|--- .... ....|--- .... ....
..38|..|--- .... ....|G#5 .8.. ....|C-4 C... ....
....|..|--- .... ....|--- .... ....|--- .... ....
..64|..|--- .... ....|A#3 .8.. ....|C-4 1... ....
....|..|--- .... ....|R-- .... ....|--- .... ....
..32|..|C#5 .... ....|A#4 .8.. ....|C-4 4... ....
....|..|--- .... ....|--- .... ....|--- .... ....
..32|..|--- .... ....|A#4 38.. ....|C-4 1... ....
....|..|--- .... ....|--- .... ....|C-4 E... ....
..43|..|--- .... ....|F-4 A8.. ....|C-4 4... ....
....|..|--- .... ....|--- .... ....|--- .... ....
..32|..|--- .... ....|A#5 .8.. ....|C-4 1... ....
....|..|--- .... ....|--- .... ....|--- .... ....

[Pattern12]
..71|..|G#5 A8.. ....|G#3 A8.. ....|C-4 1F.F ....
....|..|--- .... ....|--- .... ....|--- .... ....
..77|..|--- .... ....|G-3 .8.. ....|C-4 E... ....
....|..|--- .... ....|--- .... ....|--- .... ....
..71|..|--- .... ....|G#3 .8.. ....|C-4 C... ....
....|..|--- .... ....|--- .... ....|C-4 E... ....
....|..|--- .... 1114|--- .... ....|C-4 1... ....
....|..|--- .... ....|--- .... ....|--- .... ....
..38|..|A#5 .... ....|G#4 .8.. ....|C-4 4... ....
....|..|--- .... ....|--- .... ....|--- .... ....
..3C|..|--- .... ....|G-4 .8.. ....|C-4 E... ....
....|..|--- .... ....|--- .... ....|--- .... ....
..38|..|G-5 .... ....|G#4 .8.. ....|C-4 1... ....
....|..|--- .... ....|--- .... ....|--- .... ....
..43|..|--- .... ....|F-4 .8.. ....|C-4 C... ....
....|..|--- .... ....|--- .... ....|C-4 1..D ....
..64|..|--- .... ....|A#3 .8.. ....|C-4 ...F ....
....|..|--- .... ....|--- .... ....|--- .... ....
....|..|--- .... 1114|--- .... ....|C-4 4... ....
....|..|--- .... ....|--- .... ....|--- .... ....
....|..|D#5 .... ....|--- .... ....|C-4 E... ....
....|..|--- .... ....|--- .... ....|--- .... ....
....|..|--- .... ....|--- .... ....|C-4 1... ....
....|..|--- .... ....|--- .... ....|--- .... ....
..32|..|--- .... ....|A#4 .8.. ....|C-4 4... ....
....|..|--- .... ....|--- .... ....|C-4 .... ....
..38|..|--- .... 1114|G#4 .8.. ....|C-4 .... ....
....|..|--- .... ....|--- .... ....|--- .... ....
..32|..|A#4 .... ....|A#4 .8.. ....|C-4 1... ....
....|..|--- .... ....|--- .... ....|--- .... ....
..38|..|--- .... 21.3|G#4 .8.. ....|C-4 4... ....
....|..|--- .... ....|--- .... ....|--- .... ....
..5A|..|C-5 .... ....|C-4 .8.. ....|C-4 1... ....
....|..|--- .... ....|--- .... ....|--- .... ....
....|..|C#5 .... ....|--- .... ....|C-4 E... ....
....|..|--- .... ....|--- .... ....|--- .... ....
....|..|C-5 .... ....|--- .... ....|C-4 C... ....
....|..|--- .... ....|--- .... ....|C-4 E... ....
....|..|A#4 .... ....|--- .... ....|C-4 1... ....
....|..|--- .... ....|--- .... ....|--- .... ....
..2D|..|C-5 .... ....|C-5 .8.. ....|C-4 4... ....
....|..|--- .... ....|--- .... ....|--- .... ....
..28|..|--- .... ....|D-5 .8.. ....|C-4 E... ....
....|..|--- .... ....|--- .... ....|--- .... ....
..2D|..|--- .... ....|C-5 .8.. ....|C-4 1... ....
....|..|--- .... ....|--- .... ....|--- .... ....
..32|..|--- .... ....|A#4 .8.. ....|C-4 C... ....
....|..|--- .... ....|--- .... ....|--- .... ....
..2D|..|C-4 .8.. ....|C-5 .8.. ....|C-4 1... ....
....|..|--- .... ....|--- .... ....|--- .... ....
....|..|--- .... ....|--- .... ....|C-4 .... ....
....|..|--- .... ....|--- .... ....|--- .... ....
....|..|--- .... ....|--- .... ....|C-4 C... ....
....|..|--- .... ....|--- .... ....|--- .... ....
....|..|--- .... ....|--- .... ....|C-4 1... ....
....|..|--- .... ....|--- .... ....|--- .... ....
....|..|--- .... ....|--- .... ....|C-4 E... ....
....|..|--- .... ....|--- .... ....|--- .... ....
....|..|--- .... ....|--- .... ....|C-4 1... ....
....|..|--- .... ....|--- .... ....|C-5 4..B ....
....|..|--- .... ....|--- .... ....|C-4 1..F ....
....|..|--- .... ....|--- .... ....|C-5 4..B ....
....|..|--- .... ....|--- .... ....|C-4 1..F ....
....|..|--- .... ....|--- .... ....|C-5 4..B ....

[Pattern13]
..5A|..|--- .... B..3|C-4 A8.. ....|C-4 1F.F ....
....|..|--- .... ....|R-- .... ....|--- .... ....
..5A|..|--- .... ....|C-4 .8.. ....|--- .... ....
....|..|--- .... ....|R-- .... ....|--- .... ....
..5A|..|C-7 2F.F ....|C-4 .8.. ....|--- .... ....
....|..|--- .... ....|R-- .... ....|--- .... ....
....|..|C-7 ...9 ....|C-4 .... ....|--- .... ....
....|..|--- .... ....|R-- .... ....|--- .... ....
....|..|C-7 ...7 ....|C-4 .... ....|--- .... ....
....|..|--- .... ....|R-- .... ....|--- .... ....
....|..|C-7 ...F ....|C-4 .... ....|--- .... ....
....|..|--- .... ....|R-- .... ....|--- .... ....
..64|..|C-7 ...9 ....|A#3 .8.. ....|--- .... ....
....|..|--- .... ....|R-- .... ....|--- .... ....
..5A|..|A#6 ...F ....|C-4 .8.. ....|--- .... ....
....|..|--- .... ....|--- .... ....|--- .... ....
....|..|C-7 ...9 ....|--- .... ....|--- .... ....
....|..|--- .... ....|R-- .... ....|--- .... ....
....|..|A#6 ...7 ....|C-4 .... ....|--- .... ....
....|..|--- .... ....|R-- .... ....|--- .... ....
....|..|C-7 ...F ....|C-4 .... ....|--- .... ....
....|..|--- .... ....|R-- .... ....|--- .... ....
....|..|A#6 ...9 ....|C-4 .... ....|--- .... ....
....|..|--- .... ....|--- .... ....|--- .... ....
..43|..|C-7 ...7 ....|F-4 .8.. ....|--- .... ....
....|..|--- .... ....|--- .... ....|--- .... ....
....|..|C-7 ...F ....|--- .... ....|--- .... ....
....|..|C-7 ...9 ....|--- .... ....|--- .... ....
..3C|..|F-7 ...F ....|G-4 .8.. ....|--- .... ....
....|..|C-7 ...9 ....|--- .... ....|--- .... ....
....|..|G-7 ...F ....|--- .... ....|--- .... ....
....|..|C-7 ...9 ....|--- .... ....|--- .... ....
..5A|..|C-7 .... ....|C-4 .8.. ....|--- .... ....
....|..|--- .... ....|R-- .... ....|--- .... ....
....|..|A#6 ...7 ....|C-4 .... ....|--- .... ....
....|..|--- .... ....|R-- .... ....|--- .... ....
....|..|C-7 ...F ....|C-4 .... ....|--- .... ....
....|..|--- .... ....|R-- .... ....|--- .... ....
....|..|A#6 ...9 ....|C-4 .... ....|--- .... ....
....|..|--- .... ....|R-- .... ....|--- .... ....
....|..|C-7 ...7 ....|C-4 .... ....|--- .... ....
....|..|--- .... ....|R-- .... ....|--- .... ....
..5A|..|C-7 ...F ....|C-4 .8.. ....|--- .... ....
....|..|--- .... ....|R-- .... ....|--- .... ....
..64|..|C-7 ...9 ....|A#3 .8.. ....|--- .... ....
....|..|--- .... ....|R-- .... ....|--- .... ....
..5A|..|A#6 ...F ....|C-4 .8.. ....|--- .... ....
....|..|--- .... ....|--- .... ....|--- .... ....
....|..|C-7 ...9 ....|--- .... ....|--- .... ....
....|..|--- .... ....|R-- .... ....|--- .... ....
....|..|A#6 ...7 ....|C-4 .... ....|--- .... ....
....|..|--- .... ....|R-- .... ....|--- .... ....
....|..|C-7 ...F ....|C-4 .... ....|--- .... ....
....|..|--- .... ....|R-- .... ....|--- .... ....
....|..|A#6 ...9 ....|C-4 .... ....|--- .... ....
....|..|--- .... ....|R-- .... ....|--- .... ....
..43|..|C-7 ...F ....|F-4 .8.. ....|--- .... ....
....|..|--- .... ....|R-- .... ....|--- .... ....
....|..|C-7 ...7 ....|F-4 .... ....|--- .... ....
....|..|--- .... ....|R-- .... ....|--- .... ....
..3C|..|A#6 ...F ....|G-4 .8.. ....|--- .... ....
..43|..|--- .... ....|F-4 .8.. ....|--- .... ....
..3C|..|A#6 .... ....|G-4 .8.. ....|--- .... ....
....|..|--- .... ....|--- .... ....|--- .... ....

[Pattern14]
..77|..|A#4 A8.. B..3|G-3 A8.. ....|C-4 1F.F ....
....|..|B-4 .... ....|--- .... ....|--- .... ....
..43|..|C-5 .... ....|F-4 .8.. ....|C-4 E... ....
....|..|--- .... ....|--- .... ....|--- .... ....
..3C|..|--- .... ....|G-4 .8.. ....|C-4 C... ....
....|..|--- .... ....|--- .... ....|C-4 E... ....
....|..|--- .... ....|--- .... ....|C-4 1... ....
....|..|--- .... ....|R-- .... ....|--- .... ....
..3C|..|--- .... ....|G-5 .8.. ....|C-4 4... ....
....|..|--- .... ....|--- .... ....|--- .... ....
..43|..|--- .... ....|F-5 .8.. ....|C-4 E... ....
....|..|--- .... ....|--- .... ....|--- .... ....
..3C|..|--- .... ....|G-5 .8.. ....|C-4 1... ....
....|..|--- .... ....|--- .... ....|--- .... ....
..43|..|--- .... ....|F-5 .8.. ....|C-4 C... ....
....|..|--- .... ....|--- .... ....|C-4 1..D ....
..77|..|A#4 .8.. ....|G-3 .8.. ....|C-4 ...F ....
....|..|--- .... ....|R-- .... ....|--- .... ....
..3C|..|C-5 .8.. ....|G-4 .8.. ....|C-4 4... ....
....|..|--- .... ....|--- .... ....|--- .... ....
....|..|A#5 .... ....|--- .... ....|C-4 E... ....
....|..|--- .... ....|--- .... ....|--- .... ....
..77|..|C-6 .8.. ....|F-5 .8.. ....|C-4 1... ....
....|..|--- .... ....|R-- .... ....|--- .... ....
..3C|..|A#5 .... ....|G-5 .8.. ....|C-4 4... ....
....|..|--- .... ....|--- .... ....|C-4 .... ....
..43|..|C-6 .... ....|F-5 .8.. ....|C-4 .... ....
....|..|--- .... ....|--- .... ....|--- .... ....
..3C|..|G-5 .... ....|G-5 .8.. ....|C-4 1... ....
....|..|--- .... ....|--- .... ....|--- .... ....
..43|..|F-5 .... ....|F-5 .8.. ....|C-4 4... ....
....|..|G-5 .... ....|--- .... ....|--- .... ....
..A9|..|G#5 .... ....|C#3 .8.. ....|C-4 1... ....
....|..|--- .... ....|R-- .... ....|--- .... ....
..54|..|--- .... ....|C#4 .8.. ....|C-4 E... ....
....|..|--- .... ....|--- .... ....|--- .... ....
..54|..|--- .... ....|C#5 .8.. ....|C-4 C... ....
....|..|--- .... ....|--- .... ....|C-4 E... ....
..A9|..|--- .... ....|C#3 .8.. ....|C-4 1... ....
....|..|--- .... ....|R-- .... ....|--- .... ....
..54|..|--- .... ....|C#4 .8.. ....|C-4 4... ....
....|..|--- .... ....|--- .... ....|--- .... ....
..54|..|--- .... 11.2|C#5 .8.. ....|C-4 E... ....
....|..|--- .... ....|--- .... ....|--- .... ....
..54|..|F#5 .... ....|C#4 .8.. ....|C-4 1... ....
....|..|--- .... ....|--- .... ....|--- .... ....
..54|..|--- .... ....|C#5 .8.. ....|C-4 C... ....
....|..|--- .... ....|--- .... ....|--- .... ....
..71|..|--- .... ....|G#3 .8.. ....|C-4 1... ....
....|..|--- .... ....|R-- .... ....|--- .... ....
..38|..|--- .... ....|G#4 .8.. ....|C-4 4... ....
....|..|--- .... ....|--- .... ....|--- .... ....
..38|..|--- .... ....|G#5 .8.. ....|C-4 C... ....
....|..|--- .... ....|--- .... ....|--- .... ....
..64|..|--- .... ....|A#3 .8.. ....|C-4 1... ....
....|..|--- .... ....|R-- .... ....|--- .... ....
..32|..|G-5 .... ....|A#4 .8.. ....|C-4 4... ....
....|..|--- .... ....|--- .... ....|--- .... ....
..32|..|--- .... ....|A#4 38.. ....|C-4 1... ....
....|..|--- .... ....|--- .... ....|C-4 E... ....
..43|..|--- .... ....|F-4 A8.. ....|C-4 4... ....
....|..|--- .... ....|--- .... ....|--- .... ....
..32|..|--- .... ....|A#5 .8.. ....|C-4 1... ....
....|..|--- .... ....|--- .... ....|--- .... ....

[Pattern15]
..38|..|G#5 A8.. B..4|G#3 A8.. ....|C#4 6F9F ....
....|..|--- .... ....|--- .... ....|--- .... ....
....|..|--- .... ....|--- .... ....|C#4 ...D ....
....|..|--- .... ....|--- .... ....|--- .... ....
....|..|--- .... ....|--- .... ....|C#4 ...B ....
....|..|--- .... ....|--- .... ....|--- .... ....
....|..|--- .... 1114|--- .... ....|C#4 ...9 ....
....|..|--- .... ....|--- .... ....|--- .... ....
....|..|A#5 .... ....|--- .... ....|C#4 ...7 ....
....|..|--- .... ....|--- .... ....|--- .... ....
....|..|--- .... ....|--- .... ....|C#4 ...5 ....
....|..|--- .... ....|--- .... ....|--- .... ....
....|..|G-5 .... ....|--- .... ....|C#4 ...3 ....
....|..|--- .... ....|--- .... ....|--- .... ....
....|..|--- .... ....|--- .... ....|--- .... ....
....|..|--- .... ....|--- .... ....|--- .... ....
..32|..|--- .... ....|A#3 .8.. ....|--- .... ....
....|..|--- .... ....|--- .... ....|--- .... ....
....|..|--- .... 1114|--- .... ....|--- .... ....
....|..|--- .... ....|--- .... ....|--- .... ....
....|..|D#5 .... ....|--- .... ....|--- .... ....
....|..|--- .... ....|--- .... ....|--- .... ....
....|..|--- .... ....|--- .... ....|--- .... ....
....|..|--- .... ....|--- .... ....|--- .... ....
....|..|--- .... ....|--- .... ....|--- .... ....
....|..|--- .... ....|--- .... ....|--- .... ....
....|..|--- .... 1114|--- .... ....|--- .... ....
....|..|--- .... ....|--- .... ....|--- .... ....
....|..|A#4 .... ....|--- .... ....|--- .... ....
....|..|--- .... ....|--- .... ....|--- .... ....
....|..|--- .... 21.3|--- .... ....|--- .... ....
....|..|--- .... ....|--- .... ....|--- .... ....
..5A|..|C-5 .... B..5|C-4 .8.. ....|--- .... ....
....|..|--- .... ....|--- .... ....|--- .... ....
....|..|C#5 .... ....|--- .... ....|--- .... ....
....|..|--- .... ....|--- .... ....|--- .... ....
....|..|C-5 .... ....|--- .... ....|--- .... ....
....|..|--- .... ....|--- .... ....|--- .... ....
....|..|A#4 .... ....|--- .... ....|--- .... ....
....|..|--- .... ....|--- .... ....|--- .... ....
..5A|..|C-5 .... ....|--- .... ....|C-4 A8.. ....
....|..|--- .... ....|--- .... ....|--- .... ....
..54|..|--- .... ....|--- .... ....|C#4 .8.. ....
....|..|--- .... ....|--- .... ....|--- .... ....
..5A|..|--- .... ....|--- .... ....|C-4 .8.. ....
....|..|--- .... ....|--- .... ....|--- .... ....
..64|..|--- .... ....|--- .... ....|A#3 .8.. ....
....|..|--- .... ....|--- .... ....|--- .... ....
..2D|..|C-4 .8.. B..F|--- .... ....|C-4 .8.. ....
....|..|--- .... ....|--- .... ....|--- .... ....
....|..|--- .... ....|--- .... ....|--- .... ....
....|..|--- .... ....|--- .... ....|--- .... ....
....|..|--- .... ....|--- .... ....|--- .... ....
....|..|--- .... ....|--- .... ....|--- .... ....
....|..|--- .... B..4|C-7 5F.. 1114|C-4 1F.F ....
....|..|--- .... ....|--- .... ....|C-4 ...E ....
....|..|--- .... ....|--- .... ....|C-4 ...D ....
....|..|--- .... ....|--- .... ....|C-4 ...C ....
....|..|--- .... B..5|--- .... ....|C-4 ...B ....
....|..|--- .... ....|--- .... ....|C-4 ...A ....
....|..|--- .... B..6|--- .... ....|C-4 ...9 ....
....|..|--- .... ....|--- .... ....|C-4 ...8 ....
....|..|--- .... B..7|--- .... ....|C-4 ...7 ....
....|..|--- .... ....|--- .... ....|C-4 ...6 ....

[Pattern16]
..5A|..|C-7 ...9 B..3|C-4 A8.. ....|--- .... ....
....|..|--- .... ....|R-- .... ....|--- .... ....
..5A|..|A#6 ...7 ....|C-4 .8.. ....|--- .... ....
....|..|--- .... ....|R-- .... ....|--- .... ....
..5A|..|C-7 2F.F ....|C-4 .8.. ....|--- .... ....
....|..|--- .... ....|R-- .... ....|--- .... ....
....|..|A#6 ...9 ....|C-4 .... ....|--- .... ....
....|..|--- .... ....|R-- .... ....|--- .... ....
....|..|C-7 ...7 ....|C-4 .... ....|--- .... ....
....|..|--- .... ....|R-- .... ....|--- .... ....
....|..|C-7 ...F ....|C-4 .... ....|--- .... ....
....|..|--- .... ....|R-- .... ....|--- .... ....
..64|..|C-7 ...9 ....|A#3 .8.. ....|--- .... ....
....|..|--- .... ....|R-- .... ....|--- .... ....
..5A|..|A#6 ...F ....|C-4 .8.. ....|--- .... ....
....|..|--- .... ....|--- .... ....|--- .... ....
....|..|C-7 ...9 ....|--- .... ....|--- .... ....
....|..|--- .... ....|R-- .... ....|--- .... ....
....|..|A#6 ...7 ....|C-4 .... ....|--- .... ....
....|..|--- .... ....|R-- .... ....|--- .... ....
....|..|C-7 ...F ....|C-4 .... ....|--- .... ....
....|..|--- .... ....|R-- .... ....|--- .... ....
....|..|A#6 ...9 ....|C-4 .... ....|--- .... ....
....|..|--- .... ....|--- .... ....|--- .... ....
..43|..|C-7 ...7 ....|F-4 .8.. ....|--- .... ....
....|..|--- .... ....|--- .... ....|--- .... ....
....|..|C-7 ...F ....|--- .... ....|--- .... ....
....|..|C-7 ...9 ....|--- .... ....|--- .... ....
..3C|..|F-7 ...F ....|G-4 .8.. ....|--- .... ....
....|..|C-7 ...9 ....|--- .... ....|--- .... ....
....|..|G#7 ...F ....|--- .... ....|--- .... ....
....|..|C-7 ...9 ....|--- .... ....|--- .... ....
..38|..|C-7 .... ....|G#4 .8.. ....|--- .... ....
....|..|--- .... ....|R-- .... ....|--- .... ....
....|..|A#6 ...7 ....|G#4 .... ....|--- .... ....
....|..|--- .... ....|R-- .... ....|--- .... ....
....|..|C-7 ...F ....|G#4 .... ....|--- .... ....
....|..|--- .... ....|R-- .... ....|--- .... ....
....|..|A#6 ...9 ....|G#4 .... ....|--- .... ....
....|..|--- .... ....|R-- .... ....|--- .... ....
....|..|C-7 ...7 ....|G#4 .... ....|--- .... ....
....|..|--- .... ....|R-- .... ....|--- .... ....
..3C|..|C-7 ...F ....|G-4 .8.. ....|--- .... ....
....|..|--- .... ....|R-- .... ....|--- .... ....
..43|..|C-7 ...9 ....|F-4 .8.. ....|--- .... ....
....|..|--- .... ....|R-- .... ....|--- .... ....
..4B|..|A#6 ...F ....|D#4 .8.. ....|--- .... ....
....|..|--- .... ....|--- .... ....|--- .... ....
....|..|C-7 ...9 ....|--- .... ....|--- .... ....
....|..|--- .... ....|R-- .... ....|--- .... ....
....|..|A#6 ...7 ....|D#4 .... ....|--- .... ....
....|..|--- .... ....|R-- .... ....|--- .... ....
....|..|C-7 ...F ....|D#4 .... ....|--- .... ....
....|..|--- .... ....|R-- .... ....|--- .... ....
....|..|A#6 ...9 ....|D#4 .... ....|--- .... ....
....|..|--- .... ....|R-- .... ....|--- .... ....
..43|..|C-7 ...F ....|F-4 .8.. ....|C-4 1F.6 ....
....|..|--- .... ....|--- .... ....|C-4 .... ....
....|..|C-7 ...7 ....|--- .... ....|C-4 ...7 ....
....|..|--- .... ....|R-- .... ....|--- .... ....
..3C|..|A#6 ...F ....|G-4 .8.. ....|C-4 ...8 ....
....|..|--- .... ....|--- .... ....|C-4 .... ....
....|..|A#6 .... ....|--- .... ....|C-4 ...9 ....
....|..|--- .... ....|--- .... ....|--- .... ....

[Pattern17]
..5A|..|C-7 ...9 B..3|C-4 A8.. ....|C-4 E..F ....
....|..|--- .... ....|R-- .... ....|--- .... ....
..5A|..|A#6 ...7 ....|C-4 .8.. ....|C-4 1..9 ....
....|..|--- .... ....|R-- .... ....|C-4 .... ....
..5A|..|C-7 2F.F ....|C-4 .8.. ....|C-4 .... ....
....|..|--- .... ....|R-- .... ....|--- .... ....
....|..|A#6 ...9 ....|C-4 .... ....|C-4 .... ....
....|..|--- .... ....|R-- .... ....|--- .... ....
....|..|C-7 ...7 ....|C-4 .... ....|C-4 4..F ....
....|..|--- .... ....|R-- .... ....|--- .... ....
....|..|C-7 ...F ....|C-4 .... ....|C-4 1..9 ....
....|..|--- .... ....|R-- .... ....|--- .... ....
..64|..|C-7 ...9 ....|A#3 .8.. ....|C-4 .... ....
....|..|--- .... ....|R-- .... ....|--- .... ....
..5A|..|A#6 ...F ....|C-4 .8.. ....|C-4 E..F ....
....|..|--- .... ....|--- .... ....|--- .... ....
....|..|C-7 ...9 ....|--- .... ....|C-4 1..9 ....
....|..|--- .... ....|R-- .... ....|C-4 .... ....
....|..|A#6 ...7 ....|C-4 .... ....|C-4 .... ....
....|..|--- .... ....|R-- .... ....|--- .... ....
....|..|C-7 ...F ....|C-4 .... ....|C-4 E..F ....
....|..|--- .... ....|R-- .... ....|--- .... ....
....|..|A#6 ...9 ....|C-4 .... ....|C-4 1..9 ....
....|..|--- .... ....|--- .... ....|--- .... ....
..43|..|C-7 ...7 ....|F-4 .8.. ....|C-4 4..F ....
....|..|--- .... ....|--- .... ....|C-4 ...D ....
....|..|C-7 ...F ....|--- .... ....|C-4 ...F ....
....|..|C-7 ...9 ....|--- .... ....|--- .... ....
..3C|..|F-7 ...F ....|G-4 .8.. ....|C-4 E... ....
....|..|C-7 ...9 ....|--- .... ....|--- .... ....
....|..|G-7 ...F ....|--- .... ....|C-4 ...9 ....
....|..|C-7 ...9 ....|--- .... ....|--- ...F ....
..5A|..|C-7 .... ....|C-4 .8.. ....|C-4 .... ....
....|..|--- .... ....|R-- .... ....|--- .... ....
....|..|A#6 ...7 ....|C-4 .... ....|C-4 1..9 ....
....|..|--- .... ....|R-- .... ....|C-4 .... ....
....|..|C-7 ...F ....|C-4 .... ....|C-4 .... ....
....|..|--- .... ....|R-- .... ....|--- .... ....
....|..|A#6 ...9 ....|C-4 .... ....|C-4 .... ....
....|..|--- .... ....|R-- .... ....|--- .... ....
....|..|C-7 ...7 ....|C-4 .... ....|C-4 4..F ....
....|..|--- .... ....|R-- .... ....|--- .... ....
..5A|..|C-7 ...F ....|C-4 .8.. ....|C-4 1..9 ....
....|..|--- .... ....|R-- .... ....|--- .... ....
..64|..|C-7 ...9 ....|A#3 .8.. ....|C-4 .... ....
....|..|--- .... ....|R-- .... ....|--- .... ....
..5A|..|A#6 ...F ....|C-4 .8.. ....|C-4 E..F ....
....|..|--- .... ....|--- .... ....|--- .... ....
....|..|C-7 ...9 ....|--- .... ....|C-4 1..9 ....
....|..|--- .... ....|R-- .... ....|--- .... ....
....|..|A#6 ...7 ....|C-4 .... ....|C-4 .... ....
....|..|--- .... ....|R-- .... ....|C-4 .... ....
....|..|C-7 ...F ....|C-4 .... ....|C-4 E..F ....
....|..|--- .... ....|R-- .... ....|--- .... ....
....|..|A#6 ...9 ....|C-4 .... ....|C-4 ...9 ....
....|..|--- .... ....|R-- .... ....|--- .... ....
..43|..|C-7 ...F ....|F-4 .8.. ....|C-4 4..F ....
....|..|--- .... ....|R-- .... ....|--- .... ....
....|..|C-7 ...7 ....|F-4 .... ....|C-4 ...9 ....
....|..|--- .... ....|R-- .... ....|--- .... ....
..3C|..|A#6 ...F ....|G-4 .8.. ....|C-4 E..F ....
..43|..|--- .... ....|F-4 .8.. ....|--- .... ....
..3C|..|A#6 .... ....|G-4 .8.. ....|C-4 1..9 ....
....|..|--- .... ....|--- .... ....|C-4 .... ....

[Pattern18]
..5A|..|C-7 ...9 B..3|C-4 A8.. ....|C-4 E..F ....
....|..|--- .... ....|R-- .... ....|--- .... ....
..5A|..|A#6 ...7 ....|C-4 .8.. ....|C-4 1..9 ....
....|..|--- .... ....|R-- .... ....|C-4 .... ....
..5A|..|C-7 2F.F ....|C-4 .8.. ....|C-4 .... ....
....|..|--- .... ....|R-- .... ....|--- .... ....
....|..|A#6 ...9 ....|C-4 .... ....|C-4 .... ....
....|..|--- .... ....|R-- .... ....|--- .... ....
....|..|C-7 ...7 ....|C-4 .... ....|C-4 4..F ....
....|..|--- .... ....|R-- .... ....|--- .... ....
....|..|C-7 ...F ....|C-4 .... ....|C-4 1..9 ....
....|..|--- .... ....|R-- .... ....|--- .... ....
..64|..|C-7 ...9 ....|A#3 .8.. ....|C-4 .... ....
....|..|--- .... ....|R-- .... ....|--- .... ....
..5A|..|A#6 ...F ....|C-4 .8.. ....|C-4 E..F ....
....|..|--- .... ....|--- .... ....|--- .... ....
....|..|C-7 ...9 ....|--- .... ....|C-4 1..9 ....
....|..|--- .... ....|R-- .... ....|C-4 .... ....
....|..|A#6 ...7 ....|C-4 .... ....|C-4 .... ....
....|..|--- .... ....|R-- .... ....|--- .... ....
....|..|C-7 ...F ....|C-4 .... ....|C-4 E..F ....
....|..|--- .... ....|R-- .... ....|--- .... ....
....|..|A#6 ...9 ....|C-4 .... ....|C-4 1..9 ....
....|..|--- .... ....|--- .... ....|--- .... ....
..43|..|C-7 ...7 ....|F-4 .8.. ....|C-4 4..F ....
....|..|--- .... ....|--- .... ....|C-4 ...D ....
....|..|C-7 ...F ....|--- .... ....|C-4 ...F ....
....|..|C-7 ...9 ....|--- .... ....|--- .... ....
..3C|..|F-7 ...F ....|G-4 .8.. ....|C-4 E... ....
....|..|C-7 ...9 ....|--- .... ....|--- .... ....
....|..|G-7 ...F ....|--- .... ....|C-4 1..9 ....
....|..|C-7 ...9 ....|--- .... ....|--- .... ....
..38|..|C-7 .... ....|G#4 .8.. ....|C-4 E..F ....
....|..|--- .... ....|R-- .... ....|--- .... ....
....|..|A#6 ...7 ....|G#4 .... ....|C-4 1..9 ....
....|..|--- .... ....|R-- .... ....|C-4 .... ....
....|..|C-7 ...F ....|G#4 .... ....|C-4 .... ....
....|..|--- .... ....|R-- .... ....|--- .... ....
....|..|A#6 ...9 ....|G#4 .... ....|C-4 .... ....
....|..|--- .... ....|R-- .... ....|--- .... ....
....|..|C-7 ...7 ....|G#4 .... ....|C-4 4..F ....
....|..|--- .... ....|R-- .... ....|--- .... ....
..3C|..|C-7 ...F ....|G-4 .8.. ....|C-4 1..9 ....
....|..|--- .... ....|R-- .... ....|--- .... ....
..43|..|C-7 ...9 ....|F-4 .8.. ....|C-4 E..F ....
....|..|--- .... ....|R-- .... ....|--- .... ....
..4B|..|A#6 ...F ....|D#4 .8.. ....|C-4 .... ....
....|..|--- .... ....|--- .... ....|--- .... ....
....|..|C-7 ...9 ....|--- .... ....|C-4 C... ....
....|..|--- .... ....|R-- .... ....|--- .... ....
....|..|A#6 ...7 ....|D#4 .... ....|C-4 4... ....
....|..|--- .... ....|R-- .... ....|C-4 1..9 ....
....|..|C-7 ...F ....|D#4 .... ....|C-4 ...F ....
....|..|--- .... ....|R-- .... ....|--- .... ....
....|..|A#6 ...9 ....|D#4 .... ....|C-4 ...9 ....
....|..|--- .... ....|R-- .... ....|--- .... ....
..43|..|C-7 ...F ....|F-4 .8.. ....|C-4 4..F ....
....|..|--- .... ....|--- .... ....|--- .... ....
....|..|C-7 ...7 ....|--- .... ....|C-4 ...9 ....
....|..|--- .... ....|R-- .... ....|--- .... ....
..3C|..|A#6 ...F ....|G-4 .8.. ....|C-4 1..F ....
....|..|--- .... ....|--- .... ....|--- .... ....
....|..|A#6 .... ....|--- .... ....|C-4 ...9 ....
....|..|--- .... ....|--- .... ....|C-4 .... ....

[Pattern19]
..5A|..|C-7 ...9 B..3|C-4 A8.. ....|C-4 1..F ....
....|..|--- .... ....|R-- .... ....|--- .... ....
..5A|..|A#6 ...7 ....|C-4 .8.. ....|C-4 ...9 ....
....|..|--- .... ....|R-- .... ....|C-4 .... ....
..5A|..|C-7 2F.F ....|C-4 .8.. ....|C-4 E..F ....
....|..|--- .... ....|R-- .... ....|--- .... ....
....|..|A#6 ...9 ....|C-4 .... ....|C-4 1..9 ....
....|..|--- .... ....|R-- .... ....|--- .... ....
....|..|C-7 ...7 ....|C-4 .... ....|C-4 4..F ....
....|..|--- .... ....|R-- .... ....|--- .... ....
....|..|C-7 ...F ....|C-4 .... ....|C-4 1..9 ....
....|..|--- .... ....|R-- .... ....|--- .... ....
..64|..|C-7 ...9 ....|A#3 .8.. ....|C-4 E..F ....
....|..|--- .... ....|R-- .... ....|--- .... ....
..5A|..|A#6 ...F ....|C-4 .8.. ....|C-4 1... ....
....|..|--- .... ....|--- .... ....|--- .... ....
....|..|C-7 ...9 ....|--- .... ....|C-4 E... ....
....|..|--- .... ....|R-- .... ....|C-4 1..9 ....
....|..|A#6 ...7 ....|C-4 .... ....|C-4 E..F ....
....|..|--- .... ....|R-- .... ....|--- .... ....
....|..|C-7 ...F ....|C-4 .... ....|C-4 1... ....
....|..|--- .... ....|R-- .... ....|--- .... ....
....|..|A#6 ...9 ....|C-4 .... ....|C-4 ...9 ....
....|..|--- .... ....|--- .... ....|--- .... ....
..43|..|C-7 ...7 ....|F-4 .8.. ....|C-4 4..F ....
....|..|--- .... ....|--- .... ....|C-4 ...D ....
....|..|C-7 ...F ....|--- .... ....|C-4 ...F ....
....|..|C-7 ...9 ....|--- .... ....|--- .... ....
..3C|..|F-7 ...F ....|G-4 .8.. ....|C-4 1... ....
....|..|C-7 ...9 ....|--- .... ....|--- .... ....
....|..|G-7 ...F ....|--- .... ....|C-4 ...9 ....
....|..|C-7 ...9 ....|--- .... ....|C-4 4..F ....
..5A|..|C-7 .... ....|C-4 .8.. ....|C-4 1... ....
....|..|--- .... ....|R-- .... ....|--- .... ....
....|..|A#6 ...7 ....|C-4 .... ....|C-4 ...9 ....
....|..|--- .... ....|R-- .... ....|C-4 .... ....
....|..|C-7 ...F ....|C-4 .... ....|C-4 E..F ....
....|..|--- .... ....|R-- .... ....|--- .... ....
....|..|A#6 ...9 ....|C-4 .... ....|C-4 1..9 ....
....|..|--- .... ....|R-- .... ....|--- .... ....
....|..|C-7 ...7 ....|C-4 .... ....|C-4 4..F ....
....|..|--- .... ....|R-- .... ....|--- .... ....
..5A|..|C-7 ...F ....|C-4 .8.. ....|C-4 1..9 ....
....|..|--- .... ....|R-- .... ....|--- .... ....
..64|..|C-7 ...9 ....|A#3 .8.. ....|C-4 E..F ....
....|..|--- .... ....|R-- .... ....|--- .... ....
..5A|..|A#6 ...F ....|C-4 .8.. ....|C-4 1... ....
....|..|--- .... ....|--- .... ....|--- .... ....
....|..|C-7 ...9 ....|--- .... ....|C-4 ...9 ....
....|..|--- .... ....|R-- .... ....|--- .... ....
....|..|A#6 ...7 ....|C-4 .... ....|C-4 C..F ....
....|..|--- .... ....|R-- .... ....|C-4 1..9 ....
....|..|C-7 ...F ....|C-4 .... ....|C-4 ...F ....
....|..|--- .... ....|R-- .... ....|--- .... ....
....|..|A#6 ...9 ....|C-4 .... ....|C-4 ...9 ....
....|..|--- .... ....|R-- .... ....|--- .... ....
..43|..|C-7 ...F ....|F-4 .8.. ....|C-4 4..F ....
....|..|--- .... ....|R-- .... ....|--- .... ....
....|..|C-7 ...7 ....|F-4 .... ....|C-4 ...9 ....
....|..|--- .... ....|R-- .... ....|--- .... ....
..3C|..|A#6 ...F ....|G-4 .8.. ....|C-4 1..F ....
..43|..|--- .... ....|F-4 .8.. ....|--- .... ....
..3C|..|A#6 .... ....|G-4 .8.. ....|C-4 C... ....
....|..|--- .... ....|--- .... ....|C-4 1..9 ....

[Pattern20]
..5A|..|C-7 ...9 B..3|C-4 A8.. ....|C-4 1..F ....
....|..|--- .... ....|R-- .... ....|--- .... ....
..5A|..|A#6 ...7 ....|C-4 .8.. ....|C-4 ...9 ....
....|..|--- .... ....|R-- .... ....|C-4 .... ....
..5A|..|C-7 2F.F ....|C-4 .8.. ....|C-4 E..F ....
....|..|--- .... ....|R-- .... ....|--- .... ....
....|..|A#6 ...9 ....|C-4 .... ....|C-4 ...9 ....
....|..|--- .... ....|R-- .... ....|--- .... ....
....|..|C-7 ...7 ....|C-4 .... ....|C-4 4..F ....
....|..|--- .... ....|R-- .... ....|--- .... ....
....|..|C-7 ...F ....|C-4 .... ....|C-4 1..9 ....
....|..|--- .... ....|R-- .... ....|--- .... ....
..64|..|C-7 ...9 ....|A#3 .8.. ....|C-4 E..F ....
....|..|--- .... ....|R-- .... ....|--- .... ....
..5A|..|A#6 ...F ....|C-4 .8.. ....|C-4 1... ....
....|..|--- .... ....|--- .... ....|--- .... ....
....|..|C-7 ...9 ....|--- .... ....|C-4 E... ....
....|..|--- .... ....|R-- .... ....|C-4 1..9 ....
....|..|A#6 ...7 ....|C-4 .... ....|C-4 E..F ....
....|..|--- .... ....|R-- .... ....|--- .... ....
....|..|C-7 ...F ....|C-4 .... ....|C-4 1... ....
....|..|--- .... ....|R-- .... ....|--- .... ....
....|..|A#6 ...9 ....|C-4 .... ....|C-4 ...9 ....
....|..|--- .... ....|--- .... ....|--- .... ....
..43|..|C-7 ...7 ....|F-4 .8.. ....|C-4 4..F ....
....|..|--- .... ....|--- .... ....|C-4 ...D ....
....|..|C-7 ...F ....|--- .... ....|C-4 ...F ....
....|..|C-7 ...9 ....|--- .... ....|--- .... ....
..3C|..|F-7 ...F ....|G-4 .8.. ....|C-4 1... ....
....|..|C-7 ...9 ....|--- .... ....|--- .... ....
....|..|G-7 ...F ....|--- .... ....|C-4 ...9 ....
....|..|C-7 ...9 ....|--- .... ....|C-4 4..F ....
..38|..|C-7 .... ....|G#4 .8.. ....|C-4 1... ....
....|..|--- .... ....|R-- .... ....|--- .... ....
....|..|A#6 ...7 ....|G#4 .... ....|C-4 ...9 ....
....|..|--- .... ....|R-- .... ....|C-4 .... ....
....|..|C-7 ...F ....|G#4 .... ....|C-4 E..F ....
....|..|--- .... ....|R-- .... ....|--- .... ....
....|..|A#6 ...9 ....|G#4 .... ....|C-4 1..9 ....
....|..|--- .... ....|R-- .... ....|--- .... ....
....|..|C-7 ...7 ....|G#4 .... ....|C-4 4..F ....
....|..|--- .... ....|R-- .... ....|--- .... ....
..3C|..|C-7 ...F ....|G-4 .8.. ....|C-4 1..9 ....
....|..|--- .... ....|R-- .... ....|--- .... ....
..43|..|C-7 ...9 ....|F-4 .8.. ....|C-4 E..F ....
....|..|--- .... ....|R-- .... ....|--- .... ....
..4B|..|A#6 ...F ....|D#4 .8.. ....|C-4 1... ....
....|..|--- .... ....|--- .... ....|--- .... ....
....|..|C-7 ...9 ....|--- .... ....|C-4 C... ....
....|..|--- .... ....|R-- .... ....|--- .... ....
....|..|A#6 ...7 ....|D#4 .... ....|C-4 4... ....
....|..|--- .... ....|R-- .... ....|C-4 1..9 ....
....|..|C-7 ...F ....|D#4 .... ....|C-4 ...F ....
....|..|--- .... ....|R-- .... ....|--- .... ....
....|..|A#6 ...9 ....|D#4 .... ....|C-4 ...9 ....
....|..|--- .... ....|R-- .... ....|--- .... ....
..43|..|C-7 ...F ....|F-4 .8.. ....|C-4 4..F ....
....|..|--- .... ....|--- .... ....|--- .... ....
....|..|C-7 ...7 ....|--- .... ....|C-4 .... ....
....|..|--- .... ....|R-- .... ....|C-4 1... ....
..3C|..|A#6 ...F ....|G-4 .8.. ....|C-4 .... ....
....|..|--- .... ....|--- .... ....|--- .... ....
....|..|A#6 .... ....|--- .... ....|C-4 ...9 ....
....|..|--- .... ....|--- .... ....|C-4 .... ....

[Pattern21]
..5A|..|C-7 ...9 B..3|C-4 A8.. ....|C-4 1..F ....
....|..|--- .... ....|R-- .... ....|--- .... ....
..5A|..|A#6 ...7 ....|C-4 .8.. ....|C-4 ...9 ....
....|..|--- .... ....|R-- .... ....|C-4 .... ....
..5A|..|C-7 2F.F ....|C-4 .8.. ....|C-4 C..F ....
....|..|--- .... ....|R-- .... ....|--- .... ....
....|..|A#6 ...9 ....|C-4 .... ....|C-4 1..9 ....
....|..|--- .... ....|R-- .... ....|--- .... ....
....|..|C-7 ...7 ....|C-4 .... ....|C-4 4..F ....
....|..|--- .... ....|R-- .... ....|--- .... ....
....|..|C-7 ...F ....|C-4 .... ....|C-4 1..9 ....
....|..|--- .... ....|R-- .... ....|--- .... ....
..64|..|C-7 ...9 ....|A#3 .8.. ....|C-4 C..F ....
....|..|--- .... ....|R-- .... ....|--- .... ....
..5A|..|A#6 ...F ....|C-4 .8.. ....|C-4 1... ....
....|..|--- .... ....|--- .... ....|--- .... ....
....|..|C-7 ...9 ....|--- .... ....|C-4 E... ....
....|..|--- .... ....|R-- .... ....|C-4 1..9 ....
....|..|A#6 ...7 ....|C-4 .... ....|C-4 E..F ....
....|..|--- .... ....|R-- .... ....|--- .... ....
....|..|C-7 ...F ....|C-4 .... ....|C-4 1... ....
....|..|--- .... ....|R-- .... ....|--- .... ....
....|..|A#6 ...9 ....|C-4 .... ....|C-4 ...9 ....
....|..|--- .... ....|--- .... ....|C-4 E..F ....
..43|..|C-7 ...7 ....|F-4 .8.. ....|C-4 4... ....
....|..|--- .... ....|--- .... ....|C-4 ...D ....
....|..|C-7 ...F ....|--- .... ....|C-4 ...F ....
....|..|C-7 ...9 ....|--- .... ....|C-4 E... ....
..3C|..|F-7 ...F ....|G-4 .8.. ....|C-4 1... ....
....|..|C-7 ...9 ....|--- .... ....|C-4 E... ....
....|..|G-7 ...F ....|--- .... ....|C-4 4... ....
....|..|C-7 ...9 ....|--- .... ....|--- .... ....
..5A|..|C-7 .... ....|C-4 .8.. ....|C-4 1... ....
....|..|--- .... ....|R-- .... ....|--- .... ....
....|..|A#6 ...7 ....|C-4 .... ....|C-4 ...9 ....
....|..|--- .... ....|R-- .... ....|C-4 .... ....
....|..|C-7 ...F ....|C-4 .... ....|C-4 C..F ....
....|..|--- .... ....|R-- .... ....|--- .... ....
....|..|A#6 ...9 ....|C-4 .... ....|C-4 1..9 ....
....|..|--- .... ....|R-- .... ....|--- .... ....
....|..|C-7 ...7 ....|C-4 .... ....|C-4 4..F ....
....|..|--- .... ....|R-- .... ....|--- .... ....
..5A|..|C-7 ...F ....|C-4 .8.. ....|C-4 1..9 ....
....|..|--- .... ....|R-- .... ....|--- .... ....
..64|..|C-7 ...9 ....|A#3 .8.. ....|C-4 C..F ....
....|..|--- .... ....|R-- .... ....|--- .... ....
..5A|..|A#6 ...F ....|C-4 .8.. ....|C-4 1... ....
....|..|--- .... ....|--- .... ....|--- .... ....
....|..|C-7 ...9 ....|--- .... ....|C-4 ...9 ....
....|..|--- .... ....|R-- .... ....|--- .... ....
....|..|A#6 ...7 ....|C-4 .... ....|C-4 C..F ....
....|..|--- .... ....|R-- .... ....|C-4 1..9 ....
....|..|C-7 ...F ....|C-4 .... ....|C-4 ...F ....
....|..|--- .... ....|R-- .... ....|--- .... ....
....|..|A#6 ...9 ....|C-4 .... ....|C-4 ...9 ....
....|..|--- .... ....|R-- .... ....|--- .... ....
..43|..|C-7 ...F ....|F-4 .8.. ....|C-4 4..F ....
....|..|--- .... ....|R-- .... ....|--- .... ....
....|..|C-7 ...7 ....|F-4 .... ....|C-4 1..9 ....
....|..|--- .... ....|R-- .... ....|--- .... ....
..3C|..|A#6 ...F ....|G-4 .8.. ....|C-4 ...F ....
..43|..|--- .... ....|F-4 .8.. ....|C-4 E... ....
..3C|..|A#6 .... ....|G-4 .8.. ....|C-4 C... ....
....|..|--- .... ....|--- .... ....|C-4 1..9 ....

[Pattern22]
..5A|..|C-7 ...9 B..3|C-4 A8.. ....|C-4 1..F ....
....|..|--- .... ....|R-- .... ....|--- .... ....
..5A|..|A#6 ...7 ....|C-4 .8.. ....|C-4 ...9 ....
....|..|--- .... ....|R-- .... ....|C-4 .... ....
..5A|..|C-7 2F.F ....|C-4 .8.. ....|C-4 C..F ....
....|..|--- .... ....|R-- .... ....|--- .... ....
....|..|A#6 ...9 ....|C-4 .... ....|C-4 ...9 ....
....|..|--- .... ....|R-- .... ....|--- .... ....
....|..|C-7 ...7 ....|C-4 .... ....|C-4 4..F ....
....|..|--- .... ....|R-- .... ....|--- .... ....
....|..|C-7 ...F ....|C-4 .... ....|C-4 1..9 ....
....|..|--- .... ....|R-- .... ....|--- .... ....
..64|..|C-7 ...9 ....|A#3 .8.. ....|C-4 C..F ....
....|..|--- .... ....|R-- .... ....|--- .... ....
..5A|..|A#6 ...F ....|C-4 .8.. ....|C-4 1... ....
....|..|--- .... ....|--- .... ....|--- .... ....
....|..|C-7 ...9 ....|--- .... ....|C-4 E... ....
....|..|--- .... ....|R-- .... ....|C-4 1..9 ....
....|..|A#6 ...7 ....|C-4 .... ....|C-4 E..F ....
....|..|--- .... ....|R-- .... ....|--- .... ....
....|..|C-7 ...F ....|C-4 .... ....|C-4 1... ....
....|..|--- .... ....|R-- .... ....|--- .... ....
....|..|A#6 ...9 ....|C-4 .... ....|C-4 ...9 ....
....|..|--- .... ....|--- .... ....|C-4 E..F ....
..43|..|C-7 ...7 ....|F-4 .8.. ....|C-4 4... ....
....|..|--- .... ....|--- .... ....|C-4 ...D ....
....|..|C-7 ...F ....|--- .... ....|C-4 ...F ....
....|..|C-7 ...9 ....|--- .... ....|C-4 E... ....
..3C|..|F-7 ...F ....|G-4 .8.. ....|C-4 1... ....
....|..|C-7 ...9 ....|--- .... ....|--- .... ....
....|..|G-7 ...F ....|--- .... ....|C-4 ...9 ....
....|..|C-7 ...9 ....|--- .... ....|C-4 4..F ....
..38|..|C-7 .... ....|G#4 .8.. ....|C-4 1... ....
....|..|--- .... ....|R-- .... ....|--- .... ....
....|..|A#6 ...7 ....|G#4 .... ....|C-4 ...9 ....
....|..|--- .... ....|R-- .... ....|C-4 .... ....
....|..|C-7 ...F ....|G#4 .... ....|C-4 C..F ....
....|..|--- .... ....|R-- .... ....|--- .... ....
....|..|A#6 ...9 ....|G#4 .... ....|C-4 1..9 ....
....|..|--- .... ....|R-- .... ....|--- .... ....
....|..|C-7 ...7 ....|G#4 .... ....|C-4 4..F ....
....|..|--- .... ....|R-- .... ....|--- .... ....
..3C|..|C-7 ...F ....|G-4 .8.. ....|C-4 1..9 ....
....|..|--- .... ....|R-- .... ....|--- .... ....
..43|..|C-7 ...9 ....|F-4 .8.. ....|C-4 C..F ....
....|..|--- .... ....|R-- .... ....|--- .... ....
..4B|..|A#6 ...F ....|D#4 .8.. ....|C-4 1... ....
....|..|--- .... ....|--- .... ....|--- .... ....
....|..|C-7 ...9 ....|--- .... ....|C-4 C... ....
....|..|--- .... ....|R-- .... ....|--- .... ....
....|..|A#6 ...7 ....|D#4 .... ....|C-4 4... ....
....|..|--- .... ....|R-- .... ....|C-4 1..9 ....
....|..|C-7 ...F ....|D#4 .... ....|C-4 ...F ....
....|..|--- .... ....|R-- .... ....|--- .... ....
....|..|A#6 ...9 ....|D#4 .... ....|C-4 ...9 ....
....|..|--- .... ....|R-- .... ....|C-4 E..F ....
..43|..|C-7 ...F ....|F-4 .8.. ....|C-4 4... ....
....|..|--- .... ....|--- .... ....|--- .... ....
....|..|C-7 ...7 ....|--- .... ....|C-4 1..9 ....
....|..|--- .... ....|R-- .... ....|C-4 ...F ....
..3C|..|A#6 ...F ....|G-4 .8.. ....|C-4 .... ....
....|..|--- .... ....|--- .... ....|--- .... ....
....|..|A#6 .... ....|--- .... ....|C-4 ...9 ....
....|..|--- .... ....|--- .... ....|C-4 .... ....

[Pattern23]
..5A|..|C-7 ...9 B..3|C-4 A8.. ....|C-4 1..F ....
....|..|--- .... ....|R-- .... ....|--- .... ....
..5A|..|A#6 ...7 ....|C-4 .8.. ....|C-4 ...9 ....
....|..|--- .... ....|R-- .... ....|C-4 .... ....
..5A|..|C-7 2F.F ....|C-4 .8.. ....|C-4 C..F ....
....|..|--- .... ....|R-- .... ....|--- .... ....
....|..|A#6 ...9 ....|C-4 .... ....|C-4 ...9 ....
....|..|--- .... ....|R-- .... ....|--- .... ....
....|..|C-7 ...7 ....|C-4 .... ....|C-4 4..F ....
....|..|--- .... ....|R-- .... ....|--- .... ....
....|..|C-7 ...F ....|C-4 .... ....|C-4 1..9 ....
....|..|--- .... ....|R-- .... ....|--- .... ....
..64|..|C-7 ...9 ....|A#3 .8.. ....|C-4 C..F ....
....|..|--- .... ....|R-- .... ....|--- .... ....
..5A|..|A#6 ...F ....|C-4 .8.. ....|C-4 1... ....
....|..|--- .... ....|--- .... ....|--- .... ....
....|..|C-7 ...9 ....|--- .... ....|C-4 E... ....
....|..|--- .... ....|R-- .... ....|C-4 1..9 ....
....|..|A#6 ...7 ....|C-4 .... ....|C-4 E..F ....
....|..|--- .... ....|R-- .... ....|--- .... ....
....|..|C-7 ...F ....|C-4 .... ....|C-4 1... ....
....|..|--- .... ....|R-- .... ....|--- .... ....
....|..|A#6 ...9 ....|C-4 .... ....|C-4 ...9 ....
....|..|--- .... ....|--- .... ....|C-4 E..F ....
..43|..|C-7 ...7 ....|F-4 .8.. ....|C-4 4... ....
....|..|--- .... ....|--- .... ....|C-4 ...D ....
....|..|C-7 ...F ....|--- .... ....|C-4 ...F ....
....|..|C-7 ...9 ....|--- .... ....|C-4 E... ....
..3C|..|F-7 ...F ....|G-4 .8.. ....|C-4 1... ....
....|..|C-7 ...9 ....|--- .... ....|--- .... ....
....|..|G-7 ...F ....|--- .... ....|C-4 ...9 ....
....|..|F-7 ...9 ....|--- .... ....|C-4 4..F ....
..38|..|C-7 .... B..4|G#4 .8.. ....|C-4 1... ....
....|..|--- .... ....|R-- .... ....|--- .... ....
....|..|A#6 ...7 ....|G#4 .... ....|C-4 ...9 ....
....|..|--- .... ....|R-- .... ....|C-4 .... ....
....|..|G#6 ...F ....|G#4 .... ....|C-4 C..F ....
....|..|--- .... ....|R-- .... ....|--- .... ....
....|..|A#6 ...A ....|G#4 .... ....|C-4 1..9 ....
....|..|--- .... ....|R-- .... ....|--- .... ....
....|..|G#6 ...8 ....|G#4 .... ....|C-4 4..F ....
....|..|--- .... ....|R-- .... ....|--- .... ....
..3C|..|G-6 ...F ....|G-4 .8.. ....|C-4 1..9 ....
....|..|--- .... ....|--- .... ....|--- .... ....
....|..|G#6 ...A ....|--- .... ....|C-4 C..F ....
....|..|--- .... ....|R-- .... ....|--- .... ....
....|..|G#6 ...F ....|G#4 .... ....|C-4 1... ....
....|..|--- .... ....|--- .... ....|--- .... ....
....|..|G-6 .... B..5|--- .... 21.3|C-4 C... ....
....|..|--- .... ....|--- .... ....|--- .... ....
..32|..|G-6 ...9 ....|A#4 .8.. ....|C-4 4... ....
....|..|G#6 ...F ....|--- .... ....|C-4 1..9 ....
....|..|--- .... ....|--- .... ....|C-4 ...F ....
....|..|G-6 ...9 ....|--- .... ....|--- .... ....
....|..|G-6 ...F ....|--- .... ....|C-4 ...9 ....
....|..|--- .... ....|--- .... ....|C-4 E..F ....
....|..|G#6 ...9 B..6|--- .... ....|C-4 4... ....
....|..|F-6 ...F ....|--- .... ....|--- .... ....
....|..|--- .... ....|--- .... ....|C-4 1..9 ....
....|..|G-6 ...9 ....|--- .... ....|C-4 ...F ....
....|..|--- .... ....|--- .... ....|C-4 .... ....
....|..|D#6 ...F ....|--- .... ....|--- .... ....
....|..|--- .... ....|--- .... ....|C-4 ...9 ....
....|..|--- .... ....|--- .... ....|C-4 .... ....

[Pattern24]
..5A|..|F-6 2F.F ....|C-4 A8.. B..3|C-4 1..F ....
....|..|F-6 ...9 ....|R-- .... ....|--- .... ....
..5A|..|F-6 ...D ....|C-4 .8.. ....|C-4 ...9 ....
....|..|F-6 ...C ....|R-- .... ....|C-4 .... ....
..5A|..|F-6 ...B ....|C-4 .8.. ....|C-4 C..F ....
....|..|F-6 ...5 ....|R-- .... ....|--- .... ....
....|..|F-6 ...9 ....|C-4 .... ....|C-4 1..9 ....
....|..|F-6 ...8 ....|R-- .... ....|--- .... ....
....|..|F-6 ...7 ....|C-4 .... ....|C-4 4..F ....
....|..|F-6 ...3 ....|R-- .... ....|--- .... ....
....|..|F-6 ...5 ....|C-4 .... ....|C-4 1..9 ....
....|..|F-6 ...4 ....|R-- .... ....|--- .... ....
..64|..|F-6 ...3 ....|A#3 .8.. ....|C-4 C..F ....
....|..|--- ...2 ....|R-- .... ....|--- .... ....
..5A|..|--- .... ....|C-4 .8.. ....|C-4 1... ....
....|..|--- .... ....|--- .... ....|--- .... ....
....|..|--- .... ....|--- .... ....|C-4 E... ....
....|..|--- .... ....|R-- .... ....|C-4 1..9 ....
....|..|--- .... ....|C-4 .... ....|C-4 E..F ....
....|..|--- .... ....|R-- .... ....|--- .... ....
....|..|--- .... ....|C-4 .... ....|C-4 1... ....
....|..|--- .... ....|R-- .... ....|--- .... ....
....|..|--- .... ....|C-4 .... ....|C-4 ...9 ....
....|..|--- .... ....|--- .... ....|C-4 E..F ....
..43|..|--- .... ....|F-4 .8.. ....|C-4 4... ....
....|..|--- .... ....|--- .... ....|C-4 ...D ....
....|..|--- .... ....|--- .... ....|C-4 ...F ....
....|..|--- .... ....|--- .... ....|C-4 E... ....
..3C|..|--- .... ....|G-4 .8.. ....|C-4 1... ....
....|..|--- .... ....|--- .... ....|C-4 C... ....
....|..|--- .... ....|--- .... ....|C-4 4... ....
....|..|--- .... ....|--- .... ....|--- .... ....
..5A|..|--- .... ....|C-4 .8.. ....|C-4 1... ....
....|..|--- .... ....|R-- .... ....|--- .... ....
....|..|--- .... ....|C-4 .... ....|C-4 ...9 ....
....|..|--- .... ....|R-- .... ....|C-4 .... ....
....|..|--- .... ....|C-4 .... ....|C-4 C..F ....
....|..|--- .... ....|R-- .... ....|--- .... ....
....|..|--- .... ....|C-4 .... ....|C-4 1..9 ....
....|..|--- .... ....|R-- .... ....|--- .... ....
....|..|--- .... ....|C-4 .... ....|C-4 4..F ....
....|..|--- .... ....|R-- .... ....|--- .... ....
..5A|..|--- .... ....|C-4 .8.. ....|C-4 1..9 ....
....|..|--- .... ....|R-- .... ....|--- .... ....
..64|..|--- .... ....|A#3 .8.. ....|C-4 C..F ....
....|..|--- .... ....|R-- .... ....|--- .... ....
..5A|..|--- .... ....|C-4 .8.. ....|C-4 1... ....
....|..|--- .... ....|--- .... ....|--- .... ....
....|..|--- .... ....|--- .... ....|C-4 ...9 ....
....|..|--- .... ....|R-- .... ....|--- .... ....
....|..|--- .... ....|C-4 .... ....|C-4 C..F ....
....|..|--- .... ....|R-- .... ....|C-4 1..9 ....
....|..|--- .... ....|C-4 .... ....|C-4 ...F ....
....|..|--- .... ....|R-- .... ....|--- .... ....
....|..|--- .... ....|C-4 .... ....|C-4 ...9 ....
....|..|--- .... ....|R-- .... ....|--- .... ....
..43|..|--- .... ....|F-4 .8.. ....|C-4 4..F ....
....|..|--- .... ....|R-- .... ....|--- .... ....
....|..|--- .... ....|F-4 .... ....|C-4 1..9 ....
....|..|--- .... ....|R-- .... ....|--- .... ....
..3C|..|--- .... ....|G-4 .8.. ....|C-4 ...F ....
..43|..|--- .... ....|F-4 .8.. ....|C-4 E... ....
..3C|..|--- .... ....|G-4 .8.. ....|C-4 C... ....
....|..|--- .... ....|--- .... ....|C-4 1..9 ....

[Pattern25]
..5A|..|--- .... ....|C-4 A8.. ....|C-4 1..F ....
....|..|--- .... ....|R-- .... ....|--- .... ....
..5A|..|--- .... ....|C-4 .8.. ....|C-4 ...9 ....
....|..|--- .... ....|R-- .... ....|C-4 .... ....
..5A|..|--- .... ....|C-4 .8.. ....|C-4 C..F ....
....|..|--- .... ....|R-- .... ....|--- .... ....
....|..|--- .... ....|C-4 .... ....|C-4 ...9 ....
....|..|--- .... ....|R-- .... ....|--- .... ....
....|..|--- .... ....|C-4 .... ....|C-4 4..F ....
....|..|--- .... ....|R-- .... ....|--- .... ....
....|..|--- .... ....|C-4 .... ....|C-4 1..9 ....
....|..|--- .... ....|R-- .... ....|--- .... ....
..64|..|--- .... ....|A#3 .8.. ....|C-4 C..F ....
....|..|--- .... ....|R-- .... ....|--- .... ....
..5A|..|--- .... ....|C-4 .8.. ....|C-4 1... ....
....|..|--- .... ....|--- .... ....|--- .... ....
....|..|--- .... ....|--- .... ....|C-4 E... ....
....|..|--- .... ....|R-- .... ....|C-4 1..9 ....
....|..|--- .... ....|C-4 .... ....|C-4 E..F ....
....|..|--- .... ....|R-- .... ....|--- .... ....
....|..|--- .... ....|C-4 .... ....|C-4 1... ....
....|..|--- .... ....|R-- .... ....|--- .... ....
....|..|--- .... ....|C-4 .... ....|C-4 ...9 ....
....|..|--- .... ....|--- .... ....|C-4 E..F ....
..43|..|--- .... ....|F-4 .8.. ....|C-4 4... ....
....|..|--- .... ....|--- .... ....|C-4 ...D ....
....|..|--- .... ....|--- .... ....|C-4 ...F ....
....|..|--- .... ....|--- .... ....|C-4 E... ....
..3C|..|--- .... ....|G-4 .8.. ....|C-4 1... ....
....|..|--- .... ....|--- .... ....|--- .... ....
....|..|--- .... ....|--- .... ....|C-4 ...9 ....
....|..|--- .... ....|--- .... ....|C-4 4..F ....
..38|..|--- .... ....|G#4 .8.. ....|C-4 1... ....
....|..|--- .... ....|R-- .... ....|--- .... ....
....|..|--- .... ....|G#4 .... ....|C-4 ...9 ....
....|..|--- .... ....|R-- .... ....|C-4 .... ....
....|..|--- .... ....|G#4 .... ....|C-4 C..F ....
....|..|--- .... ....|R-- .... ....|--- .... ....
....|..|--- .... ....|G#4 .... ....|C-4 1..9 ....
....|..|--- .... ....|R-- .... ....|--- .... ....
....|..|--- .... ....|G#4 .... ....|C-4 4..F ....
....|..|--- .... ....|R-- .... ....|--- .... ....
..3C|..|--- .... ....|G-4 .8.. ....|C-4 1..9 ....
....|..|--- .... ....|R-- .... ....|--- .... ....
..43|..|--- .... ....|F-4 .8.. ....|C-4 C..F ....
....|..|--- .... ....|R-- .... ....|--- .... ....
..4B|..|--- .... ....|D#4 .8.. ....|C-4 1... ....
....|..|--- .... ....|--- .... ....|--- .... ....
....|..|--- .... ....|--- .... ....|C-4 C... ....
....|..|--- .... ....|R-- .... ....|--- .... ....
....|..|--- .... ....|D#4 .... ....|C-4 4... ....
....|..|--- .... ....|R-- .... ....|C-4 1..9 ....
....|..|--- .... ....|D#4 .... ....|C-4 ...F ....
....|..|--- .... ....|R-- .... ....|--- .... ....
....|..|--- .... ....|D#4 .... ....|C-4 ...9 ....
....|..|--- .... ....|R-- .... ....|C-4 E..F ....
..43|..|F-6 2F.F ....|F-4 .8.. ....|C-4 4... ....
....|..|F-6 ...9 ....|--- .... ....|--- .... ....
....|..|G-6 ...F ....|--- .... ....|C-4 1..9 ....
....|..|F-6 ...9 ....|R-- .... ....|C-4 ...F ....
..3C|..|G#6 ...F ....|G-4 .8.. ....|C-4 .... ....
....|..|G-6 ...9 ....|--- .... ....|--- .... ....
....|..|A#6 ...F ....|--- .... ....|C-4 ...9 ....
....|..|G#6 ...9 ....|--- .... ....|C-4 .... ....

[Pattern26]
..5A|..|C-7 ...9 B..3|C-4 A8.. ....|C-4 1..F ....
....|..|--- .... ....|R-- .... ....|--- .... ....
..5A|..|A#6 ...7 ....|C-4 .8.. ....|C-4 ...9 ....
....|..|--- .... ....|R-- .... ....|C-4 .... ....
..5A|..|C-7 2F.F ....|C-4 .8.. ....|C-4 C..F ....
....|..|--- .... ....|R-- .... ....|--- .... ....
....|..|A#6 ...9 ....|C-4 .... ....|C-4 ...9 ....
....|..|--- .... ....|R-- .... ....|--- .... ....
....|..|C-7 ...7 ....|C-4 .... ....|C-4 4..F ....
....|..|--- .... ....|R-- .... ....|--- .... ....
....|..|C-7 ...F ....|C-4 .... ....|C-4 1..9 ....
....|..|--- .... ....|R-- .... ....|--- .... ....
..64|..|C-7 ...9 ....|A#3 .8.. ....|C-4 C..F ....
....|..|--- .... ....|R-- .... ....|--- .... ....
..5A|..|A#6 ...F ....|C-4 .8.. ....|C-4 1... ....
....|..|--- .... ....|--- .... ....|--- .... ....
....|..|C-7 ...9 ....|--- .... ....|C-4 E... ....
....|..|--- .... ....|R-- .... ....|C-4 1..9 ....
....|..|A#6 ...7 ....|C-4 .... ....|C-4 E..F ....
....|..|--- .... ....|R-- .... ....|--- .... ....
....|..|C-7 ...F ....|C-4 .... ....|C-4 1... ....
....|..|--- .... ....|R-- .... ....|--- .... ....
....|..|A#6 ...9 ....|C-4 .... ....|C-4 ...9 ....
....|..|--- .... ....|--- .... ....|C-4 E..F ....
..43|..|C-7 ...7 ....|F-4 .8.. ....|C-4 4... ....
....|..|--- .... ....|--- .... ....|C-4 ...D ....
....|..|C-7 ...F ....|--- .... ....|C-4 ...F ....
....|..|--- .... ....|--- .... ....|C-4 E... ....
..3C|..|C-7 ...9 ....|G-4 .8.. ....|C-4 1... ....
....|..|--- .... ....|--- .... ....|--- .... ....
....|..|A#6 ...F ....|--- .... ....|C-4 ...9 ....
....|..|--- .... ....|--- .... ....|C-4 4..F ....
..38|..|C-7 ...9 ....|G#4 .8.. ....|C-4 1... ....
....|..|--- .... ....|R-- .... ....|--- .... ....
....|..|A#6 ...7 ....|G#4 .... ....|C-4 ...9 ....
....|..|--- .... ....|R-- .... ....|C-4 .... ....
....|..|G#6 ...F ....|G#4 .... ....|C-4 C..F ....
....|..|--- .... ....|R-- .... ....|--- .... ....
....|..|A#6 ...9 ....|G#4 .... ....|C-4 1..9 ....
....|..|--- .... ....|R-- .... ....|--- .... ....
....|..|G#6 ...7 ....|G#4 .... ....|C-4 4..F ....
....|..|--- .... ....|R-- .... ....|--- .... ....
..3C|..|G-6 ...F ....|G-4 .8.. ....|C-4 1..9 ....
....|..|--- .... ....|R-- .... ....|--- .... ....
..38|..|G#6 ...9 ....|G#4 .8.. ....|C-4 C..F ....
....|..|--- .... ....|R-- .... ....|--- .... ....
..32|..|G#6 ...F ....|A#4 .8.. ....|C-4 4... ....
....|..|--- .... ....|--- .... ....|--- .... ....
....|..|G-6 ...9 ....|A#4 .... ....|C-4 1... ....
....|..|--- .... ....|R-- .... ....|--- .... ....
....|..|G#6 ...7 ....|A#4 .... ....|--- .... ....
....|..|--- .... ....|R-- .... ....|--- .... ....
....|..|C-6 ...F ....|A#4 .... ....|--- .... ....
....|..|--- .... ....|--- .... ....|--- .... ....
....|..|G#6 ...9 ....|--- .... ....|--- .... ....
....|..|--- .... ....|R-- .... ....|--- .... ....
..4B|..|C-6 ...7 ....|D#4 .8.. ....|C-8 .F.1 ....
....|..|--- .... ....|--- .... ....|C-8 ...3 ....
....|..|D#6 ...F ....|--- .... ....|C-8 ...5 ....
....|..|--- .... ....|R-- .... ....|C-8 ...7 ....
..43|..|C-6 ...9 ....|F-4 .8.. ....|C-8 ...9 ....
....|..|--- .... ....|--- .... ....|C-8 ...B ....
....|..|F-6 ...F ....|--- .... ....|C-8 ...D ....
....|..|--- .... ....|--- .... ....|C-8 ...F ....

[Pattern27]
..77|..|A#4 A8.. B..3|G-3 A8.. ....|C-4 1F.F ....
....|..|B-4 .... ....|--- .... ....|--- .... ....
..43|..|C-5 .... ....|F-4 .8.. ....|C-4 E... ....
....|..|--- .... ....|--- .... ....|--- .... ....
..3C|..|--- .... ....|G-4 .8.. ....|C-4 C... ....
....|..|--- .... ....|--- .... ....|C-4 E... ....
....|..|--- .... ....|--- .... ....|C-4 1... ....
....|..|--- .... ....|R-- .... ....|--- .... ....
..3C|..|--- .... ....|G-5 .8.. ....|C-4 4... ....
....|..|--- .... ....|--- .... ....|--- .... ....
..43|..|--- .... ....|F-5 .8.. ....|C-4 E... ....
....|..|--- .... ....|--- .... ....|--- .... ....
..3C|..|--- .... ....|G-5 .8.. ....|C-4 1... ....
....|..|--- .... ....|--- .... ....|--- .... ....
..43|..|--- .... ....|F-5 .8.. ....|C-4 C... ....
....|..|--- .... ....|--- .... ....|C-4 1..D ....
..77|..|A#4 .8.. ....|G-3 .8.. ....|C-4 ...F ....
....|..|--- .... ....|R-- .... ....|--- .... ....
..3C|..|C-5 .8.. ....|G-4 .8.. ....|C-4 4... ....
....|..|--- .... ....|--- .... ....|--- .... ....
....|..|A#5 .... ....|--- .... ....|C-4 E... ....
....|..|--- .... ....|--- .... ....|--- .... ....
..77|..|C-6 .8.. ....|F-5 .8.. ....|C-4 1... ....
....|..|--- .... ....|R-- .... ....|--- .... ....
..3C|..|A#5 .... ....|G-5 .8.. ....|C-4 4... ....
....|..|--- .... ....|--- .... ....|C-4 .... ....
..43|..|C-6 .... ....|F-5 .8.. ....|C-4 .... ....
....|..|--- .... ....|--- .... ....|--- .... ....
..3C|..|G-5 .... ....|G-5 .8.. ....|C-4 1... ....
....|..|--- .... ....|--- .... ....|--- .... ....
..43|..|F-5 .... ....|F-5 .8.. ....|C-4 4... ....
....|..|G-5 .... ....|--- .... ....|--- .... ....
..A9|..|G#5 .... ....|C#3 .8.. ....|C-4 1... ....
....|..|--- .... ....|R-- .... ....|--- .... ....
..54|..|--- .... ....|C#4 .8.. ....|C-4 E... ....
....|..|--- .... ....|--- .... ....|--- .... ....
..54|..|--- .... ....|C#5 .8.. ....|C-4 C... ....
....|..|--- .... ....|--- .... ....|C-4 E... ....
..A9|..|--- .... 1114|C#3 .8.. ....|C-4 1... ....
....|..|--- .... ....|R-- .... ....|--- .... ....
..54|..|A#5 .... ....|C#4 .8.. ....|C-4 4... ....
....|..|--- .... ....|--- .... ....|--- .... ....
..54|..|--- .... ....|C#5 .8.. ....|C-4 E... ....
....|..|--- .... ....|--- .... ....|--- .... ....
..54|..|--- .... ....|C#4 .8.. ....|C-4 1... ....
....|..|--- .... ....|--- .... ....|--- .... ....
..54|..|--- .... 1114|C#5 .8.. ....|C-4 C... ....
....|..|--- .... ....|--- .... ....|--- .... ....
..71|..|C#6 .... ....|G#3 .8.. ....|C-4 4... ....
....|..|--- .... ....|R-- .... ....|--- .... ....
..38|..|--- .... ....|G#4 .8.. ....|C-4 .... ....
....|..|--- .... ....|--- .... ....|--- .... ....
..38|..|--- .... ....|G#5 .8.. ....|C-4 C... ....
....|..|--- .... ....|--- .... ....|--- .... ....
..64|..|--- .... 1114|A#3 .8.. ....|C-4 4... ....
....|..|--- .... ....|R-- .... ....|--- .... ....
..32|..|A#5 .... ....|A#4 .8.. ....|C-4 .... ....
....|..|--- .... ....|--- .... ....|C-4 .... ....
..32|..|--- .... ....|A#4 38.. ....|C-4 .... ....
....|..|--- .... ....|--- .... ....|--- .... ....
..43|..|--- .... ....|F-4 A8.. ....|C-4 .... ....
....|..|--- .... ....|--- .... ....|--- .... ....
..32|..|--- .... 1114|A#5 .8.. ....|C-4 .... ....
....|..|--- .... ....|--- .... ....|--- .... ....

[Pattern28]
..77|..|C-6 A8.. 11.1|G-3 A8.. ....|C-4 1F.F ....
....|..|--- .... ....|--- .... ....|--- .... ....
..43|..|--- .... ....|F-4 .8.. ....|C-4 E... ....
....|..|--- .... ....|--- .... ....|--- .... ....
..3C|..|--- .... ....|G-4 .8.. ....|C-4 C... ....
....|..|--- .... ....|--- .... ....|C-4 E... ....
....|..|--- .... ....|--- .... ....|C-4 1... ....
....|..|--- .... ....|R-- .... ....|--- .... ....
..3C|..|--- .... ....|G-5 .8.. ....|C-4 4... ....
....|..|--- .... ....|--- .... ....|--- .... ....
..43|..|--- .... ....|F-5 .8.. ....|C-4 E... ....
....|..|--- .... ....|--- .... ....|--- .... ....
..3C|..|--- .... ....|G-5 .8.. ....|C-4 1... ....
....|..|--- .... ....|--- .... ....|--- .... ....
..43|..|--- .... ....|F-5 .8.. ....|C-4 C... ....
....|..|--- .... ....|--- .... ....|C-4 1..D ....
..77|..|--- .... ....|G-3 .8.. ....|C-4 ...F ....
....|..|--- .... ....|R-- .... ....|--- .... ....
..3C|..|--- .... ....|G-4 .8.. ....|C-4 4... ....
....|..|--- .... ....|--- .... ....|--- .... ....
....|..|--- .... ....|--- .... ....|C-4 E... ....
....|..|--- .... ....|--- .... ....|--- .... ....
..77|..|--- .... ....|F-5 .8.. ....|C-4 1... ....
....|..|--- .... ....|R-- .... ....|--- .... ....
..3C|..|--- .... ....|G-5 .8.. ....|C-4 4... ....
....|..|--- .... ....|--- .... ....|C-4 .... ....
..43|..|--- .... ....|F-5 .8.. ....|C-4 .... ....
....|..|--- .... ....|--- .... ....|--- .... ....
..3C|..|--- .... ....|G-5 .8.. ....|C-4 1... ....
....|..|--- .... ....|--- .... ....|--- .... ....
..43|..|--- .... ....|F-5 .8.. ....|C-4 4... ....
....|..|--- .... ....|--- .... ....|--- .... ....
..A9|..|--- .... ....|C#3 .8.. ....|C-4 1... ....
....|..|--- .... ....|R-- .... ....|--- .... ....
..54|..|--- .... ....|C#4 .8.. ....|C-4 E... ....
....|..|--- .... ....|--- .... ....|--- .... ....
..54|..|--- .... ....|C#5 .8.. ....|C-4 C... ....
....|..|--- .... ....|--- .... ....|C-4 E... ....
..A9|..|--- .... ....|C#3 .8.. ....|C-4 1... ....
....|..|--- .... ....|R-- .... ....|--- .... ....
..54|..|--- .... ....|C#4 .8.. ....|C-4 4... ....
....|..|--- .... ....|--- .... ....|--- .... ....
..54|..|--- .... ....|C#5 .8.. ....|C-4 E... ....
....|..|--- .... ....|--- .... ....|--- .... ....
..54|..|--- .... ....|C#4 .8.. ....|C-4 1... ....
....|..|--- .... ....|--- .... ....|--- .... ....
..54|..|--- .... ....|C#5 .8.. ....|C-4 C... ....
....|..|--- .... ....|--- .... ....|--- .... ....
..71|..|--- .... ....|G#3 .8.. ....|C-4 1... ....
....|..|--- .... ....|R-- .... ....|--- .... ....
..38|..|--- .... ....|G#4 .8.. ....|C-4 4... ....
....|..|--- .... ....|--- .... ....|--- .... ....
..38|..|--- .... ....|G#5 .8.. ....|C-4 C... ....
....|..|--- .... ....|--- .... ....|--- .... ....
..64|..|--- .... ....|A#3 .8.. ....|C-4 1... ....
....|..|--- .... ....|R-- .... ....|--- .... ....
..32|..|A#6 2F.. ....|A#4 .8.. ....|C-4 4... ....
....|..|--- .... ....|--- .... ....|--- .... ....
..32|..|A#6 .8.. ....|A#4 38.. ....|C-4 1... ....
....|..|--- .... ....|--- .... ....|C-4 E... ....
..43|..|A#6 .8.. ....|F-4 A8.. ....|C-4 4... ....
....|..|--- .... ....|--- .... ....|--- .... ....
..32|..|C#7 .8.. ....|A#5 .8.. ....|C-4 1... ....
....|..|--- .... ....|--- .... ....|--- .... ....

[Pattern29]
..77|..|C-5 1F.F ....|G-3 A8.. ....|C-4 1F.F ....
....|..|--- .... ....|--- .... ....|--- .... ....
..43|..|--- .... ....|F-3 .8.. ....|C-4 E... ....
....|..|--- .... ....|--- .... ....|--- .... ....
..3C|..|C-5 .... ....|G-4 .8.. ....|C-4 C... ....
....|..|--- .... ....|--- .... ....|C-4 E... ....
....|..|--- .... ....|--- .... ....|C-4 1... ....
....|..|--- .... ....|R-- .... ....|--- .... ....
..3C|..|C-5 .... ....|G-5 .8.. ....|C-4 4... ....
....|..|--- .... ....|--- .... ....|--- .... ....
..43|..|--- .... ....|F-5 .8.. ....|C-4 E... ....
....|..|--- .... ....|--- .... ....|--- .... ....
..3C|..|C-5 .... ....|G-5 .8.. ....|C-4 1... ....
....|..|--- .... ....|--- .... ....|--- .... ....
..43|..|--- .... ....|F-5 .8.. ....|C-4 C... ....
....|..|--- .... ....|--- .... ....|C-4 1..D ....
..77|..|C-5 .... ....|G-3 .8.. ....|C-4 ...F ....
....|..|--- .... ....|R-- .... ....|--- .... ....
..3C|..|C-5 .... ....|G-4 .8.. ....|C-4 4... ....
....|..|--- .... ....|--- .... ....|--- .... ....
....|..|--- .... ....|--- .... ....|C-4 E... ....
....|..|--- .... ....|--- .... ....|--- .... ....
..77|..|C-5 .... ....|F-5 .8.. ....|C-4 1... ....
....|..|--- .... ....|R-- .... ....|--- .... ....
..3C|..|C-5 .... ....|G-5 .8.. ....|C-4 4... ....
....|..|--- .... ....|--- .... ....|C-4 .... ....
..43|..|--- .... ....|F-5 .8.. ....|C-4 .... ....
....|..|--- .... ....|--- .... ....|--- .... ....
..3C|..|C-5 .... ....|G-5 .8.. ....|C-4 1... ....
....|..|--- .... ....|--- .... ....|--- .... ....
..43|..|--- .... ....|F-5 .8.. ....|C-4 4... ....
....|..|--- .... ....|--- .... ....|--- .... ....
....|..|C-5 .... ....|G-5 .8.. ....|C-4 1... ....
....|..|--- .... ....|--- .... ....|--- .... ....
....|..|--- .... ....|--- .... ....|C-4 E... ....
....|..|--- .... ....|--- .... ....|--- .... ....
....|..|C-5 C... ....|--- .... ....|C-4 C... ....
....|..|--- .... ....|--- .... ....|C-4 E... ....
....|..|--- .... ....|--- .... ....|C-4 1... ....
....|..|--- .... ....|--- .... ....|--- .... ....
....|..|C-5 1... ....|--- .... 11.4|C-4 4... ....
....|..|--- .... ....|--- .... ....|--- .... ....
....|..|--- .... ....|--- .... ....|C-4 E... ....
....|..|--- .... ....|--- .... ....|--- .... ....
....|..|C-5 C... ....|--- .... ....|C-4 1... ....
....|..|--- .... ....|--- .... ....|--- .... ....
....|..|--- .... ....|--- .... ....|C-4 C... ....
....|..|--- .... ....|--- .... ....|--- .... ....
....|..|C-5 1... ....|B-4 .8.. ....|C-4 1... ....
....|..|--- .... ....|R-- .... ....|--- .... ....
....|..|C-5 .... ....|A#4 .8.. ....|C-4 .... ....
....|..|--- .... ....|R-- .... ....|--- .... ....
....|..|C-5 C... ....|A-4 .8.. ....|C-4 .... ....
....|..|--- .... ....|R-- .... ....|--- .... ....
....|..|C-5 1... ....|G#4 .8.. ....|C-4 .... ....
....|..|--- .... ....|R-- .... ....|--- .... ....
....|..|C-5 .... ....|G-4 .8.. ....|C-4 .... ....
....|..|--- .... ....|R-- .... ....|C-4 .... ....
....|..|C-5 .... ....|F#4 .8.. ....|C-4 .... ....
....|..|--- .... ....|R-- .... ....|--- .... ....
....|..|C-5 C... ....|F-4 .8.. ....|C-4 .... ....
....|..|--- .... ....|R-- .... ....|--- .... ....
....|..|C-5 1... ....|E-4 .8.. ....|C-4 .... ....
....|..|--- .... ....|R-- .... ....|--- .... ....

[Pattern30]
..5A|..|C-5 1F.. ....|--- .8.. ....|C-4 1F.. ....
....|..|--- .... ....|--- .... ....|--- .... ....
....|..|--- .... ....|--- .... ....|--- .... ....
....|..|--- .... ....|R-- .... ....|--- .... ....
....|..|--- .... ....|C-3 .... ....|--- .... ....
....|..|--- .... ....|R-- .... ....|--- .... ....
....|..|--- .... ....|C-4 .... ....|--- .... ....
....|..|--- .... ....|--- .... ....|--- .... ....
....|..|--- .... ....|C-3 .... ....|--- .... ....
....|..|--- .... ....|R-- .... ....|--- .... ....
....|..|--- .... ....|C-3 .... ....|--- .... ....
....|..|--- .... ....|--- .... ....|--- .... ....
....|..|--- .... ....|C-4 .... ....|--- .... ....
....|..|--- .... ....|--- .... ....|--- .... ....
....|..|--- .... ....|R-- .... ....|--- .... ....
....|..|--- .... ....|--- .... ....|--- .... ....
..77|..|--- .... ....|G-5 A8.. 1114|--- .... ....
....|..|--- .... ....|--- .... ....|--- .... ....
....|..|--- .... ....|--- .... ....|--- .... ....
....|..|--- .... ....|--- .... ....|--- .... ....
....|..|--- .... ....|--- .... ....|--- .... ....
....|..|--- .... ....|--- .... ....|--- .... ....
....|..|--- .... ....|--- .... ....|--- .... ....
....|..|--- .... ....|--- .... ....|--- .... ....
....|..|--- .... ....|--- .... ....|--- .... ....
....|..|--- .... ....|--- .... ....|--- .... ....
....|..|--- .... ....|R-- .... ....|--- .... ....
....|..|--- .... ....|--- .... ....|--- .... ....
....|..|--- .... ....|--- .... ....|--- .... ....
....|..|--- .... ....|--- .... ....|--- .... ....
....|..|--- .... ....|--- .... ....|--- .... ....
....|..|--- .... ....|--- .... ....|--- .... ....
....|..|--- .... ....|--- .... ....|--- .... ....
....|..|--- .... ....|--- .... ....|--- .... ....
....|..|--- .... ....|--- .... ....|--- .... ....
....|..|--- .... ....|--- .... ....|--- .... ....
....|..|--- .... ....|--- .... ....|--- .... ....
....|..|--- .... ....|--- .... ....|--- .... ....
....|..|--- .... ....|--- .... ....|--- .... ....
....|..|--- .... ....|--- .... ....|--- .... ....
....|..|--- .... ....|--- .... ....|--- .... ....
....|..|--- .... ....|--- .... ....|--- .... ....
....|..|--- .... ....|--- .... ....|--- .... ....
....|..|--- .... ....|--- .... ....|--- .... ....
....|..|--- .... ....|--- .... ....|--- .... ....
....|..|--- .... ....|--- .... ....|--- .... ....
....|..|--- .... ....|--- .... ....|--- .... ....
....|..|--- .... ....|--- .... ....|--- .... ....
....|..|--- .... ....|--- .... ....|--- .... ....
....|..|--- .... ....|--- .... ....|--- .... ....
....|..|--- .... ....|--- .... ....|--- .... ....
....|..|--- .... ....|--- .... ....|--- .... ....
....|..|--- .... ....|--- .... ....|--- .... ....
....|..|--- .... ....|--- .... ....|--- .... ....
....|..|--- .... ....|--- .... ....|--- .... ....
....|..|--- .... ....|--- .... ....|--- .... ....
....|..|--- .... ....|--- .... ....|--- .... ....
....|..|--- .... ....|--- .... ....|--- .... ....
....|..|--- .... ....|--- .... ....|--- .... ....
....|..|--- .... ....|--- .... ....|--- .... ....
....|..|--- .... ....|--- .... ....|--- .... ....
....|..|--- .... ....|--- .... ....|--- .... ....
....|..|--- .... ....|--- .... ....|--- .... ....
....|..|--- .... ....|--- .... ....|--- .... ....

[Pattern31]
..77|..|C-4 1F.F ....|G-3 A8.. ....|C-4 1F.F ....
....|.2|C-4 5FC. ....|--- .... ....|--- .... ....
..43|.5|--- ...E ....|F-4 .8.. ....|C#4 ...1 ....
....|.A|--- ...D ....|--- .... ....|--- .... ....
..3C|.F|--- ...C ....|G-4 .8.. ....|D-4 ...2 ....
....|14|--- ...B ....|--- .... ....|--- .... ....
....|19|--- ...A ....|--- .... ....|C-4 ...F ....
....|1F|--- ...9 ....|R-- .... ....|--- .... ....
..3C|..|--- ...8 ....|G-4 .8.. ....|E-4 ...3 ....
....|..|--- ...7 ....|--- .... ....|--- .... ....
....|..|--- ...6 ....|--- .... ....|F-4 .... ....
....|..|--- ...5 ....|--- .... ....|--- .... ....
....|..|--- ...4 ....|--- .... ....|F#4 ...4 ....
....|..|--- ...3 ....|--- .... ....|--- .... ....
....|..|--- ...2 ....|--- .... ....|G-4 .... ....
....|..|--- ...1 ....|--- .... ....|--- .... ....
..77|..|--- ...2 ....|G-3 .8.. ....|C-4 ...F ....
....|..|--- ...3 ....|R-- .... ....|--- .... ....
..3C|..|--- ...4 ....|G-4 .8.. ....|A-4 ...5 ....
....|..|--- ...5 ....|--- .... ....|--- .... ....
....|..|--- ...6 ....|--- .... ....|A#4 ...6 ....
....|..|--- ...7 ....|--- .... ....|--- .... ....
..77|..|--- ...8 ....|G-3 .8.. ....|C-4 ...F ....
....|..|--- ...9 ....|R-- .... ....|--- .... ....
..3C|..|--- .... ....|G-4 .8.. ....|C-5 ...7 ....
....|..|--- ...A ....|--- .... ....|--- .... ....
....|..|--- ...B ....|--- .... ....|C#5 .... ....
....|..|--- ...A ....|--- .... ....|--- .... ....
....|..|--- ...9 ....|--- .... ....|D-5 ...8 ....
....|..|--- ...8 ....|--- .... ....|--- .... ....
....|..|--- ...7 ....|--- .... ....|D#5 .... ....
....|..|--- ...6 ....|--- .... ....|--- .... ....
..77|..|--- ...7 ....|G-3 .8.. ....|C-4 ...F ....
....|..|--- ...8 ....|R-- .... ....|--- .... ....
..3C|..|--- ...9 ....|G-4 .8.. ....|F-5 ...9 ....
....|..|--- ...A ....|--- .... ....|--- .... ....
....|..|--- ...B ....|--- .... ....|F#5 ...A ....
....|..|--- ...C ....|--- .... ....|--- .... ....
..77|..|--- ...D ....|G-3 .8.. ....|C-4 ...F ....
....|..|--- ...E ....|R-- .... ....|--- .... ....
..3C|..|--- ...F ....|G-4 .8.. ....|G#5 ...B ....
....|..|--- ...E ....|--- .... ....|--- .... ....
..77|..|--- ...D ....|G-3 .8.. ....|C-4 ...F ....
....|..|--- ...C ....|--- .... ....|--- .... ....
..3C|..|--- ...B ....|G-4 .8.. ....|C-4 ...C ....
....|..|--- ...A ....|--- .... ....|C-4 .... ....
..43|..|--- ...9 ....|F-4 .8.. ....|C-4 ...F ....
....|..|--- ...8 ....|--- .... ....|--- .... ....
..77|..|--- ...7 ....|G-3 .8.. ....|C-4 4..D ....
....|..|--- ...8 ....|R-- .... ....|--- .... ....
..3C|..|--- ...9 ....|G-4 .8.. ....|D-6 1... ....
....|..|--- ...A ....|--- .... ....|--- .... ....
....|..|--- ...B ....|--- .... ....|E-6 ...E ....
....|..|--- ...C ....|--- .... ....|--- .... ....
..77|..|--- ...D ....|G-3 .8.. ....|C-4 4... ....
....|..|--- ...E ....|R-- .... ....|--- .... ....
..71|19|--- ...F ....|G#3 .8.. ....|G#6 1..F ....
....|14|--- .... ....|--- .... ....|--- .... ....
..38|.F|--- .... ....|G#4 38.. ....|A#6 .... ....
....|.A|--- .... ....|--- .... ....|--- .... ....
..32|.8|--- .... ....|A#4 A8.. ....|C-4 4... ....
....|.6|--- .... ....|--- .... ....|--- .... ....
..43|.4|--- .... ....|F-4 .8.. ....|D-7 1... ....
....|.1|--- .... ....|--- .... ....|D#7 .... ....

