[Module]
VortexTrackerII=0
Version=3.7
Title=We still alive! (party version)
Author=CaT/speccy.pl @ 04-2025
NoteTable=3
Speed=5
PlayOrder=L0,1,2,3,15,4,5,6,9,11,7,12,10,14,8,13,27,28,29,17,18,26,16,30,20,19,21,22,23,24,25

[Ornament1]
L15,15,7,7,3,3,0,0

[Ornament2]
L16,16,9,9,4,4,0,0

[Ornament3]
L16,16,7,7,4,4,0,0

[Ornament4]
24,L0

[Ornament5]
L0

[Ornament6]
L0

[Ornament7]
L0

[Ornament8]
L0

[Ornament9]
-12,L0

[Ornament10]
L0,12,3,15,7

[Ornament11]
L0,12,2,14,7

[Ornament12]
L0,12,5,17,7

[Ornament13]
L-1,12,0,0,12,0,0,12,12,0,12,0,12,0,12,0,12,0,12,0,12,0,12,0,12,0,12,0,12,0,12,0,-1,12,0,0,12,0,0,12,12,0,12,0,12,0,12,0,12,0,12,0,12,0,12,0,12,0,12,0,12,0,12,0,-1,12,0,0,12,0,0,12,12,0,12,0,12,0,12,0,12,0,12,0,12,0,12,0,12,0,12,0,12,0,12,0,-1,12,0,0,12,0,0,12,12,0,12,0,12,0,12,0,12,0,12,0,12,0,12,0,12,0,12,0,12,0,12,0,-1,12,0,0,12,0,0,12,12,0,12,0,12,0,12,0,12,0,12,0,12,0,12,0,12,0,12,0,12,0,12,0,-1,12,0,0,12,0,0,12,12,0,12,0,12,0,12,0,12,0,12,0,12,0,12,0,12,0,12,0,12,0,12,0

[Ornament14]
12,L12,0,0,0,12,12

[Ornament15]
L0

[Sample1]
TNe +000_ +00_ F_
Tne +000_ +00_ F_ L
Tne +000_ +00_ F_
Tne +000_ +00_ F_
Tne +000_ +00_ F_
Tne +000_ +00_ F_
Tne +000_ +00_ F_
Tne +000_ +00_ F_
Tne +000_ +00_ F-

[Sample2]
TNe +000_ +00_ F_
TnE +000_ +00_ F_ L

[Sample3]
TnE +000_ +00_ F_ L

[Sample4]
tne +000_ +00_ 0_ L

[Sample5]
TNe +000_ +00_ F_ L
TNe +000_ +00_ F_
TNe +000_ +00_ F_
TNe +000_ +00_ F_
TNe +000_ +00_ F_
TNe +000_ +00_ F_
TNe +000_ +00_ F_
TNe +000_ +00_ F-

[Sample6]
tne +000_ +00_ 0_ L

[Sample7]
tne +000_ +00_ 0_ L

[Sample8]
tne +000_ +00_ 0_ L

[Sample9]
tne +000_ +00_ 0_ L

[Sample10]
TNE +1C0_ -04_ F_
TnE +393_ +00_ F_
TnE +505_ +00_ E_
TnE +580_ +00_ D_
TnE +000_ +00_ 9_ L

[Sample11]
tNE +000_ +00_ D_
TnE +000_ +00_ 9_ L

[Sample12]
TnE +180_ +00_ F_
TNE +1C0_ +08_ E_
TNE +2C0_ +0B_ C_
TNE +000_ +04_ A_
tNE +000_ +00_ 9_
tnE +000_ +00_ 9_
tnE +000_ +00_ 9_
TnE +000_ +00_ 9_ L

[Sample13]
tNE +000_ +00_ D_
tNE +000_ +00_ D_
tNE +000_ +00_ D_
TNE +000_ +00_ C_
TNE +000_ +00_ C_
TNE +000_ +00_ C_
TNE +000_ +00_ 9_ L

[Sample14]
tne +000_ +00_ 0_ L

[Sample15]
TNE +100_ +03_ F_
TNE +100_ +02_ F_
TNE +180_ +02_ E_
TNE +180_ +01_ D_
tNE +000_ +00_ C_
tNE +000_ +00_ B_
tNE +000_ +00_ A_
tNE +000_ +00_ 9_
tNE +000_ +00_ 7_
tNE +000_ +00_ 7_
tNE +000_ +00_ 5_
tNE +000_ +00_ 4_
tNE +000_ +00_ 0_ L

[Sample16]
Tne +200_ +00_ F_
Tne +280_ +00_ E_
Tne +380_ +00_ D_
Tne +580_ +00_ C_
Tne +680_ +00_ 9_
Tne +780_ +00_ 6_
Tne +000_ +00_ 3_
TNe +000_ +00_ 0_
TNe +000_ +00_ 0_
TNe +000_ +00_ 0_
TNe +000_ +00_ 0_
TNe +000_ +00_ 0_
TNe +000_ +00_ 0_
TNe +000_ +00_ 0_
TNe +000_ +00_ 0_
TNe +000_ +00_ 0_
TNe +000_ +00_ 0_
TNe +000_ +00_ 0_
TNe +000_ +00_ 0_
TNe +000_ +00_ 0_
TNe +000_ +00_ 0_
TNe +000_ +00_ 0_
TNe +000_ +00_ 0_
TNe +000_ +00_ 0_
TNe +000_ +00_ 0_
TNe +000_ +00_ 0_
TNe +000_ +00_ 0_
TNe +000_ +00_ 0_
TNe +000_ +00_ 0_
TNe +000_ +00_ 0_
TNe +000_ +00_ 0_
TNe +000_ +00_ 0_
tne +000_ +00_ 0_ L

[Sample17]
tne +000_ +00_ 0_ L

[Sample18]
tNE +000_ +04_ 8_
tNE +000_ +03_ 9_
tNE +000_ +02_ A_
tNE +000_ +01_ B_
tNE +000_ +00_ B_
tNE +000_ +00_ C_
tNE +000_ +01_ C_
tNE +000_ +02_ D_
tNE +000_ +02_ D_
tNE +000_ +03_ E_
tNE +000_ +03_ E_
tNE +000_ +04_ F_
tNE +000_ +04_ F_
tNE +000_ +05_ 4_
tNE +000_ +05_ 3_
tNE +000_ +00_ 3_
tNE +000_ +00_ 2_
tNE +000_ +00_ 2_
tNE +000_ +00_ 1_
tNE +000_ +00_ 1_
tNE +000_ +00_ 0_
tNE +000_ +00_ 0_
tNE +000_ +00_ 0_
tNE +000_ +00_ 0_
tNE +000_ +00_ 0_
TNE +000_ +00_ 0_
TNE +000_ +00_ 0_
TNE +000_ +00_ 0_
TNE +000_ +00_ 0_
TNE +000_ +00_ 0_
TNE +000_ +00_ 0_
TNE +000_ +00_ 0_
tne +000_ +00_ 0_ L

[Sample19]
tNE +000_ +03_ D_
tNE +000_ +02_ C_
tNE +000_ +01_ B_
tNE +000_ +01_ A_
tNE +000_ +01_ A_
tNE +000_ +01_ 9_
tNE +000_ +01_ 9_
tNE +000_ +01_ 9_
tNE +000_ +01_ 9_
tNE +000_ +01_ 9_
tNE +000_ +01_ 8_
tNE +000_ +01_ 7_
tNE +000_ +01_ 6_
tNE +000_ +01_ 5_
tNE +000_ +01_ 4_
tNE +000_ +01_ 3_
TnE +000_ +00_ 0_
TnE +000_ +00_ 0_
TnE +000_ +00_ 0_
TnE +000_ +00_ 0_
TnE +000_ +00_ 0_
TnE +000_ +00_ 0_
TnE +000_ +00_ 0_
TnE +000_ +00_ 0_
TnE +000_ +00_ 0_
TnE +000_ +00_ 0_
TnE +000_ +00_ 0_
TnE +000_ +00_ 0_
TnE +000_ +00_ 0_
TnE +000_ +00_ 0_
TnE +000_ +00_ 0_
TnE +000_ +00_ 0_
tne +000_ +00_ 0_ L

[Sample20]
TNe +0C8_ +07_ F_
Tne +190_ +00_ F_
Tne +258_ +00_ F_
Tne +320_ +00_ F_
tnE +3E8_ +00_ F_ L

[Sample21]
tne +000_ +00_ 0_ L

[Sample22]
tne +000_ +00_ 0_ L

[Sample23]
TNe +000_ +00_ E_
tNe +000_ +00_ E_
tNe +000_ +00_ E- L

[Sample24]
tNE +000_ +01_ F_
tNE +000_ +02_ A_
tNE +000_ +06_ 5_
tNE +000_ +0F_ 2_
tNE +000_ -06_ 1_
TNE +000_ +00_ 0_
TNE +000_ +00_ 0_ L

[Sample25]
tne +000_ +00_ 0_ L

[Sample26]
tne +000_ +00_ 0_ L

[Sample27]
tne +000_ +00_ 0_ L

[Sample28]
TNe +032_ +04_ F_
Tne +064_ +00_ F_
TNe +096_ +07_ F_
TNe +0C8_ +07_ E_
TNe +0FA_ +07_ D_
TNe +12C^ +07^ C_
tnE +000^ +00^ D- L

[Sample29]
TnE +003_ +00_ F_ L
TnE +003_ +00_ F_
TnE +003_ +00_ F_
TnE +003_ +00_ F-

[Sample30]
Tne +000_ +00_ E_ L
Tne +000_ +00_ E_
Tne +000_ +00_ E_
Tne +000_ +00_ C_
Tne +000_ +00_ C_
Tne +000_ +00_ B_
Tne +000_ +00_ B_
Tne +000_ +00_ B_
Tne +000_ +00_ B_
Tne +000_ +00_ B_
Tne +000_ +00_ B_
Tne +000_ +00_ B_

[Sample31]
tne +000_ +00_ 0_ L

[Pattern0]
..4D|..|R-- .... B..5|C-4 KA.F ....|F-4 3F21 ....
....|..|--- .... ....|--- .... ....|--- ...2 ....
....|..|--- .... ....|--- .... ....|--- ...3 ....
....|..|--- .... ....|--- .... ....|--- ...4 ....
..4D|..|--- .... ....|C-4 .A.. ....|--- ...5 ....
....|..|--- .... ....|--- .... ....|--- ...6 ....
....|..|--- .... ....|--- .... ....|--- ...7 ....
....|..|--- .... ....|--- .... ....|--- ...8 ....
..4D|..|--- .... ....|C-4 .A.. ....|--- .... ....
....|..|--- .... ....|--- .... ....|--- .... ....
....|..|--- .... ....|--- .... ....|--- ...A ....
....|..|--- .... ....|--- .... ....|--- .... ....
..4D|..|--- .... ....|C-4 .A.. ....|--- ...8 ....
....|..|--- .... ....|--- .... ....|--- .... ....
....|..|--- .... ....|--- .... ....|--- ...A ....
....|..|--- .... ....|--- .... ....|--- .... ....
..45|..|G-4 3F31 ....|C-4 .A.. ....|G-1 .F.C ....
....|..|--- ...2 ....|--- .... ....|--- .... ....
....|..|--- ...3 ....|G-1 3F.D ....|--- ...A ....
....|..|--- ...4 ....|--- .... ....|--- .... ....
..45|..|--- ...5 ....|C-4 KA.F ....|--- ...C ....
....|..|--- ...6 ....|--- .... ....|--- .... ....
....|..|--- ...7 ....|--- .... ....|--- ...A ....
....|..|--- ...8 ....|--- .... ....|--- .... ....
..45|..|--- .... ....|C-4 .A.. ....|--- ...C ....
....|..|--- .... ....|--- .... ....|--- .... ....
....|..|--- ...A ....|G-1 3F.D ....|--- ...A ....
....|..|--- .... ....|--- .... ....|--- .... ....
..45|..|--- ...8 ....|C-4 KA.F ....|--- ...C ....
....|..|--- .... ....|--- .... ....|--- .... ....
....|..|--- ...A ....|--- .... ....|--- ...A ....
....|..|--- .... ....|--- .... ....|--- .... ....
..3D|..|A-1 .F.C ....|C-4 .A.. ....|A-4 ..11 ....
....|..|--- .... ....|--- .... ....|--- ...2 ....
....|..|--- ...A ....|--- .... ....|--- ...3 ....
....|..|--- .... ....|--- .... ....|--- ...4 ....
..3D|..|--- ...C ....|C-4 .A.. ....|--- ...5 ....
....|..|--- .... ....|--- .... ....|--- ...6 ....
....|..|--- ...A ....|A-1 3F.D ....|--- ...7 ....
....|..|--- .... ....|--- .... ....|--- ...8 ....
..3D|..|--- ...C ....|C-4 KA.F ....|--- .... ....
....|..|--- .... ....|--- .... ....|--- .... ....
....|..|--- ...A ....|A-1 3F.D ....|--- ...A ....
....|..|--- .... ....|--- .... ....|--- .... ....
..3D|..|--- ...C ....|C-4 KA.F ....|--- ...8 ....
....|..|--- .... ....|--- .... ....|--- .... ....
....|..|--- ...A ....|A-1 3F.D ....|--- ...A ....
....|..|--- .... ....|--- .... ....|--- .... ....
..3D|..|A-4 ..18 ....|C-4 KA.F ....|A-1 .F.D ....
....|..|--- .... ....|--- .... ....|--- .... ....
....|..|--- ...A ....|--- .... ....|--- ...A ....
....|..|--- .... ....|--- .... ....|--- .... ....
..3D|..|--- ...8 ....|C-4 .A.. ....|--- ...D ....
....|..|--- .... ....|--- .... ....|--- ...A ....
....|..|--- ...A ....|A-1 3F.D ....|--- ...D ....
....|..|--- .... ....|--- .... ....|--- ...A ....
..3D|..|--- ...8 ....|C-4 KA.F ....|--- ...D ....
....|..|--- .... ....|--- .... ....|--- ...A ....
....|..|--- ...A ....|A-1 2F.D ....|--- ...D ....
....|..|--- .... ....|--- .... ....|--- ...A ....
..3D|..|--- ...8 ....|C-4 KA.F ....|G-1 ...D ....
....|..|--- .... ....|--- .... ....|--- ...A ....
....|..|--- ...A ....|A-1 1F.D ....|A-1 ...D ....
....|..|--- .... ....|--- .... ....|--- ...A ....

[Pattern1]
..4D|..|F-1 3F.C ....|C-4 KA.F ....|F-4 3F28 ....
....|..|--- .... ....|--- .... ....|--- .... ....
....|..|--- ...A ....|F-1 1F.D ....|--- ...A ....
....|..|--- .... ....|--- .... ....|--- .... ....
..4D|..|--- ...C ....|C-4 KA.F ....|--- ...8 ....
....|..|--- .... ....|--- .... ....|--- .... ....
....|..|--- ...A ....|F-1 1F.D ....|--- ...A ....
....|..|--- .... ....|--- .... ....|--- .... ....
..4D|.1|--- ...C ....|C-4 KA.F ....|--- ...8 ....
....|.1|--- .... ....|--- .... ....|--- .... ....
....|.1|--- ...A ....|F-1 1F.D ....|--- ...A ....
....|.1|--- .... ....|--- .... ....|--- .... ....
..4D|.1|--- ...C ....|C-4 KA.F ....|--- ...8 ....
....|.1|--- .... ....|--- .... ....|--- .... ....
....|.1|--- ...A ....|F-1 1F.D ....|--- ...A ....
....|.1|--- .... ....|--- .... ....|--- .... ....
..45|.2|G-4 ..38 ....|C-4 KA.F ....|G-1 .F.C ....
....|.2|--- .... ....|--- .... ....|--- .... ....
....|.2|--- ...A ....|G-1 1F.D ....|--- ...A ....
....|.2|--- .... ....|--- .... ....|--- .... ....
..45|.2|--- ...8 ....|C-4 KA.F ....|--- ...C ....
....|.2|--- .... ....|--- .... ....|--- .... ....
....|.2|--- ...A ....|G-1 1F.D ....|--- ...A ....
....|.2|--- .... ....|--- .... ....|--- .... ....
..45|.3|--- ...8 ....|C-4 KA.F ....|--- ...C ....
....|.3|--- .... ....|--- .... ....|--- .... ....
....|.3|--- ...A ....|G-1 1F.D ....|--- ...A ....
....|.3|--- .... ....|--- .... ....|--- .... ....
..45|.3|--- ...8 ....|C-4 KA.F ....|--- ...C ....
....|.3|--- .... ....|--- .... ....|--- .... ....
....|.3|--- ...A ....|G-1 1F.D ....|--- ...A ....
....|.3|--- .... ....|--- .... ....|--- .... ....
..3D|.4|A-1 .F.C ....|C-4 KA.F ....|A-4 ..18 ....
....|.4|--- .... ....|--- .... ....|--- .... ....
....|.4|--- ...A ....|A-1 1F.D ....|--- ...A ....
....|.4|--- .... ....|--- .... ....|--- .... ....
..3D|.4|--- ...C ....|C-4 KA.F ....|--- ...8 ....
....|.4|--- .... ....|--- .... ....|--- .... ....
....|.4|--- ...A ....|A-1 1F.D ....|--- ...A ....
....|.4|--- .... ....|--- .... ....|--- .... ....
..3D|.5|--- ...C ....|C-4 KA.F ....|--- ...8 ....
....|.5|--- .... ....|--- .... ....|--- .... ....
....|.5|--- ...A ....|A-1 1F.D ....|--- ...A ....
....|.5|--- .... ....|--- .... ....|--- .... ....
..3D|.5|--- ...C ....|C-4 KA.F ....|--- ...8 ....
....|.5|--- .... ....|--- .... ....|--- .... ....
....|.5|--- ...A ....|A-1 1F.D ....|--- ...A ....
....|.5|--- .... ....|--- .... ....|--- .... ....
..3D|.6|A-4 ..18 ....|C-4 KA.F ....|A-1 .F.D 21.F
....|.6|--- .... ....|--- .... ....|--- .... ....
....|.6|--- ...A ....|A-1 1F.D ....|--- ...A ....
....|.6|--- .... ....|--- .... ....|--- .... ....
..3D|.7|--- ...8 ....|C-4 KA.F ....|--- ...D ....
....|.7|--- .... ....|--- .... ....|--- ...A ....
....|.7|--- ...A ....|A-1 1F.D ....|--- ...D ....
....|.7|--- .... ....|--- .... ....|--- ...A ....
..3D|.6|--- ...8 ....|C-4 KA.F ....|--- ...D ....
....|.6|--- .... ....|--- .... ....|--- ...A ....
....|.5|--- ...A ....|A-1 1F.D ....|--- ...D ....
....|.5|--- .... ....|--- .... ....|--- ...A ....
....|1F|G-5 ..3. ....|C-4 K..F ....|--- ...D ....
....|1F|--- .... ....|C-4 .... ....|--- ...A ....
....|1F|A-5 ..1. ....|C-4 .... ....|--- ...D ....
....|1F|--- .... ....|C-4 .... ....|--- ...A ....

[Pattern2]
..4D|..|F-2 3F.C ....|C-4 KC.F ....|F-5 3F28 ....
....|..|--- .... ....|--- .... ....|--- .... ....
....|..|--- ...A ....|F-1 2F.D ....|--- ...A ....
....|..|--- .... ....|--- .... ....|--- .... ....
..4D|..|--- ...C ....|C-4 KC.F ....|--- ...8 ....
....|..|--- .... ....|--- .... ....|--- .... ....
....|..|--- ...A ....|F-1 2F.D ....|--- ...A ....
....|..|--- .... ....|--- .... ....|--- .... ....
..4D|..|--- ...C ....|C-4 KC.F ....|--- ...8 ....
....|..|--- .... ....|--- .... ....|--- .... ....
....|..|--- ...A ....|F-1 2F.D ....|--- ...A ....
....|..|--- .... ....|--- .... ....|--- .... ....
..4D|..|--- ...C ....|C-4 KC.F ....|--- ...8 ....
....|..|--- .... ....|--- .... ....|--- .... ....
....|..|--- ...A ....|F-1 2F.D ....|--- ...A ....
....|..|--- .... ....|--- .... ....|--- .... ....
..45|..|G-5 ..38 ....|C-4 KC.F ....|G-2 .F.C ....
....|..|--- .... ....|--- .... ....|--- .... ....
....|..|--- ...A ....|G-1 2F.D ....|--- ...A ....
....|..|--- .... ....|--- .... ....|--- .... ....
..45|..|--- ...8 ....|C-4 KC.F ....|--- ...C ....
....|..|--- .... ....|--- .... ....|--- .... ....
....|..|--- ...A ....|G-1 2F.D ....|--- ...A ....
....|..|--- .... ....|--- .... ....|--- .... ....
..45|..|--- ...8 ....|C-4 KC.F ....|--- ...C ....
....|..|--- .... ....|--- .... ....|--- .... ....
....|..|--- ...A ....|G-1 2F.D ....|--- ...A ....
....|..|--- .... ....|--- .... ....|--- .... ....
..45|..|--- ...8 ....|C-4 KC.F ....|--- ...C ....
....|..|--- .... ....|--- .... ....|--- .... ....
....|..|--- ...A ....|G-1 2F.D ....|--- ...A ....
....|..|--- .... ....|--- .... ....|--- .... ....
..1F|.5|A-2 2F.D ....|C-4 KC.F ....|A-5 ..1B ....
....|..|--- .... ....|--- .... ....|--- .... ....
....|..|--- ...A ....|A-1 2F.D ....|--- ...8 ....
....|..|--- .... ....|--- .... ....|--- .... ....
..1F|.5|A-2 ...D ....|C-4 KC.F ....|--- ...B ....
....|..|--- .... ....|--- .... ....|--- .... ....
....|..|--- ...A ....|A-1 2F.D ....|--- ...8 ....
....|..|--- .... ....|--- .... ....|--- .... ....
..3D|..|--- ...9 ....|C-4 KC.F ....|--- .... ....
....|..|--- .... ....|--- .... ....|--- .... ....
..1F|.5|A-2 ...D ....|A-3 .C.D ....|--- ...B ....
....|..|--- .... ....|--- .... ....|--- .... ....
..3D|..|--- ...A ....|A-3 2C.F ....|--- ...8 ....
....|..|--- .... ....|--- .... ....|--- .... ....
..1F|.5|A-2 ...D ....|C-4 KC.D ....|--- ...B ....
....|..|--- .... ....|--- .... ....|--- .... ....
..1F|.5|--- .... ....|C-4 .C.F ....|--- .... ....
....|..|--- .... ....|--- .... ....|--- .... ....
....|..|--- ...A ....|A-1 2F.D ....|--- ...8 ....
....|..|--- .... ....|--- .... ....|--- .... ....
..1F|.5|A-2 ...D ....|C-4 KC.F ....|--- ...B ....
....|..|--- .... ....|--- .... ....|--- .... ....
....|..|--- ...A ....|A-1 2F.D ....|--- ...8 ....
....|..|--- .... ....|--- .... ....|--- .... ....
..1F|.5|A-2 ...D ....|C-4 KC.F ....|--- ...B ....
....|..|--- .... ....|--- .... ....|--- .... ....
....|..|--- ...A ....|A-1 2F.D ....|--- ...8 ....
....|..|--- .... ....|--- .... ....|--- .... ....
..1F|.5|A-2 ...D ....|C-4 KC.F ....|--- ...B ....
....|..|--- .... ....|--- .... ....|--- .... ....
....|..|--- ...A ....|A-1 2F.D ....|--- ...8 ....
....|..|--- .... ....|--- .... ....|--- .... ....

[Pattern3]
..4D|..|F-5 3F28 ....|C-4 KC.F ....|F-2 3F.C ....
....|..|--- .... ....|--- .... ....|--- .... ....
....|..|--- ...A ....|F-1 2F.D ....|--- ...A ....
....|..|--- .... ....|--- .... ....|--- .... ....
..4D|..|--- ...8 ....|C-4 KC.F ....|--- ...C ....
....|..|--- .... ....|--- .... ....|--- .... ....
....|..|--- ...A ....|F-1 2F.D ....|--- ...A ....
....|..|--- .... ....|--- .... ....|--- .... ....
..4D|..|--- ...8 ....|C-4 KC.F ....|--- ...C ....
....|..|--- .... ....|--- .... ....|--- ...A ....
....|..|--- ...A ....|F-1 2F.D ....|--- ...C ....
....|..|--- .... ....|--- .... ....|--- ...A ....
..4D|..|--- ...8 ....|C-4 KC.F ....|--- ...C ....
....|..|--- .... ....|--- .... ....|--- .... ....
....|..|--- ...A ....|F-1 2F.D ....|--- ...A ....
....|..|--- .... ....|--- .... ....|--- .... ....
..45|..|G-2 .F.C ....|C-4 KC.F ....|G-5 ..38 ....
....|..|--- .... ....|--- .... ....|--- .... ....
....|..|--- ...A ....|G-1 2F.D ....|--- ...A ....
....|..|--- .... ....|--- .... ....|--- .... ....
..45|..|--- ...C ....|C-4 KC.F ....|--- ...8 ....
....|..|--- .... ....|--- .... ....|--- .... ....
....|..|--- ...A ....|G-1 2F.D ....|--- ...A ....
....|..|--- .... ....|--- .... ....|--- .... ....
..45|..|--- ...C ....|C-4 KC.F ....|--- ...8 ....
....|..|--- ...A ....|--- .... ....|--- .... ....
....|..|--- ...C ....|G-1 2F.D ....|--- ...A ....
....|..|--- ...A ....|--- .... ....|--- .... ....
..45|..|--- ...C ....|C-4 KC.F ....|--- ...8 ....
....|..|--- ...A ....|--- .... ....|--- .... ....
....|..|--- ...C ....|G-1 2F.D ....|--- ...A ....
....|..|--- ...A ....|--- .... ....|--- .... ....
..3D|.5|A-5 ..1B ....|C-4 KC.F ....|A-4 ..AB ....
....|..|--- .... ....|--- .... ....|--- .... ....
....|..|--- ...8 ....|A-1 2F.D ....|--- ...8 ....
....|..|--- .... ....|--- .... ....|--- .... ....
..3D|.5|--- ...B ....|C-4 KC.F ....|--- ...B ....
....|..|--- .... ....|--- .... ....|--- .... ....
....|..|--- ...8 ....|A-1 2F.D ....|--- ...8 ....
....|..|--- .... ....|--- .... ....|--- .... ....
..3D|..|--- .... ....|C-4 KC.F ....|--- .... ....
....|..|--- .... ....|--- .... ....|--- .... ....
..3D|.5|--- ...B ....|A-3 .C.D ....|--- ...B ....
....|..|--- .... ....|--- .... ....|--- .... ....
..3D|..|--- ...8 ....|A-3 2C.F ....|--- ...8 ....
....|..|--- .... ....|--- .... ....|--- .... ....
..3D|.5|--- ...B ....|C-4 KC.D ....|--- ...B ....
....|..|--- .... ....|--- .... ....|--- .... ....
..3D|.5|--- .... ....|C-4 .C.F ....|--- .... ....
....|..|--- .... ....|--- .... ....|--- .... ....
....|..|--- ...8 ....|A-1 2F.D ....|--- ...8 ....
....|..|--- .... ....|--- .... ....|--- .... ....
..3D|.5|--- ...B ....|C-4 KC.F ....|--- ...B ....
....|..|--- .... ....|--- .... ....|--- .... ....
....|..|--- ...8 ....|A-1 2F.D ....|--- ...8 ....
....|..|--- .... ....|--- .... ....|--- .... ....
..3D|.5|--- ...B ....|C-4 KC.F ....|--- ...B ....
....|..|--- .... ....|--- .... ....|--- .... ....
....|..|--- ...8 ....|A-1 2F.D ....|--- ...8 ....
....|..|--- .... ....|--- .... ....|--- .... ....
..3D|.5|--- ...B ....|C-4 KC.F ....|--- ...B ....
....|..|--- .... ....|--- .... ....|--- .... ....
....|..|--- ...8 ....|A-1 2F.D ....|--- ...8 ....
....|..|--- .... ....|--- .... ....|--- .... ....

[Pattern4]
..4D|..|F-5 3F28 ....|C-4 KC.F ....|F-2 3F.C ....
....|..|--- .... ....|--- .... ....|--- .... ....
....|..|--- ...A ....|F-1 2F.D ....|--- ...A ....
....|..|--- .... ....|--- .... ....|--- .... ....
..4D|..|--- ...8 ....|C-4 KC.F ....|--- ...C ....
....|..|--- .... ....|--- .... ....|--- .... ....
....|..|--- ...A ....|F-1 2F.D ....|--- ...A ....
....|..|--- .... ....|--- .... ....|--- .... ....
..4D|..|--- ...8 ....|C-4 KC.F ....|--- ...C ....
....|..|--- .... ....|--- .... ....|--- ...A ....
....|..|--- ...A ....|F-1 2F.D ....|--- ...C ....
....|..|--- .... ....|--- .... ....|--- ...A ....
..4D|..|--- ...8 ....|C-4 KC.F ....|--- ...C ....
....|..|--- .... ....|--- .... ....|--- .... ....
....|..|--- ...A ....|F-1 2F.D ....|--- ...A ....
....|..|--- .... ....|--- .... ....|--- .... ....
..45|..|G-2 .F.C ....|C-4 KC.F ....|G-5 ..38 ....
....|..|--- .... ....|--- .... ....|--- .... ....
....|..|--- ...A ....|G-1 2F.D ....|--- ...A ....
....|..|--- .... ....|--- .... ....|--- .... ....
..45|..|--- ...C ....|C-4 KC.F ....|--- ...8 ....
....|..|--- .... ....|--- .... ....|--- .... ....
....|..|--- ...A ....|G-1 2F.D ....|--- ...A ....
....|..|--- .... ....|--- .... ....|--- .... ....
..45|..|--- ...C ....|C-4 KC.F ....|--- ...8 ....
....|..|--- ...A ....|--- .... ....|--- .... ....
....|..|--- ...C ....|G-1 2F.D ....|--- ...A ....
....|..|--- ...A ....|--- .... ....|--- .... ....
..45|..|--- ...C ....|C-4 KC.F ....|--- ...8 ....
....|..|--- ...A ....|--- .... ....|--- .... ....
....|..|--- ...C ....|G-1 2F.D ....|--- ...A ....
....|..|--- ...A ....|--- .... ....|--- .... ....
..3D|..|A-5 ..1B ....|C-4 KC.F ....|A-4 ..AB ....
....|..|--- .... ....|--- .... ....|--- .... ....
....|..|--- ...8 ....|A-1 2F.D ....|--- ...8 ....
....|..|--- .... ....|--- .... ....|--- .... ....
..3D|..|--- ...B ....|C-4 KC.F ....|--- ...B ....
....|..|--- .... ....|--- .... ....|--- .... ....
....|..|--- ...8 ....|A-1 2F.D ....|--- ...8 ....
....|..|--- .... ....|--- .... ....|--- .... ....
..3D|..|--- .... ....|C-4 KC.F ....|--- .... ....
....|..|--- .... ....|--- .... ....|--- .... ....
..3D|..|--- ...B ....|A-3 .C.D ....|--- ...B ....
....|..|--- .... ....|--- .... ....|--- .... ....
..3D|..|--- ...8 ....|A-3 2C.F ....|--- ...8 ....
....|..|--- .... ....|--- .... ....|--- .... ....
..3D|..|--- ...B ....|C-4 KC.D ....|--- ...B ....
....|..|--- .... ....|--- .... ....|--- .... ....
..3D|..|--- .... ....|C-4 .C.F ....|--- .... ....
....|..|--- .... ....|--- .... ....|--- .... ....
....|..|--- ...8 ....|A-1 2F.D ....|--- ...8 ....
....|..|--- .... ....|--- .... ....|--- .... ....
..3D|..|--- ...B ....|C-4 KC.F ....|--- ...B ....
....|..|--- .... ....|--- .... ....|--- .... ....
....|..|--- ...8 ....|A-1 2F.D ....|--- ...8 ....
....|..|--- .... ....|--- .... ....|--- .... ....
..3D|..|--- ...B ....|C-4 KC.F ....|--- ...B ....
....|..|--- .... ....|--- .... ....|--- .... ....
....|..|--- ...8 ....|A-1 2F.D ....|--- ...8 ....
....|..|--- .... ....|--- .... ....|--- ...6 ....
..3D|..|C-1 IF.C ....|A-2 .A.E ....|C-5 UF.4 ....
....|..|--- .... ....|--- .... ....|--- .... ....
....|10|--- .... ....|--- .... ....|G-4 .... ....
....|..|--- .... ....|--- .... ....|--- .... ....

[Pattern5]
....|..|A-4 UF.4 ....|C-4 OF.F ....|--- .... ....
....|..|--- .... ....|--- .... ....|A-4 TF.4 ....
....|..|F-4 .... ....|C-4 ...C ....|--- .... ....
....|..|--- .... ....|--- .... ....|F-4 .... ....
....|..|C-5 .... ....|C-5 J..F ....|--- .... ....
....|..|--- .... ....|--- .... ....|C-5 .... ....
....|..|F-4 .... ....|C-4 O..C ....|--- .... ....
....|..|--- .... ....|--- .... ....|F-4 .... ....
....|..|A-4 ...5 ....|C-4 .... ....|--- .... ....
....|..|--- .... ....|--- .... ....|A-4 ...5 ....
....|..|F-4 .... ....|C-4 ...F ....|--- .... ....
....|..|--- .... ....|--- .... ....|F-4 .... ....
....|..|C-5 .... ....|C-5 J... ....|--- .... ....
....|..|--- .... ....|--- .... ....|C-5 .... ....
....|..|F-4 .... ....|C-4 O..C ....|--- .... ....
....|..|--- .... ....|--- .... ....|F-4 .... ....
....|..|B-4 ...6 ....|C-4 ...F ....|--- .... ....
....|..|--- .... ....|--- .... ....|B-4 ...6 ....
....|..|G-4 .... ....|C-4 ...C ....|--- .... ....
....|..|--- .... ....|--- .... ....|G-4 .... ....
....|..|D-5 .... ....|C-5 J..F ....|--- .... ....
....|..|--- .... ....|--- .... ....|D-5 .... ....
....|..|G-4 .... ....|C-4 O... ....|--- .... ....
....|..|--- .... ....|--- .... ....|G-4 .... ....
....|..|B-4 ...7 ....|C-4 ...C ....|--- .... ....
....|..|--- .... ....|--- .... ....|B-4 ...7 ....
....|..|G-4 .... ....|C-4 ...F ....|--- .... ....
....|..|--- .... ....|--- .... ....|G-4 .... ....
....|..|D-5 .... ....|C-5 J... ....|--- .... ....
....|..|--- .... ....|--- .... ....|D-5 .... ....
....|..|G-4 .... ....|C-4 O... ....|--- .... ....
....|..|--- .... ....|--- .... ....|G-4 .... ....
....|..|C-5 ...8 ....|C-4 .... ....|--- .... ....
....|..|--- .... ....|--- .... ....|C-5 ...8 ....
....|..|A-4 .... ....|C-4 ...C ....|--- .... ....
....|..|--- .... ....|--- .... ....|A-4 .... ....
....|..|E-5 .... ....|C-5 J..F ....|--- .... ....
....|..|--- .... ....|--- .... ....|E-5 .... ....
....|..|A-4 .... ....|C-4 O..C ....|--- .... ....
....|..|--- .... ....|--- .... ....|A-4 .... ....
....|..|C-5 ...9 ....|C-4 .... ....|--- .... ....
....|..|--- .... ....|--- .... ....|C-5 ...9 ....
....|..|A-4 .... ....|C-4 ...F ....|--- .... ....
....|..|--- .... ....|--- .... ....|A-4 .... ....
....|..|E-5 .... ....|C-5 J... ....|--- .... ....
....|..|--- .... ....|--- .... ....|E-5 .... ....
....|..|A-4 .... ....|C-4 O..C ....|--- .... ....
....|..|--- .... ....|--- .... ....|A-4 .... ....
....|..|F-5 ...A ....|C-4 ...F ....|--- .... ....
....|..|--- .... ....|--- .... ....|F-5 ...A ....
....|..|A-4 .... ....|C-4 ...C ....|--- .... ....
....|..|--- .... ....|--- .... ....|A-4 .... ....
....|..|E-5 .... ....|C-5 J..F ....|--- .... ....
....|..|--- .... ....|--- .... ....|E-5 .... ....
....|..|A-4 .... ....|C-4 O... ....|--- .... ....
....|..|--- .... ....|--- .... ....|A-4 .... ....
....|..|D-5 .... ....|C-4 .... ....|--- .... ....
....|..|--- .... ....|--- .... ....|D-5 .... ....
....|..|A-4 .... ....|C-4 G... ....|--- .... ....
....|..|--- .... ....|--- .... ....|A-4 .... ....
....|..|C-5 .... ....|C-5 J... ....|--- .... ....
....|..|--- .... ....|--- .... ....|C-5 .... ....
....|..|G-4 .... ....|C-4 G... ....|--- .... ....
....|..|--- .... ....|C-4 N... ....|G-4 .... ....

[Pattern6]
....|..|A-4 UF.B ....|C-4 GF.F ....|--- .... ....
....|..|--- .... ....|--- .... ....|A-4 TF.B ....
....|..|F-4 .... ....|C-4 O..C ....|--- .... ....
....|..|--- .... ....|--- .... ....|F-4 .... ....
....|..|C-5 .... ....|C-5 F..F ....|--- .... ....
....|..|--- .... ....|--- .... ....|C-5 .... ....
....|..|F-4 .... ....|C-4 J..C ....|--- .... ....
....|..|--- .... ....|--- .... ....|F-4 .... ....
....|..|A-4 .... ....|C-4 N... ....|--- .... ....
....|..|--- .... ....|--- .... ....|A-4 .... ....
....|..|F-4 .... ....|C-4 G..F ....|--- .... ....
....|..|--- .... ....|--- .... ....|F-4 .... ....
....|..|C-5 .... ....|C-5 F... ....|--- .... ....
....|..|--- .... ....|--- .... ....|C-5 .... ....
....|..|F-4 .... ....|C-4 O..C ....|--- .... ....
....|..|--- .... ....|C-4 .... ....|F-4 .... ....
....|..|B-4 .... ....|C-4 G..F ....|--- .... ....
....|..|--- .... ....|--- .... ....|B-4 .... ....
....|..|G-4 .... ....|C-4 N..C ....|--- .... ....
....|..|--- .... ....|--- .... ....|G-4 .... ....
....|..|D-5 .... ....|C-5 F..F ....|--- .... ....
....|..|--- .... ....|--- .... ....|D-5 .... ....
....|..|G-4 .... ....|C-4 J... ....|--- .... ....
....|..|--- .... ....|--- .... ....|G-4 .... ....
....|..|B-4 .... ....|C-4 N..C ....|--- .... ....
....|..|--- .... ....|--- .... ....|B-4 .... ....
....|..|G-4 .... ....|C-4 G..F ....|--- .... ....
....|..|--- .... ....|--- .... ....|G-4 .... ....
....|..|D-5 .... ....|C-5 F... ....|--- .... ....
....|..|--- .... ....|--- .... ....|D-5 .... ....
....|..|G-4 .... ....|C-4 N... ....|--- .... ....
....|..|--- .... ....|C-4 .... ....|G-4 .... ....
....|..|C-5 .... ....|C-4 G... ....|--- .... ....
....|..|--- .... ....|--- .... ....|C-5 .... ....
....|..|A-4 .... ....|C-4 O..C ....|--- .... ....
....|..|--- .... ....|--- .... ....|A-4 .... ....
....|..|E-5 .... ....|C-5 F..F ....|--- .... ....
....|..|--- .... ....|--- .... ....|E-5 .... ....
....|..|A-4 .... ....|C-4 J..C ....|--- .... ....
....|..|--- .... ....|--- .... ....|A-4 .... ....
....|..|C-5 .... ....|C-4 N... ....|--- .... ....
....|..|--- .... ....|--- .... ....|C-5 .... ....
....|..|A-4 .... ....|C-4 G..F ....|--- .... ....
....|..|--- .... ....|--- .... ....|A-4 .... ....
....|..|E-5 .... ....|C-5 F... ....|--- .... ....
....|..|--- .... ....|--- .... ....|E-5 .... ....
....|..|A-4 .... ....|C-4 O..C ....|--- .... ....
....|..|--- .... ....|C-4 .... ....|A-4 .... ....
....|..|F-5 .... ....|C-4 G..F ....|--- .... ....
....|..|--- .... ....|--- .... ....|F-5 .... ....
....|..|A-4 .... ....|C-4 .... ....|--- .... ....
....|..|--- .... ....|--- .... ....|A-4 .... ....
....|..|E-5 .... ....|C-5 F... ....|--- .... ....
....|..|--- .... ....|--- .... ....|E-5 .... ....
....|..|A-4 .... ....|C-4 J..C ....|--- .... ....
....|..|--- .... ....|--- .... ....|A-4 .... ....
....|..|D-5 .... ....|C-4 N... ....|--- .... ....
....|..|--- .... ....|--- .... ....|D-5 .... ....
....|..|A-4 .... ....|C-4 G..F ....|--- .... ....
....|..|--- .... ....|--- .... ....|A-4 .... ....
....|..|C-5 .... ....|C-5 F... ....|--- .... ....
....|..|--- .... ....|--- .... ....|C-5 .... ....
....|..|G-4 .... ....|C-4 O..C ....|--- .... ....
....|..|--- .... ....|C-4 .... ....|G-4 .... ....

[Pattern7]
..4D|..|A-4 5FEE ....|C-4 KC.F ....|--- .... ....
....|..|--- .... ....|--- .... ....|A-4 UF.C ....
..4D|.1|F-4 .... ....|F-2 2C.. ....|--- .... ....
....|.1|--- .... ....|--- .... ....|F-4 .... ....
..4D|.1|C-5 .... ....|C-4 KC.. ....|--- .... ....
....|.1|--- .... ....|--- .... ....|C-5 .... ....
..26|.2|F-4 .... ....|F-3 2A.. ....|--- .... ....
....|.2|--- .... ....|--- .... ....|F-4 .... ....
..4D|.2|A-4 .... ....|C-4 KC.. ....|A-5 ..4B ....
....|.2|--- .... ....|--- .... ....|A-4 .F.C ....
..4D|.3|F-4 .... ....|F-2 2C.. ....|F-5 ..4B ....
....|.3|--- .... ....|--- .... ....|F-4 .F.C ....
..4D|.3|C-5 .... ....|C-4 KC.. ....|C-6 ..4B ....
....|.3|--- .... ....|--- .... ....|C-5 .F.C ....
..26|.4|F-4 .... ....|F-2 2A.. ....|F-5 ..4B ....
....|.4|--- .... ....|--- .... ....|F-4 .F.C ....
..45|.4|B-4 .... ....|C-4 KC.. ....|--- .... ....
....|.5|--- .... ....|--- .... ....|B-4 .... ....
..45|.5|G-4 .... ....|G-3 2C.. ....|--- .... ....
....|.5|--- .... ....|--- .... ....|G-4 .... ....
..45|.6|D-5 .... ....|C-4 KC.. ....|--- .... ....
....|.6|--- .... ....|--- .... ....|D-5 .... ....
..22|.6|G-4 .... ....|G-2 2A.. ....|--- .... ....
....|.7|--- .... ....|--- .... ....|G-4 .... ....
..45|.7|B-4 .... ....|G-3 KC.. ....|B-5 ..4B ....
....|.7|--- .... ....|--- .... ....|B-4 .F.C ....
..45|.8|G-4 .... ....|G-3 2C.. ....|G-5 ..4B ....
....|.8|--- .... ....|--- .... ....|G-4 .F.C ....
..45|.8|D-5 .... ....|C-4 KC.. ....|D-6 ..4B ....
....|.9|--- .... ....|--- .... ....|D-5 .F.C ....
..22|.9|G-4 .... ....|G-2 2C.. ....|G-5 ..4B ....
....|.9|--- .... ....|--- .... ....|G-4 .F.C ....
..3D|.A|C-5 .... ....|C-4 KC.. ....|--- .... ....
....|.A|--- .... ....|--- .... ....|C-5 .... ....
..3D|.A|A-4 .... ....|A-3 2C.. ....|--- .... ....
....|.B|--- .... ....|--- .... ....|A-4 .... ....
..3D|.B|E-5 .... ....|C-4 KC.. ....|--- .... ....
....|.B|--- .... ....|--- .... ....|E-5 .... ....
..1F|.C|A-4 .... ....|A-3 2A.. ....|--- .... ....
....|.C|--- .... ....|--- .... ....|A-4 .... ....
..3D|.C|C-5 .... ....|C-4 KC.. ....|C-6 ..4B ....
....|.D|--- .... ....|--- .... ....|C-5 .F.C ....
..3D|.D|A-4 .... ....|A-2 2C.. ....|A-5 ..4B ....
....|.D|--- .... ....|--- .... ....|A-4 .F.C ....
..3D|.E|E-5 .... ....|C-4 KC.. ....|E-6 ..4B ....
....|.E|--- .... ....|--- .... ....|E-5 .F.C ....
..1F|.E|A-4 .... ....|A-2 2A.. ....|A-5 ..4B ....
....|.F|--- .... ....|--- .... ....|A-4 .F.C ....
..3D|.F|F-5 .... ....|C-4 KC.. ....|--- .... ....
....|.F|--- .... ....|--- .... ....|F-5 .... ....
..3D|.E|A-4 .... ....|A-2 2C.. ....|--- .... ....
....|.E|--- .... ....|--- .... ....|A-4 .... ....
..3D|.C|E-5 .... ....|C-4 KC.. ....|--- .... ....
....|.C|--- .... ....|--- .... ....|E-5 .... ....
..3D|.B|A-4 .... ....|A-2 2A.. ....|--- .... ....
....|.B|--- .... ....|--- .... ....|A-4 .... ....
..3D|.A|D-5 .... ....|C-4 KC.. ....|D-7 ..4B ....
....|.A|--- .... ....|--- .... ....|D-5 .F.C ....
..3D|10|A-4 .... ....|A-3 2C.. ....|A-6 ..4B ....
....|10|--- .... ....|--- .... ....|A-4 .F.C ....
..3D|16|C-5 .... ....|C-4 KC.. ....|C-7 ..4B ....
....|16|--- .... ....|--- .... ....|C-5 .F.C ....
..1F|1A|G-4 .... ....|A-2 2C.. ....|G-6 ..4B ....
....|1A|--- .... ....|--- .... ....|G-4 .F.C ....

[Pattern8]
..4D|..|A-4 UF4C ....|C-4 KA.F ....|--- .... ....
....|..|--- .... ....|--- .... ....|A-4 TF.A ....
..4D|..|A-4 .... ....|F-2 2C.. ....|--- .... ....
....|..|--- .... ....|--- .... ....|A-4 .... ....
..4D|..|A-4 .... ....|C-4 KA.. ....|--- .... ....
....|..|--- .... ....|--- .... ....|A-4 .... ....
..26|11|A-4 .... ....|F-1 2C.. ....|--- .... ....
....|..|--- .... ....|--- .... ....|A-4 .... ....
..4D|..|A-4 .... ....|C-4 KA.. ....|--- .... ....
....|..|--- .... ....|--- .... ....|A-4 .... ....
..4D|..|A-4 .... ....|F-2 2C.. ....|--- .... ....
....|..|--- .... ....|--- .... ....|A-4 .... ....
..4D|..|A-4 .... ....|C-4 KA.. ....|--- .... ....
....|..|--- .... ....|--- .... ....|A-4 .... ....
..26|11|G-4 .... ....|F-1 2C.. ....|--- .... ....
....|..|--- .... ....|--- .... ....|G-4 .... ....
..45|..|A-4 .... ....|C-4 KA.. ....|--- .... ....
....|..|--- .... ....|--- .... ....|A-4 .... ....
..45|..|A-4 .... ....|G-2 2C.. ....|--- .... ....
....|..|--- .... ....|--- .... ....|A-4 .... ....
..45|..|A-4 .... ....|C-4 KA.. ....|--- .... ....
....|..|--- .... ....|--- .... ....|A-4 .... ....
..22|11|A-4 .... ....|G-1 2C.. ....|--- .... ....
....|..|--- .... ....|--- .... ....|A-4 .... ....
..45|..|A-4 .... ....|G-3 KA.. ....|--- .... ....
....|..|--- .... ....|--- .... ....|A-4 .... ....
..45|..|A-4 .... ....|G-2 2C.. ....|--- .... ....
....|..|--- .... ....|--- .... ....|A-4 .... ....
..45|..|A-4 .... ....|C-4 SA.. ....|--- .... ....
....|..|--- .... ....|--- .... ....|A-4 .... ....
..22|11|F-4 .... ....|C-4 .C.. ....|--- .... ....
....|..|--- .... ....|C-4 .F.. ....|F-4 .... ....
..3D|..|E-4 .... ....|C-4 KC.. ....|--- .... ....
....|..|--- .... ....|A-5 3F1C ....|E-4 .... ....
..3D|..|A-4 .... ....|A-2 2A.F ....|--- .... ....
....|..|--- .... ....|A-5 3F1A ....|A-4 .... ....
..3D|.F|E-5 .... ....|C-4 SC.F ....|--- .... ....
....|..|--- .... ....|--- .... ....|E-5 .... ....
..1F|11|A-4 .... ....|A-3 2A.. ....|--- .... ....
....|..|--- .... ....|A-5 3F19 ....|A-4 .... ....
..3D|..|A-4 .... ....|A-2 2C.F ....|--- .... ....
....|..|--- .... ....|A-5 3F17 ....|A-4 .... ....
..3D|..|D-5 .... ....|C-4 KC.F ....|--- .... ....
....|..|--- .... ....|A-5 3F15 ....|D-5 .... ....
..3D|.F|C-5 .... ....|C-4 SC.F ....|--- .... ....
....|..|--- .... ....|--- .... ....|C-5 .... ....
..1F|11|G-4 .... ....|A-2 2A.. ....|--- .... ....
....|..|--- .... ....|--- .... ....|G-4 .... ....
..3D|..|F-5 .... ....|C-4 KC.. ....|--- .... ....
....|..|--- .... ....|--- .... ....|F-5 .... ....
..3D|..|A-4 .... ....|A-3 2C.. ....|--- .... ....
....|..|--- .... ....|--- .... ....|A-4 .... ....
..3D|.F|E-5 .... ....|C-4 KC.. ....|--- .... ....
....|..|--- .... ....|--- .... ....|E-5 .... ....
..3D|11|A-4 .... ....|C-4 SC.. ....|--- .... ....
....|..|--- .... ....|C-4 .F.A ....|A-4 .... ....
..3D|..|D-5 .... ....|C-4 .C.F ....|--- .... ....
....|..|--- .... ....|C-4 .F.A ....|D-5 .... ....
..3D|..|A-4 .... ....|C-4 .C.F ....|--- .... ....
....|..|--- .... ....|C-4 .F.A ....|A-4 .... ....
..7A|.F|C-5 .... ....|C-4 .A.F A1.6|--- .... ....
....|..|--- .... ....|--- .... ....|C-5 .... ....
....|.F|G-4 .... ....|--- .... ....|--- .... ....
....|..|--- .... ....|--- .... ....|G-4 .... ....

[Pattern9]
..4D|..|A-4 UF.B ....|C-4 KC.F ....|F-2 1F.C ....
....|..|--- .... ....|--- .... ....|A-4 T..B ....
..4D|..|F-4 .... ....|F-2 2C.. ....|F-2 1..C ....
....|..|--- .... ....|F-4 TF.B ....|--- .... ....
..4D|..|C-5 .... ....|C-4 SC.F ....|--- .... ....
....|..|--- .... ....|--- .... ....|C-5 T..B ....
..26|..|F-4 .... ....|F-3 2A.. ....|F-2 1..C ....
....|..|--- .... ....|--- .... ....|F-4 T..B ....
..4D|..|A-4 .... ....|C-4 .C.. ....|F-2 1..C ....
....|..|--- .... ....|A-4 TF.B ....|--- .... ....
..4D|..|F-4 .... ....|C-4 KC.F ....|--- .... ....
....|..|--- .... ....|--- .... ....|F-4 T..B ....
..4D|..|C-5 .... ....|C-4 SC.. ....|F-2 1..C ....
....|..|--- .... ....|--- .... ....|C-5 T..B ....
..26|..|F-4 .... ....|F-2 2A.. ....|F#2 1..C ....
....|..|--- .... ....|F-4 TF.B ....|--- .... ....
..45|..|B-4 .... ....|C-4 KC.F ....|G-2 .... ....
....|..|--- .... ....|B-4 TF.B ....|--- .... ....
..45|..|G-4 .... ....|G-2 2C.F ....|--- .... ....
....|..|--- .... ....|--- .... ....|G-4 T..B ....
..45|..|D-5 .... ....|C-4 SC.. ....|G-2 1..C ....
....|..|--- .... ....|D-5 TF.B ....|--- .... ....
..22|..|G-4 .... ....|G-2 2A.F ....|--- .... ....
....|..|--- .... ....|--- .... ....|G-4 T..B ....
..45|..|B-4 .... ....|G-3 .C.. ....|G-2 1..C ....
....|..|--- .... ....|--- .... ....|B-4 T..B ....
..45|..|G-4 .... ....|C-4 KC.. ....|G-2 1..C ....
....|..|--- .... ....|--- .... ....|G-4 T..B ....
..45|..|D-5 .... ....|C-4 SC.. ....|G-2 1..C ....
....|..|--- .... ....|--- .... ....|D-5 T..B ....
..22|..|G-4 .... ....|G-2 2C.. ....|G#2 1..C ....
....|..|--- .... ....|--- .... ....|--- .... ....
..3D|..|C-5 .... ....|C-4 KC.. ....|A-2 .... ....
....|..|--- .... ....|--- .... ....|C-5 T..B ....
..3D|..|A-4 .... ....|A-2 2A.. ....|A-2 1..C ....
....|..|--- .... ....|A-4 TF.B ....|--- .... ....
..3D|..|E-5 .... ....|C-4 SC.F ....|--- .... ....
....|..|--- .... ....|--- .... ....|E-5 T..B ....
..1F|..|A-4 .... ....|A-3 2A.. ....|A-2 1..C ....
....|..|--- .... ....|--- .... ....|A-4 T..B ....
..3D|..|C-5 .... ....|C-4 .C.. ....|A-2 1..C ....
....|..|--- .... ....|C-5 TF.B ....|--- .... ....
..3D|..|A-4 .... ....|C-4 KC.F ....|--- .... ....
....|..|--- .... ....|--- .... ....|A-4 T..B ....
..3D|..|E-5 .... ....|C-4 SC.. ....|A-2 1..C ....
....|..|--- .... ....|--- .... ....|E-5 T..B ....
..1F|..|A-4 .... ....|A-2 2A.. ....|A#2 1..C ....
....|..|--- .... ....|A-4 TF.B ....|--- .... ....
..3D|..|F-5 .... ....|C-4 KC.F ....|A-2 .... ....
....|..|--- .... ....|F-5 TF.B ....|--- .... ....
..3D|..|A-4 .... ....|A-2 2C.F ....|--- .... ....
....|..|--- .... ....|--- .... ....|A-4 T..B ....
..3D|..|E-5 .... ....|C-4 SC.. ....|A-2 1..C ....
....|..|--- .... ....|E-5 TF.B ....|--- .... ....
..3D|..|A-4 .... ....|A-4 2C.F ....|--- .... ....
....|..|--- .... ....|--- .... ....|A-4 T..B ....
..3D|..|D-5 .... ....|C-4 .C.. ....|A-2 1..C ....
....|..|--- .... ....|--- .... ....|D-5 T..B ....
..3D|..|A-4 .... ....|C-4 KC.. ....|A-2 1..C ....
....|..|--- .... ....|--- .... ....|A-4 T..B ....
..7A|..|C-5 .... ....|C-4 SC.. ....|A-2 1..C ....
....|..|--- .... ....|--- .... ....|C-5 T..B ....
..1F|..|G-4 .... ....|A-2 2C.. ....|G#2 1..C ....
....|..|--- .... ....|--- .... ....|--- .... ....

[Pattern10]
..4D|..|A-4 1F4C ....|C-4 KC.F ....|A-4 3FC6 ....
....|..|--- ..99 ....|--- .... ....|--- ...7 ....
..4D|..|A-4 ..4C ....|C-4 .C.. ....|--- ...8 ....
....|..|--- ..99 ....|--- .... ....|--- ...9 ....
..4D|.F|A-4 ..4C ....|C-4 SC.. ....|--- ...A ....
....|..|--- ..99 ....|--- .... ....|--- .... ....
..26|11|A-4 ..4C ....|F-3 2A.. ....|--- .... ....
....|..|--- ..99 ....|--- .... ....|--- .... ....
..4D|..|A-4 ..4C ....|C-4 KC.. ....|--- .... ....
....|..|--- ..99 ....|--- .... ....|--- .... ....
..4D|..|A-4 ..4C ....|F-2 2C.. ....|--- .... ....
....|..|--- ..99 ....|--- .... ....|--- .... ....
..4D|.F|A-4 ..4C ....|C-4 SC.. ....|--- .... ....
....|..|--- ..99 ....|--- .... ....|--- .... ....
..26|11|G-4 ..4C ....|F-2 2A.. ....|--- ...8 ....
....|..|--- ..99 ....|--- .... ....|--- ...7 ....
..45|..|A-4 3.B6 ....|C-4 KC.. ....|A-4 1.4C ....
....|..|--- ...7 ....|--- .... ....|--- ..99 ....
..45|..|--- ...8 ....|C-4 .C.. ....|A-4 ..4C ....
....|..|--- ...9 ....|--- .... ....|--- ..99 ....
..45|.F|--- ...A ....|C-4 SC.. ....|A-4 ..4C ....
....|..|--- .... ....|--- .... ....|--- ..99 ....
..22|11|--- .... ....|G-2 2A.. ....|A-4 ..4C ....
....|..|--- .... ....|--- .... ....|--- ..99 ....
..45|..|--- .... ....|G-3 .C.. ....|A-4 ..4C ....
....|..|--- .... ....|--- .... ....|--- ..99 ....
..45|..|--- .... ....|C-4 KC.. ....|A-4 ..4C ....
....|..|--- .... ....|--- .... ....|--- ..99 ....
..45|.F|--- .... ....|C-4 SC.. ....|A-4 ..4C ....
....|..|--- .... ....|--- .... ....|--- ..99 ....
..22|11|--- ...8 ....|G-3 2C.. ....|G-4 ..4C ....
....|..|--- ...7 ....|--- .... ....|--- ..99 ....
..3D|..|A-4 1.4C ....|C-4 KC.. ....|A-4 3.A6 ....
....|..|--- ..99 ....|--- .... ....|--- ...7 ....
..3D|..|A-4 ..4C ....|C-4 .A.. ....|--- ...8 ....
....|..|--- ..99 ....|--- .... ....|--- ...9 ....
..3D|.F|A-4 ..4C ....|C-4 SC.. ....|--- ...A ....
....|..|--- ..99 ....|--- .... ....|--- .... ....
..1F|11|A-4 ..4C ....|A-3 2A.. ....|--- .... ....
....|..|--- ..99 ....|--- .... ....|--- .... ....
..3D|..|A-4 ..4C ....|A-3 .A.. ....|--- .... ....
....|..|--- ..99 ....|--- .... ....|--- .... ....
..1F|..|A-4 ..4C ....|C-4 KA.. ....|--- .... ....
....|..|--- ..99 ....|--- .... ....|--- .... ....
..3D|.F|A-4 ..4C ....|C-4 SC.. ....|--- .... ....
....|..|--- ..99 ....|--- .... ....|--- .... ....
..1F|11|G-4 ..4C ....|A-2 2A.. ....|--- ...9 ....
....|..|--- ..99 ....|--- .... ....|--- ...8 ....
..3D|..|A-4 3.A6 ....|C-4 KC.. ....|A-4 1.4C ....
....|..|--- ...7 ....|--- .... ....|--- ..9A ....
..3D|..|--- ...8 ....|C-4 .C.. ....|A-4 ..4C ....
....|..|--- ...9 ....|--- .... ....|--- ..9A ....
..3D|.F|--- ...A ....|C-4 SC.. ....|A-4 ..4C ....
....|..|--- .... ....|--- .... ....|--- ..9A ....
..3D|11|--- .... ....|A-3 2C.. ....|G-4 ..4C ....
....|..|--- .... ....|--- .... ....|--- ..9A ....
..3D|..|--- .... ....|A-3 .A.. ....|A-4 ..4C ....
....|..|--- .... ....|--- .... ....|--- ..9A ....
..1F|..|--- .... ....|C-4 KA.. ....|A-4 ..4C ....
....|..|--- .... ....|--- .... ....|--- ..9A ....
..7A|.F|--- .... ....|C-4 SC.. ....|G-4 ..4C ....
....|..|--- .... ....|--- .... ....|--- ..9A ....
..1F|11|--- ...8 ....|C-4 .C.. ....|C-5 3.4C ....
....|..|--- ...7 ....|--- .... ....|--- ..9A ....

[Pattern11]
..4D|..|A-4 UF.B ....|C-4 KC.F ....|F-2 1F.C ....
....|..|--- .... ....|--- .... ....|A-4 T..B ....
..4D|..|F-4 .... ....|F-2 2C.. ....|F-2 1..C ....
....|..|--- .... ....|F-4 TF.B ....|--- .... ....
..4D|..|C-5 .... ....|C-4 SC.F ....|--- .... ....
....|..|--- .... ....|--- .... ....|C-5 T..B ....
..26|..|F-4 .... ....|F-3 2A.. ....|F-2 1..C ....
....|..|--- .... ....|--- .... ....|F-4 T..B ....
..4D|..|A-4 .... ....|C-4 .C.. ....|F-2 1..C ....
....|..|--- .... ....|A-4 TF.B ....|--- .... ....
..4D|..|F-4 .... ....|C-4 KC.F ....|--- .... ....
....|..|--- .... ....|--- .... ....|F-4 T..B ....
..4D|..|C-5 .... ....|C-4 SC.. ....|F-2 1..C ....
....|..|--- .... ....|--- .... ....|C-5 T..B ....
..26|..|F-4 .... ....|F-2 2A.. ....|F#2 1..C ....
....|..|--- .... ....|F-4 TF.B ....|--- .... ....
..45|..|B-4 .... ....|C-4 KC.F ....|G-2 .... ....
....|..|--- .... ....|B-4 TF.B ....|--- .... ....
..45|..|G-4 .... ....|G-2 2C.F ....|--- .... ....
....|..|--- .... ....|--- .... ....|G-4 T..B ....
..45|..|D-5 .... ....|C-4 SC.. ....|G-2 1..C ....
....|..|--- .... ....|D-5 TF.B ....|--- .... ....
..22|..|G-4 .... ....|G-2 2A.F ....|--- .... ....
....|..|--- .... ....|--- .... ....|G-4 T..B ....
..45|..|B-4 .... ....|G-3 .C.. ....|G-2 1..C ....
....|..|--- .... ....|--- .... ....|B-4 T..B ....
..45|..|G-4 .... ....|C-4 KC.. ....|G-2 1..C ....
....|..|--- .... ....|--- .... ....|G-4 T..B ....
..45|..|D-5 .... ....|C-4 SC.. ....|G-2 1..C ....
....|..|--- .... ....|--- .... ....|D-5 T..B ....
..22|..|G-4 .... ....|G-2 2C.. ....|G#2 1..C ....
....|..|--- .... ....|--- .... ....|--- .... ....
..3D|..|C-5 .... ....|C-4 KC.. ....|A-2 .... ....
....|..|--- .... ....|--- .... ....|C-5 T..B ....
..3D|..|A-4 .... ....|A-2 2A.. ....|A-2 1..C ....
....|..|--- .... ....|A-4 TF.B ....|--- .... ....
..3D|..|E-5 .... ....|C-4 SC.F ....|--- .... ....
....|..|--- .... ....|--- .... ....|E-5 T..B ....
..1F|..|A-4 .... ....|A-3 2A.. ....|A-2 1..C ....
....|..|--- .... ....|--- .... ....|A-4 T..B ....
..3D|..|C-5 .... ....|C-4 .C.. ....|A-2 1..C ....
....|..|--- .... ....|C-5 TF.B ....|--- .... ....
..3D|..|A-4 .... ....|C-4 KC.F ....|--- .... ....
....|..|--- .... ....|--- .... ....|A-4 T..B ....
..3D|..|E-5 .... ....|C-4 SC.. ....|A-2 1..C ....
....|..|--- .... ....|--- .... ....|E-5 T..B ....
..1F|..|A-4 .... ....|A-2 2A.. ....|A#2 1..C ....
....|..|--- .... ....|A-4 TF.B ....|--- .... ....
..3D|..|F-5 .... ....|C-4 KC.F ....|A-2 .... ....
....|..|--- .... ....|F-5 TF.B ....|--- .... ....
..3D|..|A-4 .... ....|A-2 KC.F ....|--- .... ....
....|..|--- .... ....|--- .... ....|A-4 T..B ....
..3D|.F|E-5 .... ....|C-4 SC.. ....|A-2 1..C ....
....|.F|--- .... ....|E-5 TF.B ....|--- .... ....
..3D|.F|A-4 .... ....|A-4 KC.F ....|--- .... ....
....|.F|--- .... ....|--- .... ....|A-4 T..B ....
..3D|14|D-5 .... ....|C-4 .C.. ....|A-2 1..C ....
....|14|--- .... ....|--- .... ....|D-5 T..B ....
..3D|14|A-4 .... ....|C-4 .C.. ....|A-2 1..C ....
....|14|--- .... ....|--- .... ....|A-4 T..B ....
..7A|.A|C-5 .... ....|C-4 SC.. ....|A-2 1..C ....
....|.A|--- .... ....|C-4 KF.. ....|C-5 T..B ....
..1F|.A|G-4 .... ....|A-2 .C.. ....|G#2 1..C ....
....|.A|--- .... ....|C-4 .F.. ....|--- .... ....

[Pattern12]
..4D|1A|A-4 5FEE ....|C-4 KC.F ....|--- .... ....
....|1A|--- .... ....|--- .... ....|A-4 UF.C ....
..4D|11|F-4 .... ....|F-2 2C.. ....|--- .... ....
....|11|--- .... ....|--- .... ....|F-4 .... ....
..4D|.F|C-5 .... ....|C-4 KC.. ....|--- .... ....
....|.F|--- .... ....|--- .... ....|C-5 .... ....
..26|.F|F-4 .... ....|F-3 2A.. ....|--- .... ....
....|.F|--- .... ....|--- .... ....|F-4 .... ....
..4D|.F|A-4 .... ....|C-4 KC.. ....|A-5 ..4B ....
....|.E|--- .... ....|--- .... ....|A-4 .F.C ....
..4D|.E|F-4 .... ....|F-2 2C.. ....|F-5 ..4B ....
....|.E|--- .... ....|--- .... ....|F-4 .F.C ....
..4D|.E|C-5 .... ....|C-4 KC.. ....|C-6 ..4B ....
....|.D|--- .... ....|--- .... ....|C-5 .F.C ....
..26|.D|F-4 .... ....|F-2 2A.. ....|F-5 ..4B ....
....|.D|--- .... ....|--- .... ....|F-4 .F.C ....
..45|.D|B-4 .... ....|C-4 KC.. ....|--- .... ....
....|.C|--- .... ....|--- .... ....|B-4 .... ....
..45|.C|G-4 .... ....|G-3 2C.. ....|--- .... ....
....|.C|--- .... ....|--- .... ....|G-4 .... ....
..45|.C|D-5 .... ....|C-4 KC.. ....|--- .... ....
....|.B|--- .... ....|--- .... ....|D-5 .... ....
..22|.B|G-4 .... ....|G-2 2A.. ....|--- .... ....
....|.B|--- .... ....|--- .... ....|G-4 .... ....
..45|.B|B-4 .... ....|G-3 KC.. ....|B-5 ..4B ....
....|.A|--- .... ....|--- .... ....|B-4 .F.C ....
..45|.A|G-4 .... ....|G-3 2C.. ....|G-5 ..4B ....
....|.A|--- .... ....|--- .... ....|G-4 .F.C ....
..45|.A|D-5 .... ....|C-4 KC.. ....|D-6 ..4B ....
....|.9|--- .... ....|--- .... ....|D-5 .F.C ....
..22|.9|G-4 .... ....|G-2 2C.. ....|G-5 ..4B ....
....|.9|--- .... ....|--- .... ....|G-4 .F.C ....
..3D|.9|C-5 .... ....|C-4 KC.. ....|--- .... ....
....|.8|--- .... ....|--- .... ....|C-5 .... ....
..3D|.8|A-4 .... ....|A-3 2C.. ....|--- .... ....
....|.8|--- .... ....|--- .... ....|A-4 .... ....
..3D|.8|E-5 .... ....|C-4 KC.. ....|--- .... ....
....|.7|--- .... ....|--- .... ....|E-5 .... ....
..1F|.7|A-4 .... ....|A-3 2A.. ....|--- .... ....
....|.7|--- .... ....|--- .... ....|A-4 .... ....
..3D|.7|C-5 .... ....|C-4 KC.. ....|C-6 ..4B ....
....|.6|--- .... ....|--- .... ....|C-5 .F.C ....
..3D|.6|A-4 .... ....|A-2 2C.. ....|A-5 ..4B ....
....|.6|--- .... ....|--- .... ....|A-4 .F.C ....
..3D|.6|E-5 .... ....|C-4 KC.. ....|E-6 ..4B ....
....|.5|--- .... ....|--- .... ....|E-5 .F.C ....
..1F|.5|A-4 .... ....|A-2 2A.. ....|A-5 ..4B ....
....|.5|--- .... ....|--- .... ....|A-4 .F.C ....
..3D|.5|F-5 .... ....|C-4 KC.. ....|--- .... ....
....|.4|--- .... ....|--- .... ....|F-5 .... ....
..3D|.4|A-4 .... ....|A-2 2C.. ....|--- .... ....
....|.4|--- .... ....|--- .... ....|A-4 .... ....
..3D|.4|E-5 .... ....|C-4 KC.. ....|--- .... ....
....|.3|--- .... ....|--- .... ....|E-5 .... ....
..3D|.3|A-4 .... ....|A-2 2A.. ....|--- .... ....
....|.3|--- .... ....|--- .... ....|A-4 .... ....
..3D|.3|D-5 .... ....|C-4 KC.. ....|--- .... ....
....|.2|--- .... ....|--- .... ....|D-5 .... ....
..3D|.2|A-4 .... ....|A-3 2C.. ....|--- .... ....
....|.2|--- .... ....|--- .... ....|A-4 .... ....
..3D|.2|C-5 .... ....|C-4 KC.. ....|--- .... ....
....|.1|--- .... ....|C-4 .F.. ....|C-5 .... ....
..1F|.1|G-4 .... ....|C-4 .C.. ....|--- .... ....
....|..|--- .... ....|--- .... ....|G-4 .... ....

[Pattern13]
..4D|..|C-4 KC.F ....|F-2 2F.C ....|A-4 AFCF ....
....|..|--- .... ....|--- ...E ....|--- .... ....
..4D|..|F-2 2C.. ....|F-1 ...C ....|A-4 B... ....
....|..|--- .... ....|--- ...E ....|--- .... ....
..4D|..|C-4 NC.. ....|F-2 ...C ....|A-4 C... ....
....|.F|--- .... ....|--- ...E ....|--- .... ....
..26|..|F-3 2C.. ....|F-1 ...C ....|A-4 B... ....
....|..|--- .... ....|--- ...E ....|A-4 .... ....
..4D|..|F-3 .C.. ....|F-2 ...C ....|A-4 .... ....
....|..|--- .... ....|--- ...E ....|--- .... ....
..4D|..|C-4 KC.. ....|F-1 ...C ....|A-4 A... ....
....|..|--- .... ....|--- ...E ....|--- .... ....
..4D|..|C-4 NC.. ....|F-2 ...C ....|A-4 C... ....
....|.F|--- .... ....|--- ...E ....|--- .... ....
..26|..|F-3 2C.. ....|F#2 ...C ....|A-4 B.A. ....
....|..|--- .... ....|--- ...E ....|--- .... ....
..45|..|C-4 KC.. ....|G-2 ...C ....|A-4 A.B. ....
....|..|--- .... ....|--- ...E ....|--- .... ....
..45|..|G-2 2C.. ....|G-1 ...C ....|A-4 B... ....
....|..|--- .... ....|--- ...E ....|--- .... ....
..45|..|C-4 NC.. ....|G-2 ...C ....|A-4 C... ....
....|.F|--- .... ....|--- ...E ....|--- .... ....
..22|..|G-2 2C.. ....|G-1 ...C ....|A-4 B... ....
....|..|--- .... ....|--- ...E ....|A-4 .... ....
..45|..|G-3 .C.. ....|G-2 ...C ....|A-4 .... ....
....|..|--- .... ....|--- ...E ....|--- .... ....
..45|..|C-4 KC.. ....|G-1 ...C ....|A-4 A... ....
....|..|--- .... ....|--- ...E ....|--- .... ....
..45|..|C-4 NC.. ....|G-2 ...C ....|A-4 C... ....
....|.F|--- .... ....|--- ...E ....|--- .... ....
..22|..|G-3 KC.. ....|G#2 ...C ....|A-4 A.C. ....
....|..|--- .... ....|--- ...E ....|--- .... ....
..1F|..|C-4 .C.. ....|A-3 ...C ....|A-4 ..A. ....
....|..|--- .... ....|--- ...E ....|--- .... ....
..3D|..|A-2 2C.. ....|A-1 ...C ....|A-4 .... ....
....|..|--- .... ....|--- ...E ....|--- .... ....
..3D|..|C-4 NC.. ....|A-2 ...C ....|A-4 C... ....
....|.F|--- .... ....|--- ...E ....|--- .... ....
..1F|..|A-2 2C.. ....|A-1 ...C ....|A-4 B... ....
....|..|--- .... ....|--- ...E ....|A-4 .... ....
..3D|..|A-2 .A.. ....|A-1 ...C ....|A-4 .... ....
....|..|--- .... ....|--- ...E ....|--- .... ....
..1F|..|C-4 KC.. ....|A-3 ...C ....|A-4 A... ....
....|..|--- .... ....|--- ...E ....|--- .... ....
..3D|..|C-4 NC.. ....|A-2 ...C ....|A-4 C... ....
....|.F|--- .... ....|--- ...E ....|--- .... ....
..1F|..|A-2 2C.. ....|A#2 ...C ....|A-4 B... ....
....|..|--- .... ....|--- ...E ....|--- .... ....
..1F|..|C-4 KC.. ....|A-3 ...C ....|A-4 A... ....
....|..|--- .... ....|--- ...E ....|--- .... ....
..3D|..|A-2 2C.. ....|A-2 ...C ....|A-4 B... ....
....|..|--- .... ....|--- ...E ....|--- .... ....
..3D|..|C-4 NC.. ....|A-2 ...C ....|A-4 C... ....
....|.F|--- .... ....|--- ...E ....|--- .... ....
..3D|..|A-3 2C.. ....|A-2 ...C ....|A-4 B... ....
....|..|--- .... ....|--- ...E ....|A-4 .... ....
..1F|..|C-4 KC.. ....|A-3 ...C ....|A-4 A... ....
....|..|--- .... ....|--- ...A ....|--- .... ....
..1F|..|C-4 .C.. ....|A-3 ...C ....|A-4 .... ....
....|..|--- .... ....|--- ...E ....|--- .... ....
..7A|..|C-4 NC.. ....|A-2 ...C ....|A-4 C... ....
....|.F|--- .... ....|--- ...E ....|--- .... ....
..1F|..|A-2 2C.. ....|G#2 ...C ....|A-4 B.B. ....
....|..|--- .... ....|--- ...E ....|--- .... ....

[Pattern14]
..4D|..|A-4 1F4C ....|C-4 KC.F ....|A-4 3FC6 ....
....|..|--- ..99 ....|--- .... ....|--- ...7 ....
..4D|..|A-4 ..4C ....|C-4 .C.. ....|--- ...8 ....
....|..|--- ..99 ....|--- .... ....|--- ...9 ....
..4D|.F|A-4 ..4C ....|C-4 SC.. ....|--- ...A ....
....|..|--- ..99 ....|--- .... ....|--- .... ....
..26|11|A-4 ..4C ....|F-3 2A.. ....|--- .... ....
....|..|--- ..99 ....|--- .... ....|--- .... ....
..4D|..|A-4 ..4C ....|C-4 KC.. ....|--- .... ....
....|..|--- ..99 ....|--- .... ....|--- .... ....
..4D|..|A-4 ..4C ....|F-2 2C.. ....|--- .... ....
....|..|--- ..99 ....|--- .... ....|--- .... ....
..4D|.F|A-4 ..4C ....|C-4 SC.. ....|--- .... ....
....|..|--- ..99 ....|--- .... ....|--- .... ....
..26|11|G-4 ..4C ....|F-2 2A.. ....|--- ...8 ....
....|..|--- ..99 ....|--- .... ....|--- ...7 ....
..45|..|A-4 3.B6 ....|C-4 KC.. ....|A-4 1.4C ....
....|..|--- ...7 ....|--- .... ....|--- ..99 ....
..45|..|--- ...8 ....|C-4 .C.. ....|A-4 ..4C ....
....|..|--- ...9 ....|--- .... ....|--- ..99 ....
..45|.F|--- ...A ....|C-4 SC.. ....|A-4 ..4C ....
....|..|--- .... ....|--- .... ....|--- ..99 ....
..22|11|--- .... ....|G-2 2A.. ....|A-4 ..4C ....
....|..|--- .... ....|--- .... ....|--- ..99 ....
..45|..|--- .... ....|G-3 .C.. ....|A-4 ..4C ....
....|..|--- .... ....|--- .... ....|--- ..99 ....
..45|..|--- .... ....|C-4 KC.. ....|A-4 ..4C ....
....|..|--- .... ....|--- .... ....|--- ..99 ....
..45|.F|--- .... ....|C-4 SC.. ....|G-4 ..4C ....
....|..|--- .... ....|C-4 .F.. ....|--- ..99 ....
..22|11|--- ...8 ....|C-4 .C.. ....|C-5 ..4C ....
....|..|--- ...7 ....|--- .... ....|--- ..99 ....
..3D|..|A-4 1.4C ....|C-4 KC.. ....|A-4 3.A6 ....
....|..|--- ..99 ....|--- .... ....|--- ...7 ....
..3D|..|A-4 ..4C ....|A-2 2A.. ....|--- ...8 ....
....|..|--- ..99 ....|--- .... ....|--- ...9 ....
..3D|..|A-4 ..4C ....|C-4 KC.. ....|--- ...A ....
....|..|--- ..99 ....|--- .... ....|--- .... ....
..1F|..|A-4 ..4C ....|A-3 2A.. ....|--- .... ....
....|..|--- ..99 ....|--- .... ....|--- .... ....
..3D|..|A-4 ..4C ....|C-4 KC.. ....|--- .... ....
....|..|--- ..99 ....|--- .... ....|--- .... ....
..3D|..|A-4 ..4C ....|A-2 2C.. ....|--- .... ....
....|..|--- ..99 ....|--- .... ....|--- .... ....
..3D|..|A-4 ..4C ....|C-4 KC.. ....|--- .... ....
....|..|--- ..99 ....|--- .... ....|--- .... ....
..1F|..|G-4 ..4C ....|A-2 2A.. ....|--- .... ....
....|..|--- ..99 ....|--- .... ....|--- .... ....
..3D|..|A-4 ..4C ....|C-4 KC.. ....|--- .... ....
....|..|--- ..9A ....|--- .... ....|--- ...9 ....
..3D|..|A-4 ..4C ....|A-2 2A.. ....|--- ...8 ....
....|..|--- ..9A ....|--- .... ....|--- ...7 ....
..3D|..|A-4 ..4C ....|C-4 KC.. ....|--- ...6 ....
....|..|--- ..9A ....|--- .... ....|--- ...5 ....
..3D|..|G-4 ..4C ....|A-4 2C.. ....|--- ...4 ....
....|..|--- ..9A ....|--- .... ....|--- ...3 ....
..3D|..|A-4 ..4C ....|C-4 KA.. ....|--- ...2 ....
....|..|--- ..9A ....|--- .... ....|--- ...1 ....
..3D|..|A-4 ..4C ....|A-2 2A.. ....|--- .... ....
....|..|--- ..9A ....|--- .... ....|--- .... ....
..7A|..|A-4 ..4C ....|C-4 KC.. ....|--- .... ....
....|..|--- ..9A ....|--- .... ....|A-4 UF.A ....
..1F|..|G-4 ..4C ....|A-3 2C.. ....|--- .... ....
....|..|--- ..9A ....|--- .... ....|G-4 .... ....

[Pattern15]
..4D|..|F-2 3F.C ....|C-4 KC.F ....|F-5 3F28 ....
....|..|--- .... ....|--- .... ....|--- .... ....
....|..|--- ...A ....|F-1 2F.D ....|--- ...A ....
....|..|--- .... ....|--- .... ....|--- .... ....
..4D|..|--- ...C ....|C-4 KC.F ....|--- ...8 ....
....|..|--- .... ....|--- .... ....|--- .... ....
....|..|--- ...A ....|F-1 2F.D ....|--- ...A ....
....|..|--- .... ....|--- .... ....|--- .... ....
..4D|..|--- ...C ....|C-4 KC.F ....|--- ...8 ....
....|..|--- .... ....|--- .... ....|--- .... ....
....|..|--- ...A ....|F-1 2F.D ....|--- ...A ....
....|..|--- .... ....|--- .... ....|--- .... ....
..4D|..|--- ...C ....|C-4 KC.F ....|--- ...8 ....
....|..|--- .... ....|--- .... ....|--- .... ....
....|..|--- ...A ....|F-1 2F.D ....|--- ...A ....
....|..|--- .... ....|--- .... ....|--- .... ....
..45|..|G-5 ..38 ....|C-4 KC.F ....|G-2 .F.C ....
....|..|--- .... ....|--- .... ....|--- .... ....
....|..|--- ...A ....|G-1 2F.D ....|--- ...A ....
....|..|--- .... ....|--- .... ....|--- .... ....
..45|..|--- ...8 ....|C-4 KC.F ....|--- ...C ....
....|..|--- .... ....|--- .... ....|--- .... ....
....|..|--- ...A ....|G-1 2F.D ....|--- ...A ....
....|..|--- .... ....|--- .... ....|--- .... ....
..45|..|--- ...8 ....|C-4 KC.F ....|--- ...C ....
....|..|--- .... ....|--- .... ....|--- .... ....
....|..|--- ...A ....|G-1 2F.D ....|--- ...A ....
....|..|--- .... ....|--- .... ....|--- .... ....
..45|..|--- ...8 ....|C-4 KC.F ....|--- ...C ....
....|..|--- .... ....|--- .... ....|--- .... ....
....|..|--- ...A ....|G-1 2F.D ....|--- ...A ....
....|..|--- .... ....|--- .... ....|--- .... ....
..1F|.5|A-3 2F.D ....|C-4 KC.F ....|A-5 ..1B ....
....|..|--- .... ....|--- .... ....|--- .... ....
....|..|A-2 ...A ....|A-1 2F.D ....|--- ...8 ....
....|..|--- .... ....|--- .... ....|--- .... ....
..1F|.5|A-3 ...D ....|C-4 KC.F ....|--- ...B ....
....|..|--- .... ....|--- .... ....|--- .... ....
....|..|A-2 ...A ....|A-1 2F.D ....|--- ...8 ....
....|..|--- .... ....|--- .... ....|--- .... ....
..3D|..|A-2 .... ....|C-4 KC.F ....|--- .... ....
....|..|--- .... ....|--- .... ....|--- .... ....
..1F|.5|A-3 ...D ....|A-3 .C.D ....|--- ...B ....
....|..|--- .... ....|--- .... ....|--- .... ....
..3D|..|A-2 ...A ....|A-3 2C.F ....|--- ...8 ....
....|..|--- .... ....|--- .... ....|--- .... ....
..1F|.5|A-3 ...D ....|C-4 KC.D ....|--- ...B ....
....|..|--- .... ....|--- .... ....|--- .... ....
..1F|.5|A-3 .... ....|C-4 .C.F ....|--- .... ....
....|..|--- .... ....|--- .... ....|--- .... ....
....|..|A-2 ...A ....|A-1 2F.D ....|--- ...8 ....
....|..|--- .... ....|--- .... ....|--- .... ....
..1F|.5|A-3 ...D ....|C-4 KC.F ....|--- ...B ....
....|..|--- .... ....|--- .... ....|--- .... ....
....|..|A-2 ...A ....|A-1 2F.D ....|--- ...8 ....
....|..|--- .... ....|--- .... ....|--- .... ....
..1F|.5|A-3 ...D ....|C-4 KC.F ....|--- ...B ....
....|..|--- .... ....|--- .... ....|--- .... ....
....|..|A-2 ...A ....|A-1 2F.D ....|--- ...8 ....
....|..|--- .... ....|--- .... ....|--- .... ....
..1F|.5|A-3 ...D ....|C-4 KC.F ....|--- ...B ....
....|..|--- .... ....|--- .... ....|--- .... ....
....|..|A-2 ...A ....|A-1 2F.D ....|--- ...8 ....
....|..|--- .... ....|--- .... ....|--- .... ....

[Pattern16]
..9A|..|A-4 UFEE ....|C-4 KC.F ....|F-4 3F25 ....
....|..|--- .... ....|--- .... ....|--- ...6 ....
..4D|..|F-4 .... ....|F-2 2A.. ....|--- ...7 ....
....|..|--- .... ....|--- .... ....|--- ...8 ....
..9A|..|C-5 .... ....|C-4 KC.. ....|--- ...9 ....
....|..|--- .... ....|--- .... ....|--- .... ....
..26|..|F-4 .... ....|F-2 2A.. ....|--- ...A ....
....|..|--- .... ....|--- .... ....|--- .... ....
..9A|..|A-4 ..D. ....|C-4 KC.. ....|--- ...B ....
....|..|--- .... ....|--- .... ....|--- ...A ....
..26|..|F-4 .... ....|C-4 .A.. ....|--- ...B ....
....|..|--- .... ....|--- .... ....|--- ...A ....
..9A|..|C-5 .... ....|C-4 SC.. ....|--- ...B ....
....|..|--- .... ....|--- .... ....|--- ...A ....
..26|..|F-4 .... ....|F-3 2A.. ....|--- ...B ....
....|..|--- .... ....|--- .... ....|--- ...A ....
..89|..|G-4 3.35 ....|C-4 KC.. ....|B-4 U.EE ....
....|..|--- ...6 ....|--- .... ....|--- .... ....
..45|..|--- ...7 ....|G-2 2C.. ....|G-4 .... ....
....|..|--- ...8 ....|--- .... ....|--- .... ....
..89|..|--- ...9 ....|C-4 KC.. ....|D-5 .... ....
....|..|--- .... ....|--- .... ....|--- .... ....
..22|..|--- ...A ....|G-2 2C.. ....|G-4 .... ....
....|..|--- .... ....|--- .... ....|--- .... ....
..89|..|--- ...B ....|C-4 KC.. ....|B-4 ..D. ....
....|..|--- ...A ....|--- .... ....|--- .... ....
..26|..|--- ...B ....|C-4 .C.. ....|G-4 .... ....
....|..|--- ...A ....|--- .... ....|--- .... ....
..89|..|--- ...B ....|C-4 SC.. ....|D-5 .... ....
....|..|--- ...A ....|--- .... ....|--- .... ....
..22|..|--- ...B ....|C-4 KC.. ....|G-4 .... ....
....|..|--- ...A ....|--- .... ....|--- .... ....
..7A|..|C-5 U.EE ....|C-4 .C.. ....|A-4 3.15 ....
....|..|--- .... ....|--- .... ....|--- ...6 ....
..3D|..|A-4 .... ....|A-2 2C.. ....|--- ...7 ....
....|..|--- .... ....|--- .... ....|--- ...8 ....
..7A|..|E-5 .... ....|C-4 KC.. ....|--- ...9 ....
....|..|--- .... ....|--- .... ....|--- .... ....
..1F|..|A-4 .... ....|A-3 2C.. ....|--- ...A ....
....|..|--- .... ....|--- .... ....|--- .... ....
..7A|..|C-5 ..D. ....|C-4 KC.. ....|--- .... ....
....|..|--- .... ....|--- .... ....|--- .... ....
..3D|..|A-4 .... ....|C-4 .C.. ....|--- .... ....
....|..|--- .... ....|--- .... ....|--- .... ....
..7A|.F|E-5 .... ....|C-4 SC.. ....|--- .... ....
....|..|--- .... ....|--- .... ....|--- .... ....
..1F|..|A-4 .... ....|A-2 2A.. ....|--- .... ....
....|..|--- .... ....|--- .... ....|--- .... ....
..7A|..|A-4 3.1A ....|C-4 KC.. ....|F-5 U.EE ....
....|..|--- ...9 ....|--- .... ....|--- .... ....
..3D|..|--- ...8 ....|A-2 2C.. ....|A-4 .... ....
....|..|--- ...9 ....|--- .... ....|--- .... ....
..7A|..|--- ...A ....|C-4 KC.. ....|E-5 .... ....
....|..|--- ...9 ....|--- .... ....|--- .... ....
..1F|..|--- ...8 ....|A-4 2A.. ....|A-4 .... ....
....|..|--- ...9 ....|--- .... ....|--- .... ....
..7A|..|--- ...A ....|C-4 KC.. ....|D-5 .... ....
....|..|--- ...9 ....|--- .... ....|--- .... ....
..1F|..|--- ...8 ....|C-4 .C.. ....|A-4 .... ....
....|..|--- ...9 ....|--- .... ....|--- .... ....
..7A|.F|--- ...A ....|C-4 SC.. ....|C-5 ..D. ....
....|..|--- ...9 ....|--- .... ....|--- .... ....
..1F|..|--- ...8 ....|C-4 KA.. ....|G-4 .... ....
....|..|--- ...9 ....|--- .... ....|--- .... ....

[Pattern17]
..9A|..|C-4 KC.F ....|A-5 2FCA ....|A-4 AFCF ....
....|..|--- .... ....|F-2 3F.D ....|--- .... ....
..4D|..|F-2 2C.. ....|A-5 2.CA ....|A-4 B... ....
....|..|--- .... ....|F-2 3F.D ....|--- .... ....
..9A|..|C-4 NC.. ....|A-5 2.CA ....|A-4 C... ....
....|.F|--- .... ....|F-2 3F.D ....|--- .... ....
..26|..|F-3 2C.. ....|A-5 2.CA ....|A-4 B... ....
....|..|--- .... ....|F-2 3F.D ....|A-4 .... ....
..9A|..|C-4 KC.. ....|A-5 2.CA ....|A-4 A... ....
....|..|--- .... ....|F-2 3F.D ....|--- .... ....
..13|..|F-2 2C.. ....|A-5 2.CA ....|A-4 .... ....
....|..|--- .... ....|F-2 3F.D ....|--- .... ....
..9A|..|C-4 NC.. ....|A-5 2.CA ....|A-4 C... ....
....|.F|--- .... ....|F-2 3F.D ....|--- .... ....
..26|..|F-2 2C.. ....|A-5 2.AA ....|A-4 B.A. ....
....|..|--- .... ....|F-2 3F.D ....|--- .... ....
..89|..|C-4 KC.. ....|A-5 2.BA ....|A-4 A.B. ....
....|..|--- .... ....|G-2 3F.D ....|--- .... ....
..45|..|G-2 2C.. ....|A-5 2.BA ....|A-4 B... ....
....|..|--- .... ....|G-2 3F.D ....|--- .... ....
..89|..|C-4 NC.. ....|A-5 2.BA ....|A-4 C... ....
....|.F|--- .... ....|G-2 3F.D ....|--- .... ....
..22|..|G-2 2C.. ....|A-5 2.BA ....|A-4 B... ....
....|..|--- .... ....|G-2 3F.D ....|A-4 .... ....
..89|..|C-4 KC.. ....|A-5 2.BA ....|A-4 .... ....
....|..|--- .... ....|G-2 3F.D ....|--- .... ....
..11|..|G-2 2C.. ....|A-5 2.BA ....|A-4 A... ....
....|..|--- .... ....|G-2 3F.D ....|--- .... ....
..89|..|C-4 NC.. ....|A-5 2.BA ....|A-4 C... ....
....|.F|--- .... ....|G-2 3F.D ....|--- .... ....
..22|..|G-2 2C.. ....|A-5 2.CA ....|A-4 A.C. ....
....|..|--- .... ....|G-2 3F.D ....|--- .... ....
..7A|..|C-4 KC.. ....|A-5 2.AA ....|A-4 ..A. ....
....|..|--- .... ....|--- .... ....|--- .... ....
..3D|..|A-2 2A.. ....|--- .... ....|A-4 .... ....
....|..|--- .... ....|--- .... ....|--- .... ....
..7A|..|C-4 SC.. ....|--- .... ....|A-4 C... ....
....|..|--- .... ....|--- .... ....|--- .... ....
..1F|..|A-3 2A.. ....|--- .... ....|A-4 B... ....
....|..|--- .... ....|--- .... ....|A-4 .... ....
..7A|..|C-4 KC.. ....|--- .... ....|A-4 .... ....
....|..|--- .... ....|--- .... ....|--- .... ....
..10|..|A-2 2C.. ....|--- .... ....|A-4 A... ....
....|..|--- .... ....|--- .... ....|--- .... ....
..7A|..|C-4 SC.. ....|--- .... ....|A-4 C... ....
....|..|--- .... ....|--- .... ....|--- .... ....
..1F|..|A-2 2A.. ....|--- .... ....|A-4 B... ....
....|..|--- .... ....|--- .... ....|--- .... ....
..7A|..|C-4 KC.. ....|--- .... ....|A-4 A... ....
....|..|--- .... ....|--- .... ....|--- .... ....
..3D|..|A-2 2C.. ....|--- .... ....|A-4 B... ....
....|..|--- .... ....|--- .... ....|--- .... ....
..7A|..|C-4 SC.. ....|--- .... ....|A-4 C... ....
....|..|--- .... ....|--- .... ....|--- .... ....
..1F|..|A-4 2C.. ....|--- .... ....|A-4 B... ....
....|..|--- .... ....|--- .... ....|--- .... ....
..7A|..|C-4 KC.. ....|--- .... ....|A-4 A... ....
....|..|--- .... ....|--- .... ....|--- .... ....
..10|..|A-5 2A.. ....|--- .... ....|A-4 .... ....
....|..|--- .... ....|--- .... ....|--- .... ....
..7A|..|C-4 SC.. ....|--- .... ....|A-4 C... ....
....|..|--- .... ....|--- .... ....|--- .... ....
..1F|..|A-2 2C.. ....|--- .... ....|A-4 D.B. ....
....|..|--- .... ....|--- .... ....|--- .... ....

[Pattern18]
..9A|..|C-4 KC.F ....|A-5 2FCA ....|A-4 AFCF ....
....|..|--- .... ....|--- .... ....|A-4 B... ....
..4D|..|F-2 2A.. ....|--- .... ....|A-4 .... ....
....|..|--- .... ....|--- .... ....|A-4 .... ....
..9A|..|C-4 SC.. ....|--- .... ....|A-4 C... ....
....|..|--- .... ....|--- .... ....|A-4 B... ....
..26|..|F-3 2A.. ....|--- .... ....|A-4 .... ....
....|..|--- .... ....|--- .... ....|A-4 .... ....
..9A|..|C-4 KC.. ....|--- .... ....|A-4 A... ....
....|..|--- .... ....|--- .... ....|A-4 B... ....
..13|..|F-2 2A.. ....|--- .... ....|A-4 A... ....
....|..|--- .... ....|--- .... ....|A-4 B... ....
..9A|..|C-4 SC.. ....|--- .... ....|A-4 C... ....
....|..|--- .... ....|--- .... ....|A-4 B... ....
..26|..|F-2 2A.. ....|--- .... ....|A-4 D.A. ....
....|..|--- .... ....|--- .... ....|A-4 B.C. ....
..89|..|C-4 KC.. ....|--- .... ....|A-4 A.B. ....
....|..|--- .... ....|--- .... ....|A-4 B... ....
..45|..|G-2 2C.. ....|--- .... ....|A-4 .... ....
....|..|--- .... ....|--- .... ....|A-4 .... ....
..89|..|C-4 SC.. ....|--- .... ....|A-4 C... ....
....|..|--- .... ....|--- .... ....|A-4 B... ....
..22|..|G-2 2A.. ....|--- .... ....|A-4 .... ....
....|..|--- .... ....|--- .... ....|A-4 .... ....
..89|..|C-4 KC.. ....|--- .... ....|A-4 .... ....
....|..|--- .... ....|--- .... ....|A-4 .... ....
..11|..|G-2 2A.. ....|--- .... ....|A-4 A... ....
....|..|--- .... ....|--- .... ....|A-4 B... ....
..89|..|C-4 SC.. ....|--- .... ....|A-4 C... ....
....|..|--- .... ....|--- .... ....|A-4 B... ....
..22|..|G-2 2C.. ....|A-5 ..B. ....|A-4 A.C. ....
....|..|--- .... ....|--- .... ....|A-4 B.B. ....
..7A|..|C-4 KC.. ....|A-5 ..A. ....|A-4 A.A. ....
....|..|--- .... ....|--- .... ....|--- .... ....
....|..|--- .... ....|--- .... ....|A-4 B... ....
....|..|--- .... ....|--- .... ....|--- .... ....
....|..|--- .... ....|--- .... ....|A-4 A... ....
....|..|--- .... ....|--- .... ....|--- .... ....
..1F|..|A-3 2A.. ....|--- .... ....|A-4 B... ....
....|..|--- .... ....|--- .... ....|--- .... ....
..7A|..|A-2 .C.. ....|--- .... ....|A-4 A... ....
....|..|--- .... ....|--- .... ....|--- .... ....
....|..|--- .... ....|--- ...8 ....|A-4 B... ....
....|..|--- .... ....|--- .... ....|--- .... ....
....|..|--- .... ....|--- ...A ....|A-4 A... ....
....|..|--- .... ....|--- .... ....|--- .... ....
....|..|--- .... ....|--- ...8 ....|A-4 B... ....
....|..|--- .... ....|--- .... ....|--- .... ....
..7A|..|A-2 .C.. A4.1|--- ..BA ....|A-4 ..B. ....
....|..|--- .... ....|--- ...9 ....|--- .... ....
....|..|--- .... ....|--- ...8 ....|A-4 D... ....
....|..|--- .... ....|--- ...7 ....|--- .... ....
....|..|--- .... ....|--- ...6 ....|A-4 B... ....
....|..|--- .... ....|--- ...5 ....|--- .... ....
....|..|--- .... ....|--- ...4 ....|A-4 .... ....
....|..|--- .... ....|--- ...3 ....|--- .... ....
....|..|--- .... ....|--- .... ....|A-2 O..A ....
....|..|--- .... ....|--- ...2 ....|--- .... ....
....|..|--- .... ....|--- .... ....|A-2 .... ....
....|..|--- .... ....|--- ...1 ....|--- .... ....
....|..|--- .... ....|C-4 KF.C ....|E-4 U.EE ....
....|..|--- .... ....|--- .... ....|--- .... ....
....|..|--- .... ....|C-4 ...D ....|G-4 .... ....
....|..|--- .... ....|C-4 ...E ....|--- .... ....

[Pattern19]
..9A|..|A-4 UFEE ....|C-4 KC.F ....|A-4 1F4D ....
....|..|--- .... ....|--- .... ....|--- ...A ....
..4D|..|F-4 .... ....|F-2 2A.. ....|A-4 ...D ....
....|..|--- .... ....|--- .... ....|--- ...A ....
..9A|.F|C-5 .... ....|C-4 SC.. ....|A-4 ...D ....
....|..|--- .... ....|--- .... ....|--- ...A ....
..26|11|F-4 .... ....|F-2 2A.. ....|A-4 ...D ....
....|..|--- .... ....|--- .... ....|--- ...A ....
..9A|..|A-4 ..D. ....|F-3 .C.. ....|A-4 ...D ....
....|..|--- .... ....|--- .... ....|--- ...A ....
..26|..|F-4 .... ....|C-4 KA.. ....|A-4 ...D ....
....|..|--- .... ....|--- .... ....|--- ...A ....
..9A|.F|C-5 .... ....|C-4 SC.. ....|A-4 ...D ....
....|..|--- .... ....|--- .... ....|--- ...A ....
..26|11|F-4 .... ....|F-3 2A.. ....|G-4 ...D ....
....|..|--- .... ....|--- .... ....|--- ...A ....
..89|..|B-4 ..E. ....|C-4 KC.. ....|A-4 ...D ....
....|..|--- .... ....|--- .... ....|--- ...A ....
..45|..|G-4 .... ....|G-2 2C.. ....|A-4 ...D ....
....|..|--- .... ....|--- .... ....|--- ...A ....
..89|.F|D-5 .... ....|C-4 SC.. ....|A-4 ...D ....
....|..|--- .... ....|--- .... ....|--- ...A ....
..22|11|G-4 .... ....|G-2 2C.. ....|A-4 ...D ....
....|..|--- .... ....|--- .... ....|--- ...A ....
..89|..|B-4 ..D. ....|G-3 .C.. ....|A-4 ...D ....
....|..|--- .... ....|--- .... ....|--- ...A ....
..26|..|G-4 .... ....|C-4 KC.. ....|A-4 ...D ....
....|..|--- .... ....|--- .... ....|--- ...A ....
..89|.F|D-5 .... ....|C-4 SC.. ....|G-4 ...D ....
....|..|--- .... ....|--- .... ....|--- ...A ....
..22|11|G-4 .... ....|G-3 KC.. ....|C-5 ...D ....
....|..|--- .... ....|--- .... ....|--- ...A ....
..7A|..|C-5 ..E. ....|C-4 .C.. ....|A-4 ...D ....
....|..|--- .... ....|--- .... ....|--- ...A ....
..3D|..|A-4 .... ....|A-2 2C.. ....|A-4 ...D ....
....|..|--- .... ....|--- .... ....|--- ...A ....
..7A|.F|E-5 .... ....|C-4 SC.. ....|A-4 ...D ....
....|..|--- .... ....|--- .... ....|--- ...A ....
..1F|11|A-4 .... ....|A-3 2C.. ....|A-4 ...D ....
....|..|--- .... ....|--- .... ....|--- ...A ....
..7A|..|C-5 ..D. ....|A-2 .C.. ....|A-4 ...D ....
....|..|--- .... ....|--- .... ....|--- ...A ....
..3D|..|A-4 .... ....|C-4 KC.. ....|A-4 ...D ....
....|..|--- .... ....|--- .... ....|--- ...A ....
..7A|.F|E-5 .... ....|C-4 SC.. ....|A-4 ...D ....
....|..|--- .... ....|--- .... ....|--- ...A ....
..1F|11|A-4 .... ....|A-2 2A.. ....|G-4 ...D ....
....|..|--- .... ....|--- .... ....|--- ...A ....
..7A|..|F-5 T.4. ....|C-4 KC.. ....|A-4 ...D ....
....|..|--- .... ....|--- .... ....|F-5 U.EB ....
..3D|..|A-4 .... ....|A-2 2C.. ....|A-4 1.4D ....
....|..|--- .... ....|--- .... ....|A-4 U.EB ....
..7A|.F|E-5 .... ....|C-4 SC.. ....|A-4 1.4D ....
....|..|--- .... ....|--- .... ....|E-5 U.EB ....
..1F|11|A-4 .... ....|A-4 2A.. ....|G-4 1.4D ....
....|..|--- .... ....|--- .... ....|A-4 U.EB ....
..7A|..|D-5 .... ....|A-3 KC.. ....|A-4 1.4D ....
....|..|--- .... ....|--- .... ....|D-5 U.EB ....
..1F|..|A-4 .... ....|C-4 .C.. ....|A-4 1.4D ....
....|..|--- .... ....|--- .... ....|A-4 U.EB ....
..7A|.F|C-5 .... ....|C-4 SC.. ....|A-4 1.4D ....
....|..|--- .... ....|--- .... ....|C-5 U.DB ....
..1F|11|G-4 .... ....|C-4 KC.. ....|G-4 1.4D ....
....|..|--- .... ....|C-4 .F.. ....|G-4 U.DB ....

[Pattern20]
..4D|..|A-4 UFEE ....|C-4 KC.F ....|A-3 1F4D ....
....|..|--- .... ....|--- .... ....|--- ...A ....
..4D|..|F-4 .... ....|F-2 2A.. ....|A-3 ...D ....
....|..|--- .... ....|--- .... ....|--- ...A ....
..4D|.F|C-5 .... ....|C-4 SC.. ....|A-3 ...D ....
....|..|--- .... ....|--- .... ....|--- ...A ....
..26|11|F-4 .... ....|F-2 2A.. ....|A-3 ...D ....
....|..|--- .... ....|--- .... ....|--- ...A ....
..4D|..|A-4 ..D. ....|F-3 .C.. ....|A-3 ...D ....
....|..|--- .... ....|--- .... ....|--- ...A ....
..4D|..|F-4 .... ....|C-4 KA.. ....|A-3 ...D ....
....|..|--- .... ....|--- .... ....|--- ...A ....
..4D|.F|C-5 .... ....|C-4 SC.. ....|A-3 ...D ....
....|..|--- .... ....|--- .... ....|--- ...A ....
..26|11|F-4 .... ....|F-3 2A.. ....|G-3 ...D ....
....|..|--- .... ....|--- .... ....|--- ...A ....
..45|..|B-4 ..E. ....|C-4 KC.. ....|A-3 ...D ....
....|..|--- .... ....|--- .... ....|--- ...A ....
..45|..|G-4 .... ....|G-2 2C.. ....|A-3 ...D ....
....|..|--- .... ....|--- .... ....|--- ...A ....
..45|.F|D-5 .... ....|C-4 SC.. ....|A-3 ...D ....
....|..|--- .... ....|--- .... ....|--- ...A ....
..22|11|G-4 .... ....|G-2 2C.. ....|A-3 ...D ....
....|..|--- .... ....|--- .... ....|--- ...A ....
..45|..|B-4 ..D. ....|G-3 .C.. ....|A-3 ...D ....
....|..|--- .... ....|--- .... ....|--- ...A ....
..45|..|G-4 .... ....|C-4 KC.. ....|A-3 ...D ....
....|..|--- .... ....|--- .... ....|--- ...A ....
..45|.F|D-5 .... ....|C-4 SC.. ....|G-4 ...D ....
....|..|--- .... ....|--- .... ....|--- ...A ....
..22|11|G-4 .... ....|G-3 KC.. ....|C-4 ...D ....
....|..|--- .... ....|--- .... ....|--- ...A ....
..3D|..|C-5 ..E. ....|C-4 .C.. ....|A-3 ...D ....
....|..|--- .... ....|--- .... ....|--- ...A ....
..3D|..|A-4 .... ....|A-2 2C.. ....|A-3 ...D ....
....|..|--- .... ....|--- .... ....|--- ...A ....
..3D|.F|E-5 .... ....|C-4 SC.. ....|A-3 ...D ....
....|..|--- .... ....|--- .... ....|--- ...A ....
..1F|11|A-4 .... ....|A-3 2C.. ....|A-3 ...D ....
....|..|--- .... ....|--- .... ....|--- ...A ....
..3D|..|C-5 ..D. ....|A-2 .C.. ....|A-3 ...D ....
....|..|--- .... ....|--- .... ....|--- ...A ....
..3D|..|A-4 .... ....|C-4 KC.. ....|A-3 ...D ....
....|..|--- .... ....|--- .... ....|--- ...A ....
..3D|.F|E-5 .... ....|C-4 SC.. ....|A-3 ...D ....
....|..|--- .... ....|--- .... ....|--- ...A ....
..1F|11|A-4 .... ....|A-2 2A.. ....|G-3 ...D ....
....|..|--- .... ....|--- .... ....|--- ...A ....
..3D|..|F-5 ..E. ....|C-4 KC.. ....|A-3 ...D ....
....|..|--- .... ....|--- .... ....|--- ...A ....
..3D|..|A-4 .... ....|A-2 2C.. ....|A-3 ...D ....
....|..|--- .... ....|--- .... ....|--- ...A ....
..3D|.F|E-5 .... ....|C-4 SC.. ....|A-3 ...D ....
....|..|--- .... ....|--- .... ....|--- ...A ....
..3D|11|A-4 .... ....|A-2 2C.. ....|A-3 ...D ....
....|..|--- .... ....|--- .... ....|--- ...A ....
..3D|..|D-5 .... ....|A-3 KC.. ....|C-4 ...D ....
....|..|--- .... ....|--- .... ....|--- ...A ....
..3D|..|A-4 .... ....|C-4 .C.. ....|F-4 ...D ....
....|..|--- .... ....|--- .... ....|--- ...A ....
..3D|.F|C-5 ..D. ....|C-4 SC.. ....|G-4 ...D ....
....|..|--- .... ....|--- .... ....|--- ...A ....
..1F|11|G-4 .... ....|C-4 KC.. ....|C-5 ...D ....
....|..|--- .... ....|--- .... ....|--- ...A ....

[Pattern21]
..4D|..|A-3 1F9C ....|C-4 KA.F ....|F-4 1F2D ....
....|..|--- .... ....|--- .... ....|A-3 T.EC ....
..4D|..|F-3 .... ....|F-2 2A.. ....|F-4 1.2D ....
....|..|--- .... ....|--- .... ....|F-3 T.EC ....
..4D|..|C-4 .... ....|C-4 SA.. ....|F-4 1.2D ....
....|..|--- .... ....|--- .... ....|C-4 T.EC ....
..26|..|F-3 .... ....|F-2 2A.. ....|F-4 1.2D ....
....|..|--- .... ....|--- .... ....|F-3 T.EC ....
..4D|.1|A-3 .... ....|F-3 .A.. ....|F-4 1.2D ....
....|.1|--- .... ....|--- .... ....|A-3 T.EC ....
..4D|.1|F-3 .... ....|C-4 KA.. ....|F-4 1.2D ....
....|.1|--- .... ....|--- .... ....|F-3 T.EC ....
..4D|.2|C-4 .... ....|C-4 SA.. ....|F-4 1.2D ....
....|.2|--- .... ....|--- .... ....|C-4 T.EC ....
..26|.2|F-3 .... ....|F-3 2A.. ....|F-4 1.2D ....
....|.2|--- .... ....|--- .... ....|F-3 T.EC ....
..45|.3|B-3 .... ....|C-4 KA.. ....|G-4 1.3D ....
....|.3|--- .... ....|--- .... ....|B-3 T.EC ....
..45|.3|G-3 .... ....|G-2 2A.. ....|G-4 1.3D ....
....|.3|--- .... ....|--- .... ....|G-3 T.EC ....
..45|.4|D-4 .... ....|C-4 SA.. ....|G-4 1.3D ....
....|.4|--- .... ....|--- .... ....|D-4 T.EC ....
..22|.4|G-3 .... ....|G-2 2A.. ....|G-4 1.3D ....
....|.4|--- .... ....|--- .... ....|G-3 T.EC ....
..45|.5|B-3 .... ....|G-3 .A.. ....|G-4 1.3D ....
....|.5|--- .... ....|--- .... ....|B-3 T.EC ....
..45|.5|G-3 .... ....|C-4 KA.. ....|G-4 1.3D ....
....|.5|--- .... ....|--- .... ....|G-3 T.EC ....
..45|.6|D-4 .... ....|C-4 SA.. ....|G-4 1.3D ....
....|.6|--- .... ....|--- .... ....|D-4 T.EC ....
..22|.6|G-3 .... ....|G-3 KA.. ....|G-4 1.3D ....
....|.6|--- .... ....|--- .... ....|G-3 T.EC ....
..3D|.7|C-4 .... ....|C-4 .C.. ....|A-4 1.1D ....
....|.7|--- .... ....|--- .... ....|C-4 T.EC ....
..3D|.7|A-3 .... ....|A-2 2A.. ....|A-4 1.1D ....
....|.7|--- .... ....|--- .... ....|A-3 T.EC ....
..3D|.8|E-4 .... ....|C-4 SC.. ....|A-4 1.1D ....
....|.8|--- .... ....|--- .... ....|E-4 T.EC ....
..1F|.8|A-3 .... ....|A-3 2A.. ....|A-4 1.1D ....
....|.8|--- .... ....|--- .... ....|A-3 T.EC ....
..3D|.9|C-4 .... ....|A-2 .A.. ....|A-4 1.1D ....
....|.9|--- .... ....|--- .... ....|C-4 T.EC ....
..3D|.9|A-3 .... ....|C-4 KC.. ....|A-4 1.1D ....
....|.9|--- .... ....|--- .... ....|A-3 T.EC ....
..3D|.A|E-4 .... ....|C-4 SA.. ....|A-4 1.1D ....
....|.A|--- .... ....|--- .... ....|E-4 T.EC ....
..1F|.A|A-3 .... ....|A-2 2C.. ....|A-4 1.1D ....
....|.A|--- .... ....|--- .... ....|A-3 T.EC ....
..3D|.B|C-4 .... ....|C-4 KC.. ....|A-4 1.1D ....
....|.B|--- .... ....|--- .... ....|C-4 T.EC ....
..3D|.B|A-3 .... ....|A-2 2A.. ....|A-4 1.1D ....
....|.B|--- .... ....|--- .... ....|A-3 T.EC ....
..3D|.C|E-4 .... ....|C-4 SC.. ....|A-4 1.1D ....
....|.C|--- .... ....|--- .... ....|E-4 T.EC ....
..3D|.C|A-3 .... ....|A-2 2A.. ....|A-4 1.1D ....
....|.C|--- .... ....|--- .... ....|A-3 T.EC ....
..3D|.D|C-4 .... ....|A-3 KC.. ....|A-4 1.1D ....
....|.D|--- .... ....|--- .... ....|C-4 T.EC ....
..3D|.D|A-3 .... ....|C-4 .A.. ....|A-4 1.1D ....
....|.D|--- .... ....|--- .... ....|A-3 T.EC ....
..3D|.E|E-4 .... ....|C-4 SC.. ....|A-4 1.1D ....
....|.E|--- .... ....|--- .... ....|E-4 T.EC ....
..1F|.E|A-3 .... ....|C-4 KA.. ....|A-4 1.1D ....
....|.E|--- .... ....|--- .... ....|A-3 T.EC ....

[Pattern22]
..4D|.F|A-3 1F9C ....|C-4 KA.F ....|F-4 1F2D ....
....|.F|--- .... ....|--- .... ....|A-3 T.EC ....
....|.F|F-3 .... ....|F-2 2F.. ....|F-4 1.2D ....
....|.F|--- .... ....|--- .... ....|F-3 T.EC ....
..4D|10|C-4 .... ....|C-4 SA.. ....|F-4 1.2D ....
....|10|--- .... ....|--- .... ....|C-4 T.EC ....
....|10|F-3 .... ....|F-2 2F.. ....|F-4 1.2D ....
....|10|--- .... ....|--- .... ....|F-3 T.EC ....
....|11|A-3 .... ....|F-1 .... ....|F-4 1.2D ....
....|11|--- .... ....|--- .... ....|A-3 T.EC ....
..4D|12|F-3 .... ....|C-4 KA.. ....|F-4 1.2D ....
....|12|--- .... ....|--- .... ....|F-3 T.EC ....
..4D|13|C-4 .... ....|C-4 SA.. ....|F-4 1.2D ....
....|13|--- .... ....|--- .... ....|C-4 T.EC ....
....|14|F-3 .... ....|F-1 2F.. ....|F-4 1.2D ....
....|14|--- .... ....|--- .... ....|F-3 T.EC ....
..45|12|B-3 .... ....|C-4 KA.. ....|G-4 1.3D ....
....|15|--- .... ....|--- .... ....|B-3 T.EC ....
....|15|G-3 .... ....|G-2 2F.. ....|G-4 1.3D ....
....|16|--- .... ....|--- .... ....|G-3 T.EC ....
..45|16|D-4 .... ....|C-4 SA.. ....|G-4 1.3D ....
....|15|--- .... ....|--- .... ....|D-4 T.EC ....
....|17|G-3 .... ....|G-2 2F.. ....|G-4 1.3D ....
....|17|--- .... ....|--- .... ....|G-3 T.EC ....
....|18|B-3 .... ....|G-1 .... ....|G-4 1.3D ....
....|18|--- .... ....|--- .... ....|B-3 T.EC ....
..45|19|G-3 .... ....|C-4 KA.. ....|G-4 1.3D ....
....|19|--- .... ....|--- .... ....|G-3 T.EC ....
..45|1A|D-4 .... ....|C-4 SA.. ....|G-4 1.3D ....
....|1A|--- .... ....|--- .... ....|D-4 T.EC ....
..22|1B|G-3 .... ....|C-4 KA.. ....|G-4 1.3D ....
....|1B|--- .... ....|--- .... ....|G-3 T.EC ....
..3D|1C|C-4 .... ....|C-4 .C.. ....|A-4 1.1D ....
....|1C|--- .... ....|--- .... ....|C-4 T.EC ....
....|1B|A-3 .... ....|A-2 2F.. ....|A-4 1.1D ....
....|1B|--- .... ....|--- .... ....|A-3 T.EC ....
..3D|1A|E-4 .... ....|C-4 SC.. ....|A-4 1.1D ....
....|1A|--- .... ....|--- .... ....|E-4 T.EC ....
....|19|A-3 .... ....|A-2 2F.. ....|A-4 1.1D ....
....|19|--- .... ....|--- .... ....|A-3 T.EC ....
....|18|C-4 .... ....|A-1 .... ....|A-4 1.1D ....
....|18|--- .... ....|--- .... ....|C-4 T.EC ....
..3D|17|A-3 .... ....|C-4 KC.. ....|A-4 1.1D ....
....|17|--- .... ....|--- .... ....|A-3 T.EC ....
..3D|16|E-4 .... ....|C-4 SA.. ....|A-4 1.1D ....
....|16|--- .... ....|--- .... ....|E-4 T.EC ....
....|15|A-3 .... ....|A-2 2F.. ....|A-4 1.1D ....
....|15|--- .... ....|--- .... ....|A-3 T.EC ....
..3D|14|C-4 .... ....|C-4 KC.. ....|A-4 1.1D ....
....|14|--- .... ....|--- .... ....|C-4 T.EC ....
....|13|A-3 .... ....|A-2 2F.. ....|A-4 1.1D ....
....|13|--- .... ....|--- .... ....|A-3 T.EC ....
..3D|12|E-4 .... ....|C-4 SC.. ....|A-4 1.1D ....
....|12|--- .... ....|--- .... ....|E-4 T.EC ....
....|11|A-3 .... ....|A-1 2F.. ....|A-4 1.1D ....
....|11|--- .... ....|--- .... ....|A-3 T.EC ....
....|10|C-4 .... ....|A-1 .... ....|A-4 1.1D ....
....|10|--- .... ....|--- .... ....|C-4 T.EC ....
....|10|A-3 .... ....|C-4 K... ....|A-4 1.1D ....
....|10|--- .... ....|--- .... ....|A-3 T.EC ....
..3D|.F|E-4 .... ....|C-4 SC.. ....|A-4 1.1D ....
....|.F|--- .... ....|--- .... ....|E-4 T.EC ....
..1F|.F|A-3 .... ....|C-4 KA.. ....|A-4 1.1D ....
....|.F|--- .... ....|--- .... ....|A-3 T.EC ....

[Pattern23]
....|.E|A-3 1F9C ....|C-4 KF.F ....|F-4 1F2D ....
....|.E|--- .... ....|--- .... ....|A-3 T.EC ....
....|.E|F-3 .... ....|F-2 2... ....|F-4 1.2D ....
....|.E|--- .... ....|--- .... ....|F-3 T.EC ....
....|.D|C-4 .... ....|C-4 S... ....|F-4 1.2D ....
....|.D|--- .... ....|--- .... ....|C-4 T.EC ....
....|.D|F-3 .... ....|F-2 2... ....|F-4 1.2D ....
....|.D|--- .... ....|--- .... ....|F-3 T.EC ....
....|.C|A-3 .... ....|F-1 .... ....|F-4 1.2D ....
....|.C|--- .... ....|--- .... ....|A-3 T.EC ....
....|.C|F-3 .... ....|C-4 K... ....|F-4 1.2D ....
....|.C|--- .... ....|--- .... ....|F-3 T.EC ....
....|.B|C-4 .... ....|C-4 S... ....|F-4 1.2D ....
....|.B|--- .... ....|--- .... ....|C-4 T.EC ....
....|.B|F-3 .... ....|F-1 2... ....|F-4 1.2D ....
....|.B|--- .... ....|--- .... ....|F-3 T.EC ....
....|.A|B-3 .... ....|C-4 K... ....|G-4 1.3D ....
....|.A|--- .... ....|--- .... ....|B-3 T.EC ....
....|.A|G-3 .... ....|G-2 2... ....|G-4 1.3D ....
....|.A|--- .... ....|--- .... ....|G-3 T.EC ....
....|.9|D-4 .... ....|C-4 S... ....|G-4 1.3D ....
....|.9|--- .... ....|--- .... ....|D-4 T.EC ....
....|.9|G-3 .... ....|G-2 2... ....|G-4 1.3D ....
....|.9|--- .... ....|--- .... ....|G-3 T.EC ....
....|.8|B-3 .... ....|G-1 .... ....|G-4 1.3D ....
....|.8|--- .... ....|--- .... ....|B-3 T.EC ....
....|.8|G-3 .... ....|C-4 K... ....|G-4 1.3D ....
....|.8|--- .... ....|--- .... ....|G-3 T.EC ....
....|.7|D-4 .... ....|C-4 S... ....|G-4 1.3D ....
....|.7|--- .... ....|--- .... ....|D-4 T.EC ....
....|.7|G-3 .... ....|C-4 K... ....|G-4 1.3D ....
....|.7|--- .... ....|--- .... ....|G-3 T.EC ....
....|.6|C-4 .... ....|C-4 .... ....|A-4 1.1D ....
....|.6|--- .... ....|--- .... ....|C-4 T.EC ....
....|.6|A-3 .... ....|A-2 2... ....|A-4 1.1D ....
....|.6|--- .... ....|--- .... ....|A-3 T.EC ....
....|.5|E-4 .... ....|C-4 S... ....|A-4 1.1D ....
....|.5|--- .... ....|--- .... ....|E-4 T.EC ....
....|.5|A-3 .... ....|A-2 2... ....|A-4 1.1D ....
....|.5|--- .... ....|--- .... ....|A-3 T.EC ....
....|.4|C-4 .... ....|A-1 .... ....|A-4 1.1D ....
....|.4|--- .... ....|--- .... ....|C-4 T.EC ....
....|.4|A-3 .... ....|C-4 K... ....|A-4 1.1D ....
....|.4|--- .... ....|--- .... ....|A-3 T.EC ....
....|.3|E-4 .... ....|C-4 S... ....|A-4 1.1D ....
....|.3|--- .... ....|--- .... ....|E-4 T.EC ....
....|.3|A-3 .... ....|A-2 2... ....|A-4 1.1D ....
....|.3|--- .... ....|--- .... ....|A-3 T.EC ....
....|.2|C-4 .... ....|C-4 K... ....|A-4 1.1D ....
....|.2|--- .... ....|--- .... ....|C-4 T.EC ....
....|.2|A-3 .... ....|A-2 2... ....|A-4 1.1D ....
....|.2|--- .... ....|--- .... ....|A-3 T.EC ....
....|.1|E-4 .... ....|C-4 S... ....|A-4 1.1D ....
....|.1|--- .... ....|--- .... ....|E-4 T.EC ....
....|.1|A-3 .... ....|A-1 2... ....|A-4 1.1D ....
....|.1|--- .... ....|--- .... ....|A-3 T.EC ....
....|..|C-4 .... ....|A-1 .... ....|A-4 1.1D ....
....|..|--- .... ....|--- .... ....|C-4 T.EC ....
....|..|A-3 .... ....|C-4 K... ....|A-4 1.1D ....
....|..|--- .... ....|--- .... ....|A-3 T.EC ....
....|..|E-4 .... ....|C-4 S... ....|A-4 1.1D ....
....|..|--- .... ....|--- .... ....|E-4 T.EC ....
....|..|A-3 .... ....|C-4 K... ....|A-4 1.1D ....
....|..|--- .... ....|--- .... ....|A-3 T.EC ....

[Pattern24]
....|..|A-3 1F9C ....|C-4 KF.F ....|F-4 1F2D ....
....|..|--- .... ....|--- .... ....|A-3 T.EC ....
....|..|F-3 .... ....|F-2 2... ....|F-4 1.2D ....
....|..|--- .... ....|--- .... ....|F-3 T.EC ....
....|..|C-4 .... ....|C-4 S... ....|F-4 1.2D ....
....|..|--- .... ....|--- .... ....|C-4 T.EC ....
....|..|F-3 .... ....|F-2 2... ....|F-4 1.2D ....
....|..|--- .... ....|--- .... ....|F-3 T.EC ....
....|..|A-3 .... ....|F-1 .... ....|F-4 1.2D ....
....|..|--- .... ....|--- .... ....|A-3 T.EC ....
....|..|F-3 .... ....|C-4 K... ....|F-4 1.2D ....
....|..|--- .... ....|--- .... ....|F-3 T.EC ....
....|..|C-4 .... ....|C-4 S... ....|F-4 1.2D ....
....|..|--- .... ....|--- .... ....|C-4 T.EC ....
....|..|F-3 .... ....|F-1 2... ....|F-4 1.2D ....
....|..|--- .... ....|--- .... ....|F-3 T.EC ....
....|..|B-3 .... ....|C-4 K... ....|G-4 1.3D ....
....|..|--- .... ....|--- .... ....|B-3 T.EC ....
....|..|G-3 .... ....|G-2 2... ....|G-4 1.3D ....
....|..|--- .... ....|--- .... ....|G-3 T.EC ....
....|..|D-4 ...B ....|C-4 S..E ....|G-4 1.3. ....
....|..|--- .... ....|--- .... ....|D-4 T.EB ....
....|..|G-3 .... ....|G-2 2..D ....|G-4 1.3C ....
....|..|--- .... ....|--- .... ....|G-3 T.EB ....
....|..|B-3 ...A ....|G-1 ...C ....|G-4 1.3. ....
....|..|--- .... ....|--- .... ....|B-3 T.EA ....
....|..|G-3 .... ....|C-4 K..B ....|G-4 1.3B ....
....|..|--- .... ....|--- .... ....|G-3 T.EA ....
....|..|D-4 ...9 ....|C-4 S..A ....|G-4 1.3. ....
....|..|--- .... ....|--- .... ....|D-4 T.E9 ....
....|..|G-3 .... ....|C-4 K... ....|G-4 1.3A ....
....|..|--- .... ....|--- .... ....|G-3 T.E9 ....
....|..|C-4 ...8 ....|C-4 ...9 ....|A-4 1.1. ....
....|..|--- .... ....|--- .... ....|C-4 T.E8 ....
....|..|A-3 .... ....|A-2 2... ....|A-4 1.19 ....
....|..|--- .... ....|--- .... ....|A-3 T.E8 ....
....|..|E-4 ...7 ....|C-4 S..8 ....|A-4 1.1. ....
....|..|--- .... ....|--- .... ....|E-4 T.E7 ....
....|..|A-3 .... ....|A-2 2... ....|A-4 1.18 ....
....|..|--- .... ....|--- .... ....|A-3 T.E7 ....
....|..|C-4 ...6 ....|A-1 ...7 ....|A-4 1.1. ....
....|..|--- .... ....|--- .... ....|C-4 T.E6 ....
....|..|A-3 .... ....|C-4 K... ....|A-4 1.17 ....
....|..|--- .... ....|--- .... ....|A-3 T.E6 ....
....|..|E-4 ...5 ....|C-4 S..6 ....|A-4 1.1. ....
....|..|--- .... ....|--- .... ....|E-4 T.E5 ....
....|..|A-3 .... ....|A-2 2..5 ....|A-4 1.16 ....
....|..|--- .... ....|--- .... ....|A-3 T.E5 ....
....|..|C-4 ...4 ....|C-4 K..4 ....|A-4 1.1. ....
....|..|--- .... ....|--- .... ....|C-4 T.E4 ....
....|..|A-3 .... ....|A-2 2... ....|A-4 1.15 ....
....|..|--- .... ....|--- .... ....|A-3 T.E4 ....
....|..|E-4 ...3 ....|C-4 S..3 ....|A-4 1.1. ....
....|..|--- .... ....|--- .... ....|E-4 T.E3 ....
....|..|A-3 .... ....|A-1 2... ....|A-4 1.14 ....
....|..|--- .... ....|--- .... ....|A-3 T.E3 ....
....|..|C-4 ...2 ....|C-4 K..2 ....|A-4 1.1. ....
....|..|--- .... ....|--- .... ....|C-4 T.E2 ....
....|..|A-3 .... ....|A-1 2... ....|A-4 1.13 ....
....|..|--- ...1 ....|--- .... ....|A-3 T.E2 ....
....|..|E-4 .... ....|C-4 S..1 ....|A-4 1.1. ....
....|..|--- .... ....|--- .... ....|E-4 T.E1 ....
....|..|A-3 .... ....|A-1 2... ....|A-4 1.1. ....
....|..|--- .... ....|--- .... ....|A-3 T.E. ....

[Pattern25]
....|..|R-- .... ....|R-- .... B.FF|R-- .... ....
....|..|--- .... ....|A-1 3F.A B..F|--- .... ....
....|..|--- .... ....|G-1 .... ....|--- .... ....

[Pattern26]
..9A|..|A-4 UFEE ....|F-4 3F25 ....|C-4 KC.F ....
....|..|--- .... ....|--- ...6 ....|--- .... ....
..4D|..|F-4 .... ....|--- ...7 ....|F-2 2A.. ....
....|..|--- .... ....|--- ...8 ....|--- .... ....
..9A|..|C-4 KC.F ....|--- ...9 ....|C-5 UFEE ....
....|..|--- .... ....|--- .... ....|--- .... ....
..26|..|F-2 2A.. ....|--- ...A ....|F-4 .... ....
....|..|--- .... ....|--- .... ....|--- .... ....
..9A|..|A-4 UFDE ....|--- ...B ....|F-3 KC.F ....
....|..|--- .... ....|--- ...A ....|--- .... ....
..26|..|F-4 .... ....|--- ...B ....|C-4 .A.. ....
....|..|--- .... ....|--- ...A ....|--- .... ....
..9A|..|C-4 SC.F ....|--- ...B ....|C-5 UFDE ....
....|..|--- .... ....|--- ...A ....|--- .... ....
..26|..|F-3 2A.. ....|--- ...B ....|F-4 .... ....
....|..|--- .... ....|--- ...A ....|--- .... ....
..89|..|B-4 UFEE ....|G-4 ..35 ....|C-4 KC.F ....
....|..|--- .... ....|--- ...6 ....|--- .... ....
..45|..|G-4 .... ....|--- ...7 ....|G-2 2C.. ....
....|..|--- .... ....|--- ...8 ....|--- .... ....
..89|..|C-4 KC.F ....|--- ...9 ....|D-5 UFEE ....
....|..|--- .... ....|--- .... ....|--- .... ....
..22|..|G-2 2C.. ....|--- ...A ....|G-4 .... ....
....|..|--- .... ....|--- .... ....|--- .... ....
..89|..|B-4 UFDE ....|--- ...B ....|C-4 KC.F ....
....|..|--- .... ....|--- ...A ....|--- .... ....
..26|..|G-4 .... ....|--- ...B ....|C-4 .C.. ....
....|..|--- .... ....|--- ...A ....|--- .... ....
..89|..|C-4 SC.F ....|--- ...B ....|D-5 UFDE ....
....|..|--- .... ....|--- ...A ....|--- .... ....
..22|..|C-4 KC.. ....|--- ...B ....|G-4 .... ....
....|..|--- .... ....|--- ...A ....|--- .... ....
..7A|..|C-5 UFEE ....|A-4 ..15 ....|C-4 KC.F ....
....|..|--- .... ....|--- ...6 ....|--- .... ....
..3D|..|A-4 .... ....|--- ...7 ....|A-2 2C.. ....
....|..|--- .... ....|--- ...8 ....|--- .... ....
..7A|..|C-4 KC.F ....|--- ...9 ....|E-5 UFEE ....
....|..|--- .... ....|--- .... ....|--- .... ....
..1F|..|A-3 2C.. ....|--- ...A ....|A-4 .... ....
....|..|--- .... ....|--- .... ....|--- .... ....
..7A|..|C-5 UFDE ....|--- .... ....|A-2 KC.F ....
....|..|--- .... ....|--- .... ....|--- .... ....
..3D|..|A-4 .... ....|--- .... ....|C-4 .C.. ....
....|..|--- .... ....|--- .... ....|--- .... ....
..7A|..|C-4 SC.F ....|--- .... ....|E-5 UFDE ....
....|..|--- .... ....|--- .... ....|--- .... ....
..1F|..|A-2 2A.. ....|--- .... ....|A-4 .... ....
....|..|--- .... ....|--- .... ....|--- .... ....
..7A|..|F-5 UFEE ....|--- .... ....|C-4 KC.F ....
....|..|--- .... ....|--- ...9 ....|--- .... ....
..3D|..|A-4 .... ....|--- ...8 ....|A-2 2C.. ....
....|..|--- .... ....|--- ...9 ....|--- .... ....
..7A|..|C-4 KC.F ....|--- ...A ....|E-5 UFEE ....
....|..|--- .... ....|--- ...9 ....|--- .... ....
..1F|..|A-4 2A.. ....|--- ...8 ....|A-4 .... ....
....|..|--- .... ....|--- ...9 ....|--- .... ....
..7A|..|D-5 UFEE ....|--- ...A ....|A-3 KC.F ....
....|..|--- .... ....|--- ...9 ....|--- .... ....
..1F|..|A-4 .... ....|--- ...8 ....|C-4 .C.. ....
....|..|--- .... ....|--- ...9 ....|--- .... ....
..7A|..|C-4 SC.F ....|--- ...A ....|C-5 UFDE ....
....|..|--- .... ....|--- ...9 ....|--- .... ....
..1F|..|C-4 KA.. ....|--- ...8 ....|G-4 .... ....
....|..|--- .... ....|--- ...9 ....|--- .... ....

[Pattern27]
..26|..|C-4 KC.F ....|F-3 2F.C ....|A-4 AFCF ....
....|..|--- .... ....|--- ...E ....|--- .... ....
..4D|..|F-2 2C.. ....|F-1 ...C ....|A-4 B... ....
....|..|--- .... ....|--- ...E ....|--- .... ....
..4D|..|C-4 NC.. ....|F-2 ...C ....|A-4 C... ....
....|.F|--- .... ....|--- ...E ....|--- .... ....
..26|..|F-3 2C.. ....|F-1 ...C ....|A-4 B... ....
....|..|--- .... ....|--- ...E ....|A-4 .... ....
..4D|..|F-3 .C.. ....|F-2 ...C ....|A-4 .... ....
....|..|--- .... ....|--- ...E ....|--- .... ....
..26|..|C-4 KC.. ....|F-3 ...C ....|A-4 A... ....
....|..|--- .... ....|--- ...E ....|--- .... ....
..4D|..|C-4 NC.. ....|F-2 ...C ....|A-4 C... ....
....|.F|--- .... ....|--- ...E ....|--- .... ....
..24|..|F#3 2C.. ....|F#3 ...C ....|A-4 B.A. ....
....|..|--- .... ....|--- ...E ....|--- .... ....
..22|..|C-4 KC.. ....|G-3 ...C ....|A-4 A.B. ....
....|..|--- .... ....|--- ...E ....|--- .... ....
..45|..|G-2 2C.. ....|G-1 ...C ....|A-4 B... ....
....|..|--- .... ....|--- ...E ....|--- .... ....
..45|..|C-4 NC.. ....|G-2 ...C ....|A-4 C... ....
....|.F|--- .... ....|--- ...E ....|--- .... ....
..22|..|G-2 2C.. ....|G-1 ...C ....|A-4 B... ....
....|..|--- .... ....|--- ...E ....|A-4 .... ....
..45|..|G-3 .C.. ....|G-2 ...C ....|A-4 .... ....
....|..|--- .... ....|--- ...E ....|--- .... ....
..22|..|C-4 KC.. ....|G-3 ...C ....|A-4 A... ....
....|..|--- .... ....|--- ...E ....|--- .... ....
..45|..|C-4 NC.. ....|G-2 ...C ....|A-4 C... ....
....|.F|--- .... ....|--- ...E ....|--- .... ....
..20|..|G#3 KC.. ....|G#3 ...C ....|A-4 A.C. ....
....|..|--- .... ....|--- ...E ....|--- .... ....
..1F|..|C-4 .C.. ....|A-3 ...C ....|A-4 ..A. ....
....|..|--- .... ....|--- ...E ....|--- .... ....
..3D|..|A-2 2C.. ....|A-1 ...C ....|A-4 .... ....
....|..|--- .... ....|--- ...E ....|--- .... ....
..3D|..|C-4 NC.. ....|A-2 ...C ....|A-4 C... ....
....|.F|--- .... ....|--- ...E ....|--- .... ....
..1F|..|A-2 2C.. ....|A-1 ...C ....|A-4 B... ....
....|..|--- .... ....|--- ...E ....|A-4 .... ....
..3D|..|A-2 .A.. ....|A-1 ...C ....|A-4 .... ....
....|..|--- .... ....|--- ...E ....|--- .... ....
..1F|..|C-4 KC.. ....|A-3 ...C ....|A-4 A... ....
....|..|--- .... ....|--- ...E ....|--- .... ....
..3D|..|C-4 NC.. ....|A-2 ...C ....|A-4 C... ....
....|.F|--- .... ....|--- ...E ....|--- .... ....
..1A|..|C-3 2C.. ....|C-4 ...C ....|A-4 B... ....
....|..|--- .... ....|--- ...E ....|--- .... ....
..1F|..|C-4 KC.. ....|A-3 ...C ....|A-4 A... ....
....|..|--- .... ....|--- ...E ....|--- .... ....
..3D|..|A-2 2C.. ....|A-1 ...C ....|A-4 B... ....
....|..|--- .... ....|--- ...E ....|--- .... ....
..3D|..|C-4 NC.. ....|A-2 ...C ....|A-4 C... ....
....|.F|--- .... ....|--- ...E ....|--- .... ....
..3D|..|A-3 2C.. ....|A-2 ...C ....|A-4 B... ....
....|..|--- .... ....|--- ...E ....|A-4 .... ....
..1F|..|C-4 KC.. ....|A-3 ...C ....|A-4 A... ....
....|..|--- .... ....|--- ...A ....|--- .... ....
..1F|..|C-4 .C.. ....|A-3 ...C ....|A-4 .... ....
....|..|--- .... ....|--- ...E ....|--- .... ....
..1F|.7|C-4 SC.. ....|A-3 ...C ....|A-4 C... ....
....|.F|--- .... ....|--- ...E ....|--- .... ....
..22|..|C-4 .C.. ....|G-3 ...C ....|A-4 ..B. ....
....|..|C-4 .F.. ....|--- ...E ....|A-4 D... ....

[Pattern28]
..26|..|C-4 KC.F ....|F-3 2F.C ....|A-4 AFCF ....
....|..|--- .... ....|--- ...E ....|--- .... ....
..4D|..|F-2 2C.. ....|F-1 ...C ....|A-4 B... ....
....|..|--- .... ....|--- ...E ....|--- .... ....
..4D|..|C-4 NC.. ....|F-2 ...C ....|A-4 C... ....
....|.F|--- .... ....|--- ...E ....|--- .... ....
..26|..|F-3 2C.. ....|F-1 ...C ....|A-4 B... ....
....|..|--- .... ....|--- ...E ....|A-4 .... ....
..4D|..|F-3 .C.. ....|F-2 ...C ....|A-4 .... ....
....|..|--- .... ....|--- ...E ....|--- .... ....
..26|..|C-4 KC.. ....|F-3 ...C ....|A-4 A... ....
....|..|--- .... ....|--- ...E ....|--- .... ....
..4D|..|C-4 NC.. ....|F-2 ...C ....|A-4 C... ....
....|.F|--- .... ....|--- ...E ....|--- .... ....
..24|..|F#3 2C.. ....|F#3 ...C ....|A-4 B.A. ....
....|..|--- .... ....|--- ...E ....|--- .... ....
..22|..|C-4 KC.. ....|G-3 ...C ....|A-4 A.B. ....
....|..|--- .... ....|--- ...E ....|--- .... ....
..45|..|G-2 2C.. ....|G-1 ...C ....|A-4 B... ....
....|..|--- .... ....|--- ...E ....|--- .... ....
..45|..|C-4 NC.. ....|G-2 ...C ....|A-4 C... ....
....|.F|--- .... ....|--- ...E ....|--- .... ....
..22|..|G-2 2C.. ....|G-1 ...C ....|A-4 B... ....
....|..|--- .... ....|--- ...E ....|A-4 .... ....
..45|..|G-3 .C.. ....|G-2 ...C ....|A-4 .... ....
....|..|--- .... ....|--- ...E ....|--- .... ....
..22|..|C-4 KC.. ....|G-3 ...C ....|A-4 A... ....
....|..|--- .... ....|--- ...E ....|--- .... ....
..45|..|C-4 NC.. ....|G-2 ...C ....|A-4 C... ....
....|.F|--- .... ....|--- ...E ....|--- .... ....
..20|..|G#3 KC.. ....|G#3 ...C ....|A-4 A.C. ....
....|..|--- .... ....|--- ...E ....|--- .... ....
..1F|..|C-4 .C.. ....|A-3 ...C ....|A-4 ..A. ....
....|..|--- .... ....|--- ...E ....|--- .... ....
..3D|..|A-2 2C.. ....|A-1 ...C ....|A-4 .... ....
....|..|--- .... ....|--- ...E ....|--- .... ....
..3D|..|C-4 NC.. ....|A-2 ...C ....|A-4 C... ....
....|.F|--- .... ....|--- ...E ....|--- .... ....
..1F|..|A-2 2C.. ....|A-1 ...C ....|A-4 B... ....
....|..|--- .... ....|--- ...E ....|A-4 .... ....
..3D|..|A-2 .A.. ....|A-1 ...C ....|A-4 .... ....
....|..|--- .... ....|--- ...E ....|--- .... ....
..1F|..|C-4 KC.. ....|A-3 ...C ....|A-4 A... ....
....|..|--- .... ....|--- ...E ....|--- .... ....
..3D|..|C-4 NC.. ....|A-2 ...C ....|A-4 C... ....
....|.F|--- .... ....|--- ...E ....|--- .... ....
..1A|..|C-3 2C.. ....|C-4 ...C ....|A-4 B... ....
....|..|--- .... ....|--- ...E ....|--- .... ....
..1F|..|C-4 KC.. ....|A-3 ...C ....|A-4 A... ....
....|..|--- .... ....|--- ...E ....|--- .... ....
..3D|..|A-2 2C.. ....|A-1 ...C ....|A-4 B... ....
....|..|--- .... ....|--- ...E ....|--- .... ....
..3D|..|C-4 NC.. ....|A-2 ...C ....|A-4 C... ....
....|.F|--- .... ....|--- ...E ....|--- .... ....
..3D|..|A-3 2C.. ....|A-2 ...C ....|A-4 B... ....
....|..|--- .... ....|--- ...E ....|A-4 .... ....
..1F|..|C-4 KC.. ....|A-3 ...C ....|A-4 A... ....
....|..|--- .... ....|--- ...A ....|--- .... ....
..1F|..|C-4 .C.. ....|A-3 ...C ....|A-4 .... ....
....|..|--- .... ....|--- ...E ....|--- .... ....
..1F|.7|C-4 SC.. ....|A-3 ...C ....|A-4 C... ....
....|.F|--- .... ....|--- ...E ....|--- .... ....
..1A|..|C-4 .C.. ....|C-4 ...C ....|A-4 ..B. ....
....|..|C-4 .F.. ....|--- ...E ....|A-4 D... ....

[Pattern29]
..13|..|C-4 KC.F ....|F-4 2F.C ....|A-4 AFCF ....
....|..|--- .... ....|--- ...E ....|--- .... ....
..4D|..|F-2 2C.. ....|F-1 ...C ....|A-4 B... ....
....|..|--- .... ....|--- ...E ....|--- .... ....
..4D|..|C-4 NC.. ....|F-2 ...C ....|A-4 C... ....
....|.F|--- .... ....|--- ...E ....|--- .... ....
..26|..|F-3 2C.. ....|F-1 ...C ....|A-4 B... ....
....|..|--- .... ....|--- ...E ....|A-4 .... ....
..4D|..|F-3 .C.. ....|F-2 ...C ....|A-4 .... ....
....|..|--- .... ....|--- ...E ....|--- .... ....
..13|..|C-4 KC.. ....|F-4 ...C ....|A-4 A... ....
....|..|--- .... ....|--- ...E ....|--- .... ....
..4D|..|C-4 NC.. ....|F-2 ...C ....|A-4 C... ....
....|.F|--- .... ....|--- ...E ....|--- .... ....
..26|..|F-3 KC.. ....|F-4 ...C ....|A-4 B.A. ....
....|..|--- .... ....|--- ...E ....|--- .... ....
..11|..|C-4 .C.. ....|G-4 ...C ....|A-4 A.B. ....
....|..|--- .... ....|--- ...E ....|--- .... ....
..45|..|G-2 2C.. ....|G-1 ...C ....|A-4 B... ....
....|..|--- .... ....|--- ...E ....|--- .... ....
..45|..|C-4 NC.. ....|G-2 ...C ....|A-4 C... ....
....|.F|--- .... ....|--- ...E ....|--- .... ....
..22|..|G-2 2C.. ....|G-1 ...C ....|A-4 B... ....
....|..|--- .... ....|--- ...E ....|A-4 .... ....
..45|..|G-3 .C.. ....|G-2 ...C ....|A-4 .... ....
....|..|--- .... ....|--- ...E ....|--- .... ....
..11|..|C-4 KC.. ....|G-4 ...C ....|A-4 A... ....
....|..|--- .... ....|--- ...E ....|--- .... ....
..45|..|C-4 NC.. ....|G-2 ...C ....|A-4 C... ....
....|.F|--- .... ....|--- ...E ....|--- .... ....
..10|..|C-4 KC.. ....|G#4 ...C ....|A-4 A.C. ....
....|..|--- .... ....|--- ...E ....|--- .... ....
..1F|..|C-4 .C.. ....|A-4 ...C ....|A-4 ..A. ....
....|..|--- .... ....|--- ...E ....|--- .... ....
..3D|..|A-2 2C.. ....|A-1 ...C ....|A-4 .... ....
....|..|--- .... ....|--- ...E ....|--- .... ....
..3D|..|C-4 NC.. ....|A-2 ...C ....|A-4 C... ....
....|.F|--- .... ....|--- ...E ....|--- .... ....
..1F|..|A-2 2C.. ....|A-1 ...C ....|A-4 B... ....
....|..|--- .... ....|--- ...E ....|A-4 .... ....
..3D|..|A-2 .A.. ....|A-1 ...C ....|A-4 .... ....
....|..|--- .... ....|--- ...E ....|--- .... ....
..1F|..|C-4 KC.. ....|A-4 ...C ....|A-4 A... ....
....|..|--- .... ....|--- ...E ....|--- .... ....
..3D|..|C-4 NC.. ....|A-2 ...C ....|A-4 C... ....
....|.F|--- .... ....|--- ...E ....|--- .... ....
..1F|..|A-3 2C.. ....|A-2 ...C ....|A-4 B... ....
....|..|--- .... ....|--- ...E ....|--- .... ....
..1A|..|C-4 KC.. ....|C-5 ...C ....|A-4 A... ....
....|..|--- .... ....|--- ...E ....|--- .... ....
..3D|..|A-2 2C.. ....|A-1 ...C ....|A-4 B... ....
....|..|--- .... ....|--- ...E ....|--- .... ....
..1F|..|C-4 NC.. ....|A-2 ...C ....|A-4 C... ....
....|.F|--- .... ....|--- ...E ....|--- .... ....
..3D|..|A-3 2C.. ....|A-1 ...C ....|A-4 B... ....
....|..|--- .... ....|--- ...E ....|A-4 .... ....
..3D|..|C-4 KC.. ....|A-2 ...C ....|A-4 A... ....
....|..|--- .... ....|--- ...A ....|--- .... ....
..7A|..|C-4 .C.. ....|A-2 ...C ....|A-4 .... ....
....|..|--- .... ....|--- ...E ....|--- .... ....
..3D|.7|C-4 NC.. ....|A-1 ...C ....|A-4 C... ....
....|.F|--- .... ....|--- ...E ....|--- .... ....
..3D|..|C-4 .C.. ....|A-1 ...C ....|A-4 ..B. ....
....|..|C-4 .F.. ....|--- ...E ....|A-4 D... ....

[Pattern30]
..9A|..|A-4 UFEE ....|C-4 KC.F ....|F-4 3F25 ....
....|..|--- .... ....|--- .... ....|--- ...6 ....
..4D|..|F-4 .... ....|F-2 2A.. ....|--- ...7 ....
....|..|--- .... ....|--- .... ....|--- ...8 ....
..9A|.F|C-5 .... ....|C-4 SC.. ....|--- ...9 ....
....|..|--- .... ....|--- .... ....|--- .... ....
..26|..|F-4 .... ....|F-2 2A.. ....|--- ...A ....
....|..|--- .... ....|--- .... ....|--- .... ....
..9A|..|A-4 ..D. ....|F-3 KC.. ....|A-5 ..4B ....
....|..|--- .... ....|--- .... ....|F-4 ..2A ....
..26|..|F-4 .... ....|C-4 .A.. ....|F-5 ..4B ....
....|..|--- .... ....|--- .... ....|F-4 ..2A ....
..9A|.F|C-5 .... ....|C-4 SC.. ....|C-6 ..4B ....
....|..|--- .... ....|--- .... ....|F-4 ..2A ....
..26|..|F-4 .... ....|F-3 2A.. ....|F-5 ..4B ....
....|..|--- .... ....|--- .... ....|F-4 ..2A ....
..89|..|B-4 ..E. ....|C-4 KC.. ....|G-4 ..35 ....
....|..|--- .... ....|--- .... ....|--- ...6 ....
..45|..|G-4 .... ....|G-2 2C.. ....|--- ...7 ....
....|..|--- .... ....|--- .... ....|--- ...8 ....
..89|.F|D-5 .... ....|C-4 SC.. ....|--- ...9 ....
....|..|--- .... ....|--- .... ....|--- .... ....
..22|..|G-4 .... ....|G-2 2C.. ....|--- ...A ....
....|..|--- .... ....|--- .... ....|--- .... ....
..89|..|B-4 ..D. ....|G-3 KC.. ....|B-5 ..4B ....
....|..|--- .... ....|--- .... ....|G-4 ..3A ....
..26|..|G-4 .... ....|C-4 .C.. ....|G-5 ..4B ....
....|..|--- .... ....|--- .... ....|G-4 ..3A ....
..89|.F|D-5 .... ....|C-4 SC.. ....|D-6 ..4B ....
....|..|--- .... ....|--- .... ....|G-4 ..3A ....
..22|..|G-4 .... ....|G-3 KC.. ....|G-5 ..4B ....
....|..|--- .... ....|--- .... ....|G-4 ..3A ....
..7A|..|C-5 ..E. ....|C-4 .C.. ....|A-4 ..15 ....
....|..|--- .... ....|--- .... ....|--- ...6 ....
..3D|..|A-4 .... ....|A-2 2C.. ....|--- ...7 ....
....|..|--- .... ....|--- .... ....|--- ...8 ....
..7A|.F|E-5 .... ....|C-4 SC.. ....|--- ...9 ....
....|..|--- .... ....|--- .... ....|--- .... ....
..1F|..|A-4 .... ....|A-3 2C.. ....|--- ...A ....
....|..|--- .... ....|--- .... ....|--- .... ....
..7A|..|C-5 ..D. ....|A-2 KC.. ....|C-6 ..4B ....
....|..|--- .... ....|--- .... ....|A-4 ..1A ....
..3D|..|A-4 .... ....|C-4 .C.. ....|A-5 ..4B ....
....|..|--- .... ....|--- .... ....|A-4 ..1A ....
..7A|.F|E-5 .... ....|C-4 SC.. ....|E-6 ..4B ....
....|..|--- .... ....|--- .... ....|A-4 ..1A ....
..1F|..|A-4 .... ....|A-2 2A.. ....|A-5 ..4B ....
....|..|--- .... ....|--- .... ....|A-4 ..1A ....
..7A|..|F-5 ..E. ....|C-4 KC.. ....|--- .... ....
....|..|--- .... ....|--- .... ....|--- ...9 ....
..3D|..|A-4 .... ....|A-2 2C.. ....|--- ...8 ....
....|..|--- .... ....|--- .... ....|--- ...9 ....
..7A|.F|E-5 .... ....|C-4 SC.. ....|--- ...A ....
....|..|--- .... ....|--- .... ....|--- ...9 ....
..1F|..|A-4 .... ....|C-4 KA.. ....|--- ...8 ....
....|..|--- .... ....|--- .... ....|--- ...9 ....
..7A|..|D-5 .... ....|C-4 .C.. ....|D-6 ..4B ....
....|..|--- .... ....|--- .... ....|A-4 ..1A ....
..1F|..|A-4 .... ....|C-4 .C.. ....|A-5 ..4B ....
....|..|--- .... ....|C-4 .F.. ....|A-4 ..1A ....
..7A|.F|C-5 ..D. ....|C-4 SC.. ....|C-6 ..4B ....
....|..|--- .... ....|--- .... ....|A-4 ..1A ....
..1F|..|G-4 .... ....|C-4 KC.. ....|G-5 ..4B ....
....|..|--- .... ....|C-4 .F.. ....|A-4 ..1A ....

