[Module]
VortexTrackerII=0
Version=3.7
Title=xiaomi ringtone new generation
Author=EA'2025
NoteTable=2
Speed=3
PlayOrder=L0,1,2,3,4,5,6,7,8,9,10,11,12,13,14,15,16,17,16,18,10,11,10,11,12,13,14,15,16,17,16,18,10,11,10,19,20

[Ornament1]
L0

[Ornament2]
L0

[Ornament3]
L0

[Ornament4]
L0,4,7

[Ornament5]
L0,5,7

[Ornament6]
L0

[Ornament7]
L0

[Ornament8]
L0

[Ornament9]
L0

[Ornament10]
0,12,L0

[Ornament11]
0,19,L0

[Ornament12]
L0

[Ornament13]
L0

[Ornament14]
L0

[Ornament15]
0,19,L0

[Sample1]
Tne +000_ +00_ E_
Tne +000_ +00_ F_
Tne +000_ +00_ F_
Tne +000_ +00_ E_
Tne +000_ +00_ C- L

[Sample2]
tne +000_ +00_ 0_ L

[Sample3]
Tne +000_ +00_ A_ L

[Sample4]
tnE +000_ +00_ 0_ L

[Sample5]
tNe +000_ +00_ D_
tNe +000_ +00_ D_
Tne +000_ +00_ A_ L

[Sample6]
tNe +000_ +00_ D_
Tne +000_ +00_ A_ L

[Sample7]
TNe +080_ -10_ F_
TNe +100_ +09_ F_
TNe +180_ +08_ E_
TNe +200_ +07_ E_
TNe +280_ +06_ D_
TNe +300_ +08_ D_
Tne +000_ +00_ A_ L

[Sample8]
TNe +100_ -10_ F_
Tne +200_ +00_ F_
Tne +300_ +00_ E_
Tne +400_ +00_ E_
Tne +500_ +00_ D_
Tne +600_ +00_ D_
Tne +000_ +00_ A_ L

[Sample9]
Tne +000_ +00_ F_
Tne +000_ +00_ F_
Tne +000_ +00_ E_
Tne +000_ +00_ E_
Tne +000_ +00_ D_ L
Tne +002_ +00_ D_
Tne +004_ +00_ D_
Tne +002_ +00_ D_
Tne +000_ +00_ D_
Tne -002_ +00_ D_
Tne -004_ +00_ D_
Tne -002_ +00_ D_

[Sample10]
Tne +100_ -10_ F_
Tne +200_ +00_ F_
Tne +300_ +00_ F_
tnE +000_ +00_ 0_ L

[Sample11]
tne +000_ +00_ 0_ L

[Sample12]
tne +000_ +00_ 0_ L

[Sample13]
tne +000_ +00_ 0_ L

[Sample14]
tne +000_ +00_ 0_ L

[Sample15]
tne +000_ +00_ 0_ L

[Sample16]
tne +000_ +00_ 0_ L

[Sample17]
tne +000_ +00_ 0_ L

[Sample18]
tne +000_ +00_ 0_ L

[Sample19]
tne +000_ +00_ 0_ L

[Sample20]
tne +000_ +00_ 0_ L

[Sample21]
tne +000_ +00_ 0_ L

[Sample22]
tne +000_ +00_ 0_ L

[Sample23]
tne +000_ +00_ 0_ L

[Sample24]
tne +000_ +00_ 0_ L

[Sample25]
tne +000_ +00_ 0_ L

[Sample26]
tne +000_ +00_ 0_ L

[Sample27]
tne +000_ +00_ 0_ L

[Sample28]
tne +000_ +00_ 0_ L

[Sample29]
tne +000_ +00_ 0_ L

[Sample30]
tne +000_ +00_ 0_ L

[Sample31]
tne +000_ +00_ 0_ L

[Pattern0]
....|..|--- .... ....|G#5 1F.F B..3|--- .... ....
....|..|--- .... ....|--- .... B..2|--- .... ....
....|..|--- .... ....|--- .... B..3|--- .... ....
....|..|--- .... ....|--- .... B..2|--- .... ....
....|..|--- .... ....|B-5 .... B..3|--- .... ....
....|..|--- .... ....|--- .... B..2|--- .... ....
....|..|--- .... ....|--- .... B..3|--- .... ....
....|..|--- .... ....|--- .... B..2|--- .... ....
....|..|--- .... ....|E-6 .... B..3|--- .... ....
....|..|--- .... ....|--- .... B..2|--- .... ....
....|..|--- .... ....|--- .... B..3|--- .... ....
....|..|--- .... ....|--- .... B..2|--- .... ....
....|..|--- .... ....|G#5 .... B..3|--- .... ....
....|..|--- .... ....|--- .... B..2|--- .... ....
....|..|--- .... ....|--- .... B..3|--- .... ....
....|..|--- .... ....|--- .... B..2|--- .... ....
....|..|--- .... ....|B-5 .... B..3|--- .... ....
....|..|--- .... ....|--- .... B..2|--- .... ....
....|..|--- .... ....|--- .... B..3|--- .... ....
....|..|--- .... ....|--- .... B..2|--- .... ....
....|..|--- .... ....|E-6 .... B..3|--- .... ....
....|..|--- .... ....|--- .... B..2|--- .... ....
....|..|--- .... ....|--- .... B..3|--- .... ....
....|..|--- .... ....|--- .... B..2|--- .... ....
....|..|--- .... ....|G#5 .... B..3|--- .... ....
....|..|--- .... ....|--- .... B..2|--- .... ....
....|..|--- .... ....|--- .... B..3|--- .... ....
....|..|--- .... ....|--- .... B..2|--- .... ....
....|..|--- .... ....|A-5 .... B..3|--- .... ....
....|..|--- .... ....|--- .... B..2|--- .... ....
....|..|--- .... ....|--- .... B..3|--- .... ....
....|..|--- .... ....|--- .... B..2|--- .... ....
....|..|--- .... ....|F#5 .... B..3|--- .... ....
....|..|--- .... ....|--- .... B..2|--- .... ....
....|..|--- .... ....|--- .... B..3|--- .... ....
....|..|--- .... ....|--- .... B..2|--- .... ....
....|..|--- .... ....|B-5 .... B..3|--- .... ....
....|..|--- .... ....|--- .... B..2|--- .... ....
....|..|--- .... ....|--- .... B..3|--- .... ....
....|..|--- .... ....|--- .... B..2|--- .... ....
....|..|--- .... ....|F#6 .... B..3|--- .... ....
....|..|--- .... ....|--- .... B..2|--- .... ....
....|..|--- .... ....|--- .... B..3|--- .... ....
....|..|--- .... ....|--- .... B..2|--- .... ....
....|..|--- .... ....|F#5 .... B..3|--- .... ....
....|..|--- .... ....|--- .... B..2|--- .... ....
....|..|--- .... ....|--- .... B..3|--- .... ....
....|..|--- .... ....|--- .... B..2|--- .... ....
....|..|--- .... ....|B-5 .... B..3|--- .... ....
....|..|--- .... ....|--- .... B..2|--- .... ....
....|..|--- .... ....|--- .... B..3|--- .... ....
....|..|--- .... ....|--- .... B..2|--- .... ....
....|..|--- .... ....|F#6 .... B..3|--- .... ....
....|..|--- .... ....|--- .... B..2|--- .... ....
....|..|--- .... ....|--- .... B..3|--- .... ....
....|..|--- .... ....|--- .... B..2|--- .... ....
....|..|--- .... ....|F#5 .... B..3|--- .... ....
....|..|--- .... ....|--- .... B..2|--- .... ....
....|..|--- .... ....|--- .... B..3|--- .... ....
....|..|--- .... ....|--- .... B..2|--- .... ....
....|..|--- .... ....|G#5 .... B..3|--- .... ....
....|..|--- .... ....|--- .... B..2|--- .... ....
....|..|--- .... ....|--- .... B..3|--- .... ....
....|..|--- .... ....|--- .... B..2|--- .... ....

[Pattern1]
....|..|--- .... ....|E-5 .... B..3|--- .... ....
....|..|--- .... ....|--- .... B..2|--- .... ....
....|..|--- .... ....|--- .... B..3|--- .... ....
....|..|--- .... ....|--- .... B..2|--- .... ....
....|..|--- .... ....|A-5 .... B..3|--- .... ....
....|..|--- .... ....|--- .... B..2|--- .... ....
....|..|--- .... ....|--- .... B..3|--- .... ....
....|..|--- .... ....|--- .... B..2|--- .... ....
....|..|--- .... ....|E-6 .... B..3|--- .... ....
....|..|--- .... ....|--- .... B..2|--- .... ....
....|..|--- .... ....|--- .... B..3|--- .... ....
....|..|--- .... ....|--- .... B..2|--- .... ....
....|..|--- .... ....|E-5 .... B..3|--- .... ....
....|..|--- .... ....|--- .... B..2|--- .... ....
....|..|--- .... ....|--- .... B..3|--- .... ....
....|..|--- .... ....|--- .... B..2|--- .... ....
....|..|--- .... ....|A-5 .... B..3|--- .... ....
....|..|--- .... ....|--- .... B..2|--- .... ....
....|..|--- .... ....|--- .... B..3|--- .... ....
....|..|--- .... ....|--- .... B..2|--- .... ....
....|..|--- .... ....|E-6 .... B..3|--- .... ....
....|..|--- .... ....|--- .... B..2|--- .... ....
....|..|--- .... ....|--- .... B..3|--- .... ....
....|..|--- .... ....|--- .... B..2|--- .... ....
....|..|--- .... ....|E-5 .... B..3|--- .... ....
....|..|--- .... ....|--- .... B..2|--- .... ....
....|..|--- .... ....|--- .... B..3|--- .... ....
....|..|--- .... ....|--- .... B..2|--- .... ....
....|..|--- .... ....|B-5 .... B..3|--- .... ....
....|..|--- .... ....|--- .... B..2|--- .... ....
....|..|--- .... ....|--- .... B..3|--- .... ....
....|..|--- .... ....|--- .... B..2|--- .... ....
....|..|--- .... ....|F#5 .... B..3|--- .... ....
....|..|--- .... ....|--- .... B..2|--- .... ....
....|..|--- .... ....|--- .... B..3|--- .... ....
....|..|--- .... ....|--- .... B..2|--- .... ....
....|..|--- .... ....|B-5 .... B..3|--- .... ....
....|..|--- .... ....|--- .... B..2|--- .... ....
....|..|--- .... ....|--- .... B..3|--- .... ....
....|..|--- .... ....|--- .... B..2|--- .... ....
....|..|--- .... ....|F#6 .... B..3|--- .... ....
....|..|--- .... ....|--- .... B..2|--- .... ....
....|..|--- .... ....|--- .... B..3|--- .... ....
....|..|--- .... ....|--- .... B..2|--- .... ....
....|..|--- .... ....|F#5 .... B..3|--- .... ....
....|..|--- .... ....|--- .... B..2|--- .... ....
....|..|--- .... ....|--- .... B..3|--- .... ....
....|..|--- .... ....|--- .... B..2|--- .... ....
....|..|--- .... ....|B-5 .... B..3|--- .... ....
....|..|--- .... ....|--- .... B..2|--- .... ....
....|..|--- .... ....|--- .... B..3|--- .... ....
....|..|--- .... ....|--- .... B..2|--- .... ....
....|..|--- .... ....|F#6 .... B..3|--- .... ....
....|..|--- .... ....|--- .... B..2|--- .... ....
....|..|--- .... ....|--- .... B..3|--- .... ....
....|..|--- .... ....|--- .... B..2|--- .... ....
....|..|--- .... ....|F#5 .... B..3|--- .... ....
....|..|--- .... ....|--- .... B..2|--- .... ....
....|..|--- .... ....|--- .... B..3|--- .... ....
....|..|--- .... ....|--- .... B..2|--- .... ....
....|..|--- .... ....|G#5 .... B..3|--- .... ....
....|..|--- .... ....|--- .... B..2|--- .... ....
....|..|--- .... ....|--- .... B..3|--- .... ....
....|..|--- .... ....|--- .... B..2|--- .... ....

[Pattern2]
..53|..|E-2 48.F ....|G#5 1F.F B..3|E-4 3F4F ....
....|..|--- .... ....|--- .... B..2|--- .... ....
....|..|--- .... ....|--- .... B..3|--- .... ....
....|..|--- .... ....|--- .... B..2|--- .... ....
..53|..|E-2 .A.. ....|B-5 .... B..3|--- .... ....
....|..|--- .... ....|--- .... B..2|--- .... ....
....|..|--- .... ....|--- .... B..3|--- .... ....
....|..|--- .... ....|--- .... B..2|--- .... ....
....|..|--- .... ....|E-6 .... B..3|--- .... ....
....|..|--- .... ....|--- .... B..2|--- .... ....
....|..|--- .... ....|--- .... B..3|--- .... ....
....|..|--- .... ....|--- .... B..2|--- .... ....
..53|..|E-2 .8.. ....|G#5 .... B..3|--- .... ....
....|..|--- .... ....|--- .... B..2|--- .... ....
....|..|--- .... ....|--- .... B..3|--- .... ....
....|..|--- .... ....|--- .... B..2|--- .... ....
..53|..|E-2 .A.. ....|B-5 .... B..3|--- .... ....
....|..|--- .... ....|--- .... B..2|--- .... ....
....|..|--- .... ....|--- .... B..3|--- .... ....
....|..|--- .... ....|--- .... B..2|--- .... ....
....|..|--- .... ....|E-6 .... B..3|--- .... ....
....|..|--- .... ....|--- .... B..2|--- .... ....
....|..|--- .... ....|--- .... B..3|--- .... ....
....|..|--- .... ....|--- .... B..2|--- .... ....
..53|..|E-2 .8.. ....|G#5 .... B..3|--- .... ....
....|..|--- .... ....|--- .... B..2|--- .... ....
....|..|--- .... ....|--- .... B..3|--- .... ....
....|..|--- .... ....|--- .... B..2|--- .... ....
..53|..|E-2 .A.. ....|A-5 .... B..3|--- .... ....
....|..|--- .... ....|--- .... B..2|--- .... ....
....|..|--- .... ....|--- .... B..3|--- .... ....
....|..|--- .... ....|--- .... B..2|--- .... ....
..37|..|B-2 .8.. ....|F#5 .... B..3|B-4 .... ....
....|..|--- .... ....|--- .... B..2|--- .... ....
....|..|--- .... ....|--- .... B..3|--- .... ....
....|..|--- .... ....|--- .... B..2|--- .... ....
..37|..|B-2 .A.. ....|B-5 .... B..3|--- .... ....
....|..|--- .... ....|--- .... B..2|--- .... ....
....|..|--- .... ....|--- .... B..3|--- .... ....
....|..|--- .... ....|--- .... B..2|--- .... ....
....|..|--- .... ....|F#6 .... B..3|--- .... ....
....|..|--- .... ....|--- .... B..2|--- .... ....
....|..|--- .... ....|--- .... B..3|--- .... ....
....|..|--- .... ....|--- .... B..2|--- .... ....
..37|..|B-2 .8.. ....|F#5 .... B..3|--- .... ....
....|..|--- .... ....|--- .... B..2|--- .... ....
....|..|--- .... ....|--- .... B..3|--- .... ....
....|..|--- .... ....|--- .... B..2|--- .... ....
..37|..|B-2 .A.. ....|B-5 .... B..3|--- .... ....
....|..|--- .... ....|--- .... B..2|--- .... ....
....|..|--- .... ....|--- .... B..3|--- .... ....
....|..|--- .... ....|--- .... B..2|--- .... ....
....|..|--- .... ....|F#6 .... B..3|--- .... ....
....|..|--- .... ....|--- .... B..2|--- .... ....
....|..|--- .... ....|--- .... B..3|--- .... ....
....|..|--- .... ....|--- .... B..2|--- .... ....
..37|..|B-2 .8.. ....|F#5 .... B..3|--- .... ....
....|..|--- .... ....|--- .... B..2|--- .... ....
....|..|--- .... ....|--- .... B..3|--- .... ....
....|..|--- .... ....|--- .... B..2|--- .... ....
..37|..|B-2 .A.. ....|G#5 .... B..3|--- .... ....
....|..|--- .... ....|--- .... B..2|--- .... ....
....|..|--- .... ....|--- .... B..3|--- .... ....
....|..|--- .... ....|--- .... B..2|--- .... ....

[Pattern3]
..3E|..|A-2 48.F ....|E-5 .... B..3|E-4 3F5F ....
....|..|--- .... ....|--- .... B..2|--- .... ....
....|..|--- .... ....|--- .... B..3|--- .... ....
....|..|--- .... ....|--- .... B..2|--- .... ....
..3E|..|A-2 .A.. ....|A-5 .... B..3|--- .... ....
....|..|--- .... ....|--- .... B..2|--- .... ....
....|..|--- .... ....|--- .... B..3|--- .... ....
....|..|--- .... ....|--- .... B..2|--- .... ....
....|..|--- .... ....|E-6 .... B..3|--- .... ....
....|..|--- .... ....|--- .... B..2|--- .... ....
....|..|--- .... ....|--- .... B..3|--- .... ....
....|..|--- .... ....|--- .... B..2|--- .... ....
..3E|..|A-2 .8.. ....|E-5 .... B..3|--- .... ....
....|..|--- .... ....|--- .... B..2|--- .... ....
....|..|--- .... ....|--- .... B..3|--- .... ....
....|..|--- .... ....|--- .... B..2|--- .... ....
..3E|..|A-2 .A.. ....|A-5 .... B..3|--- .... ....
....|..|--- .... ....|--- .... B..2|--- .... ....
....|..|--- .... ....|--- .... B..3|--- .... ....
....|..|--- .... ....|--- .... B..2|--- .... ....
....|..|--- .... ....|E-6 .... B..3|--- .... ....
....|..|--- .... ....|--- .... B..2|--- .... ....
....|..|--- .... ....|--- .... B..3|--- .... ....
....|..|--- .... ....|--- .... B..2|--- .... ....
..3E|..|A-2 .8.. ....|E-5 .... B..3|--- .... ....
....|..|--- .... ....|--- .... B..2|--- .... ....
....|..|--- .... ....|--- .... B..3|--- .... ....
....|..|--- .... ....|--- .... B..2|--- .... ....
..3E|..|A-2 .A.. ....|B-5 .... B..3|--- .... ....
....|..|--- .... ....|--- .... B..2|--- .... ....
....|..|--- .... ....|--- .... B..3|--- .... ....
....|..|--- .... ....|--- .... B..2|--- .... ....
..37|..|B-2 .8.. ....|F#5 .... B..3|B-4 ..4. ....
....|..|--- .... ....|--- .... B..2|--- .... ....
....|..|--- .... ....|--- .... B..3|--- .... ....
....|..|--- .... ....|--- .... B..2|--- .... ....
..37|..|B-2 .A.. ....|B-5 .... B..3|--- .... ....
....|..|--- .... ....|--- .... B..2|--- .... ....
....|..|--- .... ....|--- .... B..3|--- .... ....
....|..|--- .... ....|--- .... B..2|--- .... ....
....|..|--- .... ....|F#6 .... B..3|--- .... ....
....|..|--- .... ....|--- .... B..2|--- .... ....
....|..|--- .... ....|--- .... B..3|--- .... ....
....|..|--- .... ....|--- .... B..2|--- .... ....
..37|..|B-2 .8.. ....|F#5 .... B..3|--- .... ....
....|..|--- .... ....|--- .... B..2|--- .... ....
....|..|--- .... ....|--- .... B..3|--- .... ....
....|..|--- .... ....|--- .... B..2|--- .... ....
..37|..|B-2 .A.. ....|B-5 .... B..3|--- .... ....
....|..|--- .... ....|--- .... B..2|--- .... ....
....|..|--- .... ....|--- .... B..3|--- .... ....
....|..|--- .... ....|--- .... B..2|--- .... ....
....|..|--- .... ....|F#6 .... B..3|--- .... ....
....|..|--- .... ....|--- .... B..2|--- .... ....
....|..|--- .... ....|--- .... B..3|--- .... ....
....|..|--- .... ....|--- .... B..2|--- .... ....
..37|..|B-2 .8.. ....|F#5 .... B..3|--- .... ....
....|..|--- .... ....|--- .... B..2|--- .... ....
....|..|--- .... ....|--- .... B..3|--- .... ....
....|..|--- .... ....|--- .... B..2|--- .... ....
..37|..|B-2 .A.. ....|G#5 .... B..3|--- .... ....
....|..|--- .... ....|--- .... B..2|--- .... ....
....|..|--- .... ....|--- .... B..3|--- .... ....
....|..|--- .... ....|--- .... B..2|--- .... ....

[Pattern4]
..53|..|E-2 48.F ....|G#5 1F.F B..3|E-4 8F4F ....
....|..|--- .... ....|--- .... B..2|--- .... ....
....|..|--- .... ....|--- .... B..3|E-4 6... ....
....|..|--- .... ....|--- .... B..2|--- .... ....
..53|..|E-2 .A.. ....|B-5 .... B..3|E-4 5... ....
....|..|--- .... ....|--- .... B..2|--- .... ....
....|..|--- .... ....|--- .... B..3|E-4 6... ....
....|..|--- .... ....|--- .... B..2|--- .... ....
....|..|--- .... ....|E-6 .... B..3|E-4 7... ....
....|..|--- .... ....|--- .... B..2|--- .... ....
....|..|--- .... ....|--- .... B..3|E-4 6... ....
....|..|--- .... ....|--- .... B..2|--- .... ....
..53|..|E-2 .8.. ....|G#5 .... B..3|E-4 5... ....
....|..|--- .... ....|--- .... B..2|--- .... ....
....|..|--- .... ....|--- .... B..3|E-4 6... ....
....|..|--- .... ....|--- .... B..2|--- .... ....
..53|..|E-2 .A.. ....|B-5 .... B..3|E-4 .... ....
....|..|--- .... ....|--- .... B..2|--- .... ....
....|..|--- .... ....|--- .... B..3|E-4 .... ....
....|..|--- .... ....|--- .... B..2|--- .... ....
....|..|--- .... ....|E-6 .... B..3|E-4 8... ....
....|..|--- .... ....|--- .... B..2|--- .... ....
....|..|--- .... ....|--- .... B..3|E-4 6... ....
....|..|--- .... ....|--- .... B..2|--- .... ....
..53|..|E-2 .8.. ....|G#5 .... B..3|E-4 7... ....
....|..|--- .... ....|--- .... B..2|--- .... ....
....|..|--- .... ....|--- .... B..3|E-4 6... ....
....|..|--- .... ....|--- .... B..2|--- .... ....
..53|..|E-2 .A.. ....|A-5 .... B..3|E-4 5... ....
....|..|--- .... ....|--- .... B..2|--- .... ....
....|..|--- .... ....|--- .... B..3|E-4 6... ....
....|..|--- .... ....|--- .... B..2|--- .... ....
..37|..|B-2 .8.. ....|F#5 .... B..3|B-4 8... ....
....|..|--- .... ....|--- .... B..2|--- .... ....
....|..|--- .... ....|--- .... B..3|B-4 6... ....
....|..|--- .... ....|--- .... B..2|--- .... ....
..37|..|B-2 .A.. ....|B-5 .... B..3|B-4 5... ....
....|..|--- .... ....|--- .... B..2|--- .... ....
....|..|--- .... ....|--- .... B..3|B-4 6... ....
....|..|--- .... ....|--- .... B..2|--- .... ....
....|..|--- .... ....|F#6 .... B..3|B-4 7... ....
....|..|--- .... ....|--- .... B..2|--- .... ....
....|..|--- .... ....|--- .... B..3|B-4 6... ....
....|..|--- .... ....|--- .... B..2|--- .... ....
..37|..|B-2 .8.. ....|F#5 .... B..3|B-4 5... ....
....|..|--- .... ....|--- .... B..2|--- .... ....
....|..|--- .... ....|--- .... B..3|B-4 6... ....
....|..|--- .... ....|--- .... B..2|--- .... ....
..37|..|B-2 .A.. ....|B-5 .... B..3|B-4 .... ....
....|..|--- .... ....|--- .... B..2|--- .... ....
....|..|--- .... ....|--- .... B..3|B-4 .... ....
....|..|--- .... ....|--- .... B..2|--- .... ....
....|..|--- .... ....|F#6 .... B..3|B-4 8... ....
....|..|--- .... ....|--- .... B..2|--- .... ....
....|..|--- .... ....|--- .... B..3|B-4 6... ....
....|..|--- .... ....|--- .... B..2|--- .... ....
..37|..|B-2 .8.. ....|F#5 .... B..3|B-4 7... ....
....|..|--- .... ....|--- .... B..2|--- .... ....
....|..|--- .... ....|--- .... B..3|B-4 8... ....
....|..|--- .... ....|--- .... B..2|--- .... ....
..37|..|B-2 .A.. ....|G#5 .... B..3|B-4 5... ....
....|..|--- .... ....|--- .... B..2|--- .... ....
....|..|--- .... ....|--- .... B..3|B-4 6... ....
....|..|--- .... ....|--- .... B..2|--- .... ....

[Pattern5]
..3E|..|A-2 48.F ....|E-5 .... B..3|E-4 8F5F ....
....|..|--- .... ....|--- .... B..2|--- .... ....
....|..|--- .... ....|--- .... B..3|E-4 6... ....
....|..|--- .... ....|--- .... B..2|--- .... ....
..3E|..|A-2 .A.. ....|A-5 .... B..3|E-4 5... ....
....|..|--- .... ....|--- .... B..2|--- .... ....
....|..|--- .... ....|--- .... B..3|E-4 6... ....
....|..|--- .... ....|--- .... B..2|--- .... ....
....|..|--- .... ....|E-6 .... B..3|E-4 7... ....
....|..|--- .... ....|--- .... B..2|--- .... ....
....|..|--- .... ....|--- .... B..3|E-4 6... ....
....|..|--- .... ....|--- .... B..2|--- .... ....
..3E|..|A-2 .8.. ....|E-5 .... B..3|E-4 5... ....
....|..|--- .... ....|--- .... B..2|--- .... ....
....|..|--- .... ....|--- .... B..3|E-4 6... ....
....|..|--- .... ....|--- .... B..2|--- .... ....
..3E|..|A-2 .A.. ....|A-5 .... B..3|E-4 .... ....
....|..|--- .... ....|--- .... B..2|--- .... ....
....|..|--- .... ....|--- .... B..3|E-4 .... ....
....|..|--- .... ....|--- .... B..2|--- .... ....
....|..|--- .... ....|E-6 .... B..3|E-4 8... ....
....|..|--- .... ....|--- .... B..2|--- .... ....
....|..|--- .... ....|--- .... B..3|E-4 6... ....
....|..|--- .... ....|--- .... B..2|--- .... ....
..3E|..|A-2 .8.. ....|E-5 .... B..3|E-4 7... ....
....|..|--- .... ....|--- .... B..2|--- .... ....
....|..|--- .... ....|--- .... B..3|E-4 6... ....
....|..|--- .... ....|--- .... B..2|--- .... ....
..3E|..|A-2 .A.. ....|B-5 .... B..3|E-4 5... ....
....|..|--- .... ....|--- .... B..2|--- .... ....
....|..|--- .... ....|--- .... B..3|E-4 6... ....
....|..|--- .... ....|--- .... B..2|--- .... ....
..37|..|B-2 .8.. ....|F#5 .... B..3|B-4 8.4. ....
....|..|--- .... ....|--- .... B..2|--- .... ....
....|..|--- .... ....|--- .... B..3|B-4 6... ....
....|..|--- .... ....|--- .... B..2|--- .... ....
..37|..|B-2 .A.. ....|B-5 .... B..3|B-4 5... ....
....|..|--- .... ....|--- .... B..2|--- .... ....
....|..|--- .... ....|--- .... B..3|B-4 6... ....
....|..|--- .... ....|--- .... B..2|--- .... ....
....|..|--- .... ....|F#6 .... B..3|B-4 7... ....
....|..|--- .... ....|--- .... B..2|--- .... ....
....|..|--- .... ....|--- .... B..3|B-4 6... ....
....|..|--- .... ....|--- .... B..2|--- .... ....
..37|..|B-2 .8.. ....|F#5 .... B..3|B-4 5... ....
....|..|--- .... ....|--- .... B..2|--- .... ....
....|..|--- .... ....|--- .... B..3|B-4 6... ....
....|..|--- .... ....|--- .... B..2|--- .... ....
..37|..|B-2 .A.. ....|B-5 .... B..3|B-4 .... ....
....|..|--- .... ....|--- .... B..2|--- .... ....
....|..|--- .... ....|--- .... B..3|B-4 .... ....
....|..|--- .... ....|--- .... B..2|--- .... ....
....|..|--- .... ....|F#6 .... B..3|B-4 8... ....
....|..|--- .... ....|--- .... B..2|--- .... ....
....|..|--- .... ....|--- .... B..3|B-4 6... ....
....|..|--- .... ....|--- .... B..2|--- .... ....
..37|..|B-2 .8.. ....|F#5 .... B..3|B-4 7... ....
....|..|--- .... ....|--- .... B..2|--- .... ....
....|..|--- .... ....|--- .... B..3|B-4 8... ....
....|..|--- .... ....|--- .... B..2|--- .... ....
..37|..|B-2 .A.. ....|G#5 .... B..3|B-4 5... ....
....|..|--- .... ....|--- .... B..2|--- .... ....
....|..|--- .... ....|--- .... B..3|B-4 6... ....
....|..|--- .... ....|--- .... B..2|--- .... ....

[Pattern6]
..53|..|E-2 48.F ....|B-4 1FAF ....|E-4 8F4F B..3
....|..|--- .... ....|--- .... ....|--- .... B..2
....|..|--- .... ....|B-4 ...B ....|E-4 6... B..3
....|..|--- .... ....|--- .... ....|--- .... B..2
..53|..|E-2 .A.. ....|A-4 ...F ....|E-4 5... B..3
....|..|--- .... ....|--- .... ....|--- .... B..2
....|..|--- .... ....|B-4 ...B ....|E-4 6... B..3
....|..|--- .... ....|--- .... ....|--- .... B..2
....|..|--- .... ....|B-4 ...F ....|E-4 7... B..3
....|..|--- .... ....|--- .... ....|--- .... B..2
....|..|--- .... ....|A-4 ...B ....|E-4 6... B..3
....|..|--- .... ....|--- .... ....|--- .... B..2
..53|..|E-2 .8.. ....|E-5 ...F ....|E-4 5... B..3
....|..|--- .... ....|--- .... ....|--- .... B..2
....|..|--- .... ....|B-4 ...B ....|E-4 6... B..3
....|..|--- .... ....|--- .... ....|--- .... B..2
..53|..|E-2 .A.. ....|E-5 ...F ....|E-4 .... B..3
....|..|--- .... ....|--- .... ....|--- .... B..2
....|..|--- .... ....|E-5 ...B ....|E-4 .... B..3
....|..|--- .... ....|--- .... ....|--- .... B..2
....|..|--- .... ....|D-5 ...F ....|E-4 8... B..3
....|..|--- .... ....|--- .... ....|--- .... B..2
....|..|--- .... ....|E-5 ...B ....|E-4 6... B..3
....|..|--- .... ....|--- .... ....|--- .... B..2
..53|..|E-2 .8.. ....|C-5 ...F ....|E-4 7... B..3
....|..|--- .... ....|--- .... ....|--- .... B..2
....|..|--- .... ....|D-5 ...B ....|E-4 6... B..3
....|..|--- .... ....|--- .... ....|--- .... B..2
..53|..|E-2 .A.. ....|B-4 9..F 31.8|E-4 5... B..3
....|..|--- .... ....|--- .... ....|--- .... B..2
....|..|--- .... ....|--- .... ....|E-4 6... B..3
....|..|--- .... ....|--- .... ....|--- .... B..2
..37|..|B-2 .8.. ....|--- .... ....|B-4 8... B..3
....|..|--- .... ....|--- .... ....|--- .... B..2
....|..|--- .... ....|--- .... ....|B-4 6... B..3
....|..|--- .... ....|--- .... ....|--- .... B..2
..37|..|B-2 .A.. ....|--- .... ....|B-4 5... B..3
....|..|--- .... ....|--- .... ....|--- .... B..2
....|..|--- .... ....|--- .... ....|B-4 6... B..3
....|..|--- .... ....|--- .... ....|--- .... B..2
....|..|--- .... ....|--- ...D 11.8|B-4 7... B..3
....|..|--- .... ....|--- .... ....|--- .... B..2
....|..|--- .... ....|--- ...C ....|B-4 6... B..3
....|..|--- .... ....|--- .... ....|--- .... B..2
..37|..|B-2 .8.. ....|--- ...B ....|B-4 5... B..3
....|..|--- .... ....|--- .... ....|--- .... B..2
....|..|--- .... ....|--- ...A ....|B-4 6... B..3
....|..|--- .... ....|--- .... ....|--- .... B..2
..37|..|B-2 .A.. ....|--- ...9 ....|B-4 .... B..3
....|..|--- .... ....|--- .... ....|--- .... B..2
....|..|--- .... ....|--- ...8 ....|B-4 .... B..3
....|..|--- .... ....|--- .... ....|--- .... B..2
....|..|--- .... ....|B-4 ...F ....|B-4 8... B..3
....|..|--- .... ....|--- .... ....|--- .... B..2
....|..|--- .... ....|B-4 ...B ....|B-4 6... B..3
....|..|--- .... ....|--- .... ....|--- .... B..2
..37|..|B-2 .8.. ....|A-4 ...F ....|B-4 7... B..3
....|..|--- .... ....|--- .... ....|--- .... B..2
....|..|--- .... ....|B-4 ...B ....|B-4 8... B..3
....|..|--- .... ....|--- .... ....|--- .... B..2
..37|..|B-2 .A.. ....|G-4 ...F ....|B-4 5... B..3
....|..|--- .... ....|--- .... ....|--- .... B..2
....|..|--- .... ....|A-4 ...B ....|B-4 6... B..3
....|..|--- .... ....|--- .... ....|--- .... B..2

[Pattern7]
..3E|..|A-2 48.F ....|A-4 1FAF ....|E-4 8F5F B..3
....|..|--- .... ....|--- .... ....|--- .... B..2
....|..|--- .... ....|A-4 ...B ....|E-4 6... B..3
....|..|--- .... ....|--- .... ....|--- .... B..2
..3E|..|A-2 .A.. ....|G-4 ...F ....|E-4 5... B..3
....|..|--- .... ....|--- .... ....|--- .... B..2
....|..|--- .... ....|A-4 ...B ....|E-4 6... B..3
....|..|--- .... ....|--- .... ....|--- .... B..2
....|..|--- .... ....|A-4 ...F ....|E-4 7... B..3
....|..|--- .... ....|--- .... ....|--- .... B..2
....|..|--- .... ....|G-4 ...B ....|E-4 6... B..3
....|..|--- .... ....|--- .... ....|--- .... B..2
..3E|..|A-2 .8.. ....|E-5 ...F ....|E-4 5... B..3
....|..|--- .... ....|--- .... ....|--- .... B..2
....|..|--- .... ....|A-4 ...B ....|E-4 6... B..3
....|..|--- .... ....|--- .... ....|--- .... B..2
..3E|..|A-2 .A.. ....|E-5 ...F ....|E-4 .... B..3
....|..|--- .... ....|--- .... ....|--- .... B..2
....|..|--- .... ....|E-5 ...B ....|E-4 .... B..3
....|..|--- .... ....|--- .... ....|--- .... B..2
....|..|--- .... ....|D-5 ...F ....|E-4 8... B..3
....|..|--- .... ....|--- .... ....|--- .... B..2
....|..|--- .... ....|E-5 ...B ....|E-4 6... B..3
....|..|--- .... ....|--- .... ....|--- .... B..2
..3E|..|A-2 .8.. ....|C-5 ...F ....|E-4 7... B..3
....|..|--- .... ....|--- .... ....|--- .... B..2
....|..|--- .... ....|D-5 ...B ....|E-4 6... B..3
....|..|--- .... ....|--- .... ....|--- .... B..2
..3E|..|A-2 .A.. ....|B-4 9..F 31.8|E-4 5... B..3
....|..|--- .... ....|--- .... ....|--- .... B..2
....|..|--- .... ....|--- .... ....|E-4 6... B..3
....|..|--- .... ....|--- .... ....|--- .... B..2
..37|..|B-2 .8.. ....|--- .... ....|B-4 8.4. B..3
....|..|--- .... ....|--- .... ....|--- .... B..2
....|..|--- .... ....|--- .... ....|B-4 6... B..3
....|..|--- .... ....|--- .... ....|--- .... B..2
..37|..|B-2 .A.. ....|--- .... ....|B-4 5... B..3
....|..|--- .... ....|--- .... ....|--- .... B..2
....|..|--- .... ....|--- .... ....|B-4 6... B..3
....|..|--- .... ....|--- .... ....|--- .... B..2
....|..|--- .... ....|--- ...D 11.8|B-4 7... B..3
....|..|--- .... ....|--- .... ....|--- .... B..2
....|..|--- .... ....|--- ...C ....|B-4 6... B..3
....|..|--- .... ....|--- .... ....|--- .... B..2
..37|..|B-2 .8.. ....|--- ...B ....|B-4 5... B..3
....|..|--- .... ....|--- .... ....|--- .... B..2
....|..|--- .... ....|--- ...A ....|B-4 6... B..3
....|..|--- .... ....|--- .... ....|--- .... B..2
..37|..|B-2 .A.. ....|--- ...9 ....|B-4 .... B..3
....|..|--- .... ....|--- .... ....|--- .... B..2
....|..|--- .... ....|--- ...8 ....|B-4 .... B..3
....|..|--- .... ....|--- .... ....|--- .... B..2
....|..|--- .... ....|B-4 ...F ....|B-4 8... B..3
....|..|--- .... ....|--- .... ....|--- .... B..2
....|..|--- .... ....|--- ...B ....|B-4 6... B..3
....|..|--- .... ....|--- .... ....|--- .... B..2
..37|..|B-2 .8.. ....|A-4 ...F ....|B-4 7... B..3
....|..|--- .... ....|--- .... ....|--- .... B..2
....|..|--- .... ....|--- ...B ....|B-4 8... B..3
....|..|--- .... ....|--- .... ....|--- .... B..2
..37|..|B-2 .A.. ....|G-4 ...F ....|B-4 5... B..3
....|..|--- .... ....|--- .... ....|--- .... B..2
....|..|--- .... ....|--- ...B ....|B-4 6... B..3
....|..|--- .... ....|--- .... ....|--- .... B..2

[Pattern8]
..53|..|C-4 AA.F ....|B-4 1FAF ....|E-4 8F4F B..3
....|..|--- .... ....|--- .... ....|--- .... B..2
....|..|--- .... ....|B-4 ...B ....|E-4 6... B..3
....|..|--- .... ....|--- .... ....|--- .... B..2
..53|..|C-4 48.. ....|A-4 ...F ....|E-4 5... B..3
....|..|--- .... ....|--- .... ....|--- .... B..2
....|..|--- .... ....|B-4 ...B ....|E-4 6... B..3
....|..|--- .... ....|--- .... ....|--- .... B..2
..53|..|C-4 AA.. ....|B-4 ...F ....|E-4 7... B..3
....|..|--- .... ....|--- .... ....|--- .... B..2
....|..|--- .... ....|A-4 ...B ....|E-4 6... B..3
....|..|--- .... ....|--- .... ....|--- .... B..2
..53|..|C-4 48.. ....|E-5 ...F ....|E-4 5... B..3
....|..|--- .... ....|--- .... ....|--- .... B..2
....|..|--- .... ....|B-4 ...B ....|E-4 6... B..3
....|..|--- .... ....|--- .... ....|--- .... B..2
..53|..|C-4 AA.. ....|E-5 ...F ....|E-4 .... B..3
....|..|--- .... ....|--- .... ....|--- .... B..2
....|..|--- .... ....|E-5 ...B ....|E-4 .... B..3
....|..|--- .... ....|--- .... ....|--- .... B..2
..53|..|C-4 48.. ....|D-5 ...F ....|E-4 8... B..3
....|..|--- .... ....|--- .... ....|--- .... B..2
....|..|--- .... ....|E-5 ...B ....|E-4 6... B..3
....|..|--- .... ....|--- .... ....|--- .... B..2
..53|..|C-4 AA.. ....|C-5 ...F ....|E-4 7... B..3
....|..|--- .... ....|--- .... ....|--- .... B..2
....|..|--- .... ....|D-5 ...B ....|E-4 6... B..3
....|..|--- .... ....|--- .... ....|--- .... B..2
..53|..|C-4 48.. ....|B-4 9..F 31.8|E-4 5... B..3
....|..|--- .... ....|--- .... ....|--- .... B..2
....|..|--- .... ....|--- .... ....|E-4 6... B..3
....|..|--- .... ....|--- .... ....|--- .... B..2
..37|..|C-4 AA.. ....|--- .... ....|B-4 8... B..3
....|..|--- .... ....|--- .... ....|--- .... B..2
....|..|--- .... ....|--- .... ....|B-4 6... B..3
....|..|--- .... ....|--- .... ....|--- .... B..2
..37|..|C-4 48.. ....|--- .... ....|B-4 5... B..3
....|..|--- .... ....|--- .... ....|--- .... B..2
....|..|--- .... ....|--- .... ....|B-4 6... B..3
....|..|--- .... ....|--- .... ....|--- .... B..2
..37|..|C-4 AA.. ....|--- ...D 11.8|B-4 7... B..3
....|..|--- .... ....|--- .... ....|--- .... B..2
....|..|--- .... ....|--- ...C ....|B-4 6... B..3
....|..|--- .... ....|--- .... ....|--- .... B..2
..37|..|C-4 48.. ....|--- ...B ....|B-4 5... B..3
....|..|--- .... ....|--- .... ....|--- .... B..2
....|..|--- .... ....|--- ...A ....|B-4 6... B..3
....|..|--- .... ....|--- .... ....|--- .... B..2
..37|..|C-4 AA.. ....|--- ...9 ....|B-4 .... B..3
....|..|--- .... ....|--- .... ....|--- .... B..2
....|..|--- .... ....|--- ...8 ....|B-4 .... B..3
....|..|--- .... ....|--- .... ....|--- .... B..2
..37|..|C-4 48.. ....|B-4 ...F ....|B-4 8... B..3
....|..|--- .... ....|--- .... ....|--- .... B..2
....|..|--- .... ....|B-4 ...B ....|B-4 6... B..3
....|..|--- .... ....|--- .... ....|--- .... B..2
..37|..|C-4 AA.. ....|A-4 ...F ....|B-4 7... B..3
....|..|--- .... ....|--- .... ....|--- .... B..2
....|..|--- .... ....|B-4 ...B ....|B-4 8... B..3
....|..|--- .... ....|--- .... ....|--- .... B..2
..37|..|C-4 48.. ....|G-4 ...F ....|B-4 5... B..3
....|..|--- .... ....|--- .... ....|--- .... B..2
....|..|--- .... ....|A-4 ...B ....|B-4 6... B..3
....|..|--- .... ....|--- .... ....|--- .... B..2

[Pattern9]
..3E|..|C-4 AA.F ....|A-4 1FAF ....|E-4 8F5F B..3
....|..|--- .... ....|--- .... ....|--- .... B..2
....|..|--- .... ....|A-4 ...B ....|E-4 6... B..3
....|..|--- .... ....|--- .... ....|--- .... B..2
..3E|..|C-4 48.. ....|G-4 ...F ....|E-4 5... B..3
....|..|--- .... ....|--- .... ....|--- .... B..2
....|..|--- .... ....|A-4 ...B ....|E-4 6... B..3
....|..|--- .... ....|--- .... ....|--- .... B..2
..3E|..|C-4 AA.. ....|A-4 ...F ....|E-4 7... B..3
....|..|--- .... ....|--- .... ....|--- .... B..2
....|..|--- .... ....|G-4 ...B ....|E-4 6... B..3
....|..|--- .... ....|--- .... ....|--- .... B..2
..3E|..|C-4 48.. ....|E-5 ...F ....|E-4 5... B..3
....|..|--- .... ....|--- .... ....|--- .... B..2
....|..|--- .... ....|A-4 ...B ....|E-4 6... B..3
....|..|--- .... ....|--- .... ....|--- .... B..2
..3E|..|C-4 AA.. ....|E-5 ...F ....|E-4 .... B..3
....|..|--- .... ....|--- .... ....|--- .... B..2
....|..|--- .... ....|E-5 ...B ....|E-4 .... B..3
....|..|--- .... ....|--- .... ....|--- .... B..2
..3E|..|C-4 48.. ....|D-5 ...F ....|E-4 8... B..3
....|..|--- .... ....|--- .... ....|--- .... B..2
....|..|--- .... ....|E-5 ...B ....|E-4 6... B..3
....|..|--- .... ....|--- .... ....|--- .... B..2
..3E|..|C-4 AA.. ....|C-5 ...F ....|E-4 7... B..3
....|..|--- .... ....|--- .... ....|--- .... B..2
....|..|--- .... ....|D-5 ...B ....|E-4 6... B..3
....|..|--- .... ....|--- .... ....|--- .... B..2
..3E|..|C-4 48.. ....|B-4 9..F 31.8|E-4 5... B..3
....|..|--- .... ....|--- .... ....|--- .... B..2
....|..|--- .... ....|--- .... ....|E-4 6... B..3
....|..|--- .... ....|--- .... ....|--- .... B..2
..37|..|C-4 AA.. ....|--- .... ....|B-4 8.4. B..3
....|..|--- .... ....|--- .... ....|--- .... B..2
....|..|--- .... ....|--- .... ....|B-4 6... B..3
....|..|--- .... ....|--- .... ....|--- .... B..2
..37|..|C-4 48.. ....|--- .... ....|B-4 5... B..3
....|..|--- .... ....|--- .... ....|--- .... B..2
....|..|--- .... ....|--- .... ....|B-4 6... B..3
....|..|--- .... ....|--- .... ....|--- .... B..2
..37|..|C-4 AA.. ....|--- ...D 11.8|B-4 7... B..3
....|..|--- .... ....|--- .... ....|--- .... B..2
....|..|--- .... ....|--- ...C ....|B-4 6... B..3
....|..|--- .... ....|--- .... ....|--- .... B..2
..37|..|C-4 48.. ....|--- ...B ....|B-4 5... B..3
....|..|--- .... ....|--- .... ....|--- .... B..2
....|..|--- .... ....|--- ...A ....|B-4 6... B..3
....|..|--- .... ....|--- .... ....|--- .... B..2
..37|..|C-4 AA.. ....|--- ...9 ....|B-4 .... B..3
....|..|--- .... ....|--- .... ....|--- .... B..2
....|..|--- .... ....|--- ...8 ....|B-4 .... B..3
....|..|--- .... ....|--- .... ....|--- .... B..2
..37|..|C-4 48.. ....|B-4 ...F ....|B-4 8... B..3
....|..|--- .... ....|--- .... ....|--- .... B..2
....|..|--- .... ....|--- ...B ....|B-4 6... B..3
....|..|--- .... ....|--- .... ....|--- .... B..2
..37|..|C-4 .A.. ....|A-4 ...F ....|B-4 7... B..3
....|..|--- .... ....|--- .... ....|--- .... B..2
....|..|--- .... ....|--- ...B ....|B-4 .... B..3
....|..|--- .... ....|--- .... ....|--- .... B..2
..37|..|C-4 .8.. ....|G-4 ...F ....|B-4 .... B..3
....|..|--- .... ....|--- .... ....|--- .... B..2
....|..|--- .... ....|--- ...B ....|B-4 .... B..3
....|..|--- .... ....|--- .... ....|--- .... B..2

[Pattern10]
..53|..|C-4 AA.F ....|G#5 1FFF B..3|E-4 8F4F ....
....|..|--- .... ....|--- .... B..2|--- .... ....
....|..|--- .... ....|G#5 ...B B..3|E-4 6... ....
....|..|--- .... ....|--- .... B..2|--- .... ....
..53|..|C-4 48.. ....|B-5 ...F B..3|E-4 5... ....
....|..|--- .... ....|--- .... B..2|--- .... ....
....|..|--- .... ....|G#5 ...B B..3|E-4 6... ....
....|..|--- .... ....|--- .... B..2|--- .... ....
..53|..|C-4 AA.. ....|E-6 ...F B..3|E-4 7... ....
....|..|--- .... ....|--- .... B..2|--- .... ....
....|..|--- .... ....|B-5 ...B B..3|E-4 6... ....
....|..|--- .... ....|--- .... B..2|--- .... ....
..53|..|C-4 48.. ....|G#5 ...F B..3|E-4 5... ....
....|..|--- .... ....|--- .... B..2|--- .... ....
....|..|--- .... ....|E-6 ...B B..3|E-4 6... ....
....|..|--- .... ....|--- .... B..2|--- .... ....
..53|..|C-4 AA.. ....|B-5 ...F B..3|E-4 8... ....
....|..|--- .... ....|--- .... B..2|--- .... ....
....|..|--- .... ....|G#5 ...B B..3|E-4 6... ....
....|..|--- .... ....|--- .... B..2|--- .... ....
..53|..|C-4 48.. ....|E-6 ...F B..3|E-4 5... ....
....|..|--- .... ....|--- .... B..2|--- .... ....
....|..|--- .... ....|B-5 ...B B..3|E-4 6... ....
....|..|--- .... ....|--- .... B..2|--- .... ....
..53|..|C-4 AA.. ....|G#5 ...F B..3|E-4 7... ....
....|..|--- .... ....|--- .... B..2|--- .... ....
....|..|--- .... ....|E-6 ...B B..3|E-4 6... ....
....|..|--- .... ....|--- .... B..2|--- .... ....
..53|..|C-4 48.. ....|A-5 ...F B..3|E-4 5... ....
....|..|--- .... ....|--- .... B..2|--- .... ....
....|..|--- .... ....|G#5 ...B B..3|E-4 6... ....
....|..|--- .... ....|--- .... B..2|--- .... ....
..37|..|C-4 AA.. ....|F#5 ...F B..3|B-4 8... ....
....|..|--- .... ....|--- .... B..2|--- .... ....
....|..|--- .... ....|A-5 ...B B..3|B-4 6... ....
....|..|--- .... ....|--- .... B..2|--- .... ....
..37|..|C-4 48.. ....|B-5 ...F B..3|B-4 5... ....
....|..|--- .... ....|--- .... B..2|--- .... ....
....|..|--- .... ....|F#5 ...B B..3|B-4 6... ....
....|..|--- .... ....|--- .... B..2|--- .... ....
..37|..|C-4 AA.. ....|F#6 ...F B..3|B-4 7... ....
....|..|--- .... ....|--- .... B..2|--- .... ....
....|..|--- .... ....|B-5 ...B B..3|B-4 6... ....
....|..|--- .... ....|--- .... B..2|--- .... ....
..37|..|C-4 48.. ....|F#5 ...F B..3|B-4 5... ....
....|..|--- .... ....|--- .... B..2|--- .... ....
....|..|--- .... ....|F#6 ...B B..3|B-4 6... ....
....|..|--- .... ....|--- .... B..2|--- .... ....
..37|..|C-4 AA.. ....|B-5 ...F B..3|B-4 8... ....
....|..|--- .... ....|--- .... B..2|--- .... ....
....|..|--- .... ....|F#5 ...B B..3|B-4 6... ....
....|..|--- .... ....|--- .... B..2|--- .... ....
..37|..|C-4 48.. ....|F#6 ...F B..3|B-4 5... ....
....|..|--- .... ....|--- .... B..2|--- .... ....
....|..|--- .... ....|B-5 ...B B..3|B-4 6... ....
....|..|--- .... ....|--- .... B..2|--- .... ....
..37|..|C-4 AA.. ....|F#5 ...F B..3|B-4 7... ....
....|..|--- .... ....|--- .... B..2|--- .... ....
....|..|--- .... ....|F#6 ...B B..3|B-4 6... ....
....|..|--- .... ....|--- .... B..2|--- .... ....
..37|..|C-4 48.. ....|G#5 ...F B..3|B-4 5... ....
....|..|--- .... ....|--- .... B..2|--- .... ....
....|..|--- .... ....|F#5 ...B B..3|B-4 6... ....
....|..|--- .... ....|--- .... B..2|--- .... ....

[Pattern11]
..3E|..|C-4 AA.F ....|E-5 1FFF B..3|E-4 8F5F ....
....|..|--- .... ....|--- .... B..2|--- .... ....
....|..|--- .... ....|E-5 ...B B..3|E-4 6... ....
....|..|--- .... ....|--- .... B..2|--- .... ....
..3E|..|C-4 48.. ....|A-5 ...F B..3|E-4 5... ....
....|..|--- .... ....|--- .... B..2|--- .... ....
....|..|--- .... ....|E-5 ...B B..3|E-4 6... ....
....|..|--- .... ....|--- .... B..2|--- .... ....
..3E|..|C-4 AA.. ....|E-6 ...F B..3|E-4 7... ....
....|..|--- .... ....|--- .... B..2|--- .... ....
....|..|--- .... ....|A-5 ...B B..3|E-4 6... ....
....|..|--- .... ....|--- .... B..2|--- .... ....
..3E|..|C-4 48.. ....|E-5 ...F B..3|E-4 5... ....
....|..|--- .... ....|--- .... B..2|--- .... ....
....|..|--- .... ....|E-6 ...B B..3|E-4 6... ....
....|..|--- .... ....|--- .... B..2|--- .... ....
..3E|..|C-4 AA.. ....|A-5 ...F B..3|E-4 8... ....
....|..|--- .... ....|--- .... B..2|--- .... ....
....|..|--- .... ....|E-6 ...B B..3|E-4 6... ....
....|..|--- .... ....|--- .... B..2|--- .... ....
..3E|..|C-4 48.. ....|E-6 ...F B..3|E-4 5... ....
....|..|--- .... ....|--- .... B..2|--- .... ....
....|..|--- .... ....|A-5 ...B B..3|E-4 6... ....
....|..|--- .... ....|--- .... B..2|--- .... ....
..3E|..|C-4 AA.. ....|E-5 ...F B..3|E-4 7... ....
....|..|--- .... ....|--- .... B..2|--- .... ....
....|..|--- .... ....|E-6 ...B B..3|E-4 6... ....
....|..|--- .... ....|--- .... B..2|--- .... ....
..3E|..|C-4 48.. ....|B-5 ...F B..3|E-4 5... ....
....|..|--- .... ....|--- .... B..2|--- .... ....
....|..|--- .... ....|E-6 ...B B..3|E-4 6... ....
....|..|--- .... ....|--- .... B..2|--- .... ....
..37|..|C-4 AA.. ....|F#5 ...F B..3|B-4 8.4. ....
....|..|--- .... ....|--- .... B..2|--- .... ....
....|..|--- .... ....|B-5 ...B B..3|B-4 6... ....
....|..|--- .... ....|--- .... B..2|--- .... ....
..37|..|C-4 48.. ....|B-5 ...F B..3|B-4 5... ....
....|..|--- .... ....|--- .... B..2|--- .... ....
....|..|--- .... ....|F#5 ...B B..3|B-4 6... ....
....|..|--- .... ....|--- .... B..2|--- .... ....
..37|..|C-4 AA.. ....|F#6 ...F B..3|B-4 7... ....
....|..|--- .... ....|--- .... B..2|--- .... ....
....|..|--- .... ....|B-5 ...B B..3|B-4 6... ....
....|..|--- .... ....|--- .... B..2|--- .... ....
..37|..|C-4 48.. ....|F#5 ...F B..3|B-4 5... ....
....|..|--- .... ....|--- .... B..2|--- .... ....
....|..|--- .... ....|F#6 ...B B..3|B-4 6... ....
....|..|--- .... ....|--- .... B..2|--- .... ....
..37|..|C-4 AA.. ....|B-5 ...F B..3|B-4 8... ....
....|..|--- .... ....|--- .... B..2|--- .... ....
....|..|--- .... ....|F#5 ...B B..3|B-4 6... ....
....|..|--- .... ....|--- .... B..2|--- .... ....
..37|..|C-4 48.. ....|F#6 ...F B..3|B-4 5... ....
....|..|--- .... ....|--- .... B..2|--- .... ....
....|..|--- .... ....|B-5 ...B B..3|B-4 8... ....
....|..|--- .... ....|--- .... B..2|--- .... ....
..37|..|C-4 AA.. ....|F#5 ...F B..3|B-4 7... ....
....|..|--- .... ....|--- .... B..2|--- .... ....
....|..|--- .... ....|F#6 ...B B..3|B-4 6... ....
....|..|--- .... ....|--- .... B..2|--- .... ....
..37|..|C-4 48.. ....|G#5 ...F B..3|B-4 7... ....
....|..|--- .... ....|--- .... B..2|--- .... ....
....|..|--- .... ....|F#5 ...B B..3|B-4 .... ....
....|..|--- .... ....|--- .... B..2|--- .... ....

[Pattern12]
..53|..|C-4 AA.F ....|G#4 9F.F ....|E-4 8F4F B..3
....|..|--- .... ....|--- .... ....|--- .... B..2
....|..|--- .... ....|--- .... ....|E-4 6... B..3
....|..|--- .... ....|--- .... ....|--- .... B..2
..53|..|C-4 48.. ....|--- .... ....|E-4 5... B..3
....|..|--- .... ....|--- .... ....|--- .... B..2
....|..|--- .... ....|--- .... ....|E-4 6... B..3
....|..|--- .... ....|--- .... ....|--- .... B..2
..53|..|C-4 AA.. ....|--- .... ....|E-4 7... B..3
....|..|--- .... ....|--- .... ....|--- .... B..2
....|..|--- .... ....|--- .... ....|E-4 6... B..3
....|..|--- .... ....|--- .... ....|--- .... B..2
..53|..|C-4 48.. ....|--- .... ....|E-4 5... B..3
....|..|--- .... ....|--- .... ....|--- .... B..2
....|..|--- .... ....|--- .... ....|E-4 6... B..3
....|..|--- .... ....|--- .... ....|--- .... B..2
..53|..|C-4 AA.. ....|--- .... ....|E-4 8... B..3
....|..|--- .... ....|--- .... ....|--- .... B..2
....|..|--- .... ....|--- .... ....|E-4 6... B..3
....|..|--- .... ....|--- .... ....|--- .... B..2
..53|..|C-4 48.. ....|G#4 .... ....|E-4 5... B..3
....|..|--- .... ....|--- .... ....|--- .... B..2
....|..|--- .... ....|G#4 ...B ....|E-4 6... B..3
....|..|--- .... ....|--- .... ....|--- .... B..2
..53|..|C-4 AA.. ....|E-4 ...F ....|E-4 7... B..3
....|..|--- .... ....|--- .... ....|--- .... B..2
....|..|--- .... ....|G#4 ...B ....|E-4 6... B..3
....|..|--- .... ....|--- .... ....|--- .... B..2
..53|..|C-4 48.. ....|F#4 ...F ....|E-4 5... B..3
....|..|--- .... ....|--- .... ....|--- .... B..2
....|..|--- .... ....|--- .... ....|E-4 6... B..3
....|..|--- .... ....|--- .... ....|--- .... B..2
..37|..|C-4 AA.. ....|--- .... ....|B-4 8... B..3
....|..|--- .... ....|--- .... ....|--- .... B..2
....|..|--- .... ....|--- .... ....|B-4 6... B..3
....|..|--- .... ....|--- .... ....|--- .... B..2
..37|..|C-4 48.. ....|--- .... ....|B-4 5... B..3
....|..|--- .... ....|--- .... ....|--- .... B..2
....|..|--- .... ....|--- .... ....|B-4 6... B..3
....|..|--- .... ....|--- .... ....|--- .... B..2
..37|..|C-4 AA.. ....|--- .... ....|B-4 7... B..3
....|..|--- .... ....|--- .... ....|--- .... B..2
....|..|--- .... ....|--- .... ....|B-4 6... B..3
....|..|--- .... ....|--- .... ....|--- .... B..2
..37|..|C-4 48.. ....|--- .... ....|B-4 5... B..3
....|..|--- .... ....|--- .... ....|--- .... B..2
....|..|--- .... ....|--- .... ....|B-4 6... B..3
....|..|--- .... ....|--- .... ....|--- .... B..2
..37|..|C-4 AA.. ....|--- .... ....|B-4 8... B..3
....|..|--- .... ....|--- .... ....|--- .... B..2
....|..|--- .... ....|--- .... ....|B-4 6... B..3
....|..|--- .... ....|--- .... ....|--- .... B..2
..37|..|C-4 48.. ....|--- .... ....|B-4 5... B..3
....|..|--- .... ....|--- .... ....|--- .... B..2
....|..|--- .... ....|--- .... ....|B-4 6... B..3
....|..|--- .... ....|--- .... ....|--- .... B..2
..37|..|C-4 AA.. ....|F#4 .... ....|B-4 7... B..3
....|..|--- .... ....|--- .... ....|--- .... B..2
....|..|--- .... ....|F#4 ...B ....|B-4 6... B..3
....|..|--- .... ....|--- .... ....|--- .... B..2
..37|..|C-4 48.. ....|A-4 ...F 31.8|B-4 5... B..3
....|..|--- .... ....|--- .... ....|--- .... B..2
....|..|--- .... ....|--- .... ....|B-4 6... B..3
....|..|--- .... ....|--- .... ....|--- .... B..2

[Pattern13]
..3E|..|C-4 AA.F ....|--- .... ....|E-4 8F5F B..3
....|..|--- .... ....|--- .... ....|--- .... B..2
....|..|--- .... ....|--- .... ....|E-4 6... B..3
....|..|--- .... ....|--- .... ....|--- .... B..2
..3E|..|C-4 48.. ....|--- .... ....|E-4 5... B..3
....|..|--- .... ....|--- .... ....|--- .... B..2
....|..|--- .... ....|--- .... ....|E-4 6... B..3
....|..|--- .... ....|--- .... ....|--- .... B..2
..3E|..|C-4 AA.. ....|--- .... ....|E-4 7... B..3
....|..|--- .... ....|--- .... ....|--- .... B..2
....|..|--- .... ....|--- .... ....|E-4 6... B..3
....|..|--- .... ....|--- .... ....|--- .... B..2
..3E|..|C-4 48.. ....|--- .... ....|E-4 5... B..3
....|..|--- .... ....|--- .... ....|--- .... B..2
....|..|--- .... ....|--- .... ....|E-4 6... B..3
....|..|--- .... ....|--- .... ....|--- .... B..2
..3E|..|C-4 AA.. ....|--- ...D 11.8|E-4 8... B..3
....|..|--- .... ....|--- .... ....|--- .... B..2
....|..|--- .... ....|--- .... ....|E-4 6... B..3
....|..|--- .... ....|--- .... ....|--- .... B..2
..3E|..|C-4 48.. ....|--- .... ....|E-4 5... B..3
....|..|--- .... ....|--- .... ....|--- .... B..2
....|..|--- .... ....|--- .... ....|E-4 6... B..3
....|..|--- .... ....|--- .... ....|--- .... B..2
..3E|..|C-4 AA.. ....|A-4 ...F ....|E-4 7... B..3
....|..|--- .... ....|--- .... ....|--- .... B..2
....|..|--- .... ....|--- .... ....|E-4 6... B..3
....|..|--- .... ....|--- .... ....|--- .... B..2
..3E|..|C-4 48.. ....|E-5 .... 3110|E-4 5... B..3
....|..|--- .... ....|--- .... ....|--- .... B..2
....|..|--- .... ....|--- .... ....|E-4 6... B..3
....|..|--- .... ....|--- .... ....|--- .... B..2
..37|..|C-4 AA.. ....|--- .... ....|B-4 8.4. B..3
....|..|--- .... ....|--- .... ....|--- .... B..2
....|..|--- .... ....|--- .... ....|B-4 6... B..3
....|..|--- .... ....|--- .... ....|--- .... B..2
..37|..|C-4 48.. ....|--- .... ....|B-4 5... B..3
....|..|--- .... ....|--- .... ....|--- .... B..2
....|..|--- .... ....|--- .... ....|B-4 6... B..3
....|..|--- .... ....|--- .... ....|--- .... B..2
..37|..|C-4 AA.. ....|B-4 .... ....|B-4 7... B..3
....|..|--- .... ....|--- .... ....|--- .... B..2
....|..|--- .... ....|--- .... ....|B-4 6... B..3
....|..|--- .... ....|--- .... ....|--- .... B..2
..37|..|C-4 48.. ....|--- .... ....|B-4 5... B..3
....|..|--- .... ....|--- .... ....|--- .... B..2
....|..|--- .... ....|--- .... ....|B-4 6... B..3
....|..|--- .... ....|--- .... ....|--- .... B..2
..37|..|C-4 AA.. ....|A-4 .... ....|B-4 8... B..3
....|..|--- .... ....|--- .... ....|--- .... B..2
....|..|--- .... ....|--- .... ....|B-4 6... B..3
....|..|--- .... ....|--- .... ....|--- .... B..2
..37|..|C-4 48.. ....|--- .... ....|B-4 5... B..3
....|..|--- .... ....|--- .... ....|--- .... B..2
....|..|--- .... ....|--- .... ....|B-4 8... B..3
....|..|--- .... ....|--- .... ....|--- .... B..2
..37|..|C-4 AA.. ....|B-4 .... ....|B-4 7... B..3
....|..|--- .... ....|--- .... ....|--- .... B..2
....|..|--- .... ....|--- .... ....|B-4 6... B..3
....|..|--- .... ....|--- .... ....|--- .... B..2
..37|..|C-4 48.. ....|--- .... ....|B-4 7... B..3
....|..|--- .... ....|--- .... ....|--- .... B..2
....|..|--- .... ....|--- .... ....|B-4 .... B..3
....|..|--- .... ....|--- .... ....|--- .... B..2

[Pattern14]
..53|..|C-4 AA.F ....|G#4 9F.F ....|E-4 8F4F B..3
....|..|--- .... ....|--- .... ....|--- .... B..2
....|..|--- .... ....|--- .... ....|E-4 6... B..3
....|..|--- .... ....|--- .... ....|--- .... B..2
..53|..|C-4 48.. ....|--- .... ....|E-4 5... B..3
....|..|--- .... ....|--- .... ....|--- .... B..2
....|..|--- .... ....|--- .... ....|E-4 6... B..3
....|..|--- .... ....|--- .... ....|--- .... B..2
..53|..|C-4 AA.. ....|--- .... ....|E-4 7... B..3
....|..|--- .... ....|--- .... ....|--- .... B..2
....|..|--- .... ....|--- .... ....|E-4 6... B..3
....|..|--- .... ....|--- .... ....|--- .... B..2
..53|..|C-4 48.. ....|--- .... ....|E-4 5... B..3
....|..|--- .... ....|--- .... ....|--- .... B..2
....|..|--- .... ....|--- .... ....|E-4 6... B..3
....|..|--- .... ....|--- .... ....|--- .... B..2
..53|..|C-4 AA.. ....|--- .... ....|E-4 8... B..3
....|..|--- .... ....|--- .... ....|--- .... B..2
....|..|--- .... ....|--- .... ....|E-4 6... B..3
....|..|--- .... ....|--- .... ....|--- .... B..2
..53|..|C-4 48.. ....|G#4 .... ....|E-4 5... B..3
....|..|--- .... ....|--- .... ....|--- .... B..2
....|..|--- .... ....|G#4 ...B ....|E-4 6... B..3
....|..|--- .... ....|--- .... ....|--- .... B..2
..53|..|C-4 AA.. ....|E-4 ...F ....|E-4 7... B..3
....|..|--- .... ....|--- .... ....|--- .... B..2
....|..|--- .... ....|G#4 ...B ....|E-4 6... B..3
....|..|--- .... ....|--- .... ....|--- .... B..2
..53|..|C-4 48.. ....|F#4 ...F ....|E-4 5... B..3
....|..|--- .... ....|--- .... ....|--- .... B..2
....|..|--- .... ....|--- .... ....|E-4 6... B..3
....|..|--- .... ....|--- .... ....|--- .... B..2
..37|..|C-4 AA.. ....|--- .... ....|B-4 8... B..3
....|..|--- .... ....|--- .... ....|--- .... B..2
....|..|--- .... ....|--- .... ....|B-4 6... B..3
....|..|--- .... ....|--- .... ....|--- .... B..2
..37|..|C-4 48.. ....|--- .... ....|B-4 5... B..3
....|..|--- .... ....|--- .... ....|--- .... B..2
....|..|--- .... ....|--- .... ....|B-4 6... B..3
....|..|--- .... ....|--- .... ....|--- .... B..2
..37|..|C-4 AA.. ....|--- .... ....|B-4 7... B..3
....|..|--- .... ....|--- .... ....|--- .... B..2
....|..|--- .... ....|--- .... ....|B-4 6... B..3
....|..|--- .... ....|--- .... ....|--- .... B..2
..37|..|C-4 48.. ....|--- ...D 11.8|B-4 5... B..3
....|..|--- .... ....|--- .... ....|--- .... B..2
....|..|--- .... ....|--- .... ....|B-4 6... B..3
....|..|--- .... ....|--- .... ....|--- .... B..2
..37|..|C-4 AA.. ....|--- .... ....|B-4 8... B..3
....|..|--- .... ....|--- .... ....|--- .... B..2
....|..|--- .... ....|--- .... ....|B-4 6... B..3
....|..|--- .... ....|--- .... ....|--- .... B..2
..37|..|C-4 48.. ....|--- .... ....|B-4 5... B..3
....|..|--- .... ....|--- .... ....|--- .... B..2
....|..|--- .... ....|--- .... ....|B-4 6... B..3
....|..|--- .... ....|--- .... ....|--- .... B..2
..37|..|C-4 AA.. ....|F#4 ...F ....|B-4 7... B..3
....|..|--- .... ....|--- .... ....|--- .... B..2
....|..|--- .... ....|F#4 ...B ....|B-4 6... B..3
....|..|--- .... ....|--- .... ....|--- .... B..2
..37|..|C-4 48.. ....|A-4 ...F 31.8|B-4 5... B..3
....|..|--- .... ....|--- .... ....|--- .... B..2
....|..|--- .... ....|--- .... ....|B-4 6... B..3
....|..|--- .... ....|--- .... ....|--- .... B..2

[Pattern15]
..3E|..|C-4 AA.F ....|--- .... ....|E-4 8F5F B..3
....|..|--- .... ....|--- .... ....|--- .... B..2
....|..|--- .... ....|--- .... ....|E-4 6... B..3
....|..|--- .... ....|--- .... ....|--- .... B..2
..3E|..|C-4 48.. ....|--- .... ....|E-4 5... B..3
....|..|--- .... ....|--- .... ....|--- .... B..2
....|..|--- .... ....|--- .... ....|E-4 6... B..3
....|..|--- .... ....|--- .... ....|--- .... B..2
..3E|..|C-4 AA.. ....|--- .... ....|E-4 7... B..3
....|..|--- .... ....|--- .... ....|--- .... B..2
....|..|--- .... ....|--- .... ....|E-4 6... B..3
....|..|--- .... ....|--- .... ....|--- .... B..2
..3E|..|C-4 48.. ....|--- .... ....|E-4 5... B..3
....|..|--- .... ....|--- .... ....|--- .... B..2
....|..|--- .... ....|--- .... ....|E-4 6... B..3
....|..|--- .... ....|--- .... ....|--- .... B..2
..3E|..|C-4 AA.. ....|--- ...D 11.8|E-4 8... B..3
....|..|--- .... ....|--- .... ....|--- .... B..2
....|..|--- .... ....|--- .... ....|E-4 6... B..3
....|..|--- .... ....|--- .... ....|--- .... B..2
..3E|..|C-4 48.. ....|--- .... ....|E-4 5... B..3
....|..|--- .... ....|--- .... ....|--- .... B..2
....|..|--- .... ....|--- .... ....|E-4 6... B..3
....|..|--- .... ....|--- .... ....|--- .... B..2
..3E|..|C-4 AA.. ....|A-4 ...F ....|E-4 7... B..3
....|..|--- .... ....|--- .... ....|--- .... B..2
....|..|--- .... ....|--- .... ....|E-4 6... B..3
....|..|--- .... ....|--- .... ....|--- .... B..2
..3E|..|C-4 48.. ....|E-5 .... 3110|E-4 5... B..3
....|..|--- .... ....|--- .... ....|--- .... B..2
....|..|--- .... ....|--- .... ....|E-4 6... B..3
....|..|--- .... ....|--- .... ....|--- .... B..2
..37|..|C-4 AA.. ....|--- .... ....|B-4 8.4. B..3
....|..|--- .... ....|--- .... ....|--- .... B..2
....|..|--- .... ....|--- .... ....|B-4 6... B..3
....|..|--- .... ....|--- .... ....|--- .... B..2
..37|..|C-4 48.. ....|--- .... ....|B-4 5... B..3
....|..|--- .... ....|--- .... ....|--- .... B..2
....|..|--- .... ....|--- .... ....|B-4 6... B..3
....|..|--- .... ....|--- .... ....|--- .... B..2
..37|..|C-4 AA.. ....|B-4 .... ....|B-4 7... B..3
....|..|--- .... ....|--- .... ....|--- .... B..2
....|..|--- .... ....|--- .... ....|B-4 6... B..3
....|..|--- .... ....|--- .... ....|--- .... B..2
..37|..|C-4 48.. ....|--- .... ....|B-4 5... B..3
....|..|--- .... ....|--- .... ....|--- .... B..2
....|..|--- .... ....|--- .... ....|B-4 6... B..3
....|..|--- .... ....|--- .... ....|--- .... B..2
..37|..|C-4 AA.. ....|A-4 .... ....|B-4 8... B..3
....|..|--- .... ....|--- .... ....|--- .... B..2
....|..|--- .... ....|--- .... ....|B-4 6... B..3
....|..|--- .... ....|--- .... ....|--- .... B..2
..37|..|C-4 48.. ....|--- .... ....|B-4 5... B..3
....|..|--- .... ....|--- .... ....|--- .... B..2
....|..|--- .... ....|--- .... ....|B-4 8... B..3
....|..|--- .... ....|--- .... ....|--- .... B..2
..37|..|C-4 AA.. ....|B-4 .... ....|B-4 7... B..3
....|..|--- .... ....|--- .... ....|--- .... B..2
....|..|--- .... ....|--- .... ....|B-4 6... B..3
....|..|--- .... ....|--- .... ....|--- .... B..2
..37|..|C-4 48.. ....|--- .... ....|B-4 7... B..3
....|..|--- .... ....|--- .... ....|--- .... B..2
....|..|--- .... ....|--- .... ....|B-4 .... B..3
....|..|--- .... ....|--- .... ....|--- .... B..2

[Pattern16]
..53|..|C-4 AA.F ....|G#5 9FBF ....|E-4 8F4F B..3
....|..|--- .... ....|--- .... ....|--- .... B..2
....|..|--- .... ....|--- .... ....|E-4 6... B..3
....|..|--- .... ....|--- .... ....|--- .... B..2
..53|..|C-4 48.. ....|--- .... ....|E-4 5... B..3
....|..|--- .... ....|--- .... ....|--- .... B..2
....|..|--- .... ....|--- .... ....|E-4 6... B..3
....|..|--- .... ....|--- .... ....|--- .... B..2
..53|..|C-4 AA.. ....|E-5 .... ....|E-4 7... B..3
....|..|--- .... ....|--- .... ....|--- .... B..2
....|..|--- .... ....|--- .... ....|E-4 6... B..3
....|..|--- .... ....|--- .... ....|--- .... B..2
..53|..|C-4 48.. ....|--- .... ....|E-4 5... B..3
....|..|--- .... ....|--- .... ....|--- .... B..2
....|..|--- .... ....|--- .... ....|E-4 6... B..3
....|..|--- .... ....|--- .... ....|--- .... B..2
..53|..|C-4 AA.. ....|B-4 .... ....|E-4 8... B..3
....|..|--- .... ....|--- .... ....|--- .... B..2
....|..|--- .... ....|E-5 ...B ....|E-4 6... B..3
....|..|--- .... ....|--- .... ....|--- .... B..2
..53|..|C-4 48.. ....|G#5 ...F ....|E-4 5... B..3
....|..|--- .... ....|--- .... ....|--- .... B..2
....|..|--- .... ....|B-4 ...B ....|E-4 6... B..3
....|..|--- .... ....|--- .... ....|--- .... B..2
..53|..|C-4 AA.. ....|E-5 ...F ....|E-4 7... B..3
....|..|--- .... ....|--- .... ....|--- .... B..2
....|..|--- .... ....|G#5 ...B ....|E-4 6... B..3
....|..|--- .... ....|--- .... ....|--- .... B..2
..53|..|C-4 48.. ....|B-4 ...F ....|E-4 5... B..3
....|..|--- .... ....|--- .... ....|--- .... B..2
....|..|--- .... ....|--- .... ....|E-4 6... B..3
....|..|--- .... ....|--- .... ....|--- .... B..2
..37|..|C-4 AA.. ....|--- .... ....|B-4 8... B..3
....|..|--- .... ....|--- .... ....|--- .... B..2
....|..|--- .... ....|--- .... ....|B-4 6... B..3
....|..|--- .... ....|--- .... ....|--- .... B..2
..37|..|C-4 48.. ....|--- .... ....|B-4 5... B..3
....|..|--- .... ....|--- .... ....|--- .... B..2
....|..|--- .... ....|--- .... ....|B-4 6... B..3
....|..|--- .... ....|--- .... ....|--- .... B..2
..37|..|C-4 AA.. ....|--- .... ....|B-4 7... B..3
....|..|--- .... ....|--- .... ....|--- .... B..2
....|..|--- .... ....|--- .... ....|B-4 6... B..3
....|..|--- .... ....|--- .... ....|--- .... B..2
..37|..|C-4 48.. ....|--- .... ....|B-4 5... B..3
....|..|--- .... ....|--- .... ....|--- .... B..2
....|..|--- .... ....|--- .... ....|B-4 6... B..3
....|..|--- .... ....|--- .... ....|--- .... B..2
..37|..|C-4 AA.. ....|--- .... ....|B-4 8... B..3
....|..|--- .... ....|--- .... ....|--- .... B..2
....|..|--- .... ....|--- .... ....|B-4 6... B..3
....|..|--- .... ....|--- .... ....|--- .... B..2
..37|..|C-4 48.. ....|B-4 .... ....|B-4 5... B..3
....|..|--- .... ....|--- .... ....|--- .... B..2
....|..|--- .... ....|B-4 ...B ....|B-4 6... B..3
....|..|--- .... ....|--- .... ....|--- .... B..2
..37|..|C-4 AA.. ....|C#5 ...F ....|B-4 7... B..3
....|..|--- .... ....|--- .... ....|--- .... B..2
....|..|--- .... ....|B-4 ...B ....|B-4 6... B..3
....|..|--- .... ....|--- .... ....|--- .... B..2
..37|..|C-4 48.. ....|E-5 ...F ....|B-4 5... B..3
....|..|--- .... ....|--- .... ....|--- .... B..2
....|..|--- .... ....|--- .... ....|B-4 6... B..3
....|..|--- .... ....|--- .... ....|--- .... B..2

[Pattern17]
..3E|..|C-4 AA.F ....|--- .... ....|E-4 8F5F B..3
....|..|--- .... ....|--- .... ....|--- .... B..2
....|..|--- .... ....|--- .... ....|E-4 6... B..3
....|..|--- .... ....|--- .... ....|--- .... B..2
..3E|..|C-4 48.. ....|--- .... ....|E-4 5... B..3
....|..|--- .... ....|--- .... ....|--- .... B..2
....|..|--- .... ....|--- .... ....|E-4 6... B..3
....|..|--- .... ....|--- .... ....|--- .... B..2
..3E|..|C-4 AA.. ....|--- .... ....|E-4 7... B..3
....|..|--- .... ....|--- .... ....|--- .... B..2
....|..|--- .... ....|--- .... ....|E-4 6... B..3
....|..|--- .... ....|--- .... ....|--- .... B..2
..3E|..|C-4 48.. ....|--- .... ....|E-4 5... B..3
....|..|--- .... ....|--- .... ....|--- .... B..2
....|..|--- .... ....|--- .... ....|E-4 6... B..3
....|..|--- .... ....|--- .... ....|--- .... B..2
..3E|..|C-4 AA.. ....|--- .... ....|E-4 8... B..3
....|..|--- .... ....|--- .... ....|--- .... B..2
....|..|--- .... ....|--- .... ....|E-4 6... B..3
....|..|--- .... ....|--- .... ....|--- .... B..2
..3E|..|C-4 48.. ....|A-5 .... ....|E-4 5... B..3
....|..|--- .... ....|--- .... ....|--- .... B..2
....|..|--- .... ....|E-5 ...B ....|E-4 6... B..3
....|..|--- .... ....|--- .... ....|--- .... B..2
..3E|..|C-4 AA.. ....|G#5 ...F ....|E-4 7... B..3
....|..|--- .... ....|--- .... ....|--- .... B..2
....|..|--- .... ....|A-5 ...B ....|E-4 6... B..3
....|..|--- .... ....|--- .... ....|--- .... B..2
..3E|..|C-4 48.. ....|F#5 ...F ....|E-4 5... B..3
....|..|--- .... ....|--- .... ....|--- .... B..2
....|..|--- .... ....|--- .... ....|E-4 6... B..3
....|..|--- .... ....|--- .... ....|--- .... B..2
..37|..|C-4 AA.. ....|--- .... ....|B-4 8.4. B..3
....|..|--- .... ....|--- .... ....|--- .... B..2
....|..|--- .... ....|--- .... ....|B-4 6... B..3
....|..|--- .... ....|--- .... ....|--- .... B..2
..37|..|C-4 48.. ....|--- .... ....|B-4 5... B..3
....|..|--- .... ....|--- .... ....|--- .... B..2
....|..|--- .... ....|--- .... ....|B-4 6... B..3
....|..|--- .... ....|--- .... ....|--- .... B..2
..37|..|C-4 AA.. ....|D#5 .... ....|B-4 7... B..3
....|..|--- .... ....|--- .... ....|--- .... B..2
....|..|--- .... ....|--- .... ....|B-4 6... B..3
....|..|--- .... ....|--- .... ....|--- .... B..2
..37|..|C-4 48.. ....|--- ...C ....|B-4 5... B..3
....|..|--- .... ....|--- .... ....|--- .... B..2
....|..|--- .... ....|--- .... ....|B-4 6... B..3
....|..|--- .... ....|--- .... ....|--- .... B..2
..37|..|C-4 AA.. ....|B-4 ...F ....|B-4 8... B..3
....|..|--- .... ....|--- .... ....|--- .... B..2
....|..|--- .... ....|--- .... ....|B-4 6... B..3
....|..|--- .... ....|--- .... ....|--- .... B..2
..37|..|C-4 48.. ....|--- ...C ....|B-4 5... B..3
....|..|--- .... ....|--- .... ....|--- .... B..2
....|..|--- .... ....|--- .... ....|B-4 8... B..3
....|..|--- .... ....|--- .... ....|--- .... B..2
..37|..|C-4 AA.. ....|D#5 ...F ....|B-4 7... B..3
....|..|--- .... ....|--- .... ....|--- .... B..2
....|..|--- .... ....|--- .... ....|B-4 6... B..3
....|..|--- .... ....|--- .... ....|--- .... B..2
..37|..|C-4 48.. ....|--- ...C ....|B-4 7... B..3
....|..|--- .... ....|--- .... ....|--- .... B..2
....|..|--- .... ....|--- .... ....|B-4 .... B..3
....|..|--- .... ....|--- .... ....|--- .... B..2

[Pattern18]
..3E|..|C-4 AA.F ....|--- .... ....|E-4 8F5F B..3
....|..|--- .... ....|--- .... ....|--- .... B..2
....|..|--- .... ....|--- .... ....|E-4 6... B..3
....|..|--- .... ....|--- .... ....|--- .... B..2
..3E|..|C-4 48.. ....|--- .... ....|E-4 5... B..3
....|..|--- .... ....|--- .... ....|--- .... B..2
....|..|--- .... ....|--- .... ....|E-4 6... B..3
....|..|--- .... ....|--- .... ....|--- .... B..2
..3E|..|C-4 AA.. ....|--- .... ....|E-4 7... B..3
....|..|--- .... ....|--- .... ....|--- .... B..2
....|..|--- .... ....|--- .... ....|E-4 6... B..3
....|..|--- .... ....|--- .... ....|--- .... B..2
..3E|..|C-4 48.. ....|--- .... ....|E-4 5... B..3
....|..|--- .... ....|--- .... ....|--- .... B..2
....|..|--- .... ....|--- .... ....|E-4 6... B..3
....|..|--- .... ....|--- .... ....|--- .... B..2
..3E|..|C-4 AA.. ....|--- .... ....|E-4 8... B..3
....|..|--- .... ....|--- .... ....|--- .... B..2
....|..|--- .... ....|--- .... ....|E-4 6... B..3
....|..|--- .... ....|--- .... ....|--- .... B..2
..3E|..|C-4 48.. ....|A-5 .... ....|E-4 5... B..3
....|..|--- .... ....|--- .... ....|--- .... B..2
....|..|--- .... ....|E-5 ...B ....|E-4 6... B..3
....|..|--- .... ....|--- .... ....|--- .... B..2
..3E|..|C-4 AA.. ....|G#5 ...F ....|E-4 7... B..3
....|..|--- .... ....|--- .... ....|--- .... B..2
....|..|--- .... ....|A-5 ...B ....|E-4 6... B..3
....|..|--- .... ....|--- .... ....|--- .... B..2
..3E|..|C-4 48.. ....|B-5 ...F 31.4|E-4 5... B..3
....|..|--- .... ....|--- .... ....|--- .... B..2
....|..|--- .... ....|--- .... ....|E-4 6... B..3
....|..|--- .... ....|--- .... ....|--- .... B..2
..37|..|C-4 AA.. ....|--- .... ....|B-4 8.4. B..3
....|..|--- .... ....|--- .... ....|--- .... B..2
....|..|--- .... ....|--- .... ....|B-4 6... B..3
....|..|--- .... ....|--- .... ....|--- .... B..2
..37|..|C-4 48.. ....|--- .... ....|B-4 5... B..3
....|..|--- .... ....|--- .... ....|--- .... B..2
....|..|--- .... ....|--- .... ....|B-4 6... B..3
....|..|--- .... ....|--- .... ....|--- .... B..2
..37|..|C-4 AA.. ....|A-5 .... ....|B-4 7... B..3
....|..|--- .... ....|--- .... ....|--- .... B..2
....|..|--- .... ....|--- .... ....|B-4 6... B..3
....|..|--- .... ....|--- .... ....|--- .... B..2
..37|..|C-4 48.. ....|--- ...C ....|B-4 5... B..3
....|..|--- .... ....|--- .... ....|--- .... B..2
....|..|--- .... ....|--- .... ....|B-4 6... B..3
....|..|--- .... ....|--- .... ....|--- .... B..2
..37|..|C-4 AA.. ....|G#5 ...F ....|B-4 8... B..3
....|..|--- .... ....|--- .... ....|--- .... B..2
....|..|--- .... ....|--- .... ....|B-4 6... B..3
....|..|--- .... ....|--- .... ....|--- .... B..2
..37|..|C-4 48.. ....|--- ...C ....|B-4 5... B..3
....|..|--- .... ....|--- .... ....|--- .... B..2
....|..|--- .... ....|--- .... ....|B-4 8... B..3
....|..|--- .... ....|--- .... ....|--- .... B..2
..37|..|C-4 AA.. ....|F#5 ...F ....|B-4 7... B..3
....|..|--- .... ....|--- .... ....|--- .... B..2
....|..|--- .... ....|--- .... ....|B-4 6... B..3
....|..|--- .... ....|--- .... ....|--- .... B..2
..37|..|C-4 48.. ....|--- ...C ....|B-4 7... B..3
....|..|--- .... ....|--- .... ....|--- .... B..2
....|..|--- .... ....|--- .... ....|B-4 .... B..3
....|..|--- .... ....|--- .... ....|--- .... B..2

[Pattern19]
..3E|..|C-4 AA.F ....|E-5 1FFF B..3|E-4 8F5F ....
....|..|--- .... ....|--- .... B..2|--- .... ....
....|..|--- .... ....|E-5 ...B B..3|E-4 6... ....
....|..|--- .... ....|--- .... B..2|--- .... ....
..3E|..|C-4 48.. ....|A-5 ...F B..3|E-4 5... ....
....|..|--- .... ....|--- .... B..2|--- .... ....
....|..|--- .... ....|E-5 ...B B..3|E-4 6... ....
....|..|--- .... ....|--- .... B..2|--- .... ....
..3E|..|C-4 AA.. ....|E-6 ...F B..3|E-4 7... ....
....|..|--- .... ....|--- .... B..2|--- .... ....
....|..|--- .... ....|A-5 ...B B..3|E-4 6... ....
....|..|--- .... ....|--- .... B..2|--- .... ....
..3E|..|C-4 48.. ....|E-5 ...F B..3|E-4 5... ....
....|..|--- .... ....|--- .... B..2|--- .... ....
....|..|--- .... ....|E-6 ...B B..3|E-4 6... ....
....|..|--- .... ....|--- .... B..2|--- .... ....
..3E|..|C-4 AA.. ....|A-5 ...F B..3|E-4 8... ....
....|..|--- .... ....|--- .... B..2|--- .... ....
....|..|--- .... ....|E-6 ...B B..3|E-4 6... ....
....|..|--- .... ....|--- .... B..2|--- .... ....
..3E|..|C-4 48.. ....|E-6 ...F B..3|E-4 5... ....
....|..|--- .... ....|--- .... B..2|--- .... ....
....|..|--- .... ....|A-5 ...B B..3|E-4 6... ....
....|..|--- .... ....|--- .... B..2|--- .... ....
..3E|..|C-4 AA.. ....|E-5 ...F B..3|E-4 7... ....
....|..|--- .... ....|--- .... B..2|--- .... ....
....|..|--- .... ....|E-6 ...B B..3|E-4 6... ....
....|..|--- .... ....|--- .... B..2|--- .... ....
..3E|..|C-4 48.. ....|B-5 ...F B..3|E-4 5... ....
....|..|--- .... ....|--- .... B..2|--- .... ....
....|..|--- .... ....|E-6 ...B B..3|E-4 6... ....
....|..|--- .... ....|--- .... B..2|--- .... ....
..37|..|C-4 AA.. 91.1|F#5 9..F B..3|B-4 8.4. ....
....|..|--- .... ....|--- .... B..2|--- .... ....
....|..|--- .... ....|--- .... B..3|--- .... ....
....|..|--- .... ....|--- .... B..2|--- .... ....
....|..|--- .... ....|--- .... B..3|--- .... ....
....|..|--- .... ....|--- .... B..2|--- .... ....
....|..|--- .... ....|--- .... B..3|--- .... ....
....|..|--- .... ....|--- .... B..2|--- .... ....
....|..|--- .... ....|--- .... B..3|--- .... ....
....|..|--- .... ....|--- .... B..2|--- .... ....
....|..|--- .... ....|--- .... B..3|--- .... ....
....|..|--- .... ....|--- .... B..2|--- .... ....
....|..|--- .... ....|--- .... B..3|--- .... ....
....|..|--- .... ....|--- .... B..3|--- .... ....
....|..|--- .... ....|--- .... B..2|--- .... ....
....|..|--- .... ....|--- .... B..3|--- .... ....
....|..|R-- .... ....|--- .... B..2|--- .... ....
....|..|--- .... ....|--- .... B..3|--- .... ....
....|..|--- .... ....|--- .... B..2|--- .... ....
....|..|--- .... ....|--- .... B..3|--- .... ....
....|..|--- .... ....|--- .... B..2|--- .... ....
....|..|--- .... ....|--- .... B..3|--- .... ....
....|..|--- .... ....|--- .... B..2|--- .... ....
....|..|--- .... ....|--- .... B..3|--- .... ....
....|..|--- .... ....|D#5 .... B..2|--- .... ....
....|..|--- .... ....|--- .... B..3|--- .... ....
....|..|--- .... ....|--- .... B..2|--- .... ....
....|..|--- .... ....|--- .... B..3|--- .... ....
....|..|--- .... ....|--- .... B..2|--- .... ....
....|..|--- .... ....|--- .... B..3|--- .... ....
....|..|--- .... ....|--- .... B..2|--- .... ....
....|..|--- .... ....|--- .... ....|--- .... ....

[Pattern20]
....|..|--- .... ....|E-5 1F.F ....|E-4 1F4F ....
....|..|--- .... ....|--- .... ....|--- .... ....
....|..|--- .... ....|--- .... ....|--- .... ....
....|..|--- .... ....|--- .... ....|--- .... ....
....|..|--- .... ....|--- .... ....|--- .... ....
....|..|--- .... ....|--- .... ....|--- .... ....
....|..|--- .... ....|--- .... ....|--- .... ....
....|..|--- .... ....|--- .... ....|--- .... ....
....|..|--- .... ....|--- .... ....|--- .... ....
....|..|--- .... ....|--- .... ....|--- .... ....
....|..|--- .... ....|--- .... ....|--- .... ....
....|..|--- .... ....|--- .... ....|--- .... ....
....|..|--- .... ....|--- .... ....|--- .... ....
....|..|--- .... ....|--- .... ....|--- .... ....
....|..|--- .... ....|--- .... ....|--- .... ....
....|..|--- .... ....|--- .... ....|--- .... ....
....|..|--- .... ....|--- .... ....|--- .... ....
....|..|--- .... ....|--- .... ....|--- .... ....
....|..|--- .... ....|--- .... ....|--- .... ....
....|..|--- .... ....|--- .... ....|--- .... ....
....|..|--- .... ....|--- .... ....|--- .... ....
....|..|--- .... ....|--- .... ....|--- .... ....
....|..|--- .... ....|--- .... ....|--- .... ....
....|..|--- .... ....|--- .... ....|--- .... ....
....|..|--- .... ....|--- .... ....|--- .... ....
....|..|--- .... ....|--- .... ....|--- .... ....
....|..|--- .... ....|--- .... ....|--- .... ....
....|..|--- .... ....|--- .... ....|--- .... ....
....|..|--- .... ....|--- .... ....|--- .... ....
....|..|--- .... ....|--- .... ....|--- .... ....
....|..|--- .... ....|--- .... ....|--- .... ....
....|..|--- .... ....|--- .... ....|--- .... ....
....|..|--- .... ....|--- .... ....|--- .... ....
....|..|--- .... ....|--- .... ....|--- .... ....
....|..|--- .... ....|--- .... ....|--- .... ....
....|..|--- .... ....|--- .... ....|--- .... ....
....|..|--- .... ....|--- .... ....|--- .... ....
....|..|--- .... ....|--- .... ....|--- .... ....
....|..|--- .... ....|--- .... ....|--- .... ....
....|..|--- .... ....|--- .... ....|--- .... ....
....|..|--- .... ....|--- .... ....|--- .... ....
....|..|--- .... ....|--- .... ....|--- .... ....
....|..|--- .... ....|--- .... ....|--- .... ....
....|..|--- .... ....|--- .... ....|--- .... ....
....|..|--- .... ....|--- .... ....|--- .... ....
....|..|--- .... ....|--- .... ....|--- .... ....
....|..|--- .... ....|--- .... ....|--- .... ....
....|..|--- .... ....|--- .... ....|--- .... ....
....|..|--- .... ....|--- .... ....|--- .... ....
....|..|--- .... ....|--- .... ....|--- .... ....
....|..|--- .... ....|--- .... ....|--- .... ....
....|..|--- .... ....|--- .... ....|--- .... ....
....|..|--- .... ....|--- .... ....|--- .... ....
....|..|--- .... ....|--- .... ....|--- .... ....
....|..|--- .... ....|--- .... ....|--- .... ....
....|..|--- .... ....|--- .... ....|--- .... ....
....|..|--- .... ....|--- .... ....|--- .... ....
....|..|--- .... ....|--- .... ....|--- .... ....
....|..|--- .... ....|--- .... ....|--- .... ....
....|..|--- .... ....|--- .... ....|--- .... ....
....|..|--- .... ....|--- .... ....|--- .... ....
....|..|--- .... ....|--- .... ....|--- .... ....
....|..|--- .... ....|--- .... ....|--- .... ....
....|..|--- .... ....|--- .... ....|--- .... ....

