[Module]
VortexTrackerII=0
Version=3.5
Title=VOICE OF TIME boot version
Author=Foxx '98
NoteTable=1
Speed=5
PlayOrder=0,0,L1,1,2,2,13,14,15,16,3,3,4,4,5,5,8,8,7,9,3,3,2,2,10,10,7,9,11,12

[Ornament1]
L0

[Ornament2]
L0

[Ornament3]
L0

[Ornament4]
L0

[Ornament5]
L0

[Ornament6]
L0

[Ornament7]
36,L0,0

[Ornament8]
L0

[Ornament9]
L0

[Ornament10]
L0

[Ornament11]
L0

[Ornament12]
L0

[Ornament13]
L0

[Ornament14]
L0

[Ornament15]
L0

[Sample1]
TnE +000_ +00_ C_
TnE +000_ +00_ C_
TnE +000_ +00_ D_
TnE +000_ +00_ D_
TnE +000_ +00_ D_
TnE +000_ +00_ D_
TnE +000_ +00_ D_
TnE +000_ +00_ D_
TnE +000_ +00_ C_
TnE +000_ +00_ C_
TnE +000_ +00_ C_
TnE -001_ +00_ C_
TnE +000_ +00_ C_
TnE +000_ +00_ C_
TnE +000_ +00_ C_
TnE +001_ +00_ C_
TnE +000_ +00_ C_
TnE +000_ +00_ C_
TnE +000_ +00_ C_
TnE -001_ +00_ C_
TnE +000_ +00_ C_
TnE +000_ +00_ C_
TnE +000_ +00_ C_
TnE +001_ +00_ C_
TnE +000_ +00_ C_
TnE +000_ +00_ C_
TnE +000_ +00_ C_
TnE -001_ +00_ C_
TnE +000_ +00_ C_
TnE +000_ +00_ B_
TnE +000_ +00_ B_
TnE +001_ +00_ B_
TnE +000_ +00_ B_
TnE +000_ +00_ B_
TnE -001_ +00_ B_
TnE -002_ +00_ B_
TnE -001_ +00_ B_
TnE +000_ +00_ B_
TnE +001_ +00_ B_
TnE +002_ +00_ B_
TnE +001_ +00_ B_
TnE +000_ +00_ B_
TnE -001_ +00_ B_
TnE -002_ +00_ B_
TnE -001_ +00_ B_
TnE +000_ +00_ B_
TnE +001_ +00_ A_
TnE +002_ +00_ A_
TnE +001_ +00_ A_
TnE +000_ +00_ A_
TnE -001_ +00_ A_
TnE -002_ +00_ A_
TnE -001_ +00_ A_
TnE +000_ +00_ A_ L
TnE +001_ +00_ A_
TnE +002_ +00_ A_
TnE +001_ +00_ A_
TnE +000_ +00_ A_
TnE -001_ +00_ A_
TnE -002_ +00_ A_
TnE -001_ +00_ A_

[Sample2]
TnE +000_ +00_ C_
TnE +000_ +00_ C_
TnE +000_ +00_ D_
TnE +000_ +00_ D_
TnE +000_ +00_ D_
TnE +000_ +00_ D_
TnE +000_ +00_ D_
TnE +000_ +00_ D_
TnE +000_ +00_ C_
TnE +000_ +00_ C_
TnE +000_ +00_ C_
TnE -001_ +00_ C_
TnE +000_ +00_ C_
TnE +000_ +00_ C_
TnE +000_ +00_ C_
TnE +001_ +00_ C_
TnE +000_ +00_ C_
TnE +000_ +00_ C_
TnE +000_ +00_ C_
TnE -001_ +00_ C_
TnE +000_ +00_ C_
TnE +000_ +00_ C_
TnE +000_ +00_ C_
TnE +001_ +00_ C_
TnE +000_ +00_ C_
TnE +000_ +00_ C_
TnE +000_ +00_ C_
TnE -001_ +00_ C_
TnE +000_ +00_ C_
TnE +000_ +00_ B_
TnE +000_ +00_ B_
TnE +001_ +00_ B_
TnE +000_ +00_ B_
TnE +000_ +00_ B_
TnE -001_ +00_ B_
TnE -002_ +00_ B_
TnE -001_ +00_ B_
TnE +000_ +00_ B_
TnE +001_ +00_ B_
TnE +002_ +00_ B_
TnE +001_ +00_ B_
TnE +000_ +00_ B_
TnE -001_ +00_ B_
TnE -002_ +00_ B_
TnE -001_ +00_ B_
TnE +000_ +00_ B_
TnE +001_ +00_ A_
TnE +002_ +00_ A_
TnE +001_ +00_ A_
TnE +000_ +00_ A_
TnE -001_ +00_ A_
TnE -002_ +00_ A_
TnE -001_ +00_ A_
TnE +000_ +00_ A_ L
TnE +001_ +00_ A_
TnE +002_ +00_ A_
TnE +001_ +00_ A_
TnE +000_ +00_ A_
TnE -001_ +00_ A_
TnE -002_ +00_ A_
TnE -001_ +00_ A_

[Sample3]
tne +000_ +00_ 0_ L

[Sample4]
TnE +180_ +00_ F_
TNE +200_ +00_ F_
TnE +280_ +00_ E_
TNE +300_ +00_ E_
TnE +380_ +00_ E_
TnE +400_ +00_ E_
TnE +480_ +00_ D_
TnE +500_ +00_ D_
TnE +500_ +00_ C_
TnE +580_ +00_ C_
TnE +5FF_ +00_ B_
TnE +680_ +00_ B_
TnE +700_ +00_ 6_
TnE +780_ +00_ 7_
TnE +800_ +00_ 5_
TnE +000_ +00_ 6_
TNE +000_ +00_ 0_ L

[Sample5]
tne +000_ +00_ 0_ L

[Sample6]
tne +000_ +00_ 0_ L

[Sample7]
tne +000_ +00_ 0_ L

[Sample8]
TnE +000_ +00_ E_
TnE +000_ +00_ E_
TnE +000_ +00_ E_
TnE +000_ +00_ D_
TnE +000_ +00_ 9_
TnE +000_ +00_ 5_
TnE +000_ +00_ 5_
TnE +000_ +00_ 5_
TnE +000_ +00_ 5_
TnE +000_ +00_ 5_
TnE +000_ +00_ 5_
TnE +000_ +00_ 5_
TnE +000_ +00_ 5_
TnE +000_ +00_ 4_
TnE +000_ +00_ 4_
TnE +004_ +00_ 4_
TnE +000_ +00_ 4_
TnE +000_ +00_ 4_
TnE +000_ +00_ 4_
TnE +000_ +00_ 4_
TnE +000_ +00_ 4_
TnE +000_ +00_ 4_
TnE +000_ +00_ 4_
TnE +000_ +00_ 4_
TNE +000_ +00_ 0_ L

[Sample9]
TnE +000_ +00_ D_
TnE +001_ +00_ D_
TnE +002_ +00_ D_
TnE +001_ +00_ D_
TnE +000_ +00_ D_ L
TnE -001_ +00_ D_
TnE -002_ +00_ D_
TnE -001_ +00_ D_
TnE +000_ +00_ D_
TnE +001_ +00_ D_
TnE +002_ +00_ D_
TnE +001_ +00_ D_

[Sample10]
TnE +000_ +00_ D_ L
TnE +000_ +00_ C_
TnE +000_ +00_ B_
TnE +000_ +00_ A_
TnE +000_ +00_ 9_
TnE +000_ +00_ 8_
TnE +000_ +00_ 7_
TnE +000_ +00_ 6_
TnE +000_ +00_ 5_
TnE +000_ +00_ 4_
TnE +000_ +00_ A_
TnE +000_ +00_ 9_
TnE +000_ +00_ 8_
TnE +000_ +00_ 7_
TnE +000_ +00_ 6_
TnE +000_ +00_ D_
TnE +000_ +00_ C_
TnE +000_ +00_ B_
TnE +000_ +00_ A_
TnE +000_ +00_ 9_
TnE +000_ +00_ 8_
TnE +000_ +00_ 7_
TnE +000_ +00_ 6_
TnE +000_ +00_ 5_
TnE +000_ +00_ 4_
TnE +000_ +00_ A_
TnE +000_ +00_ 9_
TnE +000_ +00_ 8_
TnE +000_ +00_ 7_
TnE +000_ +00_ 6_
TnE +000_ +00_ D_
TnE +000_ +00_ C_
TnE +000_ +00_ B_
TnE +000_ +00_ A_
TnE +000_ +00_ 9_
TnE +000_ +00_ 8_
TnE +000_ +00_ 7_
TnE +000_ +00_ 6_
TnE +000_ +00_ 5_
TnE +000_ +00_ 4_

[Sample11]
tNE +000_ +00_ E_
tNE +000_ +00_ E_
tNE +000_ +00_ D_
tNE +000_ +00_ C_
tNE +000_ +00_ B_
tNE +000_ +00_ A_
tNE +000_ +00_ 9_
tNE +000_ +00_ 8_
tNE +000_ +00_ 7_
tNE +000_ +00_ 6_
tNE +000_ +00_ 5_
tNE +000_ +00_ 4_
tNE +000_ +00_ 3_
tNE +000_ +00_ 2_
tNE +000_ +00_ 1_
TNE +000_ +00_ 0_ L

[Sample12]
tne +000_ +00_ 0_ L

[Sample13]
TNE +100_ -10_ F_
TnE +200_ +00_ F_
TNE +180_ +04_ E_
TNE +280_ +04_ C_
TnE +480_ +00_ A_
TnE +680_ +00_ 8_
TnE +800_ +00_ 3_
TnE +000_ +00_ 0_
TnE +000_ +00_ 0_
TnE +000_ +00_ 0_
TnE +000_ +00_ 0_
TnE +000_ +00_ 0_
TnE +000_ +00_ 0_ L

[Sample14]
tne +000_ +00_ 0_ L

[Sample15]
tne +000_ +00_ 0_ L

[Sample16]
tne +000_ +00_ 0_ L

[Sample17]
tne +000_ +00_ 0_ L

[Sample18]
tne +000_ +00_ 0_ L

[Sample19]
tne +000_ +00_ 0_ L

[Sample20]
tne +000_ +00_ 0_ L

[Sample21]
tne +000_ +00_ 0_ L

[Sample22]
tne +000_ +00_ 0_ L

[Sample23]
tne +000_ +00_ 0_ L

[Sample24]
tne +000_ +00_ 0_ L

[Sample25]
tne +000_ +00_ 0_ L

[Sample26]
tne +000_ +00_ 0_ L

[Sample27]
tne +000_ +00_ 0_ L

[Sample28]
tne +000_ +00_ 0_ L

[Sample29]
tne +000_ +00_ 0_ L

[Sample30]
tne +000_ +00_ 0_ L

[Sample31]
tne +000_ +00_ 0_ L

[Pattern0]
....|..|C-4 A... ....|F-4 A... ....|F-4 4... ....
....|..|--- .... ....|--- .... ....|--- .... ....
....|..|--- .... ....|--- .... ....|F-4 B... ....
....|..|--- .... ....|--- .... ....|--- .... ....
....|..|--- .... ....|--- .... ....|F-4 4... ....
....|..|--- .... ....|--- .... ....|--- .... ....
....|..|--- .... ....|--- .... ....|F-4 B... ....
....|..|--- .... ....|--- .... ....|--- .... ....
....|..|--- .... ....|--- .... ....|F-4 4... ....
....|..|--- .... ....|--- .... ....|--- .... ....
....|..|--- .... ....|--- .... ....|F-4 B... ....
....|..|--- .... ....|--- .... ....|--- .... ....
....|..|--- .... ....|--- .... ....|F-4 4... ....
....|..|--- .... ....|--- .... ....|--- .... ....
....|..|--- .... ....|--- .... ....|F-4 B... ....
....|..|--- .... ....|--- .... ....|--- .... ....
....|..|--- .... ....|--- .... ....|F-4 4... ....
....|..|--- .... ....|--- .... ....|--- .... ....
....|..|--- .... ....|--- .... ....|F-4 B... ....
....|..|--- .... ....|--- .... ....|--- .... ....
....|..|--- .... ....|--- .... ....|F-4 4... ....
....|..|--- .... ....|--- .... ....|--- .... ....
....|..|--- .... ....|--- .... ....|F-4 B... ....
....|..|--- .... ....|--- .... ....|--- .... ....
....|..|--- .... ....|--- .... ....|F-4 4... ....
....|..|--- .... ....|--- .... ....|--- .... ....
....|..|--- .... ....|--- .... ....|F-4 B... ....
....|..|--- .... ....|--- .... ....|--- .... ....
....|..|--- .... ....|--- .... ....|F-4 4... ....
....|..|--- .... ....|--- .... ....|--- .... ....
....|..|--- .... ....|--- .... ....|F-4 B... ....
....|..|--- .... ....|--- .... ....|--- .... ....
....|..|D-4 .... ....|G-4 .... ....|F-4 4... ....
....|..|--- .... ....|--- .... ....|--- .... ....
....|..|--- .... ....|--- .... ....|F-4 B... ....
....|..|--- .... ....|--- .... ....|--- .... ....
....|..|--- .... ....|--- .... ....|F-4 4... ....
....|..|--- .... ....|--- .... ....|--- .... ....
....|..|--- .... ....|--- .... ....|F-4 B... ....
....|..|--- .... ....|--- .... ....|--- .... ....
....|..|--- .... ....|--- .... ....|F-4 4... ....
....|..|--- .... ....|--- .... ....|--- .... ....
....|..|--- .... ....|--- .... ....|F-4 B... ....
....|..|--- .... ....|--- .... ....|--- .... ....
....|..|--- .... ....|--- .... ....|F-4 4... ....
....|..|--- .... ....|--- .... ....|--- .... ....
....|..|--- .... ....|--- .... ....|F-4 B... ....
....|..|--- .... ....|--- .... ....|--- .... ....
....|..|C#4 .... ....|G-4 .... ....|F-4 4... ....
....|..|--- .... ....|--- .... ....|--- .... ....
....|..|--- .... ....|--- .... ....|F-4 B... ....
....|..|--- .... ....|--- .... ....|--- .... ....
....|..|--- .... ....|--- .... ....|F-4 4... ....
....|..|--- .... ....|--- .... ....|--- .... ....
....|..|--- .... ....|--- .... ....|F-4 B... ....
....|..|--- .... ....|--- .... ....|--- .... ....
....|..|--- .... ....|--- .... ....|F-4 4... ....
....|..|C#4 .... ....|G-4 .... ....|--- .... ....
....|..|--- .... ....|--- .... ....|F-4 B... ....
....|..|--- .... ....|--- .... ....|--- .... ....
....|..|C#4 .... ....|G-4 .... ....|F-4 4... ....
....|..|--- .... ....|--- .... ....|--- .... ....
....|..|C#4 .... ....|G-4 .... ....|F-4 B... ....
....|..|--- .... ....|--- .... ....|--- .... ....

[Pattern1]
....|..|F-2 8F.. ....|F-4 8..F ....|F-4 4..E ....
....|..|--- .... ....|--- .... ....|E-2 8F.. ....
....|..|F-2 .... ....|F-4 ...E ....|F-4 B... ....
....|..|F-2 .... ....|--- .... ....|F-2 8... ....
....|..|--- .... ....|F-4 .... ....|F-4 D... ....
....|..|F-2 .... ....|--- .... ....|--- .... ....
....|..|--- .... ....|F-4 .... ....|F-4 B... ....
....|..|F-2 .... ....|--- .... ....|--- .... ....
....|..|F-2 .... ....|F-4 ...D ....|F-4 4... ....
....|..|--- .... ....|--- .... ....|F-2 8... ....
....|..|F-2 .... ....|F-4 .... ....|F-4 B... ....
....|..|--- .... ....|--- .... ....|F-2 8... ....
....|..|F-2 .... ....|F-4 ...C ....|F-4 D... ....
....|..|F-2 .... ....|--- .... ....|F-2 8... ....
....|..|--- .... ....|F-4 .... ....|F-4 B... ....
....|..|--- .... ....|--- .... ....|F-2 8... ....
....|..|F-2 .... ....|F-4 ...B ....|F-4 4... ....
....|..|--- .... ....|--- .... ....|E-2 8... ....
....|..|F-2 .... ....|F-4 .... ....|F-4 B... ....
....|..|F-2 .... ....|--- ...A ....|F-2 8... ....
....|..|--- .... ....|F-4 .... ....|F-4 D... ....
....|..|F-2 .... ....|--- .... ....|--- .... ....
....|..|--- .... ....|F-4 ...9 ....|F-4 B... ....
....|..|F-2 .... ....|--- .... ....|--- .... ....
....|..|F-2 .... ....|F-4 .... ....|F-4 4... ....
....|..|--- .... ....|--- ...8 ....|F-2 8... ....
....|..|F-2 .... ....|F-4 .... ....|F-4 B... ....
....|..|--- .... ....|--- ...7 ....|F-2 8... ....
....|..|F-2 .... ....|F-4 .... ....|F-4 D... ....
....|..|F-2 .... ....|--- .... ....|F-2 8... ....
....|..|--- .... ....|F-4 ...6 ....|F-4 B... ....
....|..|--- .... ....|--- .... ....|F-2 8... ....
....|..|D-2 .... ....|D-4 ...F ....|F-4 4... ....
....|..|--- .... ....|--- .... ....|C-2 8... ....
....|..|D-2 .... ....|D-4 .... ....|F-4 B... ....
....|..|D-2 .... ....|--- .... ....|D-2 8... ....
....|..|--- .... ....|D-4 ...E ....|G-4 D... ....
....|..|D-2 .... ....|--- .... ....|--- .... ....
....|..|--- .... ....|D-4 ...D ....|F-4 B... ....
....|..|D-2 .... ....|--- .... ....|--- .... ....
....|..|D-2 .... ....|D-4 ...C ....|F-4 4... ....
....|..|--- .... ....|--- .... ....|D-2 8... ....
....|..|D-2 .... ....|D-4 .... ....|F-4 B... ....
....|..|--- .... ....|--- ...B ....|D-2 8... ....
....|..|D-2 .... ....|D-4 .... ....|G-4 D... ....
....|..|D-2 .... ....|--- ...A ....|D-2 8... ....
....|..|--- .... ....|D-4 ...9 ....|F-4 B... ....
....|..|--- .... ....|--- ...7 ....|D-2 8... ....
....|..|D-2 .... ....|C#4 ...F ....|F-4 4... ....
....|..|--- .... ....|--- .... ....|C-2 8... ....
....|..|D-2 .... ....|C#4 ...E ....|F-4 B... ....
....|..|D-2 .... ....|--- .... ....|D-2 8... ....
....|..|--- .... ....|C#4 ...D ....|G-4 D... ....
....|..|D-2 .... ....|--- .... ....|--- .... ....
....|..|--- .... ....|C#4 ...C ....|F-4 B... ....
....|..|D-2 .... ....|--- ...A ....|--- .... ....
....|..|C-2 .... ....|G-3 ...E ....|F-4 4... ....
....|..|--- .... ....|D-4 ...F ....|C-2 8... ....
....|..|C-2 .... ....|--- .... ....|F-4 B... ....
....|..|--- .... ....|--- .... ....|C-2 8... ....
....|..|C-2 .... ....|D-4 .... ....|G-4 D... ....
....|..|C-2 .... ....|--- .... ....|C-2 8... ....
....|..|--- .... ....|D-4 .... ....|F-4 B... ....
....|..|C-2 .... ....|--- .... ....|C-2 8... ....

[Pattern2]
....|..|F-2 8F.. ....|C-4 AF.F ....|F-4 4..E ....
....|..|--- .... ....|--- .... ....|E-2 8F.. ....
....|..|F-2 .... ....|--- .... ....|F-4 B... ....
....|..|F-2 .... ....|--- .... ....|F-2 8... ....
....|..|--- .... ....|--- .... ....|F-4 D... ....
....|..|F-2 .... ....|--- .... ....|--- .... ....
....|..|--- .... ....|--- .... ....|F-4 B... ....
....|..|F-2 .... ....|--- .... ....|--- .... ....
....|..|F-2 .... ....|--- .... ....|F-4 4... ....
....|..|--- .... ....|--- .... ....|F-2 8... ....
....|..|F-2 .... ....|--- .... ....|F-4 B... ....
....|..|--- .... ....|--- .... ....|F-2 8... ....
....|..|F-2 .... ....|--- .... ....|F-4 D... ....
....|..|F-2 .... ....|--- .... ....|F-2 8... ....
....|..|--- .... ....|--- .... ....|F-4 B... ....
....|..|--- .... ....|--- .... ....|F-2 8... ....
....|..|F-2 .... ....|C-4 .... ....|F-4 4... ....
....|..|--- .... ....|--- .... ....|E-2 8... ....
....|..|F-2 .... ....|--- .... ....|F-4 B... ....
....|..|F-2 .... ....|--- .... ....|F-2 8... ....
....|..|--- .... ....|--- .... ....|F-4 D... ....
....|..|F-2 .... ....|--- .... ....|--- .... ....
....|..|--- .... ....|--- .... ....|F-4 B... ....
....|..|F-2 .... ....|--- .... ....|--- .... ....
....|..|F-2 .... ....|--- .... ....|F-4 4... ....
....|..|--- .... ....|--- .... ....|F-2 8... ....
....|..|F-2 .... ....|--- .... ....|F-4 B... ....
....|..|--- .... ....|--- .... ....|F-2 8... ....
....|..|F-2 .... ....|--- .... ....|F-4 D... ....
....|..|F-2 .... ....|--- .... ....|F-2 8... ....
....|..|--- .... ....|--- .... ....|F-4 B... ....
....|..|--- .... ....|--- .... ....|F-2 8... ....
....|..|D-2 .... ....|A-3 .... ....|F-4 4... ....
....|..|--- .... ....|--- .... ....|C-2 8... ....
....|..|D-2 .... ....|--- .... ....|F-4 B... ....
....|..|D-2 .... ....|--- .... ....|D-2 8... ....
....|..|--- .... ....|--- .... ....|G-4 D... ....
....|..|D-2 .... ....|--- .... ....|--- .... ....
....|..|--- .... ....|--- .... ....|F-4 B... ....
....|..|D-2 .... ....|--- .... ....|--- .... ....
....|..|D-2 .... ....|--- .... ....|F-4 4... ....
....|..|--- .... ....|--- .... ....|D-2 8... ....
....|..|D-2 .... ....|--- .... ....|F-4 B... ....
....|..|--- .... ....|--- .... ....|D-2 8... ....
....|..|D-2 .... ....|--- .... ....|G-4 D... ....
....|..|D-2 .... ....|--- .... ....|D-2 8... ....
....|..|--- .... ....|--- .... ....|F-4 B... ....
....|..|--- .... ....|--- .... ....|D-2 8... ....
....|..|D-2 .... ....|G-3 .... ....|F-4 4... ....
....|..|--- .... ....|--- .... ....|C-2 8... ....
....|..|D-2 .... ....|--- .... ....|F-4 B... ....
....|..|D-2 .... ....|--- .... ....|D-2 8... ....
....|..|--- .... ....|--- .... ....|G-4 D... ....
....|..|D-2 .... ....|--- .... ....|--- .... ....
....|..|--- .... ....|--- .... ....|F-4 B... ....
....|..|D-2 .... ....|--- .... ....|--- .... ....
....|..|D-2 .... ....|--- .... ....|F-4 4... ....
....|..|--- .... ....|--- .... ....|C-2 8... ....
....|..|D-2 .... ....|--- .... ....|F-4 B... ....
....|..|--- .... ....|--- .... ....|C-2 8... ....
....|..|D-2 .... ....|A-3 .... ....|G-4 D... ....
....|..|D-2 .... ....|--- .... ....|C-2 8... ....
....|..|--- .... ....|G-3 .... ....|F-4 B... ....
....|..|C-2 .... ....|--- .... ....|C-2 8... ....

[Pattern3]
....|..|F-2 8F.F ....|F-3 AFFF ....|F-4 4..E ....
....|..|--- .... ....|--- .... ....|--- .... ....
....|..|F-2 .... ....|--- .... ....|F-4 B... ....
....|..|F-2 .... ....|--- .... ....|--- .... ....
....|..|--- .... ....|--- .... ....|F-4 D... ....
....|..|F-2 .... ....|--- .... ....|--- .... ....
....|..|--- .... ....|--- .... ....|F-4 B... ....
....|..|F-2 .... ....|--- .... ....|--- .... ....
....|..|F-2 .... ....|--- .... ....|F-4 4... ....
....|..|--- .... ....|--- .... ....|--- .... ....
....|..|F-2 .... ....|--- .... ....|F-4 B... ....
....|..|--- .... ....|--- .... ....|--- .... ....
....|..|F-2 .... ....|--- .... ....|F-4 D... ....
....|..|F-2 .... ....|--- .... ....|--- .... ....
....|..|--- .... ....|--- .... ....|F-4 B... ....
....|..|--- .... ....|--- .... ....|--- .... ....
....|..|F-2 .... ....|--- .... ....|F-4 4... ....
....|..|--- .... ....|--- .... ....|--- .... ....
....|..|F-2 .... ....|--- .... ....|F-4 B... ....
....|..|F-2 .... ....|--- .... ....|--- .... ....
....|..|--- .... ....|--- .... ....|F-4 D... ....
....|..|F-2 .... ....|--- .... ....|--- .... ....
....|..|--- .... ....|--- .... ....|F-4 B... ....
....|..|F-2 .... ....|--- .... ....|--- .... ....
....|..|F-2 .... ....|--- .... ....|F-4 4... ....
....|..|--- .... ....|--- .... ....|--- .... ....
....|..|F-2 .... ....|--- .... ....|F-4 B... ....
....|..|--- .... ....|--- .... ....|--- .... ....
....|..|F-2 .... ....|--- .... ....|F-4 D... ....
....|..|F-2 .... ....|--- .... ....|--- .... ....
....|..|--- .... ....|--- .... ....|F-4 B... ....
....|..|--- .... ....|--- .... ....|--- .... ....
....|..|D-2 .... ....|E-3 .... ....|F-4 4... ....
....|..|--- .... ....|--- .... ....|--- .... ....
....|..|D-2 .... ....|--- .... ....|F-4 B... ....
....|..|D-2 .... ....|--- .... ....|--- .... ....
....|..|--- .... ....|--- .... ....|E-4 D... ....
....|..|D-2 .... ....|--- .... ....|--- .... ....
....|..|--- .... ....|--- .... ....|F-4 B... ....
....|..|D-2 .... ....|--- .... ....|--- .... ....
....|..|D-2 .... ....|--- .... ....|F-4 4... ....
....|..|--- .... ....|--- .... ....|--- .... ....
....|..|D-2 .... ....|--- .... ....|F-4 B... ....
....|..|--- .... ....|--- .... ....|--- .... ....
....|..|D-2 .... ....|F-3 .... ....|F-4 D... ....
....|..|D-2 .... ....|--- .... ....|--- .... ....
....|..|--- .... ....|E-3 .... ....|F-4 B... ....
....|..|--- .... ....|--- .... ....|--- .... ....
....|..|D-2 .... ....|F-3 .... ....|F-4 4... ....
....|..|--- .... ....|--- .... ....|--- .... ....
....|..|D-2 .... ....|--- .... ....|F-4 B... ....
....|..|D-2 .... ....|--- .... ....|--- .... ....
....|..|--- .... ....|--- .... ....|F-4 D... ....
....|..|D-2 .... ....|--- .... ....|--- .... ....
....|..|--- .... ....|--- .... ....|F-4 B... ....
....|..|D-2 .... ....|--- .... ....|--- .... ....
....|..|D-2 .... ....|--- .... ....|F-4 4... ....
....|..|--- .... ....|--- .... ....|--- .... ....
....|..|D-2 .... ....|--- .... ....|F-4 B... ....
....|..|--- .... ....|--- .... ....|--- .... ....
....|..|D-2 .... ....|--- .... ....|F-4 D... ....
....|..|D-2 .... ....|--- .... ....|--- .... ....
....|..|--- .... ....|C-3 .... ....|F-4 B... ....
....|..|C-2 .... ....|--- .... ....|--- .... ....

[Pattern4]
....|..|F-2 8F.F ....|F-3 8..F ....|F-4 4..E ....
....|..|--- .... ....|F-1 .... ....|--- .... ....
....|..|F-2 .... ....|F-2 .... ....|F-4 B... ....
....|..|F-2 .... ....|F-1 .... ....|--- .... ....
....|..|--- .... ....|F-3 .... ....|F-4 D... ....
....|..|F-2 .... ....|--- .... ....|--- .... ....
....|..|--- .... ....|F-2 .... ....|F-4 B... ....
....|..|F-2 .... ....|--- .... ....|--- .... ....
....|..|F-2 .... ....|F-3 .... ....|F-4 4... ....
....|..|--- .... ....|F-1 .... ....|--- .... ....
....|..|F-2 .... ....|F-2 .... ....|F-4 B... ....
....|..|--- .... ....|F-1 .... ....|--- .... ....
....|..|F-2 .... ....|F-3 .... ....|F-4 D... ....
....|..|F-2 .... ....|--- .... ....|--- .... ....
....|..|--- .... ....|F-2 .... ....|F-4 B... ....
....|..|--- .... ....|--- .... ....|--- .... ....
....|..|F-2 .... ....|F-3 .... ....|F-4 4... ....
....|..|--- .... ....|F-1 .... ....|--- .... ....
....|..|F-2 .... ....|F-2 .... ....|F-4 B... ....
....|..|F-2 .... ....|F-1 .... ....|--- .... ....
....|..|--- .... ....|F-3 .... ....|F-4 D... ....
....|..|F-2 .... ....|--- .... ....|--- .... ....
....|..|--- .... ....|F-2 .... ....|F-4 B... ....
....|..|F-2 .... ....|--- .... ....|--- .... ....
....|..|F-2 .... ....|F-3 .... ....|F-4 4... ....
....|..|--- .... ....|F-1 .... ....|--- .... ....
....|..|F-2 .... ....|F-2 .... ....|F-4 B... ....
....|..|--- .... ....|F-1 .... ....|--- .... ....
....|..|F-2 .... ....|F-3 .... ....|F-4 D... ....
....|..|F-2 .... ....|--- .... ....|--- .... ....
....|..|--- .... ....|F-2 .... ....|F-4 B... ....
....|..|--- .... ....|--- .... ....|--- .... ....
....|..|D-2 .... ....|F-3 .... ....|F-4 4... ....
....|..|--- .... ....|D-1 .... ....|--- .... ....
....|..|D-2 .... ....|D-2 .... ....|F-4 B... ....
....|..|D-2 .... ....|D-1 .... ....|--- .... ....
....|..|--- .... ....|F-3 .... ....|G-4 D... ....
....|..|D-2 .... ....|--- .... ....|--- .... ....
....|..|--- .... ....|D-2 .... ....|F-4 B... ....
....|..|D-2 .... ....|--- .... ....|--- .... ....
....|..|D-2 .... ....|F-3 .... ....|F-4 4... ....
....|..|--- .... ....|D-1 .... ....|--- .... ....
....|..|D-2 .... ....|D-2 .... ....|F-4 B... ....
....|..|--- .... ....|D-1 .... ....|--- .... ....
....|..|D-2 .... ....|F-3 .... ....|G-4 D... ....
....|..|D-2 .... ....|--- .... ....|--- .... ....
....|..|--- .... ....|D-2 .... ....|F-4 B... ....
....|..|--- .... ....|--- .... ....|--- .... ....
....|..|D-2 .... ....|F-3 .... ....|F-4 4... ....
....|..|--- .... ....|D-1 .... ....|--- .... ....
....|..|D-2 .... ....|D-2 .... ....|F-4 B... ....
....|..|D-2 .... ....|D-1 .... ....|--- .... ....
....|..|--- .... ....|F-3 .... ....|G-4 D... ....
....|..|D-2 .... ....|--- .... ....|--- .... ....
....|..|--- .... ....|D-2 .... ....|F-4 B... ....
....|..|D-2 .... ....|--- .... ....|--- .... ....
....|..|D-2 .... ....|F-3 .... ....|F-4 4... ....
....|..|--- .... ....|D-1 .... ....|--- .... ....
....|..|D-2 .... ....|D-2 .... ....|F-4 B... ....
....|..|--- .... ....|D-1 .... ....|--- .... ....
....|..|D-2 .... ....|C-3 .... ....|G-4 D... ....
....|..|D-2 .... ....|--- .... ....|--- .... ....
....|..|--- .... ....|D-2 .... ....|F-4 B... ....
....|..|C-2 .... ....|--- .... ....|--- .... ....

[Pattern5]
....|..|F-2 8F.F ....|F-4 8F7F ....|F-4 4..E ....
....|..|--- .... ....|--- .... ....|--- .... ....
....|..|F-2 .... ....|F-4 ...D ....|F-4 B... ....
....|..|F-2 .... ....|--- .... ....|--- .... ....
....|..|--- .... ....|F-4 ...C ....|F-4 D... ....
....|..|F-2 .... ....|--- .... ....|--- .... ....
....|..|--- .... ....|F-4 ...D ....|F-4 B... ....
....|..|F-2 .... ....|--- .... ....|--- .... ....
....|..|F-2 .... ....|F-4 ...B ....|F-4 4... ....
....|..|--- .... ....|--- .... ....|--- .... ....
....|..|F-2 .... ....|F-4 ...C ....|F-4 B... ....
....|..|--- .... ....|--- .... ....|--- .... ....
....|..|F-2 .... ....|F-4 ...A ....|F-4 D... ....
....|..|F-2 .... ....|--- .... ....|--- .... ....
....|..|--- .... ....|F-4 ...B ....|F-4 B... ....
....|..|--- .... ....|--- .... ....|--- .... ....
....|..|F-2 .... ....|F-4 ...9 ....|F-4 4... ....
....|..|--- .... ....|--- .... ....|--- .... ....
....|..|F-2 .... ....|F-4 ...A ....|F-4 B... ....
....|..|F-2 .... ....|--- .... ....|--- .... ....
....|..|--- .... ....|F-4 ...8 ....|F-4 D... ....
....|..|F-2 .... ....|--- .... ....|--- .... ....
....|..|--- .... ....|F-4 ...9 ....|F-4 B... ....
....|..|F-2 .... ....|--- .... ....|--- .... ....
....|..|F-2 .... ....|E-4 ...F ....|F-4 4... ....
....|..|--- .... ....|--- .... ....|--- .... ....
....|..|F-2 .... ....|E-4 ...D ....|F-4 B... ....
....|..|--- .... ....|--- .... ....|--- .... ....
....|..|F-2 .... ....|F-4 ...F ....|F-4 D... ....
....|..|F-2 .... ....|--- .... ....|--- .... ....
....|..|--- .... ....|F-4 ...D ....|F-4 B... ....
....|..|--- .... ....|--- .... ....|--- .... ....
....|..|D-2 .... ....|F-4 ...F ....|F-4 4... ....
....|..|--- .... ....|--- .... ....|--- .... ....
....|..|D-2 .... ....|F-4 ...D ....|F-4 B... ....
....|..|D-2 .... ....|--- .... ....|--- .... ....
....|..|--- .... ....|F-4 ...E ....|G-4 D... ....
....|..|D-2 .... ....|--- .... ....|--- .... ....
....|..|--- .... ....|F-4 ...C ....|F-4 B... ....
....|..|D-2 .... ....|--- .... ....|--- .... ....
....|..|D-2 .... ....|F-4 ...D ....|F-4 4... ....
....|..|--- .... ....|--- .... ....|--- .... ....
....|..|D-2 .... ....|F-4 ...B ....|F-4 B... ....
....|..|--- .... ....|--- .... ....|--- .... ....
....|..|D-2 .... ....|E-4 ...F ....|G-4 D... ....
....|..|D-2 .... ....|--- .... ....|--- .... ....
....|..|--- .... ....|F-4 .... ....|F-4 B... ....
....|..|--- .... ....|--- .... ....|--- .... ....
....|..|D-2 .... ....|D-4 .... ....|F-4 4... ....
....|..|--- .... ....|--- .... ....|--- .... ....
....|..|D-2 .... ....|D-4 ...D ....|F-4 B... ....
....|..|D-2 .... ....|--- .... ....|--- .... ....
....|..|--- .... ....|D-4 ...B ....|G-4 D... ....
....|..|D-2 .... ....|--- .... ....|--- .... ....
....|..|--- .... ....|D-4 ...C ....|F-4 B... ....
....|..|D-2 .... ....|--- .... ....|--- .... ....
....|..|D-2 .... ....|D-4 ...F ....|F-4 4... ....
....|..|--- .... ....|--- .... ....|--- .... ....
....|..|D-2 .... ....|D-4 ...D ....|F-4 B... ....
....|..|--- .... ....|C-4 ...F ....|--- .... ....
....|..|D-2 .... ....|--- .... ....|G-4 D... ....
....|..|D-2 .... ....|C-4 ...D ....|--- .... ....
....|..|--- .... ....|E-4 ...F ....|F-4 B... ....
....|..|C-2 .... ....|--- .... ....|--- .... ....

[Pattern7]
....|..|F-2 8FFF ....|F-4 8F7F ....|F-2 9..E ....
....|..|--- .... ....|--- .... ....|--- .... ....
....|..|F-2 .... ....|F-4 ...D ....|--- .... ....
....|..|F-2 .... ....|--- .... ....|--- .... ....
....|..|--- .... ....|F-4 ...C ....|--- .... ....
....|..|F-2 .... ....|--- .... ....|--- .... ....
....|..|--- .... ....|F-4 ...D ....|--- .... ....
....|..|F-2 .... ....|--- .... ....|--- .... ....
....|..|F-2 .... ....|F-4 ...B ....|--- .... ....
....|..|--- .... ....|--- .... ....|--- .... ....
....|..|F-2 .... ....|F-4 ...C ....|--- .... ....
....|..|--- .... ....|--- .... ....|--- .... ....
....|..|F-2 .... ....|F-4 ...A ....|--- .... ....
....|..|F-2 .... ....|--- .... ....|--- .... ....
....|..|--- .... ....|F-4 ...B ....|--- .... ....
....|..|--- .... ....|--- .... ....|--- .... ....
....|..|F-2 .... ....|F-4 ...9 ....|--- .... ....
....|..|--- .... ....|--- .... ....|--- .... ....
....|..|F-2 .... ....|F-4 ...A ....|--- .... ....
....|..|F-2 .... ....|--- .... ....|--- .... ....
....|..|--- .... ....|F-4 ...8 ....|--- .... ....
....|..|F-2 .... ....|--- .... ....|--- .... ....
....|..|--- .... ....|F-4 ...9 ....|--- .... ....
....|..|F-2 .... ....|--- .... ....|--- .... ....
....|..|F-2 .... ....|E-4 ...F ....|--- .... ....
....|..|--- .... ....|--- .... ....|--- .... ....
....|..|F-2 .... ....|E-4 ...D ....|--- .... ....
....|..|--- .... ....|--- .... ....|--- .... ....
....|..|F-2 .... ....|F-4 ...F ....|--- .... ....
....|..|F-2 .... ....|--- .... ....|--- .... ....
....|..|--- .... ....|F-4 ...D ....|--- .... ....
....|..|--- .... ....|--- .... ....|--- .... ....
....|..|D-2 .... ....|F-4 ...F ....|D-2 .... ....
....|..|--- .... ....|--- .... ....|--- .... ....
....|..|D-2 .... ....|F-4 ...D ....|--- .... ....
....|..|D-2 .... ....|--- .... ....|--- .... ....
....|..|--- .... ....|F-4 ...E ....|--- .... ....
....|..|D-2 .... ....|--- .... ....|--- .... ....
....|..|--- .... ....|F-4 ...C ....|--- .... ....
....|..|D-2 .... ....|--- .... ....|--- .... ....
....|..|D-2 .... ....|F-4 ...D ....|--- .... ....
....|..|--- .... ....|--- .... ....|--- .... ....
....|..|D-2 .... ....|F-4 ...B ....|--- .... ....
....|..|--- .... ....|--- .... ....|--- .... ....
....|..|D-2 .... ....|E-4 ...F ....|--- .... ....
....|..|D-2 .... ....|--- .... ....|--- .... ....
....|..|--- .... ....|F-4 .... ....|--- .... ....
....|..|--- .... ....|--- .... ....|--- .... ....
....|..|D-2 .... ....|D-4 .... ....|--- .... ....
....|..|--- .... ....|--- .... ....|--- .... ....
....|..|D-2 .... ....|D-4 ...D ....|--- .... ....
....|..|D-2 .... ....|--- .... ....|--- .... ....
....|..|--- .... ....|D-4 ...B ....|--- .... ....
....|..|D-2 .... ....|--- .... ....|--- .... ....
....|..|--- .... ....|D-4 ...C ....|--- .... ....
....|..|D-2 .... ....|--- .... ....|--- .... ....
....|..|D-2 .... ....|D-4 ...F ....|--- .... ....
....|..|--- .... ....|--- .... ....|--- .... ....
....|..|D-2 .... ....|D-4 ...D ....|--- .... ....
....|..|--- .... ....|C-4 ...F ....|--- .... ....
....|..|D-2 .... ....|--- .... ....|--- .... ....
....|..|D-2 .... ....|C-4 ...D ....|--- .... ....
....|..|--- .... ....|E-4 ...F ....|--- .... ....
....|..|C-2 .... ....|--- .... ....|D-2 .... ....

[Pattern8]
....|..|F-3 8..E 21.6|F-4 8F7F ....|F-4 4..E ....
....|..|F-2 .... ....|--- .... ....|--- .... ....
....|..|F-2 .... ....|F-4 ...D ....|F-4 B... ....
....|..|F-2 .... ....|--- .... ....|--- .... ....
....|..|F-4 .... ....|F-4 ...C ....|F-4 D... ....
....|..|--- .... ....|--- .... ....|--- .... ....
....|..|F-2 .... ....|F-4 ...D ....|F-4 B... ....
....|..|--- .... ....|--- .... ....|--- .... ....
....|..|F-3 .... ....|F-4 ...B ....|F-4 4... ....
....|..|F-4 .... ....|--- .... ....|--- .... ....
....|..|F-2 .... ....|F-4 ...C ....|F-4 B... ....
....|..|F-4 .... ....|--- .... ....|--- .... ....
....|..|F-4 .... ....|F-4 ...A ....|F-4 D... ....
....|..|--- .... ....|--- .... ....|--- .... ....
....|..|F-2 .... ....|F-4 ...B ....|F-4 B... ....
....|..|--- .... ....|--- .... ....|--- .... ....
....|..|F-3 .... ....|F-4 ...9 ....|F-4 4... ....
....|..|F-2 .... ....|--- .... ....|--- .... ....
....|..|F-2 .... ....|F-4 ...A ....|F-4 B... ....
....|..|F-2 .... ....|--- .... ....|--- .... ....
....|..|F-4 .... ....|F-4 ...8 ....|F-4 D... ....
....|..|--- .... ....|--- .... ....|--- .... ....
....|..|F-2 .... ....|F-4 ...9 ....|F-4 B... ....
....|..|--- .... ....|--- .... ....|--- .... ....
....|..|F-3 .... ....|E-4 ...F ....|F-4 4... ....
....|..|D-2 .... ....|--- .... ....|--- .... ....
....|..|G-4 .... ....|E-4 ...D ....|F-4 B... ....
....|..|D-2 .... ....|--- .... ....|--- .... ....
....|..|F-4 .... ....|F-4 ...F ....|F-4 D... ....
....|..|--- .... ....|--- .... ....|--- .... ....
....|..|F-2 .... ....|F-4 ...D ....|F-4 B... ....
....|..|--- .... ....|--- .... ....|--- .... ....
....|..|F-3 .... ....|F-4 ...F ....|F-4 4... ....
....|..|D-2 .... ....|--- .... ....|--- .... ....
....|..|D-2 .... ....|F-4 ...D ....|F-4 B... ....
....|..|D-2 .... ....|--- .... ....|--- .... ....
....|..|F-4 .... ....|F-4 ...E ....|F-4 D... ....
....|..|--- .... ....|--- .... ....|--- .... ....
....|..|D-2 .... ....|F-4 ...C ....|F-4 B... ....
....|..|--- .... ....|--- .... ....|--- .... ....
....|..|F-3 .... ....|F-4 ...D ....|F-4 4... ....
....|..|C-4 .... ....|--- .... ....|--- .... ....
....|..|D-2 .... ....|F-4 ...B ....|F-4 B... ....
....|..|C-4 .... ....|--- .... ....|--- .... ....
....|..|F-4 .... ....|E-4 ...F ....|E-4 D... ....
....|..|--- .... ....|--- .... ....|--- .... ....
....|..|D-2 .... ....|F-4 .... ....|F-4 B... ....
....|..|--- .... ....|--- .... ....|--- .... ....
....|..|F-3 .... ....|D-4 .... ....|F-4 4... ....
....|..|D-2 .... ....|--- .... ....|--- .... ....
....|..|D-2 .... ....|D-4 ...D ....|F-4 B... ....
....|..|D-2 .... ....|--- .... ....|--- .... ....
....|..|F-3 .... ....|D-4 ...B ....|D-4 D... ....
....|..|--- .... ....|--- .... ....|--- .... ....
....|..|D-2 .... ....|D-4 ...C ....|F-4 B... ....
....|..|--- .... ....|--- .... ....|--- .... ....
....|..|F-3 .... ....|D-4 ...F ....|F-4 4... ....
....|..|F-3 .... ....|--- .... ....|--- .... ....
....|..|D-2 .... ....|D-4 ...D ....|F-4 B... ....
....|..|F-3 .... ....|C-4 ...F ....|--- .... ....
....|..|C-3 .... ....|--- .... ....|C-4 D... ....
....|..|--- .... ....|C-4 ...D ....|--- .... ....
....|..|D-2 .... ....|E-4 ...F ....|F-4 B... ....
....|..|--- .... ....|--- .... ....|--- .... ....

[Pattern9]
....|..|F-2 8F.F ....|F-4 8F7F ....|F-2 9..D ....
....|..|--- .... ....|--- .... ....|--- .... ....
....|..|F-2 .... ....|F-4 ...D ....|--- .... ....
....|..|F-2 .... ....|--- .... ....|--- .... ....
....|..|--- .... ....|F-4 ...C ....|--- .... ....
....|..|F-2 .... ....|--- .... ....|--- .... ....
....|..|--- .... ....|F-4 ...D ....|--- .... ....
....|..|F-2 .... ....|--- .... ....|--- .... ....
....|..|F-2 .... ....|F-4 ...B ....|--- .... ....
....|..|--- .... ....|--- .... ....|--- .... ....
....|..|F-2 .... ....|F-4 ...C ....|--- .... ....
....|..|--- .... ....|--- .... ....|--- .... ....
....|..|F-2 .... ....|F-4 ...A ....|--- .... ....
....|..|F-2 .... ....|--- .... ....|--- .... ....
....|..|--- .... ....|F-4 ...B ....|--- .... ....
....|..|--- .... ....|--- .... ....|--- .... ....
....|..|F-2 .... ....|F-4 ...9 ....|--- .... ....
....|..|--- .... ....|--- .... ....|--- .... ....
....|..|F-2 .... ....|F-4 ...A ....|--- .... ....
....|..|F-2 .... ....|--- .... ....|--- .... ....
....|..|--- .... ....|F-4 ...8 ....|--- .... ....
....|..|F-2 .... ....|--- .... ....|--- .... ....
....|..|--- .... ....|F-4 ...9 ....|--- .... ....
....|..|F-2 .... ....|--- .... ....|--- .... ....
....|..|F-2 .... ....|E-4 ...F ....|--- .... ....
....|..|--- .... ....|--- .... ....|--- .... ....
....|..|F-2 .... ....|E-4 ...D ....|--- .... ....
....|..|--- .... ....|--- .... ....|--- .... ....
....|..|F-2 .... ....|F-4 ...F ....|--- .... ....
....|..|F-2 .... ....|--- .... ....|--- .... ....
....|..|--- .... ....|F-4 ...D ....|--- .... ....
....|..|--- .... ....|--- .... ....|--- .... ....
....|..|D-2 .... ....|F-4 ...F ....|D-2 .... ....
....|..|--- .... ....|--- .... ....|--- .... ....
....|..|D-2 .... ....|F-4 ...D ....|--- .... ....
....|..|D-2 .... ....|--- .... ....|--- .... ....
....|..|--- .... ....|F-4 ...E ....|--- .... ....
....|..|D-2 .... ....|--- .... ....|--- .... ....
....|..|--- .... ....|F-4 ...C ....|--- .... ....
....|..|D-2 .... ....|--- .... ....|--- .... ....
....|..|D-2 .... ....|F-4 ...D ....|--- .... ....
....|..|--- .... ....|--- .... ....|--- .... ....
....|..|D-2 .... ....|F-4 ...B ....|--- .... ....
....|..|--- .... ....|--- .... ....|--- .... ....
....|..|D-2 .... ....|E-4 ...F ....|--- .... ....
....|..|D-2 .... ....|--- .... ....|--- .... ....
....|..|--- .... ....|F-4 .... ....|--- .... ....
....|..|--- .... ....|--- .... ....|--- .... ....
....|..|D-2 .... ....|D-4 .... ....|--- .... ....
....|..|--- .... ....|--- .... ....|--- .... ....
....|..|D-2 .... ....|D-4 ...D ....|--- .... ....
....|..|D-2 .... ....|--- .... ....|--- .... ....
....|..|--- .... ....|D-4 ...B ....|--- .... ....
....|..|D-2 .... ....|--- .... ....|--- .... ....
....|..|--- .... ....|D-4 ...C ....|D-4 4..F ....
....|..|D-2 .... ....|--- .... ....|--- .... ....
....|..|D-2 .... ....|D-4 ...F ....|--- .... ....
....|..|--- .... ....|--- .... ....|D-4 .... ....
....|..|D-2 .... ....|D-4 ...D ....|--- .... ....
....|..|--- .... ....|C-4 ...F ....|--- .... ....
....|..|D-2 .... ....|--- .... ....|D-4 .... ....
....|..|D-2 .... ....|C-4 ...D ....|--- .... ....
....|..|--- .... ....|E-4 ...F ....|D-4 .... ....
....|..|C-2 .... ....|--- .... ....|D-4 .... ....

[Pattern10]
....|..|F-2 8F.. ....|C-4 A... ....|F-3 9..C ....
....|..|--- .... ....|--- .... ....|--- .... ....
....|..|F-2 .... ....|--- .... ....|--- .... ....
....|..|F-2 .... ....|--- .... ....|--- .... ....
....|..|--- .... ....|--- .... ....|--- .... ....
....|..|F-2 .... ....|--- .... ....|--- .... ....
....|..|--- .... ....|--- .... ....|--- .... ....
....|..|F-2 .... ....|--- .... ....|--- .... ....
....|..|F-2 .... ....|--- .... ....|--- .... ....
....|..|--- .... ....|--- .... ....|--- .... ....
....|..|F-2 .... ....|--- .... ....|--- .... ....
....|..|--- .... ....|--- .... ....|--- .... ....
....|..|F-2 .... ....|--- .... ....|--- .... ....
....|..|F-2 .... ....|--- .... ....|--- .... ....
....|..|--- .... ....|--- .... ....|--- .... ....
....|..|--- .... ....|--- .... ....|--- .... ....
....|..|F-2 .... ....|C-4 .... ....|--- .... ....
....|..|--- .... ....|--- .... ....|--- .... ....
....|..|F-2 .... ....|--- .... ....|--- .... ....
....|..|F-2 .... ....|--- .... ....|--- .... ....
....|..|--- .... ....|--- .... ....|--- .... ....
....|..|F-2 .... ....|--- .... ....|--- .... ....
....|..|--- .... ....|--- .... ....|--- .... ....
....|..|F-2 .... ....|--- .... ....|--- .... ....
....|..|F-2 .... ....|--- .... ....|--- .... ....
....|..|--- .... ....|--- .... ....|--- .... ....
....|..|F-2 .... ....|--- .... ....|--- .... ....
....|..|--- .... ....|--- .... ....|--- .... ....
....|..|F-2 .... ....|--- .... ....|--- .... ....
....|..|F-2 .... ....|--- .... ....|--- .... ....
....|..|--- .... ....|--- .... ....|--- .... ....
....|..|--- .... ....|--- .... ....|--- .... ....
....|..|D-2 .... ....|A-3 .... ....|D-3 .... ....
....|..|--- .... ....|--- .... ....|--- .... ....
....|..|D-2 .... ....|--- .... ....|--- .... ....
....|..|D-2 .... ....|--- .... ....|--- .... ....
....|..|--- .... ....|--- .... ....|--- .... ....
....|..|D-2 .... ....|--- .... ....|--- .... ....
....|..|--- .... ....|--- .... ....|--- .... ....
....|..|D-2 .... ....|--- .... ....|--- .... ....
....|..|D-2 .... ....|--- .... ....|--- .... ....
....|..|--- .... ....|--- .... ....|--- .... ....
....|..|D-2 .... ....|--- .... ....|--- .... ....
....|..|--- .... ....|--- .... ....|--- .... ....
....|..|D-2 .... ....|--- .... ....|--- .... ....
....|..|D-2 .... ....|--- .... ....|--- .... ....
....|..|--- .... ....|--- .... ....|--- .... ....
....|..|--- .... ....|--- .... ....|--- .... ....
....|..|D-2 .... ....|G-3 .... ....|--- .... ....
....|..|--- .... ....|--- .... ....|--- .... ....
....|..|D-2 .... ....|--- .... ....|--- .... ....
....|..|D-2 .... ....|--- .... ....|--- .... ....
....|..|--- .... ....|--- .... ....|--- .... ....
....|..|D-2 .... ....|--- .... ....|--- .... ....
....|..|--- .... ....|--- .... ....|--- .... ....
....|..|D-2 .... ....|--- .... ....|--- .... ....
....|..|D-2 .... ....|--- .... ....|--- .... ....
....|..|--- .... ....|--- .... ....|--- .... ....
....|..|D-2 .... ....|--- .... ....|--- .... ....
....|..|--- .... ....|--- .... ....|--- .... ....
....|..|D-2 .... ....|A-3 .... ....|--- .... ....
....|..|D-2 .... ....|--- .... ....|--- .... ....
....|..|--- .... ....|--- .... ....|C-3 .... ....
....|..|C-2 .... ....|--- .... ....|--- .... ....

[Pattern11]
....|..|F-2 8F.. ....|C-4 1F.F ....|F-4 4..E ....
....|..|--- .... ....|--- .... ....|E-2 8F.. ....
....|..|F-2 .... ....|--- .... ....|F-4 B... ....
....|..|F-2 .... ....|--- .... ....|F-2 8... ....
....|..|--- .... ....|--- .... ....|F-4 D... ....
....|..|F-2 .... ....|--- .... ....|--- .... ....
....|..|--- .... ....|--- .... ....|F-4 B... ....
....|..|F-2 .... ....|--- .... ....|--- .... ....
....|..|F-2 .... ....|--- .... ....|F-4 4... ....
....|..|--- .... ....|--- .... ....|F-2 8... ....
....|..|F-2 .... ....|--- .... ....|F-4 B... ....
....|..|--- .... ....|--- .... ....|F-2 8... ....
....|..|F-2 .... ....|--- .... ....|F-4 D... ....
....|..|F-2 .... ....|--- .... ....|F-2 8... ....
....|..|--- .... ....|--- .... ....|F-4 B... ....
....|..|--- .... ....|--- .... ....|F-2 8... ....
....|..|F-2 .... ....|--- .... ....|F-4 4... ....
....|..|--- .... ....|--- .... ....|E-2 8... ....
....|..|F-2 .... ....|--- .... ....|F-4 B... ....
....|..|F-2 .... ....|--- .... ....|F-2 8... ....
....|..|--- .... ....|--- .... ....|F-4 D... ....
....|..|F-2 .... ....|--- .... ....|--- .... ....
....|..|--- .... ....|--- .... ....|F-4 B... ....
....|..|F-2 .... ....|--- .... ....|--- .... ....
....|..|F-2 .... ....|A-3 .... ....|F-4 4... ....
....|..|--- .... ....|--- .... ....|F-2 8... ....
....|..|F-2 .... ....|--- .... ....|F-4 B... ....
....|..|--- .... ....|--- .... ....|F-2 8... ....
....|..|F-2 .... ....|C-4 .... ....|F-4 D... ....
....|..|F-2 .... ....|--- .... ....|F-2 8... ....
....|..|--- .... ....|--- .... ....|F-4 B... ....
....|..|--- .... ....|--- .... ....|F-2 8... ....
....|..|D-2 .... ....|E-4 .... ....|F-4 4... ....
....|..|--- .... ....|--- .... ....|C-2 8... ....
....|..|D-2 .... ....|--- .... ....|F-4 B... ....
....|..|D-2 .... ....|--- .... ....|D-2 8... ....
....|..|--- .... ....|F-4 .... ....|G-4 D... ....
....|..|D-2 .... ....|--- .... ....|--- .... ....
....|..|--- .... ....|--- .... ....|F-4 B... ....
....|..|D-2 .... ....|--- .... ....|--- .... ....
....|..|D-2 .... ....|--- .... ....|F-4 4... ....
....|..|--- .... ....|--- .... ....|D-2 8... ....
....|..|D-2 .... ....|E-4 .... ....|F-4 B... ....
....|..|--- .... ....|--- .... ....|D-2 8... ....
....|..|D-2 .... ....|--- .... ....|G-4 D... ....
....|..|D-2 .... ....|--- .... ....|D-2 8... ....
....|..|--- .... ....|F-4 .... ....|F-4 B... ....
....|..|--- .... ....|--- .... ....|D-2 8... ....
....|..|D-2 .... ....|D-4 .... ....|F-4 4... ....
....|..|--- .... ....|--- .... ....|C-2 8... ....
....|..|D-2 .... ....|--- .... ....|F-4 B... ....
....|..|D-2 .... ....|--- .... ....|D-2 8... ....
....|..|--- .... ....|--- .... ....|G-4 D... ....
....|..|D-2 .... ....|--- .... ....|--- .... ....
....|..|--- .... ....|--- .... ....|F-4 B... ....
....|..|D-2 .... ....|--- .... ....|--- .... ....
....|..|D-2 .... ....|D-4 .... ....|F-4 4... ....
....|..|--- .... ....|--- .... ....|C-2 8... ....
....|..|D-2 .... ....|--- .... ....|F-4 B... ....
....|..|--- .... ....|--- .... ....|C-2 8... ....
....|..|D-2 .... ....|C-4 .... ....|G-4 D... ....
....|..|D-2 .... ....|--- .... ....|C-2 8... ....
....|..|--- .... ....|--- .... ....|F-4 B... ....
....|..|D-2 .... ....|--- .... ....|C-2 8... ....

[Pattern12]
....|..|C-2 8F.. ....|C-4 1... ....|C-4 4..E ....
....|..|--- .... ....|--- .... ....|B-1 8F.. ....
....|..|C-2 .... ....|--- .... ....|C-4 B... ....
....|..|C-2 .... ....|--- .... ....|C-2 8... ....
....|..|--- .... ....|--- .... ....|C-4 D... ....
....|..|C-2 .... ....|--- .... ....|--- .... ....
....|..|--- .... ....|G-3 .... ....|C-4 B... ....
....|..|C-2 .... ....|--- .... ....|--- .... ....
....|..|C-2 .... ....|--- .... ....|C-4 4... ....
....|..|--- .... ....|--- .... ....|C-2 8... ....
....|..|C-2 .... ....|--- .... ....|C-4 B... ....
....|..|--- .... ....|--- .... ....|C-2 8... ....
....|..|C-2 .... ....|--- .... ....|C-4 D... ....
....|..|C-2 .... ....|--- .... ....|C-2 8... ....
....|..|--- .... ....|--- .... ....|C-4 B... ....
....|..|--- .... ....|--- .... ....|C-2 8... ....
....|..|C-2 .... ....|--- .... ....|C-4 4... ....
....|..|--- .... ....|--- .... ....|B-1 8... ....
....|..|C-2 .... ....|--- .... ....|C-4 B... ....
....|..|C-2 .... ....|--- .... ....|C-2 8... ....
....|..|--- .... ....|--- .... ....|C-4 D... ....
....|..|C-2 .... ....|--- .... ....|--- .... ....
....|..|--- .... ....|--- .... ....|C-4 B... ....
....|..|C-2 .... ....|--- .... ....|--- .... ....
....|..|C-2 .... ....|--- .... ....|C-4 4... ....
....|..|--- .... ....|--- .... ....|C-2 8... ....
....|..|C-2 .... ....|C-4 .... ....|C-4 B... ....
....|..|--- .... ....|--- .... ....|C-2 8... ....
....|..|C-2 .... ....|--- .... ....|C-4 D... ....
....|..|C-2 .... ....|--- .... ....|C-2 8... ....
....|..|--- .... ....|D-4 .... ....|C-4 B... ....
....|..|--- .... ....|--- .... ....|C-2 8... ....
....|..|A-1 .... ....|--- .... ....|C-4 4... ....
....|..|--- .... ....|--- .... ....|G-1 8... ....
....|..|A-1 .... ....|--- .... ....|C-4 B... ....
....|..|A-1 .... ....|--- .... ....|A-1 8... ....
....|..|--- .... ....|--- .... ....|D-4 D... ....
....|..|A-1 .... ....|--- .... ....|--- .... ....
....|..|--- .... ....|--- .... ....|C-4 B... ....
....|..|A-1 .... ....|--- .... ....|--- .... ....
....|..|A-1 .... ....|--- .... ....|C-4 4... ....
....|..|--- .... ....|--- .... ....|A-1 8... ....
....|..|A-1 .... ....|--- .... ....|C-4 B... ....
....|..|--- .... ....|--- .... ....|A-1 8... ....
....|..|A-1 .... ....|--- .... ....|D-4 D... ....
....|..|A-1 .... ....|--- .... ....|A-1 8... ....
....|..|--- .... ....|--- .... ....|C-4 B... ....
....|..|--- .... ....|--- .... ....|A-1 8... ....
....|..|A-1 .... ....|C-4 .... ....|C-4 4... ....
....|..|--- .... ....|--- .... ....|G-1 8... ....
....|..|A-1 .... ....|--- .... ....|C-4 B... ....
....|..|A-1 .... ....|--- .... ....|A-1 8... ....
....|..|--- .... ....|--- .... ....|D-4 D... ....
....|..|A-1 .... ....|--- .... ....|--- .... ....
....|..|--- .... ....|--- .... ....|C-4 B... ....
....|..|A-1 .... ....|--- .... ....|--- .... ....
....|..|G-1 .... ....|--- .... ....|C-4 4... ....
....|..|--- .... ....|--- .... ....|G-1 8... ....
....|..|G-1 .... ....|--- .... ....|C-4 B... ....
....|..|--- .... ....|--- .... ....|G-1 8... ....
....|..|G-1 .... ....|--- .... ....|D-4 D... ....
....|..|G-1 .... ....|--- .... ....|G-1 8... ....
....|..|--- .... ....|--- .... ....|C-4 B... ....
....|..|G-1 .... ....|--- .... ....|G-1 8... ....

[Pattern13]
....|..|F-2 8F.. ....|A-4 2... ....|F-4 4..E ....
....|..|--- .... ....|--- .... ....|E-2 8F.. ....
....|..|F-2 .... ....|--- .... ....|F-4 B... ....
....|..|F-2 .... ....|--- .... ....|F-2 8... ....
....|..|--- .... ....|--- .... ....|F-4 D... ....
....|..|F-2 .... ....|--- .... ....|--- .... ....
....|..|--- .... ....|--- .... ....|F-4 B... ....
....|..|F-2 .... ....|--- .... ....|--- .... ....
....|..|F-2 .... ....|F-4 .... ....|F-4 4... ....
....|..|--- .... ....|--- .... ....|F-2 8... ....
....|..|F-2 .... ....|--- .... ....|F-4 B... ....
....|..|--- .... ....|--- .... ....|F-2 8... ....
....|..|F-2 .... ....|--- .... ....|F-4 D... ....
....|..|F-2 .... ....|--- .... ....|F-2 8... ....
....|..|--- .... ....|--- .... ....|F-4 B... ....
....|..|--- .... ....|--- .... ....|F-2 8... ....
....|..|F-2 .... ....|--- .... ....|F-4 4... ....
....|..|--- .... ....|--- .... ....|E-2 8... ....
....|..|F-2 .... ....|--- .... ....|F-4 B... ....
....|..|F-2 .... ....|--- .... ....|F-2 8... ....
....|..|--- .... ....|--- .... ....|F-4 D... ....
....|..|F-2 .... ....|--- .... ....|--- .... ....
....|..|--- .... ....|--- .... ....|F-4 B... ....
....|..|F-2 .... ....|--- .... ....|--- .... ....
....|..|F-2 .... ....|--- .... ....|F-4 4... ....
....|..|--- .... ....|--- .... ....|F-2 8... ....
....|..|F-2 .... ....|E-4 .... ....|F-4 B... ....
....|..|--- .... ....|--- .... ....|F-2 8... ....
....|..|F-2 .... ....|--- .... ....|F-4 D... ....
....|..|F-2 .... ....|F-4 .... ....|F-2 8... ....
....|..|--- .... ....|--- .... ....|F-4 B... ....
....|..|--- .... ....|--- .... ....|F-2 8... ....
....|..|D-2 .... ....|E-4 .... ....|F-4 4... ....
....|..|--- .... ....|--- .... ....|C-2 8... ....
....|..|D-2 .... ....|--- .... ....|F-4 B... ....
....|..|D-2 .... ....|--- .... ....|D-2 8... ....
....|..|--- .... ....|D-4 .... ....|G-4 D... ....
....|..|D-2 .... ....|--- .... ....|--- .... ....
....|..|--- .... ....|F-4 .... ....|F-4 B... ....
....|..|D-2 .... ....|--- .... ....|--- .... ....
....|..|D-2 .... ....|--- .... ....|F-4 4... ....
....|..|--- .... ....|--- .... ....|D-2 8... ....
....|..|D-2 .... ....|--- .... ....|F-4 B... ....
....|..|--- .... ....|--- .... ....|D-2 8... ....
....|..|D-2 .... ....|--- .... ....|G-4 D... ....
....|..|D-2 .... ....|--- .... ....|D-2 8... ....
....|..|--- .... ....|--- .... ....|F-4 B... ....
....|..|--- .... ....|--- .... ....|D-2 8... ....
....|..|D-2 .... ....|--- .... ....|F-4 4... ....
....|..|--- .... ....|--- .... ....|C-2 8... ....
....|..|D-2 .... ....|--- .... ....|F-4 B... ....
....|..|D-2 .... ....|--- .... ....|D-2 8... ....
....|..|--- .... ....|--- .... ....|G-4 D... ....
....|..|D-2 .... ....|--- .... ....|--- .... ....
....|..|--- .... ....|--- .... ....|F-4 B... ....
....|..|D-2 .... ....|--- .... ....|--- .... ....
....|..|D-2 .... ....|--- .... ....|F-4 4... ....
....|..|--- .... ....|--- .... ....|C-2 8... ....
....|..|D-2 .... ....|--- .... ....|F-4 B... ....
....|..|--- .... ....|--- .... ....|C-2 8... ....
....|..|D-2 .... ....|--- .... ....|G-4 D... ....
....|..|D-2 .... ....|--- .... ....|C-2 8... ....
....|..|--- .... ....|--- .... ....|F-4 B... ....
....|..|C-2 .... ....|--- .... ....|C-2 8... ....

[Pattern14]
....|..|F-2 8F.. ....|A-4 .... ....|F-4 4..E ....
....|..|--- .... ....|--- .... ....|E-2 8F.. ....
....|..|F-2 .... ....|--- .... ....|F-4 B... ....
....|..|F-2 .... ....|--- .... ....|F-2 8... ....
....|..|--- .... ....|--- .... ....|F-4 D... ....
....|..|F-2 .... ....|--- .... ....|--- .... ....
....|..|--- .... ....|--- .... ....|F-4 B... ....
....|..|F-2 .... ....|--- .... ....|--- .... ....
....|..|F-2 .... ....|F-4 .... ....|F-4 4... ....
....|..|--- .... ....|--- .... ....|F-2 8... ....
....|..|F-2 .... ....|--- .... ....|F-4 B... ....
....|..|--- .... ....|--- .... ....|F-2 8... ....
....|..|F-2 .... ....|--- .... ....|F-4 D... ....
....|..|F-2 .... ....|--- .... ....|F-2 8... ....
....|..|--- .... ....|--- .... ....|F-4 B... ....
....|..|--- .... ....|--- .... ....|F-2 8... ....
....|..|F-2 .... ....|--- .... ....|F-4 4... ....
....|..|--- .... ....|--- .... ....|E-2 8... ....
....|..|F-2 .... ....|--- .... ....|F-4 B... ....
....|..|F-2 .... ....|--- .... ....|F-2 8... ....
....|..|--- .... ....|--- .... ....|F-4 D... ....
....|..|F-2 .... ....|--- .... ....|--- .... ....
....|..|--- .... ....|--- .... ....|F-4 B... ....
....|..|F-2 .... ....|--- .... ....|--- .... ....
....|..|F-2 .... ....|G-4 .... ....|F-4 4... ....
....|..|--- .... ....|--- .... ....|F-2 8... ....
....|..|F-2 .... ....|--- .... ....|F-4 B... ....
....|..|--- .... ....|--- .... ....|F-2 8... ....
....|..|F-2 .... ....|F-4 .... ....|F-4 D... ....
....|..|F-2 .... ....|--- .... ....|F-2 8... ....
....|..|--- .... ....|E-4 .... ....|F-4 B... ....
....|..|--- .... ....|--- .... ....|F-2 8... ....
....|..|D-2 .... ....|--- .... ....|F-4 4... ....
....|..|--- .... ....|--- .... ....|C-2 8... ....
....|..|D-2 .... ....|D-4 .... ....|F-4 B... ....
....|..|D-2 .... ....|--- .... ....|D-2 8... ....
....|..|--- .... ....|--- .... ....|G-4 D... ....
....|..|D-2 .... ....|--- .... ....|--- .... ....
....|..|--- .... ....|F-4 .... ....|F-4 B... ....
....|..|D-2 .... ....|--- .... ....|--- .... ....
....|..|D-2 .... ....|--- .... ....|F-4 4... ....
....|..|--- .... ....|--- .... ....|D-2 8... ....
....|..|D-2 .... ....|--- .... ....|F-4 B... ....
....|..|--- .... ....|--- .... ....|D-2 8... ....
....|..|D-2 .... ....|--- .... ....|G-4 D... ....
....|..|D-2 .... ....|--- .... ....|D-2 8... ....
....|..|--- .... ....|--- .... ....|F-4 B... ....
....|..|--- .... ....|--- .... ....|D-2 8... ....
....|..|D-2 .... ....|--- .... ....|F-4 4... ....
....|..|--- .... ....|--- .... ....|C-2 8... ....
....|..|D-2 .... ....|--- .... ....|F-4 B... ....
....|..|D-2 .... ....|--- .... ....|D-2 8... ....
....|..|--- .... ....|--- .... ....|G-4 D... ....
....|..|D-2 .... ....|--- .... ....|--- .... ....
....|..|--- .... ....|--- .... ....|F-4 B... ....
....|..|D-2 .... ....|--- .... ....|--- .... ....
....|..|D-2 .... ....|--- .... ....|F-4 4... ....
....|..|--- .... ....|--- .... ....|C-2 8... ....
....|..|D-2 .... ....|--- .... ....|F-4 B... ....
....|..|--- .... ....|--- .... ....|C-2 8... ....
....|..|D-2 .... ....|--- .... ....|G-4 D... ....
....|..|D-2 .... ....|--- .... ....|C-2 8... ....
....|..|--- .... ....|--- .... ....|F-4 B... ....
....|..|C-2 .... ....|--- .... ....|C-2 8... ....

[Pattern15]
....|..|F-2 8F.. ....|C-4 .... ....|F-4 4..E ....
....|..|--- .... ....|--- .... ....|E-2 8F.. ....
....|..|F-2 .... ....|--- .... ....|F-4 B... ....
....|..|F-2 .... ....|--- .... ....|F-2 8... ....
....|..|--- .... ....|A-3 .... ....|F-4 D... ....
....|..|F-2 .... ....|--- .... ....|--- .... ....
....|..|--- .... ....|C-4 .... ....|F-4 B... ....
....|..|F-2 .... ....|--- .... ....|--- .... ....
....|..|F-2 .... ....|--- .... ....|F-4 4... ....
....|..|--- .... ....|--- .... ....|F-2 8... ....
....|..|F-2 .... ....|--- .... ....|F-4 B... ....
....|..|--- .... ....|--- .... ....|F-2 8... ....
....|..|F-2 .... ....|--- .... ....|F-4 D... ....
....|..|F-2 .... ....|--- .... ....|F-2 8... ....
....|..|--- .... ....|--- .... ....|F-4 B... ....
....|..|--- .... ....|--- .... ....|F-2 8... ....
....|..|F-2 .... ....|--- .... ....|F-4 4... ....
....|..|--- .... ....|--- .... ....|E-2 8... ....
....|..|F-2 .... ....|--- .... ....|F-4 B... ....
....|..|F-2 .... ....|--- .... ....|F-2 8... ....
....|..|--- .... ....|--- .... ....|F-4 D... ....
....|..|F-2 .... ....|--- .... ....|--- .... ....
....|..|--- .... ....|A-3 .... ....|F-4 B... ....
....|..|F-2 .... ....|--- .... ....|--- .... ....
....|..|F-2 .... ....|E-4 .... ....|F-4 4... ....
....|..|--- .... ....|--- .... ....|F-2 8... ....
....|..|F-2 .... ....|F-4 .... ....|F-4 B... ....
....|..|--- .... ....|--- .... ....|F-2 8... ....
....|..|F-2 .... ....|E-4 .... ....|F-4 D... ....
....|..|F-2 .... ....|--- .... ....|F-2 8... ....
....|..|--- .... ....|D-4 .... ....|F-4 B... ....
....|..|--- .... ....|--- .... ....|F-2 8... ....
....|..|D-2 .... ....|--- .... ....|F-4 4... ....
....|..|--- .... ....|--- .... ....|C-2 8... ....
....|..|D-2 .... ....|--- .... ....|F-4 B... ....
....|..|D-2 .... ....|--- .... ....|D-2 8... ....
....|..|--- .... ....|--- .... ....|G-4 D... ....
....|..|D-2 .... ....|--- .... ....|--- .... ....
....|..|--- .... ....|--- .... ....|F-4 B... ....
....|..|D-2 .... ....|--- .... ....|--- .... ....
....|..|D-2 .... ....|--- .... ....|F-4 4... ....
....|..|--- .... ....|--- .... ....|D-2 8... ....
....|..|D-2 .... ....|--- .... ....|F-4 B... ....
....|..|--- .... ....|--- .... ....|D-2 8... ....
....|..|D-2 .... ....|--- .... ....|G-4 D... ....
....|..|D-2 .... ....|--- .... ....|D-2 8... ....
....|..|--- .... ....|--- .... ....|F-4 B... ....
....|..|--- .... ....|--- .... ....|D-2 8... ....
....|..|D-2 .... ....|C-4 .... ....|F-4 4... ....
....|..|--- .... ....|--- .... ....|C-2 8... ....
....|..|D-2 .... ....|--- .... ....|F-4 B... ....
....|..|D-2 .... ....|--- .... ....|D-2 8... ....
....|..|--- .... ....|--- .... ....|G-4 D... ....
....|..|D-2 .... ....|--- .... ....|--- .... ....
....|..|--- .... ....|--- .... ....|F-4 B... ....
....|..|D-2 .... ....|--- .... ....|--- .... ....
....|..|D-2 .... ....|--- .... ....|F-4 4... ....
....|..|--- .... ....|--- .... ....|C-2 8... ....
....|..|D-2 .... ....|--- .... ....|F-4 B... ....
....|..|--- .... ....|--- .... ....|C-2 8... ....
....|..|D-2 .... ....|--- .... ....|G-4 D... ....
....|..|D-2 .... ....|--- .... ....|C-2 8... ....
....|..|--- .... ....|--- .... ....|F-4 B... ....
....|..|C-2 .... ....|--- .... ....|C-2 8... ....

[Pattern16]
....|..|F-2 8F.. ....|C-4 2..F ....|F-4 4..E ....
....|..|--- .... ....|--- .... ....|E-2 8F.. ....
....|..|F-2 .... ....|--- ...D ....|F-4 B... ....
....|..|F-2 .... ....|--- .... ....|F-2 8... ....
....|..|--- .... ....|--- ...E ....|F-4 D... ....
....|..|F-2 .... ....|--- .... ....|--- .... ....
....|..|--- .... ....|--- .... ....|F-4 B... ....
....|..|F-2 .... ....|--- .... ....|--- .... ....
....|..|F-2 .... ....|--- ...C ....|F-4 4... ....
....|..|--- .... ....|--- .... ....|F-2 8... ....
....|..|F-2 .... ....|--- ...D ....|F-4 B... ....
....|..|--- .... ....|--- .... ....|F-2 8... ....
....|..|F-2 .... ....|--- .... ....|F-4 D... ....
....|..|F-2 .... ....|--- .... ....|F-2 8... ....
....|..|--- .... ....|--- ...B ....|F-4 B... ....
....|..|--- .... ....|--- .... ....|F-2 8... ....
....|..|F-2 .... ....|--- ...C ....|F-4 4... ....
....|..|--- .... ....|--- .... ....|E-2 8... ....
....|..|F-2 .... ....|--- .... ....|F-4 B... ....
....|..|F-2 .... ....|--- .... ....|F-2 8... ....
....|..|--- .... ....|--- ...A ....|F-4 D... ....
....|..|F-2 .... ....|--- .... ....|--- .... ....
....|..|--- .... ....|--- ...B ....|F-4 B... ....
....|..|F-2 .... ....|--- .... ....|--- .... ....
....|..|F-2 .... ....|--- .... ....|F-4 4... ....
....|..|--- .... ....|--- .... ....|F-2 8... ....
....|..|F-2 .... ....|--- ...9 ....|F-4 B... ....
....|..|--- .... ....|--- .... ....|F-2 8... ....
....|..|F-2 .... ....|--- ...A ....|F-4 D... ....
....|..|F-2 .... ....|--- .... ....|F-2 8... ....
....|..|--- .... ....|--- .... ....|F-4 B... ....
....|..|--- .... ....|--- .... ....|F-2 8... ....
....|..|D-2 .... ....|--- ...8 ....|F-4 4... ....
....|..|--- .... ....|--- .... ....|C-2 8... ....
....|..|D-2 .... ....|--- ...9 ....|F-4 B... ....
....|..|D-2 .... ....|--- .... ....|D-2 8... ....
....|..|--- .... ....|--- .... ....|G-4 D... ....
....|..|D-2 .... ....|--- .... ....|--- .... ....
....|..|--- .... ....|--- ...7 ....|F-4 B... ....
....|..|D-2 .... ....|--- .... ....|--- .... ....
....|..|D-2 .... ....|--- ...8 ....|F-4 4... ....
....|..|--- .... ....|--- .... ....|D-2 8... ....
....|..|D-2 .... ....|--- ...7 ....|F-4 B... ....
....|..|--- .... ....|--- .... ....|D-2 8... ....
....|..|D-2 .... ....|--- ...5 ....|G-4 D... ....
....|..|D-2 .... ....|--- .... ....|D-2 8... ....
....|..|--- .... ....|--- ...6 ....|F-4 B... ....
....|..|--- .... ....|--- .... ....|D-2 8... ....
....|..|D-2 .... ....|--- .... ....|F-4 4... ....
....|..|--- .... ....|--- .... ....|C-2 8... ....
....|..|D-2 .... ....|--- ...4 ....|F-4 B... ....
....|..|D-2 .... ....|--- .... ....|D-2 8... ....
....|..|--- .... ....|--- ...5 ....|G-4 D... ....
....|..|D-2 .... ....|--- .... ....|--- .... ....
....|..|--- .... ....|--- .... ....|F-4 B... ....
....|..|D-2 .... ....|--- .... ....|--- .... ....
....|..|D-2 .... ....|--- ...3 ....|F-4 4... ....
....|..|--- .... ....|--- .... ....|C-2 8... ....
....|..|D-2 .... ....|--- ...4 ....|F-4 B... ....
....|..|--- .... ....|--- .... ....|C-2 8... ....
....|..|D-2 .... ....|--- .... ....|G-4 D... ....
....|..|D-2 .... ....|--- .... ....|C-2 8... ....
....|..|--- .... ....|--- ...2 ....|F-4 B... ....
....|..|C-2 .... ....|--- ...1 ....|C-2 8... ....

