[Module]
VortexTrackerII=0
Version=3.7
Title=Free sky
Author=KUVO
NoteTable=2
Speed=5
PlayOrder=2,0,3,L1,6,5,7,4,8,9,10,11,12

[Ornament1]
L12,0

[Ornament2]
L0

[Ornament3]
L0,7,3

[Ornament4]
L0,7,4

[Ornament5]
L0

[Ornament6]
L0

[Ornament7]
L0

[Ornament8]
L0

[Ornament9]
L0

[Ornament10]
L0

[Ornament11]
L0

[Ornament12]
L0

[Ornament13]
L0

[Ornament14]
L0

[Ornament15]
L0

[Sample1]
Tne +000_ +00_ D_
Tne +000_ +00_ E_
Tne +000_ +00_ F_
Tne +000_ +00_ E_
Tne +000_ +00_ C_
Tne +000_ +00_ 8_ L

[Sample2]
Tne +001_ +00_ D_
Tne +002_ +00_ E_
Tne +001_ +00_ F_
Tne +002_ +00_ E_
Tne +001_ +00_ C_
Tne +002_ +00_ 8_ L
Tne +001_ +00_ 8_

[Sample3]
Tne +000_ +00_ F_ L

[Sample4]
Tne +001_ +00_ F_ L
Tne +002_ +00_ F_
Tne +001_ +00_ F_

[Sample5]
TNe +180_ +05_ F_
TNe +200_ +03_ F_
TNe +080_ +04_ E_
TNe +180_ +05_ D_
TNe +100_ +06_ C_
TNe +200_ +07_ B_
tNe +180_ +08_ A_
tNe +280_ +09_ A_
tNe +200_ +0A_ A_
tNe +300_ +0B_ 9_
tNe +280_ +0C_ 9_
tNe +380_ +0D_ 8_
tNe +300_ +0E_ 8_
tNe +400_ +0F_ 7_
tNe +380_ -10_ 7_
tne +000_ +00_ 0_ L

[Sample6]
TNe +200_ +08_ F_
Tne +300_ +00_ E_
Tne +400_ +00_ C_
Tne +480_ +00_ A_
Tne +480_ +00_ 8_
Tne +500_ +00_ 6_
Tne +580_ +00_ 4_
Tne +600_ +00_ 2_
Tne +680_ +00_ 1_
Tne +000_ +00_ 0_ L

[Sample7]
tNe +001_ +00_ F_
TNe +002_ +00_ F_
Tne +001_ +00_ F_
Tne +002_ +00_ E_
Tne +001_ +00_ C_
Tne +002_ +00_ 8_ L
Tne +001_ +00_ 8_

[Sample8]
Tne +000_ +00_ F_ L
Tne +000_ +00_ F_
Tne +000_ +00_ F_
Tne +000_ +00_ E_
Tne +000_ +00_ D_
Tne +000_ +00_ C_
Tne +000_ +00_ B_
Tne +000_ +00_ A_
Tne +000_ +00_ A_
tne +000_ +00_ 0_

[Sample9]
Tne +000_ +00_ F_ L
Tne +000_ +00_ C_
Tne +000_ +00_ F_
tne +000_ +00_ 0_
tne +000_ +00_ 0_
tne +000_ +00_ 0_

[Sample10]
tne +000_ +00_ 0_ L

[Sample11]
tne +000_ +00_ 0_ L

[Sample12]
tne +000_ +00_ 0_ L

[Sample13]
tne +000_ +00_ 0_ L

[Sample14]
tne +000_ +00_ 0_ L

[Sample15]
tne +000_ +00_ 0_ L

[Sample16]
tne +000_ +00_ 0_ L

[Sample17]
tne +000_ +00_ 0_ L

[Sample18]
tne +000_ +00_ 0_ L

[Sample19]
tne +000_ +00_ 0_ L

[Sample20]
tne +000_ +00_ 0_ L

[Sample21]
tne +000_ +00_ 0_ L

[Sample22]
tne +000_ +00_ 0_ L

[Sample23]
tne +000_ +00_ 0_ L

[Sample24]
tne +000_ +00_ 0_ L

[Sample25]
tne +000_ +00_ 0_ L

[Sample26]
tne +000_ +00_ 0_ L

[Sample27]
tne +000_ +00_ 0_ L

[Sample28]
tne +000_ +00_ 0_ L

[Sample29]
tne +000_ +00_ 0_ L

[Sample30]
tne +000_ +00_ 0_ L

[Sample31]
tne +000_ +00_ 0_ L

[Pattern0]
....|..|A-4 2.FB ....|F#2 3.FC ....|A-4 1.FC ....
....|..|F#2 4..C ....|--- .... ....|G#4 ...6 ....
....|..|F#4 2..D ....|--- .... ....|F#4 ...C ....
....|..|F#2 4..C ....|--- .... ....|A-4 ...6 ....
....|..|A-4 2..B ....|--- ...D ....|A-4 ...C ....
....|..|F#2 4..C ....|--- .... ....|F#4 ...6 ....
....|..|G#4 2..D ....|--- .... ....|G#4 ...C ....
....|..|F#2 4..C ....|--- .... ....|A-4 ...6 ....
....|..|E-4 2..B ....|--- ...C ....|E-4 ...C ....
....|..|F#2 4... ....|--- .... ....|G#4 ...6 ....
....|..|F#4 2..D ....|--- .... ....|F#4 ...C ....
....|..|F#2 4..B ....|--- .... ....|E-4 ...6 ....
....|..|A-4 2... ....|--- ...A ....|A-4 ...C ....
....|..|F#2 4..A ....|--- .... ....|F#4 ...6 ....
....|..|G#4 2..D ....|--- .... ....|G#4 ...C ....
....|..|F#2 4..A ....|--- .... ....|A-4 ...6 ....
....|..|A-4 2..B ....|--- ...9 ....|A-4 ...C ....
....|..|F#2 4..9 ....|--- .... ....|G#4 ...6 ....
....|..|F#4 2..D ....|--- .... ....|F#4 ...C ....
....|..|F#2 4..9 ....|--- .... ....|A-4 ...6 ....
....|..|A-4 2..B ....|--- ...8 ....|A-4 ...C ....
....|..|F#2 4..8 ....|--- .... ....|F#4 ...6 ....
....|..|G#4 2..D ....|--- .... ....|G#4 ...C ....
....|..|F#2 4..8 ....|--- .... ....|A-4 ...6 ....
....|..|E-4 2..B ....|--- ...7 ....|E-4 ...C ....
....|..|F#2 4..7 ....|--- .... ....|G#4 ...6 ....
....|..|G#4 2..D ....|--- .... ....|G#4 ...C ....
....|..|F#2 4..7 ....|--- .... ....|E-4 ...6 ....
....|..|A-4 2..B ....|--- ...6 ....|A-4 ...C ....
....|..|F#2 4..6 ....|--- .... ....|G#4 ...6 ....
....|..|G#4 2..D ....|--- .... ....|G#4 ...C ....
....|..|F#2 4..6 ....|--- .... ....|A-4 ...6 ....
....|..|A-4 2..B ....|E-2 ...C ....|A-4 ...C ....
....|..|E-2 4..C ....|--- .... ....|G#4 ...6 ....
....|..|F#4 2..D ....|--- .... ....|F#4 ...C ....
....|..|E-2 4..C ....|--- .... ....|A-4 ...6 ....
....|..|A-4 2..B ....|--- ...D ....|A-4 ...C ....
....|..|E-2 4..C ....|--- .... ....|F#4 ...6 ....
....|..|G#4 2..D ....|--- .... ....|G#4 ...C ....
....|..|E-2 4..C ....|--- .... ....|A-4 ...6 ....
....|..|E-4 2..B ....|--- ...C ....|E-4 ...C ....
....|..|E-2 4... ....|--- .... ....|G#4 ...6 ....
....|..|F#4 2..D ....|--- .... ....|F#4 ...C ....
....|..|E-2 4..B ....|--- .... ....|E-4 ...6 ....
....|..|A-4 2... ....|--- ...A ....|A-4 ...C ....
....|..|E-2 4..A ....|--- .... ....|F#4 ...6 ....
....|..|F#4 2..D ....|--- .... ....|F#4 ...C ....
....|..|E-2 4..A ....|--- .... ....|A-4 ...6 ....
....|..|G#4 2..B ....|--- ...9 ....|G#4 ...C ....
....|..|E-2 4..9 ....|--- .... ....|F#4 ...6 ....
....|..|E-4 2..D ....|--- .... ....|E-4 ...C ....
....|..|E-2 4..9 ....|--- .... ....|G#4 ...6 ....
....|..|F#4 2..B ....|--- ...8 ....|F#4 ...C ....
....|..|E-2 4..8 ....|--- .... ....|E-4 ...6 ....
....|..|A-4 2..D ....|--- .... ....|A-4 ...C ....
....|..|E-2 4..8 ....|--- .... ....|F#4 ...6 ....
....|..|G#4 2..B ....|--- ...7 ....|G#4 ...C ....
....|..|E-2 4..7 ....|--- .... ....|A-4 ...6 ....
....|..|F#4 2..D ....|--- .... ....|F#4 ...C ....
....|..|E-2 4..7 ....|--- .... ....|G#4 ...6 ....
....|..|A-4 2..B ....|--- ...6 ....|A-4 ...C ....
....|..|E-2 4..6 ....|--- .... ....|F#4 ...6 ....
....|..|G#4 2..D ....|--- .... ....|G#4 ...C ....
....|..|E-2 4..6 ....|--- .... ....|A-4 ...6 ....
....|..|A-4 2..B ....|D-2 ...C ....|A-4 ...C ....
....|..|D-2 4..C ....|--- .... ....|G#4 ...6 ....
....|..|F#4 2..D ....|--- .... ....|F#4 ...C ....
....|..|D-2 4..C ....|--- .... ....|A-4 ...6 ....
....|..|A-4 2..B ....|--- ...D ....|A-4 ...C ....
....|..|D-2 4..C ....|--- .... ....|F#4 ...6 ....
....|..|G#4 2..D ....|--- .... ....|G#4 ...C ....
....|..|D-2 4..C ....|--- .... ....|A-4 ...6 ....
....|..|E-4 2..B ....|--- ...C ....|E-4 ...C ....
....|..|D-2 4... ....|--- .... ....|G#4 ...6 ....
....|..|F#4 2..D ....|--- .... ....|F#4 ...C ....
....|..|D-2 4..B ....|--- .... ....|E-4 ...6 ....
....|..|A-4 2... ....|--- ...A ....|A-4 ...C ....
....|..|D-2 4..A ....|--- .... ....|F#4 ...6 ....
....|..|G#4 2..D ....|--- .... ....|G#4 ...C ....
....|..|D-2 4..A ....|--- .... ....|A-4 ...6 ....
....|..|A-4 2..B ....|--- ...9 ....|A-4 ...C ....
....|..|D-2 4..9 ....|--- .... ....|G#4 ...6 ....
....|..|F#4 2..D ....|--- .... ....|F#4 ...C ....
....|..|D-2 4..9 ....|--- .... ....|A-4 ...6 ....
....|..|A-4 2..B ....|--- ...8 ....|A-4 ...C ....
....|..|D-2 4..8 ....|--- .... ....|F#4 ...6 ....
....|..|G#4 2..D ....|--- .... ....|G#4 ...C ....
....|..|D-2 4..8 ....|--- .... ....|A-4 ...6 ....
....|..|E-4 2..B ....|--- ...7 ....|E-4 ...C ....
....|..|D-2 4..7 ....|--- .... ....|G#4 ...6 ....
....|..|G#4 2..D ....|--- .... ....|G#4 ...C ....
....|..|D-2 4..7 ....|--- .... ....|E-4 ...6 ....
....|..|A-4 2..B ....|--- ...6 ....|A-4 ...C ....
....|..|D-2 4..6 ....|--- .... ....|G#4 ...6 ....
....|..|F#4 2..D ....|--- .... ....|F#4 ...C ....
....|..|D-2 4..6 ....|--- .... ....|A-4 ...6 ....
....|..|A-4 2..B ....|B-1 ...D ....|A-4 ...C ....
....|..|B-1 4..C ....|--- .... ....|F#4 ...6 ....
....|..|F#4 2..D ....|--- .... ....|F#4 ...C ....
....|..|B-1 4..C ....|--- .... ....|A-4 ...6 ....
....|..|A-4 2..B ....|--- ...C ....|A-4 ...C ....
....|..|B-1 4..C ....|--- .... ....|F#4 ...6 ....
....|..|G#4 2..D ....|--- .... ....|G#4 ...C ....
....|..|B-1 4..C ....|--- .... ....|A-4 ...6 ....
....|..|E-4 2..B ....|--- ...B ....|E-4 ...C ....
....|..|B-1 4... ....|--- .... ....|G#4 ...6 ....
....|..|F#4 2..D ....|--- .... ....|F#4 ...C ....
....|..|B-1 4..B ....|--- .... ....|E-4 ...6 ....
....|..|A-4 2... ....|--- ...A ....|A-4 ...C ....
....|..|B-1 4..A ....|--- .... ....|F#4 ...6 ....
....|..|G#4 2..D ....|--- .... ....|G#4 ...C ....
....|..|B-1 4..A ....|--- .... ....|A-4 ...6 ....
....|..|C#4 2..B ....|E-2 ...D ....|C#4 ...C ....
....|..|E-2 4..C ....|--- .... ....|G#4 ...6 ....
....|..|E-4 2..D ....|--- .... ....|E-4 ...C ....
....|..|E-2 4..C ....|--- .... ....|C#4 ...6 ....
....|..|F#4 2..B ....|--- ...C ....|F#4 ...C ....
....|..|E-2 4..C ....|--- .... ....|E-4 ...6 ....
....|..|A-4 2..D ....|--- .... ....|A-4 ...C ....
....|..|E-2 4..C ....|--- .... ....|F#4 ...6 ....
....|..|G#4 2..B ....|--- ...B ....|G#4 ...C ....
....|..|E-2 4... ....|--- .... ....|A-4 ...6 ....
....|..|F#4 2..D ....|--- .... ....|F#4 ...C ....
....|..|E-2 4..B ....|--- .... ....|G#4 ...6 ....
....|..|A-4 2... ....|--- ...A ....|A-4 ...C ....
....|..|E-2 4..A ....|--- .... ....|F#4 ...6 ....
....|..|G#4 2..D ....|--- .... ....|G#4 ...C ....
....|..|E-2 4..A ....|--- .... ....|A-4 ...6 ....

[Pattern1]
....|..|C-5 6..F ....|F#2 8.FE ....|A-5 1.FE ....
....|..|G#5 7..6 ....|--- .... ....|--- ...C ....
....|.1|F#5 ...E ....|--- .... ....|F#5 ...D ....
....|..|A-5 ...6 ....|--- .... ....|A-5 ...C ....
....|..|A-5 ...E ....|--- .... ....|A-5 ...B ....
....|..|F#5 ...6 ....|--- .... ....|F#5 ...C ....
....|.1|G#5 ...E ....|--- .... ....|G#5 ...D ....
....|..|A-5 ...6 ....|--- .... ....|A-5 ...C ....
....|..|C-5 5..F ....|--- .... ....|E-5 ...B ....
....|..|--- .... ....|--- .... ....|G#5 .... ....
....|.1|F#5 7..E ....|--- .... ....|F#5 ...D ....
....|..|E-5 ...6 ....|--- .... ....|E-5 ...B ....
....|..|A-5 ...E ....|--- .... ....|A-5 .... ....
....|..|F#5 ...6 ....|--- .... ....|F#5 ...A ....
....|.1|G#5 ...E ....|--- .... ....|G#5 ...D ....
....|..|A-5 ...6 ....|--- .... ....|A-5 ...A ....
....|..|A-5 ...E ....|--- .... ....|A-5 ...B ....
....|..|G#5 ...6 ....|--- .... ....|G#5 ...9 ....
....|.1|F#5 ...E ....|--- .... ....|F#5 ...D ....
....|..|A-5 ...6 ....|--- .... ....|A-5 ...9 ....
....|..|C-5 6..F ....|--- .... ....|A-5 ...B ....
....|..|F#5 7..6 ....|--- .... ....|F#5 ...8 ....
....|.1|G#5 ...E ....|--- .... ....|G#5 ...D ....
....|..|A-5 ...6 ....|--- .... ....|A-5 ...8 ....
....|..|C-5 5..F ....|--- .... ....|E-5 ...B ....
....|..|--- .... ....|--- .... ....|G#5 ...7 ....
....|.1|G#5 7..E ....|--- .... ....|G#5 ...D ....
....|..|E-5 ...6 ....|--- .... ....|E-5 ...7 ....
....|..|A-5 ...E ....|--- .... ....|A-5 ...B ....
....|..|G#5 ...6 ....|--- .... ....|G#5 ...6 ....
....|.1|G#5 ...E ....|--- .... ....|G#5 ...D ....
....|..|A-5 ...6 ....|--- .... ....|A-5 ...6 ....
....|..|C-5 6..F ....|E-2 .... ....|A-5 ...B ....
....|..|G#5 7..6 ....|--- .... ....|G#5 ...C ....
....|.1|F#5 ...E ....|--- .... ....|F#5 ...D ....
....|..|A-5 ...6 ....|--- .... ....|A-5 ...C ....
....|..|A-5 ...E ....|--- .... ....|A-5 ...B ....
....|..|F#5 ...6 ....|--- .... ....|F#5 ...C ....
....|.1|G#5 ...E ....|--- .... ....|G#5 ...D ....
....|..|A-5 ...6 ....|--- .... ....|A-5 ...C ....
....|..|C-5 5..F ....|--- .... ....|E-5 ...B ....
....|..|--- .... ....|--- .... ....|G#5 .... ....
....|.1|F#5 7..E ....|--- .... ....|F#5 ...D ....
....|..|E-5 ...6 ....|--- .... ....|E-5 ...B ....
....|..|A-5 ...E ....|--- .... ....|A-5 .... ....
....|..|F#5 ...6 ....|--- .... ....|F#5 ...A ....
....|.1|F#5 ...E ....|--- .... ....|F#5 ...D ....
....|..|A-5 ...6 ....|--- .... ....|A-5 ...A ....
....|..|G#5 ...E ....|--- .... ....|G#5 ...B ....
....|..|F#5 ...6 ....|--- .... ....|F#5 ...9 ....
....|.1|E-5 ...E ....|--- .... ....|E-5 ...D ....
....|..|G#5 ...6 ....|--- .... ....|G#5 ...9 ....
....|..|C-5 6..F ....|--- .... ....|F#5 ...B ....
....|..|E-5 7..6 ....|--- .... ....|E-5 ...8 ....
....|.1|A-5 ...E ....|--- .... ....|A-5 ...D ....
....|..|F#5 ...6 ....|--- .... ....|F#5 ...8 ....
....|..|C-5 5..F ....|--- .... ....|G#5 ...B ....
....|..|--- .... ....|--- .... ....|A-5 ...7 ....
....|.1|F#5 7..E ....|--- .... ....|F#5 ...D ....
....|..|G#5 ...6 ....|--- .... ....|G#5 ...7 ....
....|..|A-5 ...E ....|--- .... ....|A-5 ...B ....
....|..|F#5 ...6 ....|--- .... ....|F#5 ...6 ....
....|.1|G#5 ...E ....|--- .... ....|G#5 ...D ....
....|..|A-5 ...6 ....|--- .... ....|A-5 ...6 ....
....|..|C-5 6..F ....|D-2 .... ....|A-5 ...B ....
....|..|G#5 7..6 ....|--- .... ....|G#5 ...C ....
....|.1|F#5 ...E ....|--- .... ....|F#5 ...D ....
....|..|A-5 ...6 ....|--- .... ....|A-5 ...C ....
....|..|A-5 ...E ....|--- .... ....|A-5 ...B ....
....|..|F#5 ...6 ....|--- .... ....|F#5 ...C ....
....|.1|G#5 ...E ....|--- .... ....|G#5 ...D ....
....|..|A-5 ...6 ....|--- .... ....|A-5 ...C ....
....|..|C-5 5..F ....|--- .... ....|E-5 ...B ....
....|..|--- .... ....|--- .... ....|G#5 .... ....
....|.1|F#5 7..E ....|--- .... ....|F#5 ...D ....
....|..|E-5 ...6 ....|--- .... ....|E-5 ...B ....
....|..|A-5 ...E ....|--- .... ....|A-5 .... ....
....|..|F#5 ...6 ....|--- .... ....|F#5 ...A ....
....|.1|G#5 ...E ....|--- .... ....|G#5 ...D ....
....|..|A-5 ...6 ....|--- .... ....|A-5 ...A ....
....|..|A-5 ...E ....|--- .... ....|A-5 ...B ....
....|..|G#5 ...6 ....|--- .... ....|G#5 ...9 ....
....|.1|F#5 ...E ....|--- .... ....|F#5 ...D ....
....|..|A-5 ...6 ....|--- .... ....|A-5 ...9 ....
....|..|C-5 6..F ....|--- .... ....|A-5 ...B ....
....|..|F#5 7..6 ....|--- .... ....|F#5 ...8 ....
....|.1|G#5 ...E ....|--- .... ....|G#5 ...D ....
....|..|A-5 ...6 ....|--- .... ....|A-5 ...8 ....
....|..|C-5 5..F ....|--- .... ....|E-5 ...B ....
....|..|--- .... ....|--- .... ....|G#5 ...7 ....
....|.1|G#5 7..E ....|--- .... ....|G#5 ...D ....
....|..|E-5 ...6 ....|--- .... ....|E-5 ...7 ....
....|..|A-5 ...E ....|--- .... ....|A-5 ...B ....
....|..|G#5 ...6 ....|--- .... ....|G#5 ...6 ....
....|.1|F#5 ...E ....|--- .... ....|F#5 ...D ....
....|..|A-5 ...6 ....|--- .... ....|A-5 ...6 ....
....|..|C-5 6..F ....|B-1 .... ....|A-5 ...B ....
....|..|F#5 7..6 ....|--- .... ....|F#5 ...C ....
....|.1|F#5 ...E ....|--- .... ....|F#5 ...D ....
....|..|A-5 ...6 ....|--- .... ....|A-5 ...C ....
....|..|A-5 ...E ....|--- .... ....|A-5 ...B ....
....|..|F#5 ...6 ....|--- .... ....|F#5 ...C ....
....|.1|G#5 ...E ....|--- .... ....|G#5 ...D ....
....|..|A-5 ...6 ....|--- .... ....|A-5 ...C ....
....|..|C-5 5..F ....|--- .... ....|E-5 ...B ....
....|..|--- .... ....|--- .... ....|G#5 .... ....
....|.1|F#5 7..E ....|--- .... ....|F#5 ...D ....
....|..|E-5 ...6 ....|--- .... ....|E-5 ...B ....
....|..|A-5 ...E ....|--- .... ....|A-5 .... ....
....|..|F#5 ...6 ....|--- .... ....|F#5 ...A ....
....|.1|G#5 ...E ....|--- .... ....|G#5 ...D ....
....|..|A-5 ...6 ....|--- .... ....|A-5 ...A ....
....|..|C-5 6..F ....|E-2 .... ....|C#5 ...D ....
....|..|G#5 7..6 ....|--- .... ....|G#5 ...6 ....
....|.1|E-5 ...E ....|--- .... ....|E-5 ...D ....
....|..|C#5 ...6 ....|--- .... ....|C#5 ...6 ....
....|..|F#5 ...E ....|--- .... ....|F#5 ...D ....
....|..|E-5 ...6 ....|--- .... ....|E-5 ...6 ....
....|.1|A-5 ...E ....|--- .... ....|A-5 ...D ....
....|..|F#5 ...6 ....|--- .... ....|F#5 ...6 ....
....|..|C-5 5..F ....|--- .... ....|G#5 ...E ....
....|..|--- .... ....|--- .... ....|A-5 ...6 ....
....|..|C-5 .... ....|--- .... ....|F#5 ...D ....
....|..|--- .... ....|--- .... ....|G#5 ...6 ....
....|..|C-5 .... ....|--- .... ....|A-5 ...E ....
....|..|--- .... ....|--- .... ....|F#5 ...6 ....
....|..|C-5 .... ....|--- .... ....|G#5 ...D ....
....|..|--- .... ....|--- .... ....|A-5 ...6 ....

[Pattern2]
....|..|--- .... ....|--- .... ....|--- .... ....
....|..|--- .... ....|--- .... ....|--- .... ....
....|..|G#4 2..C ....|--- .... ....|G#4 ...B ....
....|..|--- .... ....|--- .... ....|--- .... ....

[Pattern3]
....|.1|A-4 7..B ....|F#2 3..D ....|A-4 1..C ....
....|..|F#2 4..C ....|--- .... ....|--- .... ....
....|..|F#4 2..D ....|--- .... ....|F#4 .... ....
....|..|F#2 4..C ....|--- .... ....|A-4 ...6 ....
....|..|A-4 2..B ....|--- ...C ....|A-4 ...C ....
....|..|F#2 4..C ....|--- .... ....|F#4 ...6 ....
....|..|G#4 2..D ....|--- .... ....|G#4 ...C ....
....|..|F#2 4..C ....|--- .... ....|A-4 ...6 ....
....|.1|E-4 7..B ....|--- ...B ....|E-4 ...C ....
....|..|F#2 4... ....|--- .... ....|G#4 ...6 ....
....|..|F#4 2..D ....|--- .... ....|F#4 ...C ....
....|..|F#2 4..B ....|--- .... ....|E-4 ...6 ....
....|..|A-4 2... ....|--- ...A ....|A-4 ...C ....
....|..|F#2 4..A ....|--- .... ....|F#4 ...6 ....
....|..|G#4 2..D ....|--- .... ....|G#4 ...C ....
....|..|F#2 4..A ....|--- .... ....|A-4 ...6 ....
....|.1|A-4 7..B ....|--- ...9 ....|A-4 ...C ....
....|..|F#2 4..9 ....|--- .... ....|G#4 ...6 ....
....|..|F#4 2..D ....|--- .... ....|F#4 ...C ....
....|..|F#2 4..9 ....|--- .... ....|A-4 ...6 ....
....|..|A-4 2..B ....|--- ...8 ....|A-4 ...C ....
....|..|F#2 4..8 ....|--- .... ....|F#4 ...6 ....
....|..|G#4 2..D ....|--- .... ....|G#4 ...C ....
....|..|F#2 4..8 ....|--- .... ....|A-4 ...6 ....
....|.1|E-4 7..B ....|--- ...7 ....|E-4 ...C ....
....|..|F#2 4..7 ....|--- .... ....|G#4 ...6 ....
....|..|G#4 2..D ....|--- .... ....|G#4 ...C ....
....|..|F#2 4..7 ....|--- .... ....|E-4 ...6 ....
....|..|A-4 2..B ....|--- ...6 ....|A-4 ...C ....
....|..|F#2 4..6 ....|--- .... ....|G#4 ...6 ....
....|..|G#4 2..D ....|--- .... ....|G#4 ...C ....
....|..|F#2 4..6 ....|--- .... ....|A-4 ...6 ....
....|.1|A-4 7..B ....|E-2 ...D ....|A-4 ...C ....
....|..|E-2 4..C ....|--- .... ....|G#4 ...6 ....
....|..|F#4 2..D ....|--- .... ....|F#4 ...C ....
....|..|E-2 4..C ....|--- .... ....|A-4 ...6 ....
....|..|A-4 2..B ....|--- ...C ....|A-4 ...C ....
....|..|E-2 4..C ....|--- .... ....|F#4 ...6 ....
....|..|G#4 2..D ....|--- .... ....|G#4 ...C ....
....|..|E-2 4..C ....|--- .... ....|A-4 ...6 ....
....|.1|E-4 7..B ....|--- ...B ....|E-4 ...C ....
....|..|E-2 4... ....|--- .... ....|G#4 ...6 ....
....|..|F#4 2..D ....|--- .... ....|F#4 ...C ....
....|..|E-2 4..B ....|--- .... ....|E-4 ...6 ....
....|..|A-4 2... ....|--- ...A ....|A-4 ...C ....
....|..|E-2 4..A ....|--- .... ....|F#4 ...6 ....
....|..|F#4 2..D ....|--- .... ....|F#4 ...C ....
....|..|E-2 4..A ....|--- .... ....|A-4 ...6 ....
....|.1|G#4 7..B ....|--- ...9 ....|G#4 ...C ....
....|..|E-2 4..9 ....|--- .... ....|F#4 ...6 ....
....|..|E-4 2..D ....|--- .... ....|E-4 ...C ....
....|..|E-2 4..9 ....|--- .... ....|G#4 ...6 ....
....|..|F#4 2..B ....|--- ...8 ....|F#4 ...C ....
....|..|E-2 4..8 ....|--- .... ....|E-4 ...6 ....
....|..|A-4 2..D ....|--- .... ....|A-4 ...C ....
....|..|E-2 4..8 ....|--- .... ....|F#4 ...6 ....
....|.1|G#4 7..B ....|--- ...7 ....|G#4 ...C ....
....|..|E-2 4..7 ....|--- .... ....|A-4 ...6 ....
....|..|F#4 2..D ....|--- .... ....|F#4 ...C ....
....|..|E-2 4..7 ....|--- .... ....|G#4 ...6 ....
....|..|A-4 2..B ....|--- ...6 ....|A-4 ...C ....
....|..|E-2 4..6 ....|--- .... ....|F#4 ...6 ....
....|..|G#4 2..D ....|--- .... ....|G#4 ...C ....
....|..|E-2 4..6 ....|--- .... ....|A-4 ...6 ....
....|.1|A-4 7..B ....|D-2 ...D ....|A-4 ...C ....
....|..|D-2 4..C ....|--- .... ....|G#4 ...6 ....
....|..|F#4 2..D ....|--- .... ....|F#4 ...C ....
....|..|D-2 4..C ....|--- .... ....|A-4 ...6 ....
....|..|A-4 2..B ....|--- ...C ....|A-4 ...C ....
....|..|D-2 4..C ....|--- .... ....|F#4 ...6 ....
....|..|G#4 2..D ....|--- .... ....|G#4 ...C ....
....|..|D-2 4..C ....|--- .... ....|A-4 ...6 ....
....|.1|E-4 7..B ....|--- ...B ....|E-4 ...C ....
....|..|D-2 4... ....|--- .... ....|G#4 ...6 ....
....|..|F#4 2..D ....|--- .... ....|F#4 ...C ....
....|..|D-2 4..B ....|--- .... ....|E-4 ...6 ....
....|..|A-4 2... ....|--- ...A ....|A-4 ...C ....
....|..|D-2 4..A ....|--- .... ....|F#4 ...6 ....
....|..|G#4 2..D ....|--- .... ....|G#4 ...C ....
....|..|D-2 4..A ....|--- .... ....|A-4 ...6 ....
....|.1|A-4 7..B ....|--- ...9 ....|A-4 ...C ....
....|..|D-2 4..9 ....|--- .... ....|G#4 ...6 ....
....|..|F#4 2..D ....|--- .... ....|F#4 ...C ....
....|..|D-2 4..9 ....|--- .... ....|A-4 ...6 ....
....|..|A-4 2..B ....|--- ...8 ....|A-4 ...C ....
....|..|D-2 4..8 ....|--- .... ....|F#4 ...6 ....
....|..|G#4 2..D ....|--- .... ....|G#4 ...C ....
....|..|D-2 4..8 ....|--- .... ....|A-4 ...6 ....
....|.1|E-4 7..B ....|--- ...7 ....|E-4 ...C ....
....|..|D-2 4..7 ....|--- .... ....|G#4 ...6 ....
....|..|G#4 2..D ....|--- .... ....|G#4 ...C ....
....|..|D-2 4..7 ....|--- .... ....|E-4 ...6 ....
....|..|A-4 2..B ....|--- ...6 ....|A-4 ...C ....
....|..|D-2 4..6 ....|--- .... ....|G#4 ...6 ....
....|..|F#4 2..D ....|--- .... ....|F#4 ...C ....
....|..|D-2 4..6 ....|--- .... ....|A-4 ...6 ....
....|.1|A-4 7..B ....|B-1 ...D ....|A-4 ...C ....
....|..|B-1 4..C ....|--- .... ....|F#4 ...6 ....
....|..|F#4 2..D ....|--- .... ....|F#4 ...C ....
....|..|B-1 4..C ....|--- .... ....|A-4 ...6 ....
....|..|A-4 2..B ....|--- ...8 ....|A-4 ...C ....
....|..|--- .... ....|--- ...7 ....|F#4 ...6 ....
....|..|G#4 .... ....|--- ...6 ....|G#4 ...C ....
....|..|--- .... ....|--- ...5 ....|A-4 ...6 ....
....|..|A-4 ...9 ....|A-6 1... 6.11|A-4 ...A ....
....|..|--- .... ....|A#6 .... 6.21|F#4 ...6 ....
....|..|F#4 .... ....|B-6 .... 6.31|F#4 ...9 ....
....|..|--- .... ....|C-7 .... 6.21|A-4 ...5 ....
....|..|A-4 ...8 ....|C#7 .... 6.11|A-4 ...9 ....
....|..|--- .... ....|D-7 .... 6.21|F#4 ...4 ....
....|..|G#4 .... ....|D#7 .... 6.31|G#4 ...8 ....
....|..|--- .... ....|E-7 .... 6.21|A-4 ...4 ....
....|..|A-4 ...7 ....|F-7 .... 6.11|A-4 ...8 ....
....|..|--- .... ....|F#7 .... 6.21|F#4 ...4 ....
....|..|F#4 .... ....|G-7 .... 6.31|F#4 ...7 ....
....|..|--- .... ....|G#7 .... 6.21|A-4 ...4 ....
....|..|A-4 ...6 ....|A-7 .... 6.11|A-4 ...7 ....
....|..|--- .... ....|A#7 .... 6.21|F#4 ...3 ....
....|..|G#4 .... ....|B-7 .... 6.31|G#4 ...6 ....
....|..|--- .... ....|C-8 .... 6.21|A-4 ...3 ....
....|..|A-4 ...5 ....|C#8 .... 6.11|A-4 ...6 ....
....|..|--- .... ....|D-8 .... 6.21|F#4 ...3 ....
....|..|F#4 .... ....|D#8 .... 6.31|F#4 ...5 ....
....|..|--- .... ....|E-8 .... 6.21|A-4 ...3 ....
....|..|A-4 ...4 ....|F-8 .... 6.11|A-4 ...5 ....
....|..|--- .... ....|F#8 .... 6.21|F#4 ...2 ....
....|..|G#4 .... ....|G-8 .... 6.31|G#4 ...4 ....
....|..|--- .... ....|G#8 .... 6.21|A-4 ...2 ....

[Pattern4]
....|..|C-4 6.FD ....|A-5 3.F8 ....|F#4 1.FC ....
....|..|F#4 7..A ....|--- ...9 ....|--- .... ....
....|..|F#4 .... ....|--- ...A 11.1|--- ...A ....
....|..|F#4 .... ....|--- .... 21.1|--- .... ....
....|.2|A-4 ...D ....|--- .... 11.1|A-4 ...D ....
....|..|A-4 ...A ....|--- .... 21.1|--- .... ....
....|..|A-4 ...9 ....|--- ...1 11..|--- ...A ....
....|..|A-4 ...8 ....|--- .... ....|--- .... ....
....|..|C-4 5..D ....|E-5 ...A ....|F#4 ...C ....
....|1A|--- .... ....|A-5 ...5 ....|--- .... ....
....|..|E-4 7..E ....|F#5 ...9 ....|E-4 .... ....
....|..|--- .... ....|--- ...A ....|--- .... ....
....|.2|F#4 ...A ....|--- .... ....|--- ...A ....
....|..|--- .... ....|--- .... ....|--- .... ....
....|..|F#4 ...E ....|--- .... ....|F#4 ...D ....
....|..|F#4 ...A ....|--- .... ....|--- .... ....
....|..|E-4 .... ....|A-5 ...3 ....|--- ...A ....
....|..|E-4 .... ....|--- ...4 ....|--- .... ....
....|..|F#4 .... ....|--- ...5 11.1|--- .... ....
....|..|F#4 .... ....|--- .... 21.1|--- .... ....
....|.2|C-4 6..D ....|--- .... 11.1|F#4 ...C ....
....|..|--- .... ....|--- .... 21.1|--- .... ....
....|..|E-4 7..E ....|--- ...1 11..|E-4 .... ....
....|..|E-4 ...A ....|--- .... ....|F#4 ...A ....
....|..|C-4 5..D ....|E-5 ...5 ....|C#4 ...D ....
....|1A|--- .... ....|A-5 ...2 ....|E-4 ...A ....
....|..|F#4 7..E ....|F#5 ...4 ....|F#4 ...C ....
....|..|F#4 ...A ....|--- ...5 ....|--- .... ....
....|.2|C#4 .... ....|--- .... ....|--- ...A ....
....|..|C#4 .... ....|--- .... ....|--- .... ....
....|..|E-4 ...E ....|--- .... ....|E-4 ...D ....
....|..|E-4 ...A ....|--- .... ....|--- .... ....
....|..|C-4 6..D ....|A-5 ...1 ....|--- ...A ....
....|..|--- .... ....|--- ...2 ....|--- .... ....
....|..|E-4 7..A ....|--- ...3 11.1|--- .... ....
....|..|--- .... ....|--- .... 21.1|--- .... ....
....|.2|F#4 ...D ....|--- .... 11.1|F#4 ...C ....
....|..|F#4 ...A ....|--- .... 21.1|--- .... ....
....|..|F#4 .... ....|--- ...1 11..|--- ...A ....
....|..|--- .... ....|--- .... ....|--- .... ....
....|..|C-4 5..D ....|E-5 ...3 ....|E-4 ...D ....
....|1A|--- .... ....|A-5 ...1 ....|--- .... ....
....|..|C#4 7..E ....|F#5 ...2 ....|C#4 .... ....
....|..|--- .... ....|--- ...3 ....|--- .... ....
....|.2|C#4 ...A ....|--- .... ....|--- ...A ....
....|..|C#4 .... ....|--- .... ....|--- .... ....
....|..|E-4 ...E ....|--- .... ....|E-4 ...C ....
....|..|--- .... ....|--- .... ....|--- .... ....
....|..|E-4 ...A ....|A-5 ...1 ....|--- ...A ....
....|..|E-4 .... ....|--- .... ....|--- .... ....
....|..|E-4 .... ....|--- .... 11.1|--- .... ....
....|..|--- .... ....|--- .... 21.1|--- .... ....
....|.2|C-4 6..D ....|--- .... 11.1|F#4 ...D ....
....|..|--- .... ....|--- .... 21.1|--- .... ....
....|..|F#4 7..A ....|R-- .... ....|--- ...A ....
....|..|F#4 .... ....|--- .... ....|--- .... ....
....|..|C-4 5..D ....|E-5 .... ....|F#4 ...C ....
....|1A|--- .... ....|A-5 .... ....|--- .... ....
....|..|E-4 7..E ....|F#5 .... ....|E-4 .... ....
....|..|E-4 ...A ....|--- .... ....|--- .... ....
....|.2|E-4 .... ....|R-- .... ....|--- ...A ....
....|..|E-4 .... ....|--- .... ....|--- .... ....
....|..|D-4 ...E ....|--- .... ....|D-4 ...D ....
....|..|D-4 ...A ....|--- .... ....|--- .... ....
....|..|C-4 6..D ....|B-8 9..4 ....|--- ...A ....
....|..|D-4 7..A ....|A#8 .... ....|--- .... ....
....|..|D-4 .... ....|A-8 .... ....|--- .... ....
....|..|D-4 .... ....|G#8 .... ....|--- .... ....
....|.2|A-4 ...D ....|G-8 .... ....|A-4 ...C ....
....|..|A-4 ...A ....|F#8 .... ....|--- .... ....
....|..|D-4 ...E ....|F-8 .... ....|D-4 .... ....
....|..|D-4 ...A ....|E-8 .... ....|--- .... ....
....|..|C-4 5..D ....|D#8 .... ....|--- ...A ....
....|1A|--- .... ....|D-8 .... ....|--- .... ....
....|..|C#4 7..E ....|C#8 .... ....|C#4 ...D ....
....|..|--- .... ....|C-8 .... ....|--- .... ....
....|.2|C#4 ...A ....|B-7 .... ....|--- ...A ....
....|..|C#4 .... ....|A#7 .... ....|--- .... ....
....|..|D-4 ...E ....|A-7 .... ....|D-4 ...C ....
....|..|D-4 ...A ....|G#7 .... ....|--- .... ....
....|..|D-4 .... ....|G-7 .... ....|--- ...A ....
....|..|--- .... ....|F#7 .... ....|--- .... ....
....|..|D-4 .... ....|F-7 .... ....|--- .... ....
....|..|--- .... ....|E-7 .... ....|--- .... ....
....|.2|C-4 6..D ....|D#7 .... ....|D-5 ...D ....
....|..|D-5 7..A ....|D-7 .... ....|--- .... ....
....|..|A-4 ...E ....|C#7 .... ....|A-4 .... ....
....|..|A-4 ...A ....|C-7 .... ....|--- .... ....
....|..|C-4 5..D ....|B-6 .... ....|F#4 .... ....
....|1A|--- .... ....|A#6 .... ....|--- .... ....
....|..|D-4 7..E ....|A-6 .... ....|D-4 .... ....
....|..|--- .... ....|G#6 .... ....|--- .... ....
....|.2|D-4 ...A ....|G-6 .... ....|--- ...A ....
....|..|--- .... ....|F#6 .... ....|--- .... ....
....|..|B-3 ...E ....|F-6 .... ....|B-3 ...C ....
....|..|--- .... ....|E-6 .... ....|--- .... ....
....|..|C-4 6..D ....|D#6 .... ....|--- ...A ....
....|..|B-3 7..A ....|D-6 .... ....|--- .... ....
....|..|B-3 .... ....|C#6 .... ....|--- .... ....
....|..|B-3 .... ....|C-6 .... ....|--- .... ....
....|.2|B-4 ...D ....|C#7 .... ....|B-4 ...D ....
....|..|B-4 ...A ....|D-7 .... ....|--- .... ....
....|..|B-3 ...E ....|D#7 .... ....|B-3 .... ....
....|..|B-3 ...A ....|E-7 .... ....|--- .... ....
....|..|C-4 5..D ....|F-7 .... ....|--- ...A ....
....|1A|--- .... ....|F#7 .... ....|--- .... ....
....|..|B-3 7..A ....|G-7 .... ....|--- .... ....
....|..|B-3 .... ....|G#7 .... ....|--- .... ....
....|.2|F#4 ...D ....|A-7 .... ....|F#4 ...C ....
....|..|F#4 ...A ....|A#7 .... ....|--- .... ....
....|..|E-4 ...E ....|B-7 .... ....|E-4 .... ....
....|..|--- .... ....|C-8 .... ....|--- .... ....
....|..|C-4 6..D ....|C#8 .... ....|--- ...A ....
....|..|E-4 7..A ....|D-8 .... ....|--- .... ....
....|..|E-4 .... ....|D#8 .... ....|--- .... ....
....|..|E-4 .... ....|E-8 .... ....|--- .... ....
....|.2|E-5 ...D ....|F-8 .... ....|E-5 ...D ....
....|..|E-5 ...A ....|F#8 .... ....|--- .... ....
....|..|E-4 ...E ....|G-8 .... ....|E-4 .... ....
....|..|E-4 ...A ....|G#8 .... ....|--- .... ....
....|..|C-4 5..D ....|A-8 .... ....|--- ...A ....
....|1A|--- .... ....|A#8 .... ....|--- .... ....
....|..|D-4 ...E ....|B-8 .... ....|D-4 ...E ....
....|..|D-4 7..A ....|A#8 .... ....|--- .... ....
....|..|C-4 5..D ....|A-8 .... ....|--- .... ....
....|1A|--- .... ....|G#8 .... ....|--- .... ....
....|..|D-4 ...E ....|G-8 .... ....|--- .... ....
....|..|D-4 7..A ....|F#8 .... ....|--- .... ....

[Pattern5]
....|..|C-5 6..F ....|F#2 8..F ....|A-5 3.1B ....
....|..|G#5 7..6 ....|--- .... ....|--- .... ....
....|.1|F#4 ...E ....|--- .... ....|--- .... ....
....|..|A-5 ...6 ....|--- .... ....|--- ...C ....
....|.2|A-5 ...D ....|--- .... ....|--- .... ....
....|..|F#4 ...6 ....|--- .... ....|--- .... ....
....|.1|G#4 ...E ....|--- .... ....|--- .... ....
....|..|A-5 ...6 ....|--- .... ....|--- .... ....
....|..|C-5 5..F ....|--- .... ....|E-5 ...D ....
....|..|--- .... ....|--- .... ....|A-5 ...8 ....
....|.1|F#4 7..E ....|--- .... ....|F#5 ...B ....
....|..|E-5 ...6 ....|--- .... ....|--- .... ....
....|.2|A-5 ...D ....|--- .... ....|--- ...C ....
....|..|F#5 ...6 ....|--- .... ....|--- .... ....
....|.1|G#5 ...E ....|--- .... ....|--- .... ....
....|..|A-5 ...6 ....|--- .... ....|--- .... ....
....|..|A-5 ...D ....|--- .... ....|--- .... ....
....|..|G#5 ...6 ....|--- .... ....|--- ...A ....
....|.1|F#4 ...E ....|--- .... ....|--- .... ....
....|..|A-5 ...6 ....|--- .... ....|--- .... ....
....|.2|C-5 6..F ....|--- .... ....|A-4 ...C ....
....|..|F#4 7..6 ....|--- .... ....|F#5 ...8 ....
....|.1|G#4 ...E ....|--- .... ....|G#5 ...D ....
....|..|A-5 ...6 ....|--- .... ....|A-4 ...6 ....
....|..|C-5 5..F ....|--- .... ....|E-4 ...C ....
....|..|--- .... ....|--- .... ....|G#5 ...6 ....
....|.1|G#4 7..E ....|--- .... ....|G#5 ...D ....
....|..|E-5 ...6 ....|--- .... ....|E-4 ...6 ....
....|.2|A-5 ...D ....|--- .... ....|A-4 ...C ....
....|..|G#5 ...6 ....|--- .... ....|G#5 ...6 ....
....|.1|G#4 ...E ....|--- .... ....|G#5 ...D ....
....|..|A-5 ...6 ....|--- .... ....|A-4 ...6 ....
....|..|C-5 6..F ....|E-2 .... ....|A-5 ...B ....
....|..|G#5 7..6 ....|--- .... ....|--- .... ....
....|.1|F#4 ...E ....|--- .... ....|--- .... ....
....|..|A-5 ...6 ....|--- .... ....|--- ...C ....
....|.2|A-5 ...D ....|--- .... ....|--- .... ....
....|..|F#4 ...6 ....|--- .... ....|--- .... ....
....|.1|G#4 ...E ....|--- .... ....|--- ...A ....
....|..|A-5 ...6 ....|--- .... ....|--- .... ....
....|..|C-5 5..F ....|--- .... ....|E-5 ...D ....
....|..|--- .... ....|--- .... ....|A-5 ...8 ....
....|.1|F#4 7..E ....|--- .... ....|F#5 ...B ....
....|..|E-5 ...6 ....|--- .... ....|--- .... ....
....|.2|A-5 ...D ....|--- .... ....|--- ...C ....
....|..|F#5 ...6 ....|--- .... ....|--- .... ....
....|.1|F#5 ...E ....|--- .... ....|--- .... ....
....|..|A-5 ...6 ....|--- .... ....|--- .... ....
....|..|G#5 ...D ....|--- .... ....|--- ...A ....
....|..|F#5 ...6 ....|--- .... ....|--- .... ....
....|.1|E-4 ...E ....|--- .... ....|--- .... ....
....|..|G#5 ...6 ....|--- .... ....|--- .... ....
....|.2|C-5 6..F ....|--- .... ....|F#4 ...C ....
....|..|E-4 7..6 ....|--- .... ....|F#5 ...8 ....
....|.1|A-4 ...E ....|--- .... ....|A-5 ...D ....
....|..|F#5 ...6 ....|--- .... ....|F#4 ...6 ....
....|..|C-5 5..F ....|--- .... ....|G#4 ...C ....
....|..|--- .... ....|--- .... ....|A-5 ...6 ....
....|.1|F#4 7..E ....|--- .... ....|F#5 ...D ....
....|..|G#5 ...6 ....|--- .... ....|G#4 ...6 ....
....|.2|A-5 ...D ....|--- .... ....|A-4 ...C ....
....|..|F#4 ...6 ....|--- .... ....|F#5 ...6 ....
....|.1|G#4 ...E ....|--- .... ....|G#5 ...D ....
....|..|A-5 ...6 ....|--- .... ....|A-4 ...6 ....
....|..|C-5 6..F ....|D-2 .... ....|A-5 ...B ....
....|..|G#5 7..6 ....|--- .... ....|--- .... ....
....|.1|F#4 ...E ....|--- .... ....|--- .... ....
....|..|A-5 ...6 ....|--- .... ....|--- ...C ....
....|.2|A-5 ...D ....|--- .... ....|--- .... ....
....|..|F#4 ...6 ....|--- .... ....|--- .... ....
....|.1|G#4 ...E ....|--- .... ....|--- ...A ....
....|..|A-5 ...6 ....|--- .... ....|--- .... ....
....|..|C-5 5..F ....|--- .... ....|E-5 ...D ....
....|..|--- .... ....|--- .... ....|A-5 ...8 ....
....|.1|F#4 7..E ....|--- .... ....|F#5 ...B ....
....|..|E-5 ...6 ....|--- .... ....|--- .... ....
....|.2|A-5 ...D ....|--- .... ....|--- ...C ....
....|..|F#4 ...6 ....|--- .... ....|--- .... ....
....|.1|G#5 ...E ....|--- .... ....|--- .... ....
....|..|A-5 ...6 ....|--- .... ....|--- .... ....
....|..|A-5 ...D ....|--- .... ....|--- ...A ....
....|..|G#5 ...6 ....|--- .... ....|--- .... ....
....|.1|F#4 ...E ....|--- .... ....|--- .... ....
....|..|A-5 ...6 ....|--- .... ....|--- .... ....
....|.2|C-5 6..F ....|--- .... ....|A-4 ...C ....
....|..|F#5 7..6 ....|--- .... ....|F#5 ...8 ....
....|.1|G#4 ...E ....|--- .... ....|G#5 ...D ....
....|..|A-5 ...6 ....|--- .... ....|A-4 ...6 ....
....|..|C-5 5..F ....|--- .... ....|E-4 ...C ....
....|..|--- .... ....|--- .... ....|G#5 ...6 ....
....|.1|G#4 7..E ....|--- .... ....|G#5 ...D ....
....|..|E-5 ...6 ....|--- .... ....|E-4 ...6 ....
....|.2|A-5 ...D ....|--- .... ....|A-4 ...C ....
....|..|G#4 ...6 ....|--- .... ....|G#5 ...6 ....
....|.1|F#4 ...E ....|--- .... ....|F#5 ...D ....
....|..|A-5 ...6 ....|--- .... ....|A-4 ...6 ....
....|..|C-5 6..F ....|B-1 .... ....|A-5 ...B ....
....|..|F#5 7..6 ....|--- .... ....|--- .... ....
....|.1|F#4 ...E ....|--- .... ....|--- .... ....
....|..|A-5 ...6 ....|--- .... ....|--- ...C ....
....|.2|A-5 ...D ....|--- .... ....|--- .... ....
....|..|F#5 ...6 ....|--- .... ....|--- .... ....
....|.1|G#4 ...E ....|--- .... ....|--- ...A ....
....|..|A-5 ...6 ....|--- .... ....|--- .... ....
....|..|C-5 5..F ....|--- .... ....|E-5 ...D ....
....|..|--- .... ....|--- .... ....|A-5 ...8 ....
....|.1|F#4 7..E ....|--- .... ....|F#5 ...B ....
....|..|E-5 ...6 ....|--- .... ....|--- .... ....
....|.2|A-5 ...D ....|--- .... ....|--- ...C ....
....|..|F#4 ...6 ....|--- .... ....|--- .... ....
....|.1|G#5 ...E ....|--- .... ....|--- .... ....
....|..|A-5 ...6 ....|--- .... ....|--- .... ....
....|..|C-5 6..F ....|E-2 .... ....|--- ...A ....
....|..|G#5 7..6 ....|--- .... ....|--- .... ....
....|.1|E-4 ...E ....|--- .... ....|--- .... ....
....|..|C#5 ...6 ....|--- .... ....|--- .... ....
....|.2|F#5 ...D ....|--- .... ....|F#4 ...C ....
....|..|E-5 ...6 ....|--- .... ....|F#5 ...8 ....
....|.1|A-4 ...E ....|--- .... ....|A-5 ...D ....
....|..|F#5 ...6 ....|--- .... ....|F#4 ...6 ....
....|..|C-5 5..F ....|--- .... ....|G#4 ...C ....
....|..|--- .... ....|--- .... ....|A-5 ...6 ....
....|..|C-5 .... ....|--- .... ....|F#5 ...D ....
....|..|--- .... ....|--- .... ....|G#4 ...6 ....
....|..|C-5 .... ....|--- .... ....|A-4 ...C ....
....|..|--- .... ....|--- .... ....|F#5 ...6 ....
....|..|C-5 .... ....|--- .... ....|G#5 ...D ....
....|..|--- .... ....|--- .... ....|A-4 ...6 ....

[Pattern6]
....|..|C-5 6..F ....|F#2 8..E ....|A-5 1.1B ....
....|..|G#5 7..6 ....|--- .... ....|G#5 ...6 ....
....|.1|F#4 ...E ....|--- .... ....|F#5 ...C ....
....|..|A-5 ...6 ....|--- .... ....|A-5 ...6 ....
....|..|A-5 ...E ....|--- .... ....|A-5 ...B ....
....|..|F#4 ...6 ....|--- .... ....|F#5 ...6 ....
....|.1|G#4 ...E ....|--- .... ....|G#5 ...C ....
....|..|A-5 ...6 ....|--- .... ....|A-5 ...6 ....
....|..|C-5 5..F ....|--- .... ....|E-5 ...B ....
....|..|--- .... ....|--- .... ....|G#5 ...6 ....
....|.1|F#5 7..E ....|--- .... ....|F#5 ...C ....
....|..|E-5 ...6 ....|--- .... ....|E-5 ...6 ....
....|..|A-5 ...E ....|--- .... ....|A-5 ...B ....
....|..|F#5 ...6 ....|--- .... ....|F#5 ...6 ....
....|.1|G#5 ...E ....|--- .... ....|G#5 ...C ....
....|..|A-5 ...6 ....|--- .... ....|A-5 ...6 ....
....|..|A-5 ...E ....|--- .... ....|A-5 ...B ....
....|..|G#5 ...6 ....|--- .... ....|G#5 ...6 ....
....|.1|F#4 ...E ....|--- .... ....|F#5 ...C ....
....|..|A-5 ...6 ....|--- .... ....|A-5 ...6 ....
....|..|C-5 6..F ....|--- .... ....|A-5 ...B ....
....|..|F#4 7..6 ....|--- .... ....|F#5 ...6 ....
....|.1|G#4 ...E ....|--- .... ....|G#5 ...C ....
....|..|A-5 ...6 ....|--- .... ....|A-5 ...6 ....
....|..|C-5 5..F ....|--- .... ....|E-5 ...B ....
....|..|--- .... ....|--- .... ....|G#5 ...6 ....
....|.1|G#5 7..E ....|--- .... ....|G#5 ...C ....
....|..|E-5 ...6 ....|--- .... ....|E-5 ...6 ....
....|..|A-5 ...E ....|--- .... ....|A-5 ...B ....
....|..|G#5 ...6 ....|--- .... ....|G#5 ...6 ....
....|.1|G#5 ...E ....|--- .... ....|G#5 ...C ....
....|..|A-5 ...6 ....|--- .... ....|A-5 ...6 ....
....|..|C-5 6..F ....|E-2 .... ....|A-5 ...B ....
....|..|G#5 7..6 ....|--- .... ....|G#5 ...6 ....
....|.1|F#4 ...E ....|--- .... ....|F#5 ...C ....
....|..|A-5 ...6 ....|--- .... ....|A-5 ...6 ....
....|..|A-5 ...E ....|--- .... ....|A-5 ...B ....
....|..|F#4 ...6 ....|--- .... ....|F#5 ...6 ....
....|.1|G#4 ...E ....|--- .... ....|G#5 ...C ....
....|..|A-5 ...6 ....|--- .... ....|A-5 ...6 ....
....|..|C-5 5..F ....|--- .... ....|E-5 ...B ....
....|..|--- .... ....|--- .... ....|G#5 ...6 ....
....|.1|F#5 7..E ....|--- .... ....|F#5 ...C ....
....|..|E-5 ...6 ....|--- .... ....|E-5 ...6 ....
....|..|A-5 ...E ....|--- .... ....|A-5 ...B ....
....|..|F#5 ...6 ....|--- .... ....|F#5 ...6 ....
....|.1|F#5 ...E ....|--- .... ....|F#5 ...C ....
....|..|A-5 ...6 ....|--- .... ....|A-5 ...6 ....
....|..|G#5 ...E ....|--- .... ....|G#5 ...B ....
....|..|F#5 ...6 ....|--- .... ....|F#5 ...6 ....
....|.1|E-4 ...E ....|--- .... ....|E-5 ...C ....
....|..|G#5 ...6 ....|--- .... ....|G#5 ...6 ....
....|..|C-5 6..F ....|--- .... ....|F#5 ...B ....
....|..|E-4 7..6 ....|--- .... ....|E-5 ...6 ....
....|.1|A-4 ...E ....|--- .... ....|A-5 ...C ....
....|..|F#5 ...6 ....|--- .... ....|F#5 ...6 ....
....|..|C-5 5..F ....|--- .... ....|G#5 ...B ....
....|..|--- .... ....|--- .... ....|A-5 ...6 ....
....|.1|F#5 7..E ....|--- .... ....|F#5 ...C ....
....|..|G#5 ...6 ....|--- .... ....|G#5 ...6 ....
....|..|A-5 ...E ....|--- .... ....|A-5 ...B ....
....|..|F#5 ...6 ....|--- .... ....|F#5 ...6 ....
....|.1|G#5 ...E ....|--- .... ....|G#5 ...C ....
....|..|A-5 ...6 ....|--- .... ....|A-5 ...6 ....
....|..|C-5 6..F ....|D-2 .... ....|A-5 ...B ....
....|..|G#5 7..6 ....|--- .... ....|G#5 ...6 ....
....|.1|F#4 ...E ....|--- .... ....|F#5 ...C ....
....|..|A-5 ...6 ....|--- .... ....|A-5 ...6 ....
....|..|A-5 ...E ....|--- .... ....|A-5 ...B ....
....|..|F#4 ...6 ....|--- .... ....|F#5 ...6 ....
....|.1|G#4 ...E ....|--- .... ....|G#5 ...C ....
....|..|A-5 ...6 ....|--- .... ....|A-5 ...6 ....
....|..|C-5 5..F ....|--- .... ....|E-5 ...B ....
....|..|--- .... ....|--- .... ....|G#5 ...6 ....
....|.1|F#4 7..E ....|--- .... ....|F#5 ...C ....
....|..|E-5 ...6 ....|--- .... ....|E-5 ...6 ....
....|..|A-5 ...E ....|--- .... ....|A-5 ...B ....
....|..|F#4 ...6 ....|--- .... ....|F#5 ...6 ....
....|.1|G#5 ...E ....|--- .... ....|G#5 ...C ....
....|..|A-5 ...6 ....|--- .... ....|A-5 ...6 ....
....|..|A-5 ...E ....|--- .... ....|A-5 ...B ....
....|..|G#5 ...6 ....|--- .... ....|G#5 ...6 ....
....|.1|F#4 ...E ....|--- .... ....|F#5 ...C ....
....|..|A-5 ...6 ....|--- .... ....|A-5 ...6 ....
....|..|C-5 6..F ....|--- .... ....|A-5 ...B ....
....|..|F#4 7..6 ....|--- .... ....|F#5 ...6 ....
....|.1|G#4 ...E ....|--- .... ....|G#5 ...C ....
....|..|A-5 ...6 ....|--- .... ....|A-5 ...6 ....
....|..|C-5 5..F ....|--- .... ....|E-5 ...B ....
....|..|--- .... ....|--- .... ....|G#5 ...6 ....
....|.1|F#4 7..E ....|--- .... ....|G#5 ...C ....
....|..|E-5 ...6 ....|--- .... ....|E-5 ...6 ....
....|..|A-5 ...E ....|--- .... ....|A-5 ...B ....
....|..|G#4 ...6 ....|--- .... ....|G#5 ...6 ....
....|.1|F#5 ...E ....|--- .... ....|F#5 ...C ....
....|..|A-5 ...6 ....|--- .... ....|A-5 ...6 ....
....|..|C-5 6..F ....|B-1 .... ....|A-5 ...B ....
....|..|F#5 7..6 ....|--- .... ....|F#5 ...6 ....
....|.1|F#4 ...E ....|--- .... ....|F#5 ...C ....
....|..|A-5 ...6 ....|--- .... ....|A-5 ...6 ....
....|..|A-5 ...E ....|--- .... ....|A-5 ...B ....
....|..|F#4 ...6 ....|--- .... ....|F#5 ...6 ....
....|.1|G#4 ...E ....|--- .... ....|G#5 ...C ....
....|..|A-5 ...6 ....|--- .... ....|A-5 ...6 ....
....|..|C-5 5..F ....|--- .... ....|E-5 ...B ....
....|..|--- .... ....|--- .... ....|G#5 ...6 ....
....|.1|F#4 7..E ....|--- .... ....|F#5 ...C ....
....|..|E-5 ...6 ....|--- .... ....|E-5 ...6 ....
....|..|A-5 ...E ....|--- .... ....|A-5 ...B ....
....|..|F#4 ...6 ....|--- .... ....|F#5 ...6 ....
....|.1|G#5 ...E ....|--- .... ....|G#5 ...C ....
....|..|A-5 ...6 ....|--- .... ....|A-5 ...6 ....
....|..|C-5 6..F ....|E-2 .... ....|C#5 ...B ....
....|..|G#5 7..6 ....|--- .... ....|G#5 ...6 ....
....|.1|E-4 ...E ....|--- .... ....|E-5 ...C ....
....|..|C#5 ...6 ....|--- .... ....|C#5 ...6 ....
....|..|F#5 ...E ....|--- .... ....|F#5 ...B ....
....|..|E-4 ...6 ....|--- .... ....|E-5 ...6 ....
....|.1|A-4 ...E ....|--- .... ....|A-5 ...C ....
....|..|F#5 ...6 ....|--- .... ....|F#5 ...6 ....
....|..|C-5 5..F ....|--- .... ....|G#5 ...B ....
....|..|--- .... ....|--- .... ....|A-5 ...6 ....
....|.1|F#4 7..E ....|--- .... ....|F#5 ...C ....
....|..|G#5 ...6 ....|--- .... ....|G#5 ...6 ....
....|..|A-5 ...E ....|--- .... ....|A-5 ...B ....
....|.1|F#4 ...6 ....|--- .... ....|F#5 ...6 ....
....|.1|G#5 ...E ....|--- .... ....|G#5 ...C ....
....|.1|A-5 ...6 ....|--- .... ....|A-5 ...6 ....

[Pattern7]
....|..|C-5 6..F ....|F#2 8.FF ....|C#6 3.1B ....
....|..|G#5 7..6 ....|--- .... ....|--- .... ....
....|.1|F#4 ...E ....|--- .... ....|--- .... ....
....|..|A-5 ...6 ....|--- .... ....|--- ...C ....
....|.2|A-5 ...D ....|--- .... ....|--- .... ....
....|..|F#4 ...6 ....|--- .... ....|--- .... ....
....|.1|G#4 ...E ....|--- .... ....|--- ...A ....
....|..|A-5 ...6 ....|--- .... ....|--- .... ....
....|..|C-5 5..F ....|--- .... ....|E-6 ...E ....
....|..|--- .... ....|--- .... ....|C#6 ...8 ....
....|.1|F#4 7..E ....|--- .... ....|A-5 ...B ....
....|..|E-5 ...6 ....|--- .... ....|--- .... ....
....|.2|A-5 ...D ....|--- .... ....|--- ...C ....
....|..|F#5 ...6 ....|--- .... ....|--- .... ....
....|.1|G#5 ...E ....|--- .... ....|--- .... ....
....|..|A-5 ...6 ....|--- .... ....|--- .... ....
....|..|A-5 ...D ....|--- .... ....|--- .... ....
....|..|G#5 ...6 ....|--- .... ....|--- ...A ....
....|.1|F#4 ...E ....|--- .... ....|--- .... ....
....|..|A-5 ...6 ....|--- .... ....|--- .... ....
....|.2|C-5 6..F ....|--- .... ....|A-4 ...C ....
....|..|F#4 7..6 ....|--- .... ....|F#5 ...8 ....
....|.1|G#4 ...E ....|--- .... ....|G#5 ...D ....
....|..|A-5 ...6 ....|--- .... ....|A-4 ...6 ....
....|..|C-5 5..F ....|--- .... ....|E-4 ...C ....
....|..|--- .... ....|--- .... ....|G#5 ...6 ....
....|.1|G#4 7..E ....|--- .... ....|G#5 ...D ....
....|..|E-5 ...6 ....|--- .... ....|E-4 ...6 ....
....|.2|A-5 ...D ....|--- .... ....|A-4 ...C ....
....|..|G#4 ...6 ....|--- .... ....|G#5 ...6 ....
....|.1|G#4 ...E ....|--- .... ....|G#5 ...D ....
....|..|A-5 ...6 ....|--- .... ....|A-4 ...6 ....
....|..|C-5 6..F ....|E-2 .... ....|A-5 ...B ....
....|..|G#5 7..6 ....|--- .... ....|--- .... ....
....|.1|F#4 ...E ....|--- .... ....|--- .... ....
....|..|A-5 ...6 ....|--- .... ....|--- ...C ....
....|.2|A-5 ...D ....|--- .... ....|--- .... ....
....|..|F#5 ...6 ....|--- .... ....|--- .... ....
....|.1|G#4 ...E ....|--- .... ....|--- ...A ....
....|..|A-5 ...6 ....|--- .... ....|--- .... ....
....|..|C-5 5..F ....|--- .... ....|C#6 ...E ....
....|..|--- .... ....|--- .... ....|A-5 ...8 ....
....|.1|F#4 7..E ....|--- .... ....|F#5 ...B ....
....|..|E-5 ...6 ....|--- .... ....|--- .... ....
....|.2|A-5 ...D ....|--- .... ....|--- ...C ....
....|..|F#4 ...6 ....|--- .... ....|--- .... ....
....|.1|F#5 ...E ....|--- .... ....|--- .... ....
....|..|A-5 ...6 ....|--- .... ....|--- .... ....
....|..|G#5 ...D ....|--- .... ....|--- ...A ....
....|..|F#5 ...6 ....|--- .... ....|--- .... ....
....|.1|E-4 ...E ....|--- .... ....|--- .... ....
....|..|G#5 ...6 ....|--- .... ....|--- .... ....
....|.2|C-5 6..F ....|--- .... ....|F#4 ...C ....
....|..|E-4 7..6 ....|--- .... ....|F#5 ...8 ....
....|.1|A-4 ...E ....|--- .... ....|A-5 ...D ....
....|..|F#5 ...6 ....|--- .... ....|F#4 ...6 ....
....|..|C-5 5..F ....|--- .... ....|G#4 ...C ....
....|..|--- .... ....|--- .... ....|A-5 ...6 ....
....|.1|F#4 7..E ....|--- .... ....|F#5 ...D ....
....|..|G#5 ...6 ....|--- .... ....|G#4 ...6 ....
....|.2|A-5 ...D ....|--- .... ....|A-4 ...C ....
....|..|F#4 ...6 ....|--- .... ....|F#5 ...6 ....
....|.1|G#4 ...E ....|--- .... ....|G#5 ...D ....
....|..|A-5 ...6 ....|--- .... ....|A-4 ...6 ....
....|..|C-5 6..F ....|D-2 .... ....|B-5 ...B ....
....|..|G#5 7..6 ....|--- .... ....|--- .... ....
....|.1|F#4 ...E ....|--- .... ....|--- .... ....
....|..|A-5 ...6 ....|--- .... ....|--- ...C ....
....|.2|A-5 ...D ....|--- .... ....|--- .... ....
....|..|F#5 ...6 ....|--- .... ....|--- .... ....
....|.1|G#4 ...E ....|--- .... ....|--- ...A ....
....|..|A-5 ...6 ....|--- .... ....|--- .... ....
....|..|C-5 5..F ....|--- .... ....|E-6 ...E ....
....|..|--- .... ....|--- .... ....|B-5 ...8 ....
....|.1|F#4 7..E ....|--- .... ....|C#6 ...B ....
....|..|E-5 ...6 ....|--- .... ....|--- .... ....
....|.2|A-5 ...D ....|--- .... ....|--- ...C ....
....|..|F#4 ...6 ....|--- .... ....|--- .... ....
....|.1|G#5 ...E ....|--- .... ....|--- .... ....
....|..|A-5 ...6 ....|--- .... ....|--- .... ....
....|..|A-5 ...D ....|--- .... ....|--- ...A ....
....|..|G#5 ...6 ....|--- .... ....|--- .... ....
....|.1|F#4 ...E ....|--- .... ....|--- .... ....
....|..|A-5 ...6 ....|--- .... ....|--- .... ....
....|.2|C-5 6..F ....|--- .... ....|A-4 ...C ....
....|..|F#4 7..6 ....|--- .... ....|C#6 ...8 ....
....|.1|G#4 ...E ....|--- .... ....|G#5 ...D ....
....|..|A-5 ...6 ....|--- .... ....|A-4 ...6 ....
....|..|C-5 5..F ....|--- .... ....|E-4 ...C ....
....|..|--- .... ....|--- .... ....|G#5 ...6 ....
....|.1|G#4 7..E ....|--- .... ....|G#5 ...D ....
....|..|E-5 ...6 ....|--- .... ....|E-4 ...6 ....
....|.2|A-5 ...D ....|--- .... ....|A-4 ...C ....
....|..|G#4 ...6 ....|--- .... ....|G#5 ...6 ....
....|.1|F#4 ...E ....|--- .... ....|F#5 ...D ....
....|..|A-5 ...6 ....|--- .... ....|A-4 ...6 ....
....|..|C-5 6..F ....|B-1 .... ....|A-5 ...B ....
....|..|F#5 7..6 ....|--- .... ....|--- .... ....
....|.1|F#4 ...E ....|--- .... ....|--- .... ....
....|..|A-5 ...6 ....|--- .... ....|--- ...C ....
....|.2|A-5 ...D ....|--- .... ....|--- .... ....
....|..|F#5 ...6 ....|--- .... ....|--- .... ....
....|.1|G#4 ...E ....|--- .... ....|--- ...A ....
....|..|A-5 ...6 ....|--- .... ....|--- .... ....
....|..|C-5 5..F ....|--- .... ....|C#6 ...E ....
....|..|--- .... ....|--- .... ....|A-5 ...8 ....
....|.1|F#4 7..E ....|--- .... ....|G#5 ...B ....
....|..|E-5 ...6 ....|--- .... ....|--- .... ....
....|.2|A-5 ...D ....|--- .... ....|--- ...C ....
....|..|F#4 ...6 ....|--- .... ....|--- .... ....
....|.1|G#5 ...E ....|--- .... ....|--- .... ....
....|..|A-5 ...6 ....|--- .... ....|--- .... ....
....|..|C-5 6..F ....|E-2 .... ....|--- ...A ....
....|..|G#5 7..6 ....|--- .... ....|--- .... ....
....|.1|E-4 ...E ....|--- .... ....|--- .... ....
....|..|C#5 ...6 ....|--- .... ....|--- .... ....
....|.2|F#5 ...D ....|--- .... ....|F#4 ...C ....
....|..|E-5 ...6 ....|--- .... ....|G#5 ...8 ....
....|.1|A-4 ...E ....|--- .... ....|A-5 ...D ....
....|..|F#5 ...6 ....|--- .... ....|F#4 ...6 ....
....|..|C-5 5..F ....|--- .... ....|G#4 ...C ....
....|..|--- .... ....|--- .... ....|A-5 ...6 ....
....|..|C-5 .... ....|--- .... ....|F#5 ...D ....
....|..|--- .... ....|--- .... ....|G#4 ...6 ....
....|..|C-5 .... ....|--- .... ....|A-4 ...C ....
....|..|--- .... ....|--- .... ....|F#5 ...6 ....
....|..|C-5 .... ....|--- .... ....|G#5 ...D ....
....|..|--- .... ....|--- .... ....|A-4 ...6 ....

[Pattern8]
....|..|C-5 6..F ....|F#2 3.FB ....|F#4 3.FB ....
....|..|F#4 7..C ....|F#5 ..36 ....|--- ...C ....
....|.3|F#4 ...E ....|F#2 ..FB ....|--- .... ....
....|..|F#4 ...C ....|F#5 ..36 ....|--- .... ....
....|..|A-4 ...E ....|A-2 ..FB ....|A-4 ...B ....
....|..|A-4 ...C ....|F#5 ..36 ....|--- ...C ....
....|.3|F#2 ...E ....|F#2 ..FB ....|F#4 ...B ....
....|..|F#4 ...C ....|F#5 ..36 ....|--- ...C ....
....|..|C-5 5..F ....|E-2 ..FB ....|--- .... ....
....|..|--- .... ....|F#5 ..36 ....|A-4 ...8 ....
....|.3|E-4 7..E ....|E-2 ..FB ....|E-4 ...B ....
....|..|E-4 ...C ....|F#5 ..36 ....|--- ...C ....
....|..|E-4 ...E ....|C#2 ..FB ....|--- .... ....
....|..|E-4 ...C ....|F#5 ..36 ....|--- ...8 ....
....|.3|F#4 ...E ....|E-2 ..FB ....|F#4 ...B ....
....|..|F#4 ...C ....|F#5 ..36 ....|--- ...C ....
....|..|F#4 ...E ....|F#2 ..FB ....|--- .... ....
....|..|F#4 ...C ....|F#5 ..36 ....|--- .... ....
....|.3|F#2 ...E ....|F#2 ..FB ....|--- .... ....
....|..|F#4 ...C ....|F#5 ..36 ....|--- .... ....
....|..|C-5 6..F ....|A-2 ..FB ....|E-4 ...B ....
....|..|E-4 7..C ....|F#5 ..36 ....|--- ...C ....
....|.3|F#2 ...E ....|F#2 ..FB ....|C#4 ...B ....
....|..|C#4 ...C ....|F#5 ..36 ....|--- ...C ....
....|..|C-5 5..F ....|E-2 ..FB ....|--- .... ....
....|..|--- .... ....|F#5 ..36 ....|E-4 ...8 ....
....|.3|F#4 7..E ....|A-2 ..FB ....|F#4 ...B ....
....|..|F#4 ...C ....|F#5 ..36 ....|--- ...C ....
....|..|F#4 ...E ....|C#2 ..FB ....|--- ...8 ....
....|..|F#4 ...C ....|F#5 ..36 ....|--- .... ....
....|.3|E-4 ...E ....|D-2 ..FB ....|E-4 ...B ....
....|..|E-4 ...C ....|F#5 ..36 ....|--- ...C ....
....|..|C-5 6..F ....|E-2 ..FB ....|--- .... ....
....|..|E-4 7..C ....|E-5 ..46 ....|--- .... ....
....|.3|E-2 ...E ....|E-2 ..FB ....|--- .... ....
....|..|E-4 ...C ....|E-5 ..46 ....|--- .... ....
....|..|F#4 ...E ....|F#2 ..FB ....|F#4 ...B ....
....|..|F#4 ...C ....|E-5 ..46 ....|--- ...C ....
....|.3|C#2 ...E ....|C#2 ..FB ....|E-4 ...B ....
....|..|E-4 ...C ....|E-5 ..46 ....|--- ...C ....
....|..|C-5 5..F ....|E-2 ..FB ....|--- .... ....
....|..|--- .... ....|E-5 ..46 ....|F#4 ...8 ....
....|.3|C#4 7..E ....|F#2 ..FB ....|C#4 ...B ....
....|..|C#4 ...C ....|E-5 ..46 ....|--- ...C ....
....|..|C#4 ...E ....|E-2 ..FB ....|--- ...8 ....
....|..|C#4 ...C ....|E-5 ..46 ....|--- .... ....
....|.3|E-4 ...E ....|C#2 ..FB ....|E-4 ...B ....
....|..|E-4 ...C ....|E-5 ..46 ....|--- ...C ....
....|..|E-4 ...E ....|E-2 ..FB ....|--- .... ....
....|..|E-4 ...C ....|E-5 ..46 ....|--- .... ....
....|.3|E-2 ...E ....|E-2 ..FB ....|--- .... ....
....|..|E-4 ...C ....|E-5 ..46 ....|--- .... ....
....|..|C-5 6..F ....|F#2 ..FB ....|F#4 ...B ....
....|..|F#4 7..C ....|E-5 ..46 ....|--- ...C ....
....|.3|C#2 ...E ....|C#2 ..FB ....|E-4 ...B ....
....|..|E-4 ...C ....|E-5 ..46 ....|--- ...C ....
....|..|C-5 5..F ....|E-2 ..FB ....|--- .... ....
....|..|--- .... ....|E-5 ..46 ....|F#4 ...8 ....
....|.3|F#4 7..E ....|F#2 ..FB ....|F#4 ...B ....
....|..|F#4 ...C ....|E-5 ..46 ....|--- ...C ....
....|..|F#4 ...E ....|E-2 ..FB ....|--- ...8 ....
....|..|F#4 ...C ....|E-5 ..46 ....|--- .... ....
....|.3|D-4 ...E ....|C#2 ..FB ....|D-4 ...B ....
....|..|D-4 ...C ....|E-5 ..46 ....|--- ...C ....
....|..|C-5 6..F ....|D-2 ..FB ....|--- .... ....
....|..|D-4 7..C ....|D-5 ..46 ....|--- .... ....
....|.3|D-2 ...E ....|D-2 ..FB ....|--- .... ....
....|..|D-4 ...C ....|D-5 ..46 ....|--- .... ....
....|..|A-4 ...E ....|A-2 ..FB ....|A-4 ...B ....
....|..|A-4 ...C ....|D-5 ..46 ....|--- ...C ....
....|.3|E-2 ...E ....|E-2 ..FB ....|D-4 ...B ....
....|..|D-4 ...C ....|D-5 ..46 ....|--- ...C ....
....|..|C-5 5..F ....|D-2 ..FB ....|--- ...8 ....
....|..|--- .... ....|D-5 ..46 ....|A-4 .... ....
....|.3|C#4 7..E ....|A-2 ..FB ....|C#4 ...B ....
....|..|C#4 ...C ....|D-5 ..46 ....|--- ...C ....
....|..|C#4 ...E ....|G#2 ..FB ....|--- .... ....
....|..|C#4 ...C ....|D-5 ..46 ....|--- ...8 ....
....|.3|D-4 ...E ....|E-2 ..FB ....|D-4 ...B ....
....|..|D-4 ...C ....|D-5 ..46 ....|--- ...C ....
....|..|D-4 ...E ....|D-2 ..FB ....|--- .... ....
....|..|D-4 ...C ....|D-5 ..46 ....|--- .... ....
....|.3|D-2 ...E ....|D-2 ..FB ....|--- .... ....
....|..|D-4 ...C ....|D-5 ..46 ....|--- .... ....
....|..|C-5 6..F ....|A-2 ..FB ....|D-5 ...B ....
....|..|D-5 7..C ....|D-5 ..46 ....|--- ...C ....
....|.3|E-2 ...E ....|E-2 ..FB ....|A-4 ...B ....
....|..|A-4 ...C ....|D-5 ..46 ....|--- ...C ....
....|..|C-5 5..F ....|D-2 ..FB ....|F#4 ...B ....
....|..|--- .... ....|D-5 ..46 ....|--- ...C ....
....|.3|D-4 7..E ....|A-2 ..FB ....|D-4 ...B ....
....|..|D-4 ...C ....|D-5 ..46 ....|--- ...C ....
....|..|C#4 ...E ....|G#2 ..FB ....|C#4 .... ....
....|..|C#4 ...C ....|D-5 ..46 ....|--- .... ....
....|.3|B-3 ...E ....|E-2 ..FB ....|B-3 ...B ....
....|..|B-3 ...C ....|D-5 ..46 ....|--- ...C ....
....|..|C-5 6..F ....|B-1 ..FB ....|--- .... ....
....|..|B-3 7..C ....|B-4 ..36 ....|--- .... ....
....|.3|B-1 ...E ....|B-1 ..FB ....|--- .... ....
....|..|B-3 ...C ....|B-4 ..36 ....|--- .... ....
....|..|B-4 ...E ....|F#2 ..FB ....|B-4 ...B ....
....|..|B-4 ...C ....|B-4 ..36 ....|--- ...C ....
....|.3|A-1 ...E ....|A-1 ..FB ....|--- ...8 ....
....|..|B-4 ...C ....|B-4 ..36 ....|--- .... ....
....|..|C-5 5..F ....|F#2 ..FB ....|B-3 ...B ....
....|..|--- .... ....|B-4 ..36 ....|--- ...C ....
....|.3|B-3 7..E ....|A-1 ..FB ....|--- ...8 ....
....|..|B-3 ...C ....|B-4 ..36 ....|--- .... ....
....|..|F#4 ...E ....|B-1 ..FB ....|F#4 ...C ....
....|..|F#4 ...C ....|B-4 ..36 ....|B-3 ...8 ....
....|.3|E-4 ...E ....|C#2 ..FB ....|E-4 ...B ....
....|..|E-4 ...C ....|B-4 ..36 ....|--- ...C ....
....|..|C-5 6..F ....|E-2 ..FB ....|--- .... ....
....|..|E-4 7..C ....|E-5 ..46 ....|--- .... ....
....|.3|E-2 ...E ....|E-2 ..FB ....|--- .... ....
....|..|E-4 ...C ....|E-5 ..46 ....|--- .... ....
....|..|E-5 ...E ....|F#2 ..FB ....|E-5 ...B ....
....|..|E-5 ...C ....|E-5 ..46 ....|--- ...C ....
....|.3|E-5 ...E ....|C#2 ..FB ....|E-4 ...B ....
....|..|E-4 ...C ....|E-5 ..46 ....|--- ...C ....
....|..|C-5 5..F ....|E-2 ..FB ....|--- .... ....
....|..|E-4 7..C ....|E-5 ..46 ....|--- .... ....
....|..|C-5 5..F ....|F#2 ..FB ....|B-4 ...B ....
....|..|B-4 7..C ....|E-5 ..46 ....|--- ...C ....
....|..|C-5 5..F ....|E-2 ..FB ....|--- .... ....
....|..|--- .... ....|E-5 ..46 ....|--- .... ....
....|..|C-5 .... ....|C#2 ..FB ....|--- .... ....
....|..|--- .... ....|E-5 ..46 ....|--- .... ....

[Pattern9]
....|..|C-5 6..F ....|F#2 3.FC ....|C#5 3.FD ....
....|..|C#5 7..E ....|F#5 ..38 ....|--- .... ....
....|.3|F#5 .... ....|F#2 ..FC ....|--- .... ....
....|..|A-5 ...6 ....|F#5 ..38 ....|--- .... ....
....|..|A-5 ...E ....|A-2 ..FC ....|A-4 ...C ....
....|..|A-4 ...D ....|F#5 ..38 ....|--- ...D ....
....|.3|G#5 ...E ....|F#2 ..FC ....|F#4 ...C ....
....|..|F#4 ...D ....|F#5 ..38 ....|--- ...D ....
....|..|C-5 5..F ....|E-2 ..FC ....|--- .... ....
....|..|--- .... ....|F#5 ..38 ....|A-4 ...8 ....
....|.3|F#5 7..E ....|E-2 ..FC ....|E-4 ...C ....
....|..|E-4 ...D ....|F#5 ..38 ....|--- ...D ....
....|..|A-5 ...E ....|C#2 ..FC ....|--- .... ....
....|..|F#5 ...6 ....|F#5 ..38 ....|--- ...8 ....
....|.3|G#5 ...E ....|E-2 ..FC ....|F#4 ...D ....
....|..|F#4 ...D ....|F#5 ..38 ....|--- .... ....
....|..|A-5 ...E ....|F#2 ..FC ....|--- .... ....
....|..|F#4 ...D ....|F#5 ..38 ....|--- .... ....
....|.3|F#5 ...E ....|F#2 ..FC ....|--- .... ....
....|..|A-5 ...6 ....|F#5 ..38 ....|--- .... ....
....|..|C-5 6..F ....|A-2 ..FC ....|E-4 ...C ....
....|..|E-4 7..D ....|F#5 ..38 ....|--- ...D ....
....|.3|G#5 ...E ....|F#2 ..FC ....|F#4 ...C ....
....|..|F#4 ...D ....|F#5 ..38 ....|--- ...D ....
....|..|C-5 5..F ....|E-2 ..FC ....|G#4 ...C ....
....|..|--- .... ....|F#5 ..38 ....|--- ...D ....
....|.3|G#5 7..E ....|A-2 ..FC ....|--- .... ....
....|..|G#4 ...D ....|F#5 ..38 ....|--- .... ....
....|..|A-5 ...E ....|C#2 ..FC ....|A-4 ...C ....
....|..|G#5 ...6 ....|F#5 ..38 ....|--- ...D ....
....|.3|G#5 ...E ....|D-2 ..FC ....|B-4 ...C ....
....|..|B-4 ...D ....|F#5 ..38 ....|--- ...D ....
....|..|C-5 6..F ....|E-2 ..FC ....|--- .... ....
....|..|B-4 7..D ....|E-5 ..48 ....|--- .... ....
....|.3|F#5 ...E ....|E-2 ..FC ....|--- .... ....
....|..|A-5 ...6 ....|E-5 ..48 ....|--- .... ....
....|..|A-5 ...E ....|F#2 ..FC ....|C#5 ...C ....
....|..|C#5 ...D ....|E-5 ..48 ....|--- ...D ....
....|.3|G#5 ...E ....|C#2 ..FC ....|B-4 ...C ....
....|..|B-4 ...D ....|E-5 ..48 ....|--- ...D ....
....|..|C-5 5..F ....|E-2 ..FC ....|--- .... ....
....|..|--- .... ....|E-5 ..48 ....|C#5 ...8 ....
....|.3|F#5 7..E ....|F#2 ..FC ....|C#5 ...C ....
....|..|C#5 ...D ....|E-5 ..48 ....|--- ...D ....
....|..|A-5 ...E ....|E-2 ..FC ....|--- ...8 ....
....|..|F#5 ...6 ....|E-5 ..48 ....|--- .... ....
....|.3|F#5 ...E ....|C#2 ..FC ....|B-4 ...C ....
....|..|B-4 ...D ....|E-5 ..48 ....|--- ...D ....
....|..|G#5 ...E ....|E-2 ..FC ....|--- .... ....
....|..|B-4 ...D ....|E-5 ..48 ....|--- .... ....
....|.3|E-5 ...E ....|E-2 ..FC ....|--- .... ....
....|..|G#5 ...6 ....|E-5 ..48 ....|--- .... ....
....|..|C-5 6..F ....|F#2 ..FC ....|F#4 ...C ....
....|..|F#4 7..D ....|E-5 ..48 ....|--- ...D ....
....|.3|A-5 ...E ....|C#2 ..FC ....|E-4 ...C ....
....|..|E-4 ...D ....|E-5 ..48 ....|--- ...D ....
....|..|C-5 5..F ....|E-2 ..FC ....|--- .... ....
....|..|--- .... ....|E-5 ..48 ....|F#4 ...8 ....
....|.3|F#5 7..E ....|F#2 ..FC ....|A-4 ...C ....
....|..|A-4 ...D ....|E-5 ..48 ....|--- ...D ....
....|..|A-5 ...E ....|E-2 ..FC ....|--- ...8 ....
....|..|F#5 ...6 ....|E-5 ..48 ....|--- .... ....
....|.3|G#5 ...E ....|C#2 ..FC ....|B-4 ...C ....
....|..|B-4 ...D ....|E-5 ..48 ....|--- ...D ....
....|..|C-5 6..F ....|D-2 ..FC ....|--- .... ....
....|..|B-4 7..D ....|D-5 ..48 ....|--- .... ....
....|.3|F#5 ...E ....|D-2 ..FC ....|--- .... ....
....|..|A-5 ...6 ....|D-5 ..48 ....|--- .... ....
....|..|A-5 ...E ....|A-2 ..FC ....|C#5 ...C ....
....|..|C#5 ...D ....|D-5 ..48 ....|--- ...D ....
....|.3|G#5 ...E ....|E-2 ..FC ....|B-4 ...C ....
....|..|B-4 ...D ....|D-5 ..48 ....|--- ...D ....
....|..|C-5 5..F ....|D-2 ..FC ....|--- ...8 ....
....|..|--- .... ....|D-5 ..48 ....|C#5 .... ....
....|.3|F#5 7..E ....|A-2 ..FC ....|C#5 ...C ....
....|..|C#5 ...D ....|D-5 ..48 ....|--- ...D ....
....|..|A-5 ...E ....|G#2 ..FC ....|--- .... ....
....|..|F#5 ...6 ....|D-5 ..48 ....|--- ...8 ....
....|.3|G#5 ...E ....|E-2 ..FC ....|B-4 ...C ....
....|..|B-4 ...D ....|D-5 ..48 ....|--- ...D ....
....|..|A-5 ...E ....|D-2 ..FC ....|--- .... ....
....|..|B-4 ...D ....|D-5 ..48 ....|--- .... ....
....|.3|F#5 ...E ....|D-2 ..FC ....|--- .... ....
....|..|A-5 ...6 ....|D-5 ..48 ....|--- .... ....
....|..|C-5 6..F ....|A-2 ..FC ....|D-5 ...C ....
....|..|D-5 7..D ....|D-5 ..48 ....|--- ...D ....
....|.3|G#5 ...E ....|E-2 ..FC ....|C#5 ...C ....
....|..|C#5 ...D ....|D-5 ..48 ....|--- ...D ....
....|..|C-5 5..F ....|D-2 ..FC ....|B-4 ...C ....
....|..|--- .... ....|D-5 ..48 ....|--- ...D ....
....|.3|G#5 7..E ....|A-2 ..FC ....|A-4 ...C ....
....|..|A-4 ...D ....|D-5 ..48 ....|--- ...D ....
....|..|A-5 ...E ....|G#2 ..FC ....|--- .... ....
....|..|A-4 ...D ....|D-5 ..48 ....|--- .... ....
....|.3|F#5 ...E ....|E-2 ..FC ....|--- ...8 ....
....|..|A-5 ...6 ....|D-5 ..48 ....|--- .... ....
....|..|C-5 6..F ....|B-1 ..FC ....|B-4 ...C ....
....|..|B-4 7..D ....|B-4 ..38 ....|--- ...D ....
....|.3|F#5 ...E ....|B-1 ..FC ....|--- ...8 ....
....|..|A-5 ...6 ....|B-4 ..38 ....|--- .... ....
....|..|A-5 ...E ....|F#2 ..FC ....|C#5 ...C ....
....|..|C#5 ...D ....|B-4 ..38 ....|--- ...D ....
....|.3|G#5 ...E ....|A-1 ..FC ....|--- ...8 ....
....|..|A-5 ...6 ....|B-4 ..38 ....|--- .... ....
....|..|C-5 5..F ....|F#2 ..FC ....|B-4 ...C ....
....|..|--- .... ....|B-4 ..38 ....|--- ...D ....
....|.3|F#5 7..E ....|A-1 ..FC ....|--- ...8 ....
....|..|E-5 ...6 ....|B-4 ..38 ....|--- .... ....
....|..|A-5 ...E ....|B-1 ..FC ....|A-4 ...D ....
....|..|F#5 ...6 ....|B-4 ..38 ....|B-4 ...8 ....
....|.3|G#5 ...E ....|C#2 ..FC ....|B-4 ...C ....
....|..|B-4 ...D ....|B-4 ..38 ....|--- ...D ....
....|..|C-5 6..F ....|E-2 ..FC ....|--- .... ....
....|..|B-4 7..D ....|E-5 ..48 ....|--- .... ....
....|.3|E-5 ...E ....|E-2 ..FC ....|C#5 ...C ....
....|..|C#5 ...6 ....|E-5 ..48 ....|--- ...D ....
....|..|F#5 ...E ....|F#2 ..FC ....|--- .... ....
....|..|C#5 ...D ....|E-5 ..48 ....|--- .... ....
....|.3|A-5 ...E ....|C#2 ..FC ....|A-4 ...C ....
....|..|A-4 ...D ....|E-5 ..48 ....|--- ...D ....
....|..|C-5 5..F ....|E-2 ..FC ....|--- .... ....
....|..|A-4 7..D ....|E-5 ..48 ....|--- .... ....
....|..|C-5 5..F ....|F#2 ..FC ....|B-4 .... ....
....|..|B-4 7..D ....|E-5 ..48 ....|--- .... ....
....|..|C-5 5..F ....|E-2 ..FC ....|--- .... ....
....|..|--- .... ....|E-5 ..48 ....|--- .... ....
....|..|C-5 .... ....|C#2 ..FC ....|--- .... ....
....|..|--- .... ....|E-5 ..48 ....|--- .... ....

[Pattern10]
....|..|C-5 6..F ....|F#2 3.FD ....|A-5 1.FC ....
....|..|G#5 7..6 ....|F#5 ..36 ....|G#4 ...6 ....
....|.3|F#5 ...E ....|F#2 ..FD ....|F#4 ...D ....
....|..|A-5 ...6 ....|F#5 ..36 ....|A-5 ...6 ....
....|..|A-5 ...E ....|A-2 ..FD ....|A-4 ...C ....
....|..|F#5 ...6 ....|F#5 ..36 ....|F#4 ...6 ....
....|.3|G#5 ...E ....|F#2 ..FD ....|G#4 ...D ....
....|..|A-5 ...6 ....|F#5 ..36 ....|A-4 ...6 ....
....|..|C-5 5..F ....|E-2 ..FD ....|E-5 ...C ....
....|..|--- .... ....|F#5 ..36 ....|G#4 ...6 ....
....|.3|F#5 7..E ....|E-2 ..FD ....|F#4 ...D ....
....|..|E-5 ...6 ....|F#5 ..36 ....|E-5 ...6 ....
....|..|A-5 ...E ....|C#2 ..FD ....|A-4 ...C ....
....|..|F#5 ...6 ....|F#5 ..36 ....|F#4 ...6 ....
....|.3|G#5 ...E ....|E-2 ..FD ....|G#4 ...D ....
....|..|A-5 ...6 ....|F#5 ..36 ....|A-4 ...6 ....
....|..|A-5 ...E ....|F#2 ..FD ....|A-4 ...C ....
....|..|G#5 ...6 ....|F#5 ..36 ....|G#4 ...6 ....
....|.3|F#5 ...E ....|F#2 ..FD ....|F#4 ...D ....
....|..|A-5 ...6 ....|F#5 ..36 ....|A-4 ...6 ....
....|..|C-5 6..F ....|A-2 ..FD ....|A-5 ...C ....
....|..|F#5 7..6 ....|F#5 ..36 ....|F#4 ...6 ....
....|.3|G#5 ...E ....|F#2 ..FD ....|G#4 ...D ....
....|..|A-5 ...6 ....|F#5 ..36 ....|A-5 ...6 ....
....|..|C-5 5..F ....|E-2 ..FD ....|E-5 ...C ....
....|..|--- .... ....|F#5 ..36 ....|G#4 ...6 ....
....|.3|G#5 7..E ....|A-2 ..FD ....|G#4 ...D ....
....|..|E-5 ...6 ....|F#5 ..36 ....|E-5 ...6 ....
....|..|A-5 ...E ....|C#2 ..FD ....|A-4 ...C ....
....|..|G#5 ...6 ....|F#5 ..36 ....|G#4 ...6 ....
....|.3|G#5 ...E ....|D-2 ..FD ....|G#4 ...D ....
....|..|A-5 ...6 ....|F#5 ..36 ....|A-4 ...6 ....
....|..|C-5 6..F ....|E-2 ..FD ....|A-5 ...C ....
....|..|G#5 7..6 ....|E-5 ..46 ....|G#4 ...6 ....
....|.3|F#5 ...E ....|E-2 ..FD ....|F#4 ...D ....
....|..|A-5 ...6 ....|E-5 ..46 ....|A-5 ...6 ....
....|..|A-5 ...E ....|F#2 ..FD ....|A-4 ...C ....
....|..|F#5 ...6 ....|E-5 ..46 ....|F#4 ...6 ....
....|.3|G#5 ...E ....|C#2 ..FD ....|G#4 ...D ....
....|..|A-5 ...6 ....|E-5 ..46 ....|A-4 ...6 ....
....|..|C-5 5..F ....|E-2 ..FD ....|E-5 ...C ....
....|..|--- .... ....|E-5 ..46 ....|G#4 ...6 ....
....|.3|F#5 7..E ....|F#2 ..FD ....|F#4 ...D ....
....|..|E-5 ...6 ....|E-5 ..46 ....|E-5 ...6 ....
....|..|A-5 ...E ....|E-2 ..FD ....|A-4 ...C ....
....|..|F#5 ...6 ....|E-5 ..46 ....|F#4 ...6 ....
....|.3|F#5 ...E ....|C#2 ..FD ....|F#4 ...D ....
....|..|A-5 ...6 ....|E-5 ..46 ....|A-4 ...6 ....
....|..|G#5 ...E ....|E-2 ..FD ....|G#4 ...C ....
....|..|F#5 ...6 ....|E-5 ..46 ....|F#4 ...6 ....
....|.3|E-5 ...E ....|E-2 ..FD ....|E-4 ...D ....
....|..|G#5 ...6 ....|E-5 ..46 ....|G#4 ...6 ....
....|..|C-5 6..F ....|F#2 ..FD ....|F#5 ...C ....
....|..|E-5 7..6 ....|E-5 ..46 ....|E-4 ...6 ....
....|.3|A-5 ...E ....|C#2 ..FD ....|A-4 ...D ....
....|..|F#5 ...6 ....|E-5 ..46 ....|F#5 ...6 ....
....|..|C-5 5..F ....|E-2 ..FD ....|G#5 ...C ....
....|..|--- .... ....|E-5 ..46 ....|A-4 ...6 ....
....|.3|F#5 7..E ....|F#2 ..FD ....|F#4 ...D ....
....|..|G#5 ...6 ....|E-5 ..46 ....|G#5 ...6 ....
....|..|A-5 ...E ....|E-2 ..FD ....|A-4 ...C ....
....|..|F#5 ...6 ....|E-5 ..46 ....|F#4 ...6 ....
....|.3|G#5 ...E ....|C#2 ..FD ....|G#4 ...D ....
....|..|A-5 ...6 ....|E-5 ..46 ....|A-4 ...6 ....
....|..|C-5 6..F ....|D-2 ..FD ....|A-5 ...C ....
....|..|G#5 7..6 ....|D-5 ..46 ....|G#4 ...6 ....
....|.3|F#5 ...E ....|D-2 ..FD ....|F#4 ...D ....
....|..|A-5 ...6 ....|D-5 ..46 ....|A-5 ...6 ....
....|..|A-5 ...E ....|A-2 ..FD ....|A-4 ...C ....
....|..|F#5 ...6 ....|D-5 ..46 ....|F#4 ...6 ....
....|.3|G#5 ...E ....|E-2 ..FD ....|G#4 ...D ....
....|..|A-5 ...6 ....|D-5 ..46 ....|A-4 ...6 ....
....|..|C-5 5..F ....|D-2 ..FD ....|E-5 ...C ....
....|..|--- .... ....|D-5 ..46 ....|G#4 ...6 ....
....|.3|F#5 7..E ....|A-2 ..FD ....|F#4 ...D ....
....|..|E-5 ...6 ....|D-5 ..46 ....|E-5 ...6 ....
....|..|A-5 ...E ....|G#2 ..FD ....|A-4 ...C ....
....|..|F#5 ...6 ....|D-5 ..46 ....|F#4 ...6 ....
....|.3|G#5 ...E ....|E-2 ..FD ....|G#4 ...D ....
....|..|A-5 ...6 ....|D-5 ..46 ....|A-4 ...6 ....
....|..|A-5 ...E ....|D-2 ..FD ....|A-4 ...C ....
....|..|G#5 ...6 ....|D-5 ..46 ....|G#4 ...6 ....
....|.3|F#5 ...E ....|D-2 ..FD ....|F#4 ...D ....
....|..|A-5 ...6 ....|D-5 ..46 ....|A-4 ...6 ....
....|..|C-5 6..F ....|A-2 ..FD ....|A-5 ...C ....
....|..|F#5 7..6 ....|D-5 ..46 ....|F#4 ...6 ....
....|.3|G#5 ...E ....|E-2 ..FD ....|G#4 ...D ....
....|..|A-5 ...6 ....|D-5 ..46 ....|A-5 ...6 ....
....|..|C-5 5..F ....|D-2 ..FD ....|E-5 ...C ....
....|..|--- .... ....|D-5 ..46 ....|G#4 ...6 ....
....|.3|G#5 7..E ....|A-2 ..FD ....|G#4 ...D ....
....|..|E-5 ...6 ....|D-5 ..46 ....|E-5 ...6 ....
....|..|A-5 ...E ....|G#2 ..FD ....|A-4 ...C ....
....|..|G#5 ...6 ....|D-5 ..46 ....|G#4 ...6 ....
....|.3|F#5 ...E ....|E-2 ..FD ....|F#4 ...D ....
....|..|A-5 ...6 ....|D-5 ..46 ....|A-4 ...6 ....
....|..|C-5 6..F ....|B-1 ..FD ....|A-5 ...C ....
....|..|F#5 7..6 ....|B-4 ..36 ....|F#4 ...6 ....
....|.3|F#5 ...E ....|B-1 ..FD ....|F#4 ...D ....
....|..|A-5 ...6 ....|B-4 ..36 ....|A-5 ...6 ....
....|..|A-5 ...E ....|F#2 ..FD ....|A-4 ...C ....
....|..|F#5 ...6 ....|B-4 ..36 ....|F#4 ...6 ....
....|.3|G#5 ...E ....|A-1 ..FD ....|G#4 ...D ....
....|..|A-5 ...6 ....|B-4 ..36 ....|A-4 ...6 ....
....|..|C-5 5..F ....|F#2 ..FD ....|E-5 ...C ....
....|..|--- .... ....|B-4 ..36 ....|G#4 ...6 ....
....|.3|F#5 7..E ....|A-1 ..FD ....|F#4 ...D ....
....|..|E-5 ...6 ....|B-4 ..36 ....|E-5 ...6 ....
....|..|A-5 ...E ....|B-1 ..FD ....|A-4 ...C ....
....|..|F#5 ...6 ....|B-4 ..36 ....|F#4 ...6 ....
....|.3|G#5 ...E ....|C#2 ..FD ....|G#4 ...D ....
....|..|A-5 ...6 ....|B-4 ..36 ....|A-4 ...6 ....
....|..|C-5 6..F ....|E-2 ..FD ....|C#5 ...C ....
....|..|G#5 7..6 ....|E-5 ..46 ....|G#4 ...6 ....
....|.3|E-5 ...E ....|E-2 ..FD ....|E-4 ...D ....
....|..|C#5 ...6 ....|E-5 ..46 ....|C#5 ...6 ....
....|..|F#5 ...E ....|F#2 ..FD ....|F#4 ...C ....
....|..|E-5 ...6 ....|E-5 ..46 ....|E-4 ...6 ....
....|.3|A-5 ...E ....|C#2 ..FD ....|A-4 ...D ....
....|..|F#5 ...6 ....|E-5 ..46 ....|F#4 ...6 ....
....|..|C-5 5..F ....|E-2 ..FD ....|G#5 ...C ....
....|..|--- .... ....|E-5 ..46 ....|A-4 ...6 ....
....|..|C-5 .... ....|F#2 ..FD ....|F#5 ...D ....
....|..|--- .... ....|E-5 ..46 ....|G#5 ...6 ....
....|..|C-5 .... ....|E-2 ..FD ....|A-5 ...C ....
....|..|--- .... ....|E-5 ..46 ....|F#5 ...6 ....
....|..|C-5 .... ....|C#2 ..FD ....|G#5 ...D ....
....|..|--- .... ....|E-5 ..46 ....|A-5 ...6 ....

[Pattern11]
....|..|C-5 6..F ....|F#2 3.FD ....|A-5 3.FC ....
....|..|G#5 7..6 ....|F#5 ..36 ....|--- .... ....
....|.3|F#5 ...E ....|F#2 ..FD ....|F#5 .... ....
....|..|A-5 ...6 ....|F#5 ..36 ....|--- .... ....
....|..|A-5 ...E ....|A-2 ..FD ....|A-5 .... ....
....|..|F#5 ...6 ....|F#5 ..36 ....|--- .... ....
....|.3|G#5 ...E ....|F#2 ..FD ....|G#5 .... ....
....|..|A-5 ...6 ....|F#5 ..36 ....|--- .... ....
....|..|C-5 5..F ....|E-2 ..FD ....|E-5 ..1. ....
....|..|--- .... ....|F#5 ..36 ....|G#5 ..F6 ....
....|.3|F#5 7..E ....|E-2 ..FD ....|F#5 ..1D ....
....|..|E-5 ...6 ....|F#5 ..36 ....|E-5 ...6 ....
....|..|A-5 ...E ....|C#2 ..FD ....|A-5 ...C ....
....|..|F#5 ...6 ....|F#5 ..36 ....|F#5 ...6 ....
....|.3|G#5 ...E ....|E-2 ..FD ....|G#5 ...D ....
....|..|A-5 ...6 ....|F#5 ..36 ....|A-5 ...6 ....
....|..|A-5 ...E ....|F#2 ..FD ....|A-5 ..FC ....
....|..|G#5 ...6 ....|F#5 ..36 ....|--- .... ....
....|.3|F#5 ...E ....|F#2 ..FD ....|F#5 .... ....
....|..|A-5 ...6 ....|F#5 ..36 ....|--- .... ....
....|..|C-5 6..F ....|A-2 ..FD ....|B-5 .... ....
....|..|F#5 7..6 ....|F#5 ..36 ....|--- .... ....
....|.3|G#5 ...E ....|F#2 ..FD ....|G#5 .... ....
....|..|A-5 ...6 ....|F#5 ..36 ....|--- .... ....
....|..|C-5 5..F ....|E-2 ..FD ....|E-5 ..1. ....
....|..|--- .... ....|F#5 ..36 ....|G#5 ..F6 ....
....|.3|G#5 7..E ....|A-2 ..FD ....|G#5 ..1D ....
....|..|E-5 ...6 ....|F#5 ..36 ....|E-5 ...6 ....
....|..|A-5 ...E ....|C#2 ..FD ....|A-5 ...C ....
....|..|G#5 ...6 ....|F#5 ..36 ....|G#5 ...6 ....
....|.3|G#5 ...E ....|D-2 ..FD ....|G#5 ...D ....
....|..|A-5 ...6 ....|F#5 ..36 ....|A-5 ...6 ....
....|..|C-5 6..F ....|E-2 ..FD ....|A-5 ..FC ....
....|..|G#5 7..6 ....|E-5 ..46 ....|--- .... ....
....|.3|F#5 ...E ....|E-2 ..FD ....|F#5 .... ....
....|..|A-5 ...6 ....|E-5 ..46 ....|--- .... ....
....|..|A-5 ...E ....|A-2 ..FD ....|A-5 .... ....
....|..|F#5 ...6 ....|E-5 ..46 ....|--- .... ....
....|.3|G#5 ...E ....|C#2 ..FD ....|G#5 .... ....
....|..|A-5 ...6 ....|E-5 ..46 ....|--- .... ....
....|..|C-5 5..F ....|E-2 ..FD ....|E-5 ..1. ....
....|..|--- .... ....|E-5 ..46 ....|G#5 ..F6 ....
....|.3|F#5 7..E ....|F#2 ..FD ....|F#5 ..1D ....
....|..|E-5 ...6 ....|E-5 ..46 ....|E-5 ...6 ....
....|..|A-5 ...E ....|E-2 ..FD ....|A-5 ...C ....
....|..|F#5 ...6 ....|E-5 ..46 ....|F#5 ...6 ....
....|.3|F#5 ...E ....|C#2 ..FD ....|F#5 ...D ....
....|..|A-5 ...6 ....|E-5 ..46 ....|A-5 ...6 ....
....|..|G#5 ...E ....|E-2 ..FD ....|G#5 ..FC ....
....|..|F#5 ...6 ....|E-5 ..46 ....|--- .... ....
....|.3|E-5 ...E ....|E-2 ..FD ....|E-5 .... ....
....|..|G#5 ...6 ....|E-5 ..46 ....|--- .... ....
....|..|C-5 6..F ....|F#2 ..FD ....|F#5 .... ....
....|..|E-5 7..6 ....|E-5 ..46 ....|--- .... ....
....|.3|B-5 ...E ....|C#2 ..FD ....|B-5 .... ....
....|..|F#5 ...6 ....|E-5 ..46 ....|--- .... ....
....|..|C-5 5..F ....|E-2 ..FD ....|G#5 ..1. ....
....|..|--- .... ....|E-5 ..46 ....|B-5 ..F6 ....
....|.3|F#5 7..E ....|F#2 ..FD ....|F#5 ..1D ....
....|..|G#5 ...6 ....|E-5 ..46 ....|G#5 ...6 ....
....|..|A-5 ...E ....|E-2 ..FD ....|A-5 ...C ....
....|..|F#5 ...6 ....|E-5 ..46 ....|F#5 ...6 ....
....|.3|G#5 ...E ....|C#2 ..FD ....|G#5 ...D ....
....|..|A-5 ...6 ....|E-5 ..46 ....|A-5 ...6 ....
....|..|C-5 6..F ....|D-2 ..FD ....|A-5 ..FC ....
....|..|G#5 7..6 ....|D-5 ..46 ....|--- .... ....
....|.3|F#5 ...E ....|D-2 ..FD ....|F#5 .... ....
....|..|A-5 ...6 ....|D-5 ..46 ....|--- .... ....
....|..|A-5 ...E ....|A-2 ..FD ....|A-5 .... ....
....|..|F#5 ...6 ....|D-5 ..46 ....|--- .... ....
....|.3|G#5 ...E ....|E-2 ..FD ....|G#5 .... ....
....|..|A-5 ...6 ....|D-5 ..46 ....|--- .... ....
....|..|C-5 5..F ....|D-2 ..FD ....|E-5 ..1. ....
....|..|--- .... ....|D-5 ..46 ....|G#5 ..F6 ....
....|.3|F#5 7..E ....|A-2 ..FD ....|F#5 ..1D ....
....|..|E-5 ...6 ....|D-5 ..46 ....|E-5 ...6 ....
....|..|A-5 ...E ....|G#2 ..FD ....|A-5 ...C ....
....|..|F#5 ...6 ....|D-5 ..46 ....|F#5 ...6 ....
....|.3|G#5 ...E ....|E-2 ..FD ....|G#5 ...D ....
....|..|A-5 ...6 ....|D-5 ..46 ....|A-5 ...6 ....
....|..|A-5 ...E ....|D-2 ..FD ....|A-5 ..FC ....
....|..|G#5 ...6 ....|D-5 ..46 ....|--- .... ....
....|.3|F#5 ...E ....|D-2 ..FD ....|F#5 .... ....
....|..|A-5 ...6 ....|D-5 ..46 ....|--- .... ....
....|..|C-5 6..F ....|A-2 ..FD ....|A-5 .... ....
....|..|F#5 7..6 ....|D-5 ..46 ....|--- .... ....
....|.3|G#5 ...E ....|E-2 ..FD ....|G#5 .... ....
....|..|A-5 ...6 ....|D-5 ..46 ....|--- .... ....
....|..|C-5 5..F ....|D-2 ..FD ....|E-5 ..1. ....
....|..|--- .... ....|D-5 ..46 ....|G#5 ..F6 ....
....|.3|G#5 7..E ....|A-2 ..FD ....|G#5 ..1D ....
....|..|E-5 ...6 ....|D-5 ..46 ....|E-5 ...6 ....
....|..|A-5 ...E ....|G#2 ..FD ....|A-5 ...C ....
....|..|G#5 ...6 ....|D-5 ..46 ....|G#5 ...6 ....
....|.3|F#5 ...E ....|E-2 ..FD ....|F#5 ...D ....
....|..|A-5 ...6 ....|D-5 ..46 ....|A-5 ...6 ....
....|..|C-5 6..F ....|B-1 ..FD ....|B-5 ..FC ....
....|..|F#5 7..6 ....|B-4 ..36 ....|--- .... ....
....|.3|F#5 ...E ....|B-1 ..FD ....|F#5 .... ....
....|..|A-5 ...6 ....|B-4 ..36 ....|--- .... ....
....|..|A-5 ...E ....|F#2 ..FD ....|A-5 .... ....
....|..|F#5 ...6 ....|B-4 ..36 ....|--- .... ....
....|.3|G#5 ...E ....|A-1 ..FD ....|G#5 .... ....
....|..|A-5 ...6 ....|B-4 ..36 ....|--- .... ....
....|..|C-5 5..F ....|F#2 ..FD ....|E-5 ..1. ....
....|..|--- .... ....|B-4 ..36 ....|G#5 ..F6 ....
....|.3|F#5 7..E ....|A-1 ..FD ....|F#5 ..1D ....
....|..|E-5 ...6 ....|B-4 ..36 ....|E-5 ...6 ....
....|..|A-5 ...E ....|B-1 ..FD ....|A-5 ...C ....
....|..|F#5 ...6 ....|B-4 ..36 ....|F#5 ...6 ....
....|.3|G#5 ...E ....|C#2 ..FD ....|G#5 ...D ....
....|..|A-5 ...6 ....|B-4 ..36 ....|A-5 ...6 ....
....|..|C-5 6..F ....|E-2 ..FD ....|C#5 ..FC ....
....|..|G#5 7..6 ....|E-5 ..46 ....|--- .... ....
....|.3|E-5 ...E ....|E-2 ..FD ....|E-5 .... ....
....|..|C#5 ...6 ....|E-5 ..46 ....|--- .... ....
....|..|F#5 ...E ....|F#2 ..FD ....|F#5 .... ....
....|..|E-5 ...6 ....|E-5 ..46 ....|--- .... ....
....|.3|A-5 ...E ....|C#2 ..FD ....|A-5 .... ....
....|..|F#5 ...6 ....|E-5 ..46 ....|--- .... ....
....|..|C-5 5..F ....|E-2 ..FD ....|G#5 ..1. ....
....|..|--- .... ....|E-5 ..46 ....|A-5 ..F6 ....
....|..|C-5 .... ....|F#2 ..FD ....|F#5 ..1D ....
....|..|--- .... ....|E-5 ..46 ....|G#5 ...6 ....
....|..|C-5 .... ....|E-2 ..FD ....|A-5 ...C ....
....|..|--- .... ....|E-5 ..46 ....|F#5 ...6 ....
....|..|C-5 .... ....|C#2 ..FD ....|G#5 ...D ....
....|..|--- .... ....|E-5 ..46 ....|A-5 ...6 ....

[Pattern12]
....|..|C-5 6..F ....|F#2 3.FE ....|C#6 3.FC ....
....|..|G#5 7..6 ....|F#5 ..36 ....|--- .... ....
....|.3|A-5 ...E ....|F#2 ..FD ....|A-5 .... ....
....|..|C#6 ...6 ....|F#5 ..36 ....|--- .... ....
....|..|G#5 ...E ....|A-2 ..FE ....|G#5 ...D ....
....|..|A-5 ...6 ....|F#5 ..36 ....|--- .... ....
....|.3|F#5 ...E ....|F#2 ..FD ....|F#5 .... ....
....|..|G#5 ...6 ....|F#5 ..36 ....|--- .... ....
....|..|C-5 5..F ....|E-2 ..FE ....|E-5 ...C ....
....|..|--- .... ....|F#5 ..36 ....|F#5 ...6 ....
....|.3|F#5 7..E ....|E-2 ..FD ....|F#5 ...D ....
....|..|E-5 ...6 ....|F#5 ..36 ....|E-5 ...6 ....
....|..|A-5 ...E ....|C#2 ..FE ....|A-5 ...C ....
....|..|F#5 ...6 ....|F#5 ..36 ....|F#5 ...6 ....
....|.3|G#5 ...E ....|E-2 ..FD ....|G#5 ...D ....
....|..|A-5 ...6 ....|F#5 ..36 ....|A-5 ...6 ....
....|..|C#6 ...E ....|F#2 ..FE ....|C#6 ...C ....
....|..|G#5 ...6 ....|F#5 ..36 ....|--- .... ....
....|.3|F#5 ...E ....|F#2 ..FD ....|F#5 ...D ....
....|..|C#6 ...6 ....|F#5 ..36 ....|--- .... ....
....|..|C-5 6..F ....|A-2 ..FE ....|B-5 ...C ....
....|..|F#5 7..6 ....|F#5 ..36 ....|--- .... ....
....|.3|G#5 ...E ....|F#2 ..FD ....|G#5 ...D ....
....|..|A-5 ...6 ....|F#5 ..36 ....|--- .... ....
....|..|C-5 5..F ....|E-2 ..FE ....|A-5 ...C ....
....|..|--- .... ....|F#5 ..36 ....|--- .... ....
....|.3|G#5 7..E ....|A-2 ..FD ....|G#5 ...D ....
....|..|E-5 ...6 ....|F#5 ..36 ....|A-5 ...6 ....
....|..|A-5 ...E ....|C#2 ..FE ....|A-5 ...C ....
....|..|G#5 ...6 ....|F#5 ..36 ....|G#5 ...6 ....
....|.3|G#5 ...E ....|D-2 ..FD ....|G#5 ...D ....
....|..|A-5 ...6 ....|F#5 ..36 ....|A-5 ...6 ....
....|..|C-5 6..F ....|E-2 ..FE ....|A-5 ...C ....
....|..|G#5 7..6 ....|E-5 ..46 ....|--- .... ....
....|.3|G#5 ...E ....|E-2 ..FD ....|G#5 .... ....
....|..|A-5 ...6 ....|E-5 ..46 ....|--- .... ....
....|..|A-5 ...E ....|A-2 ..FE ....|A-5 ...D ....
....|..|G#5 ...6 ....|E-5 ..46 ....|--- .... ....
....|.3|B-5 ...E ....|C#2 ..FD ....|B-5 .... ....
....|..|A-5 ...6 ....|E-5 ..46 ....|--- .... ....
....|..|C-5 5..F ....|E-2 ..FE ....|E-5 ...C ....
....|..|--- .... ....|E-5 ..46 ....|B-5 ...6 ....
....|.3|F#5 7..E ....|F#2 ..FD ....|F#5 ...D ....
....|..|E-5 ...6 ....|E-5 ..46 ....|E-5 ...6 ....
....|..|A-5 ...E ....|E-2 ..FE ....|A-5 ...C ....
....|..|F#5 ...6 ....|E-5 ..46 ....|F#5 ...6 ....
....|.3|F#5 ...E ....|C#2 ..FD ....|F#5 ...D ....
....|..|A-5 ...6 ....|E-5 ..46 ....|A-5 ...6 ....
....|..|G#5 ...E ....|E-2 ..FE ....|G#5 ...C ....
....|..|F#5 ...6 ....|E-5 ..46 ....|--- .... ....
....|.3|E-5 ...E ....|E-2 ..FD ....|E-5 ...D ....
....|..|G#5 ...6 ....|E-5 ..46 ....|--- .... ....
....|..|C-5 6..F ....|F#2 ..FE ....|F#5 ...C ....
....|..|E-5 7..6 ....|E-5 ..46 ....|--- .... ....
....|.3|B-5 ...E ....|C#2 ..FD ....|B-5 ...D ....
....|..|F#5 ...6 ....|E-5 ..46 ....|--- .... ....
....|..|C-5 5..F ....|E-2 ..FE ....|G#5 ...C ....
....|..|--- .... ....|E-5 ..46 ....|--- .... ....
....|.3|F#5 7..E ....|F#2 ..FD ....|F#5 ...D ....
....|..|G#5 ...6 ....|E-5 ..46 ....|G#5 ...6 ....
....|..|A-5 ...E ....|E-2 ..FE ....|A-5 ...C ....
....|..|F#5 ...6 ....|E-5 ..46 ....|F#5 ...6 ....
....|.3|G#5 ...E ....|C#2 ..FD ....|G#5 ...D ....
....|..|A-5 ...6 ....|E-5 ..46 ....|A-5 ...6 ....
....|..|C-5 6..F ....|D-2 ..FE ....|A-5 ...C ....
....|..|G#5 7..6 ....|D-5 ..46 ....|--- .... ....
....|.3|B-5 ...E ....|D-2 ..FD ....|B-5 .... ....
....|..|A-5 ...6 ....|D-5 ..46 ....|--- .... ....
....|..|F#5 ...E ....|A-2 ..FE ....|F#5 ...D ....
....|..|B-5 ...6 ....|D-5 ..46 ....|--- .... ....
....|.3|G#5 ...E ....|E-2 ..FD ....|G#5 .... ....
....|..|F#5 ...6 ....|D-5 ..46 ....|--- .... ....
....|..|C-5 5..F ....|D-2 ..FE ....|E-5 ...C ....
....|..|--- .... ....|D-5 ..46 ....|G#5 ...6 ....
....|.3|F#5 7..E ....|A-2 ..FD ....|F#5 ...D ....
....|..|E-5 ...6 ....|D-5 ..46 ....|E-5 ...6 ....
....|..|A-5 ...E ....|G#2 ..FE ....|A-5 ...C ....
....|..|F#5 ...6 ....|D-5 ..46 ....|F#5 ...6 ....
....|.3|G#5 ...E ....|E-2 ..FD ....|G#5 ...D ....
....|..|A-5 ...6 ....|D-5 ..46 ....|A-5 ...6 ....
....|..|A-5 ...E ....|D-2 ..FE ....|A-5 ...C ....
....|..|G#5 ...6 ....|D-5 ..46 ....|--- .... ....
....|.3|F#5 ...E ....|D-2 ..FD ....|F#5 ...D ....
....|..|A-5 ...6 ....|D-5 ..46 ....|--- .... ....
....|..|C-5 6..F ....|A-2 ..FE ....|A-5 ...C ....
....|..|F#5 7..6 ....|D-5 ..46 ....|--- .... ....
....|.3|G#5 ...E ....|E-2 ..FD ....|G#5 ...D ....
....|..|A-5 ...6 ....|D-5 ..46 ....|--- .... ....
....|..|C-5 5..F ....|D-2 ..FE ....|E-5 ...C ....
....|..|--- .... ....|D-5 ..46 ....|G#5 ...6 ....
....|.3|G#5 7..E ....|A-2 ..FD ....|G#5 ...D ....
....|..|E-5 ...6 ....|D-5 ..46 ....|E-5 ...6 ....
....|..|A-5 ...E ....|G#2 ..FE ....|A-5 ...C ....
....|..|G#5 ...6 ....|D-5 ..46 ....|G#5 ...6 ....
....|.3|F#5 ...E ....|E-2 ..FD ....|F#5 ...D ....
....|..|A-5 ...6 ....|D-5 ..46 ....|A-5 ...6 ....
....|..|C-5 6..F ....|B-1 ..FE ....|B-5 ...C ....
....|..|F#5 7..6 ....|B-4 ..36 ....|--- .... ....
....|.3|F#5 ...E ....|B-1 ..FD ....|F#5 ...D ....
....|..|A-5 ...6 ....|B-4 ..36 ....|--- .... ....
....|..|A-5 ...E ....|F#2 ..FE ....|A-5 ...C ....
....|..|F#5 ...6 ....|B-4 ..36 ....|--- .... ....
....|.3|G#5 ...E ....|A-1 ..FD ....|G#5 ...D ....
....|..|A-5 ...6 ....|B-4 ..36 ....|--- .... ....
....|..|C-5 5..F ....|F#2 ..FE ....|E-5 ...C ....
....|..|--- .... ....|B-4 ..36 ....|G#5 ...6 ....
....|.3|F#5 7..E ....|A-1 ..FD ....|F#5 ...D ....
....|..|E-5 ...6 ....|B-4 ..36 ....|E-5 ...6 ....
....|..|A-5 ...E ....|B-1 ..FE ....|A-5 ...C ....
....|..|F#5 ...6 ....|B-4 ..36 ....|F#5 ...6 ....
....|.3|G#5 ...E ....|C#2 ..FD ....|G#5 ...D ....
....|..|A-5 ...6 ....|B-4 ..36 ....|A-5 ...6 ....
....|..|C-5 6..F ....|E-2 ..FE ....|C#5 ...C ....
....|..|G#5 7..6 ....|E-5 ..46 ....|--- .... ....
....|.3|E-5 ...E ....|E-2 ..FD ....|E-5 ...D ....
....|..|C#5 ...6 ....|E-5 ..46 ....|--- .... ....
....|..|F#5 ...E ....|F#2 ..FE ....|F#5 ...C ....
....|..|E-5 ...6 ....|E-5 ..46 ....|--- .... ....
....|.3|A-5 ...E ....|C#2 ..FD ....|A-5 ...D ....
....|..|F#5 ...6 ....|E-5 ..46 ....|--- .... ....
....|..|C-5 5..F ....|E-2 ..FE ....|G#5 ...C ....
....|..|--- .... ....|E-5 ..46 ....|A-5 ...6 ....
....|..|C-5 .... ....|F#2 ..FD ....|F#5 ...D ....
....|..|--- .... ....|E-5 ..46 ....|G#5 ...6 ....
....|..|C-5 .... ....|E-2 ..FE ....|A-5 ...C ....
....|..|--- .... ....|E-5 ..46 ....|F#5 ...6 ....
....|..|C-5 .... ....|C#2 ..FD ....|G#5 ...D ....
....|..|--- .... ....|E-5 ..46 ....|A-5 ...6 ....

