[Module]
VortexTrackerII=0
Version=3.6
Title=Rumple-fyke
Author=LaesQ
NoteTable=2
Speed=4
PlayOrder=L4,5,6,7,8,9,12,0,3,13,14,10,11,8,9,12,1,2,15

[Ornament1]
L0

[Ornament2]
L0,12

[Ornament3]
19,L0

[Ornament4]
L0

[Ornament5]
L0

[Ornament6]
L0

[Ornament7]
L0

[Ornament8]
L0

[Ornament9]
L0

[Ornament10]
L0

[Ornament11]
L0

[Ornament12]
L0

[Ornament13]
L0

[Ornament14]
L0

[Ornament15]
L0

[Sample1]
Tne +000_ +00_ D_
Tne +000_ +00_ E_
Tne +000_ +00_ F- L

[Sample2]
TNe +000_ +00_ D_
Tne +000_ +00_ E_
Tne +000_ +00_ F- L

[Sample3]
tne +000_ +00_ 0_ L

[Sample4]
tne +000_ +00_ 0_ L

[Sample5]
tne +000_ +00_ 0_ L

[Sample6]
tne +000_ +00_ 0_ L

[Sample7]
Tne +000_ +00_ F_
Tne +000_ +00_ F_
Tne +000_ +00_ E_
Tne +000_ +00_ D_
Tne +000_ +00_ D_
Tne +000_ +00_ C_
Tne +000_ +00_ C_
Tne +000_ +00_ C_
Tne +000_ +00_ C_
Tne +000_ +00_ B_ L
Tne +000_ +00_ B_
Tne +000_ +00_ B_
Tne +000_ +00_ B_

[Sample8]
TNe +000_ +00_ F_
Tne +000_ +00_ F_
Tne +000_ +00_ E_
Tne +000_ +00_ D_
Tne +000_ +00_ D_
Tne +000_ +00_ C_
Tne +000_ +00_ C_
Tne +000_ +00_ C_
Tne +000_ +00_ C_
Tne +000_ +00_ B_ L
Tne +000_ +00_ B_
Tne +000_ +00_ B_
Tne +000_ +00_ B_

[Sample9]
tne +000_ +00_ 0_ L

[Sample10]
tne +000_ +00_ 0_ L

[Sample11]
TNe +000_ +00_ F_
TnE +000_ +00_ F_
TnE +000_ +00_ F_ L

[Sample12]
tne +000_ +00_ 0_ L

[Sample13]
tne +000_ +00_ 0_ L

[Sample14]
tne +000_ +00_ 0_ L

[Sample15]
tne +000_ +00_ 0_ L

[Sample16]
tne +000_ +00_ 0_ L

[Sample17]
tne +000_ +00_ 0_ L

[Sample18]
tne +000_ +00_ 0_ L

[Sample19]
TNe +0C8_ +07_ F_
Tne +190_ +00_ F_
Tne +258_ +00_ F_
Tne +320_ +00_ F_
tne +3E8_ +00_ F_
tne +000_ +00_ 0_ L

[Sample20]
TNe +0C8_ +07_ F_
Tne +190_ +00_ F_
Tne +258_ +00_ F_
Tne +320_ +00_ F_
tnE +3E8_ +00_ F_ L

[Sample21]
Tne +000_ +00_ F_
Tne +001_ +00_ F_
Tne +000_ +00_ F_
Tne +001_ +00_ F_
Tne +000_ +00_ F_
Tne +000_ +00_ F_
Tne +000_ +00_ F_
Tne +000_ +00_ F_
Tne +000_ +00_ E_
Tne +000_ +00_ E_
Tne +000_ +00_ E_
Tne +000_ +00_ E_
Tne +000_ +00_ D_
Tne +000_ +00_ D_
Tne +000_ +00_ D_
Tne +000_ +00_ D_
Tne +000_ +00_ C_
Tne +000_ +00_ C_
Tne +000_ +00_ C_
Tne +000_ +00_ C_
Tne +000_ +00_ B_
Tne +000_ +00_ B_
Tne +000_ +00_ B_
Tne +000_ +00_ A_
Tne +000_ +00_ A_
Tne +000_ +00_ A_
Tne +000_ +00_ 9_
Tne +000_ +00_ 9_
Tne +000_ +00_ 9_
Tne +000_ +00_ 8_
Tne +000_ +00_ 8_
Tne +000_ +00_ 8_ L

[Sample22]
tnE +000_ +00_ F_ L

[Sample23]
tne +000_ +00_ 0_ L

[Sample24]
tne +000_ +00_ 0_ L

[Sample25]
tne +000_ +00_ 0_ L

[Sample26]
tne +000_ +00_ 0_ L

[Sample27]
tne +000_ +00_ 0_ L

[Sample28]
TNe +032_ +04_ F_
Tne +064_ +00_ F_
TNe +096_ +07_ F_
TNe +0C8_ +07_ F_
TNe +0FA_ +07_ F_
TNe +12C_ +07_ E_
tNe +15E_ +00_ D_
tNe +190_ +00_ C_
tNe +168_ +00_ B_
tNe +190_ +00_ B_
tNe +1B8_ +00_ A_
tNe +1E0_ +00_ A_
tNe +208_ +00_ 9_
tNe +230_ +00_ 8_
tNe +258_ +00_ 8_
tNe +000_ +00_ 7_
tNe +000_ +00_ 6_
tNe +000_ +00_ 5_
tNe +000_ +00_ 5_
TNe +000_ +00_ 4_
TNe +000_ +00_ 3_
TNe +000_ +00_ 2_
TNe +000_ +00_ 2_
TNe +000_ +00_ 1_
TNe +000_ +00_ 1_
TNe +000_ +00_ 0_
TNe +000_ +00_ 0_
TNe +000_ +00_ 0_
TNe +000_ +00_ 0_
TNe +000_ +00_ 0_
TNe +000_ +00_ 0_
TNe +000_ +00_ 0_
tne +000_ +00_ 0_ L

[Sample29]
tne +000_ +00_ 0_ L

[Sample30]
tne +000_ +00_ 0_ L

[Sample31]
tne +000_ +00_ 0_ L

[Pattern0]
..6F|..|E-5 1F3A ....|B-1 8FFF ....|C-4 KAFF ....
....|..|--- .... ....|--- .... ....|--- .... ....
..6F|..|F#4 ...F ....|B-1 .... ....|B-2 BC.. ....
....|..|--- .... ....|--- .... ....|--- .... ....
..6F|..|B-4 .... ....|B-1 .... ....|C-4 SC.. ....
....|..|--- .... ....|--- .... ....|--- .... ....
..6F|..|C#5 .... ....|B-1 .... ....|B-2 BC.. ....
....|..|--- .... ....|--- .... ....|--- .... ....
..6F|..|B-4 ...A ....|B-1 .... ....|B-2 .C.. ....
....|..|--- .... ....|--- .... ....|--- .... ....
..6F|..|F#4 ...F ....|B-1 .... ....|C-4 KC.. ....
....|..|--- .... ....|--- .... ....|--- .... ....
..6F|..|C#5 .... ....|B-1 .... ....|C-4 SC.. ....
....|..|--- .... ....|--- .... ....|--- .... ....
..6F|..|D-5 .... ....|B-1 .... ....|B-2 BC.. ....
....|..|--- .... ....|--- .... ....|--- .... ....
..6F|..|C#5 ...A ....|B-1 .... ....|C-4 KC.. ....
....|..|--- .... ....|--- .... ....|--- .... ....
..6F|..|F#4 ...F ....|B-1 .... ....|B-2 BC.. ....
....|..|--- .... ....|--- .... ....|--- .... ....
..6F|..|D-5 .... ....|B-1 .... ....|C-4 SC.. ....
....|..|--- .... ....|--- .... ....|--- .... ....
..6F|..|E-5 .... ....|B-1 .... ....|B-2 BC.. ....
....|..|--- .... ....|--- .... ....|--- .... ....
..5D|..|D-5 ...A ....|D-2 .... ....|D-3 .C.. ....
....|..|--- .... ....|--- .... ....|--- .... ....
..5D|..|F#4 ...F ....|D-2 .... ....|C-4 KC.. ....
....|..|--- .... ....|--- .... ....|--- .... ....
..5D|..|E-5 .... ....|D-2 .... ....|C-4 SC.. ....
....|..|--- .... ....|--- .... ....|--- .... ....
..8C|..|F#5 .... ....|G-1 .... ....|G-2 BC.. ....
....|..|--- .... ....|--- .... ....|--- .... ....
..8C|..|E-5 ...A ....|G-1 .... ....|C-4 KC.. ....
....|..|--- .... ....|--- .... ....|--- .... ....
..8C|..|F#4 ...F ....|G-1 .... ....|G-2 BC.. ....
....|..|--- .... ....|--- .... ....|--- .... ....
..8C|..|B-4 .... ....|G-1 .... ....|C-4 SC.. ....
....|..|--- .... ....|--- .... ....|--- .... ....
..8C|..|C#5 .... ....|G-1 .... ....|G-2 BC.. ....
....|..|--- .... ....|--- .... ....|--- .... ....
..8C|..|B-4 ...A ....|G-1 .... ....|G-2 .C.. ....
....|..|--- .... ....|--- .... ....|--- .... ....
..8C|..|F#4 ...F ....|G-1 .... ....|C-4 KC.. ....
....|..|--- .... ....|--- .... ....|--- .... ....
..8C|..|C#5 .... ....|G-1 .... ....|C-4 SC.. ....
....|..|--- .... ....|--- .... ....|--- .... ....
..8C|..|D-5 .... ....|G-1 .... ....|G-2 BC.. ....
....|..|--- .... ....|--- .... ....|--- .... ....
..8C|..|C#5 ...A ....|G-1 .... ....|C-4 KC.. ....
....|..|--- .... ....|--- .... ....|--- .... ....
..8C|..|F#4 ...F ....|G-1 .... ....|G-2 BC.. ....
....|..|--- .... ....|--- .... ....|--- .... ....
..8C|..|D-5 .... ....|G-1 .... ....|C-4 SC.. ....
....|..|--- .... ....|--- .... ....|--- .... ....
..8C|..|E-5 .... ....|G-1 .... ....|G-2 BC.. ....
....|..|--- .... ....|--- .... ....|--- .... ....
..8C|..|D-5 ...A ....|G-1 .... ....|G-2 .C.. ....
....|..|--- .... ....|--- .... ....|--- .... ....
..8C|..|F#4 ...F ....|G-1 .... ....|C-4 KC.. ....
....|..|--- .... ....|--- .... ....|--- .... ....
..8C|..|E-5 .... ....|G-1 .... ....|C-4 SC.. ....
....|..|--- .... ....|--- .... ....|--- .... ....
..8C|..|F#5 .... ....|G-1 .... ....|C-4 KC.. ....
....|..|--- .... ....|--- .... ....|--- .... ....
..7C|..|E-5 ...A ....|A-1 .... ....|C-4 .C.. ....
....|..|--- .... ....|--- .... ....|--- .... ....
..7C|..|F#4 ...F ....|A-1 .... ....|A-2 BC.. ....
....|..|--- .... ....|--- .... ....|--- .... ....
..7C|..|B-4 .... ....|A-1 .... ....|C-4 SC.. ....
....|..|--- .... ....|--- .... ....|--- .... ....
..7C|..|C#5 .... ....|A-1 .... ....|A-2 BC.. ....
....|..|--- .... ....|--- .... ....|--- .... ....
..7C|..|B-4 ...A ....|A-1 .... ....|A-2 .C.. ....
....|..|--- .... ....|--- .... ....|--- .... ....
..7C|..|F#4 ...F ....|A-1 .... ....|C-4 KC.. ....
....|..|--- .... ....|--- .... ....|--- .... ....
..7C|..|C#5 .... ....|A-1 .... ....|C-4 SC.. ....
....|..|--- .... ....|--- .... ....|--- .... ....
..7C|..|D-5 .... ....|A-1 .... ....|A-2 BC.. ....
....|..|--- .... ....|--- .... ....|--- .... ....
..7C|..|C#5 ...A ....|A-1 .... ....|C-4 KC.. ....
....|..|--- .... ....|--- .... ....|--- .... ....
..7C|..|F#4 ...F ....|A-1 .... ....|A-2 BC.. ....
....|..|--- .... ....|--- .... ....|--- .... ....
..7C|..|D-5 .... ....|A-1 .... ....|C-4 SC.. ....
....|..|--- .... ....|--- .... ....|--- .... ....
..7C|..|E-5 .... ....|A-1 .... ....|A-2 BC.. ....
....|..|--- .... ....|--- .... ....|--- .... ....
..7C|..|D-5 ...A ....|A-1 .... ....|A-2 .C.. ....
....|..|--- .... ....|--- .... ....|--- .... ....
..BA|..|F#4 ...F ....|D-1 .... ....|C-4 KC.. ....
....|..|--- .... ....|--- .... ....|--- .... ....
..8C|..|E-5 .... ....|G-1 .... ....|C-4 SC.. ....
....|..|--- .... ....|--- .... ....|--- .... ....
..7C|..|F#5 .... ....|A-1 .... ....|A-2 BC.. ....
....|..|--- .... ....|--- .... ....|--- .... ....
..A6|..|E-5 ...A ....|E-1 .... ....|C-4 KC.. ....
....|..|--- .... ....|--- .... ....|--- .... ....
..A6|..|F#4 ...F ....|E-1 .... ....|E-2 BC.. ....
....|..|--- .... ....|--- .... ....|--- .... ....
..A6|..|B-4 .... ....|E-1 .... ....|C-4 SC.. ....
....|..|--- .... ....|--- .... ....|--- .... ....
..A6|..|C#5 .... ....|E-1 .... ....|E-2 BC.. ....
....|..|--- .... ....|--- .... ....|--- .... ....
..A6|..|B-4 ...A ....|E-1 .... ....|E-2 .C.. ....
....|..|--- .... ....|--- .... ....|--- .... ....
..A6|..|F#4 ...F ....|E-1 .... ....|C-4 KC.. ....
....|..|--- .... ....|--- .... ....|--- .... ....
..A6|..|C#5 .... ....|E-1 .... ....|C-4 SC.. ....
....|..|--- .... ....|--- .... ....|--- .... ....
..A6|..|D-5 .... ....|E-1 .... ....|E-2 BC.. ....
....|..|--- .... ....|--- .... ....|--- .... ....
..A6|..|C#5 ...A ....|E-1 .... ....|C-4 KC.. ....
....|..|--- .... ....|--- .... ....|--- .... ....
..A6|..|F#4 ...F ....|E-1 .... ....|E-2 BC.. ....
....|..|--- .... ....|--- .... ....|--- .... ....
..A6|..|D-5 .... ....|E-1 .... ....|C-4 SC.. ....
....|..|--- .... ....|--- .... ....|--- .... ....
..A6|..|E-5 .... ....|E-1 .... ....|E-2 BC.. ....
....|..|--- .... ....|--- .... ....|--- .... ....
..A6|..|D-5 ...A ....|E-1 .... ....|E-2 .C.. ....
....|..|--- .... ....|--- .... ....|--- .... ....
..A6|..|F#4 ...F ....|E-1 .... ....|C-4 KC.. ....
..A6|..|--- .... ....|--- .... ....|C-4 .C.. ....
..A6|..|E-5 .... ....|E-1 .... ....|C-4 SC.. ....
....|..|--- .... ....|--- .... ....|--- .... ....
..A6|..|F#5 .... ....|E-1 .... ....|C-4 KC.. ....
....|..|--- .... ....|--- .... ....|--- .... ....

[Pattern1]
..37|..|E-5 1F3A ....|B-1 8FFF ....|C-4 KCFF ....
....|..|--- .... ....|--- .... ....|--- .... ....
..37|..|F#4 ...F ....|B-1 .... ....|B-2 BC.. ....
....|..|--- .... ....|--- .... ....|--- .... ....
..37|..|B-4 .... ....|B-1 .... ....|C-4 SC.. ....
....|..|--- .... ....|--- .... ....|--- .... ....
..37|..|C#5 .... ....|B-1 .... ....|B-2 BC.. ....
....|..|--- .... ....|--- .... ....|--- .... ....
..37|..|B-4 ...A ....|B-1 .... ....|B-2 .C.. ....
....|..|--- .... ....|--- .... ....|--- .... ....
..37|..|F#4 ...F ....|B-1 .... ....|C-4 KC.. ....
....|..|--- .... ....|--- .... ....|--- .... ....
..37|..|C#5 .... ....|B-1 .... ....|C-4 SC.. ....
....|..|--- .... ....|--- .... ....|--- .... ....
..37|..|D-5 .... ....|B-1 .... ....|B-2 BC.. ....
....|..|--- .... ....|--- .... ....|--- .... ....
..37|..|C#5 ...A ....|B-1 .... ....|C-4 KC.. ....
....|..|--- .... ....|--- .... ....|--- .... ....
..37|..|F#4 ...F ....|B-1 .... ....|B-2 BC.. ....
....|..|--- .... ....|--- .... ....|--- .... ....
..37|..|D-5 .... ....|B-1 .... ....|C-4 SC.. ....
....|..|--- .... ....|--- .... ....|--- .... ....
..37|..|E-5 .... ....|B-1 .... ....|B-2 BC.. ....
....|..|--- .... ....|--- .... ....|--- .... ....
..2F|..|D-5 ...A ....|D-2 .... ....|D-3 .C.. ....
....|..|--- .... ....|--- .... ....|--- .... ....
..2F|..|F#4 ...F ....|D-2 .... ....|C-4 KC.. ....
....|..|--- .... ....|--- .... ....|--- .... ....
..2F|..|E-5 .... ....|D-2 .... ....|C-4 SC.. ....
....|..|--- .... ....|--- .... ....|--- .... ....
..46|..|F#5 .... ....|G-1 .... ....|G-2 BC.. ....
....|..|--- .... ....|--- .... ....|--- .... ....
..46|..|E-5 ...A ....|G-1 .... ....|C-4 KC.. ....
....|..|--- .... ....|--- .... ....|--- .... ....
..46|..|F#4 ...F ....|G-1 .... ....|G-2 BC.. ....
....|..|--- .... ....|--- .... ....|--- .... ....
..46|..|B-4 .... ....|G-1 .... ....|C-4 SC.. ....
....|..|--- .... ....|--- .... ....|--- .... ....
..46|..|C#5 .... ....|G-1 .... ....|G-2 BC.. ....
....|..|--- .... ....|--- .... ....|--- .... ....
..46|..|B-4 ...A ....|G-1 .... ....|G-2 .C.. ....
....|..|--- .... ....|--- .... ....|--- .... ....
..46|..|F#4 ...F ....|G-1 .... ....|C-4 KC.. ....
....|..|--- .... ....|--- .... ....|--- .... ....
..46|..|C#5 .... ....|G-1 .... ....|C-4 SC.. ....
....|..|--- .... ....|--- .... ....|--- .... ....
..46|..|D-5 .... ....|G-1 .... ....|G-2 BC.. ....
....|..|--- .... ....|--- .... ....|--- .... ....
..46|..|C#5 ...A ....|G-1 .... ....|C-4 KC.. ....
....|..|--- .... ....|--- .... ....|--- .... ....
..46|..|F#4 ...F ....|G-1 .... ....|G-2 BC.. ....
....|..|--- .... ....|--- .... ....|--- .... ....
..46|..|D-5 .... ....|G-1 .... ....|C-4 SC.. ....
....|..|--- .... ....|--- .... ....|--- .... ....
..46|..|E-5 .... ....|G-1 .... ....|G-2 BC.. ....
....|..|--- .... ....|--- .... ....|--- .... ....
..46|..|D-5 ...A ....|G-1 .... ....|G-2 .C.. ....
....|..|--- .... ....|--- .... ....|--- .... ....
..46|..|F#4 ...F ....|G-1 .... ....|C-4 KC.. ....
....|..|--- .... ....|--- .... ....|--- .... ....
..46|..|E-5 .... ....|G-1 .... ....|C-4 SC.. ....
....|..|--- .... ....|--- .... ....|--- .... ....
..46|..|F#5 .... ....|G-1 .... ....|C-4 KC.. ....
....|..|--- .... ....|--- .... ....|--- .... ....
..3E|..|E-5 ...A ....|A-1 .... ....|C-4 .C.. ....
....|..|--- .... ....|--- .... ....|--- .... ....
..3E|..|F#4 ...F ....|A-1 .... ....|A-2 BC.. ....
....|..|--- .... ....|--- .... ....|--- .... ....
..3E|..|B-4 .... ....|A-1 .... ....|C-4 SC.. ....
....|..|--- .... ....|--- .... ....|--- .... ....
..3E|..|C#5 .... ....|A-1 .... ....|A-2 BC.. ....
....|..|--- .... ....|--- .... ....|--- .... ....
..3E|..|B-4 ...A ....|A-1 .... ....|A-2 .C.. ....
....|..|--- .... ....|--- .... ....|--- .... ....
..3E|..|F#4 ...F ....|A-1 .... ....|C-4 KC.. ....
....|..|--- .... ....|--- .... ....|--- .... ....
..3E|..|C#5 .... ....|A-1 .... ....|C-4 SC.. ....
....|..|--- .... ....|--- .... ....|--- .... ....
..3E|..|D-5 .... ....|A-1 .... ....|A-2 BC.. ....
....|..|--- .... ....|--- .... ....|--- .... ....
..3E|..|C#5 ...A ....|A-1 .... ....|C-4 KC.. ....
....|..|--- .... ....|--- .... ....|--- .... ....
..3E|..|F#4 ...F ....|A-1 .... ....|A-2 BC.. ....
....|..|--- .... ....|--- .... ....|--- .... ....
..3E|..|D-5 .... ....|A-1 .... ....|C-4 SC.. ....
....|..|--- .... ....|--- .... ....|--- .... ....
..3E|..|E-5 .... ....|A-1 .... ....|A-2 BC.. ....
....|..|--- .... ....|--- .... ....|--- .... ....
..3E|..|D-5 ...A ....|A-1 .... ....|A-2 .C.. ....
....|..|--- .... ....|--- .... ....|--- .... ....
..5D|..|F#4 ...F ....|D-1 .... ....|C-4 KC.. ....
....|..|--- .... ....|--- .... ....|--- .... ....
..46|..|E-5 .... ....|G-1 .... ....|C-4 SC.. ....
....|..|--- .... ....|--- .... ....|--- .... ....
..3E|..|F#5 .... ....|A-1 .... ....|A-2 BC.. ....
....|..|--- .... ....|--- .... ....|--- .... ....
..53|..|E-5 ...A ....|E-1 .... ....|C-4 KC.. ....
....|..|--- .... ....|--- .... ....|--- .... ....
..53|..|F#4 ...F ....|E-1 .... ....|E-2 BC.. ....
....|..|--- .... ....|--- .... ....|--- .... ....
..53|..|B-4 .... ....|E-1 .... ....|C-4 SC.. ....
....|..|--- .... ....|--- .... ....|--- .... ....
..53|..|C#5 .... ....|E-1 .... ....|E-2 BC.. ....
....|..|--- .... ....|--- .... ....|--- .... ....
..53|..|B-4 ...A ....|E-1 .... ....|E-2 .C.. ....
....|..|--- .... ....|--- .... ....|--- .... ....
..53|..|F#4 ...F ....|E-1 .... ....|C-4 KC.. ....
....|..|--- .... ....|--- .... ....|--- .... ....
..53|..|C#5 .... ....|E-1 .... ....|C-4 SC.. ....
....|..|--- .... ....|--- .... ....|--- .... ....
..53|..|D-5 .... ....|E-1 .... ....|E-2 BC.. ....
....|..|--- .... ....|--- .... ....|--- .... ....
..53|..|C#5 ...A ....|E-1 .... ....|C-4 KC.. ....
....|..|--- .... ....|--- .... ....|--- .... ....
..53|..|F#4 ...F ....|E-1 .... ....|E-2 BC.. ....
....|..|--- .... ....|--- .... ....|--- .... ....
..53|..|D-5 .... ....|E-1 .... ....|C-4 SC.. ....
....|..|--- .... ....|--- .... ....|--- .... ....
..53|..|E-5 .... ....|E-1 .... ....|E-2 BC.. ....
....|..|--- .... ....|--- .... ....|--- .... ....
..53|..|D-5 ...A ....|E-1 .... ....|E-2 .C.. ....
....|..|--- .... ....|--- .... ....|--- .... ....
..53|..|F#4 ...F ....|E-1 .... ....|C-4 KC.. ....
....|..|--- .... ....|--- .... ....|C-4 .C.. ....
..53|..|E-5 .... ....|E-1 .... ....|C-4 SC.. ....
....|..|--- .... ....|--- .... ....|--- .... ....
..53|..|F#5 .... ....|E-1 .... ....|C-4 KC.. ....
....|..|--- .... ....|--- .... ....|--- .... ....

[Pattern2]
..37|..|E-5 1F3A ....|B-1 8FFF ....|C-4 KCFF ....
....|..|--- .... ....|--- .... ....|--- .... ....
..37|..|F#4 ...F ....|B-1 .... ....|B-2 BC.. ....
....|..|--- .... ....|--- .... ....|--- .... ....
..37|..|B-4 .... ....|B-1 .... ....|C-4 SC.. ....
....|..|--- .... ....|--- .... ....|--- .... ....
..37|..|C#5 .... ....|B-1 .... ....|B-2 BC.. ....
....|..|--- .... ....|--- .... ....|--- .... ....
..37|..|B-4 ...A ....|B-1 .... ....|B-2 .C.. ....
....|..|--- .... ....|--- .... ....|--- .... ....
..37|..|F#4 ...F ....|B-1 .... ....|C-4 KC.. ....
....|..|--- .... ....|--- .... ....|--- .... ....
..37|..|C#5 .... ....|B-1 .... ....|C-4 SC.. ....
....|..|--- .... ....|--- .... ....|--- .... ....
..37|..|D-5 .... ....|B-1 .... ....|B-2 BC.. ....
....|..|--- .... ....|--- .... ....|--- .... ....
..37|..|C#5 ...A ....|B-1 .... ....|C-4 KC.. ....
....|..|--- .... ....|--- .... ....|--- .... ....
..37|..|F#4 ...F ....|B-1 .... ....|B-2 BC.. ....
....|..|--- .... ....|--- .... ....|--- .... ....
..37|..|D-5 .... ....|B-1 .... ....|C-4 SC.. ....
....|..|--- .... ....|--- .... ....|--- .... ....
..37|..|E-5 .... ....|B-1 .... ....|B-2 BC.. ....
....|..|--- .... ....|--- .... ....|--- .... ....
..2F|..|D-5 ...A ....|D-2 .... ....|D-3 .C.. ....
....|..|--- .... ....|--- .... ....|--- .... ....
..2F|..|F#4 ...F ....|D-2 .... ....|C-4 KC.. ....
....|..|--- .... ....|--- .... ....|--- .... ....
..2F|..|E-5 .... ....|D-2 .... ....|C-4 SC.. ....
....|..|--- .... ....|--- .... ....|--- .... ....
..46|..|F#5 .... ....|G-1 .... ....|G-2 BC.. ....
....|..|--- .... ....|--- .... ....|--- .... ....
..46|..|E-5 ...9 ....|G-1 .... ....|C-4 KC.. ....
....|..|--- .... ....|--- .... ....|--- .... ....
..46|..|F#4 ...E ....|G-1 .... ....|G-2 BC.. ....
....|..|--- .... ....|--- .... ....|--- .... ....
..46|..|B-4 .... ....|G-1 .... ....|C-4 SC.. ....
....|..|--- .... ....|--- .... ....|--- .... ....
..46|..|C#5 .... ....|G-1 .... ....|G-2 BC.. ....
....|..|--- .... ....|--- .... ....|--- .... ....
..46|..|B-4 ...8 ....|G-1 .... ....|G-2 .C.. ....
....|..|--- .... ....|--- .... ....|--- .... ....
..46|..|F#4 ...D ....|G-1 .... ....|C-4 KC.. ....
....|..|--- .... ....|--- .... ....|--- .... ....
..46|..|C#5 .... ....|G-1 .... ....|C-4 SC.. ....
....|..|--- .... ....|--- .... ....|--- .... ....
..46|..|D-5 .... ....|G-1 .... ....|G-2 BC.. ....
....|..|--- .... ....|--- .... ....|--- .... ....
..46|..|C#5 ...7 ....|G-1 .... ....|C-4 KC.. ....
....|..|--- .... ....|--- .... ....|--- .... ....
..46|..|F#4 ...C ....|G-1 .... ....|G-2 BC.. ....
....|..|--- .... ....|--- .... ....|--- .... ....
..46|..|D-5 .... ....|G-1 .... ....|C-4 SC.. ....
....|..|--- .... ....|--- .... ....|--- .... ....
..46|..|E-5 .... ....|G-1 .... ....|G-2 BC.. ....
....|..|--- .... ....|--- .... ....|--- .... ....
..46|..|D-5 ...6 ....|G-1 .... ....|G-2 .C.. ....
....|..|--- .... ....|--- .... ....|--- .... ....
..46|..|F#4 ...B ....|G-1 .... ....|C-4 KC.. ....
....|..|--- .... ....|--- .... ....|--- .... ....
..46|..|E-5 .... ....|G-1 .... ....|C-4 SC.. ....
....|..|--- .... ....|--- .... ....|--- .... ....
..46|..|F#5 .... ....|G-1 .... ....|C-4 KC.. ....
....|..|--- .... ....|--- .... ....|--- .... ....
..3E|..|E-5 ...5 ....|A-1 .... ....|C-4 .C.. ....
....|..|--- .... ....|--- .... ....|--- .... ....
..3E|..|F#4 ...A ....|A-1 .... ....|A-2 BC.. ....
....|..|--- .... ....|--- .... ....|--- .... ....
..3E|..|E-5 L..F ....|A-1 .... ....|C-4 SC.. ....
....|..|--- .... ....|--- .... ....|--- .... ....
..3E|..|--- .... ....|A-1 .... ....|A-2 BC.. ....
....|..|--- .... ....|--- .... ....|--- .... ....
..3E|..|E-5 .... ....|A-1 .... ....|A-2 .C.. ....
....|..|--- .... ....|--- .... ....|--- .... ....
..3E|..|--- .... ....|A-1 .... ....|C-4 KC.. ....
....|..|--- .... ....|--- .... ....|--- .... ....
..3E|..|E-5 .... ....|A-1 .... ....|C-4 SC.. ....
....|..|--- .... ....|--- .... ....|--- .... ....
..3E|..|E-5 .... ....|A-1 .... ....|A-2 BC.. ....
....|..|--- .... ....|--- .... ....|--- .... ....
..3E|..|--- .... ....|A-1 .... ....|C-4 KC.. ....
....|..|--- .... ....|--- .... ....|--- .... ....
..3E|..|--- .... ....|A-1 .... ....|A-2 BC.. ....
....|..|--- .... ....|--- .... ....|--- .... ....
..3E|..|D-5 .... ....|A-1 .... ....|C-4 SC.. ....
....|..|--- .... ....|--- .... ....|--- .... ....
..3E|..|E-5 ..F. 31.F|A-1 .... ....|A-2 BC.. ....
....|..|--- .... ....|--- .... ....|--- .... ....
..3E|..|--- .... ....|A-1 .... ....|A-2 .C.. ....
....|..|--- .... ....|--- .... ....|--- .... ....
..5D|..|--- .... ....|D-1 .... ....|C-4 KC.. ....
....|..|--- .... ....|--- .... ....|--- .... ....
..46|..|F#5 ..3. ....|G-1 .... ....|C-4 SC.. ....
....|..|--- .... ....|--- .... ....|--- .... ....
..3E|..|E-5 ..F. 31.A|A-1 .... ....|A-2 BC.. ....
....|..|--- .... ....|--- .... ....|--- .... ....
..53|..|--- .... ....|E-1 .... ....|C-4 KC.. ....
....|..|--- .... ....|--- .... ....|--- .... ....
..53|..|D-5 ..3. ....|E-1 .... ....|E-2 BC.. ....
....|..|--- .... ....|--- .... ....|--- .... ....
..53|..|B-4 ..F. 31.A|E-1 .... ....|C-4 SC.. ....
....|..|--- .... ....|--- .... ....|--- .... ....
..53|..|--- .... ....|E-1 .... ....|E-2 BC.. ....
....|..|--- .... ....|--- .... ....|--- .... ....
..53|..|--- .... ....|E-1 .... ....|E-2 .C.. ....
....|..|--- .... ....|--- .... ....|--- .... ....
..53|..|--- .... ....|E-1 .... ....|C-4 KC.. ....
....|..|--- .... ....|--- .... ....|--- .... ....
..53|..|C#5 1.3A ....|E-1 .... ....|C-4 SC.. ....
....|..|--- .... ....|--- .... ....|--- .... ....
..53|..|D-5 ...C ....|E-1 .... ....|E-2 BC.. ....
....|..|--- .... ....|--- .... ....|--- .... ....
..53|..|C#5 ...A ....|E-1 .... ....|C-4 KC.. ....
....|..|--- .... ....|--- .... ....|--- .... ....
..53|..|F#4 ...F ....|E-1 .... ....|E-2 BC.. ....
....|..|--- .... ....|--- .... ....|--- .... ....
..53|..|D-5 .... ....|E-1 .... ....|C-4 SC.. ....
....|..|--- .... ....|--- .... ....|--- .... ....
..53|..|E-5 .... ....|E-1 .... ....|E-2 BC.. ....
....|..|--- .... ....|--- .... ....|--- .... ....
..53|..|D-5 ...A ....|E-1 .... ....|E-2 .C.. ....
....|..|--- .... ....|--- .... ....|--- .... ....
..53|..|F#4 ...F ....|E-1 .... ....|C-4 KC.. ....
....|..|--- .... ....|--- .... ....|C-4 .C.. ....
..53|..|E-5 .... ....|E-1 .... ....|C-4 SC.. ....
....|..|--- .... ....|--- .... ....|--- .... ....
..53|..|F#5 .... ....|E-1 .... ....|C-4 KC.. ....
....|..|--- .... ....|--- .... ....|--- .... ....

[Pattern3]
..6F|..|E-5 1F3A ....|B-1 8FFF ....|C-4 KAFF ....
....|..|--- .... ....|--- .... ....|--- .... ....
..6F|..|F#4 ...F ....|B-1 .... ....|B-2 BC.. ....
....|..|--- .... ....|--- .... ....|--- .... ....
..6F|..|B-4 .... ....|B-1 .... ....|C-4 SC.. ....
....|..|--- .... ....|--- .... ....|--- .... ....
..6F|..|C#5 .... ....|B-1 .... ....|B-2 BC.. ....
....|..|--- .... ....|--- .... ....|--- .... ....
..6F|..|B-4 ...A ....|B-1 .... ....|B-2 .C.. ....
....|..|--- .... ....|--- .... ....|--- .... ....
..6F|..|F#4 ...F ....|B-1 .... ....|C-4 KC.. ....
....|..|--- .... ....|--- .... ....|--- .... ....
..6F|..|C#5 .... ....|B-1 .... ....|C-4 SC.. ....
....|..|--- .... ....|--- .... ....|--- .... ....
..6F|..|D-5 .... ....|B-1 .... ....|B-2 BC.. ....
....|..|--- .... ....|--- .... ....|--- .... ....
..6F|..|C#5 ...A ....|B-1 .... ....|C-4 KC.. ....
....|..|--- .... ....|--- .... ....|--- .... ....
..6F|..|F#4 ...F ....|B-1 .... ....|B-2 BC.. ....
....|..|--- .... ....|--- .... ....|--- .... ....
..6F|..|D-5 .... ....|B-1 .... ....|C-4 SC.. ....
....|..|--- .... ....|--- .... ....|--- .... ....
..6F|..|E-5 .... ....|B-1 .... ....|B-2 BC.. ....
....|..|--- .... ....|--- .... ....|--- .... ....
..5D|..|D-5 ...A ....|D-2 .... ....|D-3 .C.. ....
....|..|--- .... ....|--- .... ....|--- .... ....
..5D|..|F#4 ...F ....|D-2 .... ....|C-4 KC.. ....
....|..|--- .... ....|--- .... ....|--- .... ....
..5D|..|E-5 .... ....|D-2 .... ....|C-4 SC.. ....
....|..|--- .... ....|--- .... ....|--- .... ....
..8C|..|F#5 .... ....|G-1 .... ....|G-2 BC.. ....
....|..|--- .... ....|--- .... ....|--- .... ....
..8C|..|E-5 ...9 ....|G-1 .... ....|C-4 KC.. ....
....|..|--- .... ....|--- .... ....|--- .... ....
..8C|..|F#4 ...E ....|G-1 .... ....|G-2 BC.. ....
....|..|--- .... ....|--- .... ....|--- .... ....
..8C|..|B-4 .... ....|G-1 .... ....|C-4 SC.. ....
....|..|--- .... ....|--- .... ....|--- .... ....
..8C|..|C#5 .... ....|G-1 .... ....|G-2 BC.. ....
....|..|--- .... ....|--- .... ....|--- .... ....
..8C|..|B-4 ...8 ....|G-1 .... ....|G-2 .C.. ....
....|..|--- .... ....|--- .... ....|--- .... ....
..8C|..|F#4 ...D ....|G-1 .... ....|C-4 KC.. ....
....|..|--- .... ....|--- .... ....|--- .... ....
..8C|..|C#5 .... ....|G-1 .... ....|C-4 SC.. ....
....|..|--- .... ....|--- .... ....|--- .... ....
..8C|..|D-5 .... ....|G-1 .... ....|G-2 BC.. ....
....|..|--- .... ....|--- .... ....|--- .... ....
..8C|..|C#5 ...7 ....|G-1 .... ....|C-4 KC.. ....
....|..|--- .... ....|--- .... ....|--- .... ....
..8C|..|F#4 ...C ....|G-1 .... ....|G-2 BC.. ....
....|..|--- .... ....|--- .... ....|--- .... ....
..8C|..|D-5 .... ....|G-1 .... ....|C-4 SC.. ....
....|..|--- .... ....|--- .... ....|--- .... ....
..8C|..|E-5 .... ....|G-1 .... ....|G-2 BC.. ....
....|..|--- .... ....|--- .... ....|--- .... ....
..8C|..|D-5 ...6 ....|G-1 .... ....|G-2 .C.. ....
....|..|--- .... ....|--- .... ....|--- .... ....
..8C|..|F#4 ...B ....|G-1 .... ....|C-4 KC.. ....
....|..|--- .... ....|--- .... ....|--- .... ....
..8C|..|E-5 .... ....|G-1 .... ....|C-4 SC.. ....
....|..|--- .... ....|--- .... ....|--- .... ....
..8C|..|F#5 .... ....|G-1 .... ....|C-4 KC.. ....
....|..|--- .... ....|--- .... ....|--- .... ....
..7C|..|E-5 ...5 ....|A-1 .... ....|C-4 .C.. ....
....|..|--- .... ....|--- .... ....|--- .... ....
..7C|..|F#4 ...A ....|A-1 .... ....|A-2 BC.. ....
....|..|--- .... ....|--- .... ....|--- .... ....
..7C|..|E-5 L..F ....|A-1 .... ....|C-4 SC.. ....
....|..|--- .... ....|--- .... ....|--- .... ....
..7C|..|--- .... ....|A-1 .... ....|A-2 BC.. ....
....|..|--- .... ....|--- .... ....|--- .... ....
..7C|..|E-5 .... ....|A-1 .... ....|A-2 .C.. ....
....|..|--- .... ....|--- .... ....|--- .... ....
..7C|..|--- .... ....|A-1 .... ....|C-4 KC.. ....
....|..|--- .... ....|--- .... ....|--- .... ....
..7C|..|E-5 .... ....|A-1 .... ....|C-4 SC.. ....
....|..|--- .... ....|--- .... ....|--- .... ....
..7C|..|E-5 .... ....|A-1 .... ....|A-2 BC.. ....
....|..|--- .... ....|--- .... ....|--- .... ....
..7C|..|--- .... ....|A-1 .... ....|C-4 KC.. ....
....|..|--- .... ....|--- .... ....|--- .... ....
..7C|..|--- .... ....|A-1 .... ....|A-2 BC.. ....
....|..|--- .... ....|--- .... ....|--- .... ....
..7C|..|D-5 .... ....|A-1 .... ....|C-4 SC.. ....
....|..|--- .... ....|--- .... ....|--- .... ....
..7C|..|E-5 ..F. 31.F|A-1 .... ....|A-2 BC.. ....
....|..|--- .... ....|--- .... ....|--- .... ....
..7C|..|--- .... ....|A-1 .... ....|A-2 .C.. ....
....|..|--- .... ....|--- .... ....|--- .... ....
..BA|..|--- .... ....|D-1 .... ....|C-4 KC.. ....
....|..|--- .... ....|--- .... ....|--- .... ....
..8C|..|F#5 ..3. ....|G-1 .... ....|C-4 SC.. ....
....|..|--- .... ....|--- .... ....|--- .... ....
..7C|..|E-5 ..F. 31.A|A-1 .... ....|A-2 BC.. ....
....|..|--- .... ....|--- .... ....|--- .... ....
..A6|..|--- .... ....|E-1 .... ....|C-4 KC.. ....
....|..|--- .... ....|--- .... ....|--- .... ....
..A6|..|D-5 ..3. ....|E-1 .... ....|E-2 BC.. ....
....|..|--- .... ....|--- .... ....|--- .... ....
..A6|..|B-4 ..F. 31.A|E-1 .... ....|C-4 SC.. ....
....|..|--- .... ....|--- .... ....|--- .... ....
..A6|..|--- .... ....|E-1 .... ....|E-2 BC.. ....
....|..|--- .... ....|--- .... ....|--- .... ....
..A6|..|--- .... ....|E-1 .... ....|E-2 .C.. ....
....|..|--- .... ....|--- .... ....|--- .... ....
..A6|..|--- .... ....|E-1 .... ....|C-4 KC.. ....
....|..|--- .... ....|--- .... ....|--- .... ....
..A6|..|C#5 1.3A ....|E-1 .... ....|C-4 SC.. ....
....|..|--- .... ....|--- .... ....|--- .... ....
..A6|..|D-5 ...C ....|E-1 .... ....|E-2 BC.. ....
....|..|--- .... ....|--- .... ....|--- .... ....
..A6|..|C#5 ...A ....|E-1 .... ....|C-4 KC.. ....
....|..|--- .... ....|--- .... ....|--- .... ....
..A6|..|F#4 ...F ....|E-1 .... ....|E-2 BC.. ....
....|..|--- .... ....|--- .... ....|--- .... ....
..A6|..|D-5 .... ....|E-1 .... ....|C-4 SC.. ....
....|..|--- .... ....|--- .... ....|--- .... ....
..A6|..|E-5 .... ....|E-1 .... ....|E-2 BC.. ....
....|..|--- .... ....|--- .... ....|--- .... ....
..A6|..|D-5 ...A ....|E-1 .... ....|E-2 .C.. ....
....|..|--- .... ....|--- .... ....|--- .... ....
..A6|..|F#4 ...F ....|E-1 .... ....|C-4 KC.. ....
..A6|..|--- .... ....|--- .... ....|C-4 .C.. ....
..A6|..|E-5 .... ....|E-1 .... ....|C-4 SC.. ....
....|..|--- .... ....|--- .... ....|--- .... ....
..A6|..|F#5 .... ....|E-1 .... ....|C-4 KC.. ....
....|..|--- .... ....|--- .... ....|--- .... ....

[Pattern4]
..6F|..|R-- .... ....|B-1 7FFF ....|C-4 MCFF ....
....|..|--- .... ....|--- .... ....|--- .... ....
....|..|--- .... ....|--- .... ....|--- .... ....
....|..|--- .... ....|--- .... ....|--- .... ....
....|..|--- .... ....|--- .... ....|--- .... ....
....|..|--- .... ....|--- .... ....|--- .... ....
....|..|--- .... ....|--- .... ....|--- .... ....
....|..|--- .... ....|--- .... ....|--- .... ....
....|..|F#4 L.3F ....|--- .... ....|--- .... ....
....|..|--- .... ....|--- .... ....|--- .... ....
....|..|--- .... ....|--- .... ....|--- .... ....
....|..|--- .... ....|--- .... ....|--- .... ....
....|..|F#4 .... ....|--- .... ....|--- .... ....
....|..|--- .... ....|--- .... ....|--- .... ....
....|..|F#4 .... ....|--- .... ....|--- .... ....
....|..|--- .... ....|--- .... ....|--- .... ....
....|..|--- .... ....|--- .... ....|--- .... ....
....|..|--- .... ....|--- .... ....|--- .... ....
....|..|--- .... 11.1|--- .... ....|--- .... ....
....|..|--- .... ....|--- .... ....|--- .... ....
....|..|D-4 .... ....|--- .... ....|--- .... ....
....|..|--- .... ....|--- .... ....|--- .... ....
....|..|--- .... ....|--- .... ....|--- .... ....
....|..|--- .... ....|--- .... ....|--- .... ....
....|..|--- .... ....|--- .... ....|--- .... ....
....|..|--- .... ....|--- .... ....|--- .... ....
....|..|--- .... ....|--- .... ....|--- .... ....
....|..|--- .... ....|--- .... ....|--- .... ....
....|..|--- .... ....|--- .... ....|--- .... ....
....|..|--- .... ....|--- .... ....|--- .... ....
....|..|--- .... ....|--- .... ....|--- .... ....
....|..|--- .... ....|--- .... ....|--- .... ....
..8C|..|--- ...D ....|G-1 .... ....|G-4 .C.. ....
....|..|--- ...A ....|--- .... ....|--- .... ....
....|..|--- ...7 ....|--- .... ....|--- .... ....
....|..|R-- .... ....|--- .... ....|--- .... ....
....|..|--- .... ....|--- .... ....|--- .... ....
....|..|--- .... ....|--- .... ....|--- .... ....
....|..|--- .... ....|--- .... ....|--- .... ....
....|..|--- .... ....|--- .... ....|--- .... ....
....|..|G-4 ...F ....|--- .... ....|--- .... ....
....|..|--- .... ....|--- .... ....|--- .... ....
....|..|--- .... ....|--- .... ....|--- .... ....
....|..|--- .... ....|--- .... ....|--- .... ....
....|..|G-4 .... ....|--- .... ....|--- .... ....
....|..|--- .... ....|--- .... ....|--- .... ....
....|..|G-4 .... ....|--- .... ....|--- .... ....
....|..|--- .... ....|--- .... ....|--- .... ....
....|..|--- .... ....|--- .... ....|--- .... ....
....|..|--- .... ....|--- .... ....|--- .... ....
....|..|--- .... 11.1|--- .... ....|--- .... ....
....|..|--- .... ....|--- .... ....|--- .... ....
....|..|E-4 .... ....|--- .... ....|--- .... ....
....|..|--- .... ....|--- .... ....|--- .... ....
....|..|--- .... ....|--- .... ....|--- .... ....
....|..|--- .... ....|--- .... ....|--- .... ....
....|..|--- .... ....|--- .... ....|--- .... ....
....|..|--- .... ....|--- .... ....|--- .... ....
....|..|--- .... ....|--- .... ....|--- .... ....
....|..|--- .... ....|--- .... ....|--- .... ....
....|..|--- .... ....|--- .... ....|--- .... ....
....|..|--- .... ....|--- .... ....|--- .... ....
....|..|--- .... ....|--- .... ....|--- .... ....
....|..|--- .... ....|--- .... ....|--- .... ....
..7C|..|--- ...D ....|A-1 .... ....|A-4 .C.. ....
....|..|--- ...A ....|--- .... ....|--- .... ....
....|..|--- ...7 ....|--- .... ....|--- .... ....
....|..|R-- .... ....|--- .... ....|--- .... ....
....|..|--- .... ....|--- .... ....|--- .... ....
....|..|--- .... ....|--- .... ....|--- .... ....
....|..|--- .... ....|--- .... ....|--- .... ....
....|..|--- .... ....|--- .... ....|--- .... ....
....|..|E-4 ...F ....|--- .... ....|--- .... ....
....|..|--- .... ....|--- .... ....|--- .... ....
....|..|--- .... ....|--- .... ....|--- .... ....
....|..|--- .... ....|--- .... ....|--- .... ....
....|..|E-4 .... ....|--- .... ....|--- .... ....
....|..|--- .... ....|--- .... ....|--- .... ....
....|..|E-4 .... ....|--- .... ....|--- .... ....
....|..|--- .... ....|--- .... ....|--- .... ....
....|..|--- .... ....|--- .... ....|--- .... ....
....|..|--- .... ....|--- .... ....|--- .... ....
....|..|--- .... ....|--- .... ....|--- .... ....
....|..|--- .... ....|--- .... ....|--- .... ....
....|..|D-4 .... ....|--- .... ....|--- .... ....
....|..|--- .... 21.1|--- .... ....|--- .... ....
....|..|E-4 .... 31.F|--- .... ....|--- .... ....
....|..|--- .... ....|--- .... ....|--- .... ....
....|..|--- .... ....|--- .... ....|--- .... ....
....|..|--- .... ....|--- .... ....|--- .... ....
....|..|--- .... ....|--- .... ....|--- .... ....
....|..|--- .... ....|--- .... ....|--- .... ....
....|..|F#4 .... ....|--- .... ....|--- .... ....
....|..|--- .... ....|--- .... ....|--- .... ....
....|..|--- .... ....|--- .... ....|--- .... ....
....|..|--- .... ....|--- .... ....|--- .... ....
..A6|..|E-4 .... ....|E-1 .... ....|E-4 .C.. ....
....|..|--- .... ....|--- .... ....|--- .... ....
....|..|D-4 ..F. 31.A|--- .... ....|--- .... ....
....|..|--- .... ....|--- .... ....|--- .... ....
....|..|B-3 .... 31.A|--- .... ....|--- .... ....
....|..|--- .... ....|--- .... ....|--- .... ....
....|..|--- .... ....|--- .... ....|--- .... ....
....|..|--- .... ....|--- .... ....|--- .... ....
....|..|--- .... ....|--- .... ....|--- .... ....
....|..|--- .... ....|--- .... ....|--- .... ....
....|..|--- .... ....|--- .... ....|--- .... ....
....|..|--- .... ....|--- .... ....|--- .... ....
....|..|--- .... ....|--- .... ....|--- .... ....
....|..|--- .... ....|--- .... ....|--- .... ....
....|..|--- .... ....|--- .... ....|--- .... ....
....|..|--- .... ....|--- .... ....|--- .... ....
....|..|--- .... ....|--- .... ....|--- .... ....
....|..|--- .... ....|--- .... ....|--- .... ....
....|..|--- .... ....|--- .... ....|--- .... ....
....|..|--- ...D ....|--- .... ....|--- .... ....
....|..|--- .... ....|--- .... ....|--- .... ....
....|..|--- ...B ....|--- .... ....|--- .... ....
....|..|--- .... ....|--- .... ....|--- .... ....
....|..|--- ...A ....|--- .... ....|--- .... ....
....|..|--- .... ....|--- .... ....|--- .... ....
....|..|--- ...9 ....|--- .... ....|--- .... ....
....|..|--- .... ....|--- .... ....|--- .... ....
....|..|--- ...7 ....|--- .... ....|--- .... ....
....|..|--- .... ....|--- .... ....|--- .... ....
....|..|--- ...6 ....|--- .... ....|--- .... ....
....|..|R-- .... ....|--- .... ....|--- .... ....
....|..|--- .... ....|--- .... ....|--- .... ....

[Pattern5]
..6F|..|--- .... ....|B-4 1F3F ....|C-4 MCFF ....
....|..|--- .... ....|--- .... ....|--- .... ....
....|..|--- .... ....|B-1 ..F. ....|--- .... ....
....|..|--- .... ....|B-4 ..3A ....|--- .... ....
....|..|--- .... ....|F#5 ...F ....|--- .... ....
....|..|--- .... ....|--- .... ....|--- .... ....
....|..|--- .... ....|B-1 ..F. ....|--- .... ....
....|..|--- .... ....|F#5 ..3A ....|--- .... ....
....|..|F#4 L.3F ....|D-5 ...F ....|--- .... ....
....|..|--- .... ....|--- .... ....|--- .... ....
....|..|--- .... ....|B-1 ..F. ....|--- .... ....
....|..|--- .... ....|D-5 ..3A ....|--- .... ....
....|..|F#4 .... ....|C#5 ...F ....|--- .... ....
....|..|--- .... ....|--- .... ....|--- .... ....
....|..|F#4 .... ....|B-1 ..F. ....|--- .... ....
....|..|--- .... ....|C#5 ..3A ....|--- .... ....
....|..|--- .... ....|B-4 ...F ....|--- .... ....
....|..|--- .... ....|--- .... ....|--- .... ....
....|..|--- .... 11.1|B-1 ..F. ....|--- .... ....
....|..|--- .... ....|B-4 ..3A ....|--- .... ....
....|..|D-4 .... ....|F#5 ...F ....|--- .... ....
....|..|--- .... ....|--- .... ....|--- .... ....
....|..|--- .... ....|B-1 ..F. ....|--- .... ....
....|..|--- .... ....|F#5 ..3A ....|--- .... ....
....|..|--- .... ....|D-5 ...F ....|--- .... ....
....|..|--- .... ....|--- .... ....|--- .... ....
....|..|--- .... ....|B-1 ..F. ....|--- .... ....
....|..|--- .... ....|D-5 ..3A ....|--- .... ....
....|..|--- .... ....|C#5 ...F ....|--- .... ....
....|..|--- .... ....|--- .... ....|--- .... ....
....|..|--- .... ....|B-1 ..F. ....|--- .... ....
....|..|--- .... ....|C#5 ..3A ....|--- .... ....
..8C|..|--- ...D ....|B-4 ...F ....|G-4 .C.. ....
....|..|--- ...A ....|--- .... ....|--- .... ....
....|..|--- ...7 ....|G-1 ..F. ....|--- .... ....
....|..|R-- .... ....|B-4 ..3A ....|--- .... ....
....|..|--- .... ....|F#5 ...F ....|--- .... ....
....|..|--- .... ....|--- .... ....|--- .... ....
....|..|--- .... ....|G-1 ..F. ....|--- .... ....
....|..|--- .... ....|F#5 ..3A ....|--- .... ....
....|..|G-4 ...F ....|D-5 ...F ....|--- .... ....
....|..|--- .... ....|--- .... ....|--- .... ....
....|..|--- .... ....|G-1 ..F. ....|--- .... ....
....|..|--- .... ....|D-5 ..3A ....|--- .... ....
....|..|G-4 .... ....|C#5 ...F ....|--- .... ....
....|..|--- .... ....|--- .... ....|--- .... ....
....|..|G-4 .... ....|G-1 ..F. ....|--- .... ....
....|..|--- .... ....|C#5 ..3A ....|--- .... ....
....|..|--- .... ....|B-4 ...F ....|--- .... ....
....|..|--- .... ....|--- .... ....|--- .... ....
....|..|--- .... 11.1|G-1 ..F. ....|--- .... ....
....|..|--- .... ....|B-4 ..3A ....|--- .... ....
....|..|E-4 .... ....|F#5 ...F ....|--- .... ....
....|..|--- .... ....|--- .... ....|--- .... ....
....|..|--- .... ....|G-1 ..F. ....|--- .... ....
....|..|--- .... ....|F#5 ..3A ....|--- .... ....
....|..|--- .... ....|D-5 ...F ....|--- .... ....
....|..|--- .... ....|--- .... ....|--- .... ....
....|..|--- .... ....|G-1 ..F. ....|--- .... ....
....|..|--- .... ....|D-5 ..3A ....|--- .... ....
....|..|--- .... ....|C#5 ...F ....|--- .... ....
....|..|--- .... ....|--- .... ....|--- .... ....
....|..|--- .... ....|G-1 ..F. ....|--- .... ....
....|..|--- .... ....|C#5 ..3A ....|--- .... ....
..7C|..|--- ...D ....|B-4 ...F ....|A-4 .C.. ....
....|..|--- ...A ....|--- .... ....|--- .... ....
....|..|--- ...7 ....|A-1 ..F. ....|--- .... ....
....|..|R-- .... ....|B-4 ..3A ....|--- .... ....
....|..|--- .... ....|F#5 ...F ....|--- .... ....
....|..|--- .... ....|--- .... ....|--- .... ....
....|..|--- .... ....|A-1 ..F. ....|--- .... ....
....|..|--- .... ....|F#5 ..3A ....|--- .... ....
....|..|E-4 ...F ....|D-5 ...F ....|--- .... ....
....|..|--- .... ....|--- .... ....|--- .... ....
....|..|--- .... ....|A-1 ..F. ....|--- .... ....
....|..|--- .... ....|D-5 ..3A ....|--- .... ....
....|..|E-4 .... ....|C#5 ...F ....|--- .... ....
....|..|--- .... ....|--- .... ....|--- .... ....
....|..|E-4 .... ....|A-1 ..F. ....|--- .... ....
....|..|--- .... ....|C#5 ..3A ....|--- .... ....
....|..|--- .... ....|B-4 ...F ....|--- .... ....
....|..|--- .... ....|--- .... ....|--- .... ....
....|..|--- .... ....|A-1 ..F. ....|--- .... ....
....|..|--- .... ....|B-4 ..3A ....|--- .... ....
....|..|D-4 .... ....|F#5 ...F ....|--- .... ....
....|..|--- .... 21.1|--- .... ....|--- .... ....
....|..|E-4 .... 31.F|A-1 ..F. ....|--- .... ....
....|..|--- .... ....|F#5 ..3A ....|--- .... ....
....|..|--- .... ....|D-5 ...F ....|--- .... ....
....|..|--- .... ....|--- .... ....|--- .... ....
....|..|--- .... ....|A-1 ..F. ....|--- .... ....
....|..|--- .... ....|D-5 ..3A ....|--- .... ....
....|..|F#4 .... ....|C#5 ...F ....|--- .... ....
....|..|--- .... ....|--- .... ....|--- .... ....
....|..|--- .... ....|A-1 ..F. ....|--- .... ....
....|..|--- .... ....|C#5 ..3A ....|--- .... ....
..A6|..|E-4 ..F. 31.A|B-4 ...F ....|E-4 .C.. ....
....|..|--- .... ....|--- .... ....|--- .... ....
....|..|--- .... ....|E-1 ..F. ....|--- .... ....
....|..|--- .... ....|B-4 ..3A ....|--- .... ....
....|..|F#4 ..3. 31.A|F#5 ...F ....|--- .... ....
....|..|--- .... ....|--- .... ....|--- .... ....
....|..|--- .... ....|E-1 ..F. ....|--- .... ....
....|..|--- .... ....|F#5 ..3A ....|--- .... ....
....|..|--- .... ....|D-5 ...F ....|--- .... ....
....|..|--- .... ....|--- .... ....|--- .... ....
....|..|--- .... ....|E-1 ..F. ....|--- .... ....
....|..|--- .... ....|D-5 ..3A ....|--- .... ....
....|..|--- .... ....|C#5 ...F ....|--- .... ....
....|..|--- .... ....|--- .... ....|--- .... ....
....|..|--- .... ....|E-1 ..F. ....|--- .... ....
....|..|--- .... ....|C#5 ..3A ....|--- .... ....
....|..|--- .... ....|B-4 ...F ....|--- .... ....
....|..|--- .... ....|--- .... ....|--- .... ....
....|..|--- .... ....|E-1 ..F. ....|--- .... ....
....|..|--- ...D ....|B-4 ..3A ....|--- .... ....
....|..|--- .... ....|F#5 ...F ....|--- .... ....
....|..|--- ...B ....|--- .... ....|--- .... ....
....|..|--- .... ....|E-1 ..F. ....|--- .... ....
....|..|--- ...A ....|F#5 ..3A ....|--- .... ....
....|..|--- .... ....|D-5 ...F ....|--- .... ....
....|..|--- ...9 ....|--- .... ....|--- .... ....
....|..|--- .... ....|E-1 ..F. ....|--- .... ....
....|..|--- ...7 ....|D-5 ..3A ....|--- .... ....
....|..|--- .... ....|C#5 ...F ....|--- .... ....
....|..|--- ...6 ....|--- .... ....|--- .... ....
....|..|R-- .... ....|E-1 ..F. ....|--- .... ....
....|..|--- .... ....|C#5 ..3A ....|--- .... ....

[Pattern6]
..6F|..|--- .... ....|B-4 1F3F ....|C-4 KCFF ....
....|..|--- .... ....|--- .... ....|--- .... ....
....|..|--- .... ....|B-1 ..F. ....|--- .... ....
....|..|--- .... ....|B-4 ..3A ....|--- .... ....
..6F|..|B-4 L.3F ....|F#5 ...F ....|B-2 BC.. ....
....|..|--- .... ....|--- .... ....|--- .... ....
..6F|..|--- .... ....|B-1 ..F. ....|C-4 KC.. ....
....|..|--- .... ....|F#5 ..3A ....|--- .... ....
....|..|B-4 .... ....|D-5 ...F ....|C-4 S... ....
....|..|--- .... ....|--- .... ....|--- .... ....
....|..|--- .... ....|B-1 ..F. ....|--- .... ....
....|..|--- .... ....|D-5 ..3A ....|--- .... ....
..6F|..|--- .... ....|C#5 ...F ....|C-4 KC.. ....
....|..|--- .... ....|--- .... ....|--- .... ....
....|..|A-4 .... ....|B-1 ..F. ....|--- .... ....
....|..|--- .... ....|C#5 ..3A ....|--- .... ....
..6F|..|B-4 .... ....|B-4 ...F ....|C-4 .C.. ....
....|..|--- .... ....|--- .... ....|--- .... ....
....|..|D-5 ..F. 31.A|B-1 ..F. ....|--- .... ....
....|..|--- .... ....|B-4 ..3A ....|--- .... ....
..6F|..|--- .... ....|F#5 ...F ....|B-2 BC.. ....
....|..|--- .... ....|--- .... ....|--- .... ....
....|..|--- .... ....|B-1 ..F. ....|--- .... ....
....|..|--- .... ....|F#5 ..3A ....|--- .... ....
....|..|R-- .... ....|D-5 ...F ....|C-4 S... ....
....|..|--- .... ....|--- .... ....|--- .... ....
....|..|--- .... ....|B-1 ..F. ....|--- .... ....
....|..|--- .... ....|D-5 ..3A ....|--- .... ....
..6F|..|--- .... ....|C#5 ...F ....|B-2 BC.. ....
....|..|--- .... ....|--- .... ....|--- .... ....
....|..|--- .... ....|B-1 ..F. ....|--- .... ....
....|..|--- .... ....|C#5 ..3A ....|--- .... ....
..6F|..|--- .... ....|B-4 ...F ....|C-4 KCF. ....
....|..|--- .... ....|--- .... ....|--- .... ....
....|..|A-4 ..3. ....|B-1 ..F. ....|--- .... ....
....|..|--- .... ....|B-4 ..3A ....|--- .... ....
..6F|..|B-4 .... ....|F#5 ...F ....|B-2 BC.. ....
....|..|--- .... ....|--- .... ....|--- .... ....
..6F|..|--- .... ....|B-1 ..F. ....|C-4 KC.. ....
....|..|--- .... ....|F#5 ..3A ....|--- .... ....
....|..|B-4 .... ....|D-5 ...F ....|C-4 S... ....
....|..|--- .... ....|--- .... ....|--- .... ....
....|..|--- .... ....|B-1 ..F. ....|--- .... ....
....|..|--- .... ....|D-5 ..3A ....|--- .... ....
..6F|..|--- .... ....|C#5 ...F ....|C-4 KC.. ....
....|..|--- .... ....|--- .... ....|--- .... ....
....|..|A-4 .... ....|B-1 ..F. ....|--- .... ....
....|..|--- .... ....|C#5 ..3A ....|--- .... ....
..6F|..|B-4 .... ....|B-4 ...F ....|C-4 .C.. ....
....|..|--- .... ....|--- .... ....|--- .... ....
....|..|--- .... ....|B-1 ..F. ....|--- .... ....
....|..|--- .... ....|B-4 ..3A ....|--- .... ....
..6F|..|F#4 ..F. 31.A|F#5 ...F ....|B-2 BC.. ....
....|..|--- .... ....|--- .... ....|--- .... ....
....|..|--- .... ....|B-1 ..F. ....|--- .... ....
....|..|--- .... ....|F#5 ..3A ....|--- .... ....
....|..|--- .... ....|D-5 ...F ....|C-4 S... ....
....|..|--- .... ....|--- .... ....|--- .... ....
....|..|--- .... ....|B-1 ..F. ....|--- .... ....
....|..|--- .... ....|D-5 ..3A ....|--- .... ....
..6F|..|R-- .... ....|C#5 ...F ....|B-2 BC.. ....
....|..|--- .... ....|--- .... ....|--- .... ....
....|..|--- .... ....|B-1 ..F. ....|--- .... ....
....|..|--- .... ....|C#5 ..3A ....|--- .... ....
..6F|..|--- .... ....|B-4 ...F ....|C-4 KCF. ....
....|..|--- .... ....|--- .... ....|--- .... ....
....|..|--- .... ....|B-1 ..F. ....|--- .... ....
....|..|--- .... ....|B-4 ..3A ....|--- .... ....
..6F|..|F#4 ..3. ....|F#5 ...F ....|B-2 BC.. ....
....|..|--- .... ....|--- .... ....|--- .... ....
..6F|..|--- .... ....|B-1 ..F. ....|C-4 KC.. ....
....|..|--- .... ....|F#5 ..3A ....|--- .... ....
....|..|F#4 .... ....|D-5 ...F ....|C-4 S... ....
....|..|--- .... ....|--- .... ....|--- .... ....
....|..|--- .... ....|B-1 ..F. ....|--- .... ....
....|..|--- .... ....|D-5 ..3A ....|--- .... ....
..6F|..|F#4 .... ....|C#5 ...F ....|C-4 KC.. ....
....|..|--- .... ....|--- .... ....|--- .... ....
....|..|F#4 .... ....|B-1 ..F. ....|--- .... ....
....|..|--- .... ....|C#5 ..3A ....|--- .... ....
..6F|..|--- .... ....|B-4 ...F ....|C-4 .C.. ....
....|..|--- .... ....|--- .... ....|--- .... ....
....|..|--- .... ....|B-1 ..F. ....|--- .... ....
....|..|--- .... ....|B-4 ..3A ....|--- .... ....
..6F|..|E-4 .... ....|F#5 ...F ....|B-2 BC.. ....
....|..|--- .... ....|--- .... ....|--- .... ....
....|..|D-4 ..F. 31.A|B-1 ..F. ....|--- .... ....
....|..|--- .... ....|F#5 ..3A ....|--- .... ....
....|..|--- .... ....|D-5 ...F ....|C-4 S... ....
....|..|--- .... ....|--- .... ....|--- .... ....
....|..|--- .... ....|B-1 ..F. ....|--- .... ....
....|..|--- .... ....|D-5 ..3A ....|--- .... ....
..6F|..|A-4 ..3. ....|C#5 ...F ....|B-2 BC.. ....
....|..|--- .... ....|--- .... ....|--- .... ....
....|..|--- .... ....|B-1 ..F. ....|--- .... ....
....|..|--- .... ....|C#5 ..3A ....|--- .... ....
..6F|..|--- .... ....|B-4 ...F ....|C-4 KCF. ....
....|..|--- .... ....|--- .... ....|--- .... ....
....|..|--- .... ....|B-1 ..F. ....|--- .... ....
....|..|--- .... ....|B-4 ..3A ....|--- .... ....
..6F|..|F#4 .... ....|F#5 ...F ....|B-2 BC.. ....
....|..|--- .... ....|--- .... ....|--- .... ....
..6F|..|G-4 ..F. 31.8|B-1 ..F. ....|C-4 KC.. ....
....|..|--- .... ....|F#5 ..3A ....|--- .... ....
....|..|F#4 .... 31.8|D-5 ...F ....|C-4 S... ....
....|..|--- .... ....|--- .... ....|--- .... ....
....|..|--- .... ....|B-1 ..F. ....|--- .... ....
....|..|--- .... ....|D-5 ..3A ....|--- .... ....
..6F|..|--- .... ....|C#5 ...F ....|C-4 KC.. ....
....|..|--- .... ....|--- .... ....|--- .... ....
....|..|--- .... ....|B-1 ..F. ....|--- .... ....
....|..|--- .... ....|C#5 ..3A ....|--- .... ....
..6F|..|--- .... 1120|B-4 ...F ....|C-4 .C.. ....
....|..|--- .... ....|--- .... ....|--- .... ....
....|..|--- .... ....|B-1 ..F. ....|--- .... ....
....|..|--- .... ....|B-4 ..3A ....|--- .... ....
..6F|..|--- ...D ....|F#5 ...F ....|B-2 BC.. ....
....|..|--- ...B ....|--- .... ....|--- .... ....
....|..|--- ...9 ....|B-1 ..F. ....|--- .... ....
....|..|--- ...6 ....|F#5 ..3A ....|--- .... ....
....|..|R-- .... ....|D-5 ...F ....|C-4 S... ....
....|..|--- .... ....|--- .... ....|--- .... ....
....|..|--- .... ....|B-1 ..F. ....|--- .... ....
....|..|--- .... ....|D-5 ..3A ....|--- .... ....
..6F|..|--- .... ....|C#5 ...F ....|B-1 BC.. ....
....|..|--- .... ....|--- .... ....|--- .... ....
....|..|--- .... ....|B-1 ..F. ....|--- .... ....
....|..|--- .... ....|C#5 ..3A ....|--- .... ....

[Pattern7]
..6F|..|--- .... ....|B-4 8F3F ....|C-4 KCFF ....
....|..|--- .... ....|--- .... ....|--- .... ....
....|..|--- .... ....|B-1 ..F. ....|--- .... ....
....|..|--- .... ....|B-4 ..3A ....|--- .... ....
..6F|..|B-4 L.3F ....|F#5 ...F ....|B-2 BC.. ....
....|..|--- .... ....|--- .... ....|--- .... ....
..6F|..|--- .... ....|B-1 ..F. ....|C-4 KC.. ....
....|..|--- .... ....|F#5 ..3A ....|--- .... ....
....|..|B-4 .... ....|D-5 ...F ....|C-4 S... ....
....|..|--- .... ....|--- .... ....|--- .... ....
....|..|--- .... ....|B-1 ..F. ....|--- .... ....
....|..|--- .... ....|D-5 ..3A ....|--- .... ....
..6F|..|--- .... ....|C#5 ...F ....|C-4 KC.. ....
....|..|--- .... ....|--- .... ....|--- .... ....
....|..|A-4 .... ....|B-1 ..F. ....|--- .... ....
....|..|--- .... ....|C#5 ..3A ....|--- .... ....
..6F|..|B-4 .... ....|B-4 ...F ....|C-4 .C.. ....
....|..|--- .... ....|--- .... ....|--- .... ....
....|..|D-5 ..F. 31.A|B-1 ..F. ....|--- .... ....
....|..|--- .... ....|B-4 ..3A ....|--- .... ....
..6F|..|--- .... ....|F#5 ...F ....|B-2 BC.. ....
....|..|--- .... ....|--- .... ....|--- .... ....
....|..|--- .... ....|B-1 ..F. ....|--- .... ....
....|..|--- .... ....|F#5 ..3A ....|--- .... ....
....|..|R-- .... ....|D-5 ...F ....|C-4 S... ....
....|..|--- .... ....|--- .... ....|--- .... ....
....|..|--- .... ....|B-1 ..F. ....|--- .... ....
....|..|--- .... ....|D-5 ..3A ....|--- .... ....
..5D|..|--- .... ....|C#5 ...F ....|D-2 BC.. ....
....|..|--- .... ....|--- .... ....|--- .... ....
....|..|--- .... ....|D-2 ..F. ....|--- .... ....
....|..|--- .... ....|C#5 ..3A ....|--- .... ....
..8C|..|--- .... ....|B-4 ...F ....|C-4 KCF. ....
....|..|--- .... ....|--- .... ....|--- .... ....
....|..|A-4 ..3. ....|G-1 ..F. ....|--- .... ....
....|..|--- .... ....|B-4 ..3A ....|--- .... ....
..8C|..|B-4 .... ....|F#5 ...F ....|G-2 BC.. ....
....|..|--- .... ....|--- .... ....|--- .... ....
..8C|..|--- .... ....|G-1 ..F. ....|C-4 KC.. ....
....|..|--- .... ....|F#5 ..3A ....|--- .... ....
....|..|B-4 .... ....|D-5 ...F ....|C-4 S... ....
....|..|--- .... ....|--- .... ....|--- .... ....
....|..|--- .... ....|G-1 ..F. ....|--- .... ....
....|..|--- .... ....|D-5 ..3A ....|--- .... ....
..8C|..|--- .... ....|C#5 ...F ....|C-4 KC.. ....
....|..|--- .... ....|--- .... ....|--- .... ....
....|..|A-4 .... ....|G-1 ..F. ....|--- .... ....
....|..|--- .... ....|C#5 ..3A ....|--- .... ....
..8C|..|B-4 .... ....|B-4 ...F ....|C-4 .C.. ....
....|..|--- .... ....|--- .... ....|--- .... ....
....|..|--- .... ....|G-1 ..F. ....|--- .... ....
....|..|--- .... ....|B-4 ..3A ....|--- .... ....
..8C|..|F#4 ..F. 31.A|F#5 ...F ....|G-2 BC.. ....
....|..|--- .... ....|--- .... ....|--- .... ....
....|..|--- .... ....|G-1 ..F. ....|--- .... ....
....|..|--- .... ....|F#5 ..3A ....|--- .... ....
....|..|--- .... ....|D-5 ...F ....|C-4 S... ....
....|..|--- .... ....|--- .... ....|--- .... ....
....|..|--- .... ....|G-1 ..F. ....|--- .... ....
....|..|--- .... ....|D-5 ..3A ....|--- .... ....
..8C|..|R-- .... ....|C#5 ...F ....|G-2 BC.. ....
....|..|--- .... ....|--- .... ....|--- .... ....
....|..|--- .... ....|G-1 ..F. ....|--- .... ....
....|..|--- .... ....|C#5 ..3A ....|--- .... ....
..7C|..|--- .... ....|B-4 ...F ....|C-4 KC.. ....
....|..|--- .... ....|--- .... ....|--- .... ....
..7C|..|--- .... ....|A-1 ..F. ....|A-1 BCF. ....
....|..|--- .... ....|B-4 ..3A ....|A-1 .... ....
..7C|..|F#4 ..3. ....|F#5 ...F ....|C-4 KC.. ....
....|..|--- .... ....|--- .... ....|--- .... ....
..7C|..|--- .... ....|A-1 ..F. ....|A-1 BCF. ....
....|..|--- .... ....|F#5 ..3A ....|A-1 .... ....
..7C|..|F#4 .... ....|D-5 ...F ....|C-4 KC.. ....
....|..|--- .... ....|--- .... ....|--- .... ....
..7C|..|--- .... ....|A-1 ..F. ....|A-1 BCF. ....
....|..|--- .... ....|D-5 ..3A ....|A-1 .... ....
..7C|..|F#4 .... ....|C#5 ...F ....|C-4 KC.. ....
....|..|--- .... ....|--- .... ....|--- .... ....
..7C|..|F#4 .... ....|A-1 ..F. ....|A-1 BCF. ....
....|..|--- .... ....|C#5 ..3A ....|A-1 .... ....
..7C|..|--- .... ....|B-4 ...F ....|C-4 KC.. ....
....|..|--- .... ....|--- .... ....|--- .... ....
..7C|..|--- .... ....|A-1 ..F. ....|A-1 BCF. ....
....|..|--- .... ....|B-4 ..3A ....|A-1 .... ....
..7C|..|E-4 .... ....|F#5 ...F ....|C-4 KC.. ....
....|..|--- .... ....|--- .... ....|--- .... ....
..7C|..|D-4 ..F. 31.F|A-1 ..F. ....|A-1 BCF. ....
....|..|--- .... ....|F#5 ..3A ....|A-1 .... ....
..7C|..|--- .... ....|D-5 ...F ....|C-4 KC.. ....
....|..|--- .... ....|--- .... ....|--- .... ....
..7C|..|--- .... ....|A-1 ..F. ....|A-1 BCF. ....
....|..|--- .... ....|D-5 ..3A ....|A-1 .... ....
..7C|..|A-4 ..3. ....|C#5 ...F ....|C-4 KC.. ....
....|..|--- .... ....|--- .... ....|--- .... ....
..7C|..|--- .... ....|A-1 ..F. ....|A-1 BCF. ....
....|..|--- .... ....|C#5 ..3A ....|A-1 .... ....
..A6|.F|--- .... ....|B-4 ...F ....|C-4 SCF. ....
....|..|--- .... ....|--- .... ....|--- .... ....
....|.D|--- .... ....|E-1 ..F. ....|C-4 .... ....
....|..|--- .... ....|B-4 ..3A ....|--- .... ....
....|.B|F#4 .... ....|F#5 ...F ....|C-4 .... ....
....|..|--- .... ....|--- .... ....|--- .... ....
....|.9|G-4 ..F. 31.8|E-1 ..F. ....|C-4 .... ....
....|..|--- .... ....|F#5 ..3A ....|--- .... ....
....|.7|F#4 .... 31.9|D-5 ...F ....|C-4 .... ....
....|..|--- .... ....|--- .... ....|--- .... ....
....|.5|--- .... ....|E-1 ..F. ....|C-4 .... ....
....|..|--- .... ....|D-5 ..3A ....|--- .... ....
....|.3|--- .... ....|C#5 ...F ....|C-4 .... ....
....|..|--- .... ....|--- .... ....|--- .... ....
....|.1|--- .... 1120|E-1 ..F. ....|C-4 .... ....
....|..|--- .... ....|C#5 ..3A ....|--- .... ....
..A6|..|--- ...D ....|B-4 ...F ....|C-4 KCF. ....
....|..|--- ...B ....|--- .... ....|--- .... ....
....|..|--- ...9 ....|E-1 ..F. ....|--- .... ....
....|..|--- ...6 ....|B-4 ..3A ....|--- .... ....
..A6|..|R-- .... ....|F#5 ...F ....|C-4 .C.. ....
....|..|--- .... ....|--- .... ....|--- .... ....
....|..|A-4 ..3F ....|E-1 ..F. ....|--- .... ....
....|..|--- .... ....|F#5 ..3A ....|--- .... ....
..A6|..|A-4 .... ....|D-5 ...F ....|C-4 .C.. ....
....|..|--- .... ....|--- .... ....|--- .... ....
..A6|..|B-4 ..F. 31.F|E-1 ..F. ....|E-1 BC.. ....
..A6|..|--- .... ....|D-5 ..3A ....|E-1 .C.. ....
....|..|--- .... ....|C#5 ...F ....|C-4 S... ....
....|..|--- .... ....|--- .... ....|--- .... ....
....|..|--- .... ....|E-1 ..F. ....|--- .... ....
....|..|--- .... ....|C#5 ..3A ....|--- .... ....

[Pattern8]
..6F|..|F#5 L.3F ....|B-4 8F3F ....|C-4 KAFF ....
....|..|--- .... ....|--- .... ....|--- .... ....
..6F|..|--- .... ....|B-1 ..F. ....|B-2 BC.. ....
....|..|--- .... ....|B-4 ..3A ....|--- .... ....
..6F|..|--- .... ....|F#5 ...F ....|C-4 SC.. ....
....|..|--- .... ....|--- .... ....|--- .... ....
..6F|..|--- .... ....|B-1 ..F. ....|B-2 BC.. ....
....|..|--- .... ....|F#5 ..3A ....|--- .... ....
..6F|..|B-4 .... ....|D-5 ...F ....|B-2 .C.. ....
....|..|--- .... ....|--- .... ....|--- .... ....
..6F|..|--- .... ....|B-1 ..F. ....|C-4 KC.. ....
....|..|--- .... ....|D-5 ..3A ....|--- .... ....
..6F|..|--- .... ....|C#5 ...F ....|C-4 SC.. ....
....|..|--- .... ....|--- .... ....|--- .... ....
..6F|..|A-4 .... 31.F|B-1 ..F. ....|B-2 BC.. ....
....|..|--- .... ....|C#5 ..3A ....|--- .... ....
..6F|..|R-- .... ....|B-4 ...F ....|C-4 KC.. ....
....|..|--- .... ....|--- .... ....|--- .... ....
..6F|..|--- .... ....|B-1 ..F. ....|B-2 BC.. ....
....|..|--- .... ....|B-4 ..3A ....|--- .... ....
..6F|..|--- .... ....|F#5 ...F ....|C-4 SC.. ....
....|..|--- .... ....|--- .... ....|--- .... ....
..6F|..|A-4 .... ....|B-1 ..F. ....|B-2 BC.. ....
....|..|--- .... ....|F#5 ..3A ....|--- .... ....
..5D|..|A-4 .... ....|D-5 ...F ....|D-3 .C.. ....
....|..|--- .... ....|--- .... ....|--- .... ....
..5D|..|B-4 ..F. 31.F|D-2 ..F. ....|C-4 KC.. ....
....|..|--- .... ....|D-5 ..3A ....|--- .... ....
..5D|..|--- .... ....|C#5 ...F ....|C-4 SC.. ....
....|..|--- .... ....|--- .... ....|--- .... ....
..8C|..|--- .... ....|G-1 ..F. ....|G-2 BC.. ....
....|..|--- .... ....|C#5 ..3A ....|--- .... ....
..8C|..|F#5 ..2. ....|B-4 ...F ....|C-4 KC.. ....
....|..|--- .... ....|--- .... ....|--- .... ....
..8C|..|--- .... ....|G-1 ..F. ....|G-2 BC.. ....
....|..|--- .... ....|B-4 ..3A ....|--- .... ....
..8C|..|E-5 .... 31.A|F#5 ...F ....|C-4 SC.. ....
....|..|--- .... ....|--- .... ....|--- .... ....
..8C|..|--- .... ....|G-1 ..F. ....|G-2 BC.. ....
....|..|--- .... ....|F#5 ..3A ....|--- .... ....
..8C|..|D-5 .... 31.A|D-5 ...F ....|G-2 .C.. ....
....|..|--- .... ....|--- .... ....|--- .... ....
..8C|..|--- .... ....|G-1 ..F. ....|C-4 KC.. ....
....|..|--- .... ....|D-5 ..3A ....|--- .... ....
..8C|..|E-5 .... 31.A|C#5 ...F ....|C-4 SC.. ....
....|..|--- .... ....|--- .... ....|--- .... ....
..8C|..|--- .... ....|G-1 ..F. ....|G-2 BC.. ....
....|..|--- .... ....|C#5 ..3A ....|--- .... ....
..8C|..|--- .... ....|B-4 ...F ....|C-4 KC.. ....
....|..|--- .... ....|--- .... ....|--- .... ....
..8C|..|--- .... ....|G-1 ..F. ....|G-2 BC.. ....
....|..|--- .... ....|B-4 ..3A ....|--- .... ....
..8C|..|D-5 .... ....|F#5 ...F ....|C-4 SC.. ....
....|..|--- .... ....|--- .... ....|--- .... ....
..8C|..|--- .... ....|G-1 ..F. ....|G-2 BC.. ....
....|..|--- .... ....|F#5 ..3A ....|--- .... ....
..8C|..|--- ...D ....|D-5 ...F ....|G-2 .C.. ....
....|..|--- ...A ....|--- .... ....|--- .... ....
..8C|..|--- ...7 ....|G-1 ..F. ....|C-4 KC.. ....
....|..|R-- .... ....|D-5 ..3A ....|--- .... ....
..8C|..|--- .... ....|C#5 ...F ....|C-4 SC.. ....
....|..|--- .... ....|--- .... ....|--- .... ....
..8C|..|--- .... ....|G-1 ..F. ....|C-4 KC.. ....
....|..|--- .... ....|C#5 ..3A ....|--- .... ....
..7C|..|--- .... ....|B-4 ...F ....|C-4 .C.. ....
....|..|--- .... ....|--- .... ....|--- .... ....
..7C|..|--- .... ....|A-1 ..F. ....|A-2 BC.. ....
....|..|--- .... ....|B-4 ..3A ....|--- .... ....
..7C|..|E-5 ..3F ....|F#5 ...F ....|C-4 SC.. ....
....|..|--- .... ....|--- .... ....|--- .... ....
..7C|..|--- .... ....|A-1 ..F. ....|A-2 BC.. ....
....|..|--- .... ....|F#5 ..3A ....|--- .... ....
..7C|..|E-5 .... ....|D-5 ...F ....|A-2 .C.. ....
....|..|--- .... ....|--- .... ....|--- .... ....
..7C|..|--- .... ....|A-1 ..F. ....|C-4 KC.. ....
....|..|--- .... ....|D-5 ..3A ....|--- .... ....
..7C|..|E-5 .... ....|C#5 ...F ....|C-4 SC.. ....
....|..|--- .... ....|--- .... ....|--- .... ....
..7C|..|E-5 .... ....|A-1 ..F. ....|A-2 BC.. ....
....|..|--- .... ....|C#5 ..3A ....|--- .... ....
..7C|..|--- .... ....|B-4 ...F ....|C-4 KC.. ....
....|..|--- .... ....|--- .... ....|--- .... ....
..7C|..|--- .... ....|A-1 ..F. ....|A-2 BC.. ....
....|..|--- .... ....|B-4 ..3A ....|--- .... ....
..7C|..|D-5 .... ....|F#5 ...F ....|C-4 SC.. ....
....|..|--- .... ....|--- .... ....|--- .... ....
..7C|..|E-5 ..F. 31.F|A-1 ..F. ....|A-2 BC.. ....
....|..|--- .... ....|F#5 ..3A ....|--- .... ....
..7C|..|--- .... ....|D-5 ...F ....|A-2 .C.. ....
....|..|--- .... ....|--- .... ....|--- .... ....
..BA|..|--- .... ....|A-1 ..F. ....|C-4 KC.. ....
....|..|--- .... ....|D-5 ..3A ....|--- .... ....
..8C|..|F#5 ..3. ....|C#5 ...F ....|C-4 SC.. ....
....|..|--- .... ....|--- .... ....|--- .... ....
..7C|..|E-5 ..F. 31.A|A-1 ..F. ....|A-2 BC.. ....
....|..|--- .... ....|C#5 ..3A ....|--- .... ....
..A6|..|--- .... ....|B-4 ...F ....|C-4 KC.. ....
....|..|--- .... ....|--- .... ....|--- .... ....
..A6|..|D-5 ..3. ....|E-1 ..F. ....|E-2 BC.. ....
....|..|--- .... ....|B-4 ..3A ....|--- .... ....
..A6|..|B-4 ..F. 31.A|F#5 ...F ....|C-4 SC.. ....
....|..|--- .... ....|--- .... ....|--- .... ....
..A6|..|--- .... ....|E-1 ..F. ....|E-2 BC.. ....
....|..|--- .... ....|F#5 ..3A ....|--- .... ....
..A6|..|--- .... ....|D-5 ...F ....|E-2 .C.. ....
....|..|--- .... ....|--- .... ....|--- .... ....
..A6|..|--- .... ....|E-1 ..F. ....|C-4 KC.. ....
....|..|--- .... ....|D-5 ..3A ....|--- .... ....
..A6|..|R-- .... ....|C#5 ...F ....|C-4 SC.. ....
....|..|--- .... ....|--- .... ....|--- .... ....
..A6|..|--- .... ....|E-1 ..F. ....|E-2 BC.. ....
....|..|--- .... ....|C#5 ..3A ....|--- .... ....
..A6|..|--- .... ....|B-4 ...F ....|C-4 KC.. ....
....|..|--- .... ....|--- .... ....|--- .... ....
..A6|..|--- .... ....|E-1 ..F. ....|E-2 BC.. ....
....|..|--- .... ....|B-4 ..3A ....|--- .... ....
..A6|..|--- .... ....|F#5 ...F ....|C-4 SC.. ....
....|..|--- .... ....|--- .... ....|--- .... ....
..A6|..|A-4 ..3. ....|E-1 ..F. ....|E-2 BC.. ....
....|..|--- .... ....|F#5 ..3A ....|--- .... ....
..A6|..|A-4 .... ....|D-5 ...F ....|E-2 .C.. ....
....|..|--- .... ....|--- .... ....|--- .... ....
..A6|..|B-4 ..F. 31.F|E-1 ..F. ....|C-4 KC.. ....
..A6|..|--- .... ....|D-5 ..3A ....|C-4 .C.. ....
..A6|..|--- .... ....|C#5 ...F ....|C-4 SC.. ....
....|..|--- .... ....|--- .... ....|--- .... ....
..A6|..|--- .... ....|E-1 ..F. ....|C-4 KC.. ....
....|..|--- .... ....|C#5 ..3A ....|--- .... ....

[Pattern9]
..6F|..|F#5 L.3F ....|B-4 8F3F ....|C-4 KAFF ....
....|..|--- .... ....|--- .... ....|--- .... ....
..6F|..|--- .... ....|B-1 ..F. ....|B-2 BC.. ....
....|..|--- .... ....|B-4 ..3A ....|--- .... ....
..6F|..|--- .... ....|F#5 ...F ....|C-4 SC.. ....
....|..|--- .... ....|--- .... ....|--- .... ....
..6F|..|--- .... ....|B-1 ..F. ....|B-2 BC.. ....
....|..|--- .... ....|F#5 ..3A ....|--- .... ....
..6F|..|B-4 .... ....|D-5 ...F ....|B-2 .C.. ....
....|..|--- .... ....|--- .... ....|--- .... ....
..6F|..|--- .... ....|B-1 ..F. ....|C-4 KC.. ....
....|..|--- .... ....|D-5 ..3A ....|--- .... ....
..6F|..|--- .... ....|C#5 ...F ....|C-4 SC.. ....
....|..|--- .... ....|--- .... ....|--- .... ....
..6F|..|A-4 .... 31.F|B-1 ..F. ....|B-2 BC.. ....
....|..|--- .... ....|C#5 ..3A ....|--- .... ....
..6F|..|R-- .... ....|B-4 ...F ....|C-4 KC.. ....
....|..|--- .... ....|--- .... ....|--- .... ....
..6F|..|--- .... ....|B-1 ..F. ....|B-2 BC.. ....
....|..|--- .... ....|B-4 ..3A ....|--- .... ....
..6F|..|--- .... ....|F#5 ...F ....|C-4 SC.. ....
....|..|--- .... ....|--- .... ....|--- .... ....
..6F|..|A-4 .... ....|B-1 ..F. ....|B-2 BC.. ....
....|..|--- .... ....|F#5 ..3A ....|--- .... ....
..5D|..|A-4 .... ....|D-5 ...F ....|D-3 .C.. ....
....|..|--- .... ....|--- .... ....|--- .... ....
..5D|..|B-4 ..F. 31.F|D-2 ..F. ....|C-4 KC.. ....
....|..|--- .... ....|D-5 ..3A ....|--- .... ....
..5D|..|--- .... ....|C#5 ...F ....|C-4 SC.. ....
....|..|--- .... ....|--- .... ....|--- .... ....
..8C|..|--- .... ....|G-1 ..F. ....|G-2 BC.. ....
....|..|--- .... ....|C#5 ..3A ....|--- .... ....
..8C|..|F#5 ..2. ....|B-4 ...F ....|C-4 KC.. ....
....|..|--- .... ....|--- .... ....|--- .... ....
..8C|..|--- .... ....|G-1 ..F. ....|G-2 BC.. ....
....|..|--- .... ....|B-4 ..3A ....|--- .... ....
..8C|..|E-5 .... 31.A|F#5 ...F ....|C-4 SC.. ....
....|..|--- .... ....|--- .... ....|--- .... ....
..8C|..|--- .... ....|G-1 ..F. ....|G-2 BC.. ....
....|..|--- .... ....|F#5 ..3A ....|--- .... ....
..8C|..|D-5 .... 31.A|D-5 ...F ....|G-2 .C.. ....
....|..|--- .... ....|--- .... ....|--- .... ....
..8C|..|--- .... ....|G-1 ..F. ....|C-4 KC.. ....
....|..|--- .... ....|D-5 ..3A ....|--- .... ....
..8C|..|E-5 .... 31.A|C#5 ...F ....|C-4 SC.. ....
....|..|--- .... ....|--- .... ....|--- .... ....
..8C|..|--- .... ....|G-1 ..F. ....|G-2 BC.. ....
....|..|--- .... ....|C#5 ..3A ....|--- .... ....
..8C|..|--- .... ....|B-4 ...F ....|C-4 KC.. ....
....|..|--- .... ....|--- .... ....|--- .... ....
..8C|..|--- .... ....|G-1 ..F. ....|G-2 BC.. ....
....|..|--- .... ....|B-4 ..3A ....|--- .... ....
..8C|..|D-5 .... ....|F#5 ...F ....|C-4 SC.. ....
....|..|--- .... ....|--- .... ....|--- .... ....
..8C|..|--- .... ....|G-1 ..F. ....|G-2 BC.. ....
....|..|--- .... ....|F#5 ..3A ....|--- .... ....
..8C|..|--- ...D ....|D-5 ...F ....|G-2 .C.. ....
....|..|--- ...A ....|--- .... ....|--- .... ....
..8C|..|--- ...7 ....|G-1 ..F. ....|C-4 KC.. ....
....|..|R-- .... ....|D-5 ..3A ....|--- .... ....
..8C|..|--- .... ....|C#5 ...F ....|C-4 SC.. ....
....|..|--- .... ....|--- .... ....|--- .... ....
..8C|..|--- .... ....|G-1 ..F. ....|C-4 KC.. ....
....|..|--- .... ....|C#5 ..3A ....|--- .... ....
..7C|..|--- .... ....|B-4 ...F ....|C-4 .C.. ....
....|..|--- .... ....|--- .... ....|--- .... ....
..7C|..|--- .... ....|A-1 ..F. ....|A-2 BC.. ....
....|..|--- .... ....|B-4 ..3A ....|--- .... ....
..7C|..|E-5 ..3F ....|F#5 ...F ....|C-4 SC.. ....
....|..|--- .... ....|--- .... ....|--- .... ....
..7C|..|--- .... ....|A-1 ..F. ....|A-2 BC.. ....
....|..|--- .... ....|F#5 ..3A ....|--- .... ....
..7C|..|E-5 .... ....|D-5 ...F ....|A-2 .C.. ....
....|..|--- .... ....|--- .... ....|--- .... ....
..7C|..|--- .... ....|A-1 ..F. ....|C-4 KC.. ....
....|..|--- .... ....|D-5 ..3A ....|--- .... ....
..7C|..|E-5 .... ....|C#5 ...F ....|C-4 SC.. ....
....|..|--- .... ....|--- .... ....|--- .... ....
..7C|..|E-5 .... ....|A-1 ..F. ....|A-2 BC.. ....
....|..|--- .... ....|C#5 ..3A ....|--- .... ....
..7C|..|--- .... ....|B-4 ...F ....|C-4 KC.. ....
....|..|--- .... ....|--- .... ....|--- .... ....
..7C|..|--- .... ....|A-1 ..F. ....|A-2 BC.. ....
....|..|--- .... ....|B-4 ..3A ....|--- .... ....
..7C|..|D-5 .... ....|F#5 ...F ....|C-4 SC.. ....
....|..|--- .... ....|--- .... ....|--- .... ....
..7C|..|E-5 ..F. 31.F|A-1 ..F. ....|A-2 BC.. ....
....|..|--- .... ....|F#5 ..3A ....|--- .... ....
..7C|..|--- .... ....|D-5 ...F ....|A-2 .C.. ....
....|..|--- .... ....|--- .... ....|--- .... ....
..BA|..|--- .... ....|A-1 ..F. ....|C-4 KC.. ....
....|..|--- .... ....|D-5 ..3A ....|--- .... ....
..8C|..|F#5 ..3. ....|C#5 ...F ....|C-4 SC.. ....
....|..|--- .... ....|--- .... ....|--- .... ....
..7C|..|E-5 ..F. 31.A|A-1 ..F. ....|A-2 BC.. ....
....|..|--- .... ....|C#5 ..3A ....|--- .... ....
..A6|..|--- .... ....|B-4 ...F ....|C-4 KC.. ....
....|..|--- .... ....|--- .... ....|--- .... ....
..A6|..|D-5 ..3. ....|E-1 ..F. ....|E-2 BC.. ....
....|..|--- .... ....|B-4 ..3A ....|--- .... ....
..A6|..|B-4 ..F. 31.A|F#5 ...F ....|C-4 SC.. ....
....|..|--- .... ....|--- .... ....|--- .... ....
..A6|..|--- .... ....|E-1 ..F. ....|E-2 BC.. ....
....|..|--- .... ....|F#5 ..3A ....|--- .... ....
..A6|..|--- .... ....|D-5 ...F ....|E-2 .C.. ....
....|..|--- .... ....|--- .... ....|--- .... ....
..A6|..|--- .... ....|E-1 ..F. ....|C-4 KC.. ....
....|..|--- .... ....|D-5 ..3A ....|--- .... ....
..A6|..|R-- .... ....|C#5 ...F ....|C-4 SC.. ....
....|..|--- .... ....|--- .... ....|--- .... ....
..A6|..|--- .... ....|E-1 ..F. ....|E-2 BC.. ....
....|..|--- .... ....|C#5 ..3A ....|--- .... ....
..A6|..|--- .... ....|B-4 ...F ....|C-4 KC.. ....
....|..|--- .... ....|--- .... ....|--- .... ....
..A6|..|--- .... ....|E-1 ..F. ....|E-2 BC.. ....
....|..|--- .... ....|B-4 ..3A ....|--- .... ....
..A6|..|--- .... ....|F#5 ...F ....|C-4 SC.. ....
....|..|--- .... ....|--- .... ....|--- .... ....
..A6|..|--- .... ....|E-1 ..F. ....|E-2 BC.. ....
....|..|--- .... ....|F#5 ..3A ....|--- .... ....
..A6|..|--- .... ....|D-5 ...F ....|E-2 .C.. ....
....|..|--- .... ....|--- .... ....|--- .... ....
..A6|..|--- .... ....|E-1 ..F. ....|C-4 KC.. ....
..A6|..|--- .... ....|D-5 ..3A ....|C-4 .C.. ....
..A6|..|--- .... ....|C#5 ...F ....|C-4 SC.. ....
....|..|--- .... ....|--- .... ....|--- .... ....
..A6|..|--- .... ....|E-1 ..F. ....|C-4 KC.. ....
....|..|--- .... ....|C#5 ..3A ....|--- .... ....

[Pattern10]
..6F|..|--- .... ....|B-4 1F3F ....|C-4 KCFF ....
....|..|--- .... ....|--- .... ....|--- .... ....
....|..|--- .... ....|B-1 ..F. ....|--- .... ....
....|..|--- .... ....|B-4 ..3A ....|--- .... ....
..6F|..|B-4 L.3F ....|F#5 ...F ....|B-2 BC.. ....
....|..|--- .... ....|--- .... ....|--- .... ....
..6F|..|--- .... ....|B-1 ..F. ....|C-4 KC.. ....
....|..|--- .... ....|F#5 ..3A ....|--- .... ....
....|..|B-4 .... ....|D-5 ...F ....|C-4 S... ....
....|..|--- .... ....|--- .... ....|--- .... ....
....|..|--- .... ....|B-1 ..F. ....|--- .... ....
....|..|--- .... ....|D-5 ..3A ....|--- .... ....
..6F|..|--- .... ....|C#5 ...F ....|C-4 KC.. ....
....|..|--- .... ....|--- .... ....|--- .... ....
....|..|A-4 .... ....|B-1 ..F. ....|--- .... ....
....|..|--- .... ....|C#5 ..3A ....|--- .... ....
..6F|..|B-4 .... ....|B-4 ...F ....|C-4 .C.. ....
....|..|--- .... ....|--- .... ....|--- .... ....
....|..|D-5 ..F. 31.A|B-1 ..F. ....|--- .... ....
....|..|--- .... ....|B-4 ..3A ....|--- .... ....
..6F|..|--- .... ....|F#5 ...F ....|B-2 BC.. ....
....|..|--- .... ....|--- .... ....|--- .... ....
....|..|--- .... ....|B-1 ..F. ....|--- .... ....
....|..|--- .... ....|F#5 ..3A ....|--- .... ....
....|..|R-- .... ....|D-5 ...F ....|C-4 S... ....
....|..|--- .... ....|--- .... ....|--- .... ....
....|..|--- .... ....|B-1 ..F. ....|--- .... ....
....|..|--- .... ....|D-5 ..3A ....|--- .... ....
..5D|..|--- .... ....|C#5 ...F ....|D-2 BC.. ....
....|..|--- .... ....|--- .... ....|--- .... ....
....|..|--- .... ....|D-2 ..F. ....|--- .... ....
....|..|--- .... ....|C#5 ..3A ....|--- .... ....
..8C|..|--- .... ....|B-4 ...F ....|C-4 KCF. ....
....|..|--- .... ....|--- .... ....|--- .... ....
....|..|A-4 ..3. ....|G-1 ..F. ....|--- .... ....
....|..|--- .... ....|B-4 ..3A ....|--- .... ....
..8C|..|B-4 .... ....|F#5 ...F ....|G-2 BC.. ....
....|..|--- .... ....|--- .... ....|--- .... ....
..8C|..|--- .... ....|G-1 ..F. ....|C-4 KC.. ....
....|..|--- .... ....|F#5 ..3A ....|--- .... ....
....|..|B-4 .... ....|D-5 ...F ....|C-4 S... ....
....|..|--- .... ....|--- .... ....|--- .... ....
....|..|--- .... ....|G-1 ..F. ....|--- .... ....
....|..|--- .... ....|D-5 ..3A ....|--- .... ....
..8C|..|--- .... ....|C#5 ...F ....|C-4 KC.. ....
....|..|--- .... ....|--- .... ....|--- .... ....
....|..|A-4 .... ....|G-1 ..F. ....|--- .... ....
....|..|--- .... ....|C#5 ..3A ....|--- .... ....
..8C|..|B-4 .... ....|B-4 ...F ....|C-4 .C.. ....
....|..|--- .... ....|--- .... ....|--- .... ....
....|..|--- .... ....|G-1 ..F. ....|--- .... ....
....|..|--- .... ....|B-4 ..3A ....|--- .... ....
..8C|..|F#4 ..F. 31.A|F#5 ...F ....|G-2 BC.. ....
....|..|--- .... ....|--- .... ....|--- .... ....
....|..|--- .... ....|G-1 ..F. ....|--- .... ....
....|..|--- .... ....|F#5 ..3A ....|--- .... ....
....|..|--- .... ....|D-5 ...F ....|C-4 S... ....
....|..|--- .... ....|--- .... ....|--- .... ....
....|..|--- .... ....|G-1 ..F. ....|--- .... ....
....|..|--- .... ....|D-5 ..3A ....|--- .... ....
..8C|..|R-- .... ....|C#5 ...F ....|G-2 BC.. ....
....|..|--- .... ....|--- .... ....|--- .... ....
....|..|--- .... ....|G-1 ..F. ....|--- .... ....
....|..|--- .... ....|C#5 ..3A ....|--- .... ....
..7C|..|--- .... ....|B-4 ...F ....|C-4 KCF. ....
....|..|--- .... ....|--- .... ....|--- .... ....
....|..|--- .... ....|A-1 ..F. ....|--- .... ....
....|..|--- .... ....|B-4 ..3A ....|--- .... ....
..7C|..|F#4 ..3. ....|F#5 ...F ....|A-2 BC.. ....
....|..|--- .... ....|--- .... ....|--- .... ....
..7C|..|--- .... ....|A-1 ..F. ....|C-4 KC.. ....
....|..|--- .... ....|F#5 ..3A ....|--- .... ....
....|..|F#4 .... ....|D-5 ...F ....|C-4 S... ....
....|..|--- .... ....|--- .... ....|--- .... ....
....|..|--- .... ....|A-1 ..F. ....|--- .... ....
....|..|--- .... ....|D-5 ..3A ....|--- .... ....
..7C|..|F#4 .... ....|C#5 ...F ....|C-4 KC.. ....
....|..|--- .... ....|--- .... ....|--- .... ....
....|..|F#4 .... ....|A-1 ..F. ....|--- .... ....
....|..|--- .... ....|C#5 ..3A ....|--- .... ....
..7C|..|--- .... ....|B-4 ...F ....|C-4 .C.. ....
....|..|--- .... ....|--- .... ....|--- .... ....
....|..|--- .... ....|A-1 ..F. ....|--- .... ....
....|..|--- .... ....|B-4 ..3A ....|--- .... ....
..7C|..|E-4 .... ....|F#5 ...F ....|A-2 BC.. ....
....|..|--- .... ....|--- .... ....|--- .... ....
....|..|D-4 ..F. 31.A|A-1 ..F. ....|--- .... ....
....|..|--- .... ....|F#5 ..3A ....|--- .... ....
....|..|--- .... ....|D-5 ...F ....|C-4 S... ....
....|..|--- .... ....|--- .... ....|--- .... ....
....|..|--- .... ....|A-1 ..F. ....|--- .... ....
....|..|--- .... ....|D-5 ..3A ....|--- .... ....
..8C|..|A-4 ..3. ....|C#5 ...F ....|G-2 BC.. ....
....|..|--- .... ....|--- .... ....|--- .... ....
....|..|--- .... ....|A-1 ..F. ....|--- .... ....
....|..|--- .... ....|C#5 ..3A ....|--- .... ....
..A6|..|--- .... ....|B-4 ...F ....|C-4 KCF. ....
....|..|--- .... ....|--- .... ....|--- .... ....
....|..|--- .... ....|E-1 ..F. ....|--- .... ....
....|..|--- .... ....|B-4 ..3A ....|--- .... ....
..A6|..|F#4 .... ....|F#5 ...F ....|E-2 BC.. ....
....|..|--- .... ....|--- .... ....|--- .... ....
..A6|..|G-4 ..F. 31.8|E-1 ..F. ....|C-4 KC.. ....
....|..|--- .... ....|F#5 ..3A ....|--- .... ....
....|..|F#4 .... 31.8|D-5 ...F ....|C-4 S... ....
....|..|--- .... ....|--- .... ....|--- .... ....
....|..|--- .... ....|E-1 ..F. ....|--- .... ....
....|..|--- .... ....|D-5 ..3A ....|--- .... ....
..A6|..|--- .... ....|C#5 ...F ....|C-4 KC.. ....
....|..|--- .... ....|--- .... ....|--- .... ....
....|..|--- .... ....|E-1 ..F. ....|--- .... ....
....|..|--- .... ....|C#5 ..3A ....|--- .... ....
..A6|..|R-- .... ....|B-4 ...F ....|C-4 .C.. ....
....|..|--- .... ....|--- .... ....|--- .... ....
....|..|--- .... ....|E-1 ..F. ....|--- .... ....
....|..|--- .... ....|B-4 ..3A ....|--- .... ....
..A6|..|--- .... ....|F#5 ...F ....|E-2 BC.. ....
....|..|--- .... ....|--- .... ....|--- .... ....
....|..|--- .... ....|E-1 ..F. ....|--- .... ....
....|..|--- .... ....|F#5 ..3A ....|--- .... ....
....|..|--- .... ....|D-5 ...F ....|C-4 S... ....
....|..|--- .... ....|--- .... ....|--- .... ....
....|..|--- .... ....|E-1 ..F. ....|--- .... ....
....|..|--- .... ....|D-5 ..3A ....|--- .... ....
..A6|..|--- .... ....|C#5 ...F ....|E-2 BC.. ....
....|..|--- .... ....|--- .... ....|--- .... ....
....|..|--- .... ....|E-1 ..F. ....|--- .... ....
....|..|--- .... ....|C#5 ..3A ....|--- .... ....

[Pattern11]
..6F|..|--- .... ....|B-4 1F3F ....|C-4 KCFF ....
....|..|--- .... ....|--- .... ....|--- .... ....
....|..|--- .... ....|B-1 ..F. ....|--- .... ....
....|..|--- .... ....|B-4 ..3A ....|--- .... ....
..6F|..|B-4 L.3F ....|F#5 ...F ....|B-2 BC.. ....
....|..|--- .... ....|--- .... ....|--- .... ....
..6F|..|--- .... ....|B-1 ..F. ....|C-4 KC.. ....
....|..|--- .... ....|F#5 ..3A ....|--- .... ....
....|..|B-4 .... ....|D-5 ...F ....|C-4 S... ....
....|..|--- .... ....|--- .... ....|--- .... ....
....|..|--- .... ....|B-1 ..F. ....|--- .... ....
....|..|--- .... ....|D-5 ..3A ....|--- .... ....
..6F|..|--- .... ....|C#5 ...F ....|C-4 KC.. ....
....|..|--- .... ....|--- .... ....|--- .... ....
....|..|A-4 .... ....|B-1 ..F. ....|--- .... ....
....|..|--- .... ....|C#5 ..3A ....|--- .... ....
..6F|..|B-4 .... ....|B-4 ...F ....|C-4 .C.. ....
....|..|--- .... ....|--- .... ....|--- .... ....
....|..|D-5 ..F. 31.A|B-1 ..F. ....|--- .... ....
....|..|--- .... ....|B-4 ..3A ....|--- .... ....
..6F|..|--- .... ....|F#5 ...F ....|B-2 BC.. ....
....|..|--- .... ....|--- .... ....|--- .... ....
....|..|--- .... ....|B-1 ..F. ....|--- .... ....
....|..|--- .... ....|F#5 ..3A ....|--- .... ....
....|..|R-- .... ....|D-5 ...F ....|C-4 S... ....
....|..|--- .... ....|--- .... ....|--- .... ....
....|..|--- .... ....|B-1 ..F. ....|--- .... ....
....|..|--- .... ....|D-5 ..3A ....|--- .... ....
..5D|..|--- .... ....|C#5 ...F ....|D-2 BC.. ....
....|..|--- .... ....|--- .... ....|--- .... ....
....|..|--- .... ....|D-2 ..F. ....|--- .... ....
....|..|--- .... ....|C#5 ..3A ....|--- .... ....
..8C|..|--- .... ....|B-4 ...F ....|C-4 KCF. ....
....|..|--- .... ....|--- .... ....|--- .... ....
....|..|A-4 ..3. ....|G-1 ..F. ....|--- .... ....
....|..|--- .... ....|B-4 ..3A ....|--- .... ....
..8C|..|B-4 .... ....|F#5 ...F ....|G-2 BC.. ....
....|..|--- .... ....|--- .... ....|--- .... ....
..8C|..|--- .... ....|G-1 ..F. ....|C-4 KC.. ....
....|..|--- .... ....|F#5 ..3A ....|--- .... ....
....|..|B-4 .... ....|D-5 ...F ....|C-4 S... ....
....|..|--- .... ....|--- .... ....|--- .... ....
....|..|--- .... ....|G-1 ..F. ....|--- .... ....
....|..|--- .... ....|D-5 ..3A ....|--- .... ....
..8C|..|--- .... ....|C#5 ...F ....|C-4 KC.. ....
....|..|--- .... ....|--- .... ....|--- .... ....
....|..|A-4 .... ....|G-1 ..F. ....|--- .... ....
....|..|--- .... ....|C#5 ..3A ....|--- .... ....
..8C|..|B-4 .... ....|B-4 ...F ....|C-4 .C.. ....
....|..|--- .... ....|--- .... ....|--- .... ....
....|..|--- .... ....|G-1 ..F. ....|--- .... ....
....|..|--- .... ....|B-4 ..3A ....|--- .... ....
..8C|..|F#4 ..F. 31.A|F#5 ...F ....|G-2 BC.. ....
....|..|--- .... ....|--- .... ....|--- .... ....
....|..|--- .... ....|G-1 ..F. ....|--- .... ....
....|..|--- .... ....|F#5 ..3A ....|--- .... ....
....|..|--- .... ....|D-5 ...F ....|C-4 S... ....
....|..|--- .... ....|--- .... ....|--- .... ....
....|..|--- .... ....|G-1 ..F. ....|--- .... ....
....|..|--- .... ....|D-5 ..3A ....|--- .... ....
..8C|..|R-- .... ....|C#5 ...F ....|G-2 BC.. ....
....|..|--- .... ....|--- .... ....|--- .... ....
....|..|--- .... ....|G-1 ..F. ....|--- .... ....
....|..|--- .... ....|C#5 ..3A ....|--- .... ....
..7C|..|--- .... ....|B-4 ...F ....|C-4 KC.. ....
....|..|--- .... ....|--- .... ....|--- .... ....
..7C|..|--- .... ....|A-1 ..F. ....|A-1 BCF. ....
....|..|--- .... ....|B-4 ..3A ....|A-1 .... ....
..7C|..|F#4 ..3. ....|F#5 ...F ....|C-4 KC.. ....
....|..|--- .... ....|--- .... ....|--- .... ....
..7C|..|--- .... ....|A-1 ..F. ....|A-1 BCF. ....
....|..|--- .... ....|F#5 ..3A ....|A-1 .... ....
..7C|..|F#4 .... ....|D-5 ...F ....|C-4 KC.. ....
....|..|--- .... ....|--- .... ....|--- .... ....
..7C|..|--- .... ....|A-1 ..F. ....|A-1 BCF. ....
....|..|--- .... ....|D-5 ..3A ....|A-1 .... ....
..7C|..|F#4 .... ....|C#5 ...F ....|C-4 KC.. ....
....|..|--- .... ....|--- .... ....|--- .... ....
..7C|..|F#4 .... ....|A-1 ..F. ....|A-1 BCF. ....
....|..|--- .... ....|C#5 ..3A ....|A-1 .... ....
..7C|..|--- .... ....|B-4 ...F ....|C-4 KC.. ....
....|..|--- .... ....|--- .... ....|--- .... ....
..7C|..|--- .... ....|A-1 ..F. ....|A-1 BCF. ....
....|..|--- .... ....|B-4 ..3A ....|A-1 .... ....
..7C|..|E-4 .... ....|F#5 ...F ....|C-4 KC.. ....
....|..|--- .... ....|--- .... ....|--- .... ....
..7C|..|D-4 ..F. 31.F|A-1 ..F. ....|A-1 BCF. ....
....|..|--- .... ....|F#5 ..3A ....|A-1 .... ....
..7C|..|--- .... ....|D-5 ...F ....|C-4 KC.. ....
....|..|--- .... ....|--- .... ....|--- .... ....
..BA|..|--- .... ....|A-1 ..F. ....|A-1 BCF. ....
....|..|--- .... ....|D-5 ..3A ....|A-1 .... ....
..8C|..|A-4 ..3. ....|C#5 ...F ....|C-4 KC.. ....
....|..|--- .... ....|--- .... ....|--- .... ....
..7C|..|--- .... ....|A-1 ..F. ....|A-1 BCF. ....
....|..|--- .... ....|C#5 ..3A ....|A-1 .... ....
..A6|.F|--- .... ....|B-4 ...F ....|C-4 SCF. ....
....|..|--- .... ....|--- .... ....|--- .... ....
....|.D|--- .... ....|E-1 ..F. ....|C-4 .... ....
....|..|--- .... ....|B-4 ..3A ....|--- .... ....
....|.B|F#4 .... ....|F#5 ...F ....|C-4 .... ....
....|..|--- .... ....|--- .... ....|--- .... ....
....|.9|G-4 ..F. 31.8|E-1 ..F. ....|C-4 .... ....
....|..|--- .... ....|F#5 ..3A ....|--- .... ....
....|.7|F#4 .... 31.9|D-5 ...F ....|C-4 .... ....
....|..|--- .... ....|--- .... ....|--- .... ....
....|.5|--- .... ....|E-1 ..F. ....|C-4 .... ....
....|..|--- .... ....|D-5 ..3A ....|--- .... ....
....|.3|--- .... ....|C#5 ...F ....|C-4 .... ....
....|..|--- .... ....|--- .... ....|--- .... ....
....|.1|--- .... ....|E-1 ..F. ....|C-4 .... ....
....|..|--- .... ....|C#5 ..3A ....|--- .... ....
..A6|..|R-- .... ....|B-4 ...F ....|C-4 KCF. ....
....|..|--- .... ....|--- .... ....|--- .... ....
....|..|--- .... ....|E-1 ..F. ....|--- .... ....
....|..|--- .... ....|B-4 ..3A ....|--- .... ....
..A6|..|--- .... ....|F#5 ...F ....|C-4 .C.. ....
....|..|--- .... ....|--- .... ....|--- .... ....
....|..|A-4 ..3. ....|E-1 ..F. ....|--- .... ....
....|..|--- .... ....|F#5 ..3A ....|--- .... ....
..A6|..|A-4 .... ....|D-5 ...F ....|C-4 .C.. ....
....|..|--- .... ....|--- .... ....|--- .... ....
..A6|..|B-4 ..F. 31.F|E-1 ..F. ....|E-1 BC.. ....
..A6|..|--- .... ....|D-5 ..3A ....|E-1 .C.. ....
....|..|--- .... ....|C#5 ...F ....|C-4 S... ....
....|..|--- .... ....|--- .... ....|--- .... ....
....|..|--- .... ....|E-1 ..F. ....|--- .... ....
....|..|--- .... ....|C#5 ..3A ....|--- .... ....

[Pattern12]
..6F|..|B-1 8..F ....|B-4 8F3F ....|C-4 KAFF ....
....|..|B-2 .... 312F|--- .... ....|--- .... ....
..6F|..|--- .... ....|B-1 ..F. ....|B-2 BC.. ....
....|..|--- .... ....|B-4 ..3A ....|--- .... ....
..6F|..|--- .... ....|F#5 ...F ....|C-4 SC.. ....
....|..|--- .... ....|--- .... ....|--- .... ....
..6F|..|--- .... ....|B-1 ..F. ....|B-2 BC.. ....
....|..|--- .... ....|F#5 ..3A ....|--- .... ....
..6F|..|B-1 .... ....|D-5 ...F ....|B-2 .C.. ....
....|..|--- .... ....|--- .... ....|--- .... ....
..6F|..|B-1 .... ....|B-1 ..F. ....|C-4 KC.. ....
....|..|--- .... ....|D-5 ..3A ....|--- .... ....
..6F|..|B-1 .... ....|C#5 ...F ....|C-4 SC.. ....
....|..|--- .... ....|--- .... ....|--- .... ....
..6F|..|B-1 .... ....|B-1 ..F. ....|B-2 BC.. ....
....|..|--- .... ....|C#5 ..3A ....|--- .... ....
..6F|..|B-2 .... 312F|B-4 ...F ....|C-4 KC.. ....
....|..|--- .... ....|--- .... ....|--- .... ....
..6F|..|--- .... ....|B-1 ..F. ....|B-2 BC.. ....
....|..|--- .... ....|B-4 ..3A ....|--- .... ....
..6F|..|--- .... ....|F#5 ...F ....|C-4 SC.. ....
....|..|--- .... ....|--- .... ....|--- .... ....
..6F|..|--- .... ....|B-1 ..F. ....|B-2 BC.. ....
....|..|--- .... ....|F#5 ..3A ....|--- .... ....
..5D|..|D-2 .... ....|D-5 ...F ....|D-3 .C.. ....
....|..|--- .... ....|--- .... ....|--- .... ....
..5D|..|D-2 .... ....|D-2 ..F. ....|C-4 KC.. ....
....|..|--- .... ....|D-5 ..3A ....|--- .... ....
..5D|..|--- .... ....|C#5 ...F ....|C-4 SC.. ....
....|..|--- .... ....|--- .... ....|--- .... ....
..8C|..|G-1 .... 316F|G-1 ..F. ....|G-2 BC.. ....
....|..|--- .... ....|C#5 ..3A ....|--- .... ....
..8C|..|G-2 .... 316F|B-4 ...F ....|C-4 KC.. ....
....|..|--- .... ....|--- .... ....|--- .... ....
..8C|..|--- .... ....|G-1 ..F. ....|G-2 BC.. ....
....|..|--- .... ....|B-4 ..3A ....|--- .... ....
..8C|..|--- .... ....|F#5 ...E ....|C-4 SC.. ....
....|..|--- .... ....|--- .... ....|--- .... ....
..8C|..|--- .... ....|G-1 ..FF ....|G-2 BC.. ....
....|..|--- .... ....|F#5 ..39 ....|--- .... ....
..8C|..|G-1 .... ....|D-5 ...E ....|G-2 .C.. ....
....|..|--- .... ....|--- .... ....|--- .... ....
..8C|..|G-1 .... ....|G-1 ..FF ....|C-4 KC.. ....
....|..|--- .... ....|D-5 ..39 ....|--- .... ....
..8C|..|G-1 .... ....|C#5 ...D ....|C-4 SC.. ....
....|..|--- .... ....|--- .... ....|--- .... ....
..8C|..|G-1 .... ....|G-1 ..FF ....|G-2 BC.. ....
....|..|--- .... ....|C#5 ..38 ....|--- .... ....
..8C|..|G-2 .... 316F|B-4 ...D ....|C-4 KC.. ....
....|..|--- .... ....|--- .... ....|--- .... ....
..8C|..|--- .... ....|G-1 ..FF ....|G-2 BC.. ....
....|..|--- .... ....|B-4 ..38 ....|--- .... ....
..8C|..|--- .... ....|F#5 ...C ....|C-4 SC.. ....
....|..|--- .... ....|--- .... ....|--- .... ....
..8C|..|--- .... ....|G-1 ..FF ....|G-2 BC.. ....
....|..|--- .... ....|F#5 ..37 ....|--- .... ....
..8C|..|--- .... ....|D-5 ...C ....|G-2 .C.. ....
....|..|--- .... ....|--- .... ....|--- .... ....
..8C|..|--- .... ....|G-1 ..FF ....|C-4 KC.. ....
....|..|--- .... ....|D-5 ..37 ....|--- .... ....
..8C|..|--- ...D ....|C#5 ...B ....|C-4 SC.. ....
....|..|--- .... ....|--- .... ....|--- .... ....
..8C|..|--- ...C ....|G-1 ..FF ....|C-4 KC.. ....
....|..|--- .... ....|C#5 ..36 ....|--- .... ....
..7C|..|--- ...B ....|B-4 ...B ....|C-4 .C.. ....
....|..|--- .... ....|--- .... ....|--- .... ....
..7C|..|--- ...A ....|A-1 ..FF ....|A-2 BC.. ....
....|..|--- .... ....|B-4 ..36 ....|--- .... ....
..7C|..|E-5 L.3F ....|A-1 ..F8 ....|C-4 SC.. ....
....|..|--- .... ....|--- .... ....|--- .... ....
..7C|..|--- .... ....|A-1 ...F ....|A-2 BC.. ....
....|..|--- .... ....|--- .... ....|--- .... ....
..7C|..|E-5 .... ....|A-1 ...9 ....|A-2 .C.. ....
....|..|--- .... ....|--- .... ....|--- .... ....
..7C|..|--- .... ....|A-1 ...F ....|C-4 KC.. ....
....|..|--- .... ....|--- .... ....|--- .... ....
..7C|..|E-5 .... ....|A-1 ...A ....|C-4 SC.. ....
....|..|--- .... ....|--- .... ....|--- .... ....
..7C|..|E-5 .... ....|A-1 ...F ....|A-2 BC.. ....
....|..|--- .... ....|--- .... ....|--- .... ....
..7C|..|--- .... ....|A-1 ...B ....|C-4 KC.. ....
....|..|--- .... ....|--- .... ....|--- .... ....
..7C|..|--- .... ....|A-1 ...F ....|A-2 BC.. ....
....|..|--- .... ....|--- .... ....|--- .... ....
..7C|..|D-5 .... ....|A-1 ...C ....|C-4 SC.. ....
....|..|--- .... ....|--- .... ....|--- .... ....
..7C|..|E-5 ..F. 31.F|A-1 ...F ....|A-2 BC.. ....
....|..|--- .... ....|--- .... ....|--- .... ....
..7C|..|--- .... ....|A-1 ...D ....|A-2 .C.. ....
....|..|--- .... ....|--- .... ....|--- .... ....
..BA|..|--- .... ....|D-1 ...F ....|C-4 KC.. ....
....|..|--- .... ....|--- .... ....|--- .... ....
..8C|..|F#5 ..3. ....|G-1 ...E ....|C-4 SC.. ....
....|..|--- .... ....|--- .... ....|--- .... ....
..7C|..|E-5 ..F. 31.A|A-1 ...F ....|A-2 BC.. ....
....|..|--- .... ....|--- .... ....|--- .... ....
..A6|..|--- .... ....|E-1 .... ....|C-4 KC.. ....
....|..|--- .... ....|--- .... ....|--- .... ....
..A6|..|D-5 ..3. ....|E-1 .... ....|E-2 BC.. ....
....|..|--- .... ....|--- .... ....|--- .... ....
..A6|..|B-4 ..F. 31.A|E-1 .... ....|C-4 SC.. ....
....|..|--- .... ....|--- .... ....|--- .... ....
..A6|..|--- .... ....|E-1 .... ....|E-2 BC.. ....
....|..|--- .... ....|--- .... ....|--- .... ....
..A6|..|--- .... ....|E-1 .... ....|E-2 .C.. ....
....|..|--- .... ....|--- .... ....|--- .... ....
..A6|..|--- .... ....|E-1 .... ....|C-4 KC.. ....
....|..|--- .... ....|--- .... ....|--- .... ....
..A6|..|C#5 1.3A ....|E-1 .... ....|C-4 SC.. ....
....|..|--- .... ....|--- .... ....|--- .... ....
..A6|..|D-5 ...C ....|E-1 .... ....|E-2 BC.. ....
....|..|--- .... ....|--- .... ....|--- .... ....
..A6|..|C#5 ...A ....|E-1 .... ....|C-4 KC.. ....
....|..|--- .... ....|--- .... ....|--- .... ....
..A6|..|F#4 ...F ....|E-1 .... ....|E-2 BC.. ....
....|..|--- .... ....|--- .... ....|--- .... ....
..A6|..|D-5 .... ....|E-1 .... ....|C-4 SC.. ....
....|..|--- .... ....|--- .... ....|--- .... ....
..A6|..|E-5 .... ....|E-1 .... ....|E-2 BC.. ....
....|..|--- .... ....|--- .... ....|--- .... ....
..A6|..|D-5 ...A ....|E-1 .... ....|E-2 .C.. ....
....|..|--- .... ....|--- .... ....|--- .... ....
..A6|..|F#4 ...F ....|E-1 .... ....|C-4 KC.. ....
..A6|..|--- .... ....|--- .... ....|C-4 .C.. ....
..A6|..|E-5 .... ....|E-1 .... ....|C-4 SC.. ....
....|..|--- .... ....|--- .... ....|--- .... ....
..A6|..|F#5 .... ....|E-1 .... ....|C-4 KC.. ....
....|..|--- .... ....|--- .... ....|--- .... ....

[Pattern13]
..6F|..|R-- .... ....|B-4 1F3F ....|C-4 KCFF ....
....|..|--- .... ....|--- .... ....|--- .... ....
....|..|--- .... ....|B-1 ..F. ....|--- .... ....
....|..|--- .... ....|B-4 ..3A ....|--- .... ....
..6F|..|--- .... ....|F#5 ...F ....|B-2 BC.. ....
....|..|--- .... ....|--- .... ....|--- .... ....
..6F|..|--- .... ....|B-1 ..F. ....|C-4 KC.. ....
....|..|--- .... ....|F#5 ..3A ....|--- .... ....
....|..|F#4 L.3F ....|D-5 ...F ....|C-4 S... ....
....|..|--- .... ....|--- .... ....|--- .... ....
....|..|--- .... ....|B-1 ..F. ....|--- .... ....
....|..|--- .... ....|D-5 ..3A ....|--- .... ....
..6F|..|F#4 .... ....|C#5 ...F ....|C-4 KC.. ....
....|..|--- .... ....|--- .... ....|--- .... ....
....|..|F#4 .... ....|B-1 ..F. ....|--- .... ....
....|..|--- .... ....|C#5 ..3A ....|--- .... ....
..6F|..|--- .... ....|B-4 ...F ....|C-4 .C.. ....
....|..|--- .... ....|--- .... ....|--- .... ....
....|..|--- .... 11.1|B-1 ..F. ....|--- .... ....
....|..|--- .... ....|B-4 ..3A ....|--- .... ....
..6F|..|D-4 .... ....|F#5 ...F ....|B-2 BC.. ....
....|..|--- .... ....|--- .... ....|--- .... ....
....|..|--- .... ....|B-1 ..F. ....|--- .... ....
....|..|--- .... ....|F#5 ..3A ....|--- .... ....
....|..|--- .... ....|D-5 ...F ....|C-4 S... ....
....|..|--- .... ....|--- .... ....|--- .... ....
....|..|--- .... ....|B-1 ..F. ....|--- .... ....
....|..|--- .... ....|D-5 ..3A ....|--- .... ....
..5D|..|--- .... ....|C#5 ...F ....|D-2 BC.. ....
....|..|--- .... ....|--- .... ....|--- .... ....
....|..|--- .... ....|D-2 ..F. ....|--- .... ....
....|..|--- .... ....|C#5 ..3A ....|--- .... ....
..8C|..|--- .... ....|B-4 ...F ....|C-4 KCF. ....
....|..|--- .... ....|--- .... ....|--- .... ....
....|..|--- .... ....|G-1 ..F. ....|--- .... ....
....|..|--- .... ....|B-4 ..3A ....|--- .... ....
..8C|..|--- .... ....|F#5 ...F ....|G-2 BC.. ....
....|..|--- .... ....|--- .... ....|--- .... ....
..8C|..|--- .... ....|G-1 ..F. ....|C-4 KC.. ....
....|..|--- .... ....|F#5 ..3A ....|--- .... ....
....|..|G-4 .... ....|D-5 ...F ....|C-4 S... ....
....|..|--- .... ....|--- .... ....|--- .... ....
....|..|--- .... ....|G-1 ..F. ....|--- .... ....
....|..|--- .... ....|D-5 ..3A ....|--- .... ....
..8C|..|G-4 .... ....|C#5 ...F ....|C-4 KC.. ....
....|..|--- .... ....|--- .... ....|--- .... ....
....|..|G-4 .... ....|G-1 ..F. ....|--- .... ....
....|..|--- .... ....|C#5 ..3A ....|--- .... ....
..8C|..|--- .... ....|B-4 ...F ....|C-4 .C.. ....
....|..|--- .... ....|--- .... ....|--- .... ....
....|..|--- .... 11.1|G-1 ..F. ....|--- .... ....
....|..|--- .... ....|B-4 ..3A ....|--- .... ....
..8C|..|E-4 .... ....|F#5 ...F ....|G-2 BC.. ....
....|..|--- .... ....|--- .... ....|--- .... ....
....|..|--- .... ....|G-1 ..F. ....|--- .... ....
....|..|--- .... ....|F#5 ..3A ....|--- .... ....
....|..|--- .... ....|D-5 ...F ....|C-4 S... ....
....|..|--- .... ....|--- .... ....|--- .... ....
....|..|--- .... ....|G-1 ..F. ....|--- .... ....
....|..|--- .... ....|D-5 ..3A ....|--- .... ....
..8C|..|--- .... ....|C#5 ...F ....|G-2 BC.. ....
....|..|--- .... ....|--- .... ....|--- .... ....
....|..|--- .... ....|G-1 ..F. ....|--- .... ....
....|..|--- .... ....|C#5 ..3A ....|--- .... ....
..7C|..|--- .... ....|B-4 ...F ....|C-4 KCF. ....
....|..|--- .... ....|--- .... ....|--- .... ....
....|..|--- .... ....|A-1 ..F. ....|--- .... ....
....|..|--- .... ....|B-4 ..3A ....|--- .... ....
..7C|..|--- .... ....|F#5 ...F ....|A-2 BC.. ....
....|..|--- .... ....|--- .... ....|--- .... ....
..7C|..|--- .... ....|A-1 ..F. ....|C-4 KC.. ....
....|..|--- .... ....|F#5 ..3A ....|--- .... ....
....|..|E-4 .... ....|D-5 ...F ....|C-4 S... ....
....|..|--- .... ....|--- .... ....|--- .... ....
....|..|--- .... ....|A-1 ..F. ....|--- .... ....
....|..|--- .... ....|D-5 ..3A ....|--- .... ....
..7C|..|E-4 .... ....|C#5 ...F ....|C-4 KC.. ....
....|..|--- .... ....|--- .... ....|--- .... ....
....|..|E-4 .... ....|A-1 ..F. ....|--- .... ....
....|..|--- .... ....|C#5 ..3A ....|--- .... ....
..7C|..|--- .... ....|B-4 ...F ....|C-4 .C.. ....
....|..|--- .... ....|--- .... ....|--- .... ....
....|..|--- .... ....|A-1 ..F. ....|--- .... ....
....|..|--- .... ....|B-4 ..3A ....|--- .... ....
..7C|..|D-4 .... ....|F#5 ...F ....|A-2 BC.. ....
....|..|--- .... 21.1|--- .... ....|--- .... ....
....|..|E-4 .... 31.F|A-1 ..F. ....|--- .... ....
....|..|--- .... ....|F#5 ..3A ....|--- .... ....
....|..|--- .... ....|D-5 ...F ....|C-4 S... ....
....|..|--- .... ....|--- .... ....|--- .... ....
....|..|--- .... ....|A-1 ..F. ....|--- .... ....
....|..|--- .... ....|D-5 ..3A ....|--- .... ....
..8C|..|F#4 .... ....|C#5 ...F ....|G-2 BC.. ....
....|..|--- .... ....|--- .... ....|--- .... ....
....|..|--- .... ....|A-1 ..F. ....|--- .... ....
....|..|--- .... ....|C#5 ..3A ....|--- .... ....
..A6|..|E-4 .... ....|B-4 ...F ....|C-4 KCF. ....
....|..|--- .... ....|--- .... ....|--- .... ....
....|..|D-4 ..F. 31.A|E-1 ..F. ....|--- .... ....
....|..|--- .... ....|B-4 ..3A ....|--- .... ....
..A6|..|B-3 .... 31.A|F#5 ...F ....|E-2 BC.. ....
....|..|--- .... ....|--- .... ....|--- .... ....
..A6|..|--- .... ....|E-1 ..F. ....|C-4 KC.. ....
....|..|--- .... ....|F#5 ..3A ....|--- .... ....
....|..|--- .... ....|D-5 ...F ....|C-4 S... ....
....|..|--- .... ....|--- .... ....|--- .... ....
....|..|--- .... ....|E-1 ..F. ....|--- .... ....
....|..|--- .... ....|D-5 ..3A ....|--- .... ....
..A6|..|--- .... ....|C#5 ...F ....|C-4 KC.. ....
....|..|--- .... ....|--- .... ....|--- .... ....
....|..|--- .... ....|E-1 ..F. ....|--- .... ....
....|..|--- .... ....|C#5 ..3A ....|--- .... ....
..A6|..|--- .... ....|B-4 ...F ....|C-4 .C.. ....
....|..|--- .... ....|--- .... ....|--- .... ....
....|..|--- .... ....|E-1 ..F. ....|--- .... ....
....|..|--- .... ....|B-4 ..3A ....|--- .... ....
..A6|..|--- .... ....|F#5 ...F ....|E-2 BC.. ....
....|..|--- .... ....|--- .... ....|--- .... ....
....|..|--- .... ....|E-1 ..F. ....|--- .... ....
....|..|--- .... ....|F#5 ..3A ....|--- .... ....
....|..|--- .... ....|D-5 ...F ....|C-4 S... ....
....|..|--- .... ....|--- .... ....|--- .... ....
....|..|--- .... ....|E-1 ..F. ....|--- .... ....
....|..|--- .... ....|D-5 ..3A ....|--- .... ....
..A6|..|--- .... ....|C#5 ...F ....|E-2 BC.. ....
....|..|--- .... ....|--- .... ....|--- .... ....
....|..|--- .... ....|E-1 ..F. ....|--- .... ....
....|..|--- .... ....|C#5 ..3A ....|--- .... ....

[Pattern14]
..6F|..|--- .... ....|B-4 1F3F ....|C-4 KCFF ....
....|..|--- .... ....|--- .... ....|--- .... ....
....|..|--- .... ....|B-1 ..F. ....|--- .... ....
....|..|--- .... ....|B-4 ..3A ....|--- .... ....
..6F|..|--- .... ....|F#5 ...F ....|B-2 BC.. ....
....|..|--- .... ....|--- .... ....|--- .... ....
..6F|..|--- .... ....|B-1 ..F. ....|C-4 KC.. ....
....|..|--- .... ....|F#5 ..3A ....|--- .... ....
....|..|F#4 L.3F ....|D-5 ...F ....|C-4 S... ....
....|..|--- .... ....|--- .... ....|--- .... ....
....|..|--- .... ....|B-1 ..F. ....|--- .... ....
....|..|--- .... ....|D-5 ..3A ....|--- .... ....
..6F|..|F#4 .... ....|C#5 ...F ....|C-4 KC.. ....
....|..|--- .... ....|--- .... ....|--- .... ....
....|..|F#4 .... ....|B-1 ..F. ....|--- .... ....
....|..|--- .... ....|C#5 ..3A ....|--- .... ....
..6F|..|--- .... ....|B-4 ...F ....|C-4 .C.. ....
....|..|--- .... ....|--- .... ....|--- .... ....
....|..|--- .... 11.1|B-1 ..F. ....|--- .... ....
....|..|--- .... ....|B-4 ..3A ....|--- .... ....
..6F|..|D-4 .... ....|F#5 ...F ....|B-2 BC.. ....
....|..|--- .... ....|--- .... ....|--- .... ....
....|..|--- .... ....|B-1 ..F. ....|--- .... ....
....|..|--- .... ....|F#5 ..3A ....|--- .... ....
....|..|--- .... ....|D-5 ...F ....|C-4 S... ....
....|..|--- .... ....|--- .... ....|--- .... ....
....|..|--- .... ....|B-1 ..F. ....|--- .... ....
....|..|--- .... ....|D-5 ..3A ....|--- .... ....
..5D|..|--- .... ....|C#5 ...F ....|D-2 BC.. ....
....|..|--- .... ....|--- .... ....|--- .... ....
....|..|--- .... ....|D-2 ..F. ....|--- .... ....
....|..|--- .... ....|C#5 ..3A ....|--- .... ....
..8C|..|--- .... ....|B-4 ...F ....|C-4 KCF. ....
....|..|--- .... ....|--- .... ....|--- .... ....
....|..|--- .... ....|G-1 ..F. ....|--- .... ....
....|..|--- .... ....|B-4 ..3A ....|--- .... ....
..8C|..|--- .... ....|F#5 ...F ....|G-2 BC.. ....
....|..|--- .... ....|--- .... ....|--- .... ....
..8C|..|--- .... ....|G-1 ..F. ....|C-4 KC.. ....
....|..|--- .... ....|F#5 ..3A ....|--- .... ....
....|..|G-4 .... ....|D-5 ...F ....|C-4 S... ....
....|..|--- .... ....|--- .... ....|--- .... ....
....|..|--- .... ....|G-1 ..F. ....|--- .... ....
....|..|--- .... ....|D-5 ..3A ....|--- .... ....
..8C|..|G-4 .... ....|C#5 ...F ....|C-4 KC.. ....
....|..|--- .... ....|--- .... ....|--- .... ....
....|..|G-4 .... ....|G-1 ..F. ....|--- .... ....
....|..|--- .... ....|C#5 ..3A ....|--- .... ....
..8C|..|--- .... ....|B-4 ...F ....|C-4 .C.. ....
....|..|--- .... ....|--- .... ....|--- .... ....
....|..|--- .... 11.1|G-1 ..F. ....|--- .... ....
....|..|--- .... ....|B-4 ..3A ....|--- .... ....
..8C|..|E-4 .... ....|F#5 ...F ....|G-2 BC.. ....
....|..|--- .... ....|--- .... ....|--- .... ....
....|..|--- .... ....|G-1 ..F. ....|--- .... ....
....|..|--- .... ....|F#5 ..3A ....|--- .... ....
....|..|--- .... ....|D-5 ...F ....|C-4 S... ....
....|..|--- .... ....|--- .... ....|--- .... ....
....|..|--- .... ....|G-1 ..F. ....|--- .... ....
....|..|--- .... ....|D-5 ..3A ....|--- .... ....
..8C|..|--- .... ....|C#5 ...F ....|G-2 BC.. ....
....|..|--- .... ....|--- .... ....|--- .... ....
....|..|--- .... ....|G-1 ..F. ....|--- .... ....
....|..|--- .... ....|C#5 ..3A ....|--- .... ....
..7C|..|--- .... ....|B-4 ...F ....|C-4 KCF. ....
....|..|--- .... ....|--- .... ....|--- .... ....
....|..|--- .... ....|A-1 ..F. ....|--- .... ....
....|..|--- .... ....|B-4 ..3A ....|--- .... ....
..7C|..|--- .... ....|F#5 ...F ....|A-2 BC.. ....
....|..|--- .... ....|--- .... ....|--- .... ....
..7C|..|--- .... ....|A-1 ..F. ....|C-4 KC.. ....
....|..|--- .... ....|F#5 ..3A ....|--- .... ....
....|..|E-4 .... ....|D-5 ...F ....|C-4 S... ....
....|..|--- .... ....|--- .... ....|--- .... ....
....|..|--- .... ....|A-1 ..F. ....|--- .... ....
....|..|--- .... ....|D-5 ..3A ....|--- .... ....
..7C|..|E-4 .... ....|C#5 ...F ....|C-4 KC.. ....
....|..|--- .... ....|--- .... ....|--- .... ....
....|..|E-4 .... ....|A-1 ..F. ....|--- .... ....
....|..|--- .... ....|C#5 ..3A ....|--- .... ....
..7C|..|--- .... ....|B-4 ...F ....|C-4 .C.. ....
....|..|--- .... ....|--- .... ....|--- .... ....
....|..|--- .... ....|A-1 ..F. ....|--- .... ....
....|..|--- .... ....|B-4 ..3A ....|--- .... ....
..7C|..|D-4 .... ....|F#5 ...F ....|A-2 BC.. ....
....|..|--- .... 21.1|--- .... ....|--- .... ....
....|..|E-4 .... 31.F|A-1 ..F. ....|--- .... ....
....|..|--- .... ....|F#5 ..3A ....|--- .... ....
....|..|--- .... ....|D-5 ...F ....|C-4 S... ....
....|..|--- .... ....|--- .... ....|--- .... ....
....|..|--- .... ....|A-1 ..F. ....|--- .... ....
....|..|--- .... ....|D-5 ..3A ....|--- .... ....
..8C|..|F#4 .... ....|C#5 ...F ....|G-2 BC.. ....
....|..|--- .... ....|--- .... ....|--- .... ....
....|..|--- .... ....|A-1 ..F. ....|--- .... ....
....|..|--- .... ....|C#5 ..3A ....|--- .... ....
..A6|..|E-4 ..F. 31.A|B-4 ...F ....|C-4 KCF. ....
....|..|--- .... ....|--- .... ....|--- .... ....
....|..|--- .... ....|E-1 ..F. ....|--- .... ....
....|..|--- .... ....|B-4 ..3A ....|--- .... ....
..A6|..|F#4 ..3. 31.A|F#5 ...F ....|E-2 BC.. ....
....|..|--- .... ....|--- .... ....|--- .... ....
..A6|..|--- .... ....|E-1 ..F. ....|C-4 KC.. ....
....|..|--- .... ....|F#5 ..3A ....|--- .... ....
....|..|--- .... ....|D-5 ...F ....|C-4 S... ....
....|..|--- .... ....|--- .... ....|--- .... ....
....|..|--- .... ....|E-1 ..F. ....|--- .... ....
....|..|--- .... ....|D-5 ..3A ....|--- .... ....
..A6|..|--- .... ....|C#5 ...F ....|C-4 KC.. ....
....|..|--- .... ....|--- .... ....|--- .... ....
....|..|--- .... ....|E-1 ..F. ....|--- .... ....
....|..|--- .... ....|C#5 ..3A ....|--- .... ....
..A6|..|--- .... ....|B-4 ...F ....|C-4 .C.. ....
....|..|--- .... ....|--- .... ....|--- .... ....
....|..|--- .... ....|E-1 ..F. ....|--- .... ....
....|..|--- .... ....|B-4 ..3A ....|--- .... ....
..A6|..|--- .... ....|F#5 ...F ....|E-2 BC.. ....
....|..|--- .... ....|--- .... ....|--- .... ....
....|..|--- .... ....|E-1 ..F. ....|--- .... ....
....|..|--- .... ....|F#5 ..3A ....|--- .... ....
....|..|--- .... ....|D-5 ...F ....|C-4 S... ....
....|..|--- .... ....|--- .... ....|--- .... ....
....|..|--- .... ....|E-1 ..F. ....|--- .... ....
....|..|--- .... ....|D-5 ..3A ....|--- .... ....
..A6|..|--- .... ....|C#5 ...F ....|E-2 BC.. ....
....|..|--- .... ....|--- .... ....|--- .... ....
....|..|--- .... ....|E-1 ..F. ....|--- .... ....
....|..|--- .... ....|C#5 ..3A ....|--- .... ....

[Pattern15]
..6F|..|E-5 2F3A ....|C-4 KC.. ....|C-4 S... ....
....|..|--- .... ....|--- .... ....|--- .... ....
....|..|F#4 ...F ....|--- .... ....|B-1 7... ....
....|..|--- .... ....|--- .... ....|--- .... ....
....|..|B-4 .... ....|--- .... ....|--- .... ....
....|..|--- .... ....|--- .... ....|--- .... ....
....|..|C#5 .... ....|--- .... ....|--- .... ....
....|..|--- .... ....|--- .... ....|--- .... ....
....|..|B-4 ...A ....|--- .... ....|--- .... ....
....|..|--- .... ....|--- .... ....|--- .... ....
....|..|F#4 ...F ....|--- .... ....|--- .... ....
....|..|--- .... ....|--- .... ....|--- .... ....
....|..|C#5 .... ....|--- .... ....|--- .... ....
....|..|--- .... ....|--- .... ....|--- .... ....
....|..|D-5 .... ....|--- .... ....|--- .... ....
....|..|--- .... ....|--- .... ....|--- .... ....
....|..|C#5 ...A ....|--- .... ....|--- .... ....
....|..|--- .... ....|--- .... ....|--- .... ....
....|..|F#4 ...F ....|--- .... ....|--- .... ....
....|..|--- .... ....|--- .... ....|--- .... ....
....|..|D-5 .... ....|--- .... ....|--- .... ....
....|..|--- .... ....|--- .... ....|--- .... ....
....|..|E-5 .... ....|--- .... ....|--- .... ....
....|..|--- .... ....|--- .... ....|--- .... ....
....|..|D-5 ...A ....|--- .... ....|--- .... ....
....|..|--- .... ....|--- .... ....|--- .... ....
....|..|F#4 ...F ....|--- .... ....|--- .... ....
....|..|--- .... ....|--- .... ....|--- .... ....
....|..|E-5 .... ....|--- .... ....|--- .... ....
....|..|--- .... ....|--- .... ....|--- .... ....
....|..|F#5 .... ....|--- .... ....|--- .... ....
....|..|--- .... ....|--- .... ....|--- .... ....
....|..|E-5 ...A ....|C-4 .... 91.1|--- .... 1110
....|..|--- .... ....|--- .... ....|--- .... ....
....|..|F#4 ...F ....|--- .... ....|--- .... ....
....|..|--- .... ....|--- .... ....|--- .... ....
....|..|B-4 .... ....|--- .... ....|--- .... ....
....|..|--- .... ....|--- .... ....|--- .... ....
....|..|C#5 .... ....|--- .... ....|--- .... ....
....|..|--- .... ....|--- .... ....|--- .... ....
....|..|B-4 ...A ....|--- .... ....|--- .... ....
....|..|--- .... ....|--- .... ....|--- .... ....
....|..|F#4 ...F ....|--- .... ....|--- .... ....
....|..|--- .... ....|--- .... ....|--- .... ....
....|..|C#5 .... ....|--- .... ....|--- .... ....
....|..|--- .... ....|--- .... ....|--- .... ....
....|..|D-5 .... ....|--- .... ....|--- .... ....
....|..|--- .... ....|--- .... ....|--- .... ....
....|..|C#5 ...A ....|--- .... ....|--- .... ....
....|..|--- .... ....|--- .... ....|--- .... ....
....|..|F#4 ...F ....|--- .... ....|--- .... ....
....|..|--- .... ....|--- .... ....|--- .... ....
....|..|D-5 .... ....|--- .... ....|--- .... ....
....|..|--- .... ....|--- .... ....|--- .... ....
....|..|E-5 .... ....|--- .... ....|--- .... ....
....|..|--- .... ....|--- .... ....|--- .... ....
....|..|D-5 ...A ....|--- .... ....|--- .... ....
....|..|--- .... ....|--- .... ....|--- .... ....
....|..|F#4 ...F ....|--- .... ....|--- .... ....
....|..|--- .... ....|--- .... ....|--- .... ....
....|..|E-5 .... ....|--- .... ....|--- .... ....
....|..|--- .... ....|--- .... ....|--- .... ....
....|..|F#5 .... ....|--- .... ....|--- .... ....
....|..|--- .... ....|--- .... ....|--- .... ....
....|..|E-5 1..A ....|C-4 JFFF ....|C-4 SFFF ....
....|..|--- .... ....|--- .... ....|--- .... ....
....|..|F#5 .... ....|--- .... ....|--- .... ....
....|..|--- .... ....|--- .... ....|--- .... ....
....|..|E-5 ...8 ....|--- .... ....|--- .... ....
....|..|--- .... ....|--- .... ....|--- .... ....
....|..|F#5 .... ....|--- .... ....|--- .... ....
....|..|--- .... ....|--- .... ....|--- .... ....
....|..|E-5 ...6 ....|--- .... ....|--- .... ....
....|..|--- .... ....|--- .... ....|--- .... ....
....|..|F#5 .... ....|--- .... ....|--- .... ....
....|..|--- .... ....|--- .... ....|--- .... ....
....|..|E-5 ...4 ....|--- .... ....|--- .... ....
....|..|--- .... ....|--- .... ....|--- .... ....
....|..|F#5 .... ....|--- .... ....|--- .... ....
....|..|--- .... ....|--- .... ....|--- .... ....
....|..|E-5 ...2 ....|--- .... ....|--- .... ....
....|..|--- .... ....|--- .... ....|--- .... ....
....|..|F#5 .... ....|--- .... ....|--- .... ....
....|..|--- .... ....|--- .... ....|--- .... ....
....|..|E-5 ...1 ....|--- .... ....|--- .... ....
....|..|--- .... ....|--- .... ....|--- .... ....
....|..|F#5 .... ....|--- .... ....|--- .... ....
....|..|--- .... ....|--- .... ....|--- .... ....
....|..|R-- .... ....|--- .... ....|--- .... ....
....|..|--- .... ....|--- .... ....|--- .... ....
....|..|--- .... ....|--- .... ....|--- .... ....
....|..|--- .... ....|--- .... ....|--- .... ....
....|..|--- .... ....|--- .... ....|--- .... ....
....|..|--- .... ....|--- .... ....|--- .... ....
....|..|--- .... ....|--- .... ....|--- .... ....
....|..|--- .... ....|--- .... ....|--- .... ....
....|..|--- .... ....|--- .... ....|--- .... ....
....|..|--- .... ....|--- .... ....|--- .... ....
....|..|--- .... ....|--- .... ....|--- .... ....
....|..|--- .... ....|--- .... ....|--- .... ....
....|..|--- .... ....|--- .... ....|--- .... ....
....|..|--- .... ....|--- .... ....|--- .... ....
....|..|--- .... ....|--- .... ....|--- .... ....
....|..|--- .... ....|--- .... ....|--- .... ....
....|..|--- .... ....|--- .... ....|--- .... ....
....|..|--- .... ....|--- .... ....|--- .... ....
....|..|--- .... ....|--- .... ....|--- .... ....
....|..|--- .... ....|--- .... ....|--- .... ....
....|..|--- .... ....|--- .... ....|--- .... ....
....|..|--- .... ....|--- .... ....|--- .... ....
....|..|--- .... ....|--- .... ....|--- .... ....
....|..|--- .... ....|--- .... ....|--- .... ....
....|..|--- .... ....|--- .... ....|--- .... ....
....|..|--- .... ....|--- .... ....|--- .... ....
....|..|--- .... ....|--- .... ....|--- .... ....
....|..|--- .... ....|--- .... ....|--- .... ....
....|..|--- .... ....|--- .... ....|--- .... ....
....|..|--- .... ....|--- .... ....|--- .... ....
....|..|--- .... ....|--- .... ....|--- .... ....
....|..|--- .... ....|--- .... ....|--- .... ....
....|..|--- .... ....|--- .... ....|--- .... ....
....|..|--- .... ....|--- .... ....|--- .... ....
....|..|--- .... ....|--- .... ....|--- .... ....
....|..|--- .... ....|--- .... ....|--- .... ....
....|..|--- .... ....|--- .... ....|--- .... ....
....|..|--- .... ....|--- .... ....|--- .... ....
....|..|--- .... ....|--- .... ....|--- .... ....
....|..|--- .... ....|--- .... ....|--- .... ....

