[Module]
VortexTrackerII=0
Version=3.5
Title=Basterdale Farm - Ingame
Author=Lee Bee
NoteTable=2
Speed=4
PlayOrder=L15,0,34,0,34,2,13,2,14,1,17,1,16,11,31,3,4,12,18,9,8,5,6,29,38,7,30,10,30,1,17,1,16,21,22,23,24,25,26,27,28,29,38,7,30,10,30,1,17,1,16,32,32,32,32,33,33,33,33,35,35,35,35,36,36,36,37,38,7,30,10,30,1,17,1,16,19,20,19,16,15,15,15

[Ornament1]
24,24,24,L0

[Ornament2]
L0

[Ornament3]
L-12,-4,-9

[Ornament4]
L0

[Ornament5]
L0,9,6

[Ornament6]
L0

[Ornament7]
L0,-10

[Ornament8]
L0

[Ornament9]
L0

[Ornament10]
L0

[Ornament11]
L0

[Ornament12]
L0

[Ornament13]
L0

[Ornament14]
L0

[Ornament15]
L0

[Sample1]
Tne +000_ +00_ F_
Tne +000_ +00_ F_
Tne +001_ +00_ 8_
Tne +002_ +00_ 6_
Tne +001_ +00_ 5- L
Tne -001_ +00_ 4-
Tne -002_ +00_ 4_

[Sample2]
Tne +000_ +00_ F_
Tne +000_ +00_ C_
Tne +001_ +00_ 7_
Tne +002_ +00_ 3_
Tne +001_ +00_ 2- L
Tne -001_ +00_ 1-

[Sample3]
Tne +000_ +00_ F_
Tne +000_ +00_ F_
Tne +000_ +00_ F_ L
Tne +000_ +00_ E-
Tne +000_ +00_ E-

[Sample4]
Tne +000_ +00_ F_ L
Tne +000_ +00_ F_
Tne +000_ +00_ F_
Tne +000_ +00_ F_
Tne +000_ +00_ F-
Tne +000_ +00_ F-

[Sample5]
Tne +000_ +00_ F_
Tne +001_ +00_ F_ L
Tne +002_ +00_ F_
Tne +001_ +00_ F_
Tne -001_ +00_ F_
Tne -002_ +00_ F_
Tne -001_ +00_ F-

[Sample6]
tne +000_ +00_ 0_ L

[Sample7]
Tne +000_ +00_ F_
Tne -005_ +00_ F_
Tne +001_ +00_ E-
Tne +005_ +00_ F_
Tne +001_ +00_ E_
Tne -003_ +00_ D_ L
Tne -005_ +00_ D_
Tne -003_ +00_ D-
Tne +003_ +00_ D_
Tne +005_ +00_ D_
Tne +003_ +00_ D_

[Sample8]
Tne +000_ +00_ F_
TnE +000_ +00_ F_
TnE +001_ +00_ F_
TnE +002_ +00_ F_
TnE +001_ +00_ E_ L
TnE -001_ +00_ E_
TnE -002_ +00_ E_
TnE -001_ +00_ E_
TnE +001_ +00_ E_
TnE +002_ +00_ E_
TnE +001_ +00_ E_
TnE -001_ +00_ E_
TnE -002_ +00_ E_
TnE -001_ +00_ E-

[Sample9]
Tne +000_ +00_ F_
Tne +001_ +00_ F_ L
Tne +004_ +00_ F_
Tne +001_ +00_ E_
Tne -001_ +00_ D_
Tne -004_ +00_ D_
Tne -001_ +00_ D_
Tne +001_ +00_ D_
Tne +004_ +00_ D_
Tne +001_ +00_ E_
Tne -001_ +00_ F_
Tne -004_ +00_ F_
Tne -001_ +00_ F_
Tne +000_ +00_ F-

[Sample10]
TNe +100_ +0B_ F_
Tne +280_ +00_ F_
Tne +400_ +00_ E_
Tne +680_ +00_ C_
Tne +800_ +00_ A_
Tne +980_ +00_ 7_
Tne +B00_ +00_ 6- L

[Sample11]
TNe +100_ +07^ F_
tNe +200_ +00_ E_
TNe +300_ +07_ E_
TNe +096^ +00_ D_
tNe +055^ +00_ C- L
TNe +030^ +00_ C_

[Sample12]
tne +000_ +00_ 0_ L

[Sample13]
tne +000_ +00_ 0_ L

[Sample14]
Tne +000_ +00_ 4_ L
Tne +001_ +00_ 4_
Tne +004_ +00_ 4_
Tne +001_ +00_ 4_
Tne -001_ +00_ 4_
Tne -004_ +00_ 4_
Tne -001_ +00_ 4_
Tne +001_ +00_ 4_
Tne +004_ +00_ 4+

[Sample15]
TNe +050_ +09_ F_
Tne +078_ +00_ E_
TNe +0B4_ +0E_ D_
TNe +0C8^ +0E_ B_ L
TNe +0FA_ +00_ B-

[Sample16]
TNe +100_ +07^ F_
tNe +200_ +00_ E_
TNe +300_ +07_ D_ L
TNe +096^ +00_ C-
tNe +055^ +00_ C_

[Sample17]
tne +000_ +00_ 0_ L

[Sample18]
tne +000_ +00_ 0_ L

[Sample19]
TNe +100_ +00_ F_
Tne +280_ +00_ F_
Tne +400_ +00_ E_
Tne +000_ +00_ F_ L
Tne +000_ +00_ F-
Tne +000_ +00_ F_

[Sample20]
tNe +000_ +02_ D_
tNe +000_ +02_ B_
tNe +000_ +02_ A_
tNe +000_ +00_ 9_
tNe +000_ +00_ 9- L

[Sample21]
tne +000_ +00_ 0_ L

[Sample22]
tne +000_ +00_ 0_ L

[Sample23]
tne +000_ +00_ 0_ L

[Sample24]
tne +000_ +00_ 0_ L

[Sample25]
tne +000_ +00_ 0_ L

[Sample26]
tne +000_ +00_ 0_ L

[Sample27]
Tne -004_ +00_ F_
Tne -003_ +00_ C_ L
Tne +001_ +00_ A_
Tne +002_ +00_ 9_
Tne +001_ +00_ A_
Tne -001_ +00_ B_
Tne -002_ +00_ B_
Tne -001_ +00_ B_
Tne +001_ +00_ A_
Tne +002_ +00_ 9-
Tne +001_ +00_ 6_
Tne -001_ +00_ 4_

[Sample28]
tne +000_ +00_ 0_ L

[Sample29]
TnE +000_ +00_ F_
tne +000_ +00_ 0_ L

[Sample30]
Tne -004_ +00_ F_
Tne -003_ +00_ C_
Tne +001_ +00_ 9- L

[Sample31]
tne +000_ +00_ 0_ L

[Pattern0]
....|..|D-4 A..F ....|F-3 2.FF B..9|R-- .... ....
....|..|D-4 ...8 ....|F-4 .... ....|--- .... ....
....|..|D-4 B..F ....|F-4 .... ....|--- .... ....
....|..|D-4 ...8 ....|F-4 .... ....|--- .... ....
....|..|D-4 A..F ....|F-3 .... ....|--- .... ....
....|..|D-4 ...8 ....|F-4 .... ....|--- .... ....
....|..|D-4 B..F ....|F-4 .... ....|--- .... ....
....|..|D-4 ...8 ....|F-4 .... ....|--- .... ....
....|..|D-4 A..F ....|F-3 .... ....|--- .... ....
....|..|D-4 ...8 ....|F-4 .... ....|--- .... ....
....|..|D-4 B..F ....|F-4 .... ....|--- .... ....
....|..|D-4 ...8 ....|F-4 .... ....|--- .... ....
....|..|D-4 A..F ....|F-4 .... ....|--- .... ....
....|..|D-5 G... ....|D#4 .... ....|--- .... ....
....|..|D-4 B..C ....|C-4 .... ....|--- .... ....
....|..|D-4 ...F ....|D#4 .... ....|--- .... ....

[Pattern1]
..27|..|F-4 3.FE B..9|F-4 8CFF ....|F-2 J.1F ....
....|..|F-4 .... ....|--- .... ....|--- .... ....
....|..|F-4 .... ....|--- .... ....|D-4 B.F. ....
....|..|F-4 .... ....|--- .... ....|F-2 J.1A ....
....|..|F-4 .... ....|--- .... ....|F-2 ...F ....
..1E|..|F-4 .... ....|A#4 .C.. ....|F-4 F.F. ....
....|..|F-4 .... ....|R-- .... ....|D-5 K... ....
..21|..|D-5 G... ....|G#4 .C.. 11..|D#2 J.1. ....
....|..|--- .... ....|--- .... ....|G#2 .... ....
....|..|F-4 3... ....|--- .... ....|--- .... ....
....|..|F-4 .... ....|--- .... ....|D-4 B... ....
....|..|F-4 .... ....|--- .... 11.3|D#2 J... ....
..21|..|F-4 .... ....|G#4 TC.. ....|G#2 .... ....
..19|..|F-4 .... ....|C#5 8C.. 11.1|G#2 .... ....
..17|..|F-4 .... ....|D-5 .C.. 11.2|D-4 B.F. ....
..16|..|F-4 .... ....|D#5 .C.. ....|G#2 J.1A ....
....|..|G-4 .... ....|--- .... ....|D#2 ...F ....
....|..|G-4 .... ....|--- .... ....|--- .... ....
....|..|G-4 .... ....|--- .... ....|D-4 B.F. ....
....|..|G-4 .... ....|--- .... ....|A#2 J.1A ....
..16|..|G-4 .... ....|D#5 TC.. ....|D#2 ...F ....
..1A|..|G-4 .... ....|C-5 8C.. 11..|D#2 .... ....
..1C|..|G-4 .... ....|B-4 .C.. 11..|D-4 B.F. ....
..1D|..|F-4 .... ....|A#4 .C.. 11..|A#2 J.1A ....

[Pattern2]
..27|..|F-4 2.FF ....|F-4 8CFF ....|D-4 A..F B..9
....|..|F-4 .... ....|--- .... ....|D-4 ...8 ....
....|..|F-4 .... ....|--- .... ....|D-4 B..F ....
....|..|F-4 .... ....|--- .... ....|D-4 ...8 ....
....|..|F-4 .... ....|--- .... ....|D-4 A..F ....
..1E|..|F-4 .... ....|A#4 .C.. ....|D-4 ...8 ....
....|..|F-4 .... ....|R-- .... ....|D-4 B..F ....
..21|..|F-4 .... ....|G#4 .C.. 11..|--- .... ....
....|..|F-4 .... ....|--- .... ....|D-4 A... ....
....|..|F-4 .... ....|--- .... ....|D-4 ...8 ....
....|..|F-4 .... ....|--- .... ....|D-4 B..F ....
....|..|F-4 .... ....|--- .... 11.3|D-4 ...8 ....
..21|..|F-4 .... ....|G#4 TC.. ....|D-4 A..F ....
..19|..|F-4 .... ....|C#5 8C.. 11.1|D-5 G..E ....
..17|..|F-4 .... ....|D-5 .C.. 11.2|--- .... ....
..16|..|F-4 .... ....|D#5 .C.. ....|--- .... ....
....|..|F-4 .... ....|--- .... ....|D-4 A..F ....
....|..|F-4 .... ....|--- .... ....|D-4 ...8 ....
....|..|F-4 .... ....|--- .... ....|D-4 B..F ....
....|..|F-4 .... ....|--- .... ....|D-4 ...8 ....
..16|..|F-4 .... ....|D#5 TC.. ....|D-4 A..F ....
..1A|..|F-4 .... ....|C-5 8C.. 11..|D-4 ...8 ....
..1C|..|F-4 .... ....|B-4 .C.. 11..|D-4 B..F ....
..1D|..|G-4 .... ....|A#4 .C.. 11..|D-4 ...8 ....

[Pattern3]
....|..|G#5 7FFF B..9|F-2 J.1F ....|G#5 5.FC ....
....|..|--- .... ....|--- .... ....|--- .... ....
....|..|G#5 .... ....|C-5 B.F. ....|G#5 .... ....
....|..|--- .... ....|D-4 K..C ....|--- .... ....
....|..|G-5 .... ....|F-2 J.1F ....|G-5 .... ....
....|..|--- .... ....|--- ...A ....|--- .... ....
....|..|G#5 .... ....|C-5 B..F ....|G#5 .... ....
....|..|D#5 .... ....|D#2 4.F. ....|D#5 .... ....
....|..|--- .... ....|D-4 A... ....|--- .... ....
....|..|--- .... ....|D#2 J.1. ....|--- .... ....
....|..|--- .... ....|C-5 B.F. ....|--- .... ....
....|..|--- .... ....|D-4 K..C ....|--- .... ....
....|..|C-5 .... ....|D#2 J.1F ....|C-5 .... ....
....|..|--- .... ....|--- .... ....|--- .... ....
....|..|--- .... ....|C-5 B.F. ....|--- .... ....
....|..|--- .... ....|D-4 K... ....|--- .... ....
....|..|D#5 .... ....|C#2 J.1. ....|D#5 .... ....
....|..|--- .... ....|--- .... ....|--- .... ....
....|..|D#5 .... ....|C-5 B.F. ....|D#5 .... ....
....|..|--- .... ....|D-4 K..C ....|--- .... ....
....|..|D-5 .... ....|C#2 J.1F ....|D-5 .... ....
....|..|--- .... ....|--- ...A ....|--- .... ....
....|..|C-5 .... ....|C-5 B.FF ....|C-5 .... ....
....|..|F-4 .... ....|G#2 4... ....|G#4 4..F ....
....|..|--- .... ....|D-4 A... ....|--- .... ....
....|..|--- .... ....|G#2 J.1. ....|G#4 3... ....
....|..|C-5 B... ....|G#2 4.F. ....|G#4 .... ....
....|..|--- .... ....|--- .... ....|G#4 .... ....
....|..|--- .... ....|G-2 J.1. ....|G-4 .... ....
....|..|--- .... ....|--- .... ....|--- .... ....
....|..|C-5 .... ....|G#2 .... ....|D#4 4... ....
....|..|C-5 .... ....|--- .... ....|--- .... ....

[Pattern4]
....|..|G#5 7FFF B..9|F-2 J.1F ....|C-4 4.FF ....
....|..|--- .... ....|--- .... ....|--- .... ....
....|..|G#5 .... ....|C-5 B.F. ....|--- .... ....
....|..|--- .... ....|D-4 K..C ....|--- .... ....
....|..|G-5 .... ....|F-2 J.1F ....|G-5 5..C ....
....|..|--- .... ....|--- ...A ....|--- .... ....
....|..|G#5 .... ....|C-5 B..F ....|G#5 .... ....
....|..|A#5 .... ....|D#2 4.F. ....|A#5 .... ....
....|..|--- .... ....|D-4 A... ....|--- .... ....
....|..|--- .... ....|D#2 J.1. ....|--- .... ....
....|..|--- .... ....|C-5 B.F. ....|--- .... ....
....|..|--- .... ....|D-4 K..C ....|--- .... ....
....|..|F-5 .... ....|D#2 J.1F ....|F-5 .... ....
....|..|--- .... ....|--- .... ....|--- .... ....
....|..|--- .... ....|C-5 B.F. ....|--- .... ....
....|..|--- .... ....|D-4 K... ....|--- .... ....
....|..|C-6 .... 3120|A#1 J.1. ....|C-6 .... 3120
....|..|--- .... ....|--- .... ....|--- .... ....
....|..|C-6 .... ....|C-5 B.F. ....|C-6 .... ....
....|..|--- .... ....|D-4 K..C ....|--- .... ....
....|..|A#5 .... ....|A#1 J.1F ....|A#5 .... ....
....|..|--- .... ....|--- ...A ....|--- .... ....
....|..|C-6 .... ....|C-5 B.FF ....|C-6 .... ....
....|..|A#5 .... ....|C-2 4... ....|A#5 .... ....
....|..|--- .... ....|D-4 A... ....|C-4 7..D ....
....|..|--- .... ....|C-2 J.1. ....|E-4 .... ....
....|..|C-5 B... ....|C-2 4.F. ....|G-4 .... ....
....|..|--- .... ....|--- .... ....|C-4 .... ....
....|..|--- .... ....|G#2 J.1. ....|E-4 .... ....
....|..|--- .... ....|--- .... ....|G-4 .... ....
....|..|C-5 .... ....|G-2 .... ....|E-4 .... ....
....|..|C-5 .... ....|--- .... ....|C-5 .... ....

[Pattern5]
....|..|G#5 7FFF B..9|F-2 J.1F ....|F-4 3.FD ....
....|..|--- .... ....|--- .... ....|G#4 .... ....
....|..|G#5 .... ....|C-5 B.F. ....|C-5 .... ....
....|..|--- .... ....|D-4 K..C ....|G#4 .... ....
....|..|G-5 .... ....|F-2 J.1F ....|F-4 .... ....
....|..|--- .... ....|--- ...A ....|G#4 .... ....
....|..|G#5 .... ....|C-5 B..F ....|C-5 .... ....
....|..|D#5 .... ....|D#2 4.F. ....|G#4 .... ....
....|..|--- .... ....|D-4 A... ....|D#4 .... ....
....|..|--- .... ....|D#2 J.1. ....|G-4 .... ....
....|..|--- .... ....|C-5 B.F. ....|C-5 .... ....
....|..|--- .... ....|D-4 K..C ....|G-4 .... ....
....|..|C-5 .... ....|D#2 J.1F ....|D#4 .... ....
....|..|--- .... ....|--- .... ....|C-5 .... ....
....|..|--- .... ....|C-5 B.F. ....|A#4 .... ....
....|..|--- .... ....|D-4 K... ....|G-4 .... ....
....|..|D-5 .... ....|A#1 J.1. ....|D-4 .... ....
....|..|--- .... ....|--- .... ....|F-4 .... ....
....|..|D-5 .... ....|C-5 B.F. ....|A#4 .... ....
....|..|--- .... ....|D-4 K..C ....|F-4 .... ....
....|..|C-5 .... ....|A#1 J.1F ....|D-4 .... ....
....|..|--- .... ....|--- ...A ....|F-4 .... ....
....|..|D-5 .... ....|C-5 B.FF ....|C-6 R... ....
....|..|F-4 .... ....|C#2 4... ....|G#5 .... ....
....|..|--- .... ....|D-4 A... ....|G-5 ...E ....
....|..|--- .... ....|C#2 J.1. ....|G#5 .... ....
....|..|C-5 B... ....|C#2 4.F. ....|C-6 ...F ....
....|..|--- .... ....|--- .... ....|G#5 .... ....
....|..|--- .... ....|D#2 J.1. ....|G-5 .... ....
....|..|--- .... ....|D#2 4.F. ....|G#5 .... ....
....|..|C-5 .... ....|D#2 J.1. ....|C-6 .... ....
....|..|C-5 .... ....|--- .... ....|G#5 .... ....

[Pattern6]
....|..|G#5 7FFF B..9|F-2 J.1F ....|F-4 3.FD ....
....|..|--- .... ....|--- .... ....|G#4 .... ....
....|..|G#5 .... ....|F-2 B... ....|C-5 .... ....
....|..|--- .... ....|--- .... ....|G#4 .... ....
....|..|G-5 .... ....|F-2 J... ....|F-4 .... ....
....|..|--- .... ....|--- ...A ....|G#4 .... ....
....|..|G#5 .... ....|D-4 B..F ....|C-5 .... ....
....|..|A#5 .... ....|D#2 4.F. ....|G#4 .... ....
....|..|--- .... ....|D-4 A... ....|D#4 .... ....
....|..|--- .... ....|D#2 J.1. ....|G-4 .... ....
....|..|C-5 B... ....|D#2 4.F. ....|A#4 .... ....
....|..|--- .... ....|--- .... ....|G-4 .... ....
....|..|F-5 7... ....|D#2 J... ....|D#4 .... ....
....|..|--- .... ....|--- .... ....|G-4 .... ....
....|..|--- .... ....|D-4 B... ....|A#4 .... ....
....|..|--- .... ....|D-4 ...8 ....|G-4 .... ....
....|..|C-6 4.7. ....|A#3 7..F ....|A#4 5..A ....
....|..|--- .... ....|--- .... ....|--- .... ....
....|..|C-6 .... ....|A#3 .... ....|A#4 .... ....
....|..|--- .... ....|--- .... ....|--- .... ....
....|..|A#5 .... ....|G#3 .... ....|G#4 .... ....
....|..|--- .... ....|--- .... ....|--- .... ....
....|..|C-6 .... ....|A#3 .... ....|A#4 .... ....
....|..|D-6 5... ....|C-4 9... ....|C-5 9... ....
....|..|--- .... B.16|--- .... ....|--- .... ....
....|..|--- .... ....|--- .... 1110|--- .... ....
....|..|--- .... ....|--- .... ....|--- .... 1111
....|..|--- .... ....|--- .... ....|--- .... ....

[Pattern7]
....|..|--- .... B..9|F-2 J.1F ....|--- .... ....
....|..|--- .... ....|--- .... ....|--- .... ....
....|..|--- .... ....|D-4 B.F. ....|--- .... ....
....|..|--- .... ....|F-2 J.1A ....|--- .... ....
....|..|--- .... ....|F-2 ...F ....|--- .... ....
..1E|..|A#4 3..E ....|F-4 F.F. ....|A#4 .C.. ....
....|..|--- .... ....|D-5 K... ....|R-- .... ....
..21|..|G#4 5... ....|D#2 J.1. ....|G#4 .C.. 11..
....|..|--- .... ....|G#2 .... ....|--- .... ....
....|..|--- .... ....|--- .... ....|--- .... ....
....|..|--- .... ....|D-4 B... ....|--- .... ....
....|..|--- .... ....|D#2 J... ....|--- .... ....
....|..|--- .... ....|G#2 .... ....|--- .... 11.3
..19|..|C#5 ...D ....|G#2 .... ....|C#5 .C.. 11.1
..17|..|D-5 .... 3110|D-4 B.F. ....|D-5 .C.. 11.2
..16|..|D#5 .... 3110|G#2 J.1A ....|D#5 .C.. ....
....|..|--- .... ....|D#2 ...F ....|--- .... ....
....|..|--- .... ....|--- .... ....|--- .... ....
....|..|--- .... ....|D-4 B.F. ....|--- .... ....
....|..|--- .... ....|A#2 J.1A ....|--- .... ....
....|..|--- .... ....|D#2 ...F ....|--- .... ....
..1A|..|C-5 .... 3110|D#2 .... ....|C-5 .C.. 11..
..1C|..|B-4 .... 3110|D-4 B.F. ....|B-4 .C.. 11..
..1D|..|A#4 .... 3110|A#2 J.1A ....|A#4 .C.. 11..

[Pattern8]
....|..|G#5 7FFF B..9|F-2 J.1F ....|F-4 2.FC ....
....|..|--- .... ....|--- .... ....|G#4 .... ....
....|..|G#5 .... ....|C-5 B.F. ....|C-5 .... ....
....|..|--- .... ....|D-4 K..C ....|G#4 .... ....
....|..|G-5 .... ....|F-2 J.1F ....|F-4 .... ....
....|..|--- .... ....|--- ...A ....|G#4 .... ....
....|..|G#5 .... ....|C-5 B..F ....|C-5 .... ....
....|..|A#5 .... ....|D#2 4.F. ....|G#4 .... ....
....|..|--- .... ....|D-4 A... ....|D#4 .... ....
....|..|--- .... ....|D#2 J.1. ....|G-4 .... ....
....|..|--- .... ....|C-5 B.F. ....|A#4 .... ....
....|..|--- .... ....|D-4 K..C ....|G-4 .... ....
....|..|F-5 .... ....|D#2 J.1F ....|D#4 .... ....
....|..|--- .... ....|--- .... ....|G-4 .... ....
....|..|--- .... ....|C-5 B.F. ....|A#4 .... ....
....|..|--- .... ....|D-4 K... ....|G-4 .... ....
....|..|C-6 .... 3120|A#1 J.1. ....|D-4 ...D ....
....|..|--- .... ....|--- .... ....|F-4 .... ....
....|..|C-6 .... ....|C-5 B.F. ....|A#4 .... ....
....|..|--- .... ....|D-4 K..C ....|F-4 .... ....
....|..|A#5 .... ....|A#1 J.1F ....|D-4 .... ....
....|..|--- .... ....|--- ...A ....|F-4 .... ....
....|..|C-6 .... ....|C-5 B.FF ....|A#4 .... ....
....|..|A#5 .... ....|C-2 4... ....|F-4 .... ....
....|..|--- .... ....|D-4 A... ....|E-4 ...E ....
....|..|--- .... ....|C-2 J.1. ....|G-4 .... ....
....|..|C-5 B... ....|C-2 4.F. ....|C-5 .... ....
....|..|--- .... ....|--- .... ....|G-4 .... ....
....|..|C-4 3..C ....|C-4 F... ....|--- .... ....
....|..|--- ...A ....|--- .... ....|E-4 R..C ....
....|..|G-4 .... ....|F-3 .... ....|--- .... ....
....|..|--- .... ....|--- .... ....|A#4 .... ....

[Pattern9]
....|..|G#5 7FFF B..9|F-2 J.1F ....|F-4 2.FC ....
....|..|--- .... ....|--- .... ....|G#4 .... ....
....|..|G#5 .... ....|C-5 B.F. ....|C-5 .... ....
....|..|--- .... ....|D-4 K..C ....|G#4 .... ....
....|..|G-5 .... ....|F-2 J.1F ....|F-4 .... ....
....|..|--- .... ....|--- ...A ....|G#4 .... ....
....|..|G#5 .... ....|C-5 B..F ....|C-5 .... ....
....|..|D#5 .... ....|D#2 4.F. ....|G#4 .... ....
....|..|--- .... ....|D-4 A... ....|D#4 .... ....
....|..|--- .... ....|D#2 J.1. ....|G-4 .... ....
....|..|--- .... ....|C-5 B.F. ....|A#4 .... ....
....|..|--- .... ....|D-4 K..C ....|G-4 .... ....
....|..|C-5 .... ....|D#2 J.1F ....|D#4 .... ....
....|..|--- .... ....|--- .... ....|G-4 .... ....
....|..|--- .... ....|C-5 B.F. ....|A#4 .... ....
....|..|--- .... ....|D-4 K... ....|G-4 .... ....
....|..|D#5 .... ....|C#2 J.1. ....|C#4 ...D ....
....|..|--- .... ....|--- .... ....|F-4 .... ....
....|..|D#5 .... ....|C-5 B.F. ....|G#4 .... ....
....|..|--- .... ....|D-4 K..C ....|F-4 .... ....
....|..|D-5 .... ....|C#2 J.1F ....|C#4 .... ....
....|..|--- .... ....|--- ...A ....|F-4 .... ....
....|..|C-5 .... ....|C-5 B.FF ....|G#4 .... ....
....|..|F-4 .... ....|G#2 4... ....|F-4 .... ....
....|..|--- .... ....|D-4 A... ....|C#4 ...E ....
....|..|--- .... ....|G#2 J.1. ....|F-4 .... ....
....|..|C-5 B... ....|G#2 4.F. ....|C-5 .... ....
....|..|--- .... ....|--- .... ....|F-4 ...F ....
....|..|--- .... ....|G-2 J.1. ....|C#4 .... ....
....|..|--- .... ....|--- .... ....|G-4 .... ....
....|..|C-5 .... ....|G#2 .... ....|D#5 .... ....
....|..|C-5 .... ....|--- .... ....|G-4 .... ....

[Pattern10]
..27|..|F-4 5... B..9|F-4 8C.. ....|F-2 J.1F ....
....|..|--- .... ....|--- .... ....|--- .... ....
....|..|--- .... ....|--- .... ....|D-4 B.F. ....
....|..|--- .... ....|--- .... ....|F-2 J.1A ....
....|..|--- .... ....|--- .... ....|F-2 ...F ....
..1E|..|A#4 3... ....|A#4 .C.. ....|F-4 F.F. ....
....|..|--- .... ....|R-- .... ....|D-5 K... ....
..21|..|G#4 5... ....|G#4 .C.. 11..|D#2 J.1. ....
....|..|--- .... ....|--- .... ....|G#2 .... ....
....|..|--- .... ....|--- .... ....|--- .... ....
....|..|--- .... ....|--- .... ....|D-4 B... ....
....|..|--- .... ....|--- .... ....|D#2 J... ....
....|..|--- .... ....|--- .... 11.3|G#2 .... ....
..19|..|C#5 .... ....|C#5 .C.. 11.1|G#2 .... ....
..17|..|D-5 .... 3110|D-5 .C.. 11.2|D-4 B.F. ....
..16|..|D#5 .... 3110|D#5 .C.. ....|G#2 J.1A ....
....|..|--- .... ....|--- .... ....|D#2 ...F ....
....|..|--- .... ....|--- .... ....|--- .... ....
....|..|--- .... ....|--- .... ....|D-4 B.F. ....
....|..|--- .... ....|--- .... ....|A#2 J.1A ....
....|..|--- .... ....|--- .... ....|D#2 ...F ....
..1A|..|C-5 .... 3110|C-5 .C.. 11..|D#2 .... ....
..1C|..|B-4 .... 3110|B-4 .C.. 11..|D-4 B.F. ....
..1D|..|A#4 .... 3110|A#4 .C.. 11..|A#2 J.1A ....

[Pattern11]
....|..|F-3 1.FE B..9|F-2 9..D ....|C-4 A..F ....
....|..|F-3 .... ....|--- .... ....|D-4 ...8 ....
....|..|F-4 .... ....|--- .... ....|D-4 B..F ....
....|..|F-3 .... ....|--- .... ....|D-4 ...8 ....
....|..|F-3 .... ....|--- .... ....|C-4 A..F ....
....|..|F-3 .... ....|--- .... ....|D-4 ...8 ....
....|..|F-4 .... ....|--- .... ....|D-4 B..F ....
....|..|F-3 .... ....|--- .... ....|--- .... ....
....|..|--- .... ....|--- .... ....|D-4 A... ....
....|..|F-3 .... ....|--- .... ....|D-4 ...8 ....
....|..|F-4 .... ....|--- .... ....|D-4 B..F ....
....|..|F-3 .... ....|--- .... ....|D-4 ...8 ....
....|..|F-4 .... ....|--- .... ....|D-4 A..F ....
....|..|D#4 .... ....|--- .... ....|D-5 G..E ....
....|..|C-4 .... ....|--- .... ....|--- .... ....
....|..|D#4 .... ....|--- .... ....|--- .... ....

[Pattern12]
....|..|G#5 7FFF B..9|F-2 J.1F ....|F-5 5.FC ....
....|..|--- .... ....|--- .... ....|--- .... ....
....|..|G#5 .... ....|C-5 B.F. ....|F-5 .... ....
....|..|--- .... ....|D-4 K..C ....|--- .... ....
....|..|G-5 .... ....|F-2 J.1F ....|D#5 .... ....
....|..|--- .... ....|--- ...A ....|--- .... ....
....|..|G#5 .... ....|C-5 B..F ....|F-5 .... ....
....|..|D#5 .... ....|D#2 4.F. ....|G-5 .... ....
....|..|--- .... ....|D-4 A... ....|--- .... ....
....|..|--- .... ....|D#2 J.1. ....|--- .... ....
....|..|--- .... ....|C-5 B.F. ....|--- .... ....
....|..|--- .... ....|D-4 K..C ....|--- .... ....
....|..|C-5 .... ....|D#2 J.1F ....|D#5 .... ....
....|..|--- .... ....|--- .... ....|--- .... ....
....|..|--- .... ....|C-5 B.F. ....|--- .... ....
....|..|--- .... ....|D-4 K... ....|--- .... ....
....|..|D#5 .... ....|A#1 J.1. ....|A#4 .... ....
....|..|--- .... ....|--- .... ....|--- .... ....
....|..|D#5 .... ....|C-5 B.F. ....|A#4 .... ....
....|..|--- .... ....|D-4 K..C ....|--- .... ....
....|..|D-5 .... ....|A#1 J.1F ....|A#4 .... ....
....|..|--- .... ....|--- ...A ....|--- .... ....
....|..|C-5 .... ....|C-5 B.FF ....|G#4 .... ....
....|..|F-4 .... ....|C#2 4... ....|F-4 .... ....
....|..|--- .... ....|D-4 A... ....|G#4 7..E ....
....|..|--- .... ....|C#2 J.1. ....|G#4 .... ....
....|..|C-5 B... ....|C#2 4.F. ....|--- .... ....
....|..|--- .... ....|--- .... ....|A#4 .... ....
....|..|--- .... ....|D#2 J.1. ....|--- .... ....
....|..|--- .... ....|D#2 4.F. ....|--- .... ....
....|..|C-5 .... ....|D#2 J.1. ....|D#4 .... ....
....|..|C-5 .... ....|--- .... ....|--- .... ....

[Pattern13]
....|..|F-4 .... ....|--- .... B..9|D-4 A..F ....
....|..|F-4 .... ....|--- .... ....|D-4 ...8 ....
....|..|F-4 .... ....|--- .... ....|D-4 B..F ....
..21|..|F-4 .... ....|G#4 .C.. ....|D-4 ...8 ....
..1D|..|F-4 .... ....|A#4 .C.. 11..|D-4 A..F ....
..1A|..|F-4 .... ....|C-5 .C.. 11..|D-4 ...8 ....
..1D|..|F-4 .... ....|A#4 .C.. 21.2|D-4 B..F ....
..21|..|F-4 .... ....|G#4 .C.. 11..|D-4 ...8 ....

[Pattern14]
....|..|A#2 J.1. 1150|--- ...F B..9|A-2 G..C ....
....|..|--- .... ....|--- .... ....|--- .... ....
....|..|--- .... ....|--- .... ....|--- .... ....
..21|..|--- .... ....|G#4 8C.. ....|--- .... ....
..1D|..|--- .... ....|A#4 .C.. 11..|--- .... ....
..1A|..|--- .... ....|C-5 .C.. 11..|--- .... ....
..1D|..|--- .... ....|A#4 .C.. 21.2|--- .... ....
..21|..|--- .... ....|G#4 .C.. 11..|--- .... ....

[Pattern15]
....|..|--- .... ....|D-4 A..F B..9|--- .... ....
....|..|--- .... ....|D-4 ...8 ....|--- .... ....
....|..|--- .... ....|D-4 B..F ....|--- .... ....
....|..|--- .... ....|D-4 ...8 ....|--- .... ....
....|..|--- .... ....|D-4 A..F ....|--- .... ....
....|..|--- .... ....|D-4 ...8 ....|--- .... ....
....|..|--- .... ....|D-4 B..F ....|--- .... ....
....|..|--- .... ....|D-4 ...8 ....|--- .... ....
....|..|--- .... ....|D-4 A..F ....|--- .... ....
....|..|--- .... ....|D-4 ...8 ....|--- .... ....
....|..|--- .... ....|D-4 B..F ....|--- .... ....
....|..|--- .... ....|D-4 ...8 ....|--- .... ....
....|..|--- .... ....|D-4 A..F ....|--- .... ....
....|..|--- .... ....|D-5 G... ....|G-2 K... ....
....|..|--- .... ....|D-4 B..C ....|--- .... ....
....|..|--- .... ....|D-4 ...F ....|G-2 .... ....

[Pattern16]
....|..|--- .... ....|--- .... B..9|A#2 F.FF ....
....|..|--- .... ....|--- .... ....|A#2 .... ....
....|..|--- .... ....|--- .... ....|A#2 .... ....
..21|..|--- .... ....|G#4 .C.. ....|A#2 .... ....
..1D|..|--- .... ....|A#4 .C.. 11..|A#2 .... ....
..1A|..|--- .... ....|C-5 .C.. 11..|A#2 .... ....
..1D|..|--- .... ....|A#4 .C.. 21.2|G-2 B... ....
..21|..|--- .... ....|G#4 .C.. 11..|--- .... ....

[Pattern17]
....|..|F-4 .... ....|--- .... B..9|A#2 ...F ....
....|..|F-4 .... ....|--- .... ....|A#2 .... ....
....|..|F-4 .... ....|--- .... ....|D-4 B.F. ....
..21|..|F-4 .... ....|G#4 .C.. ....|F-2 J.1A ....
..1D|..|F-4 .... ....|A#4 .C.. 11..|A#2 ...F ....
..1A|..|D#4 .... ....|C-5 .C.. 11..|F-2 .... ....
..1D|..|C-4 .... ....|A#4 .C.. 21.2|D-4 B.F. ....
..21|..|D#4 .... ....|G#4 .C.. 11..|F-2 J.1A ....

[Pattern18]
....|..|G#5 7FFF B..9|F-2 J.1F ....|C-4 4.FF ....
....|..|--- .... ....|--- .... ....|--- .... ....
....|..|G#5 .... ....|C-5 B.F. ....|G#5 5..C ....
....|..|--- .... ....|D-4 K..C ....|--- .... ....
....|..|G-5 .... ....|F-2 J.1F ....|G-5 .... ....
....|..|--- .... ....|--- ...A ....|--- .... ....
....|..|G#5 .... ....|C-5 B..F ....|G#5 .... ....
....|..|A#5 .... ....|D#2 4.F. ....|A#5 .... ....
....|..|--- .... ....|D-4 A... ....|--- .... ....
....|..|--- .... ....|D#2 J.1. ....|--- .... ....
....|..|--- .... ....|C-5 B.F. ....|--- .... ....
....|..|--- .... ....|D-4 K..C ....|--- .... ....
....|..|F-5 .... ....|D#2 J.1F ....|F-5 .... ....
....|..|--- .... ....|--- .... ....|--- .... ....
....|..|--- .... ....|C-5 B.F. ....|--- .... ....
....|..|--- .... ....|D-4 K... ....|--- .... ....
....|..|C-6 .... 3120|A#1 J.1. ....|C-6 .... 3120
....|..|--- .... ....|--- .... ....|--- .... ....
....|..|C-6 .... ....|C-5 B.F. ....|C-6 .... ....
....|..|--- .... ....|D-4 K..C ....|--- .... ....
....|..|A#5 .... ....|C-2 J.1F ....|A#5 .... ....
....|..|--- .... ....|--- ...A ....|--- .... ....
....|..|E-5 .... ....|D-4 B.FF ....|E-5 .... ....
....|..|F-5 .... ....|F-2 4... ....|F-5 .... ....
....|..|--- .... ....|D-4 A... ....|F-3 R..E ....
....|..|--- .... ....|F-2 J.1. ....|G#3 .... ....
....|..|C-5 B... ....|C-2 4.F. ....|C-4 .... ....
....|..|--- .... ....|--- .... ....|G#3 .... ....
....|..|--- .... ....|F-2 J.1. ....|C-4 .... ....
....|..|--- .... ....|--- .... ....|F-4 .... ....
....|..|C-5 .... ....|--- .... ....|C-4 .... ....
....|..|C-5 .... ....|--- .... ....|G#4 .... ....

[Pattern19]
..27|..|F-5 3.FE B..9|F-4 8CFF ....|F-2 J.1F ....
....|..|F-5 .... ....|--- .... ....|--- .... ....
....|..|F-5 .... ....|--- .... ....|D-4 B.F. ....
....|..|F-5 .... ....|--- .... ....|F-2 J.1A ....
....|..|F-5 .... ....|--- .... ....|F-2 ...F ....
..1E|..|F-5 .... ....|A#4 .C.. ....|F-4 F.F. ....
....|..|F-5 .... ....|R-- .... ....|D-5 K... ....
..21|..|F-5 .... ....|G#4 .C.. 11..|D#2 J.1. ....
....|..|G#5 .... ....|--- .... ....|G#2 .... ....
....|..|F-5 .... ....|--- .... ....|--- .... ....
....|..|F-5 .... ....|--- .... ....|D-4 B... ....
....|..|F-5 .... ....|--- .... 11.3|D#2 J... ....
..21|..|F-5 .... ....|G#4 TC.. ....|G#2 .... ....
..19|..|F-5 .... ....|C#5 8C.. 11.1|G#2 .... ....
..17|..|F-5 .... ....|D-5 .C.. 11.2|D-4 B.F. ....
..16|..|F-5 .... ....|D#5 .C.. ....|G#2 J.1A ....
....|..|G-5 .... ....|--- .... ....|D#2 ...F ....
....|..|G-5 .... ....|--- .... ....|--- .... ....
....|..|G-5 .... ....|--- .... ....|D-4 B.F. ....
....|..|G-5 .... ....|--- .... ....|A#2 J.1A ....
..16|..|G-5 .... ....|D#5 TC.. ....|D#2 ...F ....
..1A|..|G-5 .... ....|C-5 8C.. 11..|D#2 .... ....
..1C|..|G-5 .... ....|B-4 .C.. 11..|D-4 B.F. ....
..1D|..|G-5 .... ....|A#4 .C.. 11..|A#2 J.1A ....

[Pattern20]
....|..|F-5 .... ....|--- .... B..9|A#2 ...F ....
....|..|F-5 .... ....|--- .... ....|A#2 .... ....
....|..|F-5 .... ....|--- .... ....|D-4 B.F. ....
..21|..|F-5 .... ....|G#4 .C.. ....|F-2 J.1A ....
..1D|..|F-5 .... ....|A#4 .C.. 11..|A#2 ...F ....
..1A|..|D#5 .... ....|C-5 .C.. 11..|F-2 .... ....
..1D|..|C-5 .... ....|A#4 .C.. 21.2|D-4 B.F. ....
..21|..|D#5 .... ....|G#4 .C.. 11..|F-2 J.1A ....

[Pattern21]
....|..|C#3 R.FF ....|E-4 U.FE B..9|G#4 9.FC ....
....|..|--- .... ....|F-4 .... ....|--- .... ....
....|..|--- .... ....|G#4 .... ....|--- .... ....
....|..|--- .... ....|F-4 .... ....|--- .... ....
....|..|--- .... ....|E-4 .... ....|--- .... ....
....|..|--- .... ....|F-4 .... ....|--- .... ....
....|..|--- .... ....|G#4 .... ....|--- .... ....
....|..|--- .... ....|F-4 .... ....|--- .... ....
....|..|--- .... ....|E-4 .... ....|--- .... ....
....|..|--- .... ....|F-4 .... ....|--- .... ....
....|..|--- .... ....|G#4 .... ....|--- .... ....
....|..|--- .... ....|F-4 .... ....|--- .... ....
....|..|--- .... ....|E-4 .... ....|--- .... ....
....|..|--- .... ....|F-4 .... ....|--- .... ....
....|..|--- .... ....|G#4 .... ....|--- .... ....
....|..|--- .... ....|F-4 .... ....|--- .... ....

[Pattern22]
....|..|C-3 R.FF ....|C-4 U.FE B..9|G-4 9.FC ....
....|..|--- .... ....|G-4 .... ....|--- .... ....
....|..|--- .... ....|A#4 .... ....|--- .... ....
....|..|--- .... ....|G-4 .... ....|--- .... ....
....|..|--- .... ....|C-4 .... ....|--- .... ....
....|..|--- .... ....|G-4 .... ....|--- .... ....
....|..|--- .... ....|A#4 .... ....|--- .... ....
....|..|--- .... ....|G-4 .... ....|--- .... ....
....|..|--- .... ....|C-4 .... ....|--- .... ....
....|..|--- .... ....|G-4 .... ....|--- .... ....
....|..|--- .... ....|A#4 .... ....|--- .... ....
....|..|--- .... ....|G-4 .... ....|--- .... ....
....|..|--- .... ....|C-4 .... ....|--- .... ....
....|..|--- .... ....|G-4 .... ....|--- .... ....
....|..|--- .... ....|A#4 .... ....|--- .... ....
....|..|--- .... ....|G-4 .... ....|--- .... ....

[Pattern23]
....|..|F-2 R.FF ....|D-4 U.FE B..9|G#4 9.FC ....
....|..|--- .... ....|G#4 .... ....|--- .... ....
....|..|--- .... ....|C-5 .... ....|--- .... ....
....|..|--- .... ....|G#4 .... ....|--- .... ....
....|..|--- .... ....|D-4 .... ....|--- .... ....
....|..|--- .... ....|G#4 .... ....|--- .... ....
....|..|--- .... ....|C-5 .... ....|--- .... ....
....|..|--- .... ....|G#4 .... ....|--- .... ....
....|..|--- .... ....|D-4 .... ....|--- .... ....
....|..|--- .... ....|G#4 .... ....|--- .... ....
....|..|--- .... ....|C-5 .... ....|--- .... ....
....|..|--- .... ....|G#4 .... ....|--- .... ....
....|..|--- .... ....|D-4 .... ....|--- .... ....
....|..|--- .... ....|G#4 .... ....|--- .... ....
....|..|--- .... ....|C-5 .... ....|--- .... ....
....|..|--- .... ....|G#4 .... ....|--- .... ....

[Pattern24]
....|..|F-2 R.FF ....|D-4 U.FE B..9|A-4 9.FC ....
....|..|--- .... ....|A-4 .... ....|--- .... ....
....|..|--- .... ....|C-5 .... ....|--- .... ....
....|..|--- .... ....|A-4 .... ....|--- .... ....
....|..|--- .... ....|D-4 .... ....|--- .... ....
....|..|--- .... ....|A-4 .... ....|--- .... ....
....|..|--- .... ....|C-5 .... ....|--- .... ....
....|..|--- .... ....|A-4 .... ....|--- .... ....
....|..|--- .... ....|D-4 .... ....|--- .... ....
....|..|--- .... ....|A-4 .... ....|--- .... ....
....|..|--- .... ....|C-5 .... ....|--- .... ....
....|..|--- .... ....|A-4 .... ....|--- .... ....
....|..|--- .... ....|D-4 .... ....|--- .... ....
....|..|--- .... ....|A-4 .... ....|--- .... ....
....|..|--- .... ....|C-5 .... ....|--- .... ....
....|..|--- .... ....|A-4 .... ....|--- .... ....

[Pattern25]
....|..|C#3 R.FF ....|E-4 U.FE B..9|G#4 9.FC ....
....|..|--- .... ....|F-4 .... ....|--- .... ....
....|..|--- .... ....|G#4 .... ....|--- .... ....
....|..|--- .... ....|F-4 .... ....|--- .... ....
....|..|F-5 E.3D ....|E-4 .... ....|--- .... ....
....|..|--- .... ....|F-4 .... ....|--- .... ....
....|..|--- .... ....|G#4 .... ....|--- .... ....
....|..|--- .... ....|F-4 .... ....|--- .... ....
....|..|--- .... ....|E-4 .... ....|--- .... ....
....|..|--- .... ....|F-4 .... ....|--- .... ....
....|..|--- .... ....|G#4 .... ....|--- .... ....
....|..|--- .... ....|F-4 .... ....|--- .... ....
....|..|--- .... ....|E-4 .... ....|--- .... ....
....|..|--- .... ....|F-4 .... ....|--- .... ....
....|..|--- .... ....|G#4 .... ....|--- .... ....
....|..|--- .... ....|F-4 .... ....|--- .... ....

[Pattern26]
....|..|C-3 R.FF ....|C-4 U.FE B..9|G-4 7.FC ....
....|..|--- .... ....|G-4 .... ....|--- .... ....
....|..|--- .... ....|A#4 .... ....|--- .... ....
....|..|--- .... ....|G-4 .... ....|--- .... ....
....|..|E-4 E.5D ....|C-4 .... ....|--- .... ....
....|..|--- .... ....|G-4 .... ....|--- .... ....
....|..|--- .... ....|A#4 .... ....|--- .... ....
....|..|--- .... ....|G-4 .... ....|--- .... ....
....|..|--- .... ....|C-4 .... ....|--- .... ....
....|..|--- .... ....|G-4 .... ....|--- .... ....
....|..|--- .... ....|A#4 .... ....|--- .... ....
....|..|--- .... ....|G-4 .... ....|--- .... ....
....|..|--- .... ....|C-4 .... ....|--- .... ....
....|..|--- .... ....|G-4 .... ....|--- .... ....
....|..|--- .... ....|A#4 .... ....|--- .... ....
....|..|--- .... ....|G-4 .... ....|--- .... ....

[Pattern27]
....|..|F-2 R.FF ....|D-4 U.FE B..9|G#4 9.FC ....
....|..|--- .... ....|G#4 .... ....|--- .... ....
....|..|--- .... ....|C-5 .... ....|--- .... ....
....|..|--- .... ....|G#4 .... ....|--- .... ....
....|..|F-4 E.5D ....|D-4 .... ....|--- .... ....
....|..|--- .... ....|G#4 .... ....|--- .... ....
....|..|--- .... ....|C-5 .... ....|--- .... ....
....|..|--- .... ....|G#4 .... ....|--- .... ....
....|..|--- .... ....|D-4 .... ....|--- .... ....
....|..|--- .... ....|G#4 .... ....|--- .... ....
....|..|--- .... ....|C-5 .... ....|--- .... ....
....|..|--- .... ....|G#4 .... ....|--- .... ....
....|..|--- .... ....|D-4 .... ....|--- .... ....
....|..|--- .... ....|G#4 .... ....|--- .... ....
....|..|--- .... ....|C-5 .... ....|--- .... ....
....|..|--- .... ....|G#4 .... ....|--- .... ....

[Pattern28]
....|..|F-2 R.FF ....|F-2 9.FF 1113|A-4 9.FC B..9
....|..|--- .... ....|--- .... ....|--- .... ....
....|..|--- .... ....|--- .... ....|--- .... ....
....|..|--- .... ....|--- .... ....|--- .... ....
....|..|--- .... ....|--- .... ....|--- .... ....
....|..|--- .... ....|--- .... ....|--- .... ....
....|..|--- .... ....|--- .... ....|--- .... ....
....|..|--- .... ....|--- .... ....|--- .... ....

[Pattern29]
....|..|C-4 A.F. B..9|C-5 G..8 ....|C-4 G..8 ....
....|..|--- .... ....|--- .... ....|--- .... ....
....|..|--- .... ....|C-4 ...4 ....|--- .... ....
....|..|--- .... ....|--- .... ....|--- .... ....
....|..|--- .... ....|--- .... ....|C-4 ...2 ....

[Pattern30]
....|..|--- .... B..9|A#2 ...F ....|--- .... ....
....|..|--- .... ....|A#2 .... ....|--- .... ....
....|..|--- .... ....|D-4 B.F. ....|--- .... ....
..21|..|G#4 .... 3110|F-2 J.1A ....|G#4 8C.. ....
..1D|..|A#4 .... 3110|A#2 ...F ....|A#4 .C.. 11..
..1A|..|C-5 .... 3110|F-2 .... ....|C-5 .C.. 11..
..1D|..|A#4 .... 3110|D-4 B.F. ....|A#4 .C.. 21.2
..21|..|G#4 .... 3110|F-2 J.1A ....|G#4 .C.. 11..

[Pattern31]
....|..|F-3 1.FE B..9|--- .... ....|C-4 A..F ....
....|..|F-3 .... ....|--- .... ....|D-4 ...8 ....
....|..|F-4 .... ....|--- .... ....|D-4 B..F ....
....|..|F-3 .... ....|--- .... ....|D-4 ...8 ....
....|..|F-3 .... ....|--- .... ....|C-4 A..F ....
....|..|F-3 .... ....|--- .... ....|D-4 ...8 ....
....|..|F-4 .... ....|--- .... ....|D-4 B..F ....
....|..|F-3 .... ....|--- .... ....|--- .... ....
....|..|--- .... ....|--- .... ....|D-4 A... ....
....|..|F-3 .... ....|D-4 F.FF ....|D-4 ...8 ....
....|..|F-4 .... ....|--- .... ....|D-4 B..F ....
....|..|F-3 .... ....|D-4 .... ....|D-4 ...8 ....
....|..|F-4 .... ....|--- .... ....|D-4 A..F ....
....|..|D#4 .... ....|E-3 .... ....|D-5 G..E ....
....|..|C-4 .... ....|E-3 .... ....|--- .... ....
....|..|D#4 .... ....|--- .... ....|--- .... ....

[Pattern32]
....|..|F-3 U... B..9|D-4 A..F ....|R-- .... ....
....|..|F-3 .... ....|D-4 ...8 ....|--- .... ....
....|..|F-3 .... ....|D-4 B..F ....|--- .... ....
....|..|F-3 .... ....|D-4 ...8 ....|--- .... ....
....|..|D#3 .... ....|D-4 A..F ....|--- .... ....
....|..|--- .... ....|D-4 ...8 ....|--- .... ....
....|..|F-3 .... ....|D-4 B..F ....|--- .... ....
....|..|C-3 .... ....|D-4 ...8 ....|--- .... ....
....|..|--- .... ....|D-4 A..F ....|--- .... ....
....|..|C-3 .... ....|D-4 ...8 ....|--- .... ....
....|..|C-3 .... ....|D-4 B..F ....|--- .... ....
....|..|C-3 .... ....|D-4 ...8 ....|--- .... ....
....|..|A#2 .... ....|D-4 A..F ....|--- .... ....
....|..|--- .... ....|D-5 G... ....|--- .... ....
....|..|C-3 .... ....|D-4 B..C ....|--- .... ....
....|..|--- .... ....|D-4 ...F ....|--- .... ....

[Pattern33]
....|..|F-3 U... B..9|D-4 A..F ....|F-4 7.FD ....
....|..|F-3 .... ....|D-4 ...8 ....|F-4 .... ....
....|..|F-3 .... ....|D-4 B..F ....|F-4 .... ....
....|..|F-3 .... ....|D-4 ...8 ....|F-4 .... ....
....|..|D#3 .... ....|D-4 A..F ....|D#4 3... ....
....|..|--- .... ....|D-4 ...8 ....|--- .... ....
....|..|F-3 .... ....|D-4 B..F ....|F-4 .... ....
....|..|C-3 .... ....|D-4 ...8 ....|C-4 .... ....
....|..|--- .... ....|D-4 A..F ....|--- .... ....
....|..|C-3 .... ....|D-4 ...8 ....|C-4 .... ....
....|..|C-3 .... ....|D-4 B..F ....|C-4 .... ....
....|..|C-3 .... ....|D-4 ...8 ....|C-4 .... ....
....|..|A#2 .... ....|D-4 A..F ....|A#3 .... ....
....|..|--- .... ....|D-5 G... ....|G#3 .... ....
....|..|C-3 .... ....|D-4 B..C ....|F-3 .... ....
....|..|--- .... ....|D-4 ...F ....|--- .... ....

[Pattern34]
....|..|D-4 A..F ....|F-3 2.FF B..9|--- .... ....
....|..|D-4 ...8 ....|F-4 .... ....|--- .... ....
....|..|D-4 B..F ....|F-4 .... ....|--- .... ....
....|..|D-4 ...8 ....|F-4 .... ....|--- .... ....
....|..|D-4 A..F ....|F-3 .... ....|--- .... ....
....|..|D-4 ...8 ....|F-4 .... ....|--- .... ....
....|..|D-4 B..F ....|F-4 .... ....|--- .... ....
....|..|D-4 ...8 ....|F-4 .... ....|--- .... ....
....|..|D-4 A..F ....|F-3 .... ....|--- .... ....
....|..|D-4 ...8 ....|F-4 .... ....|--- .... ....
....|..|D-4 B..F ....|F-4 .... ....|--- .... ....
....|..|D-4 ...8 ....|F-4 .... ....|--- .... ....
....|..|D-4 A..F ....|F-4 3... ....|--- .... ....
....|..|D-5 G... ....|D#4 .... ....|G-2 K... ....
....|..|D-4 B..C ....|C-4 .... ....|G-2 .... ....
....|..|D-4 ...F ....|D#4 .... ....|G-2 .... ....

[Pattern35]
....|..|F-4 3.FF B..9|D-4 A..F ....|F-4 7.FD ....
....|..|G#4 .... ....|D-4 ...8 ....|F-4 .... ....
....|..|C-5 .... ....|D-4 B..F ....|F-4 .... ....
....|..|G#4 .... ....|D-4 ...8 ....|F-4 .... ....
....|..|C-5 .... ....|D-4 A..F ....|D#4 3... ....
....|..|G#4 .... ....|D-4 ...8 ....|--- .... ....
....|..|--- .... ....|D-4 B..F ....|F-4 7... ....
....|..|F-4 .... ....|D-4 ...8 ....|C-4 .... ....
....|..|E-4 .... ....|D-4 A..F ....|--- .... ....
....|..|G-4 .... ....|D-4 ...8 ....|C-4 .... ....
....|..|A#4 .... ....|D-4 B..F ....|C-4 .... ....
....|..|G-4 .... ....|D-4 ...8 ....|C-4 .... ....
....|..|A#4 .... ....|D-4 A..F ....|A#3 3... ....
....|..|G-4 .... ....|D-5 G... ....|G#3 .... ....
....|..|E-4 .... ....|D-4 B..C ....|F-3 .... ....
....|..|G-4 .... ....|D-4 ...F ....|--- .... ....

[Pattern36]
....|..|F-4 3.FF B..9|D-4 A..F ....|F-5 7.FF ....
....|..|G#4 .... ....|D-4 ...8 ....|C-5 .... ....
....|..|C-5 .... ....|D-4 B..F ....|F-4 .... ....
....|..|G#4 .... ....|D-4 ...8 ....|C-4 .... ....
....|..|C-5 .... ....|D-4 A..F ....|A#3 .... ....
....|..|G#4 .... ....|D-4 ...8 ....|G#3 .... ....
....|..|--- .... ....|D-4 B..F ....|F-3 .... ....
....|..|F-4 .... ....|D-4 ...8 ....|C#4 .... ....
....|..|E-4 .... ....|D-4 A..F ....|A#3 .... ....
....|..|G-4 .... ....|D-4 ...8 ....|C#4 .... ....
....|..|A#4 .... ....|D-4 B..F ....|E-4 .... ....
....|..|G-4 .... ....|D-4 ...8 ....|C#4 .... ....
....|..|A#4 .... ....|D-4 A..F ....|E-4 .... ....
....|..|G-4 .... ....|D-5 G... ....|C#4 .... ....
....|..|E-4 .... ....|D-4 B..C ....|A#3 .... ....
....|..|G-4 .... ....|D-4 ...F ....|G-3 .... ....

[Pattern37]
....|..|F-4 3.FF B..9|F-6 R.FD ....|F-5 4.FF ....
....|..|G#4 .... ....|C-6 .... ....|C-5 .... ....
....|..|C-5 .... ....|C#6 .... ....|F-4 .... ....
....|..|G#4 .... ....|A#5 .... ....|C-4 .... ....
....|..|C-5 .... ....|C-6 .... ....|A#3 .... ....
....|..|G#4 .... ....|G#5 .... ....|G#3 .... ....
....|..|--- .... ....|A#5 .... ....|F-3 .... ....
....|..|F-4 .... ....|F-5 .... ....|C#4 .... ....
....|..|E-4 .... ....|C-4 .... ....|A#3 .... ....
....|..|G-4 .... ....|E-4 .... ....|C#4 .... ....
....|..|A#4 .... ....|G-4 .... ....|E-4 .... ....
....|..|G-4 .... ....|C-5 .... ....|C#4 .... ....
....|..|A#4 .... ....|D-6 5..F 1110|E-4 .... ....

[Pattern38]
..2C|..|D#4 5..F B..9|--- .... ....|D#4 8CFF ....
..2A|..|E-4 .... 3110|--- .... ....|E-4 .C.. ....
..27|..|F-4 .... 3110|--- .... ....|F-4 .C.. ....

