[Module]
VortexTrackerII=0
Version=3.5
Title= ProTracker 3.5  player bug f!x
Author=Black Groove . 30-nov-2ooo
NoteTable=2
Speed=4
PlayOrder=L0,3,0,1,4,5,4,2,6

[Ornament1]
L0,0,3,3,7,7,-5,-5

[Ornament2]
L0,0,3,3,8,8,-4,-4

[Ornament3]
L0,0,5,5,8,8,-4,-4

[Ornament4]
12,L-12,0,0,0,0,-12

[Ornament5]
19,L-12,0,0,0,0,-12

[Ornament6]
24,L-12,0,0,0,0,-12

[Ornament7]
31,L-12,0,0,0,0,-12

[Ornament8]
L0,3,7,-5

[Ornament9]
L0

[Ornament10]
L0

[Ornament11]
L0

[Ornament12]
L0

[Ornament13]
L0

[Ornament14]
L0

[Ornament15]
L0

[Sample1]
TNE +000_ +00_ F_
TNE +000_ +00_ F_
TnE +000_ +00_ F_
TnE +000_ +00_ F-
TnE +000_ +00_ F-
TnE +000_ +00_ F-
Tne +000_ +00_ F- L

[Sample2]
TnE +000_ +00_ A_ L

[Sample3]
Tne +080^ +00_ F_
Tne +0C0^ +00_ F_
Tne +100^ +00_ F_
Tne +140^ +00_ F_
tnE +000_ +00_ 0_ L

[Sample4]
TNe +080^ +0A_ F_
TNe +0C0^ +02^ F- L
TNe +020^ +02^ F_

[Sample5]
tne +000_ +00_ 0_ L

[Sample6]
tne +000_ +00_ 0_ L

[Sample7]
TnE +000_ +00_ D_ L

[Sample8]
tne +000_ +00_ 0_ L

[Sample9]
tne +000_ +00_ 0_ L

[Sample10]
tne +000_ +00_ 0_ L

[Sample11]
tne +000_ +00_ 0_ L

[Sample12]
tne +000_ +00_ 0_ L

[Sample13]
tne +000_ +00_ 0_ L

[Sample14]
tne +000_ +00_ 0_ L

[Sample15]
tne +000_ +00_ 0_ L

[Sample16]
tne +000_ +00_ 0_ L

[Sample17]
tne +000_ +00_ 0_ L

[Sample18]
tne +000_ +00_ 0_ L

[Sample19]
tne +000_ +00_ 0_ L

[Sample20]
tne +000_ +00_ 0_ L

[Sample21]
tne +000_ +00_ 0_ L

[Sample22]
tne +000_ +00_ 0_ L

[Sample23]
tne +000_ +00_ 0_ L

[Sample24]
tne +000_ +00_ 0_ L

[Sample25]
tne +000_ +00_ 0_ L

[Sample26]
tne +000_ +00_ 0_ L

[Sample27]
tne +000_ +00_ 0_ L

[Sample28]
tne +000_ +00_ 0_ L

[Sample29]
tne +000_ +00_ 0_ L

[Sample30]
tne +000_ +00_ 0_ L

[Sample31]
tne +000_ +00_ 0_ L

[Pattern0]
..46|..|G-4 2F1F ....|G-2 18.. B..A|G-4 1F.F ....
..23|..|--- .... ....|G-2 .E.. B..6|G-4 ...8 ....
....|..|--- .... ....|D-3 .... B..A|G-4 ...C ....
....|..|--- .... ....|--- .... B..6|D-4 ...F ....
....|..|--- .... ....|D-3 2... B..A|G-4 ...8 ....
....|..|--- .... ....|R-- .... B..6|D-4 ...C ....
..23|..|--- .... ....|G-2 .E.. B..A|F-4 ...F ....
..4F|..|--- .... ....|F-2 .8.. B..6|D-4 ...8 ....
..46|..|--- .... ....|G-2 18.. B..A|F-4 ...C ....
..23|..|--- .... ....|G-2 .E.. B..6|D-4 ...8 ....
....|..|--- .... ....|D-3 .... B..A|F-4 ...C ....
....|..|--- .... ....|--- .... B..6|D-4 ...8 ....
....|..|--- .... ....|D-3 2... B..A|D-4 ...F ....
....|..|--- .... ....|R-- .... B..6|C-4 .... ....
..23|..|--- .... ....|G-2 .E.. B..A|D-4 ...8 ....
..4F|..|--- .... ....|F-2 .8.. B..6|C-4 ...C ....
..46|..|--- .... ....|G-2 18.. B..A|D-4 ...F ....
..23|..|--- .... ....|G-2 .E.. B..6|C-4 ...8 ....
....|..|--- .... ....|D-3 .... B..A|C-4 ...C ....
....|..|--- .... ....|--- .... B..6|D-4 .... ....
....|..|--- .... ....|D-3 2... B..A|C-4 ...7 ....
....|..|--- .... ....|R-- .... B..6|C-4 ...B ....
..23|..|--- .... ....|G-2 .E.. B..A|D-4 .... ....
..4F|..|--- .... ....|F-2 .8.. B..6|C-4 ...6 ....
..46|..|--- .... ....|G-2 18.. B..A|C-4 ...A ....
..23|..|--- .... ....|G-2 .E.. B..6|D-4 .... ....
....|..|--- .... ....|D-3 .... B..A|C-4 ...5 ....
....|..|--- .... ....|--- .... B..6|C-4 ...9 ....
....|..|--- .... ....|D-3 2... B..A|D-4 .... ....
....|..|--- .... ....|R-- .... B..6|C-4 ...4 ....
..23|..|--- .... ....|G-2 .E.. B..A|C-4 ...8 ....
..4F|..|--- .... ....|F-2 .8.. B..6|D-4 .... ....
..46|..|--- ..2. ....|G-2 18.. B..A|G-4 ...F ....
..23|..|--- .... ....|G-2 .E.. B..6|G-4 ...8 ....
....|..|--- .... ....|D-3 .... B..A|G-4 ...C ....
....|..|--- .... ....|--- .... B..6|D-4 ...F ....
....|..|--- .... ....|D-3 2... B..A|G-4 ...8 ....
....|..|--- .... ....|R-- .... B..6|D-4 ...C ....
..23|..|--- .... ....|G-2 .E.. B..A|F-4 ...F ....
..4F|..|--- .... ....|F-2 .8.. B..6|D-4 ...8 ....
..46|..|--- .... ....|G-2 18.. B..A|F-4 ...C ....
..23|..|--- .... ....|G-2 .E.. B..6|D-4 ...8 ....
....|..|--- .... ....|D-3 .... B..A|F-4 ...C ....
....|..|--- .... ....|--- .... B..6|D-4 ...8 ....
....|..|--- .... ....|D-3 2... B..A|D-4 ...F ....
....|..|--- .... ....|R-- .... B..6|C-4 .... ....
..23|..|--- .... ....|G-2 .E.. B..A|D-4 ...8 ....
..4F|..|--- .... ....|F-2 .8.. B..6|C-4 ...C ....
..46|..|--- .... ....|G-2 18.. B..A|D-4 ...F ....
..23|..|--- .... ....|G-2 .E.. B..6|C-4 ...8 ....
....|..|--- .... ....|D-3 .... B..A|C-4 ...C ....
....|..|--- .... ....|--- .... B..6|D-4 .... ....
....|..|--- .... ....|D-3 2... B..A|C-4 ...7 ....
....|..|--- .... ....|R-- .... B..6|C-4 ...B ....
..23|..|--- .... ....|G-2 .E.. B..A|D-4 .... ....
..4F|..|--- .... ....|F-2 .8.. B..6|C-4 ...6 ....
..46|..|--- .... ....|G-2 18.. B..A|C-4 ...A ....
..23|..|--- .... ....|G-2 .E.. B..6|D-4 .... ....
....|..|--- .... ....|D-3 .... B..A|C-4 ...5 ....
....|..|--- .... ....|--- .... B..6|C-4 ...9 ....
....|..|--- .... ....|D-3 2... B..A|D-4 .... ....
....|..|--- .... ....|R-- .... B..6|C-4 ...4 ....
..23|..|--- .... ....|G-2 .E.. B..A|C-4 ...8 ....
..4F|..|--- .... ....|F-2 .8.. B..6|D-4 .... ....

[Pattern1]
..46|..|G-4 2F3. ....|G-2 18.. B..A|G-4 1..F ....
..23|..|--- .... ....|G-2 .E.. B..6|G-4 ...8 ....
....|..|--- .... ....|D-3 .... B..A|G-4 ...C ....
....|..|--- .... ....|--- .... B..6|D-4 ...F ....
....|..|--- .... ....|D-3 2... B..A|G-4 ...8 ....
....|..|--- .... ....|R-- .... B..6|D-4 ...C ....
..23|..|--- .... ....|G-2 .E.. B..A|F-4 ...F ....
..4F|..|--- .... ....|F-2 .8.. B..6|D-4 ...8 ....
..46|..|--- .... ....|G-2 18.. B..A|F-4 ...C ....
..23|..|--- .... ....|G-2 .E.. B..6|D-4 ...8 ....
....|..|--- .... ....|D-3 .... B..A|F-4 ...C ....
....|..|--- .... ....|--- .... B..6|D-4 ...8 ....
....|..|--- .... ....|D-3 2... B..A|D-4 ...F ....
....|..|--- .... ....|R-- .... B..6|C-4 .... ....
..23|..|--- .... ....|G-2 .E.. B..A|D-4 ...8 ....
..4F|..|--- .... ....|F-2 .8.. B..6|C-4 ...C ....
..46|..|--- .... ....|G-2 18.. B..A|D-4 ...F ....
..23|..|--- .... ....|G-2 .E.. B..6|C-4 ...8 ....
....|..|--- .... ....|D-3 .... B..A|C-4 ...C ....
....|..|--- .... ....|--- .... B..6|D-4 .... ....
....|..|--- .... ....|D-3 2... B..A|C-4 ...7 ....
....|..|--- .... ....|R-- .... B..6|C-4 ...B ....
..23|..|--- .... ....|G-2 .E.. B..A|D-4 .... ....
..4F|..|--- .... ....|F-2 .8.. B..6|C-4 ...6 ....
..46|..|--- .... ....|G-2 18.. B..A|D-4 ...F ....
..23|..|--- .... ....|G-2 .E.. B..6|C-4 ...8 ....
....|..|--- .... ....|D-3 .... B..A|D-4 ...C ....
....|..|--- .... ....|--- .... B..6|C-4 ...F ....
....|..|--- .... ....|D-3 2... B..A|D-4 ...8 ....
....|..|--- .... ....|R-- .... B..6|C-4 ...C ....
..23|..|--- .... ....|G-2 .E.. B..A|A#3 ...F ....
..4F|..|--- .... ....|F-2 .8.. B..6|D-4 ...8 ....
..46|..|--- ..2. ....|G-2 18.. B..A|D-4 ...F ....
..23|..|--- .... ....|G-2 .E.. B..6|G-4 ...8 ....
....|..|--- .... ....|D-3 .... B..A|G-4 ...C ....
....|..|--- .... ....|--- .... B..6|D-4 ...F ....
....|..|--- .... ....|D-3 2... B..A|G-4 ...8 ....
....|..|--- .... ....|R-- .... B..6|G-4 ...C ....
..23|..|--- .... ....|G-2 .E.. B..A|D-4 ...F ....
..4F|..|--- .... ....|F-2 .8.. B..6|G-4 ...8 ....
..46|..|--- .... ....|G-2 18.. B..A|G-4 ...C ....
..23|..|--- .... ....|G-2 .E.. B..6|D-4 ...8 ....
....|..|--- .... ....|D-3 .... B..A|G-4 ...C ....
....|..|--- .... ....|--- .... B..6|G-4 ...8 ....
....|..|--- .... ....|D-3 2... B..A|D-4 ...F ....
....|..|--- .... ....|R-- .... B..6|G-4 .... ....
..23|..|--- .... ....|G-2 .E.. B..A|G-4 ...8 ....
..4F|..|--- .... ....|F-2 .8.. B..6|D-4 ...C ....
..46|..|--- .... ....|G-2 18.. B..A|G-4 ...F ....
..23|..|--- .... ....|G-2 .E.. B..6|G-4 ...8 ....
....|..|--- .... ....|D-3 .... B..A|D-4 ...C ....
....|..|--- .... ....|--- .... B..6|G-4 .... ....
....|..|--- .... ....|D-3 2... B..A|G-4 ...7 ....
....|..|--- .... ....|R-- .... B..6|D-4 ...B ....
..23|..|--- .... ....|G-2 .E.. B..A|G-4 .... ....
..4F|..|--- .... ....|F-2 .8.. B..6|G-4 ...6 ....
..46|..|--- .... ....|G-2 18.. B..A|D-4 ...A ....
..23|..|--- .... ....|G-2 .E.. B..6|G-4 .... ....
....|..|--- .... ....|D-3 .... B..A|G-4 ...5 ....
....|..|--- .... ....|--- .... B..6|D-4 ...9 ....
....|..|--- .... ....|D-3 2... B..A|G-4 .... ....
....|..|--- .... ....|R-- .... B..6|G-4 ...4 ....
..23|..|--- .... ....|G-2 .E.. B..A|D-4 ...8 ....
..4F|..|--- .... ....|F-2 .8.. B..6|G-4 .... ....

[Pattern2]
..46|..|G-4 2F3. ....|C-4 38.. B..A|G-4 1F6F ....
..23|..|--- .... ....|G-2 1E.. B..6|G-4 ...8 ....
....|..|--- .... ....|C-4 4... B..A|G-4 ...C ....
....|..|--- .... ....|C-4 3... B..6|D-4 ...F ....
....|..|--- .... ....|D-3 1... B..A|G-4 ...8 ....
....|..|--- .... ....|C-4 4... B..6|D-4 ...C ....
..23|..|--- .... ....|C-4 3E.. B..A|F-4 ...F ....
..4F|..|--- .... ....|F-2 18.. B..6|D-4 ...8 ....
..46|..|--- .... ....|C-4 38.. B..A|F-4 ...C ....
..23|..|--- .... ....|G-2 1E.. B..6|D-4 ...8 ....
....|..|--- .... ....|C-4 4... B..A|F-4 ...C ....
....|..|--- .... ....|C-4 3... B..6|D-4 ...8 ....
....|..|--- .... ....|D-3 1... B..A|D-4 ...F ....
....|..|--- .... ....|C-4 4... B..6|C-4 .... ....
..23|..|--- .... ....|C-4 3E.. B..A|D-4 ...8 ....
..4F|..|--- .... ....|F-2 18.. B..6|C-4 ...C ....
..46|..|--- .... ....|C-4 38.. B..A|D-4 ...F ....
..23|..|--- .... ....|G-2 1E.. B..6|C-4 ...8 ....
....|..|--- .... ....|C-4 4... B..A|C-4 ...C ....
....|..|--- .... ....|C-4 3... B..6|D-4 .... ....
....|..|--- .... ....|D-3 1... B..A|C-4 ...7 ....
....|..|--- .... ....|C-4 4... B..6|C-4 ...B ....
..23|..|--- .... ....|C-4 3E.. B..A|D-4 .... ....
..4F|..|--- .... ....|F-2 18.. B..6|C-4 ...6 ....
..46|..|--- .... ....|C-4 38.. B..A|D-4 ...F ....
..23|..|--- .... ....|G-2 1E.. B..6|C-4 ...8 ....
....|..|--- .... ....|C-4 4... B..A|D-4 ...C ....
....|..|--- .... ....|C-4 3... B..6|C-4 ...F ....
....|..|--- .... ....|D-3 1... B..A|D-4 ...8 ....
....|..|--- .... ....|C-4 4... B..6|C-4 ...C ....
..23|..|--- .... ....|C-4 3E.. B..A|A#3 ...F ....
..4F|..|--- .... ....|F-2 18.. B..6|D-4 ...8 ....
..46|..|--- ..2. ....|C-4 38.. B..A|D-4 ..7F ....
..23|..|--- .... ....|G-2 1E.. B..6|G-4 ...8 ....
....|..|--- .... ....|C-4 4... B..A|G-4 ...C ....
....|..|--- .... ....|C-4 3... B..6|D-4 ...F ....
....|..|--- .... ....|D-3 1... B..A|G-4 ...8 ....
....|..|--- .... ....|C-4 4... B..6|D-4 ...C ....
..23|..|--- .... ....|C-4 3E.. B..A|A#3 ...F ....
..4F|..|--- .... ....|F-2 18.. B..6|D-4 ...8 ....
..46|..|--- .... ....|C-4 38.. B..A|D-4 ...C ....
..23|..|--- .... ....|G-2 1E.. B..6|D-4 ...8 ....
....|..|--- .... ....|C-4 4... B..A|F-4 ...C ....
....|..|--- .... ....|C-4 3... B..6|D-4 ...8 ....
....|..|--- .... ....|D-3 1... B..A|D-4 ...F ....
....|..|--- .... ....|C-4 4... B..6|C-4 .... ....
..23|..|--- .... ....|C-4 3E.. B..A|D-4 ...8 ....
..4F|..|--- .... ....|F-2 18.. B..6|C-4 ...C ....
..46|..|--- .... ....|C-4 38.. B..A|D-4 ...F ....
..23|..|--- .... ....|G-2 1E.. B..6|C-4 ...8 ....
....|..|--- .... ....|C-4 4... B..A|C-4 ...C ....
....|..|--- .... ....|C-4 3... B..6|D-4 .... ....
....|..|--- .... ....|D-3 1... B..A|C-4 ...7 ....
....|..|--- .... ....|C-4 4... B..6|C-4 ...B ....
..23|..|--- .... ....|C-4 3E.. B..A|D-4 .... ....
..4F|..|--- .... ....|F-2 18.. B..6|C-4 ...6 ....
..46|..|--- .... ....|C-4 38.. B..A|C-4 ...A ....
..23|..|--- .... ....|G-2 1E.. B..6|D-4 .... ....
....|..|--- .... ....|C-4 4... B..A|C-4 ...5 ....
....|..|--- .... ....|C-4 3... B..6|C-4 ...9 ....
....|..|--- .... ....|D-3 1... B..A|D-4 .... ....
....|..|--- .... ....|C-4 4... B..6|C-4 ...4 ....
..23|..|--- .... ....|C-4 3E.. B..A|C-4 ...8 ....
..4F|..|--- .... ....|F-2 18.. B..6|D-4 .... ....

[Pattern3]
..46|..|G-4 2F3. ....|G-2 18.. B..A|G-4 1..F ....
..23|..|--- .... ....|G-2 .E.. B..6|G-4 ...8 ....
....|..|--- .... ....|D-3 .... B..A|G-4 ...C ....
....|..|--- .... ....|--- .... B..6|D-4 ...F ....
....|..|--- .... ....|D-3 2... B..A|G-4 ...8 ....
....|..|--- .... ....|R-- .... B..6|D-4 ...C ....
..23|..|--- .... ....|G-2 .E.. B..A|F-4 ...F ....
..4F|..|--- .... ....|F-2 .8.. B..6|D-4 ...8 ....
..46|..|--- .... ....|G-2 18.. B..A|F-4 ...C ....
..23|..|--- .... ....|G-2 .E.. B..6|D-4 ...8 ....
....|..|--- .... ....|D-3 .... B..A|F-4 ...C ....
....|..|--- .... ....|--- .... B..6|D-4 ...8 ....
....|..|--- .... ....|D-3 2... B..A|D-4 ...F ....
....|..|--- .... ....|R-- .... B..6|C-4 .... ....
..23|..|--- .... ....|G-2 .E.. B..A|D-4 ...8 ....
..4F|..|--- .... ....|F-2 .8.. B..6|C-4 ...C ....
..46|..|--- .... ....|G-2 18.. B..A|D-4 ...F ....
..23|..|--- .... ....|G-2 .E.. B..6|C-4 ...8 ....
....|..|--- .... ....|D-3 .... B..A|C-4 ...C ....
....|..|--- .... ....|--- .... B..6|D-4 .... ....
....|..|--- .... ....|D-3 2... B..A|C-4 ...7 ....
....|..|--- .... ....|R-- .... B..6|C-4 ...B ....
..23|..|--- .... ....|G-2 .E.. B..A|D-4 .... ....
..4F|..|--- .... ....|F-2 .8.. B..6|C-4 ...6 ....
..46|..|--- .... ....|G-2 18.. B..A|D-4 ...F ....
..23|..|--- .... ....|G-2 .E.. B..6|C-4 ...8 ....
....|..|--- .... ....|D-3 .... B..A|D-4 ...C ....
....|..|--- .... ....|--- .... B..6|C-4 ...F ....
....|..|--- .... ....|D-3 2... B..A|D-4 ...8 ....
....|..|--- .... ....|R-- .... B..6|C-4 ...C ....
..23|..|--- .... ....|G-2 .E.. B..A|A#3 ...F ....
..4F|..|--- .... ....|F-2 .8.. B..6|D-4 ...8 ....
..46|..|--- ..2. ....|G-2 18.. B..A|D-4 ...F ....
..23|..|--- .... ....|G-2 .E.. B..6|G-4 ...8 ....
....|..|--- .... ....|D-3 .... B..A|G-4 ...C ....
....|..|--- .... ....|--- .... B..6|D-4 ...E ....
....|..|--- .... ....|D-3 2... B..A|G-4 ...7 ....
....|..|--- .... ....|R-- .... B..6|G-4 ...B ....
..23|..|--- .... ....|G-2 .E.. B..A|D-4 ...D ....
..4F|..|--- .... ....|F-2 .8.. B..6|G-4 ...6 ....
..46|..|--- .... ....|G-2 18.. B..A|G-4 ...A ....
..23|..|--- .... ....|G-2 .E.. B..6|D-4 ...C ....
....|..|--- .... ....|D-3 .... B..A|G-4 ...5 ....
....|..|--- .... ....|--- .... B..6|G-4 ...9 ....
....|..|--- .... ....|D-3 2... B..A|D-4 ...B ....
....|..|--- .... ....|R-- .... B..6|G-4 ...4 ....
..23|..|--- .... ....|G-2 .E.. B..A|G-4 ...8 ....
..4F|..|--- .... ....|F-2 .8.. B..6|D-4 ...A ....
..46|..|--- .... ....|G-2 18.. B..A|G-4 ...3 ....
..23|..|--- .... ....|G-2 .E.. B..6|G-4 ...7 ....
....|..|--- .... ....|D-3 .... B..A|D-4 ...9 ....
....|..|--- .... ....|--- .... B..6|G-4 ...2 ....
....|..|--- .... ....|D-3 2... B..A|G-4 ...6 ....
....|..|--- .... ....|R-- .... B..6|D-4 ...8 ....
..23|..|--- .... ....|G-2 .E.. B..A|G-4 ...1 ....
..4F|..|--- .... ....|F-2 .8.. B..6|G-4 ...7 ....
..46|..|--- .... ....|G-2 18.. B..A|D-4 ...6 ....
..23|..|--- .... ....|G-2 .E.. B..6|G-4 ...1 ....
....|..|--- .... ....|D-3 .... B..A|G-4 ...5 ....
....|..|--- .... ....|--- .... B..6|D-4 ...9 ....
....|..|--- .... ....|D-3 2... B..A|G-4 ...1 ....
....|..|--- .... ....|R-- .... B..6|G-4 ...4 ....
..23|..|--- .... ....|G-2 .E.. B..A|D-4 ...8 ....
..4F|..|--- .... ....|F-2 .8.. B..6|G-4 ...1 ....

[Pattern4]
..46|..|G-4 2F1. ....|C-4 38.. B..A|G-4 1F4F ....
..23|..|--- .... ....|G-2 1E.. B..6|G-4 ...8 ....
....|..|--- .... ....|C-4 4... B..A|G-4 ...C ....
....|..|--- .... ....|C-4 3... B..6|D-4 ...F ....
....|..|--- .... ....|D-3 1... B..A|G-4 ...8 ....
....|..|--- .... ....|C-4 4... B..6|D-4 ...C ....
..23|..|--- .... ....|C-4 3E.. B..A|F-4 ...F ....
..4F|..|--- .... ....|F-2 18.. B..6|D-4 ...8 ....
..46|..|--- .... ....|C-4 38.. B..A|F-4 ...C ....
..23|..|--- .... ....|G-2 1E.. B..6|D-4 ...8 ....
....|..|--- .... ....|C-4 4... B..A|F-4 ...C ....
....|..|--- .... ....|C-4 3... B..6|D-4 ...8 ....
....|..|--- .... ....|D-3 1... B..A|D-4 ...F ....
....|..|--- .... ....|C-4 4... B..6|C-4 .... ....
..23|..|--- .... ....|C-4 3E.. B..A|D-4 ...8 ....
..4F|..|--- .... ....|F-2 18.. B..6|C-4 ...C ....
..46|..|--- .... ....|C-4 38.. B..A|D-4 ...F ....
..23|..|--- .... ....|G-2 1E.. B..6|C-4 ...8 ....
....|..|--- .... ....|C-4 4... B..A|C-4 ...C ....
....|..|--- .... ....|C-4 3... B..6|D-4 .... ....
....|..|--- .... ....|D-3 1... B..A|C-4 ...7 ....
....|..|--- .... ....|C-4 4... B..6|C-4 ...B ....
..23|..|--- .... ....|C-4 3E.. B..A|D-4 .... ....
..4F|..|--- .... ....|F-2 18.. B..6|C-4 ...6 ....
..46|..|--- .... ....|C-4 38.. B..A|C-4 ...A ....
..23|..|--- .... ....|G-2 1E.. B..6|D-4 .... ....
....|..|--- .... ....|C-4 4... B..A|C-4 ...5 ....
....|..|--- .... ....|C-4 3... B..6|C-4 ...9 ....
....|..|--- .... ....|D-3 1... B..A|D-4 .... ....
....|..|--- .... ....|C-4 4... B..6|C-4 ...4 ....
..23|..|--- .... ....|C-4 3E.. B..A|C-4 ...8 ....
..4F|..|--- .... ....|F-2 18.. B..6|D-4 .... ....
..46|..|--- ..2. ....|C-4 38.. B..A|G-4 ..5F ....
..23|..|--- .... ....|G-2 1E.. B..6|G-4 ...8 ....
....|..|--- .... ....|C-4 4... B..A|G-4 ...C ....
....|..|--- .... ....|C-4 3... B..6|D-4 ...F ....
....|..|--- .... ....|D-3 1... B..A|G-4 ...8 ....
....|..|--- .... ....|C-4 4... B..6|D-4 ...C ....
..23|..|--- .... ....|C-4 3E.. B..A|F-4 ...F ....
..4F|..|--- .... ....|F-2 18.. B..6|D-4 ...8 ....
..46|..|--- .... ....|C-4 38.. B..A|F-4 ...C ....
..23|..|--- .... ....|G-2 1E.. B..6|D-4 ...8 ....
....|..|--- .... ....|C-4 4... B..A|F-4 ...C ....
....|..|--- .... ....|C-4 3... B..6|D-4 ...8 ....
....|..|--- .... ....|D-3 1... B..A|D-4 ...F ....
....|..|--- .... ....|C-4 4... B..6|C-4 .... ....
..23|..|--- .... ....|C-4 3E.. B..A|D-4 ...8 ....
..4F|..|--- .... ....|F-2 18.. B..6|C-4 ...C ....
..46|..|--- .... ....|C-4 38.. B..A|D-4 ...F ....
..23|..|--- .... ....|G-2 1E.. B..6|C-4 ...8 ....
....|..|--- .... ....|C-4 4... B..A|C-4 ...C ....
....|..|--- .... ....|C-4 3... B..6|D-4 .... ....
....|..|--- .... ....|D-3 1... B..A|C-4 ...7 ....
....|..|--- .... ....|C-4 4... B..6|C-4 ...B ....
..23|..|--- .... ....|C-4 3E.. B..A|D-4 .... ....
..4F|..|--- .... ....|F-2 18.. B..6|C-4 ...6 ....
..46|..|--- .... ....|C-4 38.. B..A|C-4 ...A ....
..23|..|--- .... ....|G-2 1E.. B..6|D-4 .... ....
....|..|--- .... ....|C-4 4... B..A|C-4 ...5 ....
....|..|--- .... ....|C-4 3... B..6|C-4 ...9 ....
....|..|--- .... ....|D-3 1... B..A|D-4 .... ....
....|..|--- .... ....|C-4 4... B..6|C-4 ...4 ....
..23|..|--- .... ....|C-4 3E.. B..A|C-4 ...8 ....
..4F|..|--- .... ....|F-2 18.. B..6|D-4 .... ....

[Pattern5]
..46|..|G-4 2F3. ....|C-4 38.. B..A|G-4 1F6F ....
..23|..|--- .... ....|G-2 1E.. B..6|G-4 ...8 ....
....|..|--- .... ....|C-4 4... B..A|G-4 ...C ....
....|..|--- .... ....|C-4 3... B..6|D-4 ...F ....
....|..|--- .... ....|D-3 1... B..A|G-4 ...8 ....
....|..|--- .... ....|C-4 4... B..6|D-4 ...C ....
..23|..|--- .... ....|C-4 3E.. B..A|F-4 ...F ....
..4F|..|--- .... ....|F-2 18.. B..6|D-4 ...8 ....
..46|..|--- .... ....|C-4 38.. B..A|F-4 ...C ....
..23|..|--- .... ....|G-2 1E.. B..6|D-4 ...8 ....
....|..|--- .... ....|C-4 4... B..A|F-4 ...C ....
....|..|--- .... ....|C-4 3... B..6|D-4 ...8 ....
....|..|--- .... ....|D-3 1... B..A|D-4 ...F ....
....|..|--- .... ....|C-4 4... B..6|C-4 .... ....
..23|..|--- .... ....|C-4 3E.. B..A|D-4 ...8 ....
..4F|..|--- .... ....|F-2 18.. B..6|C-4 ...C ....
..46|..|--- .... ....|C-4 38.. B..A|D-4 ...F ....
..23|..|--- .... ....|G-2 1E.. B..6|C-4 ...8 ....
....|..|--- .... ....|C-4 4... B..A|C-4 ...C ....
....|..|--- .... ....|C-4 3... B..6|D-4 .... ....
....|..|--- .... ....|D-3 1... B..A|C-4 ...7 ....
....|..|--- .... ....|C-4 4... B..6|C-4 ...B ....
..23|..|--- .... ....|C-4 3E.. B..A|D-4 .... ....
..4F|..|--- .... ....|F-2 18.. B..6|C-4 ...6 ....
..46|..|--- .... ....|C-4 38.. B..A|D-4 ...F ....
..23|..|--- .... ....|G-2 1E.. B..6|C-4 ...8 ....
....|..|--- .... ....|C-4 4... B..A|D-4 ...C ....
....|..|--- .... ....|C-4 3... B..6|C-4 ...F ....
....|..|--- .... ....|D-3 1... B..A|D-4 ...8 ....
....|..|--- .... ....|C-4 4... B..6|C-4 ...C ....
..23|..|--- .... ....|C-4 3E.. B..A|A#3 ...F ....
..4F|..|--- .... ....|F-2 18.. B..6|D-4 ...8 ....
..46|..|--- ..1. ....|C-4 38.. B..A|D-4 ..7F ....
..23|..|--- .... ....|G-2 1E.. B..6|G-4 ...8 ....
....|..|--- .... ....|C-4 4... B..A|G-4 ...C ....
....|..|--- .... ....|C-4 3... B..6|D-4 ...F ....
....|..|--- .... ....|D-3 1... B..A|G-4 ...8 ....
....|..|--- .... ....|C-4 4... B..6|G-4 ...C ....
..23|..|--- .... ....|C-4 3E.. B..A|D-4 ...F ....
..4F|..|--- .... ....|F-2 18.. B..6|G-4 ...8 ....
..46|..|--- .... ....|C-4 38.. B..A|G-4 ...C ....
..23|..|--- .... ....|G-2 1E.. B..6|D-4 ...8 ....
....|..|--- .... ....|C-4 4... B..A|G-4 ...C ....
....|..|--- .... ....|C-4 3... B..6|G-4 ...8 ....
....|..|--- .... ....|D-3 1... B..A|D-4 ...F ....
....|..|--- .... ....|C-4 4... B..6|G-4 .... ....
..23|..|--- .... ....|C-4 3E.. B..A|G-4 ...8 ....
..4F|..|--- .... ....|F-2 18.. B..6|D-4 ...C ....
..46|..|--- .... ....|C-4 38.. B..A|G-4 ...F ....
..23|..|--- .... ....|G-2 1E.. B..6|G-4 ...8 ....
....|..|--- .... ....|C-4 4... B..A|D-4 ...C ....
....|..|--- .... ....|C-4 3... B..6|G-4 .... ....
....|..|--- .... ....|D-3 1... B..A|G-4 ...7 ....
....|..|--- .... ....|C-4 4... B..6|D-4 ...B ....
..23|..|--- .... ....|C-4 3E.. B..A|G-4 .... ....
..4F|..|--- .... ....|F-2 18.. B..6|G-4 ...6 ....
..46|..|--- .... ....|C-4 38.. B..A|D-4 ...A ....
..23|..|--- .... ....|G-2 1E.. B..6|G-4 .... ....
....|..|--- .... ....|C-4 4... B..A|G-4 ...5 ....
....|..|--- .... ....|C-4 3... B..6|D-4 ...9 ....
....|..|--- .... ....|D-3 1... B..A|G-4 .... ....
....|..|--- .... ....|C-4 4... B..6|G-4 ...4 ....
..23|..|--- .... ....|C-4 3E.. B..A|D-4 ...8 ....
..4F|..|--- .... ....|F-2 18.. B..6|G-4 .... ....

[Pattern6]
..46|..|A#4 7F.F ....|C-4 38.. B..5|G-4 1F.F ....
....|..|--- .... ....|--- .... ....|G-4 2F8. ....
..23|..|D-5 ...8 ....|G-2 1E.. B..3|G-4 1F.8 ....
....|..|--- .... ....|--- .... ....|G-4 2F8F ....
....|..|A#4 ...C ....|C-4 4... B..5|G-4 1F.C ....
....|..|--- .... ....|--- .... ....|G-4 2F8F ....
....|..|G-4 ...F ....|C-4 3... B..3|D-4 1F.. ....
....|..|--- .... ....|--- .... ....|G-4 2F8. ....
....|..|A#4 ...8 ....|D-3 1... B..5|G-4 1F.8 ....
....|..|--- .... ....|--- .... ....|G-4 2F8F ....
....|..|A#4 ...F ....|C-4 4... B..3|D-4 1F.C ....
....|..|--- .... ....|--- .... ....|G-4 2F8F ....
..23|..|G-4 ...8 ....|C-4 3E.. B..5|F-4 1F.. ....
....|..|--- .... ....|--- .... ....|G-4 2F8. ....
..4F|..|A#4 ...C ....|F-2 18.. B..3|D-4 1F.8 ....
....|..|--- .... ....|--- .... ....|G-4 2F8F ....
..46|..|G-4 ...F ....|C-4 38.. B..5|F-4 1F.C ....
....|..|--- .... ....|--- .... ....|G-4 2F8F ....
..23|..|A#4 ...8 ....|G-2 1E.. B..3|D-4 1F.8 ....
....|..|--- .... ....|--- .... ....|G-4 2F8F ....
....|..|A#4 ...F ....|C-4 4... B..5|F-4 1F.C ....
....|..|--- .... ....|--- .... ....|G-4 2F8F ....
....|..|G-4 ...8 ....|C-4 3... B..3|D-4 1F.4 ....
....|..|--- .... ....|--- .... ....|G-4 2F8F ....
....|..|G-4 ...F ....|D-3 1... B..5|D-4 1F.. ....
....|..|--- .... ....|--- .... ....|G-4 2F8. ....
....|..|A#4 ...8 ....|C-4 4... B..3|C-4 1F.. ....
....|..|--- .... ....|--- .... ....|G-4 2F8. ....
..23|..|F-4 ...F ....|C-4 3E.. B..5|D-4 1F.8 ....
....|..|--- .... ....|--- .... ....|G-4 2F8F ....
..4F|..|G-4 ...8 ....|F-2 18.. B..3|C-4 1F.C ....
....|..|--- .... ....|--- .... ....|G-4 2F8F ....
..46|..|A#4 ...F ....|C-4 38.. B..5|D-4 1F.. ....
....|..|--- .... ....|--- .... ....|--- .... ....
..23|..|D-5 ...8 ....|G-2 1E.. B..3|--- .... ....
....|..|--- .... ....|--- .... ....|--- .... ....
....|..|A#4 ...C ....|C-4 4... B..5|--- .... ....
....|..|--- .... ....|--- .... ....|--- .... ....
....|..|G-4 ...F ....|C-4 3... B..3|--- .... ....
....|..|--- .... ....|--- .... ....|--- .... ....
....|..|A#4 ...8 ....|D-3 1... B..5|--- .... ....
....|..|--- .... ....|--- .... ....|--- .... ....
....|..|A#4 ...F ....|C-4 4... B..3|--- .... ....
....|..|--- .... ....|--- .... ....|--- .... ....
..23|..|G-4 ...8 ....|C-4 3E.. B..5|--- .... ....
....|..|--- .... ....|--- .... ....|--- .... ....
..4F|..|A#4 ...C ....|F-2 18.. B..3|--- .... ....
....|..|--- .... ....|--- .... ....|--- .... ....
..46|..|G-4 ...F ....|C-4 38.. B..5|D-4 .... ....
....|..|--- .... ....|--- .... ....|--- .... ....
..23|..|A#4 ...8 ....|G-2 1E.. B..3|--- .... ....
....|..|--- .... ....|--- .... ....|--- .... ....
....|..|A#4 ...F ....|C-4 4... B..5|D-4 .... ....
....|..|--- .... ....|--- .... ....|--- .... ....
....|..|G-4 ...8 ....|C-4 3... B..3|C-4 .... ....
....|..|--- .... ....|--- .... ....|--- .... ....
....|..|G-4 ...F ....|D-3 1... B..5|--- .... ....
....|..|--- .... ....|--- .... ....|--- .... ....
....|..|A#4 ...8 ....|C-4 4... B..3|--- .... ....
....|..|--- .... ....|--- .... ....|--- .... ....
..23|..|A#4 ...F ....|C-4 3E.. B..5|A#3 .... ....
....|..|--- .... ....|--- .... ....|--- .... ....
..4F|..|G-4 ...8 ....|F-2 18.. B..3|--- .... ....
....|..|--- .... ....|--- .... ....|--- .... ....

