[Module]
VortexTrackerII=1
Version=3.6
Title=if u want
Author=key-jee
NoteTable=2
Speed=7
PlayOrder=4,5,0,1,L8,9,6,7,8,9,6,7,2,3,6,7,2,3,6,7

[Ornament1]
L0,3,3

[Ornament2]
L0,5,0

[Ornament3]
L0,7,0

[Ornament4]
L0,5,5

[Ornament5]
L0,3,8

[Ornament6]
L0

[Ornament7]
L36,36,0,0

[Ornament8]
L0

[Ornament9]
L0

[Ornament10]
L0

[Ornament11]
L0

[Ornament12]
L0

[Ornament13]
L0

[Ornament14]
L0

[Ornament15]
L0

[Sample1]
Tne +000_ +00_ F_
Tne +000_ +00_ F_
Tne +000_ +00_ E_
Tne +000_ +00_ D_
Tne +000_ +00_ C_
Tne +000_ +00_ A_
Tne +000_ +00_ 8_
Tne +000_ +00_ 6_ L
Tne +001_ +00_ 6_
Tne +001_ +00_ 6_
Tne +000_ +00_ 6_
Tne +000_ +00_ 6_
Tne -001_ +00_ 6_
Tne -001_ +00_ 6_
Tne +000_ +00_ 6_

[Sample2]
Tne +000_ +00_ C_ L
Tne +001_ +00_ C_
Tne +002_ +00_ C_
Tne +001_ +00_ C_
Tne +000_ +00_ C_
Tne -001_ +00_ C_
Tne -002_ +00_ C_
Tne -001_ +00_ C_

[Sample3]
Tne +000_ +00_ B-
Tne +000_ +00_ B_
Tne +000_ +00_ B_
Tne +000_ +00_ A_
Tne +000_ +00_ 9_
Tne +000_ +00_ 8_
Tne +000_ +00_ 6_
Tne +000_ +00_ 5_ L
Tne +001_ +00_ 5_
Tne +001_ +00_ 5_
Tne +000_ +00_ 5_
Tne +000_ +00_ 5_
Tne -001_ +00_ 5_
Tne -001_ +00_ 5_
Tne +000_ +00_ 5_

[Sample4]
TnE +000_ +00_ A_ L

[Sample5]
Tne +000_ +00_ 8_
Tne +000_ +00_ 8_
Tne +000_ +00_ 7_
Tne +000_ +00_ 7_
Tne +000_ +00_ 6_
Tne +000_ +00_ 5_
Tne +000_ +00_ 4_
Tne +000_ +00_ 3_ L
Tne +001_ +00_ 3_
Tne +001_ +00_ 3_
Tne +000_ +00_ 3_
Tne +000_ +00_ 3_
Tne -001_ +00_ 3_
Tne -001_ +00_ 3_
Tne +000_ +00_ 3_

[Sample6]
TNe +000_ +00_ A_ L
TNe +000_ +00_ A-

[Sample7]
Tne +100_ +00_ E_
Tne +200_ +00_ E_
Tne +300_ +00_ E_
tne +000_ +00_ 0_ L
tne +000_ +00_ 0_

[Sample8]
TNe +080^ +04^ F-
TNe +080^ +00_ E_
TNe +080^ +02^ C_
TNe +080^ +00_ A_
tNe +000_ +01^ 5_ L
tNe +000_ +00_ 5_
tNe +000_ +00_ 5-

[Sample9]
TNe +000_ +00_ F- L
TNe +000_ +00_ F_

[Sample10]
tne +000_ +00_ 0_ L

[Sample11]
tne +000_ +00_ 0_ L

[Sample12]
tne +000_ +00_ 0_ L

[Sample13]
tne +000_ +00_ 0_ L

[Sample14]
tne +000_ +00_ 0_ L

[Sample15]
tne +000_ +00_ 0_ L

[Sample16]
tne +000_ +00_ 0_ L

[Sample17]
tne +000_ +00_ 0_ L

[Sample18]
tne +000_ +00_ 0_ L

[Sample19]
tne +000_ +00_ 0_ L

[Sample20]
tne +000_ +00_ 0_ L

[Sample21]
tne +000_ +00_ 0_ L

[Sample22]
tne +000_ +00_ 0_ L

[Sample23]
tne +000_ +00_ 0_ L

[Sample24]
tne +000_ +00_ 0_ L

[Sample25]
tne +000_ +00_ 0_ L

[Sample26]
tne +000_ +00_ 0_ L

[Sample27]
tne +000_ +00_ 0_ L

[Sample28]
tne +000_ +00_ 0_ L

[Sample29]
tne +000_ +00_ 0_ L

[Sample30]
tne +000_ +00_ 0_ L

[Sample31]
tne +000_ +00_ 0_ L

[Pattern0]
....|..|F-4 1..F ....|R-- ...C ....|A-4 2F.A B..9
....|..|--- .... ....|--- .... ....|--- .... B..6
....|..|A-4 .... ....|F-4 1... ....|--- ...B B..9
....|..|F-4 3... ....|--- .... ....|--- .... B..6
....|..|C-5 1... ....|A-4 .... ....|--- ...C B..9
....|..|A-4 3... ....|F-4 3... ....|--- ...7 B..6
....|..|F-4 5... ....|C-5 1... ....|--- ...D B..9
....|..|C-5 1... ....|A-4 3... ....|--- .... B..6
....|..|F-4 .... ....|F-4 5... ....|--- ...E B..9
....|..|F-4 5... ....|C-5 1... ....|--- .... B..6
....|..|A-4 1... ....|F-4 .... ....|--- ...F B..9
....|..|F-4 3... ....|F-4 5... ....|--- .... B..6
....|..|D-5 1... ....|A-4 1... ....|--- .... B..9
....|..|A-4 3... ....|F-4 3... ....|--- .... B..6
....|..|C-5 1... ....|D-5 1... ....|C-5 .... B..9
....|..|D-5 3... ....|A-4 3... ....|--- .... B..6
....|..|E-4 1... ....|C-5 1... ....|G-4 ...A B..9
....|..|C-5 3... ....|D-5 3... ....|--- .... B..6
....|..|A-4 1... ....|E-4 1... ....|--- ...B B..9
....|..|E-4 3... ....|C-5 3... ....|--- .... B..6
....|..|C-5 1... ....|A-4 1... ....|--- ...C B..9
....|..|A-4 3... ....|E-4 3... ....|--- .... B..6
....|..|E-4 5... ....|C-5 1... ....|--- ...D B..9
....|..|C-5 1... ....|A-4 3... ....|--- .... B..6
....|..|E-4 .... ....|E-4 5... ....|--- ...E B..9
....|..|E-4 5... ....|C-5 1... ....|--- .... B..6
....|..|D-5 1... ....|E-4 .... ....|--- ...F B..9
....|..|E-4 3... ....|E-4 5... ....|--- .... B..6
....|..|C-5 1... ....|D-5 1... ....|E-4 .... B..9
....|..|D-5 3... ....|E-4 3... ....|--- .... B..6
....|..|D-5 1... ....|C-5 1... ....|--- .... B..9
....|..|C-5 3... ....|D-5 3... ....|--- .... B..6
....|..|D-4 1... ....|D-5 1... ....|G-4 ...A B..9
....|..|D-5 3... ....|C-5 3... ....|--- .... B..6
....|..|A-4 1... ....|D-4 1... ....|--- ...B B..9
....|..|D-4 3... ....|D-5 3... ....|--- .... B..6
....|..|C-5 1... ....|A-4 1... ....|--- ...C B..9
....|..|A-4 3... ....|D-4 3... ....|--- .... B..6
....|..|D-4 5... ....|C-5 1... ....|--- ...D B..9
....|..|C-5 1... ....|A-4 3... ....|--- .... B..6
....|..|D-4 .... ....|D-4 5... ....|--- ...E B..9
....|..|D-4 5... ....|C-5 1... ....|--- .... B..6
....|..|G-4 1... ....|D-4 .... ....|--- ...F B..9
....|..|D-4 3... ....|D-4 5... ....|--- .... B..6
....|..|A-4 1... ....|G-4 1... ....|--- .... B..9
....|..|G-4 3... ....|D-4 3... ....|--- .... B..6
....|..|A#4 1... ....|A-4 1... ....|--- .... B..9
....|..|G-4 3... ....|G-4 3... ....|--- .... B..6
....|..|A#3 1... ....|A#4 1... ....|F-4 ..4A B..9
....|..|A#4 3... ....|G-4 3... ....|--- .... B..6
....|..|A#4 1... ....|A#3 1... ....|--- ...B B..9
....|..|A#3 3... ....|A#4 3... ....|--- .... B..6
....|..|A#4 5... ....|A#4 1... ....|--- ...C B..9
....|..|A#4 1... ....|A#3 3... ....|--- .... B..6
....|..|C-5 .... ....|A#4 5... ....|--- ...D B..9
....|..|A#4 5... ....|A#4 1... ....|--- .... B..6
....|..|A#4 3... ....|C-5 .... ....|--- ...E B..9
....|..|C-5 1... ....|A#4 5... ....|--- .... B..6
....|..|A#4 .... ....|A#4 3... ....|--- ...F B..9
....|..|A#4 5... ....|C-5 1... ....|--- .... B..6
....|..|C-5 3... ....|A#4 .... ....|--- .... B..9
....|..|A#4 .... ....|A#4 5... ....|--- .... B..6
....|..|A-4 1... ....|C-5 3... ....|--- .... B..9
....|..|C-5 5... ....|A#4 .... ....|--- .... B..6

[Pattern1]
....|..|F-4 1..F ....|A-4 2F5B ....|A-4 1F1D B..9
....|..|--- .... ....|--- .... ....|A-4 2... B..6
....|..|A-4 .... ....|--- .... ....|C-5 1.2. B..9
....|..|F-4 3... ....|--- .... ....|A-4 ..17 B..6
....|..|C-5 1... ....|--- .... ....|A-4 ...F B..9
....|..|F-4 5... ....|--- .... ....|C-5 ..2. B..6
....|..|C-5 3... ....|--- .... ....|A-4 ...D B..9
....|..|C-5 1... ....|--- .... ....|A-4 ..1. B..6
....|..|F-4 .... ....|--- .... ....|A-4 ..27 B..9
....|..|C-5 5... ....|--- .... ....|A-4 2.1. B..6
....|..|A#4 1... ....|--- .... ....|C-5 1.2D B..9
....|..|F-4 3... ....|--- .... ....|A-4 ..17 B..6
....|..|A-4 1... ....|--- .... ....|A-4 ...F B..9
....|..|A#4 3... ....|--- .... ....|C-5 ..2. B..6
....|..|C-5 1... ....|--- .... ....|A-4 ...D B..9
....|..|A-4 3... ....|--- .... ....|A-4 ..1. B..6
....|..|E-4 1... ....|G-4 ..2. ....|G-4 ..2. B..9
....|..|C-5 3... ....|--- .... ....|G-4 2... B..6
....|..|A-4 1... ....|--- .... ....|C-5 1... B..9
....|..|E-4 3... ....|--- .... ....|G-4 ...7 B..6
....|..|C-5 1... ....|--- .... ....|G-4 ...F B..9
....|..|A-4 5... ....|--- .... ....|C-5 .... B..6
....|..|E-4 3... ....|--- .... ....|G-4 ..1D B..9
....|..|C-5 1... ....|--- .... ....|G-4 ..2. B..6
....|..|D-5 .... ....|--- .... ....|A-4 ..1. B..9
....|..|E-4 5... ....|--- .... ....|A-4 2... B..6
....|..|E-4 1... ....|--- .... ....|C-5 1.2. B..9
....|..|D-5 3... ....|--- .... ....|A-4 ..17 B..6
....|..|E-5 1... ....|--- .... ....|A-4 ...F B..9
....|..|A-4 3... ....|--- .... ....|C-5 ..2. B..6
....|..|F-5 1... ....|--- .... ....|A-4 ...D B..9
....|..|E-5 3... ....|--- .... ....|A-4 ..1. B..6
....|..|D-4 1... ....|G-4 ..3. ....|A-4 .... B..9
....|..|F-5 3... ....|--- .... ....|A-4 2... B..6
....|..|A-4 1... ....|--- .... ....|C-5 1.2. B..9
....|..|D-4 3... ....|--- .... ....|A-4 ..17 B..6
....|..|C-5 1... ....|--- .... ....|A-4 ...F B..9
....|..|A-4 3... ....|--- .... ....|C-5 ..2. B..6
....|..|E-5 1... ....|--- .... ....|A-4 ...D B..9
....|..|C-5 3... ....|--- .... ....|A-4 ..1. B..6
....|..|D-4 1... ....|--- .... ....|A-4 .... B..9
....|..|E-5 3... ....|--- .... ....|A-4 2... B..6
....|..|C-5 1... ....|--- .... ....|C-5 1.2. B..9
....|..|D-4 3... ....|--- .... ....|A-4 ..17 B..6
....|..|E-5 1... ....|--- .... ....|A-4 ...F B..9
....|..|C-5 3... ....|--- .... ....|C-5 ..2. B..6
....|..|D-5 1... ....|--- .... ....|A-4 ...D B..9
....|..|E-5 3... ....|--- .... ....|A-4 ..1. B..6
....|..|A#3 1... ....|F-4 ..4. ....|A-4 .... B..9
....|..|D-5 3... ....|--- .... ....|A-4 2... B..6
....|..|A#4 1... ....|--- .... ....|C-5 1.2. B..9
....|..|A#3 3... ....|--- .... ....|A-4 ..17 B..6
....|..|F-4 1... ....|--- .... ....|A-4 ...F B..9
....|..|A#4 3... ....|--- .... ....|C-5 ..2. B..6
....|..|C-5 1... ....|--- .... ....|A-4 ...D B..9
....|..|F-4 3... ....|--- .... ....|A-4 ..1. B..6
....|..|A#3 1... ....|--- .... ....|A-4 .... B..9
....|..|C-5 3... ....|--- .... ....|A-4 2... B..6
....|..|A#4 9... ....|--- .... ....|C-5 1.2. B..9
....|..|A#4 ...D ....|--- .... ....|A-4 ..17 B..6
....|..|A#5 ...B ....|--- .... ....|A-4 ...F B..9
....|..|A#5 ...9 ....|--- .... ....|C-5 ..2. B..6
....|..|A-4 ...F ....|--- .... ....|A-4 ...D B..9
....|..|A-5 ...B ....|--- .... ....|A-4 ..1. B..6

[Pattern2]
..1A|..|A-4 2F5F ....|C-4 7E.F ....|A-4 1F.F B..3
....|..|--- .... ....|F-2 4... ....|--- .... ....
....|..|--- .... ....|--- .... ....|--- .... ....
....|..|--- .... ....|C-4 8... ....|F-4 4... ....
....|..|--- .... ....|--- .... ....|--- .... ....
....|..|A-4 ...B ....|A-4 6F7. ....|F-4 1... ....
....|..|--- .... ....|--- .... ....|--- .... ....
....|..|--- .... ....|--- .... ....|--- .... ....
..1A|..|A-4 ...F ....|F-1 4E.. ....|C-5 .... ....
....|..|--- .... ....|--- .... ....|--- .... ....
....|..|A-4 .... ....|C-4 8... ....|F-4 ...9 ....
....|..|--- .... ....|--- .... ....|--- .... ....
....|..|--- .... ....|--- .... ....|--- ...C ....
....|..|C-5 3.2. ....|A-4 6F7C ....|C-5 .... ....
....|..|--- .... ....|--- .... ....|--- .... ....
....|..|A-4 2.5A ....|--- .... ....|--- .... ....
....|..|--- .... ....|--- .... ....|--- .... ....
....|..|--- .... ....|--- .... ....|R-- .... ....
....|..|--- .... ....|C-4 8F.9 ....|C-5 2..9 ....
....|..|--- .... ....|--- .... ....|R-- .... ....
....|..|--- .... ....|B-8 9..C ....|--- .... ....
....|..|--- .... ....|--- .... ....|--- .... ....
....|..|--- .... ....|--- .... ....|R-- .... ....
....|..|--- .... ....|C-4 7..F ....|--- .... ....
....|..|--- .... ....|--- .... ....|R-- .... ....
....|..|A-4 ...F ....|A-4 9.7C ....|A-4 ...F ....
....|..|--- .... ....|--- .... ....|--- .... ....
....|..|--- .... ....|--- .... ....|R-- .... ....
....|..|--- .... ....|C-4 8..9 ....|--- .... ....
....|..|--- .... ....|C-4 ...C ....|R-- .... ....
....|..|C-5 ...9 ....|C-4 .F.F ....|C-5 ...B ....
....|..|--- .... ....|--- .... ....|--- .... ....
....|..|--- .... ....|--- .... ....|R-- .... ....
....|..|A-4 ...C ....|C-4 7..C ....|C-5 ...D ....
....|..|--- .... ....|--- .... ....|--- .... ....
....|..|--- .... ....|C-4 8..9 ....|G-4 ...F ....
....|..|--- .... ....|--- .... ....|--- .... ....
....|..|--- .... ....|--- .... ....|--- .... ....
....|..|C-5 ...6 ....|C-4 ...C ....|F-4 .... ....
....|..|--- .... ....|--- .... ....|--- .... ....

[Pattern3]
..1C|..|G-4 2F4F ....|C-4 7E.F ....|G-4 9F.F B..3
....|..|--- .... ....|E-2 4... ....|--- .... ....
....|..|--- .... ....|--- .... ....|--- .... ....
....|..|G-4 .... ....|C-4 7..C ....|F-4 4... ....
....|..|--- .... ....|--- .... ....|--- .... ....
....|..|G-4 ...9 ....|G-4 6F7F ....|F-4 1... ....
....|..|--- .... ....|--- .... ....|--- .... ....
....|..|--- .... ....|--- .... ....|--- .... ....
..29|..|G-4 ...D ....|E-2 4E.. ....|A-4 .... ....
....|..|--- ...E ....|--- .... ....|--- .... ....
....|..|--- .... ....|C-4 8F.. ....|F-4 ...9 ....
....|..|--- .... ....|--- .... ....|--- .... ....
....|..|--- .... ....|--- .... ....|--- ...C ....
....|..|G-4 ...9 ....|G-4 6.7C ....|A-4 .... ....
....|..|--- .... ....|--- .... ....|--- .... ....
....|..|G-4 ...B ....|C-4 8F.. ....|--- .... ....
....|..|--- .... ....|--- .... ....|--- .... ....
....|..|--- .... ....|--- .... ....|R-- .... ....
....|..|C-5 ...D ....|C-4 ...9 ....|A-4 2..9 ....
....|..|--- .... ....|--- .... ....|R-- .... ....
....|..|E-4 3..F ....|B-8 9..C ....|--- .... ....
....|.1|--- .... ....|--- .... ....|--- .... ....
....|.1|--- .... ....|--- .... ....|R-- .... ....
....|.2|A-4 .... ....|C-5 .... ....|--- .... ....
....|.3|--- .... ....|--- .... ....|R-- .... ....
....|.4|E-4 2... ....|E-4 48.D ....|G-4 ...F ....
....|.5|--- .... ....|--- .... ....|--- .... ....
....|.5|--- .... ....|--- .... ....|R-- .... ....
....|.6|C-4 3..C ....|--- .F.E ....|--- .... ....
....|.7|--- .... ....|--- .... ....|R-- .... ....
....|.8|F-4 ...F ....|D-5 .8.F ....|A-4 ...B ....
....|.9|--- .... ....|--- .... ....|--- .... ....
....|.9|--- .... ....|--- .... ....|R-- .... ....
....|.A|F-4 ...9 ....|E-4 .F.C ....|A-4 ...D ....
....|.B|--- .... ....|--- .... ....|--- .... ....
....|.C|C-5 ...B ....|C-5 .8.F ....|G-4 ...F ....
....|.D|--- .... ....|--- .... ....|--- .... ....
....|.D|--- .... ....|--- .... ....|--- .... ....
....|.E|C-5 ...D ....|D-5 .... ....|E-4 .... ....
....|.F|--- .... ....|--- .... ....|--- .... ....

[Pattern4]
....|..|F-4 1F.8 ....|--- ...5 B..9|--- ...2 ....
....|..|--- .... ....|--- .... B..6|--- .... ....
....|..|A-4 .... ....|F-4 1F.. B..9|--- .... ....
....|..|F-4 3... ....|--- .... B..6|--- .... ....
....|..|C-5 1... ....|A-4 .... B..9|F-4 1... ....
....|..|A-4 3... ....|F-4 3... B..6|--- .... ....
....|..|F-4 5... ....|C-5 1... B..9|A-4 .... ....
....|..|C-5 1... ....|A-4 3... B..6|F-4 3... ....
....|..|F-4 ...9 ....|F-4 5..6 B..9|C-5 1..3 ....
....|..|F-4 5... ....|C-5 1... B..6|A-4 3... ....
....|..|A-4 1... ....|F-4 .... B..9|F-4 5... ....
....|..|F-4 3... ....|F-4 5... B..6|C-5 1... ....
....|..|D-5 1... ....|A-4 1... B..9|F-4 .... ....
....|..|A-4 3... ....|F-4 3... B..6|F-4 5... ....
....|..|C-5 1... ....|D-5 1... B..9|A-4 1... ....
....|..|D-5 3... ....|A-4 3... B..6|F-4 3... ....
....|..|E-4 1..A ....|C-5 1..7 B..9|D-5 1..4 ....
....|..|C-5 3... ....|D-5 3... B..6|A-4 3... ....
....|..|A-4 1... ....|E-4 1... B..9|C-5 1... ....
....|..|E-4 3... ....|C-5 3... B..6|D-5 3... ....
....|..|C-5 1... ....|A-4 1... B..9|E-4 1... ....
....|..|A-4 3... ....|E-4 3... B..6|C-5 3... ....
....|..|E-4 5... ....|C-5 1... B..9|A-4 1... ....
....|..|C-5 1... ....|A-4 3... B..6|E-4 3... ....
....|..|E-4 ...B ....|E-4 5..8 B..9|C-5 1..5 ....
....|..|E-4 5... ....|C-5 1... B..6|A-4 3... ....
....|..|D-5 1... ....|E-4 .... B..9|E-4 5... ....
....|..|E-4 3... ....|E-4 5... B..6|C-5 1... ....
....|..|C-5 1... ....|D-5 1... B..9|E-4 .... ....
....|..|D-5 3... ....|E-4 3... B..6|E-4 5... ....
....|..|D-5 1... ....|C-5 1... B..9|D-5 1... ....
....|..|C-5 3... ....|D-5 3... B..6|E-4 3... ....
....|..|D-4 1..C ....|D-5 1..9 B..9|C-5 1..6 ....
....|..|D-5 3... ....|C-5 3... B..6|D-5 3... ....
....|..|A-4 1... ....|D-4 1... B..9|D-5 1... ....
....|..|D-4 3... ....|D-5 3... B..6|C-5 3... ....
....|..|C-5 1... ....|A-4 1... B..9|D-4 1... ....
....|..|A-4 3... ....|D-4 3... B..6|D-5 3... ....
....|..|D-4 5... ....|C-5 1... B..9|A-4 1... ....
....|..|C-5 1... ....|A-4 3... B..6|D-4 3... ....
....|..|D-4 ...D ....|D-4 5..A B..9|C-5 1..7 ....
....|..|D-4 5... ....|C-5 1... B..6|A-4 3... ....
....|..|G-4 1... ....|D-4 .... B..9|D-4 5... ....
....|..|D-4 3... ....|D-4 5... B..6|C-5 1... ....
....|..|A-4 1... ....|G-4 1... B..9|D-4 .... ....
....|..|G-4 3... ....|D-4 3... B..6|D-4 5... ....
....|..|A#4 1... ....|A-4 1... B..9|G-4 1... ....
....|..|G-4 3... ....|G-4 3... B..6|D-4 3... ....
....|..|A#3 1..E ....|A#4 1..B B..9|A-4 1..8 ....
....|..|A#4 3... ....|G-4 3... B..6|G-4 3... ....
....|..|A#4 1... ....|A#3 1... B..9|A#4 1... ....
....|..|A#3 3... ....|A#4 3... B..6|G-4 3... ....
....|..|A#4 5... ....|A#4 1... B..9|A#3 1... ....
....|..|A#4 1... ....|A#3 3... B..6|A#4 3... ....
....|..|C-5 .... ....|A#4 5... B..9|A#4 1... ....
....|..|A#4 5... ....|A#4 1... B..6|A#3 3... ....
....|..|A#4 3..F ....|C-5 ...C B..9|A#4 5..9 ....
....|..|C-5 1... ....|A#4 5... B..6|A#4 1... ....
....|..|A#4 .... ....|A#4 3... B..9|C-5 .... ....
....|..|A#4 5... ....|C-5 1... B..6|A#4 5... ....
....|..|C-5 3... ....|A#4 .... B..9|A#4 3... ....
....|..|A#4 .... ....|A#4 5... B..6|C-5 1... ....
....|..|A-4 1... ....|C-5 3... B..9|A#4 .... ....
....|..|C-5 5... ....|A#4 .... B..6|A#4 5... ....

[Pattern5]
....|..|F-4 1..F ....|--- .... B..9|--- .... ....
....|..|--- .... ....|--- .... B..6|--- .... ....
....|..|A-4 .... ....|--- .... B..9|--- .... ....
....|..|F-4 3... ....|--- .... B..6|--- .... ....
....|..|C-5 1... ....|--- .... B..9|F-4 5..F ....
....|..|F-4 5... ....|--- .... B..6|--- .... ....
....|..|C-5 3... ....|--- .... B..9|A-4 .... ....
....|..|C-5 1... ....|--- .... B..6|--- .... ....
....|..|F-4 .... ....|--- .... B..9|C-5 .... ....
....|..|C-5 5... ....|--- .... B..6|--- .... ....
....|..|A#4 1... ....|--- .... B..9|--- .... ....
....|..|F-4 3... ....|--- .... B..6|C-5 .... ....
....|..|A-4 1... ....|--- .... B..9|F-4 .... ....
....|..|A#4 3... ....|--- .... B..6|--- .... ....
....|..|C-5 1... ....|--- .... B..9|A#4 .... ....
....|..|A-4 3... ....|--- .... B..6|--- .... ....
....|..|E-4 1... ....|--- .... B..9|A-4 .... ....
....|..|C-5 3... ....|--- .... B..6|--- .... ....
....|..|A-4 1... ....|--- .... B..9|C-5 .... ....
....|..|E-4 3... ....|--- .... B..6|--- .... ....
....|..|C-5 1... ....|--- .... B..9|E-4 .... ....
....|..|A-4 5... ....|--- .... B..6|--- .... ....
....|..|E-4 3... ....|--- .... B..9|A-4 .... ....
....|..|C-5 1... ....|--- .... B..6|--- .... ....
....|..|D-5 .... ....|--- .... B..9|C-5 .... ....
....|..|E-4 5... ....|--- .... B..6|--- .... ....
....|..|E-4 1... ....|--- .... B..9|--- .... ....
....|..|D-5 3... ....|--- .... B..6|C-5 .... ....
....|..|E-5 1... ....|--- .... B..9|D-5 .... ....
....|..|A-4 3... ....|--- .... B..6|--- .... ....
....|..|F-5 1... ....|--- .... B..9|E-4 .... ....
....|..|E-5 3... ....|--- .... B..6|--- .... ....
....|..|D-4 1... ....|--- .... B..9|E-5 .... ....
....|..|F-5 3... ....|--- .... B..6|--- .... ....
....|..|A-4 1... ....|--- .... B..9|F-5 .... ....
....|..|D-4 3... ....|--- .... B..6|--- .... ....
....|..|C-5 1... ....|--- .... B..9|D-4 .... ....
....|..|A-4 3... ....|--- .... B..6|--- .... ....
....|..|E-5 1... ....|--- .... B..9|A-4 .... ....
....|..|C-5 3... ....|--- .... B..6|--- .... ....
....|..|D-4 1... ....|--- .... B..9|C-5 .... ....
....|..|E-5 3... ....|--- .... B..6|--- .... ....
....|..|C-5 1... ....|--- .... B..9|E-5 .... ....
....|..|D-4 3... ....|--- .... B..6|--- .... ....
....|..|E-5 1... ....|--- .... B..9|D-4 .... ....
....|..|C-5 3... ....|--- .... B..6|--- .... ....
....|..|D-5 1... ....|--- .... B..9|C-5 .... ....
....|..|E-5 3... ....|--- .... B..6|--- .... ....
....|..|A#3 1... ....|--- .... B..9|E-5 .... ....
....|..|D-5 3... ....|--- .... B..6|--- .... ....
....|..|A#4 1... ....|--- .... B..9|D-5 .... ....
....|..|A#3 3... ....|--- .... B..6|--- .... ....
....|..|F-4 1... ....|--- .... B..9|A#3 .... ....
....|..|A#4 3... ....|--- .... B..6|--- .... ....
....|..|C-5 1... ....|--- .... B..9|A#4 .... ....
....|..|F-4 3... ....|--- .... B..6|--- .... ....
....|..|A#3 1... ....|--- .... B..9|F-4 .... ....
....|..|C-5 3... ....|--- .... B..6|--- .... ....
....|..|A#4 1... ....|--- .... B..9|C-5 .... ....
....|..|--- .... ....|--- .... B..6|--- .... ....
....|..|--- .... ....|--- .... B..9|A#3 .... ....
....|..|--- .... ....|--- .... B..6|--- .... ....
....|..|A-4 .... ....|--- .... B..9|A#4 .... ....
....|..|--- .... ....|--- .... B..6|--- .... ....

[Pattern6]
..1F|.F|G-4 9..F ....|C-4 7E.F ....|G-4 .F2F B..3
....|.E|G-4 ...D ....|D-2 4... ....|--- .... ....
....|.D|G-5 ...B ....|--- .... ....|--- ...9 ....
....|.C|G-5 ...9 ....|C-4 8... ....|G-4 .... ....
....|.B|G-6 ...7 ....|--- .... ....|--- .... ....
....|.A|G-4 ...F ....|F-5 6F.. ....|C-5 ...F ....
....|.9|G-5 ...D ....|--- .... ....|--- .... ....
....|.8|G-6 ...B ....|--- .... ....|--- .... ....
..1F|.7|F-4 .F.F ....|D-2 4E.. ....|G-4 ...9 ....
....|.6|F-4 ...D ....|--- .... ....|--- .... ....
....|.5|F-5 ...B ....|C-4 8... ....|G-4 ...F ....
....|.4|F-5 ...9 ....|--- .... ....|--- .... ....
....|.3|F-6 ...7 ....|--- .... ....|--- .... ....
....|.2|G-4 2..9 ....|F-5 6F.C ....|C-5 .... ....
....|.1|--- .... ....|--- .... ....|--- .... ....
....|..|--- .... ....|--- .... ....|G-4 ..3. ....
....|..|F-4 ...B ....|--- .... ....|--- .... ....
....|..|--- .... ....|--- .... ....|--- .... ....
....|..|--- .... ....|C-4 8..9 ....|G-4 ..2. ....
....|..|--- .... ....|--- .... ....|--- .... ....
....|..|G-4 ...7 ....|B-8 9..C ....|G-4 ..3. B..3
....|..|--- .... ....|--- .... ....|--- .... ....
....|..|--- .... ....|--- .... ....|--- ...9 ....
....|..|F-4 ...9 ....|C-4 7... ....|G-4 ..2. ....
....|..|--- .... ....|--- .... ....|--- .... ....
....|..|C-4 ...C ....|D-5 6.7F ....|G-4 ...F ....
....|..|--- .... ....|--- .... ....|--- .... ....
....|..|--- .... ....|--- .... ....|--- .... ....
....|..|--- ...B ....|C-4 8..9 ....|G-4 ..39 ....
....|..|--- .... ....|C-4 ...C ....|--- .... ....
....|..|--- ...A ....|C-4 .F.F ....|G-4 ..2B ....
....|..|--- .... ....|--- .... ....|--- .... ....
....|..|--- .... ....|--- .... ....|--- .... ....
....|..|--- ...9 ....|C-4 7..C ....|C-5 ...D ....
....|..|--- .... ....|--- .... ....|--- .... ....
....|..|F-4 ...E 31.8|C-4 ...9 ....|G-4 ..3F ....
....|..|G-4 .... ....|--- .... ....|--- .... ....
....|..|A-4 .... ....|--- .... ....|--- .... ....
....|..|--- .... ....|C-4 8..C ....|G-4 ..2. ....
....|..|--- .... ....|--- .... ....|--- .... ....

[Pattern7]
..23|..|--- .... ....|G-2 7E.F ....|F-4 4F4D ....
....|..|--- .... ....|C-2 4... ....|--- .... ....
....|..|--- .... ....|--- .... ....|--- .... ....
....|..|G-4 2..B ....|C-4 8... ....|--- .... ....
....|..|--- .... ....|--- .... ....|--- .... ....
....|..|A-4 ...D ....|C-5 6F7C ....|--- .... ....
....|..|--- .... ....|--- .... ....|--- .... ....
....|..|--- .... ....|--- .... ....|--- .... ....
..23|..|--- .... ....|C-2 4E.F ....|--- .... ....
....|..|--- .... ....|--- .... ....|--- .... ....
....|..|G-4 ...9 ....|C-4 8... ....|--- .... ....
....|..|--- .... ....|--- .... ....|--- .... ....
....|..|--- .... ....|--- .... ....|--- .... ....
....|..|A-4 ...B ....|G-5 6F7B ....|--- .... ....
....|..|--- .... ....|--- .... ....|--- .... ....
....|..|G-4 ...C ....|--- .... ....|--- .... ....
....|..|--- .... ....|--- .... ....|--- .... ....
....|..|--- .... ....|--- .... ....|--- .... ....
....|..|A-4 .... ....|C-4 8..9 ....|--- .... ....
....|..|--- .... ....|--- .... ....|--- .... ....
....|..|G-4 ...D ....|G-4 3..B ....|--- .... ....
....|..|--- .... ....|--- .... ....|--- .... ....
....|..|--- .... ....|--- .... ....|--- .... ....
....|..|--- .... ....|G-3 7..F ....|--- .... ....
....|..|--- .... ....|--- .... ....|--- .... ....
....|..|G-4 ...9 ....|G-3 ...7 ....|--- .... ....
....|..|--- .... ....|C-1 2..9 ....|--- .... ....
....|..|--- ...A ....|C-1 ...C ....|--- .... ....
....|..|A-4 .... ....|G-3 8..9 ....|--- .... ....
....|..|--- .... ....|G-3 ...C ....|--- .... ....
....|..|G-4 ...B ....|G-3 ...F ....|--- .... ....
....|..|--- .... ....|--- .... ....|--- .... ....
....|..|--- .... ....|--- .... ....|--- .... ....
....|..|--- .... ....|G-3 7..C ....|--- .... ....
....|..|--- .... ....|--- .... ....|--- .... ....
....|..|--- .... ....|G-3 8... ....|--- .... ....
....|..|A-4 ...9 ....|--- .... ....|--- .... ....
....|..|--- .... ....|--- .... ....|--- .... ....
....|..|--- .... ....|G-3 ...9 ....|--- .... ....
....|..|--- .... ....|--- .... ....|--- .... ....

[Pattern8]
..1A|..|A-4 2..A ....|C-4 7E.F ....|A-4 4F1F B..3
....|..|--- .... ....|F-2 4... ....|--- .... ....
....|..|--- .... ....|--- .... ....|R-- ...9 ....
....|..|--- .... ....|C-4 8... ....|A-4 .... ....
....|..|--- .... ....|--- .... ....|R-- .... ....
....|..|--- .... ....|A-4 6F7. ....|C-5 ..2F ....
....|..|--- .... ....|--- .... ....|--- .... ....
....|..|--- .... ....|--- .... ....|R-- .... ....
..1A|..|--- .... ....|F-1 4E.. ....|A-4 ..19 ....
....|..|--- .... ....|--- .... ....|R-- .... ....
....|..|--- ...B ....|C-4 8... ....|A-4 ...F ....
....|..|--- .... ....|--- .... ....|--- .... ....
....|..|--- .... ....|--- .... ....|R-- .... ....
....|..|--- .... ....|A-4 6F7C ....|C-5 ..2. ....
....|..|--- .... ....|--- .... ....|R-- .... ....
....|..|C-5 .... ....|--- .... ....|A-4 .... ....
....|..|--- .... ....|--- .... ....|--- .... ....
....|..|--- .... ....|--- .... ....|R-- .... ....
....|..|C-4 ...5 ....|C-4 8F.9 ....|A-4 ..1. ....
....|..|--- .... ....|--- .... ....|R-- .... ....
....|..|A-4 ...8 ....|B-8 9..C ....|A-4 ..2. B..3
....|..|--- .... ....|--- .... ....|--- .... ....
....|..|--- .... ....|--- .... ....|R-- ...9 ....
....|..|C-5 ...A ....|C-4 7..F ....|A-4 ..1. ....
....|..|--- .... ....|--- .... ....|R-- .... ....
....|..|A-4 ...C ....|A-4 9.7C ....|A-4 ...F ....
....|..|--- .... ....|--- .... ....|--- .... ....
....|..|--- .... ....|--- .... ....|R-- .... ....
....|..|--- .... ....|C-4 8..9 ....|A-4 ..29 ....
....|..|--- .... ....|C-4 ...C ....|R-- .... ....
....|..|C-5 ...8 ....|C-4 .F.F ....|A-4 ..1B ....
....|..|--- .... ....|--- .... ....|--- .... ....
....|..|--- .... ....|--- .... ....|R-- .... ....
....|..|A-4 ...A ....|C-4 7..C ....|C-5 ..2D ....
....|..|--- .... ....|--- .... ....|--- .... ....
....|..|G-4 ...D ....|C-4 8..9 ....|A-4 ...F ....
....|..|--- .... ....|--- .... ....|--- .... ....
....|..|--- .... ....|--- .... ....|--- .... ....
....|..|--- .... ....|C-4 ...C ....|A-4 ..1. ....
....|..|--- .... ....|--- .... ....|--- .... ....

[Pattern9]
..1C|..|--- ...E ....|C-4 7E.F ....|G-4 .F2F B..3
....|..|--- .... ....|E-2 4... ....|--- .... ....
....|..|--- .... ....|--- .... ....|--- ...9 ....
....|..|--- .... ....|C-4 7..C ....|G-4 .... ....
....|..|--- .... ....|--- .... ....|--- .... ....
....|..|--- .... ....|G-4 6F7F ....|C-5 ...F ....
....|..|--- .... ....|--- .... ....|--- .... ....
....|..|--- .... ....|--- .... ....|--- .... ....
..29|..|--- .... ....|E-2 4E.. ....|G-4 ...9 ....
....|..|--- .... ....|--- .... ....|--- .... ....
....|..|--- ...F ....|C-4 8F.. ....|G-4 ...F ....
....|..|--- .... ....|--- .... ....|--- .... ....
....|..|--- .... ....|--- .... ....|--- .... ....
....|..|E-4 .... ....|G-4 6.7C ....|C-5 .... ....
....|..|--- .... ....|--- .... ....|--- .... ....
....|..|E-3 ...7 ....|C-4 8F.. ....|G-4 ..3. ....
....|..|--- .... ....|--- .... ....|--- .... ....
....|..|--- .... ....|--- .... ....|--- .... ....
....|..|E-4 ...9 ....|C-4 ...9 ....|G-4 ..2. ....
....|..|--- .... ....|--- .... ....|--- .... ....
....|..|C-5 ...E ....|B-8 9..C ....|G-4 ..3. B..3
....|.1|--- .... ....|--- .... ....|--- .... ....
....|.1|--- .... ....|--- .... ....|--- ...9 ....
....|.2|--- .... 6.21|C-5 .... ....|G-4 ..2. ....
....|.3|--- .... ....|--- .... ....|--- .... ....
....|.4|--- ...D ....|E-4 ...D ....|G-4 ...F ....
....|.5|--- .... ....|--- .... ....|--- .... ....
....|.5|--- .... ....|--- .... ....|--- .... ....
....|.6|--- ...C ....|--- ...E ....|G-4 ..39 ....
....|.7|--- .... ....|--- .... ....|--- .... ....
....|.8|--- ...D ....|D-5 ...F ....|G-4 ..2B ....
....|.9|--- .... ....|--- .... ....|--- .... ....
....|.9|--- .... ....|--- .... ....|--- .... ....
....|.A|--- .... ....|E-4 ...C ....|C-5 ...D ....
....|.B|--- .... ....|--- .... ....|--- .... ....
....|.C|G-4 .... ....|C-5 ...F ....|G-4 ..3F ....
....|.D|--- .... ....|--- .... ....|--- .... ....
....|.D|--- .... ....|--- .... ....|--- .... ....
....|.E|--- .... ....|D-5 .... ....|G-4 ..2. ....
....|.F|--- .... ....|--- .... ....|--- .... ....

