[Module]
VortexTrackerII=0
Version=3.5
Title=Get-Up-2nd_track! .m.a.y.d.a.y.
Author=Trommler
NoteTable=2
Speed=4
PlayOrder=L3,2,3,2,0,0,0,0,1,1,1,1,5,5,5,5,6,6,6,6,4,4,4,4,4,4,4,4,4,4,4,4,4,4,4,4,8,9,11,12,7,10,13,14,3,2,3,15,16,16,16,16,17,17,17,17,18,18,18,18,19,19,19,19,16,16,16,16,17,17,17,17,18,18,18,18,19,19,20,4,4,4,4,4,4,4,4,4,4,4,4,4,4,4,4,21

[Ornament1]
L0,0,0,0,19,3,12,7,15,0,19,3,12,7,15,0

[Ornament2]
-2,-1,L0

[Ornament3]
12,L0

[Ornament4]
L0,0,0,0,20,3,12,8,15,0,20,3,12,8,15,0

[Ornament5]
L0,0,0,0,20,5,12,8,17,0,20,5,12,8,17,0

[Ornament6]
L0,0,0,0,20,12,12,8,17,0,20,12,12,8,24,0

[Ornament7]
L0

[Ornament8]
L36,12,-12,-12,-12,24,0,0,0,-24

[Ornament9]
L0

[Ornament10]
L0

[Ornament11]
L0

[Ornament12]
L0

[Ornament13]
L0

[Ornament14]
L0

[Ornament15]
L0

[Sample1]
TnE +000_ +00_ F_ L
TnE +000_ +00_ F-

[Sample2]
TnE +000_ +00_ D_ L
TnE +000_ +00_ D_
Tne +000_ +00_ 8_
Tne +000_ +00_ 8_
TnE +000_ +00_ D_
TnE +000_ +00_ D_
Tne +000_ +00_ 8_
Tne +000_ +00_ 8_
TnE +000_ +00_ C_
TnE +000_ +00_ C_
TnE +000_ +00_ C_
TnE +000_ +00_ C_
Tne +000_ +00_ 8_
Tne +000_ +00_ 8_
Tne +000_ +00_ 8_
Tne +000_ +00_ 8_

[Sample3]
TNE +080^ +06_ D_ L
TnE +0C0^ +00_ D_
TnE +100^ +00_ D_
TnE +140^ +00_ D_
TnE -380^ +00_ A_
TnE +000_ +00_ A_
TnE +000_ +00_ A_
TnE +000_ +00_ A_
TNE +000_ +0A_ F_
TNE +000_ +00_ D_
TnE +000_ +00_ A_
TnE +000_ +00_ A_
TnE +000_ +00_ A_
TnE +000_ +00_ A_
TnE +000_ +00_ A_
TnE +000_ +00_ A_

[Sample4]
TNE +000_ +00_ F_
TnE +000_ +00_ F- L
TnE +000_ +00_ F_

[Sample5]
tne +000_ +00_ 0_ L

[Sample6]
TnE -002_ +00_ F_ L
TnE -004_ +00_ F_
TnE -002_ +00_ F_
TnE +000_ +00_ F_
TnE +002_ +00_ F_
TnE +004_ +00_ F_
TnE +002_ +00_ F_
TnE +000_ +00_ F_

[Sample7]
TNE +100_ +0A_ F_
TnE +300_ +00_ F_
TnE +000_ +00_ E_ L
TnE +000_ +00_ E-

[Sample8]
TNE +060_ -01_ F_
TNE +100_ +00_ F_
tNE +000_ +01^ E- L
tNE +000_ +00_ E_
tNE +000_ +00_ 6_

[Sample9]
TNE +080^ +06_ D_ L
TnE +0C0^ +00_ D_
TnE +100^ +00_ D_
TnE +140^ +00_ D_
TnE -380^ +00_ A_
TnE +000_ +00_ A_
TnE +000_ +00_ A_
TnE +000_ +00_ A_
TNE +000_ +0A_ F_
TNE +000_ +00_ F_
TnE +000_ +00_ A_
TnE +000_ +00_ A_
TnE +000_ +00_ A_
TnE +000_ +00_ A_
TnE +000_ +00_ A_
TnE +000_ +00_ A_
tNE +060_ -01_ F_
tNE +100_ +00_ F_
tNE +000_ +00_ E_
tNE +000_ +00_ B_
TnE +000_ +00_ A_
TnE +000_ +00_ A_
TnE +000_ +00_ A_
TnE +000_ +00_ A_
TNE +000_ +0A_ F_
TNE +000_ +00_ F_
TnE +000_ +00_ A_
TnE +000_ +00_ A_
TnE +000_ +00_ A_
TnE +000_ +00_ A_
TnE +000_ +00_ A_
TnE +000_ +00_ A_

[Sample10]
TNE +060_ -01_ F_
TNE +100_ +00_ F_
TNE +000_ +01^ E- L
TNE +000_ +00_ E_
TNE +000_ +00_ E_

[Sample11]
tne +000_ +00_ 0_ L

[Sample12]
tne +000_ +00_ 0_ L

[Sample13]
tne +000_ +00_ 0_ L

[Sample14]
tne +000_ +00_ 0_ L

[Sample15]
tne +000_ +00_ 0_ L

[Sample16]
tne +000_ +00_ 0_ L

[Sample17]
tne +000_ +00_ 0_ L

[Sample18]
tne +000_ +00_ 0_ L

[Sample19]
tne +000_ +00_ 0_ L

[Sample20]
tne +000_ +00_ 0_ L

[Sample21]
tne +000_ +00_ 0_ L

[Sample22]
tne +000_ +00_ 0_ L

[Sample23]
tne +000_ +00_ 0_ L

[Sample24]
tne +000_ +00_ 0_ L

[Sample25]
tne +000_ +00_ 0_ L

[Sample26]
tne +000_ +00_ 0_ L

[Sample27]
tne +000_ +00_ 0_ L

[Sample28]
tne +000_ +00_ 0_ L

[Sample29]
tne +000_ +00_ 0_ L

[Sample30]
tne +000_ +00_ 0_ L

[Sample31]
tne +000_ +00_ 0_ L

[Pattern0]
..23|..|G-4 1F2F ....|G-4 3F1F ....|G-1 1E.. ....
....|..|G-2 ..3D ....|--- .... ....|G-1 .... ....
..23|..|D-4 .F.F ....|--- .... ....|G-2 .8.. ....
..23|..|G-4 ...C ....|--- .... ....|G-1 .E.. ....
..17|..|G-2 ..3E ....|--- .... ....|D-2 .E.. ....
..23|..|D-4 .F.C ....|--- .... ....|G-1 .E.. ....
..23|..|F-4 ..2F ....|--- .... ....|G-2 .8.. ....
..23|..|G-2 ..3. ....|--- .... ....|G-1 .E.. ....
....|..|D-4 .F.. ....|--- .... ....|G-1 .... ....
....|..|F-4 ..2C ....|--- .... ....|G-1 .... ....
..23|..|G-4 .F.F ....|--- .... ....|G-3 28.. ....
..23|..|D-4 ...C ....|--- .... ....|G-1 1E.. ....
..1F|..|G-4 ...F ....|--- .... ....|D-2 .E.. ....
..17|..|G-4 ...C ....|--- .... ....|G-1 2E.. ....
..1F|..|F-4 ...F ....|--- .... ....|D-1 1E.. ....
....|..|G-4 ...C ....|--- .... ....|D-1 .... ....

[Pattern1]
..1D|..|G-4 1F2F ....|G-4 3F4F ....|A#1 1E.. ....
....|..|G-2 ..3D ....|--- .... ....|A#1 .... ....
..1D|..|D-4 .F.F ....|--- .... ....|A#2 .8.. ....
..1D|..|G-4 ...C ....|--- .... ....|A#1 .E.. ....
..14|..|G-2 ..3E ....|--- .... ....|F-2 .E.. ....
..1D|..|D-4 .F.C ....|--- .... ....|A#1 .E.. ....
..1D|..|F-4 ..2F ....|--- .... ....|A#2 .8.. ....
..1D|..|G-2 ..3. ....|--- .... ....|A#1 .E.. ....
....|..|D-4 .F.. ....|--- .... ....|A#1 .... ....
....|..|F-4 ..2C ....|--- .... ....|A#1 .... ....
..1D|..|G-4 .F.F ....|--- .... ....|A#3 28.. ....
..1D|..|D-4 ...C ....|--- .... ....|A#1 1E.. ....
..1A|..|G-4 ...F ....|--- .... ....|F-2 .E.. ....
..14|..|G-4 ...C ....|--- .... ....|A#1 2E.. ....
..1A|..|F-4 ...F ....|--- .... ....|F-1 1E.. ....
....|..|G-4 ...C ....|--- .... ....|F-1 .... ....

[Pattern2]
..1A|..|G-4 1F2F ....|A#4 1F.F ....|C-2 1E.. ....
....|..|G-2 ..3D ....|D-4 ...A ....|C-2 .... ....
..1A|..|D-4 4F.F ....|A-4 ...F ....|C-3 .8.. ....
..1A|..|G-4 1..C ....|A#4 ...A ....|C-2 .E.. ....
..11|..|G-2 ..3E ....|G-4 ...F ....|G-2 .E.. ....
..1A|..|D-4 .F.C ....|A-4 ...A ....|C-2 .E.. ....
..1A|..|F-4 4.2F ....|D-4 ...F ....|C-3 .8.. ....
..1A|..|G-2 1.3. ....|G-4 ...A ....|C-2 .E.. ....
....|..|D-4 .F.. ....|A#4 ...D ....|C-2 .... ....
....|..|F-4 ..2C ....|D-4 ...A ....|C-2 .... ....
..1A|..|G-4 4F.F ....|A-4 ...D ....|C-4 28.. ....
..1A|..|D-4 1..C ....|A#4 ...A ....|C-2 1E.. ....
..17|..|G-4 ...F ....|G-4 ...D ....|G-2 .E.. ....
..11|..|G-4 ...C ....|A-4 ...A ....|C-2 2E.. ....
..17|..|F-4 4..F ....|D-4 ...D ....|G-1 1E.. ....
....|..|G-4 1..C ....|G-4 ...A ....|G-1 .... ....
..1A|..|G-4 ..2F ....|A#4 ...F ....|C-2 .E.. ....
....|..|G-2 ..3D ....|D-4 ...A ....|C-2 .... ....
..1A|..|D-4 4F.F ....|A-4 ...F ....|C-3 .8.. ....
..1A|..|G-4 1..C ....|A#4 ...A ....|C-2 .E.. ....
..11|..|G-2 ..3E ....|G-4 ...F ....|G-2 .E.. ....
..1A|..|D-4 .F.C ....|A-4 ...A ....|C-2 .E.. ....
..1A|..|F-4 4.2F ....|D-4 ...F ....|C-3 .8.. ....
..1A|..|G-2 1.3. ....|G-4 ...A ....|C-2 .E.. ....
....|..|D-4 .F.. ....|A#4 ...D ....|C-2 .... ....
....|..|F-4 ..2C ....|D-4 ...A ....|C-2 .... ....
..1A|..|G-4 4F.F ....|A-4 ...D ....|C-4 28.. ....
..1A|..|D-4 1..C ....|A#4 ...A ....|C-2 1E.. ....
..17|..|G-4 ...F ....|G-4 ...D ....|G-2 .E.. ....
..11|..|G-4 ...C ....|A-4 ...A ....|C-2 2E.. ....
..17|..|F-4 4..F ....|D-4 ...D ....|G-1 1E.. ....
....|..|G-4 1..C ....|G-4 ...A ....|G-1 .... ....
..16|..|G-4 ..2F ....|A#4 ...F ....|D#2 .E.. ....
....|..|G-2 ..3D ....|D-4 ...A ....|D#2 .... ....
..16|..|D-4 4F.F ....|A-4 ...F ....|D#3 .8.. ....
..16|..|G-4 1..C ....|A#4 ...A ....|D#2 .E.. ....
...F|..|G-2 ..3E ....|G-4 ...F ....|A#2 .E.. ....
..16|..|D-4 .F.C ....|A-4 ...A ....|D#2 .E.. ....
..16|..|F-4 4.2F ....|D-4 ...F ....|D#3 .8.. ....
..16|..|G-2 1.3. ....|G-4 ...A ....|D#2 .E.. ....
....|..|D-4 .F.. ....|A#4 ...D ....|D#2 .... ....
....|..|F-4 ..2C ....|D-4 ...A ....|D#2 .... ....
..16|..|G-4 4F.F ....|A-4 ...D ....|D#4 28.. ....
..16|..|D-4 1..C ....|A#4 ...A ....|D#2 1E.. ....
..14|..|G-4 ...F ....|G-4 ...D ....|A#1 .E.. ....
...F|..|G-4 ...C ....|A-4 ...A ....|D#2 2E.. ....
..14|..|F-4 4..F ....|D-4 ...D ....|A#1 1E.. ....
....|..|G-4 1..C ....|G-4 ...A ....|A#1 .... ....
..16|..|G-4 ..2F ....|A#4 ...F ....|D#2 .E.. ....
....|..|G-2 ..3D ....|D-4 ...A ....|D#2 .... ....
..16|..|D-4 4F.F ....|A-4 ...F ....|D#3 .8.. ....
..16|..|G-4 1..C ....|A#4 ...A ....|D#2 .E.. ....
...F|..|G-2 ..3E ....|G-4 ...F ....|A#2 .E.. ....
..16|..|D-4 .F.C ....|A-4 ...A ....|D#2 .E.. ....
..16|..|F-4 4.2F ....|D-4 ...F ....|D#3 .8.. ....
..16|..|G-2 1.3. ....|G-4 ...A ....|D#2 .E.. ....
....|..|D-4 .F.. ....|A#4 ...D ....|D#2 .... ....
....|..|F-4 ..2C ....|D-4 ...A ....|D#2 .... ....
..16|..|G-4 4F.F ....|A-4 ...D ....|D#4 28.. ....
..16|..|D-4 1..C ....|A#4 ...A ....|D#2 1E.. ....
..14|..|G-4 ...F ....|G-4 ...D ....|A#1 .E.. ....
...F|..|G-4 ...C ....|A-4 ...A ....|D#2 2E.. ....
..14|..|F-4 4..F ....|D-4 ...D ....|A#1 1E.. ....
....|..|G-4 1..C ....|G-4 ...A ....|A#1 .... ....

[Pattern3]
..23|..|G-4 1F2F ....|A#4 1F.F ....|G-1 1E.. ....
....|..|G-2 ..3D ....|D-4 ...A ....|G-1 .... ....
..23|..|D-4 4F.F ....|A-4 ...F ....|G-2 .8.. ....
..23|..|G-4 1..C ....|A#4 ...A ....|G-1 .E.. ....
..17|..|G-2 ..3E ....|G-4 ...F ....|D-2 .E.. ....
..23|..|D-4 .F.C ....|A-4 ...A ....|G-1 .E.. ....
..23|..|F-4 4.2F ....|D-4 ...F ....|G-2 .8.. ....
..23|..|G-2 1.3. ....|G-4 ...A ....|G-1 .E.. ....
....|..|D-4 .F.. ....|A#4 ...D ....|G-1 .... ....
....|..|F-4 ..2C ....|D-4 ...A ....|G-1 .... ....
..23|..|G-4 4F.F ....|A-4 ...D ....|G-3 28.. ....
..23|..|D-4 1..C ....|A#4 ...A ....|G-1 1E.. ....
..1F|..|G-4 ...F ....|G-4 ...D ....|D-2 .E.. ....
..17|..|G-4 ...C ....|A-4 ...A ....|G-1 2E.. ....
..1F|..|F-4 4..F ....|D-4 ...D ....|D-1 1E.. ....
....|..|G-4 1..C ....|G-4 ...A ....|D-1 .... ....
..23|..|G-4 ..2F ....|A#4 ...F ....|G-1 .E.. ....
....|..|G-2 ..3D ....|D-4 ...A ....|G-1 .... ....
..23|..|D-4 4F.F ....|A-4 ...F ....|G-2 .8.. ....
..23|..|G-4 1..C ....|A#4 ...A ....|G-1 .E.. ....
..17|..|G-2 ..3E ....|G-4 ...F ....|D-2 .E.. ....
..23|..|D-4 .F.C ....|A-4 ...A ....|G-1 .E.. ....
..23|..|F-4 4.2F ....|D-4 ...F ....|G-2 .8.. ....
..23|..|G-2 1.3. ....|G-4 ...A ....|G-1 .E.. ....
....|..|D-4 .F.. ....|A#4 ...D ....|G-1 .... ....
....|..|F-4 ..2C ....|D-4 ...A ....|G-1 .... ....
..23|..|G-4 4F.F ....|A-4 ...D ....|G-3 28.. ....
..23|..|D-4 1..C ....|A#4 ...A ....|G-1 1E.. ....
..1F|..|G-4 ...F ....|G-4 ...D ....|D-2 .E.. ....
..17|..|G-4 ...C ....|A-4 ...A ....|G-1 2E.. ....
..1F|..|F-4 4..F ....|D-4 ...D ....|D-1 1E.. ....
....|..|G-4 1..C ....|G-4 ...A ....|D-1 .... ....
..1D|..|G-4 ..2F ....|A#4 ...F ....|A#1 .E.. ....
....|..|G-2 ..3D ....|D-4 ...A ....|A#1 .... ....
..1D|..|D-4 4F.F ....|A-4 ...F ....|A#2 .8.. ....
..1D|..|G-4 1..C ....|A#4 ...A ....|A#1 .E.. ....
..14|..|G-2 ..3E ....|G-4 ...F ....|F-2 .E.. ....
..1D|..|D-4 .F.C ....|A-4 ...A ....|A#1 .E.. ....
..1D|..|F-4 4.2F ....|D-4 ...F ....|A#2 .8.. ....
..1D|..|G-2 1.3. ....|G-4 ...A ....|A#1 .E.. ....
....|..|D-4 .F.. ....|A#4 ...D ....|A#1 .... ....
....|..|F-4 ..2C ....|D-4 ...A ....|A#1 .... ....
..1D|..|G-4 4F.F ....|A-4 ...D ....|A#3 28.. ....
..1D|..|D-4 1..C ....|A#4 ...A ....|A#1 1E.. ....
..1A|..|G-4 ...F ....|G-4 ...D ....|F-2 .E.. ....
..14|..|G-4 ...C ....|A-4 ...A ....|A#1 2E.. ....
..1A|..|F-4 4..F ....|D-4 ...D ....|F-1 1E.. ....
....|..|G-4 1..C ....|G-4 ...A ....|F-1 .... ....
..1D|..|G-4 ..2F ....|A#4 ...F ....|A#1 .E.. ....
....|..|G-2 ..3D ....|D-4 ...A ....|A#1 .... ....
..1D|..|D-4 4F.F ....|A-4 ...F ....|A#2 .8.. ....
..1D|..|G-4 1..C ....|A#4 ...A ....|A#1 .E.. ....
..14|..|G-2 ..3E ....|G-4 ...F ....|F-2 .E.. ....
..1D|..|D-4 .F.C ....|A-4 ...A ....|A#1 .E.. ....
..1D|..|F-4 4.2F ....|D-4 ...F ....|A#2 .8.. ....
..1D|..|G-2 1.3. ....|G-4 ...A ....|A#1 .E.. ....
....|..|D-4 .F.. ....|A#4 ...D ....|A#1 .... ....
....|..|F-4 ..2C ....|D-4 ...A ....|A#1 .... ....
..1D|..|G-4 4F.F ....|A-4 ...D ....|A#3 28.. ....
..1D|..|D-4 1..C ....|A#4 ...A ....|A#1 1E.. ....
..1A|..|G-4 ...F ....|G-4 ...D ....|F-2 .E.. ....
..14|..|G-4 ...C ....|A-4 ...A ....|A#1 2E.. ....
..1A|..|F-4 4..F ....|D-4 ...D ....|F-1 1E.. ....
....|..|G-4 1..C ....|G-4 ...A ....|F-1 .... ....

[Pattern4]
..23|..|G-4 1F2F ....|C-1 .E.. ....|G-1 1E.. ....
....|..|G-2 ..3D ....|--- .... ....|G-1 .... ....
..23|..|D-4 4F.F ....|G-1 .... ....|G-2 .8.. ....
..23|..|G-4 1..C ....|--- .... ....|G-1 .E.. ....
..17|..|G-2 ..3E ....|R-- .... ....|D-2 .E.. ....
..23|..|D-4 .F.C ....|--- .... ....|G-1 .E.. ....
..23|..|F-4 4.2F ....|G-1 .... ....|G-2 .8.. ....
..23|..|G-2 1.3. ....|--- .... ....|G-1 .E.. ....
....|..|D-4 .F.. ....|R-- .... ....|G-1 .... ....
....|..|F-4 ..2C ....|--- .... ....|G-1 .... ....
..23|..|G-4 4F.F ....|G-1 .... ....|G-3 28.. ....
..23|..|D-4 1..C ....|--- .... ....|G-1 1E.. ....
..1F|..|G-4 ...F ....|R-- .... ....|D-2 .E.. ....
..17|..|G-4 ...C ....|--- .... ....|G-1 2E.. ....
..1F|..|F-4 4..F ....|G-1 .... ....|D-1 1E.. ....
....|..|G-4 1..C ....|--- .... ....|D-1 .... ....

[Pattern5]
..1A|..|G-4 1F2F ....|G-4 3F5. ....|C-2 1E.. ....
....|..|G-2 ..3D ....|--- .... ....|C-2 .... ....
..1A|..|D-4 .F.F ....|--- .... ....|C-3 .8.. ....
..1A|..|G-4 ...C ....|--- .... ....|C-2 .E.. ....
..11|..|G-2 ..3E ....|--- .... ....|G-2 .E.. ....
..1A|..|D-4 .F.C ....|--- .... ....|C-2 .E.. ....
..1A|..|F-4 ..2F ....|--- .... ....|C-3 .8.. ....
..1A|..|G-2 ..3. ....|--- .... ....|C-2 .E.. ....
....|..|D-4 .F.. ....|--- .... ....|C-2 .... ....
....|..|F-4 ..2C ....|--- .... ....|C-2 .... ....
..1A|..|G-4 .F.F ....|--- .... ....|C-4 28.. ....
..1A|..|D-4 ...C ....|--- .... ....|C-2 1E.. ....
..17|..|G-4 ...F ....|--- .... ....|G-2 .E.. ....
..11|..|G-4 ...C ....|--- .... ....|C-2 2E.. ....
..17|..|F-4 ...F ....|--- .... ....|G-1 1E.. ....
....|..|G-4 ...C ....|--- .... ....|G-1 .... ....

[Pattern6]
..16|..|G-4 1F2F ....|G-4 3F6. ....|D#2 1E.. ....
....|..|G-2 ..3D ....|--- .... ....|D#2 .... ....
..16|..|D-4 .F.F ....|--- .... ....|D#3 .8.. ....
..16|..|G-4 ...C ....|--- .... ....|D#2 .E.. ....
...F|..|G-2 ..3E ....|--- .... ....|A#2 .E.. ....
..16|..|D-4 .F.C ....|--- .... ....|D#2 .E.. ....
..16|..|F-4 ..2F ....|--- .... ....|D#3 .8.. ....
..16|..|G-2 ..3. ....|--- .... ....|D#2 .E.. ....
....|..|D-4 .F.. ....|--- .... ....|D#2 .... ....
....|..|F-4 ..2C ....|--- .... ....|D#2 .... ....
..16|..|G-4 .F.F ....|--- .... ....|D#4 28.. ....
..16|..|D-4 ...C ....|--- .... ....|D#2 1E.. ....
..14|..|G-4 ...F ....|--- .... ....|A#1 .E.. ....
...F|..|G-4 ...C ....|--- .... ....|D#2 2E.. ....
..14|..|F-4 ...F ....|--- .... ....|A#1 1E.. ....
....|..|G-4 ...C ....|--- .... ....|A#1 .... ....

[Pattern7]
..23|..|G-4 7F.F ....|D-5 6F.6 ....|G-1 1E.. ....
....|..|G-2 1.3D ....|--- .... ....|G-1 .... ....
..23|..|D-4 4F.F ....|--- ...7 ....|G-2 .8.. ....
..23|..|G-4 1..C ....|--- .... ....|G-1 .E.. ....
..17|..|C-4 7.3F ....|--- ...8 ....|D-2 .E.. ....
..23|..|D-4 1F.C ....|--- .... ....|G-1 .E.. ....
..23|..|F-4 4.2F ....|--- ...9 ....|G-2 .8.. ....
..23|..|G-2 1.3. ....|--- .... ....|G-1 .E.. ....
....|..|D-4 7F.. ....|--- ...A ....|G-1 .... ....
....|..|F-4 1.2C ....|--- .... ....|G-1 .... ....
..23|..|G-4 4F.F ....|--- ...B ....|G-3 28.. ....
..23|..|D-4 1..C ....|--- .... ....|G-1 1E.. ....
..1F|..|G-4 7..F ....|--- ...C ....|D-2 .E.. ....
..17|..|G-4 1..C ....|--- .... ....|G-1 2E.. ....
..1F|..|F-4 4..F ....|--- ...D ....|D-1 1E.. ....
....|..|G-4 1..C ....|--- .... ....|D-1 .... ....
..23|..|G-4 7.2F ....|--- .... ....|G-1 .E.. ....
....|..|G-2 1.3D ....|--- .... ....|G-1 .... ....
..23|..|D-4 4F.F ....|--- .... ....|G-2 .8.. ....
..23|..|G-4 1..C ....|--- .... ....|G-1 .E.. ....
..17|..|G-2 7.3E ....|C-5 .... ....|D-2 .E.. ....
..23|..|D-4 1F.C ....|--- .... ....|G-1 .E.. ....
..23|..|F-4 4.2F ....|D-5 ...A ....|G-2 .8.. ....
..23|..|G-2 1.3. ....|--- .... ....|G-1 .E.. ....
..1D|..|D-4 7F.. ....|A#4 ...D ....|A#1 .E.. ....
....|..|F-4 1.2C ....|--- .... ....|A#1 .... ....
..1D|..|G-4 4F.F ....|C-5 .... ....|A#3 28.. ....
..1D|..|D-4 1..C ....|--- .... ....|A#1 1E.. ....
..14|..|G-4 7..F ....|A#4 ...A ....|F-1 .E.. ....
..1D|..|G-4 1..C ....|--- .... ....|A#1 2E.. ....
..1D|..|F-4 4..F ....|C-5 .... ....|E-1 1E.. ....
....|..|G-4 1..C ....|--- .... ....|E-1 .... ....
..1A|..|G-4 7.2F ....|G-4 ...9 ....|C-2 .E.. ....
....|..|G-2 1.3D ....|--- ...A ....|C-2 .... ....
..1A|..|D-4 4F.F ....|--- ...B ....|C-3 .8.. ....
..1A|..|G-4 1..C ....|--- ...C ....|C-2 .E.. ....
..11|..|G-2 7.3E ....|G-4 ...D ....|G-2 .E.. ....
..1A|..|D-4 1F.C ....|--- .... ....|C-2 .E.. ....
..1A|..|F-4 4.2F ....|--- .... ....|C-3 .8.. ....
..1A|..|G-2 1.3. ....|--- .... ....|C-2 .E.. ....
....|..|D-4 7F.. ....|C-5 ...A ....|C-2 .... ....
....|..|F-4 1.2C ....|--- .... ....|C-2 .... ....
..1A|..|G-4 4F.F ....|--- .... ....|G-3 28.. ....
..1A|..|D-4 1..C ....|--- .... ....|C-2 1E.. ....
..1A|..|G-4 7..F ....|D-4 ...D ....|G-2 .E.. ....
..14|..|G-4 1..C ....|--- .... ....|C-2 2E.. ....
..1A|..|F-4 4..F ....|--- ...C ....|G-1 1E.. ....
....|..|G-4 1..C ....|--- .... ....|G-1 .... ....
..1D|..|G-4 7.2F ....|--- ...B ....|A#1 .E.. ....
....|..|G-2 1.3D ....|--- .... ....|A#1 .... ....
..1D|..|D-4 4F.F ....|--- ...A ....|A#2 .8.. ....
..1D|..|G-4 1..C ....|--- .... ....|A#1 .E.. ....
..1D|..|G-2 7.3E ....|--- ...9 ....|F-2 .E.. ....
..1D|..|D-4 1F.C ....|--- .... ....|A#1 .E.. ....
..1D|..|F-4 4.2F ....|--- ...8 ....|A#2 .8.. ....
..1D|..|G-2 1.3. ....|--- .... ....|A#1 .E.. ....
....|..|D-4 7F.. ....|--- ...7 ....|D#2 .... ....
....|..|F-4 1.2C ....|--- .... ....|D#2 .... ....
..1D|..|G-4 4F.F ....|--- ...6 ....|A#4 28.. ....
..1D|..|D-4 1..C ....|--- .... ....|D#2 1E.. ....
..16|..|G-4 7..F ....|--- ...5 ....|A#3 .E.. ....
..14|..|G-4 1..C ....|--- .... ....|D#2 2E.. ....
..16|..|F-4 7..F ....|--- ...4 ....|A#2 1E.. ....
....|..|G-4 1..C ....|--- .... ....|A#2 .... ....

[Pattern8]
..23|..|G-4 1F2F ....|D-5 6F.6 ....|G-1 1E.. ....
....|..|G-2 ..3D ....|--- .... ....|--- .... ....
....|..|D-4 4F.F ....|--- ...7 ....|--- .... ....
....|..|G-4 1..C ....|--- .... ....|--- .... ....
..23|..|G-2 ..3E ....|--- ...8 ....|--- .8.. ....
....|..|D-4 .F.C ....|--- .... ....|--- .... ....
..23|..|F-4 4.2F ....|--- ...9 ....|--- .E.. ....
....|..|G-2 1.3. ....|--- .... ....|--- .... ....
....|..|D-4 .F.. ....|--- ...A ....|--- .... ....
....|..|F-4 ..2C ....|--- .... ....|--- .... ....
..46|..|G-4 4F.F ....|--- ...B ....|--- .8.. ....
....|..|D-4 1..C ....|--- .... ....|--- .... ....
..23|..|G-4 ...F ....|--- ...C ....|--- .8.. ....
....|..|G-4 ...C ....|--- .... ....|--- .... ....
..23|..|F-4 4..F ....|--- ...D ....|--- .E.. ....
....|..|G-4 1..C ....|--- .... ....|--- .... ....
....|..|G-4 ..2F ....|--- .... ....|--- .... ....
....|..|G-2 ..3D ....|--- .... ....|--- .... ....
....|..|D-4 4F.F ....|--- .... ....|--- .... ....
....|..|G-4 1..C ....|--- .... ....|--- .... ....
..23|..|G-2 ..3E ....|C-5 .... ....|--- .8.. ....
....|..|D-4 .F.C ....|--- .... ....|--- .... ....
..23|..|F-4 4.2F ....|D-5 ...A ....|--- .E.. ....
....|..|G-2 1.3. ....|--- .... ....|--- .... ....
....|..|D-4 .F.. ....|A#4 ...D ....|--- .... ....
....|..|F-4 ..2C ....|--- .... ....|--- .... ....
..3B|..|G-4 4F.F ....|C-5 .... ....|A#1 .8.. ....
....|..|D-4 1..C ....|--- .... ....|--- .... ....
..1A|..|G-4 ...F ....|A#4 ...A ....|--- .8.. ....
....|..|G-4 ...C ....|--- .... ....|--- .... ....
..1D|..|F-4 4..F ....|C-5 .... ....|--- .E.. ....
....|..|G-4 1..C ....|--- .... ....|--- .... ....
..1A|..|G-4 ..2F ....|G-4 ...9 ....|C-2 .E.. ....
....|..|G-2 ..3D ....|--- ...A ....|--- .... ....
....|..|D-4 4F.F ....|--- ...B ....|--- .... ....
....|..|G-4 1..C ....|--- ...C ....|--- .... ....
..1A|..|G-2 ..3E ....|G-4 ...D ....|--- .8.. ....
....|..|D-4 .F.C ....|--- .... ....|--- .... ....
..1A|..|F-4 4.2F ....|--- .... ....|--- .E.. ....
....|..|G-2 1.3. ....|--- .... ....|--- .... ....
....|..|D-4 .F.. ....|C-5 ...A ....|--- .... ....
....|..|F-4 ..2C ....|--- .... ....|--- .... ....
..34|..|G-4 4F.F ....|--- .... ....|--- .8.. ....
....|..|D-4 1..C ....|--- .... ....|--- .... ....
..1A|..|G-4 ...F ....|D-4 ...D ....|--- .8.. ....
....|..|G-4 ...C ....|--- .... ....|--- .... ....
..1A|..|F-4 4..F ....|--- ...C ....|--- .E.. ....
....|..|G-4 1..C ....|--- .... ....|--- .... ....
..1D|..|G-4 ..2F ....|--- ...B ....|A#1 .E.. ....
....|..|G-2 ..3D ....|--- .... ....|--- .... ....
....|..|D-4 4F.F ....|--- ...A ....|--- .... ....
....|..|G-4 1..C ....|--- .... ....|--- .... ....
..1D|..|G-2 ..3E ....|--- ...9 ....|--- .8.. ....
....|..|D-4 .F.C ....|--- .... ....|--- .... ....
..1D|..|F-4 4.2F ....|--- ...8 ....|--- .E.. ....
....|..|G-2 1.3. ....|--- .... ....|--- .... ....
..16|..|D-4 .F.. ....|--- ...7 ....|D#2 .E.. ....
....|..|F-4 ..2C ....|--- .... ....|--- .... ....
..2C|..|G-4 4F.F ....|--- ...6 ....|--- .8.. ....
....|..|D-4 1..C ....|--- .... ....|--- .... ....
..16|..|G-4 ...F ....|--- ...5 ....|--- .8.. ....
....|..|G-4 ...C ....|--- .... ....|--- .... ....
..16|..|F-4 4..F ....|--- ...4 ....|--- .E.. ....
....|..|G-4 1..C ....|--- .... ....|--- .... ....

[Pattern9]
..23|..|G-4 1F2F ....|A#4 6F.6 ....|G-1 1E.. ....
....|..|G-2 ..3D ....|--- .... ....|--- .... ....
....|..|D-4 4F.F ....|--- ...7 ....|--- .... ....
....|..|G-4 1..C ....|--- .... ....|--- .... ....
..23|..|G-2 ..3E ....|--- ...8 ....|--- .8.. ....
....|..|D-4 .F.C ....|--- .... ....|--- .... ....
..23|..|F-4 4.2F ....|--- ...9 ....|--- .E.. ....
....|..|G-2 1.3. ....|--- .... ....|--- .... ....
....|..|D-4 .F.. ....|--- ...A ....|--- .... ....
....|..|F-4 ..2C ....|--- .... ....|--- .... ....
..46|..|G-4 4F.F ....|--- ...B ....|--- .8.. ....
....|..|D-4 1..C ....|--- .... ....|--- .... ....
..23|..|G-4 ...F ....|--- ...C ....|--- .8.. ....
....|..|G-4 ...C ....|--- .... ....|--- .... ....
..23|..|F-4 4..F ....|--- ...D ....|--- .E.. ....
....|..|G-4 1..C ....|--- .... ....|--- .... ....
....|..|G-4 ..2F ....|--- .... ....|--- .... ....
....|..|G-2 ..3D ....|--- .... ....|--- .... ....
....|..|D-4 4F.F ....|--- .... ....|--- .... ....
....|..|G-4 1..C ....|--- .... ....|--- .... ....
..23|..|G-2 ..3E ....|G-4 .... ....|--- .8.. ....
....|..|D-4 .F.C ....|--- .... ....|--- .... ....
..23|..|F-4 4.2F ....|A#4 ...A ....|--- .E.. ....
....|..|G-2 1.3. ....|--- .... ....|--- .... ....
....|..|D-4 .F.. ....|G-4 ...D ....|--- .... ....
....|..|F-4 ..2C ....|--- .... ....|--- .... ....
..3B|..|G-4 4F.F ....|F-4 .... ....|A#1 .8.. ....
....|..|D-4 1..C ....|--- .... ....|--- .... ....
..1A|..|G-4 ...F ....|G-4 ...A ....|--- .8.. ....
....|..|G-4 ...C ....|--- .... ....|--- .... ....
..1D|..|F-4 4..F ....|F-4 .... ....|--- .E.. ....
....|..|G-4 1..C ....|--- .... ....|--- .... ....
..1A|..|G-4 ..2F ....|G-4 ...9 ....|C-2 .E.. ....
....|..|G-2 ..3D ....|--- ...A ....|--- .... ....
....|..|D-4 4F.F ....|--- ...B ....|--- .... ....
....|..|G-4 1..C ....|--- ...C ....|--- .... ....
..1A|..|G-2 ..3E ....|G-4 ...D ....|--- .8.. ....
....|..|D-4 .F.C ....|--- .... ....|--- .... ....
..1A|..|F-4 4.2F ....|--- .... ....|--- .E.. ....
....|..|G-2 1.3. ....|--- .... ....|--- .... ....
....|..|D-4 .F.. ....|F-4 ...A ....|--- .... ....
....|..|F-4 ..2C ....|--- .... ....|--- .... ....
..34|..|G-4 4F.F ....|--- .... ....|--- .8.. ....
....|..|D-4 1..C ....|--- .... ....|--- .... ....
..1A|..|G-4 ...F ....|G-4 ...D ....|--- .8.. ....
....|..|G-4 ...C ....|--- .... ....|--- .... ....
..1A|..|F-4 4..F ....|--- ...C ....|--- .E.. ....
....|..|G-4 1..C ....|--- .... ....|--- .... ....
..1D|..|G-4 ..2F ....|--- ...B ....|A#1 .E.. ....
....|..|G-2 ..3D ....|--- .... ....|--- .... ....
....|..|D-4 4F.F ....|--- ...A ....|--- .... ....
....|..|G-4 1..C ....|--- .... ....|--- .... ....
..1D|..|G-2 ..3E ....|--- ...9 ....|--- .8.. ....
....|..|D-4 .F.C ....|--- .... ....|--- .... ....
..1D|..|F-4 4.2F ....|--- ...8 ....|--- .E.. ....
....|..|G-2 1.3. ....|--- .... ....|--- .... ....
..16|..|D-4 .F.. ....|--- ...7 ....|D#2 .E.. ....
....|..|F-4 ..2C ....|--- .... ....|--- .... ....
..2C|..|G-4 4F.F ....|--- ...6 ....|--- .8.. ....
....|..|D-4 1..C ....|--- .... ....|--- .... ....
..16|..|G-4 ...F ....|--- ...5 ....|--- .8.. ....
....|..|G-4 ...C ....|--- .... ....|--- .... ....
..16|..|F-4 4..F ....|--- ...4 ....|--- .E.. ....
....|..|G-4 1..C ....|--- .... ....|--- .... ....

[Pattern10]
..23|..|G-4 7F.F ....|A#4 6F.6 ....|G-1 1E.. ....
....|..|G-2 1.3D ....|--- .... ....|G-1 .... ....
..23|..|D-4 4F.F ....|--- ...7 ....|G-2 .8.. ....
..23|..|G-4 1..C ....|--- .... ....|G-1 .E.. ....
..17|..|C-4 7.3F ....|--- ...8 ....|D-2 .E.. ....
..23|..|D-4 1F.C ....|--- .... ....|G-1 .E.. ....
..23|..|F-4 4.2F ....|--- ...9 ....|G-2 .8.. ....
..23|..|G-2 1.3. ....|--- .... ....|G-1 .E.. ....
....|..|D-4 7F.. ....|--- ...A ....|G-1 .... ....
....|..|F-4 1.2C ....|--- .... ....|G-1 .... ....
..23|..|G-4 4F.F ....|--- ...B ....|G-3 28.. ....
..23|..|D-4 1..C ....|--- .... ....|G-1 1E.. ....
..1F|..|G-4 7..F ....|--- ...C ....|D-2 .E.. ....
..17|..|G-4 1..C ....|--- .... ....|G-1 2E.. ....
..1F|..|F-4 4..F ....|--- ...D ....|D-1 1E.. ....
....|..|G-4 1..C ....|--- .... ....|D-1 .... ....
..23|..|G-4 7.2F ....|--- .... ....|G-1 .E.. ....
....|..|G-2 1.3D ....|--- .... ....|G-1 .... ....
..23|..|D-4 4F.F ....|--- .... ....|G-2 .8.. ....
..23|..|G-4 1..C ....|--- .... ....|G-1 .E.. ....
..17|..|G-2 7.3E ....|G-4 .... ....|D-2 .E.. ....
..23|..|D-4 1F.C ....|--- .... ....|G-1 .E.. ....
..23|..|F-4 4.2F ....|A#4 ...A ....|G-2 .8.. ....
..23|..|G-2 1.3. ....|--- .... ....|G-1 .E.. ....
..1D|..|D-4 7F.. ....|G-4 ...D ....|A#1 .E.. ....
....|..|F-4 1.2C ....|--- .... ....|A#1 .... ....
..1D|..|G-4 4F.F ....|F-4 .... ....|A#3 28.. ....
..1D|..|D-4 1..C ....|--- .... ....|A#1 1E.. ....
..14|..|G-4 7..F ....|G-4 ...A ....|F-1 .E.. ....
..1D|..|G-4 1..C ....|--- .... ....|A#1 2E.. ....
..1D|..|F-4 4..F ....|F-4 .... ....|E-1 1E.. ....
....|..|G-4 1..C ....|--- .... ....|E-1 .... ....
..1A|..|G-4 7.2F ....|G-4 ...9 ....|C-2 .E.. ....
....|..|G-2 1.3D ....|--- ...A ....|C-2 .... ....
..1A|..|D-4 4F.F ....|--- ...B ....|C-3 .8.. ....
..1A|..|G-4 1..C ....|--- ...C ....|C-2 .E.. ....
..11|..|G-2 7.3E ....|G-4 ...D ....|G-2 .E.. ....
..1A|..|D-4 1F.C ....|--- .... ....|C-2 .E.. ....
..1A|..|F-4 4.2F ....|--- .... ....|C-3 .8.. ....
..1A|..|G-2 1.3. ....|--- .... ....|C-2 .E.. ....
....|..|D-4 7F.. ....|F-4 ...A ....|C-2 .... ....
....|..|F-4 1.2C ....|--- .... ....|C-2 .... ....
..1A|..|G-4 4F.F ....|--- .... ....|G-3 28.. ....
..1A|..|D-4 1..C ....|--- .... ....|C-2 1E.. ....
..1A|..|G-4 7..F ....|G-4 ...D ....|G-2 .E.. ....
..14|..|G-4 1..C ....|--- .... ....|C-2 2E.. ....
..1A|..|F-4 4..F ....|--- ...C ....|G-1 1E.. ....
....|..|G-4 1..C ....|--- .... ....|G-1 .... ....
..1D|..|G-4 7.2F ....|--- ...B ....|A#1 .E.. ....
....|..|G-2 1.3D ....|--- .... ....|A#1 .... ....
..1D|..|D-4 4F.F ....|--- ...A ....|A#2 .8.. ....
..1D|..|G-4 1..C ....|--- .... ....|A#1 .E.. ....
..1D|..|G-2 7.3E ....|--- ...9 ....|F-2 .E.. ....
..1D|..|D-4 1F.C ....|--- .... ....|A#1 .E.. ....
..1D|..|F-4 4.2F ....|--- ...8 ....|A#2 .8.. ....
..1D|..|G-2 1.3. ....|--- .... ....|A#1 .E.. ....
....|..|D-4 7F.. ....|--- ...7 ....|D#2 .... ....
....|..|F-4 1.2C ....|--- .... ....|D#2 .... ....
..1D|..|G-4 4F.F ....|--- ...6 ....|A#4 28.. ....
..1D|..|D-4 1..C ....|--- .... ....|D#2 1E.. ....
..16|..|G-4 7..F ....|--- ...5 ....|A#3 .E.. ....
..14|..|G-4 1..C ....|--- .... ....|D#2 2E.. ....
..16|..|F-4 7..F ....|--- ...4 ....|A#2 1E.. ....
....|..|G-4 1..C ....|--- .... ....|A#2 .... ....

[Pattern11]
..23|..|G-4 1F2F ....|G-4 6F.6 ....|G-1 1E.. ....
....|..|G-2 ..3D ....|--- .... ....|--- .... ....
....|..|D-4 4F.F ....|--- ...7 ....|--- .... ....
....|..|G-4 1..C ....|--- .... ....|--- .... ....
..23|..|G-2 ..3E ....|--- ...8 ....|--- .8.. ....
....|..|D-4 .F.C ....|--- .... ....|--- .... ....
..23|..|F-4 4.2F ....|--- ...9 ....|--- .E.. ....
....|..|G-2 1.3. ....|--- .... ....|--- .... ....
....|..|D-4 .F.. ....|--- ...A ....|--- .... ....
....|..|F-4 ..2C ....|--- .... ....|--- .... ....
..46|..|G-4 4F.F ....|--- ...B ....|--- .8.. ....
....|..|D-4 1..C ....|--- .... ....|--- .... ....
..23|..|G-4 ...F ....|--- ...C ....|--- .8.. ....
....|..|G-4 ...C ....|--- .... ....|--- .... ....
..23|..|F-4 4..F ....|--- ...D ....|--- .E.. ....
....|..|G-4 1..C ....|--- .... ....|--- .... ....
....|..|G-4 ..2F ....|--- .... ....|--- .... ....
....|..|G-2 ..3D ....|--- .... ....|--- .... ....
....|..|D-4 4F.F ....|--- .... ....|--- .... ....
....|..|G-4 1..C ....|--- .... ....|--- .... ....
..23|..|G-2 ..3E ....|F-4 .... ....|--- .8.. ....
....|..|D-4 .F.C ....|--- .... ....|--- .... ....
..23|..|F-4 4.2F ....|G-4 ...A ....|--- .E.. ....
....|..|G-2 1.3. ....|--- .... ....|--- .... ....
....|..|D-4 .F.. ....|A-4 ...D ....|--- .... ....
....|..|F-4 ..2C ....|--- .... ....|--- .... ....
..3B|..|G-4 4F.F ....|A#4 .... ....|A#1 .8.. ....
....|..|D-4 1..C ....|--- .... ....|--- .... ....
..1A|..|G-4 ...F ....|A-4 ...A ....|--- .8.. ....
....|..|G-4 ...C ....|--- .... ....|--- .... ....
..1D|..|F-4 4..F ....|A#4 .... ....|--- .E.. ....
....|..|G-4 1..C ....|--- .... ....|--- .... ....
..1A|..|G-4 ..2F ....|C-5 ...9 ....|C-2 .E.. ....
....|..|G-2 ..3D ....|--- ...A ....|--- .... ....
....|..|D-4 4F.F ....|--- ...B ....|--- .... ....
....|..|G-4 1..C ....|--- ...C ....|--- .... ....
..1A|..|G-2 ..3E ....|G-4 ...D ....|--- .8.. ....
....|..|D-4 .F.C ....|--- .... ....|--- .... ....
..1A|..|F-4 4.2F ....|--- .... ....|--- .E.. ....
....|..|G-2 1.3. ....|--- .... ....|--- .... ....
....|..|D-4 .F.. ....|C-5 ...A ....|--- .... ....
....|..|F-4 ..2C ....|--- .... ....|--- .... ....
..34|..|G-4 4F.F ....|--- .... ....|--- .8.. ....
....|..|D-4 1..C ....|--- .... ....|--- .... ....
..1A|..|G-4 ...F ....|D-5 ...D ....|--- .8.. ....
....|..|G-4 ...C ....|--- .... ....|--- .... ....
..1A|..|F-4 4..F ....|--- ...C ....|--- .E.. ....
....|..|G-4 1..C ....|--- .... ....|--- .... ....
..1D|..|G-4 ..2F ....|--- ...B ....|A#1 .E.. ....
....|..|G-2 ..3D ....|--- .... ....|--- .... ....
....|..|D-4 4F.F ....|--- ...A ....|--- .... ....
....|..|G-4 1..C ....|--- .... ....|--- .... ....
..1D|..|G-2 ..3E ....|--- ...9 ....|--- .8.. ....
....|..|D-4 .F.C ....|--- .... ....|--- .... ....
..1D|..|F-4 4.2F ....|--- ...8 ....|--- .E.. ....
....|..|G-2 1.3. ....|--- .... ....|--- .... ....
..16|..|D-4 .F.. ....|--- ...7 ....|D#2 .E.. ....
....|..|F-4 ..2C ....|--- .... ....|--- .... ....
..2C|..|G-4 4F.F ....|--- ...6 ....|--- .8.. ....
....|..|D-4 1..C ....|--- .... ....|--- .... ....
..16|..|G-4 ...F ....|--- ...5 ....|--- .8.. ....
....|..|G-4 ...C ....|--- .... ....|--- .... ....
..16|..|F-4 4..F ....|--- ...4 ....|--- .E.. ....
....|..|G-4 1..C ....|--- .... ....|--- .... ....

[Pattern12]
..23|..|G-4 1F2F ....|C-5 6F.6 ....|G-1 1E.. ....
....|..|G-2 ..3D ....|--- .... ....|--- .... ....
....|..|D-4 4F.F ....|--- ...7 ....|--- .... ....
....|..|G-4 1..C ....|--- .... ....|--- .... ....
..23|..|G-2 ..3E ....|--- ...8 ....|--- .8.. ....
....|..|D-4 .F.C ....|--- .... ....|--- .... ....
..23|..|F-4 4.2F ....|--- ...9 ....|--- .E.. ....
....|..|G-2 1.3. ....|--- .... ....|--- .... ....
....|..|D-4 .F.. ....|--- ...A ....|--- .... ....
....|..|F-4 ..2C ....|--- .... ....|--- .... ....
..46|..|G-4 4F.F ....|--- ...B ....|--- .8.. ....
....|..|D-4 1..C ....|--- .... ....|--- .... ....
..23|..|G-4 ...F ....|--- ...C ....|--- .8.. ....
....|..|G-4 ...C ....|--- .... ....|--- .... ....
..23|..|F-4 4..F ....|--- ...D ....|--- .E.. ....
....|..|G-4 1..C ....|--- .... ....|--- .... ....
....|..|G-4 ..2F ....|--- .... ....|--- .... ....
....|..|G-2 ..3D ....|--- .... ....|--- .... ....
....|..|D-4 4F.F ....|--- .... ....|--- .... ....
....|..|G-4 1..C ....|--- .... ....|--- .... ....
..23|..|G-2 ..3E ....|C-5 .... ....|--- .8.. ....
....|..|D-4 .F.C ....|--- .... ....|--- .... ....
..23|..|F-4 4.2F ....|C-5 ...A ....|--- .E.. ....
....|..|G-2 1.3. ....|--- .... ....|--- .... ....
....|..|D-4 .F.. ....|A#4 ...D ....|--- .... ....
....|..|F-4 ..2C ....|--- .... ....|--- .... ....
..3B|..|G-4 4F.F ....|A-4 .... ....|A#1 .8.. ....
....|..|D-4 1..C ....|--- .... ....|--- .... ....
..1A|..|G-4 ...F ....|A#4 ...A ....|--- .8.. ....
....|..|G-4 ...C ....|--- .... ....|--- .... ....
..1D|..|F-4 4..F ....|A-4 .... ....|--- .E.. ....
....|..|G-4 1..C ....|--- .... ....|--- .... ....
..1A|..|G-4 ..2F ....|G-4 ...9 ....|C-2 .E.. ....
....|..|G-2 ..3D ....|--- ...A ....|--- .... ....
....|..|D-4 4F.F ....|--- ...B ....|--- .... ....
....|..|G-4 1..C ....|--- ...C ....|--- .... ....
..1A|..|G-2 ..3E ....|G-4 ...D ....|--- .8.. ....
....|..|D-4 .F.C ....|--- .... ....|--- .... ....
..1A|..|F-4 4.2F ....|--- .... ....|--- .E.. ....
....|..|G-2 1.3. ....|--- .... ....|--- .... ....
....|..|D-4 .F.. ....|F-4 ...A ....|--- .... ....
....|..|F-4 ..2C ....|--- .... ....|--- .... ....
..34|..|G-4 4F.F ....|--- .... ....|--- .8.. ....
....|..|D-4 1..C ....|--- .... ....|--- .... ....
..1A|..|G-4 ...F ....|G-4 ...D ....|--- .8.. ....
....|..|G-4 ...C ....|--- .... ....|--- .... ....
..1A|..|F-4 4..F ....|--- ...C ....|--- .E.. ....
....|..|G-4 1..C ....|--- .... ....|--- .... ....
..1D|..|G-4 ..2F ....|--- ...B ....|A#1 .E.. ....
....|..|G-2 ..3D ....|--- .... ....|--- .... ....
....|..|D-4 4F.F ....|--- ...A ....|--- .... ....
....|..|G-4 1..C ....|--- .... ....|--- .... ....
..1D|..|G-2 ..3E ....|--- ...9 ....|--- .8.. ....
....|..|D-4 .F.C ....|--- .... ....|--- .... ....
..1D|..|F-4 4.2F ....|--- ...8 ....|--- .E.. ....
....|..|G-2 1.3. ....|--- .... ....|--- .... ....
..16|..|D-4 .F.. ....|--- ...7 ....|D#2 .E.. ....
....|..|F-4 ..2C ....|--- .... ....|--- .... ....
..2C|..|G-4 4F.F ....|--- ...6 ....|--- .8.. ....
....|..|D-4 1..C ....|--- .... ....|--- .... ....
..16|..|G-4 ...F ....|--- ...5 ....|--- .8.. ....
....|..|G-4 ...C ....|--- .... ....|--- .... ....
..16|..|F-4 4..F ....|--- ...4 ....|--- .E.. ....
....|..|G-4 1..C ....|--- .... ....|--- .... ....

[Pattern13]
..23|..|G-4 7F.F ....|G-4 6F.6 ....|G-1 1E.. ....
....|..|G-2 1.3D ....|--- .... ....|G-1 .... ....
..23|..|D-4 4F.F ....|--- ...7 ....|G-2 .8.. ....
..23|..|G-4 1..C ....|--- .... ....|G-1 .E.. ....
..17|..|C-4 7.3F ....|--- ...8 ....|D-2 .E.. ....
..23|..|D-4 1F.C ....|--- .... ....|G-1 .E.. ....
..23|..|F-4 4.2F ....|--- ...9 ....|G-2 .8.. ....
..23|..|G-2 1.3. ....|--- .... ....|G-1 .E.. ....
....|..|D-4 7F.. ....|--- ...A ....|G-1 .... ....
....|..|F-4 1.2C ....|--- .... ....|G-1 .... ....
..23|..|G-4 4F.F ....|--- ...B ....|G-3 28.. ....
..23|..|D-4 1..C ....|--- .... ....|G-1 1E.. ....
..1F|..|G-4 7..F ....|--- ...C ....|D-2 .E.. ....
..17|..|G-4 1..C ....|--- .... ....|G-1 2E.. ....
..1F|..|F-4 4..F ....|--- ...D ....|D-1 1E.. ....
....|..|G-4 1..C ....|--- .... ....|D-1 .... ....
..23|..|G-4 7.2F ....|--- .... ....|G-1 .E.. ....
....|..|G-2 1.3D ....|--- .... ....|G-1 .... ....
..23|..|D-4 4F.F ....|--- .... ....|G-2 .8.. ....
..23|..|G-4 1..C ....|--- .... ....|G-1 .E.. ....
..17|..|G-2 7.3E ....|F-4 .... ....|D-2 .E.. ....
..23|..|D-4 1F.C ....|--- .... ....|G-1 .E.. ....
..23|..|F-4 4.2F ....|G-4 ...A ....|G-2 .8.. ....
..23|..|G-2 1.3. ....|--- .... ....|G-1 .E.. ....
..1D|..|D-4 7F.. ....|A-4 ...D ....|A#1 .E.. ....
....|..|F-4 1.2C ....|--- .... ....|A#1 .... ....
..1D|..|G-4 4F.F ....|A#4 .... ....|A#3 28.. ....
..1D|..|D-4 1..C ....|--- .... ....|A#1 1E.. ....
..14|..|G-4 7..F ....|A-4 ...A ....|F-1 .E.. ....
..1D|..|G-4 1..C ....|--- .... ....|A#1 2E.. ....
..1D|..|F-4 4..F ....|A#4 .... ....|E-1 1E.. ....
....|..|G-4 1..C ....|--- .... ....|E-1 .... ....
..1A|..|G-4 7.2F ....|C-5 ...9 ....|C-2 .E.. ....
....|..|G-2 1.3D ....|--- ...A ....|C-2 .... ....
..1A|..|D-4 4F.F ....|--- ...B ....|C-3 .8.. ....
..1A|..|G-4 1..C ....|--- ...C ....|C-2 .E.. ....
..11|..|G-2 7.3E ....|G-4 ...D ....|G-2 .E.. ....
..1A|..|D-4 1F.C ....|--- .... ....|C-2 .E.. ....
..1A|..|F-4 4.2F ....|--- .... ....|C-3 .8.. ....
..1A|..|G-2 1.3. ....|--- .... ....|C-2 .E.. ....
....|..|D-4 7F.. ....|C-5 ...A ....|C-2 .... ....
....|..|F-4 1.2C ....|--- .... ....|C-2 .... ....
..1A|..|G-4 4F.F ....|--- .... ....|G-3 28.. ....
..1A|..|D-4 1..C ....|--- .... ....|C-2 1E.. ....
..1A|..|G-4 7..F ....|D-5 ...D ....|G-2 .E.. ....
..14|..|G-4 1..C ....|--- .... ....|C-2 2E.. ....
..1A|..|F-4 4..F ....|--- ...C ....|G-1 1E.. ....
....|..|G-4 1..C ....|--- .... ....|G-1 .... ....
..1D|..|G-4 7.2F ....|--- ...B ....|A#1 .E.. ....
....|..|G-2 1.3D ....|--- .... ....|A#1 .... ....
..1D|..|D-4 4F.F ....|--- ...A ....|A#2 .8.. ....
..1D|..|G-4 1..C ....|--- .... ....|A#1 .E.. ....
..1D|..|G-2 7.3E ....|--- ...9 ....|F-2 .E.. ....
..1D|..|D-4 1F.C ....|--- .... ....|A#1 .E.. ....
..1D|..|F-4 4.2F ....|--- ...8 ....|A#2 .8.. ....
..1D|..|G-2 1.3. ....|--- .... ....|A#1 .E.. ....
....|..|D-4 7F.. ....|--- ...7 ....|D#2 .... ....
....|..|F-4 1.2C ....|--- .... ....|D#2 .... ....
..1D|..|G-4 4F.F ....|--- ...6 ....|A#4 28.. ....
..1D|..|D-4 1..C ....|--- .... ....|D#2 1E.. ....
..16|..|G-4 7..F ....|--- ...5 ....|A#3 .E.. ....
..14|..|G-4 1..C ....|--- .... ....|D#2 2E.. ....
..16|..|F-4 7..F ....|--- ...4 ....|A#2 1E.. ....
....|..|G-4 1..C ....|--- .... ....|A#2 .... ....

[Pattern14]
..23|..|G-4 7F.F ....|C-5 6F.6 ....|G-1 1E.. ....
....|..|G-2 1.3D ....|--- .... ....|G-1 .... ....
..23|..|D-4 4F.F ....|--- ...7 ....|G-2 .8.. ....
..23|..|G-4 1..C ....|--- .... ....|G-1 .E.. ....
..17|..|C-4 7.3F ....|--- ...8 ....|D-2 .E.. ....
..23|..|D-4 1F.C ....|--- .... ....|G-1 .E.. ....
..23|..|F-4 4.2F ....|--- ...9 ....|G-2 .8.. ....
..23|..|G-2 1.3. ....|--- .... ....|G-1 .E.. ....
....|..|D-4 7F.. ....|--- ...A ....|G-1 .... ....
....|..|F-4 1.2C ....|--- .... ....|G-1 .... ....
..23|..|G-4 4F.F ....|--- ...B ....|G-3 28.. ....
..23|..|D-4 1..C ....|--- .... ....|G-1 1E.. ....
..1F|..|G-4 7..F ....|--- ...C ....|D-2 .E.. ....
..17|..|G-4 1..C ....|--- .... ....|G-1 2E.. ....
..1F|..|F-4 4..F ....|--- ...D ....|D-1 1E.. ....
....|..|G-4 1..C ....|--- .... ....|D-1 .... ....
..23|..|G-4 7.2F ....|--- .... ....|G-1 .E.. ....
....|..|G-2 1.3D ....|--- .... ....|G-1 .... ....
..23|..|D-4 4F.F ....|--- .... ....|G-2 .8.. ....
..23|..|G-4 1..C ....|--- .... ....|G-1 .E.. ....
..17|..|G-2 7.3E ....|C-5 .... ....|D-2 .E.. ....
..23|..|D-4 1F.C ....|--- .... ....|G-1 .E.. ....
..23|..|F-4 4.2F ....|C-5 ...A ....|G-2 .8.. ....
..23|..|G-2 1.3. ....|--- .... ....|G-1 .E.. ....
..1D|..|D-4 7F.. ....|A#4 ...D ....|A#1 .E.. ....
....|..|F-4 1.2C ....|--- .... ....|A#1 .... ....
..1D|..|G-4 4F.F ....|A-4 .... ....|A#3 28.. ....
..1D|..|D-4 1..C ....|--- .... ....|A#1 1E.. ....
..14|..|G-4 7..F ....|A#4 ...A ....|F-1 .E.. ....
..1D|..|G-4 1..C ....|--- .... ....|A#1 2E.. ....
..1D|..|F-4 4..F ....|A-4 .... ....|E-1 1E.. ....
....|..|G-4 1..C ....|--- .... ....|E-1 .... ....
..1A|..|G-4 7.2F ....|G-4 ...9 ....|C-2 .E.. ....
....|..|G-2 1.3D ....|--- ...A ....|C-2 .... ....
..1A|..|D-4 4F.F ....|--- ...B ....|C-3 .8.. ....
..1A|..|G-4 1..C ....|--- ...C ....|C-2 .E.. ....
..11|..|G-2 7.3E ....|G-4 ...D ....|G-2 .E.. ....
..1A|..|D-4 1F.C ....|--- .... ....|C-2 .E.. ....
..1A|..|F-4 4.2F ....|--- .... ....|C-3 .8.. ....
..1A|..|G-2 1.3. ....|--- .... ....|C-2 .E.. ....
....|..|D-4 7F.. ....|F-4 ...A ....|C-2 .... ....
....|..|F-4 1.2C ....|--- .... ....|C-2 .... ....
..1A|..|G-4 4F.F ....|--- .... ....|G-3 28.. ....
..1A|..|D-4 1..C ....|--- .... ....|C-2 1E.. ....
..1A|..|G-4 7..F ....|G-4 ...D ....|G-2 .E.. ....
..14|..|G-4 1..C ....|--- .... ....|C-2 2E.. ....
..1A|..|F-4 4..F ....|--- ...C ....|G-1 1E.. ....
....|..|G-4 1..C ....|--- .... ....|G-1 .... ....
..1D|..|G-4 7.2F ....|--- ...B ....|A#1 .E.. ....
....|..|G-2 1.3D ....|--- .... ....|A#1 .... ....
..1D|..|D-4 4F.F ....|--- ...A ....|A#2 .8.. ....
..1D|..|G-4 1..C ....|--- .... ....|A#1 .E.. ....
..1D|..|G-2 7.3E ....|--- ...9 ....|F-2 .E.. ....
..1D|..|D-4 1F.C ....|--- .... ....|A#1 .E.. ....
..1D|..|F-4 4.2F ....|--- ...8 ....|A#2 .8.. ....
..1D|..|G-2 1.3. ....|--- .... ....|A#1 .E.. ....
....|..|D-4 7F.. ....|--- ...7 ....|D#2 .... ....
....|..|F-4 1.2C ....|--- .... ....|D#2 .... ....
..1D|..|G-4 4F.F ....|--- ...6 ....|A#4 28.. ....
..1D|..|D-4 1..C ....|--- .... ....|D#2 1E.. ....
..16|..|G-4 7..F ....|--- ...5 ....|A#3 .E.. ....
..14|..|G-4 1..C ....|--- .... ....|D#2 2E.. ....
..16|..|F-4 7..F ....|--- ...4 ....|A#2 1E.. ....
....|..|G-4 1..C ....|--- .... ....|A#2 .... ....

[Pattern15]
..1A|..|G-4 1F2F ....|A#4 1F.F ....|C-2 1E.. ....
....|..|G-2 ..3D ....|D-4 ...A ....|C-2 .... ....
..1A|..|D-4 4F.F ....|A-4 ...F ....|C-3 .8.. ....
..1A|..|G-4 1..C ....|A#4 ...A ....|C-2 .E.. ....
..11|..|G-2 ..3E ....|G-4 ...F ....|G-2 .E.. ....
..1A|..|D-4 .F.C ....|A-4 ...A ....|C-2 .E.. ....
..1A|..|F-4 4.2F ....|D-4 ...F ....|C-3 .8.. ....
..1A|..|G-2 1.3. ....|G-4 ...A ....|C-2 .E.. ....
....|..|D-4 .F.. ....|A#4 ...D ....|C-2 .... ....
....|..|F-4 ..2C ....|D-4 ...A ....|C-2 .... ....
..1A|..|G-4 4F.F ....|A-4 ...D ....|C-4 28.. ....
..1A|..|D-4 1..C ....|A#4 ...A ....|C-2 1E.. ....
..17|..|G-4 ...F ....|G-4 ...D ....|G-2 .E.. ....
..11|..|G-4 ...C ....|A-4 ...A ....|C-2 2E.. ....
..17|..|F-4 4..F ....|D-4 ...D ....|G-1 1E.. ....
....|..|G-4 1..C ....|G-4 ...A ....|G-1 .... ....
..1A|..|G-4 ..2F ....|A#4 ...F ....|C-2 .E.. ....
....|..|G-2 ..3D ....|D-4 ...A ....|C-2 .... ....
..1A|..|D-4 4F.F ....|A-4 ...F ....|C-3 .8.. ....
..1A|..|G-4 1..C ....|A#4 ...A ....|C-2 .E.. ....
..11|..|G-2 ..3E ....|G-4 ...F ....|G-2 .E.. ....
..1A|..|D-4 .F.C ....|A-4 ...A ....|C-2 .E.. ....
..1A|..|F-4 4.2F ....|D-4 ...F ....|C-3 .8.. ....
..1A|..|G-2 1.3. ....|G-4 ...A ....|C-2 .E.. ....
....|..|D-4 .F.. ....|A#4 ...D ....|C-2 .... ....
....|..|F-4 ..2C ....|D-4 ...A ....|C-2 .... ....
..1A|..|G-4 4F.F ....|A-4 ...D ....|C-4 28.. ....
..1A|..|D-4 1..C ....|A#4 ...A ....|C-2 1E.. ....
..17|..|G-4 ...F ....|G-4 ...D ....|G-2 .E.. ....
..11|..|G-4 ...C ....|A-4 ...A ....|C-2 2E.. ....
..17|..|F-4 4..F ....|D-4 ...D ....|G-1 1E.. ....
....|..|G-4 1..C ....|G-4 ...A ....|G-1 .... ....
..16|..|G-4 ..2F ....|A#4 ...F ....|D#2 .E.. ....
....|..|G-2 ..3D ....|D-4 ...A ....|D#2 .... ....
..16|..|D-4 4F.F ....|A-4 ...F ....|D#3 .8.. ....
..16|..|G-4 1..C ....|A#4 ...A ....|D#2 .E.. ....
...F|..|G-2 ..3E ....|G-4 ...F ....|A#2 .E.. ....
..16|..|D-4 .F.C ....|A-4 ...A ....|D#2 .E.. ....
..16|..|F-4 4.2F ....|D-4 ...F ....|D#3 .8.. ....
..16|..|G-2 1.3. ....|G-4 ...A ....|D#2 .E.. ....
....|..|D-4 .F.. ....|A#4 ...D ....|D#2 .... ....
....|..|F-4 ..2C ....|D-4 ...A ....|D#2 .... ....
..16|..|G-4 4F.F ....|A-4 ...D ....|D#4 28.. ....
..16|..|D-4 1..C ....|A#4 ...A ....|D#2 1E.. ....
..14|..|G-4 ...F ....|G-4 ...D ....|A#1 .E.. ....
...F|..|G-4 ...C ....|A-4 ...A ....|D#2 2E.. ....
..14|..|F-4 4..F ....|D-4 ...D ....|A#1 1E.. ....
....|..|G-4 1..C ....|G-4 ...A ....|A#1 .... ....
..16|..|G-4 ..2F ....|A#4 ...F ....|D#2 .E.. ....
....|..|G-2 ..3D ....|D-4 ...A ....|D#2 .... ....
..16|..|D-4 4F.F ....|A-4 ...F ....|D#3 .8.. ....
..16|..|G-4 1..C ....|A#4 ...A ....|D#2 .E.. ....
...F|..|G-2 ..3E ....|G-4 ...F ....|A#2 .E.. ....
..16|..|D-4 .F.C ....|A-4 ...A ....|D#2 .E.. ....
..16|..|F-4 4.2F ....|D-4 ...F ....|D#3 .8.. ....
..16|..|G-2 1.3. ....|G-4 ...A ....|D#2 .E.. ....
....|..|D-4 .F.. ....|A#4 ...D ....|G-4 AF8F ....
....|..|F-4 ..2C ....|D-4 ...A ....|--- .... ....
....|..|G-4 4F.F ....|A-4 ...D ....|C-4 8F.B ....
....|..|D-4 1..C ....|A#4 ...A ....|C-4 ...C ....
....|..|G-4 ...F ....|G-4 ...D ....|C-4 ...D ....
....|..|G-4 ...C ....|A-4 ...A ....|C-4 ...E ....
....|..|F-4 4..F ....|D-4 ...D ....|C-4 ...F ....
....|..|G-4 1..C ....|G-4 ...A ....|C-4 .... ....

[Pattern16]
..23|..|G-4 1F2F ....|G-4 9F1F ....|G-1 1E.. ....
....|..|G-2 ..3D ....|--- .... ....|G-1 .... ....
..23|..|D-4 4F.F ....|--- .... ....|G-2 .8.. ....
..23|..|G-4 1..C ....|--- .... ....|G-1 .E.. ....
..17|..|G-2 ..3E ....|--- .... ....|D-2 .E.. ....
..23|..|D-4 .F.C ....|--- .... ....|G-1 .E.. ....
..23|..|F-4 4.2F ....|--- .... ....|G-2 .8.. ....
..23|..|G-2 1.3. ....|--- .... ....|G-1 .E.. ....
....|..|D-4 .F.. ....|--- .... ....|G-1 .... ....
....|..|F-4 ..2C ....|--- .... ....|G-1 .... ....
..23|..|G-4 4F.F ....|--- .... ....|G-3 28.. ....
..23|..|D-4 1..C ....|--- .... ....|G-1 1E.. ....
..1F|..|G-4 ...F ....|--- .... ....|D-2 .E.. ....
..17|..|G-4 ...C ....|--- .... ....|G-1 2E.. ....
..1F|..|F-4 4..F ....|--- .... ....|D-1 1E.. ....
....|..|G-4 1..C ....|--- .... ....|D-1 .... ....

[Pattern17]
..1D|..|G-4 1F2F ....|G-4 9F4F ....|A#1 1E.. ....
....|..|G-2 ..3D ....|--- .... ....|A#1 .... ....
..1D|..|D-4 .F.F ....|--- .... ....|A#2 .8.. ....
..1D|..|G-4 ...C ....|--- .... ....|A#1 .E.. ....
..14|..|G-2 ..3E ....|--- .... ....|F-2 .E.. ....
..1D|..|D-4 .F.C ....|--- .... ....|A#1 .E.. ....
..1D|..|F-4 ..2F ....|--- .... ....|A#2 .8.. ....
..1D|..|G-2 ..3. ....|--- .... ....|A#1 .E.. ....
....|..|D-4 .F.. ....|--- .... ....|A#1 .... ....
....|..|F-4 ..2C ....|--- .... ....|A#1 .... ....
..1D|..|G-4 .F.F ....|--- .... ....|A#3 28.. ....
..1D|..|D-4 ...C ....|--- .... ....|A#1 1E.. ....
..1A|..|G-4 ...F ....|--- .... ....|F-2 .E.. ....
..14|..|G-4 ...C ....|--- .... ....|A#1 2E.. ....
..1A|..|F-4 ...F ....|--- .... ....|F-1 1E.. ....
....|..|G-4 ...C ....|--- .... ....|F-1 .... ....

[Pattern18]
..1A|..|G-4 1F2F ....|G-4 9F5. ....|C-2 1E.. ....
....|..|G-2 ..3D ....|--- .... ....|C-2 .... ....
..1A|..|D-4 .F.F ....|--- .... ....|C-3 .8.. ....
..1A|..|G-4 ...C ....|--- .... ....|C-2 .E.. ....
..11|..|G-2 ..3E ....|--- .... ....|G-2 .E.. ....
..1A|..|D-4 .F.C ....|--- .... ....|C-2 .E.. ....
..1A|..|F-4 ..2F ....|--- .... ....|C-3 .8.. ....
..1A|..|G-2 ..3. ....|--- .... ....|C-2 .E.. ....
....|..|D-4 .F.. ....|--- .... ....|C-2 .... ....
....|..|F-4 ..2C ....|--- .... ....|C-2 .... ....
..1A|..|G-4 .F.F ....|--- .... ....|C-4 28.. ....
..1A|..|D-4 ...C ....|--- .... ....|C-2 1E.. ....
..17|..|G-4 ...F ....|--- .... ....|G-2 .E.. ....
..11|..|G-4 ...C ....|--- .... ....|C-2 2E.. ....
..17|..|F-4 ...F ....|--- .... ....|G-1 1E.. ....
....|..|G-4 ...C ....|--- .... ....|G-1 .... ....

[Pattern19]
..16|..|G-4 1F2F ....|G-4 9F6. ....|D#2 1E.. ....
....|..|G-2 ..3D ....|--- .... ....|D#2 .... ....
..16|..|D-4 .F.F ....|--- .... ....|D#3 .8.. ....
..16|..|G-4 ...C ....|--- .... ....|D#2 .E.. ....
...F|..|G-2 ..3E ....|--- .... ....|A#2 .E.. ....
..16|..|D-4 .F.C ....|--- .... ....|D#2 .E.. ....
..16|..|F-4 ..2F ....|--- .... ....|D#3 .8.. ....
..16|..|G-2 ..3. ....|--- .... ....|D#2 .E.. ....
....|..|D-4 .F.. ....|--- .... ....|D#2 .... ....
....|..|F-4 ..2C ....|--- .... ....|D#2 .... ....
..16|..|G-4 .F.F ....|--- .... ....|D#4 28.. ....
..16|..|D-4 ...C ....|--- .... ....|D#2 1E.. ....
..14|..|G-4 ...F ....|--- .... ....|A#1 .E.. ....
...F|..|G-4 ...C ....|--- .... ....|D#2 2E.. ....
..14|..|F-4 ...F ....|--- .... ....|A#1 1E.. ....
....|..|G-4 ...C ....|--- .... ....|A#1 .... ....

[Pattern20]
....|..|G-4 1F2F ....|G-4 9F6. ....|G-4 AF8F ....
....|..|G-2 ..3D ....|--- .... ....|--- .... ....
....|..|D-4 .F.F ....|--- .... ....|--- .... ....
....|..|G-4 ...C ....|--- .... ....|--- .... ....
....|..|G-2 ..3E ....|--- .... ....|--- .... ....
....|..|D-4 .F.C ....|--- .... ....|--- .... ....
....|..|F-4 ..2F ....|--- .... ....|--- .... ....
....|..|G-2 ..3. ....|--- .... ....|--- .... ....
....|..|D-4 .F.. ....|--- .... ....|G-4 .... ....
....|..|F-4 ..2C ....|--- .... ....|--- .... ....
....|..|G-4 .F.F ....|--- .... ....|--- .... ....
....|..|D-4 ...C ....|--- .... ....|--- .... ....
....|..|G-4 ...F ....|--- .... ....|--- .... ....
....|..|G-4 ...C ....|--- .... ....|--- .... ....
....|..|F-4 ...F ....|--- .... ....|--- .... ....
....|..|G-4 ...C ....|--- .... ....|--- .... ....
....|..|G-4 ..2F ....|--- .... ....|G-4 .... ....
....|..|G-2 ..3D ....|--- .... ....|--- .... ....
....|..|D-4 .F.F ....|--- .... ....|--- .... ....
....|..|G-4 ...C ....|--- .... ....|--- .... ....
....|..|G-2 ..3E ....|--- .... ....|G-4 .... ....
....|..|D-4 .F.C ....|--- .... ....|--- .... ....
....|..|F-4 ..2F ....|--- .... ....|--- .... ....
....|..|G-2 ..3. ....|--- .... ....|--- .... ....
....|..|D-4 .F.. ....|--- .... ....|G-4 .... ....
....|..|F-4 ..2C ....|--- .... ....|--- .... ....
....|..|G-4 .F.F ....|--- .... ....|--- .... ....
....|..|D-4 ...C ....|--- .... ....|--- .... ....
....|..|G-4 ...F ....|--- .... ....|G-4 .... ....
....|..|G-4 ...C ....|--- .... ....|--- .... ....
....|..|F-4 ...F ....|--- .... ....|--- .... ....
....|..|G-4 ...C ....|--- .... ....|--- .... ....

[Pattern21]
..23|..|G-4 1F1F ....|G-1 9E.F ....|G-4 AF8F ....
....|..|--- .... ....|--- .... ....|--- .... ....
....|..|--- .... ....|--- .... ....|--- .... ....
....|..|--- .... ....|--- .... ....|--- .... ....
....|..|G-4 A.89 ....|--- .... ....|--- .... ....
....|..|--- .... ....|--- .... ....|--- .... ....
....|..|--- .... ....|--- .... ....|--- .... ....
....|..|--- .... ....|--- .... ....|--- .... ....
....|..|--- .... ....|--- .F.. ....|--- .... ....
....|..|--- .... ....|--- .... ....|--- .... ....
....|..|--- .... ....|--- .... ....|--- .... ....
....|..|--- .... ....|--- .... ....|--- .... ....
....|..|--- .... ....|--- ...E ....|--- .... ....
....|..|--- .... ....|--- .... ....|--- .... ....
....|..|--- .... ....|--- .... ....|--- .... ....
....|..|--- .... ....|--- .... ....|--- .... ....
....|..|--- .... ....|--- ...D ....|--- .... ....
....|..|--- .... ....|--- .... ....|--- .... ....
....|..|--- .... ....|--- .... ....|--- .... ....
....|..|--- .... ....|--- .... ....|--- .... ....
....|..|--- .... ....|--- ...C ....|--- .... ....
....|..|--- .... ....|--- .... ....|--- .... ....
....|..|--- .... ....|--- .... ....|--- .... ....
....|..|--- .... ....|--- .... ....|--- .... ....
....|..|--- .... ....|--- ...B ....|--- .... ....
....|..|--- .... ....|--- .... ....|--- .... ....
....|..|--- .... ....|--- .... ....|--- .... ....
....|..|--- .... ....|--- .... ....|--- .... ....
....|..|--- .... ....|--- ...A ....|--- .... ....
....|..|--- .... ....|--- .... ....|--- .... ....
....|..|--- .... ....|--- .... ....|--- .... ....
....|..|--- .... ....|--- .... ....|--- .... ....
....|..|--- .... ....|--- ...9 B..8|--- .... ....
....|..|--- .... ....|--- .... ....|--- .... ....
....|..|--- .... ....|--- ...8 ....|--- .... ....
....|..|--- .... ....|--- .... ....|--- .... ....
....|..|--- .... ....|--- ...7 ....|--- .... ....
....|..|--- .... ....|--- .... ....|--- .... ....
....|..|--- .... ....|--- ...6 ....|--- .... ....
....|..|--- .... ....|--- .... ....|--- .... ....
....|..|--- .... ....|--- ...5 ....|--- .... ....
....|..|--- .... ....|--- .... ....|--- .... ....
....|..|--- .... ....|--- ...4 ....|--- .... ....
....|..|--- .... ....|--- .... ....|--- .... ....
....|..|--- .... ....|--- ...3 ....|--- .... ....
....|..|--- .... ....|--- .... ....|--- .... ....
....|..|--- .... ....|--- ...2 ....|--- .... ....
....|..|--- .... ....|--- .... ....|--- .... ....
....|..|--- .... ....|--- ...1 B..4|--- .... ....
....|..|--- .... ....|--- .... ....|--- .... ....
....|..|--- .... ....|--- .... ....|--- .... ....
....|..|--- .... ....|--- .... ....|--- .... ....
....|..|--- .... ....|R-- .... ....|--- .... ....
....|..|--- .... ....|--- .... ....|--- .... ....
....|..|--- .... ....|--- .... ....|--- .... ....
....|..|--- .... ....|--- .... ....|--- .... ....
....|..|--- .... ....|--- .... ....|--- .... ....
....|..|--- .... ....|--- .... ....|--- .... ....
....|..|--- .... ....|--- .... ....|--- .... ....
....|..|--- .... ....|--- .... ....|--- .... ....
....|..|--- .... ....|--- .... ....|--- .... ....
....|..|--- .... ....|--- .... ....|--- .... ....
....|..|--- .... ....|--- .... ....|--- .... ....
....|..|--- .... ....|--- .... ....|--- .... ....

