[Module]
VortexTrackerII=0
Version=3.7
Title=Climbing... Hi DiHalt FanZz! ;)
Author=MmcM^Sa9e 202501052305 YM ABC
NoteTable=2
Speed=3
PlayOrder=0,1,2,3,2,4,5,6,5,7,10,11,10,12,8,9,8,9,13,14,13,21,15,16,15,17,2,3,2,4,5,6,5,7,13,14,13,14,18,19,L20

[Ornament1]
19,L0

[Ornament2]
-1,L0

[Ornament3]
L0,3,7

[Ornament4]
L0,4,7

[Ornament5]
L0

[Ornament6]
19,12,L0

[Ornament7]
L-12,0,12,24,36

[Ornament8]
L0,0,3,3,7,7

[Ornament9]
L0,0,4,4,7,7

[Ornament10]
L0,-12,0

[Ornament11]
-2,-1,L0

[Ornament12]
L0

[Ornament13]
L0

[Ornament14]
L0

[Ornament15]
L0

[Sample1]
TNe +000_ +00_ F_
TnE +000_ +00_ 0_ L

[Sample2]
TNe +100_ +06_ F_
Tne +200_ +00_ F_
Tne +300_ +00_ E_
tnE +000_ +00_ 0_ L

[Sample3]
TNe +100_ +08_ F_
Tne +200_ +00_ F_
TNe +300_ +06_ E_
TNe +064^ +02^ C_ L
TNe +064^ +00_ C-

[Sample4]
Tne +000_ +00_ F_ L
Tne +000_ +00_ F_
Tne +000_ +00_ F-

[Sample5]
TNe +000_ +00_ F_
Tne +000_ +00_ E_ L

[Sample6]
Tne +000_ +00_ F_ L

[Sample7]
TNe +000_ +00_ F_
Tne +000_ +00_ F_ L
Tne +000_ +00_ F-

[Sample8]
TNe +100_ +08_ F_
TNe +000_ +00_ F_ L
Tne +000_ +00_ D_
TNe +000_ +00_ E_
TNe +000_ +00_ D-
TNe +000_ +00_ E_

[Sample9]
TNe +000_ +00_ F_
tNe +000_ +00_ F_
TnE +000_ +00_ 0_ L

[Sample10]
TNe +000_ +00_ F_ L

[Sample11]
tne +000_ +00_ 0_ L

[Sample12]
TNe +000_ +00_ F_
Tne +000_ +00_ F_
Tne +000_ +00_ E_
Tne +000_ +00_ D_
Tne +000_ +00_ D_ L
Tne -001_ +00_ D_
Tne -002_ +00_ D_
Tne -001_ +00_ D_
Tne +000_ +00_ D_
Tne +001_ +00_ D_
Tne +002_ +00_ D_
Tne +001_ +00_ D_

[Sample13]
TnE +000_ +00_ F_ L
TnE +000_ +00_ F_
TnE +000_ +00_ F_
tne +000_ +00_ 0_
tne +000_ +00_ 0_
tne +000_ +00_ 0_

[Sample14]
tne +000_ +00_ 0_ L

[Sample15]
tne +000_ +00_ 0_ L

[Sample16]
tne +000_ +00_ 0_ L

[Sample17]
tne +000_ +00_ 0_ L

[Sample18]
tne +000_ +00_ 0_ L

[Sample19]
tne +000_ +00_ 0_ L

[Sample20]
tne +000_ +00_ 0_ L

[Sample21]
tne +000_ +00_ 0_ L

[Sample22]
tne +000_ +00_ 0_ L

[Sample23]
tne +000_ +00_ 0_ L

[Sample24]
tne +000_ +00_ 0_ L

[Sample25]
tne +000_ +00_ 0_ L

[Sample26]
tne +000_ +00_ 0_ L

[Sample27]
tne +000_ +00_ 0_ L

[Sample28]
tne +000_ +00_ 0_ L

[Sample29]
tne +000_ +00_ 0_ L

[Sample30]
tne +000_ +00_ 0_ L

[Sample31]
tne +000_ +00_ 0_ L

[Pattern0]
..15|..|A-5 5FBF ....|A-1 1E.. ....|A-4 5F38 ....
....|..|--- .... ....|--- .... ....|--- .... ....
....|..|A-4 4F.A ....|--- .... ....|--- .... ....
....|..|--- .... ....|--- .... ....|--- .... ....
....|..|A-4 5..F ....|--- .... ....|--- .... ....
....|..|--- .... ....|--- .... ....|--- .... ....
....|..|A-5 4.BA ....|--- .... ....|--- .... ....
....|..|--- .... ....|--- .... ....|--- .... ....
....|..|A-5 5F.F ....|--- .... ....|--- ...9 ....
....|..|--- .... ....|--- .... ....|--- .... ....
....|..|A-4 4..A ....|--- .... ....|--- .... ....
....|..|--- .... ....|--- .... ....|--- .... ....
....|..|A-4 5..F ....|--- .... ....|--- .... ....
....|..|--- .... ....|--- .... ....|--- .... ....
....|..|A-5 4..A ....|--- .... ....|--- .... ....
....|..|--- .... ....|--- .... ....|--- .... ....
....|..|A-4 5.3. ....|--- .... ....|C-6 .F.F ....
....|..|--- .... ....|--- .... ....|--- .... ....
....|..|--- .... ....|--- .... ....|A-4 4..A ....
....|..|--- .... ....|--- .... ....|--- .... ....
....|..|--- .... ....|--- .... ....|A-4 5..F ....
....|..|--- .... ....|--- .... ....|--- .... ....
....|..|--- .... ....|--- .... ....|C-6 4..A ....
....|..|--- .... ....|--- .... ....|--- .... ....
....|..|--- .... ....|A-2 D... ....|B-5 5..F ....
....|..|--- .... ....|--- .... ....|--- .... ....
....|..|--- .... ....|--- .... ....|A-4 4..A ....
....|..|--- .... ....|--- .... ....|--- .... ....
....|..|--- .... ....|--- .... ....|A-4 5..F ....
....|..|--- .... ....|--- .... ....|--- .... ....
....|..|--- .... ....|--- .... ....|B-5 4..A ....
....|..|--- .... ....|--- .... ....|--- .... ....
..17|..|A-5 ..BF ....|G-1 1E.F ....|G-4 5.4. ....
....|..|--- .... ....|--- .... ....|--- .... ....
....|..|A-4 4F.A ....|--- .... ....|--- .... ....
....|..|--- .... ....|--- .... ....|--- .... ....
....|..|A-4 5..F ....|--- .... ....|--- .... ....
....|..|--- .... ....|--- .... ....|--- .... ....
....|..|A-5 4.BA ....|--- .... ....|--- .... ....
....|..|--- .... ....|--- .... ....|--- .... ....
....|..|A-5 5F.F ....|--- .... ....|--- .... ....
....|..|--- .... ....|--- .... ....|--- .... ....
....|..|A-4 4..A ....|--- .... ....|--- .... ....
....|..|--- .... ....|--- .... ....|--- .... ....
....|..|A-4 5..F ....|--- .... ....|--- .... ....
....|..|--- .... ....|--- .... ....|--- .... ....
....|..|A-5 4..A ....|--- .... ....|--- .... ....
....|..|--- .... ....|--- .... ....|--- .... ....
....|..|G-4 5.4. ....|--- .... ....|C-6 .F.F ....
....|..|--- .... ....|--- .... ....|--- .... ....
....|..|--- .... ....|--- .... ....|A-4 4..A ....
....|..|--- .... ....|--- .... ....|--- .... ....
....|..|--- .... ....|G-2 D... ....|A-4 5..F ....
....|..|--- .... ....|--- .... ....|--- .... ....
....|..|--- .... ....|--- .... ....|C-6 4..A ....
....|..|--- .... ....|--- .... ....|--- .... ....
....|..|--- .... ....|--- .... ....|B-5 5..F ....
....|..|--- .... ....|--- .... ....|--- .... ....
....|..|--- .... ....|--- .... ....|A-4 4..A ....
....|..|--- .... ....|--- .... ....|--- .... ....
....|..|--- .... ....|--- .... ....|A-4 5..F ....
....|..|--- .... ....|--- .... ....|--- .... ....
....|..|--- .... ....|--- .... ....|B-5 4..A ....
....|..|--- .... ....|--- .... ....|--- .... ....

[Pattern1]
..1A|..|A-5 5FBE ....|F-1 1E.. ....|F-4 5F4B ....
....|..|--- .... ....|--- .... ....|--- .... ....
....|..|A-4 4F.9 ....|--- .... ....|--- .... ....
....|..|--- .... ....|--- .... ....|--- .... ....
....|..|A-4 5..E ....|--- .... ....|--- .... ....
....|..|--- .... ....|--- .... ....|--- .... ....
....|..|A-5 4.B9 ....|--- .... ....|--- .... ....
....|..|--- .... ....|--- .... ....|--- .... ....
....|..|A-5 5F.E ....|--- .... ....|--- .... ....
....|..|--- .... ....|--- .... ....|--- .... ....
....|..|A-4 4..9 ....|--- .... ....|--- .... ....
....|..|--- .... ....|--- .... ....|--- .... ....
....|..|A-4 5..E ....|--- .... ....|--- .... ....
....|..|--- .... ....|--- .... ....|--- .... ....
....|..|A-5 4..9 ....|--- .... ....|--- .... ....
....|..|--- .... ....|--- .... ....|--- .... ....
....|..|F-4 5.4. ....|--- .... ....|C-6 .F.D ....
....|..|--- .... ....|--- .... ....|--- .... ....
....|..|--- .... ....|--- .... ....|A-4 4..8 ....
....|..|--- .... ....|--- .... ....|--- .... ....
....|..|--- .... ....|--- .... ....|A-4 5..D ....
....|..|--- .... ....|--- .... ....|--- .... ....
....|..|--- .... ....|--- .... ....|C-6 4..8 ....
....|..|--- .... ....|--- .... ....|--- .... ....
....|..|--- .... ....|F-2 D... ....|B-5 5..D ....
....|..|--- .... ....|--- .... ....|--- .... ....
....|..|--- .... ....|--- .... ....|A-4 4..8 ....
....|..|--- .... ....|--- .... ....|--- .... ....
....|..|--- .... ....|--- .... ....|A-4 5..D ....
....|..|--- .... ....|--- .... ....|--- .... ....
....|..|--- .... ....|--- .... ....|B-5 4..8 ....
....|..|--- .... ....|--- .... ....|--- .... ....
..17|..|A-5 ..BC ....|G-1 1E.F ....|G-4 5.4. ....
....|..|--- .... ....|--- .... ....|--- .... ....
....|..|A-4 4F.7 ....|--- .... ....|--- .... ....
....|..|--- .... ....|--- .... ....|--- .... ....
....|..|A-4 5..C ....|--- .... ....|--- .... ....
....|..|--- .... ....|--- .... ....|--- .... ....
....|..|A-5 4.B7 ....|--- .... ....|--- .... ....
....|..|--- .... ....|--- .... ....|--- .... ....
....|..|A-5 5F.C ....|--- .... ....|--- .... ....
....|..|--- .... ....|--- .... ....|--- .... ....
....|..|A-4 4..7 ....|--- .... ....|--- .... ....
....|..|--- .... ....|--- .... ....|--- .... ....
....|..|A-4 5..C ....|--- .... ....|--- .... ....
....|..|--- .... ....|--- .... ....|--- .... ....
....|..|A-5 4..7 ....|--- .... ....|--- .... ....
....|..|--- .... ....|--- .... ....|--- .... ....
....|..|G-4 5.4. ....|G-2 D... ....|C-6 .F.B ....
....|..|--- .... ....|--- .... ....|--- .... ....
....|..|--- .... ....|--- .... ....|A-4 4..6 ....
....|..|--- .... ....|--- .... ....|--- .... ....
....|..|--- .... ....|--- .... ....|A-4 5..B ....
....|..|--- .... ....|--- .... ....|--- .... ....
....|..|--- .... 11.1|--- .... ....|C-6 4..6 ....
....|..|--- .... ....|--- .... ....|--- .... ....
....|.8|--- .... ....|G-4 3... ....|B-5 5..B ....
....|..|--- .... ....|--- .... ....|--- .... ....
....|.8|--- .... ....|--- .... ....|A-4 4..6 ....
....|..|--- .... ....|--- .... ....|--- .... ....
....|.8|--- .... ....|G-4 .... ....|B-5 .... ....
....|..|--- .... ....|--- .... ....|--- .... ....
....|.8|--- .... ....|G-4 .... ....|A-4 ...7 ....
....|.8|--- .... ....|--- .... ....|--- .... ....

[Pattern2]
..3E|.6|A-5 7F.F ....|A-4 2E.F ....|A-4 8F7F ....
....|..|A-4 6.39 ....|--- .... ....|--- .... ....
..3E|..|A-4 7F.C ....|A-2 1C.C ....|--- .... ....
....|..|A-4 6.3A ....|--- .... ....|--- .... ....
..15|..|A-4 7F.F ....|A-2 .E.F ....|--- .... ....
....|..|A-4 6.39 ....|--- .... ....|--- .... ....
..3E|..|A-5 7F.C ....|A-2 .C.C ....|--- .... ....
....|..|A-4 6.3A ....|--- .... ....|--- .... ....
..15|.8|A-5 7F.F ....|A-4 3E.F ....|A-5 ...A ....
....|..|A-4 6.39 ....|--- .... ....|--- .... ....
..3E|..|A-4 7F.C ....|A-2 1C.C ....|--- .... ....
....|..|A-4 6.3A ....|--- .... ....|--- .... ....
..15|..|A-4 7F.F ....|A-3 .C.F ....|E-4 4F.F ....
....|..|A-4 6.39 ....|--- .... ....|--- .... ....
..3E|..|A-5 7F.C ....|A-2 .C.C ....|--- .... ....
....|..|A-4 6.3A ....|--- .... ....|--- .... ....
..3E|.6|C-6 7F.F ....|A-4 2E.F ....|C-6 C..E ....
....|..|A-4 6.39 ....|--- .... ....|--- .... ....
..3E|..|A-4 7F.C ....|A-2 1C.C ....|--- .... ....
....|..|A-4 6.3A ....|--- .... ....|--- .... ....
..15|..|A-4 7F.F ....|A-2 .E.F ....|E-4 ...C ....
....|..|A-4 6.39 ....|--- .... ....|--- .... ....
..3E|..|C-6 7F.C ....|A-2 .C.C ....|C-6 .... ....
....|..|A-4 6.3A ....|--- .... ....|--- .... ....
..15|.8|B-5 7F.F ....|A-4 3E.F ....|C-6 ...F ....
....|..|A-4 6.39 ....|--- .... ....|--- .... ....
..3E|..|A-4 7F.C ....|A-2 1C.C ....|--- .... ....
....|..|A-4 6.3A ....|--- .... ....|--- .... ....
..15|..|A-4 7F.F ....|A-2 .C.F ....|B-5 .... ....
....|..|A-4 6.39 ....|--- .... ....|--- .... ....
..3E|..|B-5 7F.C ....|A-2 .C.C ....|--- .... ....
....|..|A-4 6.3A ....|--- .... ....|--- .... ....
..46|.6|A-5 7F.F ....|G-4 2E.F ....|C-6 ...C ....
....|..|G-4 6.49 ....|--- .... ....|--- .... ....
..46|..|A-4 7F.C ....|G-2 1C.C ....|B-5 .... ....
....|..|G-4 6.4A ....|--- .... ....|--- .... ....
..17|..|A-4 7F.F ....|G-2 .C.F ....|C-6 ...A ....
....|..|G-4 6.49 ....|--- .... ....|--- .... ....
..46|..|A-5 7F.C ....|G-2 .C.C ....|B-5 .... ....
....|..|G-4 6.4A ....|--- .... ....|--- .... ....
..17|.8|A-5 7F.F ....|G-4 3E.F ....|C-6 ...F ....
....|..|G-4 6.49 ....|--- .... ....|--- .... ....
..46|..|A-4 7F.C ....|G-2 1C.C ....|--- .... ....
....|..|G-4 6.4A ....|--- .... ....|--- .... ....
..17|..|A-4 7F.F ....|G-3 .C.F ....|B-5 .... ....
....|..|G-4 6.49 ....|--- .... ....|--- .... ....
..46|..|A-5 7F.C ....|G-2 .C.C ....|--- .... ....
....|..|G-4 6.4A ....|--- .... ....|--- .... ....
..46|.6|C-6 7F.F ....|G-4 2E.F ....|C-6 ...C ....
....|..|G-4 6.49 ....|--- .... ....|--- .... ....
..46|..|A-4 7F.C ....|G-2 1C.C ....|B-5 .... ....
....|..|G-4 6.4A ....|--- .... ....|--- .... ....
..17|..|A-4 7F.F ....|G-2 .E.F ....|G-4 ...F ....
....|..|G-4 6.49 ....|--- .... ....|--- .... ....
..46|..|C-6 7F.C ....|G-2 .C.C ....|--- .... ....
....|..|G-4 6.4A ....|--- .... ....|--- .... ....
..17|.8|B-5 7F.F ....|G-4 3E.F ....|B-5 ...C ....
....|..|G-4 6.49 ....|--- .... ....|--- .... ....
..46|..|A-4 7F.C ....|G-2 1C.C ....|G-4 .... ....
....|..|G-4 6.4A ....|--- .... ....|--- .... ....
..17|.8|A-4 7F.F ....|G-4 3E.F ....|A-5 ...E ....
....|..|G-4 6.49 ....|--- .... ....|--- .... ....
..46|.8|B-5 7F.C ....|G-4 .C.. ....|--- .... ....
....|..|G-4 6.4A ....|--- .... ....|--- .... ....

[Pattern3]
..1A|.6|A-5 7F.F ....|F-4 2E.F ....|A-5 8F7F ....
....|..|F-4 6.49 ....|--- .... ....|--- .... ....
..4E|..|A-4 7F.C ....|F-2 1C.C ....|--- .... ....
....|..|F-4 6.4A ....|--- .... ....|--- .... ....
..1A|..|A-4 7F.F ....|F-4 .C.F ....|--- .... ....
....|..|F-4 6.49 ....|--- .... ....|--- .... ....
..4E|..|A-5 7F.C ....|F-2 .C.C ....|--- .... ....
....|..|F-4 6.4A ....|--- .... ....|--- .... ....
..1A|.8|A-5 7F.F ....|F-4 3E.F ....|--- .... ....
....|..|F-4 6.49 ....|--- .... ....|--- .... ....
..4E|..|A-4 7F.C ....|F-2 1C.C ....|--- .... ....
....|..|F-4 6.4A ....|--- .... ....|--- .... ....
..1A|..|A-4 7F.F ....|F-3 .C.F ....|E-4 4F.. ....
....|..|F-4 6.49 ....|--- .... ....|--- .... ....
..4E|..|A-5 7F.C ....|F-2 .C.C ....|--- .... ....
....|..|F-4 6.4A ....|--- .... ....|--- .... ....
..1A|.6|C-6 7F.F ....|F-4 2E.F ....|C-6 ..6. 311C
....|..|F-4 6.49 ....|--- .... ....|--- .... ....
..4E|..|A-4 7F.C ....|F-2 1C.C ....|--- .... ....
....|..|F-4 6.4A ....|--- .... ....|--- .... ....
..1A|..|A-4 7F.F ....|F-3 .C.F ....|E-4 ...C ....
....|..|F-4 6.49 ....|--- .... ....|--- .... ....
..4E|..|C-6 7F.C ....|F-2 .C.C ....|C-6 .... ....
....|..|F-4 6.4A ....|--- .... ....|--- .... ....
..1A|.8|B-5 7F.F ....|F-4 3E.F ....|D-6 ...F ....
....|..|F-4 6.49 ....|--- .... ....|--- .... ....
..4E|..|A-4 7F.C ....|F-2 1C.C ....|--- .... ....
....|..|F-4 6.4A ....|--- .... ....|--- .... ....
..1A|..|A-4 7F.F ....|F-3 .E.F ....|C-6 .... ....
....|..|F-4 6.49 ....|--- .... ....|--- .... ....
..4E|..|B-5 7F.C ....|F-2 .C.C ....|--- .... ....
....|..|F-4 6.4A ....|--- .... ....|--- .... ....
..17|.6|A-5 7F.F ....|G-4 2E.F ....|D-6 ...C ....
....|..|G-4 6.49 ....|--- .... ....|--- .... ....
..46|..|A-4 7F.C ....|G-2 1C.C ....|C-6 .... ....
....|..|G-4 6.4A ....|--- .... ....|--- .... ....
..17|..|A-4 7F.F ....|G-3 .C.F ....|D-6 ...A ....
....|..|G-4 6.49 ....|--- .... ....|--- .... ....
..46|..|A-5 7F.C ....|G-2 .C.C ....|C-6 .... ....
....|..|G-4 6.4A ....|--- .... ....|--- .... ....
..17|.8|A-5 7F.F ....|G-4 3E.F ....|B-5 ...F ....
....|..|G-4 6.49 ....|--- .... ....|--- .... ....
..46|..|A-4 7F.C ....|G-2 1C.C ....|--- .... ....
....|..|G-4 6.4A ....|--- .... ....|--- .... ....
..17|..|A-4 7F.F ....|G-3 .E.F ....|A-5 .... ....
....|..|G-4 6.49 ....|--- .... ....|--- .... ....
..46|..|A-5 7F.C ....|G-2 .C.C ....|--- .... ....
....|..|G-4 6.4A ....|--- .... ....|--- .... ....
..17|.6|C-6 7F.F ....|G-4 2E.F ....|B-5 ...C ....
....|..|G-4 6.49 ....|--- .... ....|--- .... ....
..46|..|A-4 7F.C ....|G-2 1C.C ....|A-5 .... ....
....|..|G-4 6.4A ....|--- .... ....|--- .... ....
..17|..|A-4 7F.F ....|G-1 .E.F ....|G-4 ...F ....
....|..|G-4 6.49 ....|--- .... ....|--- .... ....
..46|..|C-6 7F.C ....|G-3 .C.C ....|--- .... ....
....|..|G-4 6.4A ....|--- .... ....|--- .... ....
..17|.8|B-5 7F.F ....|G-4 3E.F ....|B-5 ...C ....
....|..|G-4 6.49 ....|--- .... ....|--- .... ....
..46|..|A-4 7F.C ....|G-2 1C.C ....|G-4 .... ....
....|..|G-4 6.4A ....|--- .... ....|--- .... ....
..17|.8|A-4 7F.F ....|G-4 3E.F ....|A-5 ...F ....
....|..|G-4 6.49 ....|--- .... ....|--- .... ....
..46|.8|B-5 7F.C ....|G-4 .C.. ....|--- .... ....
....|..|G-4 6.4A ....|--- .... ....|--- .... ....

[Pattern4]
..4E|.6|A-5 7F.F ....|F-4 2E.F ....|A-5 8F7F ....
....|..|A-4 6.39 ....|--- .... ....|--- .... ....
..4E|..|A-4 7F.C ....|F-2 1C.C ....|--- .... ....
....|..|A-4 6.3A ....|--- .... ....|--- .... ....
..1A|..|A-4 7F.F ....|F-3 .E.F ....|--- .... ....
....|..|A-4 6.39 ....|--- .... ....|--- .... ....
..4E|..|A-5 7F.C ....|F-2 .C.C ....|--- .... ....
....|..|A-4 6.3A ....|--- .... ....|--- .... ....
..1A|.8|A-5 7F.F ....|F-4 3E.F ....|--- .... ....
....|..|A-4 6.39 ....|--- .... ....|--- .... ....
..4E|..|A-4 7F.C ....|F-2 1C.C ....|--- .... ....
....|..|A-4 6.3A ....|--- .... ....|--- .... ....
..1A|..|A-4 7F.F ....|F-2 .E.F ....|E-4 4F.. ....
....|..|A-4 6.39 ....|--- .... ....|--- .... ....
..4E|..|A-5 7F.C ....|F-2 .C.C ....|--- .... ....
....|..|A-4 6.3A ....|--- .... ....|--- .... ....
..4E|.6|C-6 7F.F ....|F-4 2E.F ....|C-6 C.6. 311C
....|..|A-4 6.39 ....|--- .... ....|--- .... ....
..4E|..|A-4 7F.C ....|F-2 1C.C ....|--- .... ....
....|..|A-4 6.3A ....|--- .... ....|--- .... ....
..1A|..|A-4 7F.F ....|F-2 .E.F ....|E-4 ...A ....
....|..|A-4 6.39 ....|--- .... ....|--- .... ....
..4E|..|C-6 7F.C ....|F-2 .C.C ....|C-6 .... ....
....|..|A-4 6.3A ....|--- .... ....|--- .... ....
..1A|.8|B-5 7F.F ....|F-4 3E.F ....|D-6 ...F ....
....|..|A-4 6.39 ....|--- .... ....|--- .... ....
..4E|..|A-4 7F.C ....|F-2 1C.C ....|--- .... ....
....|..|A-4 6.3A ....|--- .... ....|--- .... ....
..1A|..|A-4 7F.F ....|F-1 .E.F ....|C-6 .... ....
....|..|A-4 6.39 ....|--- .... ....|--- .... ....
..4E|..|B-5 7F.C ....|F-2 .C.C ....|--- .... ....
....|..|A-4 6.3A ....|--- .... ....|--- .... ....
..46|.6|A-5 7F.F ....|G-4 2E.F ....|D-6 ...C ....
....|..|G-4 6.49 ....|--- .... ....|--- .... ....
..46|..|A-4 7F.C ....|G-2 1C.C ....|C-6 .... ....
....|..|G-4 6.4A ....|--- .... ....|--- .... ....
..17|..|A-4 7F.F ....|G-2 .E.F ....|D-6 ...A ....
....|..|G-4 6.49 ....|--- .... ....|--- .... ....
..46|..|A-5 7F.C ....|G-2 .C.C ....|C-6 .... ....
....|..|G-4 6.4A ....|--- .... ....|--- .... ....
..17|.8|A-5 7F.F ....|G-4 3E.F ....|D-6 ...F ....
....|..|G-4 6.49 ....|--- .... ....|--- .... ....
..46|..|A-4 7F.C ....|G-2 1C.C ....|--- .... ....
....|..|G-4 6.4A ....|--- .... ....|--- .... ....
..17|..|A-4 7F.F ....|G-2 .E.F ....|B-5 .... 31.3
....|..|G-4 6.49 ....|--- .... ....|--- .... ....
..46|..|A-5 7F.C ....|G-2 .C.C ....|--- .... ....
....|..|G-4 6.4A ....|--- .... ....|--- .... ....
..46|.6|C-6 7F.F ....|G-4 2E.F ....|D-6 ...C ....
....|..|G-4 6.49 ....|--- .... ....|--- .... ....
..46|..|A-4 7F.C ....|G-2 1C.C ....|B-5 .... ....
....|..|G-4 6.4A ....|--- .... ....|--- .... ....
..17|..|A-4 7F.F ....|G-1 9E.F ....|--- .... ....
....|..|G-4 6.49 ....|--- .... ....|--- .... ....
..46|..|C-6 7F.C ....|G-4 3C.. ....|D-6 ...A ....
....|..|G-4 6.4A ....|--- .... ....|--- .... ....
..17|.8|B-5 7F.F ....|G-4 2E.. ....|B-5 .... ....
....|..|G-4 6.49 ....|--- .... ....|--- .... ....
....|..|A-4 7F.C ....|--- .... ....|--- .... ....
....|..|G-4 6.4A ....|--- .... ....|--- .... ....
....|.8|A-4 7F.F ....|--- .... 91.3|E-4 5.2C ....
....|..|G-4 6.49 ....|--- .... ....|G-4 ...D ....
....|.8|B-5 7F.C ....|--- .... ....|A-4 ...E ....
....|..|G-4 6.4A ....|--- .... ....|D-5 ...F ....

[Pattern5]
..3E|.8|A-4 AF.F ....|A-4 2E.F ....|E-5 5F2F ....
....|.2|A-4 ..3. ....|--- .... ....|--- .... ....
..3E|.1|A-3 .F.D ....|A-2 1C.C ....|E-4 ...B ....
....|..|A-4 ..3A ....|--- .... ....|--- .... ....
..15|..|A-3 7F.F ....|A-1 9E.F ....|D-5 ...F ....
....|..|A-4 6.39 ....|--- .... ....|--- .... ....
..3E|..|A-4 7F.C ....|A-2 1C.C ....|E-5 ...B ....
....|..|A-4 6.3A ....|--- .... ....|--- .... ....
..15|.8|A-4 7F.F ....|A-4 3E.F ....|A-4 ...F ....
....|..|A-4 6.39 ....|--- .... ....|--- .... ....
..3E|..|A-3 7F.C ....|A-2 1C.C ....|D-5 ...B ....
....|..|A-4 6.3A ....|--- .... ....|--- .... ....
..15|..|A-3 7F.F ....|A-1 9E.F ....|E-5 ...F ....
....|..|A-4 6.39 ....|--- .... ....|--- .... ....
..3E|..|A-4 7F.C ....|A-2 1C.C ....|A-4 ...B ....
....|..|A-4 6.3A ....|--- .... ....|--- .... ....
..3E|.6|C-5 7F.F ....|A-4 2E.F ....|D-5 ...F 311C
....|..|A-4 6.39 ....|--- .... ....|--- .... ....
..3E|..|A-3 7F.C ....|A-2 1C.C ....|E-5 ...B ....
....|..|A-4 6.3A ....|--- .... ....|--- .... ....
..15|..|A-3 7F.F ....|A-1 9E.F ....|A-4 ...F ....
....|..|A-4 6.39 ....|--- .... ....|--- .... ....
..3E|..|C-5 7F.C ....|A-2 1C.C ....|D-5 ...B ....
....|..|A-4 6.3A ....|--- .... ....|--- .... ....
..15|.8|B-4 7F.F ....|A-4 3E.F ....|E-5 ...F ....
....|..|A-4 6.39 ....|--- .... ....|--- .... ....
..3E|..|A-3 7F.C ....|A-2 1C.C ....|A-4 ...B ....
....|..|A-4 6.3A ....|--- .... ....|--- .... ....
..15|..|A-3 7F.F ....|A-1 9E.F ....|D-5 ...F ....
....|..|A-4 6.39 ....|--- .... ....|--- .... ....
..3E|..|B-4 7F.C ....|A-2 1C.C ....|E-5 ...B ....
....|..|A-4 6.3A ....|--- .... ....|--- .... ....
..46|.6|A-4 7F.F ....|G-4 2E.F ....|G-5 ...F ....
....|..|G-4 6.49 ....|--- .... ....|--- .... ....
..46|..|A-3 7F.C ....|G-2 1C.C ....|D-5 ...B ....
....|..|G-4 6.4A ....|--- .... ....|--- .... ....
..17|..|A-3 7F.F ....|G-1 9E.F ....|E-5 ...F ....
....|..|G-4 6.49 ....|--- .... ....|--- .... ....
..46|..|A-4 7F.C ....|G-2 1C.C ....|G-5 ...B ....
....|..|G-4 6.4A ....|--- .... ....|--- .... ....
..17|.8|A-4 7F.F ....|G-4 3E.F ....|A-4 ...F ....
....|..|G-4 6.49 ....|--- .... ....|--- .... ....
..46|..|A-3 7F.C ....|G-2 1C.C ....|E-5 ...B ....
....|..|G-4 6.4A ....|--- .... ....|--- .... ....
..17|..|A-3 7F.F ....|G-1 9E.F ....|G-5 ...F ....
....|..|G-4 6.49 ....|--- .... ....|--- .... ....
..46|..|A-4 7F.C ....|G-2 1C.C ....|A-4 ...B ....
....|..|G-4 6.4A ....|--- .... ....|--- .... ....
..46|.6|C-5 7F.F ....|G-4 2E.F ....|E-5 ...F 311C
....|..|G-4 6.49 ....|--- .... ....|--- .... ....
..46|..|A-3 7F.C ....|G-2 1C.C ....|G-5 ...B ....
....|..|G-4 6.4A ....|--- .... ....|--- .... ....
..17|..|A-3 7F.F ....|G-1 9E.F ....|A-4 ...F ....
....|..|G-4 6.49 ....|--- .... ....|--- .... ....
..46|..|C-5 7F.C ....|G-2 1C.C ....|E-5 ...B ....
....|..|G-4 6.4A ....|--- .... ....|--- .... ....
..17|.8|B-4 7F.F ....|G-4 3E.F ....|G-5 ...F ....
....|..|G-4 6.49 ....|--- .... ....|--- .... ....
..46|..|A-3 7F.C ....|G-2 1C.C ....|A-4 ...B ....
....|..|G-4 6.4A ....|--- .... ....|--- .... ....
..17|.8|A-3 7F.F ....|G-4 3E.F ....|E-5 ...F ....
....|..|G-4 6.49 ....|--- .... ....|--- .... ....
..46|.8|B-4 7F.C ....|G-4 .C.. ....|G-5 ...B ....
....|..|G-4 6.4A ....|--- .... ....|--- .... ....

[Pattern6]
..4E|.6|A-4 7F.F ....|F-4 2E.F ....|F-5 ...F ....
....|..|F-4 6.49 ....|--- .... ....|--- .... ....
..4E|..|A-3 7F.C ....|F-2 1C.C ....|F-4 ...B ....
....|..|F-4 6.49 ....|--- .... ....|--- .... ....
..1A|..|A-3 7F.F ....|F-3 9C.F ....|E-5 ...F ....
....|..|F-4 6.49 ....|--- .... ....|--- .... ....
..4E|..|A-4 7F.C ....|F-2 1C.C ....|F-5 ...B ....
....|..|F-4 6.49 ....|--- .... ....|--- .... ....
..1A|.8|A-4 7F.F ....|F-4 3E.F ....|A-4 ...F ....
....|..|F-4 6.49 ....|--- .... ....|--- .... ....
..4E|..|A-3 7F.C ....|F-2 1C.C ....|E-5 ...B ....
....|..|F-4 6.49 ....|--- .... ....|--- .... ....
..1A|..|A-3 7F.F ....|F-3 9E.F ....|F-5 ...F ....
....|..|F-4 6.49 ....|--- .... ....|--- .... ....
..4E|..|A-4 7F.C ....|F-2 1C.C ....|A-4 ...B ....
....|..|F-4 6.49 ....|--- .... ....|--- .... ....
..4E|.6|C-5 7F.F ....|F-4 2E.F ....|E-5 ...F ....
....|..|F-4 6.49 ....|--- .... ....|--- .... ....
..4E|..|A-3 7F.C ....|F-2 1C.C ....|F-5 ...B ....
....|..|F-4 6.49 ....|--- .... ....|--- .... ....
..1A|..|A-3 7F.F ....|F-2 9C.F ....|A-4 ...F ....
....|..|F-4 6.49 ....|--- .... ....|--- .... ....
..4E|..|C-5 7F.C ....|F-2 1C.C ....|E-5 ...B ....
....|..|F-4 6.49 ....|--- .... ....|--- .... ....
..1A|.8|B-4 7F.F ....|F-4 3E.F ....|F-5 ...F ....
....|..|F-4 6.49 ....|--- .... ....|--- .... ....
..4E|..|A-3 7F.C ....|F-2 1C.C ....|A-4 ...B ....
....|..|F-4 6.49 ....|--- .... ....|--- .... ....
..1A|..|A-3 7F.F ....|F-3 9E.F ....|E-5 ...F ....
....|..|F-4 6.49 ....|--- .... ....|--- .... ....
..4E|..|B-4 7F.C ....|F-2 1C.C ....|F-5 ...B ....
....|..|F-4 6.49 ....|--- .... ....|--- .... ....
..46|.6|A-4 7F.F ....|G-4 2E.F ....|G-5 ...F ....
....|..|G-4 6.49 ....|--- .... ....|--- .... ....
..46|..|A-3 7F.C ....|G-2 1C.C ....|E-5 ...B ....
....|..|G-4 6.49 ....|--- .... ....|--- .... ....
..17|..|A-3 7F.F ....|G-2 9E.F ....|E-5 ...F ....
....|..|G-4 6.49 ....|--- .... ....|--- .... ....
..46|..|A-4 7F.C ....|G-2 1C.C ....|G-5 ...B ....
....|..|G-4 6.4A ....|--- .... ....|--- .... ....
..17|.8|A-4 7F.F ....|G-4 3E.F ....|B-4 ...F ....
....|..|G-4 6.49 ....|--- .... ....|--- .... ....
..46|..|A-3 7F.C ....|G-2 1C.C ....|E-5 ...B ....
....|..|G-4 6.4A ....|--- .... ....|--- .... ....
..17|..|A-3 7F.F ....|G-1 9E.F ....|G-5 ...F ....
....|..|G-4 6.49 ....|--- .... ....|--- .... ....
..46|..|A-4 7F.C ....|G-2 1C.C ....|B-4 ...B ....
....|..|G-4 6.4A ....|--- .... ....|--- .... ....
..46|.6|C-5 7F.F ....|G-4 2E.F ....|E-5 ...F ....
....|..|G-4 6.49 ....|--- .... ....|--- .... ....
..46|..|A-3 7F.C ....|G-2 1C.C ....|G-5 ...B ....
....|..|G-4 6.4A ....|--- .... ....|--- .... ....
..17|..|A-3 7F.F ....|G-1 9E.F ....|B-4 ...F ....
....|..|G-4 6.49 ....|--- .... ....|--- .... ....
..46|.6|C-5 7F.C ....|G-4 3C.. ....|E-5 ...B ....
....|..|G-4 6.4A ....|--- .... ....|--- .... ....
..17|.8|B-4 7F.F ....|G-4 .E.. ....|G-5 ...F ....
....|..|G-4 6.49 ....|--- .... ....|--- .... ....
..46|..|A-3 7F.C ....|G-2 1C.C ....|B-4 ...B ....
....|..|G-4 6.4A ....|--- .... ....|--- .... ....
..17|.8|A-3 7F.F ....|G-4 3E.F ....|E-4 ...C ....
....|..|G-4 6.49 ....|--- .... ....|G-4 ...D ....
..46|.8|B-4 7F.C ....|G-4 .C.. ....|A-4 ...E ....
....|..|G-4 6.4A ....|--- .... ....|D-5 ...F ....

[Pattern7]
..4E|.6|A-4 7F.F ....|F-4 2E.F ....|F-5 ...F ....
....|..|F-4 6.49 ....|--- .... ....|--- .... ....
..4E|..|A-3 7F.C ....|F-2 1C.C ....|F-4 ...B ....
....|..|F-4 6.49 ....|--- .... ....|--- .... ....
..1A|..|A-3 7F.F ....|F-1 9E.F ....|E-5 ...F ....
....|..|F-4 6.49 ....|--- .... ....|--- .... ....
..4E|..|A-4 7F.C ....|F-2 1C.C ....|F-5 ...B ....
....|..|F-4 6.49 ....|--- .... ....|--- .... ....
..1A|.8|A-4 7F.F ....|F-4 3E.F ....|A-4 ...F ....
....|..|F-4 6.49 ....|--- .... ....|--- .... ....
..4E|..|A-3 7F.C ....|F-2 1C.C ....|E-5 ...B ....
....|..|F-4 6.49 ....|--- .... ....|--- .... ....
..1A|..|A-3 7F.F ....|F-1 9E.F ....|F-5 ...F ....
....|..|F-4 6.49 ....|--- .... ....|--- .... ....
..4E|..|A-4 7F.C ....|F-2 1C.C ....|A-4 ...B ....
....|..|F-4 6.49 ....|--- .... ....|--- .... ....
..4E|.6|C-5 7F.F ....|F-4 2E.F ....|E-5 ...F ....
....|..|F-4 6.49 ....|--- .... ....|--- .... ....
..4E|..|A-3 7F.C ....|F-2 1C.C ....|F-5 ...B ....
....|..|F-4 6.49 ....|--- .... ....|--- .... ....
..1A|..|A-3 7F.F ....|F-1 9E.F ....|A-4 ...F ....
....|..|F-4 6.49 ....|--- .... ....|--- .... ....
..4E|..|C-5 7F.C ....|F-2 1C.C ....|E-5 ...B ....
....|..|F-4 6.49 ....|--- .... ....|--- .... ....
..1A|.8|B-4 7F.F ....|F-4 3E.F ....|F-5 ...F ....
....|..|F-4 6.49 ....|--- .... ....|--- .... ....
..4E|..|A-3 7F.C ....|F-2 1C.C ....|A-4 ...B ....
....|..|F-4 6.49 ....|--- .... ....|--- .... ....
..1A|..|A-3 7F.F ....|F-1 9E.F ....|E-5 ...F ....
....|..|F-4 6.49 ....|--- .... ....|--- .... ....
..4E|..|B-4 7F.C ....|F-2 1C.C ....|F-5 ...B ....
....|..|F-4 6.49 ....|--- .... ....|--- .... ....
..46|.6|A-4 7F.F ....|G-4 2E.F ....|G-5 ...F ....
....|..|G-4 6.49 ....|--- .... ....|--- .... ....
..46|..|A-3 7F.C ....|G-2 1C.C ....|E-5 ...B ....
....|..|G-4 6.49 ....|--- .... ....|--- .... ....
..17|..|A-3 7F.F ....|G-1 9E.F ....|E-5 ...F ....
....|..|G-4 6.49 ....|--- .... ....|--- .... ....
..46|..|A-4 7F.C ....|G-2 1C.C ....|G-5 ...B ....
....|..|G-4 6.4A ....|--- .... ....|--- .... ....
..17|.8|A-4 7F.F ....|G-4 3E.F ....|B-4 ...F ....
....|..|G-4 6.49 ....|--- .... ....|--- .... ....
..46|..|A-3 7F.C ....|G-2 1C.C ....|E-5 ...B ....
....|..|G-4 6.4A ....|--- .... ....|--- .... ....
..17|..|A-3 7F.F ....|G-1 9E.F ....|G-5 ...F ....
....|..|G-4 6.49 ....|--- .... ....|--- .... ....
..46|..|A-4 7F.C ....|G-2 1C.C ....|B-4 ...B ....
....|..|G-4 6.4A ....|--- .... ....|--- .... ....
..46|.6|C-5 7F.F ....|G-4 2E.F ....|E-5 ...F 311C
....|..|G-4 6.49 ....|--- .... ....|--- .... ....
..46|..|A-3 7F.C ....|G-2 1C.C ....|--- .... ....
....|..|G-4 6.4A ....|--- .... ....|--- .... ....
..17|..|A-3 7F.F ....|G-1 9E.F ....|G-5 ...C ....
....|..|G-4 6.49 ....|--- .... ....|--- .... ....
..46|.6|C-5 7F.C ....|G-4 3C.. ....|E-5 .... ....
....|..|G-4 6.4A ....|--- .... ....|--- .... ....
..2F|.8|B-4 7F.F ....|D-3 2C.. ....|--- .... ....
....|..|G-4 6.49 ....|--- .... ....|--- .... ....
....|..|A-3 7F.C ....|--- .... ....|G-5 ...A ....
....|..|--- .... ....|--- .... ....|--- .... ....
....|.8|--- .... ....|--- .... 91.3|E-5 .... ....
....|..|--- .... ....|--- .... ....|--- .... ....
....|.8|--- .... ....|--- .... ....|--- .... ....
....|..|--- .... ....|--- .... ....|--- .... ....

[Pattern8]
..3E|.8|A-5 AFBF ....|A-4 2E.F ....|A-5 8F7D ....
....|..|--- .... ....|--- .... ....|--- .... ....
....|..|A-4 ...A ....|--- .... ....|--- .... ....
....|..|--- .... ....|--- .... ....|--- .... ....
..15|.1|A-4 ..6F ....|A-1 DE.. ....|A-4 A.36 ....
....|.1|--- .... ....|--- .... ....|--- ...7 ....
....|.1|A-5 .F.A ....|--- .... ....|--- ...8 ....
....|.1|--- .... ....|--- .... ....|--- ...9 ....
....|.2|A-5 5..F ....|--- .... ....|--- ...A ....
....|.2|--- .... ....|--- .... ....|--- ...B ....
....|.2|A-4 4.6A ....|--- .... ....|--- .... ....
....|.2|--- .... ....|--- .... ....|--- .... ....
....|.3|A-4 5F.F ....|A-1 1... ....|--- ...6 ....
....|.3|--- .... ....|--- .... ....|--- ...7 ....
....|.3|A-5 4..A ....|--- .... ....|--- ...8 ....
....|.3|--- .... ....|--- .... ....|--- ...9 ....
....|.4|C-6 5..F 31.C|A-1 D... ....|--- ...A ....
....|.4|--- .... ....|--- .... ....|--- ...B ....
....|.4|A-4 4..A ....|--- .... ....|--- .... ....
....|.4|--- .... ....|--- .... ....|--- .... ....
....|.5|A-4 5..F ....|A-1 .... ....|--- ...6 ....
....|.5|--- .... ....|--- .... ....|--- ...7 ....
....|.5|C-6 4..A 31.C|--- .... ....|--- ...8 ....
....|.5|--- .... ....|--- .... ....|--- ...9 ....
....|.6|B-5 5..F ....|A-1 1... ....|--- ...A ....
....|.6|--- .... ....|--- .... ....|--- ...B ....
....|.6|A-4 4..A ....|--- .... ....|--- .... ....
....|.6|--- .... ....|--- .... ....|--- .... ....
....|.7|A-4 5..F ....|A-1 D... ....|--- ...6 ....
....|.7|--- .... ....|--- .... ....|--- ...7 ....
....|.7|B-5 4..A ....|--- .... ....|--- ...8 ....
....|.7|--- .... ....|--- .... ....|--- ...9 ....
..17|.8|A-5 5.BF ....|G-1 1E.. ....|--- ...A ....
....|.8|--- .... ....|--- .... ....|--- ...B ....
....|.8|A-4 4..A ....|--- .... ....|--- .... ....
....|.8|--- .... ....|--- .... ....|--- .... ....
....|.9|A-4 5.6F ....|G-1 D... ....|G-4 ..46 ....
....|.9|--- .... ....|--- .... ....|--- ...7 ....
....|.9|A-5 4F.A ....|--- .... ....|--- ...8 ....
....|.9|--- .... ....|--- .... ....|--- ...9 ....
....|.A|A-5 5..F ....|--- .... ....|--- ...A ....
....|.A|--- .... ....|--- .... ....|--- ...B ....
....|.A|A-4 4.6A ....|--- .... ....|--- .... ....
....|.A|--- .... ....|--- .... ....|--- .... ....
....|.B|A-4 5F.F ....|G-1 1... ....|--- ...6 ....
....|.B|--- .... ....|--- .... ....|--- ...7 ....
....|.B|A-5 4..A ....|--- .... ....|--- ...8 ....
....|.B|--- .... ....|--- .... ....|--- ...9 ....
....|.C|C-6 5..F 31.C|G-1 D... ....|--- ...A ....
....|.C|--- .... ....|--- .... ....|--- ...B ....
....|.C|A-4 4..A ....|--- .... ....|--- .... ....
....|.C|--- .... ....|--- .... ....|--- .... ....
....|.D|A-4 5..F ....|G-1 .... ....|--- ...6 ....
....|.D|--- .... ....|--- .... ....|--- ...7 ....
....|.D|C-6 4..A 31.C|--- .... ....|--- ...8 ....
....|.D|--- .... ....|--- .... ....|--- ...9 ....
....|.E|B-5 5..F ....|G-1 1... ....|--- ...A ....
....|.E|--- .... ....|--- .... ....|--- ...B ....
....|.E|A-4 4..A ....|--- .... ....|--- .... ....
....|.E|--- .... ....|--- .... ....|--- .... ....
....|.F|A-4 5..F ....|G-1 D... 11.C|--- ...6 ....
....|.F|--- .... ....|--- .... ....|--- ...7 ....
....|.F|B-5 4..A ....|--- .... ....|--- ...8 ....
....|.F|--- .... ....|--- .... ....|--- ...9 ....

[Pattern9]
..1A|10|A-5 5FBF ....|F-1 1E.. ....|F-4 A.4A ....
....|10|--- .... ....|--- .... ....|--- ...B ....
....|10|A-4 4..A ....|--- .... ....|--- .... ....
....|10|--- .... ....|--- .... ....|--- .... ....
....|11|A-4 5.6F ....|F-1 D... ....|--- ...6 ....
....|11|--- .... ....|--- .... ....|--- ...7 ....
....|11|A-5 4F.A ....|--- .... ....|--- ...8 ....
....|11|--- .... ....|--- .... ....|--- ...9 ....
....|12|A-5 5..F ....|--- .... ....|--- ...A ....
....|12|--- .... ....|--- .... ....|--- ...B ....
....|12|A-4 4.6A ....|--- .... ....|--- .... ....
....|12|--- .... ....|--- .... ....|--- .... ....
....|13|A-4 5F.F ....|F-1 1... ....|--- ...6 ....
....|13|--- .... ....|--- .... ....|--- ...7 ....
....|13|A-5 4..A ....|--- .... ....|--- ...8 ....
....|13|--- .... ....|--- .... ....|--- ...9 ....
....|14|C-6 5..F 31.C|F-1 D... ....|--- ...A ....
....|14|--- .... ....|--- .... ....|--- ...B ....
....|14|A-4 4..A ....|--- .... ....|--- .... ....
....|14|--- .... ....|--- .... ....|--- .... ....
....|15|A-4 5..F ....|--- .... ....|--- ...6 ....
....|15|--- .... ....|--- .... ....|--- ...7 ....
....|15|C-6 4..A 31.C|--- .... ....|--- ...8 ....
....|15|--- .... ....|--- .... ....|--- ...9 ....
....|16|B-5 5..F ....|--- .... ....|--- ...A ....
....|16|--- .... ....|--- .... ....|--- ...B ....
....|16|A-4 4..A ....|--- .... ....|--- .... ....
....|16|--- .... ....|--- .... ....|--- .... ....
....|17|A-4 5..F ....|F-1 1... ....|--- ...6 ....
....|17|--- .... ....|--- .... ....|--- ...7 ....
....|17|B-5 4..A ....|--- .... ....|--- ...8 ....
....|17|--- .... ....|--- .... ....|--- ...9 ....
..17|18|A-5 5.BF ....|G-1 .E.. ....|G-4 ...A ....
....|18|--- .... ....|--- .... ....|--- ...B ....
....|18|A-4 4..A ....|--- .... ....|--- .... ....
....|18|--- .... ....|--- .... ....|--- .... ....
....|19|A-4 5.6F ....|G-1 D... ....|--- ...6 ....
....|19|--- .... ....|--- .... ....|--- ...7 ....
....|19|A-5 4F.A ....|--- .... ....|--- ...8 ....
....|19|--- .... ....|--- .... ....|--- ...9 ....
....|1A|A-5 5..F ....|--- .... ....|--- ...A ....
....|1A|--- .... ....|--- .... ....|--- ...B ....
....|1A|A-4 4.6A ....|--- .... ....|--- .... ....
....|1A|--- .... ....|--- .... ....|--- .... ....
....|1B|A-4 5F.F ....|G-1 1... ....|--- ...6 ....
....|1B|--- .... ....|--- .... ....|--- ...7 ....
....|1B|A-5 4..A ....|--- .... ....|--- ...8 ....
....|1B|--- .... ....|--- .... ....|--- ...9 ....
....|1C|C-6 5..F 31.C|G-1 D... ....|--- ...A ....
....|1C|--- .... ....|--- .... ....|--- ...B ....
....|1C|A-4 4..A ....|--- .... ....|--- .... ....
....|1C|--- .... ....|--- .... ....|--- .... ....
....|1D|A-4 5..F ....|--- .... ....|--- ...6 ....
....|1D|--- .... ....|--- .... ....|--- ...7 ....
....|1D|C-6 4..A 31.C|--- .... ....|--- ...8 ....
....|1D|--- .... ....|--- .... ....|--- ...9 ....
....|.8|B-5 5..F ....|G-4 3..F ....|--- ...A ....
....|..|--- .... ....|--- .... ....|--- ...B ....
....|.8|A-4 4..A ....|G-4 ...D ....|--- .... 11.3
....|..|--- .... ....|--- .... ....|--- .... ....
....|.8|B-5 .... ....|G-4 ...F ....|--- ...8 ....
....|..|--- .... ....|--- .... ....|--- ...9 ....
....|.8|A-4 ...7 ....|G-4 .... ....|--- ...A ....
....|..|--- .... ....|G-4 .... ....|--- ...B ....

[Pattern10]
..3E|.6|A-4 3F.F ....|A-4 2E.F ....|E-5 5F2F ....
....|..|A-5 A.7C ....|--- .... ....|--- .... ....
..3E|..|--- .... ....|A-2 1C.C ....|E-4 ...B ....
....|..|--- ...A ....|--- .... ....|--- .... ....
..15|.1|A-3 7.1F ....|E-4 9E.F ....|D-5 ...F ....
....|.1|A-4 6.39 ....|--- .... ....|--- .... ....
..3E|.1|A-4 7.1C ....|A-5 1C.C ....|E-5 ...B ....
....|.1|A-4 6.3A ....|--- .... ....|--- .... ....
..15|.2|A-4 7.1F ....|A-4 3E.F ....|A-4 ...F 3119
....|.2|A-4 6.39 ....|--- .... ....|--- .... ....
..3E|.2|A-3 7.1C ....|A-2 1C.C ....|D-5 ...B ....
....|.2|A-4 6.3A ....|--- .... ....|--- .... ....
..15|.3|A-3 7.1F ....|E-4 9E.F ....|E-5 ...F ....
....|.3|A-4 6.39 ....|--- .... ....|--- .... ....
..3E|.3|A-4 7.1C ....|A-5 1C.C ....|A-4 ...B 3119
....|.3|A-4 6.3A ....|--- .... ....|--- .... ....
..3E|.4|C-5 7.1F ....|A-4 2E.F ....|D-5 ...F ....
....|.4|A-4 6.39 ....|--- .... ....|--- .... ....
..3E|.4|A-3 7.1C ....|A-2 1C.C ....|E-5 ...B ....
....|.4|A-4 6.3A ....|--- .... ....|--- .... ....
..15|.5|A-3 7.1F ....|A-1 9E.F ....|A-4 ...F ....
....|.5|A-4 6.39 ....|--- .... ....|--- .... ....
..3E|.5|C-5 7.1C ....|A-2 1C.C ....|D-5 ...B ....
....|.5|A-4 6.3A ....|--- .... ....|--- .... ....
..15|.6|B-4 7.1F ....|A-4 3E.F ....|E-5 ..6F ....
....|.6|A-4 6.39 ....|--- .... ....|--- .... ....
..3E|.6|A-3 7.1C ....|A-2 1C.C ....|A-4 .F.B ....
....|.6|A-4 6.3A ....|--- .... ....|--- .... ....
..15|.7|A-3 7.1F ....|A-1 9E.F ....|D-5 ...F ....
....|.7|A-4 6.39 ....|--- .... ....|--- .... ....
..3E|.7|B-4 7.1C ....|A-2 1C.C ....|E-5 ..6B ....
....|.7|A-4 6.3A ....|--- .... ....|--- .... ....
..46|.8|A-4 7.1F ....|G-4 2E.F ....|G-5 .F.F ....
....|.8|G-4 6.49 ....|--- .... ....|--- .... ....
..46|.8|A-3 7.1C ....|G-2 1C.C ....|D-5 ...B ....
....|.8|G-4 6.4A ....|--- .... ....|--- .... ....
..17|.9|A-3 7.1F ....|D-4 9E.F ....|E-5 ...F ....
....|.9|G-4 6.49 ....|--- .... ....|--- .... ....
..46|.9|A-4 7.1C ....|G-5 1C.C ....|G-5 ...B ....
....|.9|G-4 6.4A ....|--- .... ....|--- .... ....
..17|.A|A-4 7.1F ....|G-4 3E.F ....|A-4 ...F 3119
....|.A|G-4 6.49 ....|--- .... ....|--- .... ....
..46|.A|A-3 7.1C ....|D-3 1C.C ....|E-5 ...B ....
....|.A|G-4 6.4A ....|--- .... ....|--- .... ....
..17|.B|A-3 7.1F ....|D-4 9E.F ....|G-5 ...F ....
....|.B|G-4 6.49 ....|--- .... ....|--- .... ....
..46|.B|A-4 7.1C ....|G-5 1C.C ....|A-4 ...B 3119
....|.B|G-4 6.4A ....|--- .... ....|--- .... ....
..46|.C|C-5 7.1F ....|G-4 2E.F ....|E-5 ...F ....
....|.C|G-4 6.49 ....|--- .... ....|--- .... ....
..46|.C|A-3 7.1C ....|G-2 1C.C ....|G-5 ...B ....
....|.C|G-4 6.4A ....|--- .... ....|--- .... ....
..17|.D|A-3 7.1F ....|G-1 9E.F ....|A-4 ...F ....
....|.D|G-4 6.49 ....|--- .... ....|--- .... ....
..46|.D|C-5 7.1C ....|G-2 1C.C ....|E-5 ...B ....
....|.D|G-4 6.4A ....|--- .... ....|--- .... ....
..17|.E|B-4 7.1F ....|G-4 3E.F ....|G-5 ..6F ....
....|.E|G-4 6.49 ....|--- .... ....|--- .... ....
..46|.E|A-3 7.1C ....|G-4 1C.C ....|A-4 .F.B ....
....|.E|G-4 6.4A ....|--- .... ....|--- .... ....
..17|.F|A-3 7.1F ....|G-4 3E.F ....|E-5 ...F ....
....|.F|G-4 6.49 ....|--- .... ....|--- .... ....
..46|.F|B-4 7.1C ....|G-4 .C.. ....|G-5 ..6B ....
....|.F|G-4 6.4A ....|--- .... ....|--- .... ....

[Pattern11]
..4E|10|A-4 7F.F ....|F-4 2E.F ....|F-5 .F.F ....
....|10|F-4 6.49 ....|--- .... ....|--- .... ....
..4E|10|A-3 7F.C ....|F-2 1C.C ....|F-4 ...B ....
....|10|F-4 6.49 ....|--- .... ....|--- .... ....
..1A|.F|A-3 7F.F ....|C-4 9C.F ....|E-5 ...F ....
....|.F|F-4 6.49 ....|--- .... ....|--- .... ....
..4E|.F|A-4 7F.C ....|F-5 1C.C ....|F-5 ...B ....
....|.F|F-4 6.49 ....|--- .... ....|--- .... ....
..1A|.E|A-4 7F.F ....|F-4 3E.F ....|A-4 ...F 3112
....|.E|F-4 6.49 ....|--- .... ....|--- .... ....
..4E|.E|A-3 7F.C ....|F-2 1C.C ....|E-5 ...B ....
....|.E|F-4 6.49 ....|--- .... ....|--- .... ....
..1A|.D|A-3 7F.F ....|C-4 9E.F ....|F-5 ...F ....
....|.D|F-4 6.49 ....|--- .... ....|--- .... ....
..4E|.D|A-4 7F.C ....|F-5 1C.C ....|A-4 ...B 3112
....|.D|F-4 6.49 ....|--- .... ....|--- .... ....
..4E|.C|C-5 7F.F ....|F-4 2E.F ....|E-5 ...F ....
....|.C|F-4 6.49 ....|--- .... ....|--- .... ....
..4E|.C|A-3 7F.C ....|F-2 1C.C ....|F-5 ...B ....
....|.C|F-4 6.49 ....|--- .... ....|--- .... ....
..1A|.B|A-3 7F.F ....|F-2 9C.F ....|A-4 ...F ....
....|.B|F-4 6.49 ....|--- .... ....|--- .... ....
..4E|.B|C-5 7F.C ....|F-2 1C.C ....|E-5 ...B ....
....|.B|F-4 6.49 ....|--- .... ....|--- .... ....
..1A|.A|B-4 7F.F ....|F-4 3E.F ....|F-5 ..6F ....
....|.A|F-4 6.49 ....|--- .... ....|--- .... ....
..4E|.A|A-3 7F.C ....|F-2 1C.C ....|A-4 .F.B ....
....|.A|F-4 6.49 ....|--- .... ....|--- .... ....
..1A|.9|A-3 7F.F ....|F-3 9E.F ....|E-5 ...F ....
....|.9|F-4 6.49 ....|--- .... ....|--- .... ....
..4E|.9|B-4 7F.C ....|F-2 1C.C ....|F-5 ..6B ....
....|.9|F-4 6.49 ....|--- .... ....|--- .... ....
..46|.8|A-4 7F.F ....|G-4 2E.F ....|G-5 .F.F ....
....|.8|G-4 6.49 ....|--- .... ....|--- .... ....
..46|.8|A-3 7F.C ....|G-2 1C.C ....|E-5 ...B ....
....|.8|G-4 6.49 ....|--- .... ....|--- .... ....
..17|.7|A-3 7F.F ....|D-4 9E.F ....|E-5 ...F ....
....|.7|G-4 6.49 ....|--- .... ....|--- .... ....
..46|.7|A-4 7F.C ....|G-5 1C.C ....|G-5 ...B ....
....|.7|G-4 6.4A ....|--- .... ....|--- .... ....
..17|.6|A-4 7F.F ....|G-4 3E.F ....|B-4 ...F 3112
....|.6|G-4 6.49 ....|--- .... ....|--- .... ....
..46|.6|A-3 7F.C ....|G-2 1C.C ....|E-5 ...B ....
....|.6|G-4 6.4A ....|--- .... ....|--- .... ....
..17|.5|A-3 7F.F ....|D-4 9E.F ....|G-5 ...F ....
....|.5|G-4 6.49 ....|--- .... ....|--- .... ....
..46|.5|A-4 7F.C ....|G-5 1C.C ....|B-4 ...B 3112
....|.5|G-4 6.4A ....|--- .... ....|--- .... ....
..46|.4|C-5 7F.F ....|G-4 2E.F ....|E-5 ...F ....
....|.4|G-4 6.49 ....|--- .... ....|--- .... ....
..46|.4|A-3 7F.C ....|G-2 1C.C ....|G-5 ...B ....
....|.4|G-4 6.4A ....|--- .... ....|--- .... ....
..17|.3|A-3 7F.F ....|G-1 9E.F ....|B-4 ...F ....
....|.3|G-4 6.49 ....|--- .... ....|--- .... ....
..46|.3|C-5 7F.C ....|G-4 3C.. ....|E-5 ...B ....
....|.3|G-4 6.4A ....|--- .... ....|--- .... ....
..17|.2|B-4 7F.F ....|G-4 .E.. ....|G-5 ..6F ....
....|.2|G-4 6.49 ....|--- .... ....|--- .... ....
..46|.2|A-3 7F.C ....|G-5 1C.C ....|B-4 .F.B ....
....|.2|G-4 6.4A ....|--- .... ....|--- .... ....
..17|.1|A-3 7F.F ....|G-4 3E.F ....|E-4 ..2C ....
....|.1|G-4 6.49 ....|--- .... ....|G-4 ...D ....
..46|.1|B-4 7F.C ....|G-4 .C.. ....|A-4 ...E ....
....|.1|G-4 6.4A ....|--- .... ....|D-5 ...F ....

[Pattern12]
..4E|10|A-4 7F.F ....|F-4 2E.F ....|F-5 .F2F ....
....|10|F-4 6.49 ....|--- .... ....|--- .... ....
..4E|10|A-3 7F.C ....|F-2 1C.C ....|F-4 ...B ....
....|10|F-4 6.49 ....|--- .... ....|--- .... ....
..1A|.F|A-3 7F.F ....|C-4 9C.F ....|E-5 ...F ....
....|.F|F-4 6.49 ....|--- .... ....|--- .... ....
..4E|.F|A-4 7F.C ....|F-5 1C.C ....|F-5 ...B ....
....|.F|F-4 6.49 ....|--- .... ....|--- .... ....
..1A|.E|A-4 7F.F ....|F-4 3E.F ....|A-4 ...F 3112
....|.E|F-4 6.49 ....|--- .... ....|--- .... ....
..4E|.E|A-3 7F.C ....|F-2 1C.C ....|E-5 ...B ....
....|.E|F-4 6.49 ....|--- .... ....|--- .... ....
..1A|.D|A-3 7F.F ....|C-4 9E.F ....|F-5 ...F ....
....|.D|F-4 6.49 ....|--- .... ....|--- .... ....
..4E|.D|A-4 7F.C ....|F-5 1C.C ....|A-4 ...B 3112
....|.D|F-4 6.49 ....|--- .... ....|--- .... ....
..4E|.C|C-5 7F.F ....|F-4 2E.F ....|E-5 ...F ....
....|.C|F-4 6.49 ....|--- .... ....|--- .... ....
..4E|.C|A-3 7F.C ....|F-2 1C.C ....|F-5 ...B ....
....|.C|F-4 6.49 ....|--- .... ....|--- .... ....
..1A|.B|A-3 7F.F ....|F-2 9C.F ....|A-4 ...F ....
....|.B|F-4 6.49 ....|--- .... ....|--- .... ....
..4E|.B|C-5 7F.C ....|F-2 1C.C ....|E-5 ...B ....
....|.B|F-4 6.49 ....|--- .... ....|--- .... ....
..1A|.A|B-4 7F.F ....|F-4 3E.F ....|F-5 ..6F ....
....|.A|F-4 6.49 ....|--- .... ....|--- .... ....
..4E|.A|A-3 7F.C ....|F-2 1C.C ....|A-4 .F.B ....
....|.A|F-4 6.49 ....|--- .... ....|--- .... ....
..1A|.9|A-3 7F.F ....|F-3 9E.F ....|E-5 ...F ....
....|.9|F-4 6.49 ....|--- .... ....|--- .... ....
..4E|.9|B-4 7F.C ....|F-2 1C.C ....|F-5 ..6B ....
....|.9|F-4 6.49 ....|--- .... ....|--- .... ....
..46|.8|A-4 7F.F ....|G-4 2E.F ....|G-5 .F.F ....
....|.8|G-4 6.49 ....|--- .... ....|--- .... ....
..46|.8|A-3 7F.C ....|G-2 1C.C ....|E-5 ...B ....
....|.8|G-4 6.49 ....|--- .... ....|--- .... ....
..17|.7|A-3 7F.F ....|D-4 9E.F ....|E-5 ...F ....
....|.7|G-4 6.49 ....|--- .... ....|--- .... ....
..46|.7|A-4 7F.C ....|G-5 1C.C ....|G-5 ...B ....
....|.7|G-4 6.4A ....|--- .... ....|--- .... ....
..17|.6|A-4 7F.F ....|G-4 3E.F ....|C-5 ...F 3112
....|.6|G-4 6.49 ....|--- .... ....|--- .... ....
..46|.6|A-3 7F.C ....|G-2 1C.C ....|E-5 ...B ....
....|.6|G-4 6.4A ....|--- .... ....|--- .... ....
..17|.5|A-3 7F.F ....|D-4 9E.F ....|E-5 ...F ....
....|.5|G-4 6.49 ....|--- .... ....|--- .... ....
..46|.5|A-4 7F.C ....|G-5 1C.C ....|C-5 ...B 3112
....|.5|G-4 6.4A ....|--- .... ....|--- .... ....
..46|.4|C-5 7F.F ....|G-4 2E.F ....|B-5 C..F 311C
....|.4|G-4 6.49 ....|--- .... ....|--- .... ....
..46|.4|A-3 7F.C ....|G-2 1C.C ....|--- .... ....
....|.4|G-4 6.4A ....|--- .... ....|--- .... ....
..17|.3|A-3 7F.F ....|G-1 9E.F ....|E-5 ...C ....
....|.3|G-4 6.49 ....|--- .... ....|--- .... ....
..46|.3|C-5 7F.C ....|G-4 3C.. ....|B-5 .... ....
....|.3|G-4 6.4A ....|--- .... ....|--- .... ....
..17|.2|B-4 7F.F ....|G-4 .E.. ....|--- .... ....
....|.2|G-4 6.49 ....|--- .... ....|--- .... ....
..46|.2|A-3 7F.C ....|G-5 1C.C ....|E-5 ...A ....
....|.2|G-4 6.4A ....|--- .... ....|--- .... ....
..17|.1|A-3 7F.F ....|G-4 3E.F ....|B-5 .... ....
....|.1|G-4 6.49 ....|--- .... ....|--- .... ....
..46|.1|B-4 7F.C ....|G-4 .C.. ....|--- .... ....
....|.1|G-4 6.4A ....|G-4 .... ....|--- .... ....

[Pattern13]
..3E|.8|A-4 3F.F ....|A-4 2E.F ....|A-4 7.8E ....
....|.6|A-5 A.7C ....|--- .... ....|--- .... ....
..3E|..|--- .... ....|A-2 1C.C ....|--- .... ....
....|..|--- ...A ....|--- .... ....|--- .... ....
..15|.1|A-3 7.1F ....|E-4 9E.F ....|--- .... ....
....|.1|A-4 6.39 ....|--- .... ....|--- .... ....
..3E|.1|A-4 7.1C ....|A-5 1C.C ....|--- .... ....
....|.1|A-4 6.3A ....|--- .... ....|--- .... ....
..15|.2|A-4 7.1F ....|A-4 3E.F ....|A-3 .... ....
....|.2|A-4 6.39 ....|--- .... ....|--- .... ....
..3E|.2|A-3 7.1C ....|A-2 1C.C ....|--- .... ....
....|.2|A-4 6.3A ....|--- .... ....|--- .... ....
..15|.3|A-3 7.1F ....|E-4 9E.F ....|A-4 .... ....
....|.3|A-4 6.39 ....|--- .... ....|--- .... ....
..3E|.3|A-4 7.1C ....|A-5 1C.C ....|--- .... ....
....|.3|A-4 6.3A ....|--- .... ....|--- .... ....
..3E|.4|C-5 7.1F ....|A-4 2E.F ....|C-6 CF.. ....
....|.4|A-4 6.39 ....|--- .... ....|--- .... ....
..3E|.4|A-3 7.1C ....|A-2 1C.C ....|--- .... ....
....|.4|A-4 6.3A ....|--- .... ....|--- .... ....
..15|.5|A-3 7.1F ....|A-1 9E.F ....|D-6 .... 31.6
....|.5|A-4 6.39 ....|--- .... ....|--- .... ....
..3E|.5|C-5 7.1C ....|A-2 1C.C ....|C-6 ...A ....
....|.5|A-4 6.3A ....|--- .... ....|--- .... ....
..15|.6|B-4 7.1F ....|A-4 3E.F ....|A-4 ..8. ....
....|.6|A-4 6.39 ....|--- .... ....|--- .... ....
..3E|.6|A-3 7.1C ....|A-2 1C.C ....|D-6 .F.. ....
....|.6|A-4 6.3A ....|--- .... ....|--- .... ....
..15|.7|A-3 7.1F ....|A-1 9E.F ....|C-6 ...8 ....
....|.7|A-4 6.39 ....|--- .... ....|--- .... ....
..3E|.7|B-4 7.1C ....|A-2 1C.C ....|D-6 .... ....
....|.7|A-4 6.3A ....|--- .... ....|--- .... ....
..46|.8|A-4 7.1F ....|G-4 2E.F ....|G-4 7.9E ....
....|.8|G-4 6.49 ....|--- .... ....|--- .... ....
..46|.8|A-3 7.1C ....|G-2 1C.C ....|--- .... ....
....|.8|G-4 6.4A ....|--- .... ....|--- .... ....
..17|.9|A-3 7.1F ....|D-4 9E.F ....|--- .... ....
....|.9|G-4 6.49 ....|--- .... ....|--- .... ....
..46|.9|A-4 7.1C ....|G-5 1C.C ....|--- .... ....
....|.9|G-4 6.4A ....|--- .... ....|--- .... ....
..17|.A|A-4 7.1F ....|G-4 3E.F ....|D-5 .F.. ....
....|.A|G-4 6.49 ....|--- .... ....|--- .... ....
..46|.A|A-3 7.1C ....|D-3 1C.C ....|--- .... ....
....|.A|G-4 6.4A ....|--- .... ....|--- .... ....
..17|.B|A-3 7.1F ....|D-4 9E.F ....|G-4 ..9. ....
....|.B|G-4 6.49 ....|--- .... ....|--- .... ....
..46|.B|A-4 7.1C ....|G-5 1C.C ....|--- .... ....
....|.B|G-4 6.4A ....|--- .... ....|--- .... ....
..46|.C|C-5 7.1F ....|G-4 2E.F ....|C-6 CF.. ....
....|.C|G-4 6.49 ....|--- .... ....|--- .... ....
..46|.C|A-3 7.1C ....|G-2 1C.C ....|--- .... ....
....|.C|G-4 6.4A ....|--- .... ....|--- .... ....
..17|.D|A-3 7.1F ....|G-1 9E.F ....|D-6 .... ....
....|.D|G-4 6.49 ....|--- .... ....|--- .... ....
..46|.D|C-5 7.1C ....|G-2 1C.C ....|--- .... ....
....|.D|G-4 6.4A ....|--- .... ....|--- .... ....
..17|.E|B-4 7.1F ....|G-4 3E.F ....|G-4 ..4. ....
....|.E|G-4 6.49 ....|--- .... ....|--- .... ....
..46|.E|A-3 7.1C ....|G-4 1C.C ....|D-6 .F.A ....
....|.E|G-4 6.4A ....|--- .... ....|--- .... ....
..17|.F|A-3 7.1F ....|G-4 3E.F ....|C-6 ...8 ....
....|.F|G-4 6.49 ....|--- .... ....|--- .... ....
..46|.F|B-4 7.1C ....|G-4 .C.. ....|D-6 .... ....
....|.F|G-4 6.4A ....|--- .... ....|--- .... ....

[Pattern14]
..4E|10|A-4 7F.F ....|F-4 2E.F ....|F-4 7.9E ....
....|10|F-4 6.49 ....|--- .... ....|--- .... ....
..4E|10|A-3 7F.C ....|F-2 1C.C ....|--- .... ....
....|10|F-4 6.49 ....|--- .... ....|--- .... ....
..1A|.F|A-3 7F.F ....|C-4 9C.F ....|--- .... ....
....|.F|F-4 6.49 ....|--- .... ....|--- .... ....
..4E|.F|A-4 7F.C ....|F-5 1C.C ....|--- .... ....
....|.F|F-4 6.49 ....|--- .... ....|--- .... ....
..1A|.E|A-4 7F.F ....|F-4 3E.F ....|F-3 .... ....
....|.E|F-4 6.49 ....|--- .... ....|--- .... ....
..4E|.E|A-3 7F.C ....|F-2 1C.C ....|--- .... ....
....|.E|F-4 6.49 ....|--- .... ....|--- .... ....
..1A|.D|A-3 7F.F ....|C-4 9E.F ....|F-4 .... ....
....|.D|F-4 6.49 ....|--- .... ....|--- .... ....
..4E|.D|A-4 7F.C ....|F-5 1C.C ....|--- .... ....
....|.D|F-4 6.49 ....|--- .... ....|--- .... ....
..4E|.C|C-5 7F.F ....|F-4 2E.F ....|E-6 CF.. ....
....|.C|F-4 6.49 ....|--- .... ....|--- .... ....
..4E|.C|A-3 7F.C ....|F-2 1C.C ....|--- .... ....
....|.C|F-4 6.49 ....|--- .... ....|--- .... ....
..1A|.B|A-3 7F.F ....|F-2 9C.F ....|F-6 .... 31.1
....|.B|F-4 6.49 ....|--- .... ....|--- .... ....
..4E|.B|C-5 7F.C ....|F-2 1C.C ....|--- .... ....
....|.B|F-4 6.49 ....|--- .... ....|--- .... ....
..1A|.A|B-4 7F.F ....|F-4 3E.F ....|F-4 ..9. ....
....|.A|F-4 6.49 ....|--- .... ....|--- .... ....
..4E|.A|A-3 7F.C ....|F-2 1C.C ....|F-6 .F.A ....
....|.A|F-4 6.49 ....|--- .... ....|--- .... ....
..1A|.9|A-3 7F.F ....|F-3 9E.F ....|E-6 ...8 ....
....|.9|F-4 6.49 ....|--- .... ....|--- .... ....
..4E|.9|B-4 7F.C ....|F-2 1C.C ....|F-6 .... ....
....|.9|F-4 6.49 ....|--- .... ....|--- .... ....
..46|.8|A-4 7F.F ....|G-4 2E.F ....|G-4 7.9E ....
....|.8|G-4 6.49 ....|--- .... ....|--- .... ....
..46|.8|A-3 7F.C ....|G-2 1C.C ....|--- .... ....
....|.8|G-4 6.49 ....|--- .... ....|--- .... ....
..17|.7|A-3 7F.F ....|D-4 9E.F ....|--- .... ....
....|.7|G-4 6.49 ....|--- .... ....|--- .... ....
..46|.7|A-4 7F.C ....|G-5 1C.C ....|--- .... ....
....|.7|G-4 6.4A ....|--- .... ....|--- .... ....
..17|.6|A-4 7F.F ....|G-4 3E.F ....|E-5 CF.. ....
....|.6|G-4 6.49 ....|--- .... ....|--- .... ....
..46|.6|A-3 7F.C ....|G-2 1C.C ....|--- .... ....
....|.6|G-4 6.4A ....|--- .... ....|--- .... ....
..17|.5|A-3 7F.F ....|D-4 9E.F ....|G-4 ..9. ....
....|.5|G-4 6.49 ....|--- .... ....|--- .... ....
..46|.5|A-4 7F.C ....|G-5 1C.C ....|--- .... ....
....|.5|G-4 6.4A ....|--- .... ....|--- .... ....
..46|.4|C-5 7F.F ....|G-4 2E.F ....|F-6 .F.. ....
....|.4|G-4 6.49 ....|--- .... ....|--- .... ....
..46|.4|A-3 7F.C ....|G-2 1C.C ....|--- .... ....
....|.4|G-4 6.4A ....|--- .... ....|--- .... ....
..17|.3|A-3 7F.F ....|G-1 9E.F ....|G-6 .... ....
....|.3|G-4 6.49 ....|--- .... ....|--- .... ....
..46|.3|C-5 7F.C ....|G-4 3C.. ....|--- .... ....
....|.3|G-4 6.4A ....|--- .... ....|--- .... ....
..17|.8|B-4 7F.F ....|G-4 .E.. ....|G-4 ..9. ....
....|..|G-4 6.49 ....|--- .... ....|--- .... ....
..46|..|A-3 7F.C ....|G-5 1C.C ....|G-6 .F.A ....
....|..|G-4 6.4A ....|--- .... ....|--- .... ....
..17|.8|A-3 7F.F ....|G-4 3E.F ....|F-6 ...8 ....
....|..|G-4 6.49 ....|--- .... ....|--- .... ....
..46|.8|B-4 7F.C ....|G-4 .C.. ....|G-6 .... ....
....|..|G-4 6.4A ....|--- .... ....|--- .... ....

[Pattern15]
..3E|.6|E-5 7F2F ....|A-4 2E.F ....|B-5 4FAF ....
....|..|A-4 6.39 ....|--- .... ....|--- .... ....
..3E|..|E-4 7F.B ....|A-2 1C1C ....|--- .... ....
....|..|A-4 6.39 ....|--- .... ....|--- .... ....
..15|.1|D-5 7F.F ....|E-4 9E.F ....|E-4 ...C ....
....|.1|A-4 6.39 ....|--- .... ....|--- .... ....
..3E|.1|E-5 7F.B ....|A-5 1C1C ....|B-5 .... ....
....|.1|A-4 6.39 ....|--- .... ....|--- .... ....
..15|.2|A-4 7F.F 3119|A-4 3E.F ....|B-5 ...F ....
....|.2|A-4 6.39 ....|--- .... ....|--- .... ....
..3E|.2|D-5 7F.B ....|A-2 1C1C ....|--- .... ....
....|.2|A-4 6.39 ....|--- .... ....|--- .... ....
..15|.3|E-5 7F.F ....|E-4 9E.F ....|C-6 .... ....
....|.3|A-4 6.39 ....|--- .... ....|--- .... ....
..3E|.3|A-4 7F.B 3119|A-5 1C1C ....|--- .... ....
....|.3|A-4 6.39 ....|--- .... ....|--- .... ....
..3E|.4|D-5 7F.F ....|A-4 2E.F ....|E-4 ...C ....
....|.4|A-4 6.39 ....|--- .... ....|--- .... ....
..3E|.4|E-5 7F.B ....|A-2 1C1C ....|C-6 .... ....
....|.4|A-4 6.39 ....|--- .... ....|--- .... ....
..15|.5|A-4 7F.F ....|A-1 9E.F ....|E-4 ...A ....
....|.5|A-4 6.39 ....|--- .... ....|--- .... ....
..3E|.5|D-5 7F.B ....|A-2 1C1C ....|C-6 .... ....
....|.5|A-4 6.39 ....|--- .... ....|--- .... ....
..15|.6|E-5 7.6F ....|A-4 3E.F ....|C-6 ...F ....
....|.6|A-4 6.39 ....|--- .... ....|--- .... ....
..3E|.6|A-4 7F.B ....|A-2 1C1C ....|--- .... ....
....|.6|A-4 6.39 ....|--- .... ....|--- .... ....
..15|.7|D-5 7F.F ....|A-1 9E.F ....|E-4 ...C ....
....|.7|A-4 6.39 ....|--- .... ....|--- .... ....
..3E|.7|E-5 7.6B ....|A-2 1C1C ....|C-6 .... ....
....|.7|A-4 6.39 ....|--- .... ....|--- .... ....
..46|.8|G-5 7F.F ....|G-4 2E.F ....|B-5 ...F ....
....|.8|G-4 6.49 ....|--- .... ....|--- .... ....
..46|.8|D-5 7F.B ....|G-2 1C1C ....|--- .... ....
....|.8|G-4 6.49 ....|--- .... ....|--- .... ....
..17|.9|E-5 7F.F ....|D-4 9E1F ....|D-4 ...C ....
....|.9|G-4 6.49 ....|--- .... ....|--- .... ....
..46|.9|G-5 7F.B ....|G-5 1C1C ....|B-5 .... ....
....|.9|G-4 6.49 ....|--- .... ....|--- .... ....
..17|.A|A-4 7F.F 3119|G-4 3E.F ....|G-5 ...F ....
....|.A|G-4 6.49 ....|--- .... ....|--- .... ....
..46|.A|E-5 7F.B ....|D-3 1C1C ....|--- .... ....
....|.A|G-4 6.49 ....|--- .... ....|--- .... ....
..17|.B|G-5 7F.F ....|D-4 9E.F ....|E-5 .... ....
....|.B|G-4 6.49 ....|--- .... ....|--- .... ....
..46|.B|A-4 7F.B 3119|G-5 1C1C ....|--- .... ....
....|.B|G-4 6.49 ....|--- .... ....|--- .... ....
..46|.C|E-5 7F.F ....|G-4 2E.F ....|G-5 ...C ....
....|.C|G-4 6.49 ....|--- .... ....|--- .... ....
..46|.C|G-5 7F.B ....|G-2 1C1C ....|E-5 .... ....
....|.C|G-4 6.49 ....|--- .... ....|--- .... ....
..17|.D|A-4 7F.F ....|G-1 9E.F ....|D-5 ...F ....
....|.D|G-4 6.49 ....|--- .... ....|--- .... ....
..46|.D|E-5 7F.B ....|G-2 1C1C ....|--- .... ....
....|.D|G-4 6.49 ....|--- .... ....|--- .... ....
..17|.E|G-5 7.6F ....|G-4 3E.F ....|E-5 ...C ....
....|.E|G-4 6.49 ....|--- .... ....|--- .... ....
..46|.E|A-4 7F.B ....|G-4 1C1C ....|D-5 .... ....
....|.E|G-4 6.49 ....|--- .... ....|--- .... ....
..17|.F|E-5 7F.F ....|G-4 3E.F ....|E-5 ...A ....
....|.F|G-4 6.49 ....|--- .... ....|--- .... ....
..46|.F|G-5 7.6B ....|G-4 .C1. ....|D-5 .... ....
....|.F|G-4 6.49 ....|--- .... ....|--- .... ....

[Pattern16]
..4E|10|F-5 7F.F ....|F-4 2E.F ....|B-5 4FAF ....
....|10|F-4 6.49 ....|--- .... ....|--- .... ....
..4E|10|F-4 7F.B ....|F-2 1C.C ....|--- .... ....
....|10|F-4 6.49 ....|--- .... ....|--- .... ....
..1A|.F|E-5 7F.F ....|C-4 9C.F ....|C-4 ...C ....
....|.F|F-4 6.49 ....|--- .... ....|--- .... ....
..4E|.F|F-5 7F.B ....|F-5 1C.C ....|B-5 .... ....
....|.F|F-4 6.49 ....|--- .... ....|--- .... ....
..1A|.E|A-4 7F.F 3112|F-4 3E.F ....|B-5 ...F ....
....|.E|F-4 6.49 ....|--- .... ....|--- .... ....
..4E|.E|E-5 7F.B ....|F-2 1C.C ....|--- .... ....
....|.E|F-4 6.49 ....|--- .... ....|--- .... ....
..1A|.D|F-5 7F.F ....|C-4 9E.F ....|C-6 .... ....
....|.D|F-4 6.49 ....|--- .... ....|--- .... ....
..4E|.D|A-4 7F.B 3112|F-5 1C.C ....|--- .... ....
....|.D|F-4 6.49 ....|--- .... ....|--- .... ....
..4E|.C|E-5 7F.F ....|F-4 2E.F ....|C-4 ...C ....
....|.C|F-4 6.49 ....|--- .... ....|--- .... ....
..4E|.C|F-5 7F.B ....|F-2 1C.C ....|C-6 .... ....
....|.C|F-4 6.49 ....|--- .... ....|--- .... ....
..1A|.B|A-4 7F.F ....|F-2 9C.F ....|C-4 ...A ....
....|.B|F-4 6.49 ....|--- .... ....|--- .... ....
..4E|.B|E-5 7F.B ....|F-2 1C.C ....|C-6 .... ....
....|.B|F-4 6.49 ....|--- .... ....|--- .... ....
..1A|.A|F-5 7.6F ....|F-4 3E.F ....|C-6 ...F ....
....|.A|F-4 6.49 ....|--- .... ....|--- .... ....
..4E|.A|A-4 7F.B ....|F-2 1C.C ....|--- .... ....
....|.A|F-4 6.49 ....|--- .... ....|--- .... ....
..1A|.9|E-5 7F.F ....|F-3 9E.F ....|C-4 ...C ....
....|.9|F-4 6.49 ....|--- .... ....|--- .... ....
..4E|.9|F-5 7.6B ....|F-2 1C.C ....|C-6 .... ....
....|.9|F-4 6.49 ....|--- .... ....|--- .... ....
..46|.8|G-5 7F.F ....|G-4 2E.F ....|D-6 ...F ....
....|.8|G-4 6.49 ....|--- .... ....|--- .... ....
..46|.8|E-5 7F.B ....|G-2 1C.C ....|--- .... ....
....|.8|G-4 6.49 ....|--- .... ....|--- .... ....
..17|.7|E-5 7F.F ....|D-4 9E.F ....|D-4 ...C ....
....|.7|G-4 6.49 ....|--- .... ....|--- .... ....
..46|.7|G-5 7F.B ....|G-5 1C.C ....|D-6 .... ....
....|.7|G-4 6.49 ....|--- .... ....|--- .... ....
..17|.6|B-4 7F.F 3112|G-4 3E.F ....|D-6 ...F ....
....|.6|G-4 6.49 ....|--- .... ....|--- .... ....
..46|.6|E-5 7F.B ....|G-2 1C.C ....|--- .... ....
....|.6|G-4 6.49 ....|--- .... ....|--- .... ....
..17|.5|G-5 7F.F ....|D-4 9E.F ....|C-6 .... ....
....|.5|G-4 6.49 ....|--- .... ....|--- .... ....
..46|.5|B-4 7F.B 3112|G-5 1C.C ....|--- .... ....
....|.5|G-4 6.49 ....|--- .... ....|--- .... ....
..46|.4|E-5 7F.F ....|G-4 2E.F ....|D-6 ...C ....
....|.4|G-4 6.49 ....|--- .... ....|--- .... ....
..46|.4|G-5 7F.B ....|G-2 1C.C ....|C-6 .... ....
....|.4|G-4 6.49 ....|--- .... ....|--- .... ....
..17|.3|B-4 7F.F ....|G-1 9E.F ....|B-5 ...F ....
....|.3|G-4 6.49 ....|--- .... ....|--- .... ....
..46|.3|E-5 7F.B ....|G-4 3C.. ....|--- .... ....
....|.3|G-4 6.49 ....|--- .... ....|--- .... ....
..17|.2|G-5 7.6F ....|G-4 .E.. ....|C-6 ...C ....
....|.2|G-4 6.49 ....|--- .... ....|--- .... ....
..46|.2|B-4 7F.B ....|G-5 1C.C ....|B-5 .... ....
....|.2|G-4 6.49 ....|--- .... ....|--- .... ....
..17|.1|E-4 7.2C ....|G-4 3E.F ....|C-6 ...A ....
....|.1|G-4 ...D ....|--- .... ....|--- .... ....
..46|.1|A-4 ...E ....|G-4 .C.. ....|B-5 .... ....
....|.1|D-5 ...F ....|--- .... ....|--- .... ....

[Pattern17]
..4E|10|F-5 7F.F ....|F-4 2E.F ....|B-5 4FAF ....
....|10|F-4 6.49 ....|--- .... ....|--- .... ....
..4E|10|F-4 7F.B ....|F-2 1C.C ....|--- .... ....
....|10|F-4 6.49 ....|--- .... ....|--- .... ....
..1A|.F|E-5 7F.F ....|C-4 9C.F ....|C-4 ...C ....
....|.F|F-4 6.49 ....|--- .... ....|--- .... ....
..4E|.F|F-5 7F.B ....|F-5 1C.C ....|B-5 .... ....
....|.F|F-4 6.49 ....|--- .... ....|--- .... ....
..1A|.E|A-4 7F.F 3112|F-4 3E.F ....|B-5 ...F ....
....|.E|F-4 6.49 ....|--- .... ....|--- .... ....
..4E|.E|E-5 7F.B ....|F-2 1C.C ....|--- .... ....
....|.E|F-4 6.49 ....|--- .... ....|--- .... ....
..1A|.D|F-5 7F.F ....|C-4 9E.F ....|C-6 .... ....
....|.D|F-4 6.49 ....|--- .... ....|--- .... ....
..4E|.D|A-4 7F.B 3112|F-5 1C.C ....|--- .... ....
....|.D|F-4 6.49 ....|--- .... ....|--- .... ....
..4E|.C|E-5 7F.F ....|F-4 2E.F ....|C-4 ...C ....
....|.C|F-4 6.49 ....|--- .... ....|--- .... ....
..4E|.C|F-5 7F.B ....|F-2 1C.C ....|C-6 .... ....
....|.C|F-4 6.49 ....|--- .... ....|--- .... ....
..1A|.B|A-4 7F.F ....|F-2 9C.F ....|C-4 ...A ....
....|.B|F-4 6.49 ....|--- .... ....|--- .... ....
..4E|.B|E-5 7F.B ....|F-2 1C.C ....|C-6 .... ....
....|.B|F-4 6.49 ....|--- .... ....|--- .... ....
..1A|.A|F-5 7.6F ....|F-4 3E.F ....|C-6 ...F ....
....|.A|F-4 6.49 ....|--- .... ....|--- .... ....
..4E|.A|A-4 7F.B ....|F-2 1C.C ....|--- .... ....
....|.A|F-4 6.49 ....|--- .... ....|--- .... ....
..1A|.9|E-5 7F.F ....|F-3 9E.F ....|C-4 ...C ....
....|.9|F-4 6.49 ....|--- .... ....|--- .... ....
..4E|.9|F-5 7.6B ....|F-2 1C.C ....|C-6 .... ....
....|.9|F-4 6.49 ....|--- .... ....|--- .... ....
..46|.8|G-5 7F.F ....|G-4 2E.F ....|D-6 ...F ....
....|.8|G-4 6.49 ....|--- .... ....|--- .... ....
..46|.8|E-5 7F.B ....|G-2 1C.C ....|--- .... ....
....|.8|G-4 6.49 ....|--- .... ....|--- .... ....
..17|.7|E-5 7F.F ....|D-4 9E.F ....|D-4 ...C ....
....|.7|G-4 6.49 ....|--- .... ....|--- .... ....
..46|.7|G-5 7F.B ....|G-5 1C.C ....|D-6 .... ....
....|.7|G-4 6.49 ....|--- .... ....|--- .... ....
..17|.6|B-4 7F.F 3112|G-4 3E.F ....|D-6 ...F ....
....|.6|G-4 6.49 ....|--- .... ....|--- .... ....
..46|.6|E-5 7F.B ....|G-2 1C.C ....|--- .... ....
....|.6|G-4 6.49 ....|--- .... ....|--- .... ....
..17|.5|G-5 7F.F ....|D-4 9E.F ....|B-5 .... ....
....|.5|G-4 6.49 ....|--- .... ....|--- .... ....
..46|.5|B-4 7F.B 3112|G-5 1C.C ....|--- .... ....
....|.5|G-4 6.49 ....|--- .... ....|--- .... ....
..46|.4|E-5 7F.F ....|G-4 2E.F ....|D-4 ...C ....
....|.4|G-4 6.49 ....|--- .... ....|--- .... ....
..46|.4|G-5 7F.B ....|G-2 1C.C ....|B-5 .... ....
....|.4|G-4 6.49 ....|--- .... ....|--- .... ....
..17|.3|B-4 7F.F ....|G-1 9E.F ....|--- .... ....
....|.3|G-4 6.49 ....|--- .... ....|--- .... ....
..46|.3|E-5 7F.B ....|G-4 3C.. ....|D-4 ...A ....
....|.3|G-4 6.49 ....|--- .... ....|--- .... ....
..17|.8|G-5 7.6F ....|G-4 .E.. ....|B-5 .... ....
....|.8|G-4 6.49 ....|--- .... ....|--- .... ....
..46|.8|B-4 7F.B ....|G-5 1C.C ....|--- .... ....
....|.8|G-4 6.49 ....|--- .... ....|--- .... ....
..17|.8|E-4 7.2C ....|G-4 3E.F ....|D-4 ...8 ....
....|.8|G-4 ...D ....|--- .... ....|--- .... ....
..46|.8|A-4 ...E ....|G-4 .C.. ....|B-5 .... ....
....|.8|D-5 ...F ....|G-4 .... ....|--- .... ....

[Pattern18]
..3E|.6|A-5 7F.F ....|G-5 2E.F ....|A-5 8F7F ....
....|..|A-4 6.39 ....|--- .... ....|--- .... ....
....|..|--- .... ....|--- .... ....|--- .... ....
....|..|--- ...8 ....|--- .... ....|--- .... ....
....|..|--- .... ....|--- .... ....|--- .... ....
....|..|--- ...7 ....|--- .... ....|--- .... ....
....|..|--- .... ....|--- .... ....|--- .... ....
....|..|--- ...6 ....|--- .... ....|--- .... ....
....|.8|--- .... ....|--- .... ....|--- .... ....
....|..|--- ...5 ....|--- .... ....|--- .... ....
....|..|--- .... ....|--- .... ....|--- .... ....
....|..|--- ...4 ....|--- .... ....|--- .... ....
....|..|--- .... ....|--- .... ....|--- .... ....
....|..|--- ...3 ....|--- .... ....|--- .... ....
....|..|--- .... ....|--- .... ....|--- .... ....
....|..|--- ...2 ....|--- .... ....|--- .... ....
....|.6|--- .... ....|--- .... 91.3|--- .... ....
....|..|--- ...1 ....|--- .... ....|--- .... ....
....|..|--- .... ....|--- .... ....|--- .... ....
....|..|--- .... ....|--- .... ....|--- .... ....
....|..|--- .... ....|--- .... ....|--- .... ....
....|..|--- .... ....|--- .... ....|--- .... ....
....|..|--- .... ....|--- .... ....|--- .... ....
....|..|--- .... ....|--- .... ....|--- .... ....
....|.8|--- .... ....|--- .... ....|--- .... ....
....|..|--- .... ....|--- .... ....|--- .... ....
....|..|--- .... ....|--- .... ....|--- .... ....
....|..|--- .... ....|--- .... ....|--- .... ....
....|..|--- .... ....|--- .... ....|--- .... ....
....|..|--- .... ....|--- .... ....|--- .... ....
....|..|--- .... ....|--- .... ....|--- .... ....
....|..|--- .... ....|--- .... ....|--- .... ....
....|.6|--- .... ....|--- .... ....|--- .... ....
....|..|--- .... ....|--- .... ....|--- .... ....
....|..|--- .... ....|--- .... ....|--- .... ....
....|..|--- .... ....|--- .... ....|--- .... ....
....|..|--- .... ....|--- .... ....|--- .... ....
....|..|--- .... ....|--- .... ....|--- .... ....
....|..|--- .... ....|--- .... ....|--- .... ....
....|..|--- .... ....|--- .... ....|--- .... ....
....|.8|--- .... ....|--- .... ....|--- .... ....
....|..|--- .... ....|--- .... ....|--- .... ....
....|..|--- .... ....|--- .... ....|--- .... ....
....|..|--- .... ....|--- .... ....|--- .... ....
....|..|--- .... ....|--- .... ....|--- .... ....
....|..|--- .... ....|--- .... ....|--- .... ....
....|..|--- .... ....|--- .... ....|--- .... ....
....|..|--- .... ....|--- .... ....|--- .... ....
....|.6|--- .... ....|--- .... ....|--- .... ....
....|..|--- .... ....|--- .... ....|--- .... ....
....|..|--- .... ....|--- .... ....|--- .... ....
....|..|--- .... ....|--- .... ....|--- .... ....
....|..|--- .... ....|--- .... ....|--- .... ....
....|..|--- .... ....|--- .... ....|--- .... ....
....|..|--- .... ....|--- .... ....|--- .... ....
....|..|--- .... ....|--- .... ....|--- .... ....
....|.8|--- .... ....|--- .... ....|--- .... ....
....|..|--- .... ....|--- .... ....|--- .... ....
....|..|--- .... ....|--- .... ....|--- .... ....
....|..|--- .... ....|--- .... ....|--- .... ....
....|.8|--- .... ....|--- .... ....|--- .... ....
....|..|--- .... ....|--- .... ....|--- .... ....
....|.8|--- .... ....|--- .... ....|--- .... ....
....|..|--- .... ....|--- .... ....|--- .... ....

[Pattern19]
..3E|.8|A-4 3F.F ....|A-4 2E.F ....|A-5 8F7F ....
....|..|A-4 7.3A ....|--- .... ....|--- .... ....
....|..|--- .... ....|--- .... ....|--- .... ....
....|..|--- .... ....|--- .... ....|--- .... ....
....|..|--- .... ....|R-- .... ....|--- .... ....
....|..|--- .... ....|--- .... ....|--- .... ....
....|..|--- .... ....|--- .... ....|--- .... ....
....|..|--- .... ....|--- .... ....|--- .... ....
....|..|--- .... ....|--- .... ....|--- .... ....
....|..|--- .... ....|--- .... ....|--- .... ....
....|..|--- .... ....|--- .... ....|--- .... ....
....|..|--- .... ....|--- .... ....|--- .... ....
....|..|--- .... ....|--- .... ....|--- .... ....
....|..|--- .... ....|--- .... ....|--- .... ....
....|..|--- .... ....|--- .... ....|--- .... ....
....|..|--- .... ....|--- .... ....|--- .... ....
....|..|--- .... ....|--- .... ....|--- .... ....
....|..|--- .... ....|--- .... ....|--- .... ....
....|..|--- .... ....|--- .... ....|--- .... ....
....|..|--- .... ....|--- .... ....|--- .... ....
....|..|--- .... ....|--- .... ....|--- .... ....
....|..|--- .... ....|--- .... ....|--- .... ....

[Pattern20]
....|..|R-- .... ....|R-- .... ....|R-- .... ....
....|..|--- .... ....|--- .... ....|--- .... ....
....|..|--- .... ....|--- .... ....|--- .... ....
....|..|--- .... ....|--- .... ....|--- .... ....

[Pattern21]
..4E|10|A-4 7F.F ....|F-4 2E.F ....|F-4 7.9E ....
....|10|F-4 6.49 ....|--- .... ....|--- .... ....
..4E|10|A-3 7F.C ....|F-2 1C.C ....|--- .... ....
....|10|F-4 6.49 ....|--- .... ....|--- .... ....
..1A|.F|A-3 7F.F ....|C-4 9C.F ....|--- .... ....
....|.F|F-4 6.49 ....|--- .... ....|--- .... ....
..4E|.F|A-4 7F.C ....|F-5 1C.C ....|--- .... ....
....|.F|F-4 6.49 ....|--- .... ....|--- .... ....
..1A|.E|A-4 7F.F ....|F-4 3E.F ....|F-3 .... ....
....|.E|F-4 6.49 ....|--- .... ....|--- .... ....
..4E|.E|A-3 7F.C ....|F-5 1C.C ....|--- .... ....
....|.E|F-4 6.49 ....|--- .... ....|--- .... ....
..1A|.D|A-3 7F.F ....|C-4 9E.F ....|F-4 .... ....
....|.D|F-4 6.49 ....|--- .... ....|--- .... ....
..4E|.D|A-4 7F.C ....|F-4 1C.C ....|--- .... ....
....|.D|F-4 6.49 ....|--- .... ....|--- .... ....
..4E|.C|C-5 7F.F ....|F-4 2E.F ....|E-6 CF.. ....
....|.C|F-4 6.49 ....|--- .... ....|--- .... ....
..4E|.C|A-3 7F.C ....|F-4 1C.C ....|--- .... ....
....|.C|F-4 6.49 ....|--- .... ....|--- .... ....
..1A|.B|A-3 7F.F ....|C-6 9C.F ....|F-6 .... 31.1
....|.B|F-4 6.49 ....|--- .... ....|--- .... ....
..4E|.B|C-5 7F.C ....|F-2 1C.C ....|--- .... ....
....|.B|F-4 6.49 ....|--- .... ....|--- .... ....
..1A|.A|B-4 7F.F ....|F-4 3E.F ....|F-4 ..9. ....
....|.A|F-4 6.49 ....|--- .... ....|--- .... ....
..4E|.A|A-3 7F.C ....|F-2 1C.C ....|F-6 .F.A ....
....|.A|F-4 6.49 ....|--- .... ....|--- .... ....
..1A|.9|A-3 7F.F ....|F-3 9E.F ....|E-6 ...8 ....
....|.9|F-4 6.49 ....|--- .... ....|--- .... ....
..4E|.9|B-4 7F.C ....|F-2 1C.C ....|F-6 .... ....
....|.9|F-4 6.49 ....|--- .... ....|--- .... ....
..46|.8|A-4 7F.F ....|G-4 2E.F ....|G-4 7.9E ....
....|.8|G-4 6.49 ....|--- .... ....|--- .... ....
..46|.8|A-3 7F.C ....|G-2 1C.C ....|--- .... ....
....|.8|G-4 6.49 ....|--- .... ....|--- .... ....
..17|.7|A-3 7F.F ....|D-4 9E.F ....|--- .... ....
....|.7|G-4 6.49 ....|--- .... ....|--- .... ....
..46|.7|A-4 7F.C ....|G-5 1C.C ....|--- .... ....
....|.7|G-4 6.4A ....|--- .... ....|--- .... ....
..17|.6|A-4 7F.F ....|G-4 3E.F ....|E-5 CF.. ....
....|.6|G-4 6.49 ....|--- .... ....|--- .... ....
..46|.6|A-3 7F.C ....|G-5 1C.C ....|--- .... ....
....|.6|G-4 6.4A ....|--- .... ....|--- .... ....
..17|.5|A-3 7F.F ....|D-4 9E.F ....|G-4 ..9. ....
....|.5|G-4 6.49 ....|--- .... ....|--- .... ....
..46|.5|A-4 7F.C ....|G-4 1C.C ....|--- .... ....
....|.5|G-4 6.4A ....|--- .... ....|--- .... ....
..46|.4|C-5 7F.F ....|G-4 2E.F ....|G-6 .F.. 311C
....|.4|G-4 6.49 ....|--- .... ....|--- .... ....
..46|.4|A-3 7F.C ....|G-6 1C.C ....|--- .... ....
....|.4|G-4 6.4A ....|--- .... ....|--- .... ....
..17|.8|A-3 7F.F ....|G-4 2E.F ....|--- .... ....
....|.3|G-4 6.49 ....|--- .... ....|--- .... ....
..46|.8|C-5 7F.C ....|G-4 3C.. ....|--- .... ....
....|.8|G-4 6.4A ....|G-4 .... ....|--- .... ....
..17|.8|B-4 7F.F ....|G-4 5E.. 1190|G-4 ..9. ....
....|..|G-4 ..49 ....|--- .... ....|--- .... ....
....|.8|--- .... ....|--- .... ....|G-6 .F.A ....
....|..|--- .... ....|--- .... ....|--- .... ....
....|.8|--- .... ....|--- .... ....|G-4 ...8 ....
....|..|--- .... ....|--- .... ....|--- .... ....
....|.8|--- .... ....|--- .... ....|G-6 .... ....
....|..|--- .... ....|--- .... ....|--- .... ....

