[Module]
VortexTrackerII=0
Version=3.7
Title=Xiaomi vs MmcM Realtime DiHalt:)
Author=MmcM^Sa9e 202501060303 ABC YM
NoteTable=2
Speed=4
PlayOrder=0,1,2,3,2,4,5,6,5,6,7,8,7,8,2,3,2,4,5,6,5,6,7,8,7,8,9,10,9,10,11,L12

[Ornament1]
L19,19,0,0,0,0

[Ornament2]
19,L0

[Ornament3]
L0

[Ornament4]
L0,4,7,12

[Ornament5]
L0

[Ornament6]
-3,-2,-1,L0

[Ornament7]
L0

[Ornament8]
L-12,0,12,19,24,31,36

[Ornament9]
12,0,12,L0

[Ornament10]
L0

[Ornament11]
L0

[Ornament12]
L0

[Ornament13]
L0

[Ornament14]
L0

[Ornament15]
L0

[Sample1]
TnE +000_ +00_ 0_ L

[Sample2]
TNe +100_ +08_ F_
Tne +200_ +00_ F_
Tne +300_ +00_ F_
tnE +000_ +00_ 0_ L

[Sample3]
TNe +100_ +03_ F_
Tne +200_ +00_ F_
TNe +300_ +00_ E_
TNe +064^ +03^ C_ L
TNe +064^ +00^ C-

[Sample4]
TNe +000_ +00_ F_
Tne +000_ +00_ F_ L
Tne +000_ +00_ F-

[Sample5]
Tne +000_ +00_ F_
Tne +000_ +00_ F_ L
Tne +000_ +00_ F-

[Sample6]
tne +000_ +00_ 0_ L

[Sample7]
Tne +002^ +00_ F_
Tne +000_ +00_ F_ L
Tne +000_ +00_ F-

[Sample8]
tnE +000_ +00_ 0_ L

[Sample9]
TNe +000_ +00_ F_
Tne +000_ +00_ F-
Tne +000_ +00_ E_
Tne +000_ +00_ D_
Tne +000_ +00_ B_
Tne +000_ +00_ 8_
Tne +000_ +00_ 5- L

[Sample10]
Tne +000_ +00_ E_
Tne +000_ +00_ F_
Tne +000_ +00_ F_
Tne +000_ +00_ F_
Tne +000_ +00_ F_
Tne +000_ +00_ E_
Tne +000_ +00_ E_
Tne +000_ +00_ D_
Tne +000_ +00_ D_
Tne +000_ +00_ C_ L
Tne -001_ +00_ C_
Tne -002_ +00_ C_
Tne -001_ +00_ C_
Tne +000_ +00_ C_
Tne +001_ +00_ C_
Tne +002_ +00_ C_
Tne +001_ +00_ C_

[Sample11]
TNe +000_ +00_ F_ L
TNe +000_ +00_ F_
TNe +000_ +00_ D_
TNe +000_ +00_ D-

[Sample12]
TNe +000_ +00_ F_ L

[Sample13]
tne +000_ +00_ 0_ L

[Sample14]
tne +000_ +00_ 0_ L

[Sample15]
tne +000_ +00_ 0_ L

[Sample16]
tne +000_ +00_ 0_ L

[Sample17]
tne +000_ +00_ 0_ L

[Sample18]
tne +000_ +00_ 0_ L

[Sample19]
tne +000_ +00_ 0_ L

[Sample20]
tne +000_ +00_ 0_ L

[Sample21]
tne +000_ +00_ 0_ L

[Sample22]
tne +000_ +00_ 0_ L

[Sample23]
tne +000_ +00_ 0_ L

[Sample24]
tne +000_ +00_ 0_ L

[Sample25]
tne +000_ +00_ 0_ L

[Sample26]
tne +000_ +00_ 0_ L

[Sample27]
tne +000_ +00_ 0_ L

[Sample28]
tne +000_ +00_ 0_ L

[Sample29]
tne +000_ +00_ 0_ L

[Sample30]
tne +000_ +00_ 0_ L

[Sample31]
tne +000_ +00_ 0_ L

[Pattern0]
....|..|R-- .... ....|G#4 4F.F B..4|R-- .... ....
....|..|--- .... ....|--- .... ....|--- .... ....
....|..|B-4 4F.F ....|--- .... ....|--- .... ....
....|..|--- .... ....|--- .... ....|--- .... ....
....|..|--- .... ....|E-5 ..6. ....|--- .... ....
....|..|--- .... ....|--- .... ....|--- .... ....
....|..|--- .... ....|--- .... ....|G#4 4F.F ....
....|..|--- .... ....|--- .... ....|--- .... ....
....|..|--- .... ....|B-4 .F.. ....|--- .... ....
....|..|--- .... ....|--- .... ....|--- .... ....
....|..|E-5 .... ....|--- .... ....|--- .... ....
....|..|--- .... ....|--- .... ....|--- .... ....
....|..|--- .... ....|G#4 .... ....|--- .... ....
....|..|--- .... ....|--- .... ....|--- .... ....
....|..|--- .... ....|--- .... ....|A-4 .... ....
....|..|--- .... ....|--- .... ....|--- .... ....
....|..|--- .... ....|F#4 .... ....|--- .... ....
....|..|--- .... ....|--- .... ....|--- .... ....
....|..|B-4 .... ....|--- .... ....|--- .... ....
....|..|--- .... ....|--- .... ....|--- .... ....
....|..|--- .... ....|F#5 ..6. ....|--- .... ....
....|..|--- .... ....|--- .... ....|--- .... ....
....|..|--- .... ....|--- .... ....|F#4 .... ....
....|..|--- .... ....|--- .... ....|--- .... ....
....|..|--- .... ....|B-4 .F.. ....|--- .... ....
....|..|--- .... ....|--- .... ....|--- .... ....
....|..|F#5 .... ....|--- .... ....|--- .... ....
....|..|--- .... ....|--- .... ....|--- .... ....
....|..|--- .... ....|F#4 .... ....|--- .... ....
....|..|--- .... ....|--- .... ....|--- .... ....
....|..|--- .... ....|--- .... ....|G#4 .... ....
....|..|--- .... ....|--- .... ....|--- .... ....
....|..|--- .... ....|E-4 .... ....|--- .... ....
....|..|--- .... ....|--- .... ....|--- .... ....
....|..|A-4 .... ....|--- .... ....|--- .... ....
....|..|--- .... ....|--- .... ....|--- .... ....
....|..|--- .... ....|E-5 ..6. ....|--- .... ....
....|..|--- .... ....|--- .... ....|--- .... ....
....|..|--- .... ....|--- .... ....|E-4 .... ....
....|..|--- .... ....|--- .... ....|--- .... ....
....|..|--- .... ....|A-4 .F.. ....|--- .... ....
....|..|--- .... ....|--- .... ....|--- .... ....
....|..|E-5 .... ....|--- .... ....|--- .... ....
....|..|--- .... ....|--- .... ....|--- .... ....
....|..|--- .... ....|E-4 .... ....|--- .... ....
....|..|--- .... ....|--- .... ....|--- .... ....
....|..|--- .... ....|--- .... ....|B-4 .... ....
....|..|--- .... ....|--- .... ....|--- .... ....
....|..|--- .... B..5|F#4 .... ....|--- .... ....
....|..|--- .... ....|--- .... ....|--- .... ....
....|..|B-4 .... ....|--- .... ....|--- .... ....
....|..|--- .... ....|--- .... ....|--- .... ....
....|..|--- .... ....|F#5 ..6. ....|--- .... ....
....|..|--- .... ....|--- .... ....|--- .... ....
....|..|--- .... ....|--- .... ....|F#4 .... ....
....|..|--- .... ....|--- .... ....|--- .... ....
....|..|--- .... ....|B-4 .F.. ....|--- .... ....
....|..|--- .... ....|--- .... ....|--- .... ....
....|..|F#5 .... 31.C|--- .... B..6|--- .... ....
....|..|--- .... ....|--- .... ....|--- .... ....
....|..|--- .... ....|B-4 ...A ....|--- .... ....
....|..|--- .... ....|--- .... ....|--- .... ....
....|..|--- .... ....|--- .... ....|F#5 ...A ....
....|..|--- .... ....|--- .... ....|--- .... ....

[Pattern1]
....|.4|--- .... ....|G#4 4F.F B..4|E-3 9F1F ....
....|..|G#4 7F.A ....|--- .... ....|--- .... ....
....|..|--- .... ....|B-4 5... ....|E-2 .... ....
....|..|B-4 .... ....|--- .... ....|--- .... ....
....|..|--- .... ....|E-5 4... ....|E-4 ..4. ....
....|..|E-5 .... ....|--- .... ....|--- .... ....
....|..|--- .... ....|G#4 5... ....|E-3 ..1. ....
....|..|G#4 .... ....|--- .... ....|--- .... ....
....|.4|--- .... ....|B-4 4... ....|E-2 .... ....
....|..|B-4 .... ....|--- .... ....|--- .... ....
....|..|--- .... ....|E-5 5... ....|E-4 ..4. ....
....|..|E-5 .... ....|--- .... ....|--- .... ....
....|..|--- .... ....|G#4 4... ....|E-3 ..1. ....
....|..|G#4 .... ....|--- .... ....|--- .... ....
....|..|--- .... ....|A-4 5... ....|E-2 .... ....
....|..|A-4 .... ....|--- .... ....|--- .... ....
....|.4|--- .... ....|F#4 4... ....|D-3 .... ....
....|..|F#4 .... ....|--- .... ....|--- .... ....
....|..|--- .... ....|B-4 5... ....|D-2 .... ....
....|..|B-4 .... ....|--- .... ....|--- .... ....
....|..|--- .... ....|F#5 4... ....|D-4 ..4. ....
....|..|F#5 .... ....|--- .... ....|--- .... ....
....|..|--- .... ....|F#4 5... ....|D-3 ..1. ....
....|..|F#4 .... ....|--- .... ....|--- .... ....
....|.4|--- .... ....|B-4 4... ....|D-2 .... ....
....|..|B-4 .... ....|--- .... ....|--- .... ....
....|..|--- .... ....|F#5 5... ....|D-4 ..4. ....
....|..|F#5 .... ....|--- .... ....|--- .... ....
....|..|--- .... ....|F#4 4... ....|D-3 ..1. ....
....|..|F#4 .... ....|--- .... ....|--- .... ....
....|..|--- .... ....|G#4 5... ....|D-2 .... ....
....|..|G#4 .... ....|--- .... ....|--- .... ....
....|.4|--- .... ....|E-4 4... ....|A-2 .... ....
....|..|E-4 .... ....|--- .... ....|--- .... ....
....|..|--- .... ....|A-4 5... ....|A-1 .... ....
....|..|A-4 .... ....|--- .... ....|--- .... ....
....|..|--- .... ....|E-5 4... ....|A-4 ..4. ....
....|..|E-5 .... ....|--- .... ....|--- .... ....
....|..|--- .... ....|E-4 5... ....|A-2 ..1. ....
....|..|E-4 .... ....|--- .... ....|--- .... ....
....|.4|--- .... ....|A-4 4... ....|A-1 .... ....
....|..|A-4 .... ....|--- .... ....|--- .... ....
....|..|--- .... ....|E-5 5... ....|A-4 ..4. ....
....|..|E-5 .... ....|--- .... ....|--- .... ....
....|..|--- .... ....|E-4 4... ....|A-2 ..1. ....
....|..|E-4 .... ....|--- .... ....|--- .... ....
....|..|--- .... ....|B-4 5... ....|A-1 .... ....
....|..|B-4 .... ....|--- .... ....|--- .... ....
....|.4|--- .... ....|F#4 4... ....|B-2 .... ....
....|..|F#4 .... ....|--- .... ....|--- .... ....
....|..|--- .... ....|B-4 5... ....|B-1 .... ....
....|..|B-4 .... ....|--- .... ....|--- .... ....
....|..|--- .... ....|F#5 4... ....|B-4 ..4. ....
....|..|F#5 .... ....|--- .... ....|--- .... ....
....|..|--- .... ....|F#4 5... ....|B-2 ..1. ....
....|..|F#4 .... ....|--- .... ....|--- .... ....
....|.4|--- .... ....|B-4 4... ....|B-1 .... ....
....|..|B-4 .... ....|--- .... ....|--- .... ....
..1C|..|B-1 8E.. ....|F#5 5... B..4|B-4 ..4. ....
....|..|--- .... ....|--- .... ....|--- .... ....
....|..|--- .... 91.1|--- .... 11.3|--- .... ....
....|..|--- .... ....|--- .... ....|--- .... ....
....|..|--- .... ....|--- .... ....|--- .... ....
....|..|F#5 .... ....|--- .... ....|--- .... ....

[Pattern2]
..29|.6|--- .... ....|G#4 4F.F B..4|E-4 2E.F ....
....|..|--- .... ....|E-3 5..A ....|--- .... ....
..53|..|--- .... ....|B-4 4..F ....|E-1 18.. ....
....|..|--- .... ....|G#4 5..A ....|--- .... ....
....|..|B-3 5F2F ....|E-5 4..F ....|E-4 5F4. ....
....|..|--- .... ....|B-4 5..A ....|--- .... ....
..29|..|E-3 ...C ....|G#4 4..F ....|E-2 18.. ....
....|..|--- .... ....|E-5 5..A ....|--- .... ....
..53|.4|E-4 ...F ....|B-4 4..F ....|E-4 38.. ....
....|..|--- .... ....|G#4 5..A ....|--- .... ....
....|..|B-3 ...C ....|E-5 4..F ....|E-4 5F4. ....
....|..|--- .... ....|B-4 5..A ....|--- .... ....
..29|..|G#4 ...F ....|G#4 4..F ....|E-2 18.. ....
....|..|--- .... ....|E-5 5..A ....|--- .... ....
..53|..|E-4 ...C ....|A-4 4..F ....|E-1 .8.. ....
....|..|--- .... ....|G#4 5..A ....|--- .... ....
..2F|.6|B-4 ...F ....|F#4 4..F ....|E-4 2E.. ....
....|..|--- .... ....|A-4 5..A ....|--- .... ....
..5D|..|G#4 ...C ....|B-4 4..F ....|D-1 18.. ....
....|..|--- .... ....|F#4 5..A ....|--- .... ....
....|..|B-4 .... ....|F#5 4..F ....|D-4 5F4. ....
....|..|--- .... ....|B-4 5..A ....|--- .... ....
..2F|..|F#5 ...F ....|F#4 4..F ....|D-2 18.. ....
....|..|--- .... ....|F#5 5..A ....|--- .... ....
..5D|.4|B-4 ...C ....|B-4 4..F ....|E-4 38.. ....
....|..|--- .... ....|F#4 5..A ....|--- .... ....
....|..|F#5 .... ....|F#5 4..F ....|D-4 5F4. ....
....|..|--- .... ....|B-4 5..A ....|--- .... ....
..2F|..|F#5 ...F ....|F#4 4..F ....|E-4 28.. ....
....|..|--- .... ....|F#5 5..A ....|--- .... ....
..5D|..|--- .... ....|G#4 4..F ....|D-4 18.. ....
....|..|--- .... ....|F#4 5..A ....|--- .... ....
..1F|.6|A-5 .... ....|E-4 4..F ....|E-4 2E.. ....
....|..|--- .... ....|G#4 5..A ....|--- .... ....
..3E|..|F#5 ...C ....|A-4 4..F ....|A-1 18.. ....
....|..|--- .... ....|E-4 5..A ....|--- .... ....
....|..|A-5 .... ....|E-5 4..F ....|A-4 5F4. ....
....|..|--- .... ....|A-4 5..A ....|--- .... ....
..1F|..|G#5 ...F ....|E-4 4..F ....|A-2 18.. ....
....|..|--- .... ....|E-5 5..A ....|--- .... ....
..3E|.4|A-5 ...C ....|A-4 4..F ....|E-4 38.. ....
....|..|--- .... ....|E-4 5..A ....|--- .... ....
....|..|G#5 .... ....|E-5 4..F ....|A-4 5F4. ....
....|..|--- .... ....|A-4 5..A ....|--- .... ....
..1F|..|B-4 ...F ....|E-4 4..F ....|A-2 18.. ....
....|..|--- .... ....|E-5 5..A ....|--- .... ....
..3E|..|--- .... ....|B-4 4..F ....|A-1 .8.. ....
....|..|--- .... ....|E-4 5..A ....|--- .... ....
..1C|.6|E-5 .... ....|F#4 4..F ....|E-4 2E.. ....
....|..|--- .... ....|B-4 5..A ....|--- .... ....
..37|..|B-4 ...C ....|B-4 4..F ....|B-1 18.. ....
....|..|--- .... ....|F#4 5..A ....|--- .... ....
....|..|E-5 .... ....|F#5 4..F ....|B-4 5F4. ....
....|..|--- .... ....|B-4 5..A ....|--- .... ....
..1C|..|F#5 ...F ....|F#4 4..F ....|B-2 18.. ....
....|..|--- .... ....|F#5 5..A ....|--- .... ....
..37|.4|E-5 ...C ....|B-4 4..F ....|E-4 38.. ....
....|..|--- .... ....|F#4 5..A ....|--- .... ....
....|..|F#5 .... ....|F#5 4..F ....|B-4 5F4. ....
....|..|--- .... ....|B-4 5..A ....|--- .... ....
..1C|.3|D#5 ...F ....|F#4 4..F ....|E-4 38.. ....
....|..|--- .... ....|F#5 5..A ....|--- .... ....
..37|.3|--- .... ....|G#4 4..F ....|E-4 .8.. ....
....|..|--- .... ....|F#4 5..A ....|--- .... ....

[Pattern3]
..29|.6|E-5 5F2F ....|G#4 4F.F B..4|E-4 2E.F ....
....|..|--- .... ....|E-3 5..A ....|--- .... ....
..53|..|--- .... ....|B-4 4..F ....|E-1 18.. ....
....|..|--- .... ....|G#4 5..A ....|--- .... ....
....|..|B-3 .... ....|E-5 4..F ....|E-4 5F4. ....
....|..|--- .... ....|B-4 5..A ....|--- .... ....
..29|..|E-5 ...C ....|G#4 4..F ....|E-2 18.. ....
....|..|--- .... ....|E-5 5..A ....|--- .... ....
..53|.4|E-4 ...F ....|B-4 4..F ....|E-4 38.. ....
....|..|--- .... ....|G#4 5..A ....|--- .... ....
....|..|B-3 ...C ....|E-5 4..F ....|E-4 5F4. ....
....|..|--- .... ....|B-4 5..A ....|--- .... ....
..29|..|G#4 ...F ....|G#4 4..F ....|E-2 18.. ....
....|..|--- .... ....|E-5 5..A ....|--- .... ....
..53|..|E-4 ...C ....|A-4 4..F ....|E-1 .8.. ....
....|..|--- .... ....|G#4 5..A ....|--- .... ....
..2F|.6|B-4 ...F ....|F#4 4..F ....|E-4 2E.. ....
....|..|--- .... ....|A-4 5..A ....|--- .... ....
..5D|..|G#4 ...C ....|B-4 4..F ....|D-1 18.. ....
....|..|--- .... ....|F#4 5..A ....|--- .... ....
....|..|B-4 .... ....|F#5 4..F ....|D-4 5F4. ....
....|..|--- .... ....|B-4 5..A ....|--- .... ....
..2F|..|F#5 ...F ....|F#4 4..F ....|D-2 18.. ....
....|..|--- .... ....|F#5 5..A ....|--- .... ....
..5D|.4|B-4 ...C ....|B-4 4..F ....|E-4 38.. ....
....|..|--- .... ....|F#4 5..A ....|--- .... ....
....|..|F#5 .... ....|F#5 4..F ....|D-4 5F4. ....
....|..|--- .... ....|B-4 5..A ....|--- .... ....
..2F|..|F#5 ...F ....|F#4 4..F ....|E-4 28.. ....
....|..|--- .... ....|F#5 5..A ....|--- .... ....
..5D|..|--- .... ....|G#4 4..F ....|D-5 18.. ....
....|..|--- .... ....|F#4 5..A ....|--- .... ....
..1F|.6|A-5 .... ....|E-4 4..F ....|E-4 2E.. ....
....|..|--- .... ....|G#4 5..A ....|--- .... ....
..3E|..|F#5 ...C ....|A-4 4..F ....|A-1 18.. ....
....|..|--- .... ....|E-4 5..A ....|--- .... ....
....|..|A-5 .... ....|E-5 4..F ....|A-4 5F4. ....
....|..|--- .... ....|A-4 5..A ....|--- .... ....
..1F|..|G#5 ...F ....|E-4 4..F ....|A-2 18.. ....
....|..|--- .... ....|E-5 5..A ....|--- .... ....
..3E|.4|A-5 ...C ....|A-4 4..F ....|E-4 38.. ....
....|..|--- .... ....|E-4 5..A ....|--- .... ....
....|..|G#5 .... ....|E-5 4..F ....|A-4 5F4. ....
....|..|--- .... ....|A-4 5..A ....|--- .... ....
..1F|..|E-5 ...F ....|E-4 4..F ....|A-2 18.. ....
....|..|--- .... ....|E-5 5..A ....|--- .... ....
..3E|..|--- .... ....|B-4 4..F ....|A-1 .8.. ....
....|..|--- .... ....|E-4 5..A ....|--- .... ....
..1C|.6|F#5 .... ....|F#4 4..F ....|E-4 2E.. ....
....|..|--- .... ....|B-4 5..A ....|--- .... ....
..37|..|--- .... ....|B-4 4..F ....|B-1 18.. ....
....|..|--- .... ....|F#4 5..A ....|--- .... ....
....|..|E-5 ...C ....|F#5 4..F ....|B-4 5F4. ....
....|..|--- .... ....|B-4 5..A ....|--- .... ....
..1C|..|F#5 .... ....|F#4 4..F ....|B-2 18.. ....
....|..|--- .... ....|F#5 5..A ....|--- .... ....
..37|.4|--- .... ....|B-4 4..F ....|E-4 38.. ....
....|..|--- .... ....|F#4 5..A ....|--- .... ....
....|..|E-5 ...A ....|F#5 4..F ....|B-4 5F4. ....
....|..|--- .... ....|B-4 5..A ....|--- .... ....
..1C|.4|F#5 .... ....|F#4 4..F ....|E-4 38.. ....
....|..|--- .... ....|F#5 5..A ....|--- .... ....
..37|.4|--- .... ....|G#4 4..F ....|E-4 .8.. ....
....|..|--- .... ....|F#4 5..A ....|--- .... ....

[Pattern4]
..29|.6|E-5 5F2F ....|G#4 4F.F B..4|E-4 2E.F ....
....|..|--- .... ....|E-3 5..A ....|--- .... ....
..53|..|--- .... ....|B-4 4..F ....|E-1 18.. ....
....|..|--- .... ....|G#4 5..A ....|--- .... ....
....|..|B-3 .... ....|E-5 4..F ....|E-4 5F4. ....
....|..|--- .... ....|B-4 5..A ....|--- .... ....
..29|..|E-5 ...C ....|G#4 4..F ....|E-2 18.. ....
....|..|--- .... ....|E-5 5..A ....|--- .... ....
..53|.4|E-4 ...F ....|B-4 4..F ....|E-4 38.. ....
....|..|--- .... ....|G#4 5..A ....|--- .... ....
....|..|B-3 ...C ....|E-5 4..F ....|E-4 5F4. ....
....|..|--- .... ....|B-4 5..A ....|--- .... ....
..29|..|G#4 ...F ....|G#4 4..F ....|E-2 18.. ....
....|..|--- .... ....|E-5 5..A ....|--- .... ....
..53|..|E-4 ...C ....|A-4 4..F ....|E-1 .8.. ....
....|..|--- .... ....|G#4 5..A ....|--- .... ....
..2F|.6|B-4 ...F ....|F#4 4..F ....|E-4 2E.. ....
....|..|--- .... ....|A-4 5..A ....|--- .... ....
..5D|..|G#4 ...C ....|B-4 4..F ....|D-1 18.. ....
....|..|--- .... ....|F#4 5..A ....|--- .... ....
....|..|B-4 .... ....|F#5 4..F ....|D-4 5F4. ....
....|..|--- .... ....|B-4 5..A ....|--- .... ....
..2F|..|F#5 ...F ....|F#4 4..F ....|D-2 18.. ....
....|..|--- .... ....|F#5 5..A ....|--- .... ....
..5D|.4|B-4 ...C ....|B-4 4..F ....|E-4 38.. ....
....|..|--- .... ....|F#4 5..A ....|--- .... ....
....|..|F#5 .... ....|F#5 4..F ....|D-4 5F4. ....
....|..|--- .... ....|B-4 5..A ....|--- .... ....
..2F|..|F#5 ...F ....|F#4 4..F ....|E-4 28.. ....
....|..|--- .... ....|F#5 5..A ....|--- .... ....
..5D|..|--- .... ....|G#4 4..F ....|D-5 18.. ....
....|..|--- .... ....|F#4 5..A ....|--- .... ....
..1F|.6|A-5 .... 31.6|E-4 4..F ....|E-4 2E.. ....
....|..|--- .... ....|G#4 5..A ....|--- .... ....
..3E|..|F#5 ...C ....|A-4 4..F ....|A-1 18.. ....
....|..|--- .... ....|E-4 5..A ....|--- .... ....
....|..|A-5 .... ....|E-5 4..F ....|A-4 5F4. ....
....|..|--- .... ....|A-4 5..A ....|--- .... ....
..1F|..|G#5 ...F ....|E-4 4..F ....|A-2 18.. ....
....|..|--- .... ....|E-5 5..A ....|--- .... ....
..3E|.4|A-5 ...C ....|A-4 4..F ....|E-4 38.. ....
....|..|--- .... ....|E-4 5..A ....|--- .... ....
....|..|G#5 .... ....|E-5 4..F ....|A-4 5F4. ....
....|..|--- .... ....|A-4 5..A ....|--- .... ....
..1F|..|E-5 ...F ....|E-4 4..F ....|A-2 18.. ....
....|..|--- .... ....|E-5 5..A ....|--- .... ....
..3E|..|--- .... ....|B-4 4..F ....|A-1 .8.. ....
....|..|--- .... ....|E-4 5..A ....|--- .... ....
..1C|.6|F#5 A... 31.3|F#4 4..F ....|E-4 2E.. ....
....|..|--- .... ....|B-4 5..A ....|--- .... ....
..37|..|--- .... ....|B-4 4..F ....|B-1 18.. ....
....|..|--- .... ....|F#4 5..A ....|--- .... ....
....|..|--- .... 11.6|F#5 4..F ....|B-4 5F4. ....
....|..|--- .... ....|B-4 5..A ....|--- .... ....
..1C|..|F#5 ...A ....|F#4 4..F ....|B-2 18.. ....
....|..|--- .... ....|F#5 5..A ....|--- .... ....
..37|.4|--- .... ....|B-4 4..F ....|E-4 38.. ....
....|..|--- .... ....|F#4 5..A ....|--- .... ....
....|..|--- .... 11.6|F#5 4..F ....|B-4 5F4. ....
....|..|--- .... ....|B-4 5..A ....|--- .... ....
..1C|.4|E-5 C.86 ....|F#4 4..F ....|E-4 38.. ....
....|..|--- ...8 ....|F#5 5..A ....|--- .... ....
..37|.4|--- ...A ....|G#4 C..F ....|E-4 .8.. ....
....|..|--- ...C ....|F#4 ...A ....|--- .... ....

[Pattern5]
..29|.6|E-5 BF8F ....|G#5 4F.E B..4|E-4 2E.F ....
....|..|--- .... ....|E-4 5.4A ....|--- .... ....
..53|..|--- .... ....|B-5 4F.E ....|E-1 18.. ....
....|..|--- .... ....|E-4 5.4A ....|--- .... ....
....|..|--- .... ....|E-6 C.6E ....|E-4 5F4. ....
....|..|--- .... ....|E-4 5.4A ....|--- .... ....
..29|..|--- .... ....|G#5 4F.E ....|E-2 18.. ....
....|..|E-5 AF.A ....|E-4 5.4A ....|--- .... ....
..53|.4|G#5 ...F 31.6|B-5 4F.E ....|E-4 38.. ....
....|..|--- .... ....|E-4 5.4A ....|--- .... ....
....|..|--- .... ....|E-6 4.6E ....|E-4 5F4. ....
....|..|--- .... ....|E-4 5.4A ....|--- .... ....
..29|..|--- .... 1110|G#5 4F.E ....|E-2 18.. ....
....|..|--- .... ....|E-4 5.4A ....|--- .... ....
..53|..|G#5 ...A ....|A-5 4F.E ....|E-1 .8.. ....
....|..|--- .... ....|E-4 5.4A ....|--- .... ....
..2F|.6|F#5 ...F ....|F#5 4F.E ....|E-4 2E.. ....
....|..|--- .... ....|D-4 5.4A ....|--- .... ....
..5D|..|--- .... ....|B-5 4F.E ....|D-1 18.. ....
....|..|--- .... ....|D-4 5.4A ....|--- .... ....
....|..|--- .... ....|F#6 C.6E ....|D-4 5F4. ....
....|..|--- .... ....|D-4 5.4A ....|--- .... ....
..2F|..|--- .... 11.6|F#5 4F.E ....|D-2 18.. ....
....|..|--- .... ....|D-4 5.4A ....|--- .... ....
..5D|.4|F#5 ...C ....|B-5 4F.E ....|E-4 38.. ....
....|..|--- .... ....|D-4 5.4A ....|--- .... ....
....|..|--- .... 11.6|F#6 4.6E ....|D-4 5F4. ....
....|..|--- .... ....|D-4 5.4A ....|--- .... ....
..2F|..|B-4 ...F ....|F#5 4F.E ....|E-4 28.. ....
....|..|--- .... ....|D-4 5.4A ....|--- .... ....
..5D|..|--- .... ....|G#5 4F.E ....|D-4 18.. ....
....|..|--- .... ....|D-4 5.4A ....|--- .... ....
..1F|.6|A-5 .... 31.9|E-5 4F.E ....|E-4 2E.. ....
....|..|--- .... ....|A-4 5.4A ....|--- .... ....
..3E|..|--- .... ....|A-5 4F.E ....|A-1 18.. ....
....|..|--- .... ....|A-4 5.4A ....|--- .... ....
....|..|--- .... ....|E-6 C.6E ....|A-4 5F4. ....
....|..|--- .... ....|A-4 5.4A ....|--- .... ....
..1F|..|E-5 .... ....|E-5 4F.E ....|A-2 18.. ....
....|..|--- .... ....|A-4 5.4A ....|--- .... ....
..3E|.4|--- .... ....|A-5 4F.E ....|E-4 38.. ....
....|..|--- .... 11.6|A-4 5.4A ....|--- .... ....
....|..|--- .... ....|E-6 4.6E ....|A-4 5F4. ....
....|..|--- .... ....|A-4 5.4A ....|--- .... ....
..1F|..|E-5 .... ....|E-5 4F.E ....|A-2 18.. ....
....|..|--- .... ....|A-4 5.4A ....|--- .... ....
..3E|..|--- .... ....|B-5 4F.E ....|A-1 .8.. ....
....|..|--- .... ....|A-4 5.4A ....|--- .... ....
..1C|.6|F#5 .... 31.3|F#5 4F.E ....|E-4 2E.. ....
....|..|--- .... ....|B-4 5.4A ....|--- .... ....
..37|..|--- .... ....|B-5 4.6E ....|B-1 18.. ....
....|..|--- .... ....|B-4 5.4A ....|--- .... ....
....|..|--- .... 11.6|F#5 CF.E ....|B-4 5F4. ....
....|..|--- .... ....|B-4 5.4A ....|--- .... ....
..1C|..|G#5 .... ....|F#4 4F.E ....|B-2 18.. ....
....|..|--- .... ....|B-4 5.4A ....|--- .... ....
..37|.4|--- .... 11.6|B-4 4.6E ....|E-4 38.. ....
....|..|--- .... ....|B-4 5.4A ....|--- .... ....
....|..|G#5 ...C ....|F#5 4F.E ....|B-4 5F4. ....
....|..|--- .... ....|B-4 5.4A ....|--- .... ....
..1C|.4|F#5 ...F ....|F#4 4F.E ....|E-4 38.. ....
....|..|--- .... ....|B-4 5.4A ....|--- .... ....
..37|.4|--- .... ....|G#4 4F.E ....|E-4 .8.. ....
....|..|--- .... ....|B-4 5.4A ....|--- .... ....

[Pattern6]
..29|.6|E-5 AF.F ....|G#4 4F.E B..4|E-4 2E.F ....
....|..|--- .... ....|E-4 5.4A ....|--- .... ....
..53|..|--- .... ....|B-4 4F.E ....|E-1 18.. ....
....|..|--- .... 11.6|E-4 5.4A ....|--- .... ....
....|..|--- .... ....|E-5 C.6E ....|E-4 5F4. ....
....|..|--- .... ....|E-4 5.4A ....|--- .... ....
..29|..|--- .... ....|G#4 4F.E ....|E-2 18.. ....
....|..|E-5 ...A ....|E-4 5.4A ....|--- .... ....
..53|.4|G#5 ...F 31.6|B-4 4F.E ....|E-4 38.. ....
....|..|--- .... ....|E-4 5.4A ....|--- .... ....
....|..|--- .... ....|E-5 4.6E ....|E-4 5F4. ....
....|..|--- .... ....|E-4 5.4A ....|--- .... ....
..29|..|--- .... 1110|G#4 4F.E ....|E-2 18.. ....
....|..|--- .... ....|E-4 5.4A ....|--- .... ....
..53|..|G#5 ...A ....|A-4 4F.E ....|E-1 .8.. ....
....|..|--- .... ....|E-4 5.4A ....|--- .... ....
..2F|.6|F#5 ...F ....|F#4 4F.E ....|E-4 2E.. ....
....|..|--- .... ....|D-4 5.4A ....|--- .... ....
..5D|..|--- .... ....|B-4 4F.E ....|D-1 18.. ....
....|..|--- .... ....|D-4 5.4A ....|--- .... ....
....|..|--- .... ....|F#5 C.6E ....|D-4 5F4. ....
....|..|--- .... ....|D-4 5.4A ....|--- .... ....
..2F|..|--- .... 11.6|F#4 4F.E ....|D-2 18.. ....
....|..|--- .... ....|D-4 5.4A ....|--- .... ....
..5D|.4|F#5 ...C ....|B-4 4F.E ....|E-4 38.. ....
....|..|--- .... ....|D-4 5.4A ....|--- .... ....
....|..|--- .... 11.6|F#5 4.6E ....|D-4 5F4. ....
....|..|--- .... ....|D-4 5.4A ....|--- .... ....
..2F|..|B-4 ...F ....|F#4 4F.E ....|E-4 28.. ....
....|..|--- .... ....|D-4 5.4A ....|--- .... ....
..5D|..|--- .... ....|G#4 4F.E ....|D-4 18.. ....
....|..|--- .... ....|D-3 5.4A ....|--- .... ....
..1F|.6|A-5 .... 31.9|E-4 4F.E ....|E-4 2E.. ....
....|..|--- .... ....|A-3 5.4A ....|--- .... ....
..3E|..|--- .... ....|A-4 4F.E ....|A-1 18.. ....
....|..|--- .... ....|A-3 5.4A ....|--- .... ....
....|..|--- .... ....|E-5 C.6E ....|A-4 5F4. ....
....|..|--- .... ....|A-3 5.4A ....|--- .... ....
..1F|..|E-5 .... ....|E-4 4F.E ....|A-2 18.. ....
....|..|--- .... ....|A-3 5.4A ....|--- .... ....
..3E|.4|--- .... ....|A-4 4F.E ....|E-4 38.. ....
....|..|--- .... 11.6|A-3 5.4A ....|--- .... ....
....|..|--- .... ....|E-5 4.6E ....|A-4 5F4. ....
....|..|--- .... ....|A-3 5.4A ....|--- .... ....
..1F|..|G#5 .... ....|E-4 4F.E ....|A-2 18.. ....
....|..|--- .... ....|A-3 5.4A ....|--- .... ....
..3E|..|--- .... ....|B-4 4F.E ....|A-1 .8.. ....
....|..|--- .... ....|A-3 5.4A ....|--- .... ....
..1C|.6|F#5 .... 31.3|F#4 4F.E ....|E-4 2E.. ....
....|..|--- .... ....|B-3 5.4A ....|--- .... ....
..37|..|--- .... ....|B-4 4.6E ....|B-1 18.. ....
....|..|--- .... ....|B-3 5.4A ....|--- .... ....
....|..|--- .... 11.6|F#4 CF.E ....|B-4 5F4. ....
....|..|--- .... ....|B-3 5.4A ....|--- .... ....
..1C|..|F#5 ...C ....|F#3 4F.E ....|B-2 18.. ....
....|..|--- .... ....|B-3 5.4A ....|--- .... ....
..37|.4|--- .... 11.6|B-3 4.6E ....|E-4 38.. ....
....|..|--- .... ....|B-3 5.4A ....|--- .... ....
....|..|F#5 ...A ....|F#4 4F.E ....|B-4 5F4. ....
....|..|--- .... ....|B-3 5.4A ....|--- .... ....
....|.4|--- .... 11.6|F#3 4F.E ....|E-4 38.. ....
....|..|--- .... ....|B-3 5.4A ....|--- .... ....
..37|.4|F#5 .... ....|G#3 4F.E ....|E-4 .8.. ....
....|..|--- .... ....|B-3 5.4A ....|--- .... ....

[Pattern7]
..29|.6|E-5 BF8F ....|G#4 4F9F B..4|E-4 2E.F ....
....|..|--- .... ....|E-3 5..A ....|--- .... ....
..53|..|--- .... ....|B-4 4..F ....|E-1 18.. ....
....|..|--- .... ....|G#4 5..A ....|--- .... ....
....|..|--- .... ....|E-5 4..F ....|E-4 5F4. ....
....|..|--- .... ....|B-4 5..A ....|--- .... ....
..29|..|--- .... ....|G#4 4..F ....|E-2 18.. ....
....|..|--- .... ....|E-5 5..A ....|--- .... ....
..53|.4|B-5 5F.. ....|B-4 4..F ....|E-4 38.. ....
....|..|--- .... ....|G#4 5..A ....|--- .... ....
....|..|G#5 .... ....|E-5 4..F ....|E-4 5F4. ....
....|..|--- .... ....|B-4 5..A ....|--- .... ....
..29|..|B-5 .... ....|G#4 4..F ....|E-2 18.. ....
....|..|--- .... ....|E-5 5..A ....|--- .... ....
..53|..|--- .... ....|A-4 4..F ....|E-1 .8.. ....
....|..|--- .... ....|G#4 5..A ....|--- .... ....
..2F|.6|C#6 A... ....|F#4 4..F ....|E-4 2E.. ....
....|..|--- .... ....|A-4 5..A ....|--- .... ....
..5D|..|--- .... ....|B-4 4..F ....|D-1 18.. ....
....|..|--- .... ....|F#4 5..A ....|--- .... ....
....|..|--- .... ....|F#5 4..F ....|D-4 5F4. ....
....|..|--- .... ....|B-4 5..A ....|--- .... ....
..2F|..|B-5 .... ....|F#4 4..F ....|D-2 18.. ....
....|..|--- .... ....|F#5 5..A ....|--- .... ....
..5D|.4|--- .... ....|B-4 4..F ....|E-4 38.. ....
....|..|--- .... ....|F#4 5..A ....|--- .... ....
....|..|--- .... ....|F#5 4..F ....|D-4 5F4. ....
....|..|--- .... ....|B-4 5..A ....|--- .... ....
..2F|..|--- .... 11.6|F#4 4..F ....|E-4 28.. ....
....|..|--- .... ....|F#5 5..A ....|--- .... ....
..5D|..|B-5 ...C ....|G#4 4..F ....|D-4 18.. ....
....|..|--- .... ....|F#4 5..A ....|--- .... ....
..1F|.6|--- .... ....|E-4 4..F ....|E-4 2E.. ....
....|..|--- .... ....|G#4 5..A ....|--- .... ....
..3E|..|--- .... 11.6|A-4 4..F ....|A-1 18.. ....
....|..|--- .... ....|E-4 5..A ....|--- .... ....
....|..|B-5 ...A ....|E-5 4..F ....|A-4 5F4. ....
....|..|--- .... ....|A-4 5..A ....|--- .... ....
..1F|..|--- .... ....|E-4 4..F ....|A-2 18.. ....
....|..|--- .... ....|E-5 5..A ....|--- .... ....
..3E|.4|B-5 4..F ....|A-4 4..F ....|E-4 38.. ....
....|..|--- .... ....|E-4 5..A ....|--- .... ....
....|..|G#5 .... ....|E-5 4..F ....|A-4 5F4. ....
....|..|--- .... ....|A-4 5..A ....|--- .... ....
..1F|..|B-5 .... ....|E-4 4..F ....|A-2 18.. ....
....|..|--- .... ....|E-5 5..A ....|--- .... ....
..3E|..|--- .... ....|B-4 4..F ....|A-1 .8.. ....
....|..|--- .... ....|E-4 5..A ....|--- .... ....
..1C|.6|C#6 A... ....|F#4 4..F ....|E-4 2E.. ....
....|..|--- .... ....|B-4 5..A ....|--- .... ....
..37|..|--- .... ....|B-4 4..F ....|B-1 18.. ....
....|..|--- .... ....|F#4 5..A ....|--- .... ....
....|..|--- .... ....|F#5 4..F ....|B-4 5F4. ....
....|..|--- .... ....|B-4 5..A ....|--- .... ....
..1C|..|B-5 .... ....|F#4 4..F ....|B-2 18.. ....
....|..|--- .... ....|F#5 5..A ....|--- .... ....
..37|.4|--- .... ....|B-4 4..F ....|E-4 38.. ....
....|..|--- .... ....|F#4 5..A ....|--- .... ....
....|..|--- .... 11.6|F#5 4..F ....|B-4 5F4. ....
....|..|--- .... ....|B-4 5..A ....|--- .... ....
..1C|.4|A-5 .... ....|F#4 4..F ....|E-4 38.. ....
....|..|--- .... ....|F#5 5..A ....|--- .... ....
..37|.4|--- .... ....|G#4 4..F ....|E-4 .8.. ....
....|..|--- .... ....|F#4 5..A ....|--- .... ....

[Pattern8]
..29|.6|E-5 BF8F ....|G#4 4F9F B..4|E-4 2E.F ....
....|..|--- .... ....|E-3 5..A ....|--- .... ....
..53|..|--- .... ....|B-4 4..F ....|E-1 18.. ....
....|..|--- .... ....|G#4 5..A ....|--- .... ....
....|..|--- .... ....|E-5 4..F ....|E-4 5F4. ....
....|..|--- .... ....|B-4 5..A ....|--- .... ....
..29|..|--- .... ....|G#4 4..F ....|E-2 18.. ....
....|..|--- .... ....|E-5 5..A ....|--- .... ....
..53|.4|B-5 5F.. ....|B-4 4..F ....|E-4 38.. ....
....|..|--- .... ....|G#4 5..A ....|--- .... ....
....|..|G#5 .... ....|E-5 4..F ....|E-4 5F4. ....
....|..|--- .... ....|B-4 5..A ....|--- .... ....
..29|..|B-5 .... ....|G#4 4..F ....|E-2 18.. ....
....|..|--- .... ....|E-5 5..A ....|--- .... ....
..53|..|--- .... ....|A-4 4..F ....|E-1 .8.. ....
....|..|--- .... ....|G#4 5..A ....|--- .... ....
..2F|.6|C#6 A... ....|F#4 4..F ....|E-4 2E.. ....
....|..|--- .... ....|A-4 5..A ....|--- .... ....
..5D|..|--- .... ....|B-4 4..F ....|D-1 18.. ....
....|..|--- .... ....|F#4 5..A ....|--- .... ....
....|..|--- .... ....|F#5 4..F ....|D-4 5F4. ....
....|..|--- .... ....|B-4 5..A ....|--- .... ....
..2F|..|B-5 .... ....|F#4 4..F ....|D-2 18.. ....
....|..|--- .... ....|F#5 5..A ....|--- .... ....
..5D|.4|--- .... ....|B-4 4..F ....|E-4 38.. ....
....|..|--- .... ....|F#4 5..A ....|--- .... ....
....|..|--- .... ....|F#5 4..F ....|D-4 5F4. ....
....|..|--- .... ....|B-4 5..A ....|--- .... ....
..2F|..|--- .... 11.6|F#4 4..F ....|E-4 28.. ....
....|..|--- .... ....|F#5 5..A ....|--- .... ....
..5D|..|B-5 ...C ....|G#4 4..F ....|D-4 18.. ....
....|..|--- .... ....|F#4 5..A ....|--- .... ....
..1F|.6|--- .... ....|E-4 4..F ....|E-4 2E.. ....
....|..|--- .... ....|G#4 5..A ....|--- .... ....
..3E|..|--- .... 11.6|A-4 4..F ....|A-1 18.. ....
....|..|--- .... ....|E-4 5..A ....|--- .... ....
....|..|B-5 ...A ....|E-5 4..F ....|A-4 5F4. ....
....|..|--- .... ....|A-4 5..A ....|--- .... ....
..1F|..|--- .... ....|E-4 4..F ....|A-2 18.. ....
....|..|--- .... ....|E-5 5..A ....|--- .... ....
..3E|.4|B-5 4..F ....|A-4 4..F ....|E-4 38.. ....
....|..|--- .... ....|E-4 5..A ....|--- .... ....
....|..|G#5 .... ....|E-5 4..F ....|A-4 5F4. ....
....|..|--- .... ....|A-4 5..A ....|--- .... ....
..1F|..|C#6 .... ....|E-4 4..F ....|A-2 18.. ....
....|..|--- .... ....|E-5 5..A ....|--- .... ....
..3E|..|--- .... ....|B-4 4..F ....|A-1 .8.. ....
....|..|--- .... ....|E-4 5..A ....|--- .... ....
..1C|.6|B-5 A... ....|F#4 4..F ....|E-4 2E.. ....
....|..|--- .... ....|B-4 5..A ....|--- .... ....
..37|..|--- .... ....|B-4 4..F ....|B-1 18.. ....
....|..|--- .... ....|F#4 5..A ....|--- .... ....
....|..|--- .... 11.6|F#5 4..F ....|B-4 5F4. ....
....|..|--- .... ....|B-4 5..A ....|--- .... ....
..1C|..|B-5 ...C ....|F#4 4..F ....|B-2 18.. ....
....|..|--- .... ....|F#5 5..A ....|--- .... ....
..37|.4|--- .... ....|B-4 4..F ....|E-4 38.. ....
....|..|--- .... ....|F#4 5..A ....|--- .... ....
....|..|--- .... 11.6|F#5 4..F ....|B-4 5F4. ....
....|..|--- .... ....|B-4 5..A ....|--- .... ....
..1C|.4|B-5 ...A ....|F#4 4..F ....|E-4 38.. ....
....|..|--- .... ....|F#5 5..A ....|--- .... ....
..37|.4|--- .... ....|G#4 4..F ....|E-4 .8.. ....
....|..|--- .... ....|F#4 5..A ....|--- .... ....

[Pattern9]
..29|.6|E-4 BF8F ....|G#4 4F9F B..4|E-4 2E.F ....
....|.3|--- ...E ....|E-3 5..A ....|--- .... ....
..53|.2|--- ...D ....|B-4 4..F ....|E-1 18.. ....
....|..|--- .... ....|G#4 5..A ....|--- .... ....
....|.1|E-6 4F.E ....|E-5 4..F ....|E-4 5F4. ....
....|.1|B-5 5..A ....|B-4 5..A ....|--- .... ....
..29|.1|G#5 4..E ....|G#4 4..F ....|B-3 18.. ....
....|.1|E-6 5..A ....|E-5 5..A ....|--- .... ....
..53|.4|B-5 4..E ....|B-4 4..F ....|E-4 38.. ....
....|..|G#5 5..A ....|G#4 5..A ....|--- .... ....
....|..|E-6 4..E ....|E-5 4..F ....|E-4 5F4. ....
....|.2|B-5 5..A ....|B-4 5..A ....|--- .... ....
..29|.3|G#5 4..E ....|G#4 4..F ....|B-4 18.. ....
....|.3|E-6 5..A ....|E-5 5..A ....|--- .... ....
..53|.3|A-5 4..E ....|A-4 4..F ....|E-4 .8.. ....
....|.3|G#5 5..A ....|G#4 5..A ....|--- .... ....
..2F|.6|F#5 4..E ....|F#4 4..F ....|E-4 2E.. ....
....|.4|A-5 5..A ....|A-4 5..A ....|--- .... ....
..5D|.4|B-5 4..E ....|B-4 4..F ....|D-1 18.. ....
....|.4|F#5 5..A ....|F#4 5..A ....|--- .... ....
....|.5|F#6 4..E ....|F#5 4..F ....|D-4 5F4. ....
....|.5|B-5 5..A ....|B-4 5..A ....|--- .... ....
..2F|.5|F#5 4..E ....|F#4 4..F ....|A-4 18.. ....
....|.5|F#6 5..A ....|F#5 5..A ....|--- .... ....
..5D|.4|B-5 4..E ....|B-4 4..F ....|E-4 38.. ....
....|..|F#5 5..A ....|F#4 5..A ....|--- .... ....
....|..|F#6 4..E ....|F#5 4..F ....|D-4 5F4. ....
....|.6|B-5 5..A ....|B-4 5..A ....|--- .... ....
..2F|.7|F#5 4..E ....|F#4 4..F ....|E-4 28.. ....
....|.7|F#6 5..A ....|F#5 5..A ....|--- .... ....
..5D|.7|G#5 4..E ....|G#4 4..F ....|A-5 18.. ....
....|.7|F#4 5..A ....|F#4 5..A ....|--- .... ....
..1F|.6|E-4 4..E ....|E-4 4..F ....|E-4 2E.. ....
....|.8|G#4 5..A ....|G#4 5..A ....|--- .... ....
..3E|.8|A-4 4..E ....|A-4 4..F ....|A-1 18.. ....
....|.8|E-4 5..A ....|E-4 5..A ....|--- .... ....
....|.9|E-5 4..E ....|E-5 4..F ....|A-4 5F4. ....
....|.9|A-4 5..A ....|A-4 5..A ....|--- .... ....
..1F|.9|E-4 4..E ....|E-4 4..F ....|A-2 18.. ....
....|.9|E-5 5..A ....|E-5 5..A ....|--- .... ....
..3E|.4|A-4 4..E ....|A-4 4..F ....|E-4 38.. ....
....|..|E-4 5..A ....|E-4 5..A ....|--- .... ....
....|..|E-5 4..E ....|E-5 4..F ....|A-4 5F4. ....
....|.A|A-4 5..A ....|A-4 5..A ....|--- .... ....
..1F|.B|E-4 4..E ....|E-4 4..F ....|A-2 18.. ....
....|.B|E-5 5..A ....|E-5 5..A ....|--- .... ....
..3E|.B|B-4 4..E ....|B-4 4..F ....|E-5 .8.. ....
....|.B|E-4 5..A ....|E-4 5..A ....|--- .... ....
..1C|.6|F#4 4..E ....|F#4 4..F ....|E-4 2E.. ....
....|.C|B-4 5..A ....|B-4 5..A ....|--- .... ....
..37|.C|B-4 4..E ....|B-4 4..F ....|B-1 18.. ....
....|.C|F#4 5..A ....|F#4 5..A ....|--- .... ....
....|.D|F#5 4..E ....|F#5 4..F ....|B-4 5F4. ....
....|.D|B-4 5..A ....|B-4 5..A ....|--- .... ....
..1C|.D|F#4 4..E ....|F#4 4..F ....|B-2 18.. ....
....|.D|F#5 5..A ....|F#5 5..A ....|--- .... ....
..37|.4|B-4 4..E ....|B-4 4..F ....|E-4 38.. ....
....|..|F#4 5..A ....|F#4 5..A ....|--- .... ....
....|.E|F#5 4..E ....|F#5 4..F ....|B-4 5F4. ....
....|.E|B-4 5..A ....|B-4 5..A ....|--- .... ....
..1C|.4|F#4 4..E ....|F#4 4..F ....|E-4 38.. ....
....|..|F#5 5..A ....|F#5 5..A ....|--- .... ....
..37|.4|G#4 4..E ....|G#4 4..F ....|E-4 .8.. ....
....|..|F#4 5..A ....|F#4 5..A ....|--- .... ....

[Pattern10]
..29|.6|G#5 4F.E ....|G#4 4F9F B..4|E-4 2E.F ....
....|10|E-4 5..A ....|E-3 5..A ....|--- .... ....
..53|10|B-5 4..E ....|B-4 4..F ....|E-1 18.. ....
....|10|G#5 5..A ....|G#4 5..A ....|--- .... ....
....|.F|E-6 4..E ....|E-5 4..F ....|E-4 5F4. ....
....|.F|B-5 5..A ....|B-4 5..A ....|--- .... ....
..29|.F|G#5 4..E ....|G#4 4..F ....|B-4 18.. ....
....|.F|E-6 5..A ....|E-5 5..A ....|--- .... ....
..53|.4|B-5 4..E ....|B-4 4..F ....|E-4 38.. ....
....|..|G#5 5..A ....|G#4 5..A ....|--- .... ....
....|.E|E-6 4..E ....|E-5 4..F ....|E-4 5F4. ....
....|.E|B-5 5..A ....|B-4 5..A ....|--- .... ....
..29|.D|G#5 4..E ....|G#4 4..F ....|B-5 18.. ....
....|.D|E-6 5..A ....|E-5 5..A ....|--- .... ....
..53|.D|A-5 4..E ....|A-4 4..F ....|E-1 .8.. ....
....|.D|G#5 5..A ....|G#4 5..A ....|--- .... ....
..2F|.6|F#5 4..E ....|F#4 4..F ....|E-4 2E.. ....
....|.C|A-5 5..A ....|A-4 5..A ....|--- .... ....
..5D|.C|B-5 4..E ....|B-4 4..F ....|D-1 18.. ....
....|.C|F#5 5..A ....|F#4 5..A ....|--- .... ....
....|.B|F#6 4..E ....|F#5 4..F ....|D-4 5F4. ....
....|.B|B-5 5..A ....|B-4 5..A ....|--- .... ....
..2F|.B|F#5 4..E ....|F#4 4..F ....|A-5 18.. ....
....|.B|F#6 5..A ....|F#5 5..A ....|--- .... ....
..5D|.4|B-5 4..E ....|B-4 4..F ....|E-4 38.. ....
....|..|F#5 5..A ....|F#4 5..A ....|--- .... ....
....|.A|F#6 4..E ....|F#5 4..F ....|D-4 5F4. ....
....|.A|B-5 5..A ....|B-4 5..A ....|--- .... ....
..2F|.9|F#5 4..E ....|F#4 4..F ....|E-4 28.. ....
....|.9|F#6 5..A ....|F#5 5..A ....|--- .... ....
..5D|.9|G#5 4..E ....|G#4 4..F ....|A-5 18.. ....
....|.9|F#5 5..A ....|F#4 5..A ....|--- .... ....
..1F|.6|E-5 4.9E ....|E-4 4..F ....|E-4 2E.. ....
....|.8|G#5 5..A ....|G#4 5..A ....|--- .... ....
..3E|.8|A-5 4..E ....|A-4 4..F ....|A-1 18.. ....
....|.8|E-5 5..A ....|E-4 5..A ....|--- .... ....
....|.7|E-6 4..E ....|E-5 4..F ....|A-4 5F4. ....
....|.7|A-5 5..A ....|A-4 5..A ....|--- .... ....
..1F|.7|E-5 4..E ....|E-4 4..F ....|A-2 18.. ....
....|.7|E-6 5..A ....|E-5 5..A ....|--- .... ....
..3E|.4|A-5 4..E ....|A-4 4..F ....|E-4 38.. ....
....|..|E-5 5..A ....|E-4 5..A ....|--- .... ....
....|.6|E-6 4..E ....|E-5 4..F ....|A-4 5F4. ....
....|.6|A-5 5..A ....|A-4 5..A ....|--- .... ....
..1F|.5|E-5 4..E ....|E-4 4..F ....|A-2 18.. ....
....|.5|E-6 5..A ....|E-5 5..A ....|--- .... ....
..3E|.5|B-5 4..E ....|B-4 4..F ....|G-5 .8.. ....
....|.5|E-5 5..A ....|E-4 5..A ....|--- .... ....
..1C|.6|F#5 4..E ....|F#4 4..F ....|E-4 2E.. ....
....|.4|B-5 5..A ....|B-4 5..A ....|--- .... ....
..37|.4|B-5 4..E ....|B-4 4..F ....|B-1 18.. ....
....|.4|F#5 5..A ....|F#4 5..A ....|--- .... ....
....|.3|F#6 4..E ....|F#5 4..F ....|B-4 5F4. ....
....|.3|B-5 5..A ....|B-4 5..A ....|--- .... ....
..1C|.3|F#5 4..E ....|F#4 4..F ....|B-2 18.. ....
....|.3|F#6 5..A ....|F#5 5..A ....|--- .... ....
..37|.6|E-4 4F.F 1170|R-- 4..F 1180|E-4 28.. 1160
....|.2|--- .... ....|--- .... ....|--- .... ....
....|.6|E-4 .... 1190|--- .... ....|E-4 .... ....
....|.2|--- .... ....|--- .... ....|--- .... ....
....|.6|--- .... ....|B-3 .... 1180|B-3 .... 91.6
....|.1|--- .... ....|--- .... ....|--- .... ....
....|.6|A-3 .... 1180|--- .... ....|B-3 .... ....
....|.1|--- .... ....|--- .... ....|--- .... ....

[Pattern11]
..53|.8|E-4 3F.F ....|E-4 BF9F B..4|E-4 2E.F ....
....|..|E-5 B.8. ....|--- .... ....|--- .... ....
....|..|--- .... ....|--- .... ....|--- .... ....
....|..|--- .... ....|--- .... ....|--- .... ....
....|..|--- .... ....|--- .... ....|--- .... ....
....|..|--- .... ....|--- .... ....|--- .... ....
....|..|--- .... ....|--- .... ....|--- .... ....
....|..|--- .... ....|--- .... ....|--- .... ....
....|..|--- .... ....|--- .... ....|--- .... ....
....|..|--- .... ....|--- .... ....|--- .... ....
....|..|--- .... ....|--- .... ....|R-- .... ....
....|..|--- .... ....|--- .... ....|--- .... ....
....|..|--- .... ....|--- .... ....|--- .... ....
....|..|--- .... ....|--- .... ....|--- .... ....
....|..|--- .... ....|--- .... ....|--- .... ....
....|..|--- .... ....|--- .... ....|--- .... ....
....|..|--- .... ....|--- .... ....|--- .... ....
....|..|--- .... ....|--- .... ....|--- .... ....
....|..|--- .... ....|--- .... ....|--- .... ....
....|..|--- .... ....|--- .... ....|--- .... ....
....|..|--- .... ....|--- .... ....|--- .... ....
....|..|--- .... ....|--- .... ....|--- .... ....
....|..|--- .... ....|--- .... ....|--- .... ....
....|..|--- .... ....|--- .... ....|--- .... ....
....|..|--- .... ....|--- .... ....|--- .... ....
....|..|--- .... ....|--- .... ....|--- .... ....
....|..|--- .... ....|--- .... ....|--- .... ....
....|..|--- .... ....|--- .... ....|--- .... ....
....|..|--- .... ....|--- .... ....|--- .... ....
....|..|--- .... ....|--- .... ....|--- .... ....
....|..|--- .... ....|--- .... ....|--- .... ....
....|..|--- .... ....|--- .... ....|--- .... ....

[Pattern12]
....|..|R-- .... ....|R-- .... ....|R-- .... ....
....|..|--- .... ....|--- .... ....|--- .... ....
....|..|--- .... ....|--- .... ....|--- .... ....
....|..|--- .... ....|--- .... ....|--- .... ....

