[Module]
VortexTrackerII=1
Version=3.6
Title=parallel_visions
Author=pator4rcl
NoteTable=2
Speed=3
PlayOrder=1,2,L0,4,3,5,3,5,0,4,3,5,3,5,6

[Ornament1]
19,L0,0,3,3,7,7,12,12,14,14,15,15,19,19,24,24

[Ornament2]
24,L12,0

[Ornament3]
L0

[Ornament4]
12,8,5,L0

[Ornament5]
L0

[Ornament6]
-12,L0

[Ornament7]
L12,7,2,0

[Ornament8]
L0,3,7

[Ornament9]
L0,4,7

[Ornament10]
L20,18,16,0,0,0,0,0,0,0,0,0,0,0,0,0,0,0,0,0,0,0,0,0,0,0,0,0,0,0,0,0

[Ornament11]
L0

[Ornament12]
L0

[Ornament13]
L0

[Ornament14]
L0

[Ornament15]
L0

[Sample1]
tne +000_ +00_ 0_ L

[Sample2]
TnE +000_ +00_ F_ L

[Sample3]
TnE +001_ +00_ F_ L
TnE +000_ +01_ F_
TnE +000_ +00_ F_
TnE +000_ +01_ F_
TnE +000_ +00_ F_

[Sample4]
tne +000_ +00_ 0_ L

[Sample5]
TNe +000_ +00_ F_ L
TNe +000_ +00_ F_
TNe +000_ +00_ F_
TNe +000_ +00_ F_
TNe +000_ +00_ F_
TNe +000_ +00_ F_
TNe +000_ +00_ F_
TNe +000_ +00_ F_
TNe +000_ +00_ F_
TNe +000_ +00_ F-

[Sample6]
Tne +002_ +00_ F_ L
Tne +002_ +00_ F_
Tne +002_ +00_ F-
Tne +002_ +00_ F_

[Sample7]
TNe +001_ +00_ F_
TNE +000_ +00_ F_
TnE +000_ +00_ F_ L

[Sample8]
TNE +002_ +01^ F_
TnE +000_ +00_ F_
TnE +000_ +00_ F_ L
TnE +000_ +00_ F-
TnE +000_ +00_ F_

[Sample9]
tne +000_ +00_ 0_ L

[Sample10]
Tne +000_ +00_ F_ L
Tne +000_ +00_ F_
Tne +000_ +00_ F-
Tne +000_ +00_ F_

[Sample11]
tne +000_ +00_ 0_ L

[Sample12]
tne +000_ +00_ 0_ L

[Sample13]
tne +000_ +00_ 0_ L

[Sample14]
tne +000_ +00_ 0_ L

[Sample15]
tne +000_ +00_ 0_ L

[Sample16]
tne +000_ +00_ 0_ L

[Sample17]
TNE -199^ +07_ F_
TNE +002^ +01_ F_ L
TNE +002_ +05_ F_
TNE -002^ +04_ F_
TNE +002^ +06_ F_
TNE -002_ +07_ F_

[Sample18]
tne +000_ +00_ 0_ L

[Sample19]
tne +000_ +00_ 0_ L

[Sample20]
TNe +0C8_ +07_ F_
Tne +190_ +00_ F_
Tne +258_ +00_ F_
Tne +320_ +00_ F_
tnE +3E8_ +00_ F_ L

[Sample21]
tne +000_ +00_ 0_ L

[Sample22]
tne +000_ +00_ 0_ L

[Sample23]
TNe -002^ +00_ F_ L
TNe -002^ +00_ F_
TNe -003^ +00_ F-
TNe +006^ +00_ D_
TNe +001_ +00_ D_
TNe +000_ +00_ D_

[Sample24]
tne +000_ +00_ 0_ L

[Sample25]
tne +000_ +00_ 0_ L

[Sample26]
tne +000_ +00_ 0_ L

[Sample27]
tne +000_ +00_ 0_ L

[Sample28]
TNe +032_ +04_ F_
Tne +064_ +00_ F_
TNe +096_ +07_ F_
TNe +0C8_ +07_ F_
TNe +0FA_ +07_ F_
TNe +12C_ +07_ E_
tNe +15E_ +00_ D_
tNe +190_ +00_ C_
tNe +168_ +00_ B_
tNe +190_ +00_ B_
tNe +1B8_ +00_ A_
tNe +1E0_ +00_ A_
tNe +208_ +00_ 9_
tNe +230_ +00_ 8_
tNe +258_ +00_ 8_
tNe +000_ +00_ 7_
tNe +000_ +00_ 6_
tNe +000_ +00_ 5_
tNe +000_ +00_ 5_
TNe +000_ +00_ 4_
TNe +000_ +00_ 3_
TNe +000_ +00_ 2_
TNe +000_ +00_ 2_
TNe +000_ +00_ 1_
TNe +000_ +00_ 1_
TNe +000_ +00_ 0_
TNe +000_ +00_ 0_
TNe +000_ +00_ 0_
TNe +000_ +00_ 0_
TNe +000_ +00_ 0_
TNe +000_ +00_ 0_
TNe +000_ +00_ 0_
tne +000_ +00_ 0_ L

[Sample29]
tne +000_ +00_ 0_ L

[Sample30]
tne +000_ +00_ 0_ L

[Sample31]
tne +000_ +00_ 0_ L

[Pattern0]
..6F|.F|C-4 KCFF ....|C-4 SFFF ....|F#5 8F6F B..3
..1C|.F|B-4 5C1. ....|B-1 2EF. ....|B-4 2.8A ....
....|.F|--- .... ....|--- .... ....|F#5 8.6B ....
....|.F|--- .... ....|--- .... ....|B-4 2.8A ....
....|.E|--- .... ....|--- .... ....|D-5 8.6F ....
....|.E|--- .... ....|--- .... ....|B-4 2.8A ....
....|.D|--- .... ....|--- .... ....|F#5 8.6B ....
....|.D|--- .... ....|--- .... ....|B-4 2.8A ....
....|.A|--- .... ....|--- .... ....|C#5 8.6F ....
....|.A|--- .... ....|--- .... ....|B-4 2.8A ....
....|.7|--- .... ....|--- .... ....|D-5 8.6B ....
....|.7|--- .... ....|--- .... ....|B-4 2.8A ....
....|.5|--- .... ....|--- .... ....|B-4 8.6F ....
....|..|--- .... ....|--- .... ....|B-4 2.8A ....
....|..|--- .... ....|--- .... ....|C#5 8.6B ....
....|..|--- .... ....|--- .... ....|B-4 2.8A ....
....|..|--- .... ....|--- .... ....|D-5 8.6F ....
....|..|--- .... ....|--- .... ....|B-4 2.8A ....
....|..|--- .... ....|--- .... ....|B-4 8.6B ....
....|..|--- .... ....|--- .... ....|B-4 2.8A ....
....|.5|--- .... ....|--- .... ....|C#5 8.6F ....
....|..|--- .... ....|--- .... ....|B-4 2.8A ....
....|..|--- .... ....|--- .... ....|D-5 8.6B ....
....|..|--- .... ....|--- .... ....|B-4 2.8A ....
....|..|--- .... ....|--- .... ....|B-4 8.6F ....
....|..|--- .... ....|--- .... ....|B-4 2.8A ....
....|..|--- .... ....|--- .... ....|C#5 8.6B ....
....|..|--- .... ....|--- .... ....|B-4 2.8A ....
....|10|D-6 ..AB ....|--- .... ....|G-4 8.6F ....
....|10|--- .... ....|--- .... ....|B-4 2.8A ....
....|10|--- .... ....|--- .... ....|B-4 8.6B ....
....|10|--- .... ....|--- .... ....|B-4 2.8A ....
....|13|D-6 ...F ....|--- .... ....|F#4 8.6F ....
....|13|--- .... ....|--- .... ....|B-4 2.8A ....
....|13|--- .... ....|--- .... ....|G-4 8.6B ....
....|13|--- .... ....|--- .... ....|B-4 2.8A ....
....|13|--- .... 11.4|--- .... ....|D-4 8.6F ....
....|13|--- .... ....|--- .... ....|B-4 2.8A ....
....|13|D-6 ...A ....|--- .... ....|F#4 8.6B ....
....|13|--- .... ....|--- .... ....|B-4 2.8A ....
....|13|--- .... ....|--- .... ....|C#4 8.6F ....
....|13|--- .... ....|--- .... ....|B-4 2.8A ....
....|13|--- .... 11.4|--- .... ....|D-4 8.6B ....
....|13|--- .... ....|--- .... ....|B-4 2.8A ....
....|12|D-6 ...8 ....|--- .... ....|B-3 8.6F ....
....|..|--- .... ....|--- .... ....|B-4 2.8A ....
....|..|--- .... ....|--- .... ....|C#4 8.6B ....
....|..|--- .... ....|--- .... ....|B-4 2.8A ....
....|13|F#6 ...F ....|--- .... ....|G-3 8.6F ....
....|13|--- .... ....|--- .... ....|B-4 2.8A ....
....|13|--- .... ....|--- .... ....|B-3 8.6B ....
....|13|--- .... ....|--- .... ....|B-4 2.8A ....
....|13|--- .... 21.4|--- .... ....|B-3 8.6F ....
....|13|--- .... 2...|--- .... ....|B-4 2.8A ....
....|13|F#6 ...A ....|--- .... ....|G-3 8.6B ....
....|13|--- .... ....|--- .... ....|B-4 2.8A ....
..31|13|--- .... ....|C#2 .A.. ....|C#4 8.6F ....
....|13|--- .... ....|--- .... ....|B-4 2.8A ....
....|13|--- .... 21.4|--- .... ....|B-3 8.6B ....
....|13|--- .... 2...|--- .... ....|B-4 2.8A ....
....|13|F#6 ...8 ....|--- .... ....|D-4 8.6F ....
....|..|--- .... ....|--- .... ....|B-4 2.8A ....
....|..|--- .... ....|--- .... ....|C#4 8.6B ....
....|..|--- .... ....|--- .... ....|B-4 2.8A ....
..23|.A|C-4 K.FF ....|G-1 .E.. ....|A-3 8.6F ....
....|.A|A#8 N... ....|--- .... ....|G-4 2.9A ....
....|.9|--- .... ....|--- .... ....|D-4 8.6B ....
....|.9|--- .... ....|--- .... ....|G-4 2.9A ....
....|.8|--- .... ....|--- .... ....|C#4 8.6F ....
....|.8|--- .... ....|--- .... ....|G-4 2.9A ....
....|.7|--- .... ....|--- .... ....|A-3 8.6B ....
....|.7|--- .... ....|--- .... ....|G-4 2.9A ....
....|.6|A#8 ...B ....|--- .... ....|D-4 8.6F ....
....|.6|--- .... ....|--- .... ....|G-4 2.9A ....
....|.5|--- .... ....|--- .... ....|C#4 8.6B ....
....|.5|--- .... ....|--- .... ....|G-4 2.9A ....
....|.4|C-4 K..A ....|--- .... ....|F#4 8.6F ....
....|.4|A#8 N... ....|--- .... ....|G-4 2.9A ....
....|.2|--- .... ....|--- .... ....|D-4 8.6B ....
....|.2|--- .... ....|--- .... ....|G-4 2.9A ....
....|.1|--- .... ....|--- .... ....|D-4 8.6F ....
....|.1|--- .... ....|--- .... ....|G-4 2.9A ....
....|.1|--- .... ....|--- .... ....|F#4 8.6B ....
....|..|--- .... ....|--- .... ....|G-4 2.9A ....
....|..|A#8 ...8 ....|--- .... ....|F#4 8.6F ....
....|..|--- .... ....|--- .... ....|G-4 2.9A ....
....|..|--- .... ....|--- .... ....|D-4 8.6B ....
....|..|--- .... ....|--- .... ....|G-4 2.9A ....
....|..|C-4 K... ....|--- .... ....|G-4 8.6F ....
....|..|A#8 N... ....|--- .... ....|G-4 2.9A ....
....|10|C-4 HFF6 ....|--- .... ....|F#4 8.6B ....
....|10|--- .... ....|--- .... ....|G-4 2.9A ....
....|10|--- ...8 ....|--- .... ....|B-4 8.6F ....
....|10|--- .... ....|--- .... ....|G-4 2.9A ....
....|10|--- ...9 ....|--- .... ....|G-4 8.6B ....
....|10|--- .... ....|--- .... ....|G-4 2.9A ....
....|13|--- ...A ....|--- .... ....|G-4 8.6F ....
....|13|--- .... ....|--- .... ....|G-4 2.9A ....
....|13|--- ...B ....|--- .... ....|B-4 8.6B ....
....|13|--- .... ....|--- .... ....|G-4 2.9A ....
....|13|--- ...C ....|--- .... ....|B-4 8.6F ....
....|13|--- .... ....|--- .... ....|G-4 2.9A ....
....|13|--- ...D ....|--- .... ....|G-4 8.6B ....
....|13|--- .... ....|--- .... ....|G-4 2.9A ....
....|13|--- ...E ....|--- .... ....|C#5 8.6F ....
....|13|--- .... ....|--- .... ....|G-4 2.9A ....
....|13|--- ...F ....|--- .... ....|B-4 8.6B ....
....|13|--- .... ....|--- .... ....|G-4 2.9A ....
....|13|--- ...E ....|--- .... ....|D-5 8.6F ....
....|13|--- .... ....|--- .... ....|G-4 2.9A ....
....|13|--- ...D ....|--- .... ....|C#5 8.6B ....
....|13|--- .... ....|--- .... ....|G-4 2.9A ....
....|13|--- ...B ....|--- .... ....|B-4 8.6F ....
....|13|--- .... ....|--- .... ....|G-4 2.9A ....
....|13|--- ...9 ....|--- .... ....|D-5 8.6B ....
....|13|--- .... ....|--- .... ....|G-4 2.9A ....
....|13|--- ...8 ....|--- .... ....|C#5 8.6F ....
....|13|--- .... ....|--- .... ....|G-4 2.9A ....
....|13|--- ...7 ....|--- .... ....|B-4 8.6B ....
....|13|--- .... ....|--- .... ....|G-4 2.9A ....
..25|13|--- ...6 ....|F#1 .E.. ....|D-5 8.6F ....
....|13|--- .... ....|--- .... ....|G-4 2.9A ....
....|13|--- ...5 ....|--- .... ....|C#5 8.6B ....
....|13|--- .... ....|--- .... ....|G-4 2.9A ....
....|..|--- ...4 ....|--- .... ....|G-5 8.6F ....
....|..|--- .... ....|--- .... ....|G-4 2.9A ....
....|..|--- ...3 ....|--- .... ....|D-5 8.6B ....
....|..|--- .... ....|--- .... ....|G-4 2.9A ....

[Pattern1]
....|..|--- .... ....|F#5 AFFF B..6|D-5 6FFB ....
....|..|--- .... ....|F#5 ...B ....|C#5 ...7 ....
....|..|--- .... ....|D-5 ...F ....|G-5 ...B ....
....|..|--- .... ....|F#5 ...B ....|D-5 ...7 ....
....|..|--- .... ....|C#5 ...F ....|F#5 ...B ....
....|..|--- .... ....|D-5 ...B ....|F#5 ...7 ....
....|..|--- .... ....|B-4 ...F ....|D-5 ...B ....
....|..|--- .... ....|C#5 ...B ....|F#5 ...7 ....
....|..|--- .... ....|D-5 ...F ....|C#5 ...B ....
....|..|--- .... ....|B-4 ...B ....|D-5 ...7 ....
....|..|--- .... ....|C#5 ...F ....|B-4 ...B ....
....|..|--- .... ....|D-5 ...B ....|C#5 ...7 ....
....|..|--- .... ....|B-4 ...F ....|D-5 ...B ....
....|..|--- .... ....|C#5 ...B ....|B-4 ...7 ....
....|..|--- .... ....|G-4 ...F ....|C#5 ...B ....
....|..|--- .... ....|B-4 ...B ....|D-5 ...7 ....
....|..|--- .... ....|F#4 ...F ....|B-4 ...B ....
....|..|--- .... ....|G-4 ...B ....|C#5 ...7 ....
....|..|--- .... ....|D-4 ...F ....|G-4 ...B ....
....|..|--- .... ....|F#4 ...B ....|B-4 ...7 ....
....|..|--- .... ....|C#4 ...F ....|F#4 ...B ....
....|..|--- .... ....|D-4 ...B ....|G-4 ...7 ....
....|..|--- .... ....|B-3 ...F ....|D-4 ...B ....
....|..|--- .... ....|C#4 ...B ....|F#4 ...7 ....
....|..|--- .... ....|G-3 ...F ....|C#4 ...B ....
....|..|--- .... ....|B-3 ...B ....|D-4 ...7 ....
....|..|--- .... ....|B-3 ...F ....|B-3 ...B ....
....|..|--- .... ....|G-3 ...B ....|C#4 ...7 ....
....|..|--- .... ....|C#4 ...F ....|G-3 ...B ....
....|..|--- .... ....|B-3 ...B ....|B-3 ...7 ....
....|..|--- .... ....|D-4 ...F ....|B-3 ...B ....
....|..|--- .... ....|C#4 ...B ....|G-3 ...7 ....
....|..|--- .... ....|A-3 ...F ....|C#4 ...B ....
....|..|--- .... ....|D-4 ...B ....|B-3 ...7 ....
....|..|--- .... ....|C#4 ...F ....|D-4 ...B ....
....|..|--- .... ....|A-3 ...B ....|C#4 ...7 ....
....|..|--- .... ....|D-4 ...F ....|A-3 ...B ....
....|..|--- .... ....|C#4 ...B ....|D-4 ...7 ....
....|..|--- .... ....|F#4 ...F ....|C#4 ...B ....
....|..|--- .... ....|D-4 ...B ....|A-3 ...7 ....
....|..|--- .... ....|D-4 ...F ....|D-4 ...B ....
....|..|--- .... ....|F#4 ...B ....|C#4 ...7 ....
....|..|--- .... ....|F#4 ...F ....|F#4 ...B ....
....|..|--- .... ....|D-4 ...B ....|D-4 ...7 ....
....|..|--- .... ....|G-4 ...F ....|D-4 ...B ....
....|..|--- .... ....|F#4 ...B ....|F#4 ...7 ....
....|..|--- .... ....|B-4 ...F ....|F#4 ...B ....
....|..|--- .... ....|G-4 ...B ....|D-4 ...7 ....
....|..|--- .... ....|G-4 ...F ....|G-4 ...B ....
....|..|--- .... ....|B-4 ...B ....|F#4 ...7 ....
....|..|--- .... ....|B-4 ...F ....|B-4 ...B ....
....|..|--- .... ....|G-4 ...B ....|G-4 ...7 ....
....|..|--- .... ....|C#5 ...F ....|G-4 ...B ....
....|..|--- .... ....|B-4 ...B ....|B-4 ...7 ....
....|..|--- .... ....|D-5 ...F ....|B-4 ...B ....
....|..|--- .... ....|C#5 ...B ....|G-4 ...7 ....
....|..|--- .... ....|B-4 ...F ....|C#5 ...B ....
....|..|--- .... ....|D-5 ...B ....|B-4 ...7 ....
....|..|--- .... ....|C#5 ...F ....|D-5 ...B ....
....|..|--- .... ....|B-4 ...B ....|C#5 ...7 ....
....|..|--- .... ....|D-5 ...F ....|B-4 ...B ....
....|..|--- .... ....|C#5 ...B ....|D-5 ...7 ....
....|..|--- .... ....|G-5 ...F ....|C#5 ...B ....
....|..|--- .... ....|D-5 ...B ....|B-4 ...7 ....

[Pattern2]
....|..|--- .... ....|F#5 AFFF B..6|D-5 6FFB ....
....|..|--- .... ....|F#5 ...B ....|C#5 ...7 ....
....|..|--- .... ....|D-5 ...F ....|G-5 ...B ....
....|..|--- .... ....|F#5 ...B ....|D-5 ...7 ....
....|..|--- .... ....|C#5 ...F ....|F#5 ...B ....
....|..|--- .... ....|D-5 ...B ....|F#5 ...7 ....
....|..|--- .... ....|B-4 ...F ....|D-5 ...B ....
....|..|--- .... ....|C#5 ...B ....|F#5 ...7 ....
....|..|--- .... ....|D-5 ...F ....|C#5 ...B ....
....|..|--- .... ....|B-4 ...B ....|D-5 ...7 ....
....|..|--- .... ....|C#5 ...F ....|B-4 ...B ....
....|..|--- .... ....|D-5 ...B ....|C#5 ...7 ....
....|..|--- .... ....|B-4 ...F ....|D-5 ...B ....
....|..|--- .... ....|C#5 ...B ....|B-4 ...7 ....
....|..|--- .... ....|G-4 ...F ....|C#5 ...B ....
....|..|--- .... ....|B-4 ...B ....|D-5 ...7 ....
....|..|--- .... ....|F#4 ...F ....|B-4 ...B ....
....|..|--- .... ....|G-4 ...B ....|C#5 ...7 ....
....|..|--- .... ....|D-4 ...F ....|G-4 ...B ....
....|..|--- .... ....|F#4 ...B ....|B-4 ...7 ....
....|..|--- .... ....|C#4 ...F ....|F#4 ...B ....
....|..|--- .... ....|D-4 ...B ....|G-4 ...7 ....
....|..|--- .... ....|B-3 ...F ....|D-4 ...B ....
....|..|--- .... ....|C#4 ...B ....|F#4 ...7 ....
....|..|--- .... ....|G-3 ...F ....|C#4 ...B ....
....|..|--- .... ....|B-3 ...B ....|D-4 ...7 ....
....|..|--- .... ....|B-3 ...F ....|B-3 ...B ....
....|..|--- .... ....|G-3 ...B ....|C#4 ...7 ....
....|..|--- .... ....|C#4 ...F ....|G-3 ...B ....
....|..|--- .... ....|B-3 ...B ....|B-3 ...7 ....
....|..|--- .... ....|D-4 ...F ....|B-3 ...B ....
....|..|--- .... ....|C#4 ...B ....|G-3 ...7 ....
....|..|--- .... ....|A-3 ...F ....|C#4 ...B ....
....|..|--- .... ....|D-4 ...B ....|B-3 ...7 ....
....|..|--- .... ....|C#4 ...F ....|D-4 ...B ....
....|..|--- .... ....|A-3 ...B ....|C#4 ...7 ....
....|..|--- .... ....|D-4 ...F ....|A-3 ...B ....
....|..|--- .... ....|C#4 ...B ....|D-4 ...7 ....
....|..|--- .... ....|F#4 ...F ....|C#4 ...B ....
....|..|--- .... ....|D-4 ...B ....|A-3 ...7 ....
....|..|--- .... ....|D-4 ...F ....|D-4 ...B ....
....|..|--- .... ....|F#4 ...B ....|C#4 ...7 ....
....|..|--- .... ....|F#4 ...F ....|F#4 ...B ....
....|..|--- .... ....|D-4 ...B ....|D-4 ...7 ....
....|..|--- .... ....|G-4 ...F ....|D-4 ...B ....
....|..|--- .... ....|F#4 ...B ....|F#4 ...7 ....
....|..|--- .... ....|B-4 ...F ....|F#4 ...B ....
....|..|--- .... ....|G-4 ...B ....|D-4 ...7 ....
....|..|--- .... ....|G-4 ...F ....|G-4 ...B ....
....|..|--- .... ....|B-4 ...B ....|F#4 ...7 ....
....|..|--- .... ....|B-4 ...F ....|B-4 ...B ....
....|..|--- .... ....|G-4 ...B ....|G-4 ...7 ....
....|..|--- .... ....|C#5 ...F ....|G-4 ...B ....
....|..|--- .... ....|B-4 ...B ....|B-4 ...7 ....
....|..|--- .... ....|D-5 ...F ....|B-4 ...B ....
....|..|--- .... ....|C#5 ...B ....|G-4 ...7 ....
....|..|--- .... ....|B-4 ...F ....|C#5 ...B ....
....|..|--- .... ....|D-5 ...B ....|B-4 ...7 ....
....|..|--- .... ....|C#5 ...F ....|D-5 ...B ....
....|..|--- .... ....|B-4 ...B ....|C#5 ...7 ....
....|..|C-4 2FFF 1180|D-5 ...F ....|B-4 ...B ....
....|..|--- .... ....|C#5 ...B ....|D-5 ...7 ....
....|..|C-4 .... 1180|G-5 ...F ....|C#5 ...B ....
....|..|C-4 .... 1180|D-5 ...B ....|B-4 ...7 ....

[Pattern3]
..37|12|E-8 384F 11.1|C-4 KFFF ....|C-4 KFFF ....
..1C|12|R-- .... ....|B-1 2CF. ....|B-4 5.7. ....
..37|11|E-8 .84. 11.2|B-1 7... ....|--- .... ....
....|10|--- .... ....|--- .... ....|--- .... ....
..25|.A|--- .... ....|B-2 .8.. ....|--- .... ....
....|.A|R-- .... ....|--- .... ....|--- .... ....
..37|.9|E-8 .84. 11.4|B-1 .C.. ....|--- .... ....
....|.8|R-- .... ....|--- .... ....|--- .... ....
..37|.8|E-8 .84. 11.5|C-4 SF.. ....|C#5 8.2E ....
....|.8|R-- .... ....|--- .... ....|A-4 2.89 ....
..25|.7|E-8 .84. 11.6|B-1 7C.. ....|D-5 8.2A ....
....|.6|R-- .... ....|--- .... ....|B-4 2.89 ....
..37|.5|E-8 .84. 11.7|B-3 .... ....|B-4 8.2E ....
....|.5|R-- .... ....|--- .... ....|B-4 2.89 ....
..6F|.4|E-8 .84. 11.8|C-4 KC.. ....|C#5 8.2A ....
....|.3|--- .... ....|--- .... ....|B-4 2.89 ....
..37|.2|--- .... ....|B-4 7C.. ....|D-5 8.2E ....
....|.1|R-- .... ....|--- .... ....|B-4 2.89 ....
..25|..|E-8 .84. 11.A|B-2 .C.. ....|B-4 8.2A ....
....|..|R-- .... ....|--- .... ....|B-4 2.89 ....
..6F|..|E-8 .84. 11.B|C-4 KC.. ....|C#5 8.2E ....
....|..|R-- .... ....|--- .... ....|B-4 2.89 ....
..1C|..|E-8 .84. 11.C|B-5 7C.. ....|D-5 8.2A ....
....|..|R-- .... ....|--- .... ....|B-4 2.89 ....
..1C|..|E-8 .84. 11.D|C-4 S... ....|B-4 8.2E ....
....|..|--- .... ....|--- .... ....|B-4 2.89 ....
..4A|..|--- .... ....|B-2 78.. ....|C#5 8.2A ....
....|..|--- .... ....|--- .... ....|B-4 2.89 ....
..6F|..|E-8 .84. 11.F|C-4 K8.. ....|G-4 8.2E ....
....|..|R-- .... ....|--- .... ....|B-4 2.89 ....
..37|..|E-8 .84. 1110|B-3 7C.. ....|B-4 8.2A ....
....|..|R-- .... ....|--- .... ....|B-4 2.89 ....
..37|..|E-8 .84. 1111|C-4 KF.. ....|F#4 8.2E ....
..1C|..|R-- .... ....|B-1 2CF. ....|B-4 2.89 ....
..1C|..|E-8 .84. 1112|B-2 7C.. ....|G-4 8.2A ....
....|..|--- .... ....|--- .... ....|B-4 2.89 ....
..25|..|--- .... ....|B-1 .8.. ....|D-4 8.2E ....
....|..|R-- .... ....|--- .... ....|B-4 2.89 ....
..37|..|E-8 .84. 1114|F#3 .C.. ....|F#4 8.2A ....
....|..|R-- .... ....|--- .... ....|B-4 2.89 ....
..37|..|E-8 .84. 1115|C-4 S... ....|C#4 8.2E ....
....|..|R-- .... ....|--- .... ....|B-4 2.89 ....
..25|..|E-8 .84. 1116|B-3 78.. ....|D-4 8.2A ....
....|..|R-- .... ....|--- .... ....|B-4 2.89 ....
..37|..|E-8 .84. 1117|B-3 .C.. ....|B-3 8.2E ....
....|..|R-- .... ....|--- .... ....|B-4 2.89 ....
..6F|..|E-8 .84. 1118|C-4 KC.. ....|C#4 8.2A ....
....|..|--- .... ....|--- .... ....|B-4 2.89 ....
..1C|..|--- .... ....|B-4 78.. ....|G-3 8.2E ....
....|..|R-- .... ....|--- .... ....|B-4 2.89 ....
..6F|..|E-8 .84. 111A|C-4 KC.. ....|B-3 8.2A ....
....|..|R-- .... ....|--- .... ....|B-4 2.89 ....
..6F|..|E-8 .84. 111B|C-4 .C.. ....|B-3 8.2E ....
....|..|R-- .... ....|--- .... ....|B-4 2.89 ....
..1C|..|E-8 .84. 111C|B-5 78.. ....|G-3 8.2A ....
....|..|R-- .... ....|--- .... ....|B-4 2.89 ....
..37|..|E-8 .84. 111D|C-4 S... ....|C#4 8.2E ....
....|..|--- .... ....|--- .... ....|B-4 2.89 ....
..4A|..|--- .... ....|B-2 7C.. ....|B-3 8.2A ....
....|..|--- .... ....|--- .... ....|B-4 2.89 ....
..6F|..|E-8 .84. 111F|C-4 S... ....|D-4 8.2E ....
....|..|R-- .... ....|--- .... ....|B-4 2.89 ....
..37|..|E-8 .84. 1120|C-4 .... ....|C#4 8.2A ....
....|..|R-- .... ....|--- .... ....|B-4 2.89 ....

[Pattern4]
....|.F|C-4 KFFF ....|C-4 SFFF ....|F#5 8F6F B..3
..1C|.F|B-4 5.1. ....|B-1 2E.. ....|B-4 2.8A ....
....|.F|--- .... ....|--- .... ....|F#5 8.6B ....
....|.F|--- .... ....|--- .... ....|B-4 2.8A ....
....|.E|--- .... ....|--- .... ....|D-5 8.6F ....
....|.E|--- .... ....|--- .... ....|B-4 2.8A ....
....|.D|--- .... ....|--- .... ....|F#5 8.6B ....
....|.D|--- .... ....|--- .... ....|B-4 2.8A ....
....|.A|--- .... ....|--- .... ....|C#5 8.6F ....
....|.A|--- .... ....|--- .... ....|B-4 2.8A ....
....|.7|--- .... ....|--- .... ....|D-5 8.6B ....
....|.7|--- .... ....|--- .... ....|B-4 2.8A ....
....|.5|--- .... ....|--- .... ....|B-4 8.6F ....
....|..|--- .... ....|--- .... ....|B-4 2.8A ....
....|..|--- .... ....|--- .... ....|C#5 8.6B ....
....|..|--- .... ....|--- .... ....|B-4 2.8A ....
....|..|--- .... ....|--- .... ....|D-5 8.6F ....
....|..|--- .... ....|--- .... ....|B-4 2.8A ....
....|..|--- .... ....|--- .... ....|B-4 8.6B ....
....|..|--- .... ....|--- .... ....|B-4 2.8A ....
....|.5|--- .... ....|--- .... ....|C#5 8.6F ....
....|..|--- .... ....|--- .... ....|B-4 2.8A ....
....|..|--- .... ....|--- .... ....|D-5 8.6B ....
....|..|--- .... ....|--- .... ....|B-4 2.8A ....
....|..|--- .... ....|--- .... ....|B-4 8.6F ....
....|..|--- .... ....|--- .... ....|B-4 2.8A ....
....|..|--- .... ....|--- .... ....|C#5 8.6B ....
....|..|--- .... ....|--- .... ....|B-4 2.8A ....
....|10|D-6 ..AB ....|--- .... ....|G-4 8.6F ....
....|10|--- .... ....|--- .... ....|B-4 2.8A ....
....|10|--- .... ....|--- .... ....|B-4 8.6B ....
....|10|--- .... ....|--- .... ....|B-4 2.8A ....
....|13|D-6 ...F ....|--- .... ....|F#4 8.6F ....
....|13|--- .... ....|--- .... ....|B-4 2.8A ....
....|13|--- .... ....|--- .... ....|G-4 8.6B ....
....|13|--- .... ....|--- .... ....|B-4 2.8A ....
....|13|--- .... 11.4|--- .... ....|D-4 8.6F ....
....|13|--- .... ....|--- .... ....|B-4 2.8A ....
....|13|D-6 ...A ....|--- .... ....|F#4 8.6B ....
....|13|--- .... ....|--- .... ....|B-4 2.8A ....
....|13|--- .... ....|--- .... ....|C#4 8.6F ....
....|13|--- .... ....|--- .... ....|B-4 2.8A ....
....|13|--- .... 11.4|--- .... ....|D-4 8.6B ....
....|13|--- .... ....|--- .... ....|B-4 2.8A ....
....|12|D-6 ...8 ....|--- .... ....|B-3 8.6F ....
....|..|--- .... ....|--- .... ....|B-4 2.8A ....
....|..|--- .... ....|--- .... ....|C#4 8.6B ....
....|..|--- .... ....|--- .... ....|B-4 2.8A ....
....|13|F#6 ...F ....|--- .... ....|G-3 8.6F ....
....|13|--- .... ....|--- .... ....|B-4 2.8A ....
....|13|--- .... ....|--- .... ....|B-3 8.6B ....
....|13|--- .... ....|--- .... ....|B-4 2.8A ....
....|13|--- .... 21.4|--- .... ....|B-3 8.6F ....
....|13|--- .... 2...|--- .... ....|B-4 2.8A ....
....|13|F#6 ...A ....|--- .... ....|G-3 8.6B ....
....|13|--- .... ....|--- .... ....|B-4 2.8A ....
..31|13|--- .... ....|C#2 .A.. ....|C#4 8.6F ....
....|13|--- .... ....|--- .... ....|B-4 2.8A ....
....|13|--- .... 21.4|--- .... ....|B-3 8.6B ....
....|13|--- .... 2...|--- .... ....|B-4 2.8A ....
....|13|F#6 ...8 ....|--- .... ....|D-4 8.6F ....
....|..|--- .... ....|--- .... ....|B-4 2.8A ....
....|..|--- .... ....|--- .... ....|C#4 8.6B ....
....|..|G-6 .... ....|--- .... ....|B-4 2.8A ....
..25|.A|C-4 K.FF ....|F#1 .C.. ....|A-3 8.6F ....
....|.A|A#8 N... ....|--- .... ....|F#4 2.9A ....
....|.9|--- .... ....|--- .... ....|D-4 8.6B ....
....|.9|--- .... ....|--- .... ....|F#4 2.9A ....
....|.8|--- .... ....|--- .... ....|C#4 8.6F ....
....|.8|--- .... ....|--- .... ....|F#4 2.9A ....
....|.7|--- .... ....|--- .... ....|A-3 8.6B ....
....|.7|--- .... ....|--- .... ....|F#4 2.9A ....
....|.6|A#8 ...B ....|--- .... ....|D-4 8.6F ....
....|.6|--- .... ....|--- .... ....|F#4 2.9A ....
....|.5|--- .... ....|--- .... ....|C#4 8.6B ....
....|.5|--- .... ....|--- .... ....|F#4 2.9A ....
....|.4|C-4 K..A ....|--- .... ....|F#4 8.6F ....
....|.4|A#8 N... ....|--- .... ....|F#4 2.9A ....
....|.2|--- .... ....|--- .... ....|D-4 8.6B ....
....|.2|--- .... ....|--- .... ....|F#4 2.9A ....
....|.1|--- .... ....|--- .... ....|D-4 8.6F ....
....|.1|--- .... ....|--- .... ....|F#4 2.9A ....
....|.1|--- .... ....|--- .... ....|F#4 8.6B ....
....|..|--- .... ....|--- .... ....|F#4 2.9A ....
....|..|A#8 ...8 ....|--- .... ....|F#4 8.6F ....
....|..|--- .... ....|--- .... ....|F#4 2.9A ....
....|..|--- .... ....|--- .... ....|D-4 8.6B ....
....|..|--- .... ....|--- .... ....|F#4 2.9A ....
....|..|C-4 K... ....|--- .... ....|G-4 8.6F ....
....|..|A#8 N... ....|--- .... ....|F#4 2.9A ....
....|10|C-4 H..6 ....|--- .... ....|F#4 8.6B ....
....|10|--- .... ....|--- .... ....|F#4 2.9A ....
....|10|--- ...8 ....|--- .... ....|B-4 8.6F ....
....|10|--- .... ....|--- .... ....|F#4 2.9A ....
....|10|--- ...9 ....|--- .... ....|G-4 8.6B ....
....|10|--- .... ....|--- .... ....|F#4 2.9A ....
....|13|--- ...A ....|--- .... ....|G-4 8.6F ....
....|13|--- .... ....|--- .... ....|F#4 2.9A ....
....|13|--- ...B ....|--- .... ....|B-4 8.6B ....
....|13|--- .... ....|--- .... ....|F#4 2.9A ....
....|13|--- ...C ....|--- .... ....|B-4 8.6F ....
....|13|--- .... ....|--- .... ....|F#4 2.9A ....
....|13|--- .... ....|--- .... ....|G-4 8.6B ....
....|13|--- .... ....|--- .... ....|F#4 2.9A ....
....|13|--- ...D ....|--- .... ....|C#5 8.6F ....
....|13|--- .... ....|--- .... ....|F#4 2.9A ....
....|13|--- .... ....|--- .... ....|B-4 8.6B ....
....|13|--- .... ....|--- .... ....|F#4 2.9A ....
....|13|--- .... ....|--- .... ....|D-5 8.6F ....
....|13|--- .... ....|--- .... ....|F#4 2.9A ....
....|13|--- .... ....|--- .... ....|C#5 8.6B ....
....|13|--- .... ....|--- .... ....|F#4 2.9A ....
....|13|--- .... ....|--- .... ....|B-4 8.6F ....
....|13|--- .... ....|--- .... ....|F#4 2.9A ....
....|13|--- .... ....|--- .... ....|D-5 8.6B ....
....|13|--- .... ....|--- .... ....|F#4 2.9A ....
....|13|--- .... 11.1|--- .... A2.1|C#5 8.6F ....
....|13|--- .... ....|--- .... ....|F#4 2.9A ....
....|13|--- .... ....|--- .... ....|B-4 8.6B ....
....|13|--- .... ....|--- .... ....|F#4 2.9A ....
....|13|--- .... ....|--- .... ....|D-5 8.6F ....
....|13|--- .... ....|--- .... ....|F#4 2.9A ....
....|13|--- .... 21.A|--- .... ....|C#5 8.6B ....
....|13|--- .... ....|--- .... ....|F#4 2.9A ....
....|..|--- .... ....|C-4 KFF. ....|G-5 8.6F ....
....|..|--- .... ....|C-4 .... ....|F#4 2.9A ....
....|..|--- .... ....|C-4 .... ....|D-5 8.6B ....
....|..|--- .... ....|C-4 .... ....|G-4 2.9A ....

[Pattern5]
..37|12|D-6 384F 21.1|C-4 KFFF ....|A-3 8.2E ....
..1C|12|R-- .... ....|B-1 2CF. ....|F#4 2.99 ....
..37|11|D-6 .84. 21.2|B-1 7... ....|D-4 8.2A ....
....|10|--- .... ....|--- .... ....|F#4 2.99 ....
..25|.A|--- .... ....|F#2 .8.. ....|C#4 8.2E ....
....|.A|R-- .... ....|--- .... ....|F#4 2.99 ....
..25|.9|D-6 .84. 21.4|F#1 .C.. ....|A-3 8.2A ....
....|.8|R-- .... ....|--- .... ....|F#4 2.99 ....
..37|.8|D-6 .84. 21.5|C-4 SF.. ....|D-4 8.2E ....
....|.8|R-- .... ....|--- .... ....|F#4 2.99 ....
..25|.7|D-6 .84. 21.6|F#2 7C.. ....|C#4 8.2A ....
....|.6|R-- .... ....|--- .... ....|F#4 2.99 ....
..25|.5|D-6 .84. 21.7|F#1 .8.. ....|F#4 8.2E ....
....|.5|R-- .... ....|--- .... ....|F#4 2.99 ....
..6F|.4|D-6 .84. 21.8|C-4 KC.. ....|D-4 8.2A ....
....|.3|--- .... ....|--- .... ....|F#4 2.99 ....
..31|.2|--- .... ....|F#3 7C.. ....|D-4 8.2E ....
....|.1|R-- .... ....|--- .... ....|F#4 2.99 ....
..12|..|D-6 .84. 21.A|F#1 .C.. ....|F#4 8.2A ....
....|..|R-- .... ....|--- .... ....|F#4 2.99 ....
..6F|..|D-6 .84. 21.B|C-4 KC.. ....|F#4 8.2E ....
....|..|R-- .... ....|--- .... ....|F#4 2.99 ....
..1C|..|D-6 .84. 21.C|F#5 7C.. ....|D-4 8.2A ....
....|..|R-- .... ....|--- .... ....|F#4 2.99 ....
..1C|..|D-6 .84. 21.D|C-4 S... ....|G-4 8.2E ....
....|..|--- .... ....|--- .... ....|F#4 2.99 ....
..25|..|--- .... ....|F#1 78.. ....|F#4 8.2A ....
....|..|--- .... ....|--- .... ....|F#4 2.99 ....
..6F|..|D-6 .84. 21.F|C-4 K8.. ....|B-4 8.2E ....
....|..|R-- .... ....|--- .... ....|F#4 2.99 ....
..37|..|D-6 .84. 2110|F#3 7C.. ....|G-4 8.2A ....
....|..|R-- .... ....|--- .... ....|F#4 2.99 ....
..37|..|D-6 .84. 2111|C-4 KFF. ....|G-4 8.2E ....
..1C|..|R-- .... ....|B-1 2CF. ....|F#4 2.99 ....
..1C|..|D-6 .84. 2112|B-1 7... ....|B-4 8.2A ....
....|..|--- .... ....|F-3 .... ....|F#4 2.99 ....
..25|..|--- .... ....|F#2 .8.. ....|B-4 8.2E ....
....|..|R-- .... ....|--- .... ....|F#4 2.99 ....
..37|..|D-6 .84. 2114|F#1 .C.. ....|G-4 8.2A ....
....|..|R-- .... ....|--- .... ....|F#4 2.99 ....
..37|..|D-6 .84. 2115|C-4 SF.. ....|C#5 8.2E ....
....|..|R-- .... ....|--- .... ....|F#4 2.99 ....
..25|..|D-6 .84. 2116|F#2 7C.. ....|B-4 8.2A ....
....|..|R-- .... ....|--- .... ....|F#4 2.99 ....
..37|..|D-6 .84. 2117|F#1 .8.. ....|D-5 8.2E ....
....|..|R-- .... ....|--- .... ....|F#4 2.99 ....
..6F|..|D-6 .84. 2118|C-4 KC.. ....|C#5 8.2A ....
....|..|--- .... ....|--- .... ....|F#4 2.99 ....
..1C|..|--- .... ....|F#3 7C.. ....|B-4 8.2E ....
....|..|R-- .... ....|--- .... ....|F#4 2.99 ....
..6F|..|D-6 .84. 211A|F#1 .C.. ....|D-5 8.2A ....
....|..|R-- .... ....|--- .... ....|F#4 2.99 ....
..6F|..|D-6 .84. 211B|C-4 KC.. ....|C#5 8.2E ....
....|..|R-- .... ....|--- .... ....|F#4 2.99 ....
..1C|..|D-6 .84. 211C|F#5 7C.. ....|B-4 8.2A ....
....|..|R-- .... ....|--- .... ....|F#4 2.99 ....
..37|..|D-6 .84. 211D|C-4 S... ....|D-5 8.2E ....
....|..|--- .... ....|--- .... ....|F#4 2.99 ....
..4A|..|--- .... ....|F#1 78.. ....|C#5 8.2A ....
....|..|--- .... ....|--- .... ....|F#4 2.99 ....
..6F|..|D-6 .84. 211E|C-4 S... ....|G-5 8.2E ....
....|..|R-- .... ....|--- .... ....|F#4 2.99 ....
..37|..|D-6 .84. 211F|C-4 .... ....|D-5 8.2A ....
....|..|R-- .... ....|--- .... ....|G-4 2.99 ....

[Pattern6]
..6F|.F|C-4 KCFF ....|C-4 SFFF ....|R-- .... B..3
..1C|.F|B-4 5C1. ....|B-1 2EF. ....|--- .... ....
....|.F|--- .... ....|--- .... ....|--- .... ....
....|.F|--- .... ....|--- .... ....|--- .... ....
....|.E|--- .... ....|--- .... ....|--- .... ....
....|.E|--- .... ....|--- .... ....|--- .... ....
....|.D|--- .... ....|--- .... ....|--- .... ....
....|.D|--- .... ....|--- .... ....|--- .... ....
....|.A|--- .... ....|--- .... ....|--- .... ....
....|.A|--- .... ....|--- .... ....|--- .... ....
....|.7|--- .... ....|--- .... ....|--- .... ....
....|.7|--- .... ....|--- .... ....|--- .... ....
....|.5|--- .... ....|--- .... ....|--- .... ....
....|..|--- .... ....|--- .... ....|--- .... ....
....|..|--- .... ....|--- .... ....|--- .... ....
....|..|--- .... ....|--- .... ....|--- .... ....
....|..|--- .... ....|--- .... ....|--- .... ....
....|..|--- .... ....|--- .... ....|--- .... ....
....|..|--- .... ....|--- .... ....|--- .... ....
....|..|--- .... ....|--- .... ....|--- .... ....
....|.5|--- .... ....|--- .... ....|--- .... ....
....|..|--- .... ....|--- .... ....|--- .... ....
....|..|--- .... ....|--- .... ....|--- .... ....
....|..|--- .... ....|--- .... ....|--- .... ....
....|..|--- .... ....|--- .... ....|--- .... ....
....|..|--- .... ....|--- .... ....|--- .... ....
....|..|--- .... ....|--- .... ....|--- .... ....
....|..|--- .... ....|--- .... ....|--- .... ....
....|10|D-6 ..AB ....|--- .... ....|--- .... ....
....|10|--- .... ....|--- .... ....|--- .... ....
....|10|--- .... ....|--- .... ....|--- .... ....
....|10|--- .... ....|--- .... ....|--- .... ....
....|13|D-6 ...F ....|--- .... ....|--- .... ....
....|13|--- .... ....|--- .... ....|--- .... ....
....|13|--- .... ....|--- .... ....|--- .... ....
....|13|--- .... ....|--- .... ....|--- .... ....
....|13|--- .... 11.4|--- .... ....|--- .... ....
....|13|--- .... ....|--- .... ....|--- .... ....
....|13|D-6 ...A ....|R-- .... ....|--- .... ....
....|13|--- .... ....|--- .... ....|--- .... ....
....|13|--- .... ....|--- .... ....|--- .... ....
....|13|--- .... ....|--- .... ....|--- .... ....
....|13|--- .... 11.4|--- .... ....|--- .... ....
....|13|--- .... ....|--- .... ....|--- .... ....
....|12|D-6 ...8 ....|--- .... ....|--- .... ....
....|..|--- .... ....|--- .... ....|--- .... ....
....|..|--- .... ....|--- .... ....|--- .... ....
....|..|--- .... ....|--- .... ....|--- .... ....
....|13|F#6 ...F ....|--- .... ....|--- .... ....
....|13|--- .... ....|--- .... ....|--- .... ....
....|13|--- .... ....|--- .... ....|--- .... ....
....|13|--- .... ....|--- .... ....|--- .... ....
....|13|--- .... 21.4|--- .... ....|--- .... ....
....|13|--- .... 2...|--- .... ....|--- .... ....
....|13|F#6 ...A ....|--- .... ....|--- .... ....
....|13|--- .... ....|--- .... ....|--- .... ....
....|13|--- .... ....|--- .... ....|--- .... ....
....|13|--- .... ....|--- .... ....|--- .... ....
....|13|--- .... 21.4|--- .... ....|--- .... ....
....|13|--- .... 2...|--- .... ....|--- .... ....
....|13|F#6 ...8 ....|--- .... ....|--- .... ....
....|..|--- .... ....|--- .... ....|--- .... ....
....|..|--- .... ....|--- .... ....|--- .... ....
....|..|--- .... ....|--- .... ....|--- .... ....
....|..|--- .... 21.4|--- .... ....|--- .... ....
....|..|--- .... 2...|--- .... ....|--- .... ....
....|13|F#6 ...6 ....|--- .... ....|--- .... ....
....|13|--- .... ....|--- .... ....|--- .... ....
....|13|--- .... ....|--- .... ....|--- .... ....
....|13|--- .... ....|--- .... ....|--- .... ....
....|13|--- .... 21.4|--- .... ....|--- .... ....
....|13|--- .... 2...|--- .... ....|--- .... ....
....|13|F#6 ...4 ....|--- .... ....|--- .... ....
....|13|--- .... ....|--- .... ....|--- .... ....
....|13|--- .... ....|--- .... ....|--- .... ....
....|13|--- .... ....|--- .... ....|--- .... ....
....|13|--- .... 21.4|--- .... ....|--- .... ....
....|13|--- .... 2...|--- .... ....|--- .... ....
....|13|F#6 ...2 ....|--- .... ....|--- .... ....
....|..|--- .... ....|--- .... ....|--- .... ....
....|..|--- .... ....|--- .... ....|--- .... ....
....|..|--- .... ....|--- .... ....|--- .... ....
....|..|--- ...1 ....|--- .... ....|--- .... ....
....|..|--- .... ....|--- .... ....|--- .... ....
....|..|R-- .... ....|--- .... ....|--- .... ....
....|..|--- .... ....|--- .... ....|--- .... ....
....|..|--- .... ....|--- .... ....|--- .... ....
....|..|--- .... ....|--- .... ....|--- .... ....
....|..|--- .... ....|--- .... ....|--- .... ....
....|..|--- .... ....|--- .... ....|--- .... ....
....|..|--- .... ....|--- .... ....|--- .... ....
....|..|--- .... ....|--- .... ....|--- .... ....
....|..|--- .... ....|--- .... ....|--- .... ....
....|..|--- .... ....|--- .... ....|--- .... ....
....|..|--- .... ....|--- .... ....|--- .... ....
....|..|--- .... ....|--- .... ....|--- .... ....
....|..|--- .... ....|--- .... ....|--- .... ....
....|..|--- .... ....|--- .... ....|--- .... ....
....|..|--- .... ....|--- .... ....|--- .... ....
....|..|--- .... ....|--- .... ....|--- .... ....
....|..|--- .... ....|--- .... ....|--- .... ....
....|..|--- .... ....|--- .... ....|--- .... ....
....|..|--- .... ....|--- .... ....|--- .... ....
....|..|--- .... ....|--- .... ....|--- .... ....
....|..|--- .... ....|--- .... ....|--- .... ....
....|..|--- .... ....|--- .... ....|--- .... ....
....|..|--- .... ....|--- .... ....|--- .... ....
....|..|--- .... ....|--- .... ....|--- .... ....
....|..|--- .... ....|--- .... ....|--- .... ....
....|..|--- .... ....|--- .... ....|--- .... ....
....|..|--- .... ....|--- .... ....|--- .... ....
....|..|--- .... ....|--- .... ....|--- .... ....
....|..|--- .... ....|--- .... ....|--- .... ....
....|..|--- .... ....|--- .... ....|--- .... ....
....|..|--- .... ....|--- .... ....|--- .... ....
....|..|--- .... ....|--- .... ....|--- .... ....
....|..|--- .... ....|--- .... ....|--- .... ....
....|..|--- .... ....|--- .... ....|--- .... ....
....|..|--- .... ....|--- .... ....|--- .... ....
....|..|--- .... ....|--- .... ....|--- .... ....
....|..|--- .... ....|--- .... ....|--- .... ....
....|..|--- .... ....|--- .... ....|--- .... ....
....|..|--- .... ....|--- .... ....|--- .... ....
....|..|--- .... ....|--- .... ....|--- .... ....
....|..|--- .... ....|--- .... ....|--- .... ....
....|..|--- .... ....|--- .... ....|--- .... ....
....|..|--- .... ....|--- .... ....|--- .... ....
....|..|--- .... ....|--- .... ....|--- .... ....

