[Module]
VortexTrackerII=0
Version=3.7
Title=she stole my cat 4 smfx cracktro
Author=pator .xm --> ym mono 2k25
NoteTable=2
Speed=3
PlayOrder=1,0,0,2,3,2,3,4,5,6,7,6,10,8,9,0,0,2,3,2,3,4,5,6,7,6,10,8,9,11,L12

[Ornament1]
L0

[Ornament2]
L0,12,12

[Ornament3]
L9,9,12,12,16,16,21,21

[Ornament4]
L5,5,9,9,12,12,17,17

[Ornament5]
L2,2,5,5,9,9,14,14

[Ornament6]
L4,4,7,7,11,11,16,16

[Ornament7]
24,0,L0

[Ornament8]
L0

[Ornament9]
L-12,24,12,19,24,31,32

[Ornament10]
L0,3,7

[Ornament11]
L0,4,7

[Ornament12]
L0

[Ornament13]
L0

[Ornament14]
L0

[Ornament15]
L0

[Sample1]
Tne +000_ +00_ F_ L
Tne +000_ +00_ F_
Tne +000_ +00_ F_
Tne +000_ +00_ F-

[Sample2]
tne +000_ +00_ 0_ L

[Sample3]
tNe +000_ +00_ F_
TnE +000_ +00_ E_ L

[Sample4]
TnE +000_ +00_ F_
TnE +000_ +00_ F_ L

[Sample5]
Tne +001_ +00_ E_ L
Tne -001_ +00_ E_
Tne +001_ +00_ E_
Tne -001_ +00_ E-

[Sample6]
TnE +000_ +00_ F_
TnE +000_ +00_ F_
TnE +000_ +00_ F_
TnE +000_ +00_ F_
TnE +000_ +00_ F_
TnE +000_ +00_ F_
TnE +000_ +00_ F_
TnE +000_ +00_ F_
TnE +000_ +00_ F_
TnE +000_ +00_ F_
TnE +000_ +00_ F_
TnE +000_ +00_ F_
TnE +000_ +00_ F_
TnE -002_ +00_ F_
TnE -004_ +00_ F_
TnE -002_ +00_ F_
TnE +000_ +00_ F_
TnE +002_ +00_ F_
TnE +004_ +00_ F_
TnE +002_ +00_ F_
TnE +000_ +00_ F_
TnE -002_ +00_ F_
TnE -004_ +00_ F_
TnE -002_ +00_ F_
TnE +000_ +00_ F_
TnE +002_ +00_ F_
TnE +004_ +00_ F_ L
TnE +002_ +00_ F_
TnE +000_ +00_ F_
TnE -002_ +00_ F_
TnE -004_ +00_ F_
TnE -002_ +00_ F_
TnE +000_ +00_ F_
TnE +002_ +00_ F_
TnE +004_ +00_ F_
TnE +002_ +00_ F_
TnE +000_ +00_ F_
TnE -002_ +00_ F_
TnE -004_ +00_ F_
TnE -001_ +00_ F_
TnE +000_ +00_ F_
TnE +002_ +00_ F_
TnE +004_ +00_ F_
TnE +002_ +00_ F_
TnE +000_ +00_ F_
TnE -002_ +00_ F_
TnE -004_ +00_ F_
TnE -002_ +00_ F_
TnE +000_ +00_ F_
TnE +002_ +00_ F_

[Sample7]
Tne +001_ +00_ F_ L

[Sample8]
Tne -002_ +00_ E_ L

[Sample9]
TNe +000_ +00_ E_ L

[Sample10]
tne +000_ +00_ 0_ L

[Sample11]
tne +000_ +00_ 0_ L

[Sample12]
tne +000_ +00_ 0_ L

[Sample13]
tne +000_ +00_ 0_ L

[Sample14]
tne +000_ +00_ 0_ L

[Sample15]
tne +000_ +00_ 0_ L

[Sample16]
tne +000_ +00_ 0_ L

[Sample17]
tne +000_ +00_ 0_ L

[Sample18]
tne +000_ +00_ 0_ L

[Sample19]
tne +000_ +00_ 0_ L

[Sample20]
TNe +0C8_ +07_ F_
Tne +190_ +00_ F_
Tne +258_ +00_ F_
Tne +320_ +00_ F_
tnE +3E8_ +00_ F_ L

[Sample21]
tne +000_ +00_ 0_ L

[Sample22]
tne +000_ +00_ 0_ L

[Sample23]
tne +000_ +00_ 0_ L

[Sample24]
tne +000_ +00_ 0_ L

[Sample25]
tne +000_ +00_ 0_ L

[Sample26]
tne +000_ +00_ 0_ L

[Sample27]
tne +000_ +00_ 0_ L

[Sample28]
TNE +120_ +00_ F_
TnE +140_ +00_ F_
TNE +1A0_ +00_ E_
tNE +000_ +03_ B_
tNE +000_ +06_ A_
tNE +000_ +0A_ 9_
tNE +000_ +0F_ 7_
TNE +000_ +00_ 0_ L

[Sample29]
tne +000_ +00_ 0_ L

[Sample30]
tne +000_ +00_ 0_ L

[Sample31]
tne +000_ +00_ 0_ L

[Pattern0]
....|.8|G#4 1F7C ....|G#3 KFFF ....|G#5 1F2C ....
....|.8|G#4 ...8 ....|G#1 4... ....|G#5 ...8 ....
..16|.7|B-4 ...C ....|G#2 3C.. ....|B-5 ...C ....
....|.7|G#4 ...8 ....|--- .... ....|G#5 ...8 ....
....|.6|D#5 ...C ....|G#3 SFF. ....|D#6 ...C ....
....|.5|B-4 ...8 ....|--- .... ....|B-5 ...8 ....
..2C|.5|F#5 ...C ....|G#1 3C.. ....|F#6 ...C ....
....|.4|D#5 ...8 ....|--- .... ....|D#6 ...8 ....
..42|.3|G#4 ...C ....|G#1 .C.. ....|G#5 ...C ....
....|..|F#5 ...8 ....|--- .... ....|F#6 ...8 ....
....|.1|B-4 ...C ....|G#3 KFF. ....|B-5 ...C ....
..21|..|G#4 ...8 ....|G#2 48F. ....|G#5 ...8 ....
....|.2|D#5 ...C ....|G#3 SFF. ....|D#6 ...C ....
....|..|B-4 ...8 ....|--- .... ....|B-5 ...8 ....
..31|.1|F#5 ...C ....|C#2 3C.. ....|F#6 ...C ....
....|..|D#5 ...8 ....|--- .... 91.2|D#6 ...8 ....
....|.3|E-4 ...C ....|G#3 KFF. ....|E-5 ...C ....
..53|..|F#5 ...8 ....|E-1 4C.. ....|F#6 ...8 ....
..2A|.1|G#4 ...C ....|E-2 3C.. ....|G#5 ...C ....
....|..|E-4 ...8 ....|--- .... ....|E-5 ...8 ....
....|.2|B-4 ...C ....|G#3 SFF. ....|B-5 ...C ....
....|..|G#4 ...8 ....|--- .... ....|G#5 ...8 ....
..53|.1|D#5 ...C ....|E-1 3C.. ....|D#6 ...C ....
....|..|B-4 ...8 ....|--- .... ....|B-5 ...8 ....
....|.3|E-4 ...C ....|G#3 KFF. ....|E-5 ...C ....
..53|..|D#5 ...8 ....|E-1 4C.. ....|D#6 ...8 ....
....|.1|G#4 ...C ....|G#3 KFF. ....|G#5 ...C ....
..2A|..|E-4 ...8 ....|E-2 4C.. ....|E-5 ...8 ....
....|.2|B-4 ...C ....|G#3 SFF. ....|B-5 ...C ....
....|..|G#4 ...8 ....|--- .... ....|G#5 ...8 ....
....|.1|D#5 ...C ....|G#3 K... ....|D#6 ...C ....
....|..|B-4 ...8 ....|G#3 .... ....|B-5 ...8 ....
....|.3|C#4 ...C ....|G#3 .... ....|C#5 ...C ....
..31|..|D#5 ...8 ....|C#1 4CF. ....|D#6 ...8 ....
..31|.1|E-4 ...C ....|C#2 3C.. ....|E-5 ...C ....
....|..|C#4 ...8 ....|--- .... ....|C#5 ...8 ....
....|.2|G#4 ...C ....|G#3 SFF. ....|G#5 ...C ....
....|..|E-4 ...8 ....|--- .... ....|E-5 ...8 ....
..42|.1|B-4 ...C ....|C#1 3C.. ....|B-5 ...C ....
....|..|G#4 ...8 ....|--- .... ....|G#5 ...8 ....
..31|.3|C#4 ...C ....|C#1 .8.. ....|C#5 ...C ....
....|..|B-4 ...8 ....|--- .... ....|B-5 ...8 ....
....|.1|E-4 ...C ....|G#3 KFF. ....|E-5 ...C ....
..31|..|C#4 ...8 ....|C#2 4CF. ....|C#5 ...8 ....
....|.2|G#4 ...C ....|G#3 SFF. ....|G#5 ...C ....
....|..|E-4 ...8 ....|--- .... ....|E-5 ...8 ....
..2A|.1|B-4 ...C ....|E-2 3C.. ....|B-5 ...C ....
....|..|G#4 ...8 ....|--- .... 91.2|G#5 ...8 ....
....|.3|D#4 ...C ....|G#3 KFF. ....|D#5 ...C ....
..58|..|B-4 ...8 ....|D#1 4C.. ....|B-5 ...8 ....
..2C|.1|F#4 ...C ....|D#2 3C.. ....|F#5 ...C ....
....|..|D#4 ...8 ....|--- .... ....|D#5 ...8 ....
....|.2|A#4 ...C ....|G#3 SFF. ....|A#5 ...C ....
....|..|F#4 ...8 ....|--- .... ....|F#5 ...8 ....
..58|.1|C#5 ...C ....|D#1 3C.. ....|C#6 ...C ....
....|..|A#4 ...8 ....|--- .... ....|A#5 ...8 ....
....|.3|D#4 ...C ....|G#3 KFF. ....|D#5 ...C ....
..58|..|C#5 ...8 ....|D#1 4C.. ....|C#6 ...8 ....
....|.1|F#4 ...C ....|G#3 KFF. ....|F#5 ...C ....
..2C|..|D#4 ...8 ....|D#2 4C.. ....|D#5 ...8 ....
....|.2|A#4 ...C ....|G#3 SFF. ....|A#5 ...C ....
....|..|F#4 ...8 ....|--- .... ....|F#5 ...8 ....
..58|.1|C#5 ...C ....|G#3 KCF. ....|C#6 ...C ....
....|..|A#4 ...8 ....|G#3 .CF. ....|A#5 ...8 ....

[Pattern1]
..42|..|G#3 KFFF B..4|G#1 48F8 ....|G#1 7F.D ....
....|..|--- .... ....|--- .... ....|--- .... ....
..21|..|--- .... ....|G#2 .8.. ....|G#2 .... ....
....|..|--- .... ....|--- .... ....|--- .... ....
..42|..|--- .... ....|G#1 18.. ....|G#1 ...8 ....
....|..|--- .... ....|--- .... ....|--- .... ....
..42|..|--- .... ....|G#1 48.. 6.50|G#1 ...D 6.50
....|..|--- .... ....|--- .... ....|--- .... ....
..42|..|G#3 .... ....|G#1 .8.. ....|G#1 .... ....
....|..|--- .... ....|--- .... ....|--- .... ....
..21|..|--- .... ....|G#2 .8.. ....|G#2 .... ....
....|..|--- .... ....|--- .... ....|--- .... ....
..42|..|--- .... ....|G#1 18.. ....|G#1 ...8 ....
....|..|--- .... ....|--- .... ....|--- .... ....
..42|..|--- .... ....|G#1 48.. 6.50|G#1 ...D 6.50
....|..|--- .... ....|--- .... ....|--- .... ....
..42|..|G#3 .... ....|G#1 .C.. ....|G#1 .C.. ....
....|..|--- .... ....|--- .... ....|--- .... ....
..21|..|--- .... ....|G#2 .8.. ....|G#2 .... ....
....|..|--- .... ....|--- .... ....|--- .... ....
..42|..|--- .... ....|G#1 18.. ....|G#1 ...8 ....
....|..|--- .... ....|--- .... ....|--- .... ....
..42|..|--- .... ....|G#1 48.. ....|G#1 ...D ....
....|..|--- .... ....|--- .... ....|--- .... ....
..42|..|G#3 .... ....|G#1 .8.. 6.50|G#1 .8.. 6.50
....|..|--- .... ....|--- .... ....|--- .... ....
..21|..|G#3 .... ....|G#2 .8.. ....|G#2 .... ....
....|..|--- .... ....|--- .... ....|--- .... ....
....|..|G#3 S... ....|G#2 .F.F 11AC|G#2 8F.. 11AC
....|..|G#3 .... ....|--- .... ....|--- .... ....
....|..|--- .... ....|--- .... ....|--- .... ....
....|.1|G#3 .... ....|--- .... ....|--- .... ....

[Pattern2]
....|.8|G#4 SFFF ....|G#3 KFFF B..4|B-4 6.7E ....
....|.8|D#6 9.9D ....|G#1 4... ....|--- .... ....
..16|.7|--- ...C ....|G#2 3C.. ....|--- .... ....
....|.7|--- .... ....|--- .... ....|A#4 ...A ....
....|.6|--- ...B ....|G#3 SFF. ....|B-4 .... ....
....|.5|--- ...A ....|--- .... ....|--- .... ....
..2C|.4|B-3 5.3E ....|G#1 3C.. ....|B-4 ...E ....
....|.4|--- .... ....|--- .... ....|--- .... ....
..2C|.2|--- .... ....|G#1 .8.. ....|--- .... ....
....|.1|--- .... ....|--- .... ....|A#4 ...A ....
....|.1|B-3 .... ....|G#3 KFF. ....|B-4 ...E ....
..21|..|--- .... ....|G#1 48F. ....|A#4 ...A ....
..21|.2|G#3 S.FF ....|G#2 .CF. ....|G#4 ...E ....
....|..|--- .... ....|--- .... ....|--- .... ....
..31|.1|B-3 5.3E ....|C#2 3C.. ....|F#4 .... ....
....|..|--- .... ....|--- .... 91.A|--- .... ....
....|.3|B-3 ..4. ....|G#3 KFF. ....|A#4 .... ....
..53|..|--- .... ....|E-1 4C.. ....|B-4 ..F. ....
..2A|.1|B-3 ..38 ....|E-2 3C.. ....|--- .... ....
....|..|--- .... ....|--- .... ....|F#4 ...A ....
....|.2|B-3 ..4. ....|G#3 SFF. ....|B-4 ..7E ....
....|..|--- .... ....|--- .... ....|--- .... ....
..53|.1|B-3 ...E ....|E-1 3C.. ....|--- .... ....
....|..|--- .... ....|--- .... ....|A#4 ...A ....
....|.3|--- .... ....|G#3 KFF. ....|B-4 .... ....
..53|..|--- .... ....|E-1 4C.. ....|--- .... ....
....|.1|B-3 .... ....|G#3 KFF. ....|B-4 ...E ....
..2A|..|--- .... ....|E-2 4C.. ....|A#4 ...A ....
..1C|.2|G#3 S.FF ....|E-2 .8.. ....|B-4 ...E ....
....|..|--- .... ....|--- .... ....|--- .... ....
..37|.1|G#3 K... ....|F#3 .C.. ....|G#4 .... ....
....|..|G#3 .... ....|--- .... 91.F|--- .... ....
....|.3|B-3 5.5E ....|G#3 KFF. ....|A#4 .... ....
..31|..|--- .... ....|C#1 4CF. ....|B-4 ..F. ....
..31|.1|B-3 ..48 ....|C#2 3C.. ....|--- .... ....
....|..|--- .... ....|--- .... ....|G#4 ...A ....
....|.2|B-3 ..5. ....|G#3 SFF. ....|B-4 ..7E ....
....|..|--- .... ....|--- .... ....|--- .... ....
..42|.1|B-3 ...E ....|C#1 3C.. ....|--- .... ....
....|..|--- .... ....|--- .... ....|B-4 ...A ....
..31|.3|--- .... ....|C#1 .8.. ....|A#4 ...E ....
....|..|--- .... ....|--- .... ....|B-4 .... ....
....|.1|B-3 .... ....|G#3 KFF. ....|A#4 .... ....
..31|..|--- .... ....|C#2 4CF. ....|--- .... ....
..2C|.2|G#3 S.FF ....|D#2 .8.. ....|G#4 .... ....
....|..|--- .... ....|--- .... ....|A#4 ...A ....
..2A|.1|B-3 5.5E ....|E-2 3C.. ....|F#4 ...E ....
....|..|--- .... ....|--- .... 91.2|--- .... ....
....|.3|B-3 ..6. ....|G#3 KFF. ....|--- .... ....
..58|..|--- .... ....|D#1 4C.. ....|--- .... ....
..2C|.1|B-3 ..58 ....|D#2 3C.. ....|--- .... ....
....|..|--- .... ....|--- .... ....|--- .... ....
....|.2|B-3 ..6. ....|G#3 SFF. ....|--- .... ....
....|..|--- .... ....|--- .... ....|--- .... ....
..58|.1|B-3 ...E ....|D#1 3C.. ....|G#4 ...A ....
....|..|--- .... ....|--- .... ....|F#4 .... ....
....|.3|--- .... ....|G#3 KFF. ....|D#4 ...E ....
..58|..|--- .... ....|D#1 4C.. ....|--- .... ....
....|.1|B-3 .... ....|G#3 KFF. ....|--- .... ....
..2C|..|--- .... ....|D#2 4C.. ....|F#4 ...A ....
..2A|.2|G#3 S.FF ....|E-1 .8.. ....|F#4 ...E ....
....|..|--- .... ....|--- .... ....|--- .... ....
..2C|.1|G#3 K... ....|D#2 .E.. ....|--- .... ....
....|..|G#3 .... ....|--- .... 91.1|F#4 ...A ....

[Pattern3]
....|.3|B-3 5.3E ....|G#3 KFFF B..4|B-4 ...E ....
....|..|--- .... ....|G#1 4... ....|--- .... ....
..16|.1|B-3 ..68 ....|G#2 3C.. ....|--- .... ....
....|..|--- .... ....|--- .... ....|F#4 ...A ....
....|.2|B-3 ..3. ....|G#3 SFF. ....|B-4 .... ....
....|..|--- .... ....|--- .... ....|--- .... ....
..2C|.1|B-3 ...E ....|G#1 3C.. ....|B-4 ...E ....
....|..|--- .... ....|--- .... ....|--- .... ....
..2C|.3|--- .... ....|G#1 .8.. ....|--- .... ....
....|..|--- .... ....|--- .... ....|F#4 ...A ....
....|.1|B-3 .... ....|G#3 KFF. ....|B-4 ...E ....
..21|..|--- .... ....|G#1 48F. ....|F#4 ...A ....
..21|.2|G#3 SFFF ....|G#2 .CF. ....|C#5 ...E ....
....|..|--- .... ....|--- .... ....|--- .... ....
..31|.1|B-3 5.3E ....|C#2 3C.. ....|D#5 .... ....
....|..|--- .... ....|--- .... 91.A|--- .... ....
....|.3|B-3 ..4. ....|G#3 KFF. ....|A#4 .... ....
..53|..|--- .... ....|E-1 4C.. ....|B-4 ..F. ....
..2A|.1|B-3 ..38 ....|E-2 3C.. ....|--- .... ....
....|..|--- .... ....|--- .... ....|C#5 ...A ....
....|.2|B-3 ..4. ....|G#3 SFF. ....|B-4 ..7E ....
....|..|--- .... ....|--- .... ....|--- .... ....
..53|.1|B-3 ...E ....|E-1 3C.. ....|--- .... ....
....|..|--- .... ....|--- .... ....|C#5 ...A ....
....|.3|--- .... ....|G#3 KFF. ....|B-4 .... ....
..53|..|--- .... ....|E-1 4C.. ....|--- .... ....
....|.1|B-3 .... ....|G#3 KFF. ....|B-4 ...E ....
..2A|..|--- .... ....|E-2 4C.. ....|C#5 ...A ....
..1C|.2|G#3 S.FF ....|E-2 .8.. ....|B-4 ...E ....
....|..|--- .... ....|--- .... ....|--- .... ....
..37|.1|G#3 K... ....|F#3 .C.. ....|A#4 .... ....
....|..|G#3 .... ....|--- .... 91.F|B-4 ...A ....
....|.3|B-3 5.5E ....|G#3 KFF. ....|A#4 ...E ....
..31|..|--- .... ....|C#1 4CF. ....|B-4 ..F. 31FF
..31|.1|B-3 ..48 ....|C#2 3C.. ....|--- .... ....
....|..|--- .... ....|--- .... ....|A#4 ...A ....
....|.2|B-3 ..5. ....|G#3 SFF. ....|B-4 ..7E ....
....|..|--- .... ....|--- .... ....|--- .... ....
..42|.1|B-3 ...E ....|C#1 3C.. ....|--- .... ....
....|..|--- .... ....|--- .... ....|A#4 ...A ....
..31|.3|--- .... ....|C#1 .8.. ....|C#5 ...E ....
....|..|--- .... ....|--- .... ....|D#5 .... ....
....|.1|B-3 .... ....|G#3 KFF. ....|C#5 .... ....
..31|..|--- .... ....|C#2 4CF. ....|--- .... ....
..2C|.2|G#3 S.FF ....|D#2 .8.. ....|B-4 .... ....
....|..|--- .... ....|--- .... ....|D#5 ...A ....
..2A|.1|B-3 5.5E ....|E-2 3C.. ....|C#5 ...E ....
....|..|--- .... ....|--- .... 91.2|--- .... ....
....|.3|B-3 ..6. ....|G#3 KFF. ....|--- .... ....
..58|..|--- .... ....|D#1 4C.. ....|--- .... ....
..2C|.1|B-3 ..58 ....|D#2 3C.. ....|--- .... ....
....|..|--- .... ....|--- .... ....|--- .... ....
....|.2|B-3 ..6. ....|G#3 SFF. ....|--- .... ....
....|..|--- .... ....|--- .... ....|--- .... ....
..58|.1|B-3 ...E ....|D#1 3C.. ....|B-4 ...A ....
....|..|--- .... ....|--- .... ....|C#5 .... ....
....|.3|--- .... ....|G#3 KFF. ....|D#5 ...E ....
..58|..|--- .... ....|D#1 4C.. ....|--- .... ....
....|.1|B-3 .... ....|G#3 KFF. ....|--- .... ....
..2C|..|--- .... ....|D#2 4C.. ....|--- .... ....
..2A|.2|G#3 S.FF ....|E-1 .8.. ....|--- .... ....
....|..|--- .... ....|--- .... ....|--- .... ....
..2C|.1|G#3 K... ....|D#2 .E.. ....|--- .... 11.1
....|..|G#3 .... ....|--- .... 91.1|--- .... 21.1

[Pattern4]
....|..|G#3 7.F9 ....|G#1 4FFF ....|B-4 .F.. ....
....|..|B-3 .... ....|--- .... ....|--- .... ....
....|..|D#4 .... ....|G#2 .... ....|--- .... ....
....|..|G#4 .... ....|--- .... ....|--- .... ....
....|..|G#3 ...C ....|--- ...B ....|--- ...E ....
....|..|B-3 .... ....|--- .... ....|--- .... ....
....|..|D#4 .... ....|--- .... ....|--- .... ....
....|..|G#4 .... ....|--- .... ....|--- .... ....
....|..|G#3 ...E ....|--- .... ....|--- ...D ....
....|..|B-3 .... ....|--- .... ....|--- .... ....
....|..|D#4 .... ....|--- .... ....|--- .... ....
....|..|G#4 .... ....|--- .... ....|--- .... ....
....|..|G#3 ...C ....|--- .... ....|--- ...C ....
....|..|B-3 .... ....|--- .... ....|--- .... ....
....|..|D#4 .... ....|--- .... ....|--- .... ....
....|..|G#4 .... ....|--- .... ....|--- .... ....
....|..|E-3 ...A ....|E-1 ...F ....|--- ...B ....
....|..|G#3 .... ....|--- .... ....|--- .... ....
....|..|B-3 .... ....|E-2 .... ....|--- .... ....
....|..|E-4 .... ....|--- .... ....|--- .... ....
....|..|E-3 ...C ....|--- ...B ....|--- ...A ....
....|..|G#3 .... ....|--- .... ....|--- .... ....
....|..|B-3 .... ....|--- .... ....|--- .... ....
....|..|E-4 .... ....|--- .... ....|--- .... ....
....|..|E-3 ...E ....|--- .... ....|--- ...9 ....
....|..|G#3 .... ....|--- .... ....|--- .... ....
....|..|B-3 .... ....|--- .... ....|--- .... ....
....|..|E-4 .... ....|--- .... ....|--- ...8 ....
....|..|E-3 ...C ....|--- .... ....|--- .... ....
....|..|G#3 .... ....|--- .... ....|--- .... ....
....|..|B-3 .... ....|--- .... ....|--- ...7 ....
....|..|E-4 .... ....|--- .... ....|--- .... ....
....|..|C#3 ...A ....|C#1 ...F ....|--- .... ....
....|..|E-3 .... ....|--- .... ....|--- ...6 ....
....|..|G#3 .... ....|C#2 .... ....|--- .... ....
....|..|C#4 .... ....|--- .... ....|--- .... ....
....|..|C#3 ...C ....|--- ...B ....|--- ...5 ....
....|..|E-3 .... ....|--- .... ....|--- .... ....
....|..|G#3 .... ....|--- .... ....|--- .... ....
....|..|C#4 .... ....|--- .... ....|--- ...4 ....
....|..|C#3 ...E ....|--- .... ....|--- .... ....
....|..|E-3 .... ....|--- .... ....|--- .... ....
....|..|G#3 .... ....|--- .... ....|--- ...3 ....
....|..|C#4 .... ....|--- .... ....|--- .... ....
....|..|C#3 ...C ....|--- .... ....|--- .... ....
....|..|E-3 .... ....|--- .... ....|--- ...2 ....
....|..|G#3 .... ....|--- .... ....|--- .... ....
....|..|C#4 .... ....|--- .... ....|--- .... ....
....|..|D#3 ...A ....|D#1 ...F ....|--- ...1 ....
....|..|F#3 .... ....|--- .... ....|--- .... ....
....|..|A#3 .... ....|D#2 .... ....|R-- .... ....
....|..|D#4 .... ....|--- .... ....|--- .... ....
....|..|D#3 ...C ....|--- ...B ....|--- .... ....
....|..|F#3 .... ....|--- .... ....|--- .... ....
....|..|A#3 .... ....|--- .... ....|--- .... ....
....|..|D#4 .... ....|--- .... ....|--- .... ....
....|..|D#3 ...E ....|--- .... ....|--- .... ....
....|..|F#3 .... ....|--- .... ....|--- .... ....
....|..|A#3 .... ....|--- .... ....|--- .... ....
....|..|D#4 .... ....|--- .... ....|--- .... ....
....|..|D#3 ...C ....|--- .... ....|--- .... ....
....|..|F#3 .... ....|--- .... ....|--- .... ....
....|..|A#3 .... ....|--- .... ....|--- .... ....
....|..|D#4 .... ....|--- .... ....|--- .... ....

[Pattern5]
....|..|G#3 7.F9 ....|G#1 4FFF ....|G#4 7.F9 ....
....|..|B-3 .... ....|--- .... ....|B-4 .... ....
....|..|D#4 .... ....|G#2 .... ....|D#5 .... ....
....|..|G#4 .... ....|--- .... ....|G#5 .... ....
....|..|G#3 ...B ....|--- ...B ....|G#4 ...B ....
....|..|B-3 .... ....|--- .... ....|B-4 .... ....
....|..|D#4 .... ....|--- .... ....|D#5 .... ....
....|..|G#4 .... ....|--- .... ....|G#5 .... ....
....|..|G#3 ...D ....|--- .... ....|G#4 ...D ....
....|..|B-3 .... ....|--- .... ....|B-4 .... ....
....|..|D#4 .... ....|--- .... ....|D#5 .... ....
....|..|G#4 .... ....|--- .... ....|G#5 .... ....
....|..|G#3 ...B ....|--- .... ....|G#4 ...B ....
....|..|B-3 .... ....|--- .... ....|B-4 .... ....
....|..|D#4 .... ....|--- .... ....|D#5 .... ....
....|..|G#4 .... ....|--- .... ....|G#5 .... ....
....|..|E-3 ...9 ....|E-1 ...F ....|E-4 ...9 ....
....|..|G#3 .... ....|--- .... ....|G#4 .... ....
....|..|B-3 .... ....|E-2 .... ....|B-4 .... ....
....|..|E-4 .... ....|--- .... ....|E-5 .... ....
....|..|E-3 ...B ....|--- ...B ....|E-4 ...B ....
....|..|G#3 .... ....|--- .... ....|G#4 .... ....
....|..|B-3 .... ....|--- .... ....|B-4 .... ....
....|..|E-4 .... ....|--- .... ....|E-5 .... ....
....|..|E-3 ...D ....|--- .... ....|E-4 ...D ....
....|..|G#3 .... ....|--- .... ....|G#4 .... ....
....|..|B-3 .... ....|--- .... ....|B-4 .... ....
....|..|E-4 .... ....|--- .... ....|E-5 .... ....
....|..|E-3 ...B ....|--- .... ....|E-4 ...B ....
....|..|G#3 .... ....|--- .... ....|G#4 .... ....
....|..|B-3 .... ....|--- .... ....|B-4 .... ....
....|..|E-4 .... ....|--- .... ....|E-5 .... ....
....|..|C#3 ...9 ....|C#1 ...F ....|C#4 ...9 ....
....|..|E-3 .... ....|--- .... ....|E-4 .... ....
....|..|G#3 .... ....|C#2 .... ....|G#4 .... ....
....|..|C#4 .... ....|--- .... ....|C#5 .... ....
....|..|C#3 ...B ....|--- ...B ....|C#4 ...B ....
....|..|E-3 .... ....|--- .... ....|E-4 .... ....
....|..|G#3 .... ....|--- .... ....|G#4 .... ....
....|..|C#4 .... ....|--- .... ....|C#5 .... ....
....|..|C#3 ...D ....|--- .... ....|C#4 ...D ....
....|..|E-3 .... ....|--- .... ....|E-4 .... ....
....|..|G#3 .... ....|--- .... ....|G#4 .... ....
....|..|C#4 .... ....|--- .... ....|C#5 .... ....
....|..|C#3 ...B ....|--- .... ....|C#4 ...B ....
....|..|E-3 .... ....|--- .... ....|E-4 .... ....
....|..|G#3 .... ....|--- .... ....|G#4 .... ....
....|..|C#4 .... ....|--- .... ....|C#5 .... ....
....|..|D#3 ...9 ....|D#1 ...F ....|D#4 ...9 ....
....|..|F#3 .... ....|--- .... ....|F#4 .... ....
....|..|A#3 .... ....|D#2 .... ....|A#4 .... ....
....|..|D#4 .... ....|--- .... ....|D#5 .... ....
....|..|D#3 ...B ....|--- ...B ....|D#4 ...B ....
....|..|F#3 .... ....|--- .... ....|F#4 .... ....
....|..|A#3 .... ....|--- .... ....|A#4 .... ....
....|..|D#4 .... ....|--- .... ....|D#5 .... ....
....|..|D#3 ...D ....|G#3 K..F ....|D#4 ...C ....
....|..|F#3 .... ....|--- .... ....|F#4 .... ....
....|..|C-4 1..F 1190|G#3 .... ....|A#4 .... ....
....|..|--- .... ....|--- .... ....|D#5 .... ....
....|..|D#3 7..B ....|G#3 S... ....|G-3 4FFF 1144
....|..|F#3 .... ....|G#3 .... ....|--- .... ....
....|..|A#3 .... ....|--- .... ....|--- .... ....
....|..|D#4 .... ....|G#3 .... ....|--- .... ....

[Pattern6]
....|.8|G#4 SFFF ....|G#3 KFFF B..2|B-4 6.7E ....
....|..|--- .... ....|--- .... ....|--- .... ....
....|.8|D#6 9.9D ....|G#1 4... ....|--- .... ....
....|..|--- .... ....|--- .... ....|--- .... ....
..16|.7|--- ...C ....|G#2 3C.. ....|--- .... ....
....|..|--- .... ....|--- .... ....|--- .... ....
....|.7|--- .... ....|--- .... ....|--- ...3 ....
....|..|--- .... ....|--- .... ....|--- .... ....
....|.6|--- ...B ....|G#3 SFF. ....|A#4 ...E 31F0
....|..|--- .... ....|--- .... ....|--- .... ....
....|.5|--- ...A ....|--- .... ....|--- .... ....
....|..|--- .... ....|--- .... ....|--- .... ....
..2C|.4|G#5 4.2D ....|G#1 3C.. ....|--- .... ....
....|..|--- ...9 ....|--- .... ....|--- .... ....
....|.4|F#5 ...D ....|--- .... ....|--- ...3 11.A
....|..|G#5 ...9 ....|--- .... ....|--- .... ....
..2C|.2|D#5 ...D ....|G#1 .C.. ....|G#4 ...E ....
....|..|F#5 ...9 ....|--- .... ....|--- .... ....
....|.1|G#4 ...D ....|--- .... ....|--- ...3 ....
....|..|D#5 ...9 ....|--- .... ....|--- .... ....
....|.1|F#4 ...D ....|G#3 KFF. ....|F#4 ...E ....
....|..|G#4 ...9 ....|--- .... ....|--- .... ....
..21|..|D#4 ...D ....|G#2 48F. ....|--- .... ....
....|..|F#4 ...9 ....|--- .... ....|--- .... ....
....|.2|G#5 ...D ....|G#3 SFF. ....|--- .... ....
....|..|D#4 ...9 ....|--- .... ....|--- .... ....
....|..|G#5 ...D ....|--- .... ....|--- ...3 ....
....|..|G#5 ...9 ....|--- .... ....|--- .... ....
..31|.1|G#5 ...D ....|C#2 3C.. ....|G#4 ...E 31.6
....|..|G#5 ...9 ....|--- .... ....|--- .... ....
....|..|G#5 ...D ....|--- .... 91.2|--- .... ....
....|..|G#5 ...9 ....|--- .... ....|--- .... ....
....|.3|E-5 ...D ....|G#3 KFF. ....|--- .... ....
....|..|G#5 ...9 ....|--- .... ....|--- .... ....
..53|..|D#5 ...D ....|E-1 4C.. ....|--- .... ....
....|..|E-5 ...9 ....|--- .... ....|--- .... ....
..2A|.1|B-4 ...D ....|E-2 3C.. ....|--- .... ....
....|..|D#5 ...9 ....|--- .... ....|--- .... ....
....|..|E-4 ...D ....|--- .... ....|--- .... ....
....|..|B-4 ...9 ....|--- .... ....|--- .... ....
....|.2|D#4 ...D ....|G#3 SFF. ....|--- .... ....
....|..|E-4 ...9 ....|--- .... ....|--- .... ....
....|..|B-3 ...D ....|--- .... ....|--- .... ....
....|..|D#4 ...9 ....|--- .... ....|--- .... ....
..53|.1|E-5 ...D ....|E-1 3C.. ....|--- .... 11.4
....|..|B-3 ...9 ....|--- .... ....|--- .... ....
....|..|D#5 ...D ....|--- .... ....|--- ...3 ....
....|..|E-5 ...9 ....|--- .... ....|--- .... ....
....|.3|B-4 ...D ....|G#3 KFF. ....|F#4 ...E 3.F0
....|..|D#5 ...9 ....|--- .... ....|--- .... ....
..53|..|E-4 ...D ....|E-1 4C.. ....|--- ...3 ....
....|..|B-4 ...9 ....|--- .... ....|--- .... ....
....|.1|D#4 ...D ....|G#3 KFF. ....|G#4 ...E ....
....|..|E-4 ...9 ....|--- .... ....|--- .... ....
..2A|..|B-3 ...D ....|E-2 4C.. ....|--- .... ....
....|..|D#4 ...9 ....|--- .... ....|--- .... ....
....|.2|E-5 ...D ....|G#3 SFF. ....|--- .... ....
....|..|B-3 ...9 ....|--- .... ....|--- .... ....
....|..|E-5 ...D ....|--- .... ....|--- ...3 ....
....|..|E-5 ...9 ....|--- .... ....|--- .... ....
....|.1|E-5 ...D ....|G#3 K... ....|B-4 ...E ....
....|..|E-5 ...9 ....|--- .... ....|--- .... ....
....|..|E-5 ...D ....|G#3 .... ....|--- .... ....
....|..|E-5 ...9 ....|--- .... ....|--- .... ....
....|.3|C#5 ...D ....|G#3 .... ....|--- .... ....
....|..|E-5 ...9 ....|--- .... ....|--- .... ....
..31|..|B-4 ...D ....|C#1 4CF. ....|--- ...3 ....
....|..|C#5 ...9 ....|--- .... ....|--- .... ....
..31|.1|G#4 ...D ....|C#2 3C.. ....|B-4 ...E ....
....|..|B-4 ...9 ....|--- .... ....|--- .... ....
....|..|C#4 ...D ....|--- .... ....|--- .... ....
....|..|G#4 ...9 ....|--- .... ....|--- .... ....
....|.2|B-3 ...D ....|G#3 SFF. ....|G#4 .... ....
....|..|C#4 ...9 ....|--- .... ....|--- .... ....
....|..|G#3 ...D ....|--- .... ....|--- .... ....
....|..|B-3 ...9 ....|--- .... ....|--- .... ....
..42|.1|C#5 ...D ....|C#1 3C.. ....|--- .... ....
....|..|G#3 ...9 ....|--- .... ....|--- .... ....
....|..|B-4 ...D ....|--- .... ....|--- ...3 ....
....|..|C#5 ...9 ....|--- .... ....|--- .... ....
..31|.3|G#4 ...D ....|C#1 .8.. ....|A#4 ...E 31.A
....|..|B-4 ...9 ....|--- .... ....|--- .... ....
....|..|C#4 ...D ....|--- .... ....|--- .... ....
....|..|G#4 ...9 ....|--- .... ....|--- .... ....
....|.1|B-3 ...D ....|G#3 KFF. ....|B-4 .... ....
....|..|C#4 ...9 ....|--- .... ....|--- .... ....
..31|..|G#3 ...D ....|C#2 4CF. ....|--- .... ....
....|..|B-3 ...9 ....|--- .... ....|--- .... ....
....|.2|C#5 ...D ....|G#3 SFF. ....|--- .... ....
....|..|G#3 ...9 ....|--- .... ....|--- .... ....
....|..|C#5 ...D ....|--- .... ....|--- ...3 11.A
....|..|C#5 ...9 ....|--- .... ....|--- .... ....
..2A|.1|C#5 ...D ....|E-2 3C.. ....|C#5 ...E 3119
....|..|C#5 ...9 ....|--- .... ....|--- .... ....
....|..|C#5 ...D ....|--- .... 91.2|--- .... ....
....|..|C#5 ...9 ....|--- .... ....|--- .... ....
....|.3|D#5 ...D ....|G#3 KFF. ....|--- .... ....
....|..|C#5 ...9 ....|--- .... ....|--- .... ....
..58|..|C#5 ...D ....|D#1 4C.. ....|--- .... ....
....|..|D#5 ...9 ....|--- .... ....|--- .... ....
..2C|.1|A#4 ...D ....|D#2 3C.. ....|C#5 .... ....
....|..|C#5 ...9 ....|--- .... ....|--- .... ....
....|..|D#4 ...D ....|--- .... ....|--- ...3 ....
....|..|A#4 ...9 ....|--- .... ....|--- .... ....
....|.2|C#4 ...D ....|G#3 SFF. ....|C#5 ...E ....
....|..|D#4 ...9 ....|--- .... ....|--- .... ....
....|..|A#3 ...D ....|--- .... ....|--- .... ....
....|..|C#4 ...9 ....|--- .... ....|--- .... ....
..58|.1|D#5 ...D ....|D#1 3C.. ....|A#4 .... ....
....|..|A#3 ...9 ....|--- .... ....|--- .... ....
....|..|C#5 ...D ....|--- .... ....|--- ...3 ....
....|..|D#5 ...9 ....|--- .... ....|--- .... ....
....|.3|A#4 ...D ....|G#3 KFF. ....|B-4 ...E ....
....|..|C#5 ...9 ....|--- .... ....|--- .... ....
..58|..|D#4 ...D ....|D#1 4C.. ....|--- .... ....
....|..|A#4 ...9 ....|--- .... ....|--- .... ....
....|.1|C#4 ...D ....|G#3 KFF. ....|--- .... ....
....|..|D#4 ...9 ....|--- .... ....|--- .... ....
..2C|..|A#3 ...D ....|D#2 4C.. ....|--- .... ....
....|..|C#4 ...9 ....|--- .... ....|--- .... ....
....|.2|D#5 ...D ....|G#3 SFF. ....|A#4 .... ....
....|..|A#3 ...9 ....|--- .... ....|--- .... ....
....|..|D#5 ...D ....|--- .... ....|--- .... ....
....|..|D#5 ...9 ....|--- .... ....|--- .... ....
..2C|.1|D#5 ...D ....|G#3 KCF. ....|--- .... ....
....|..|D#5 ...9 ....|--- .... ....|--- .... ....
....|..|D#5 ...D ....|G#3 .CF. ....|--- .... ....
....|..|D#5 ...9 ....|--- .... ....|--- .... ....

[Pattern7]
....|.8|G#5 4.2D B..2|G#3 KFFF ....|B-4 ...E ....
....|..|D#5 ...9 ....|--- .... ....|--- .... ....
....|.8|F#5 ...D ....|G#1 4... ....|--- .... ....
....|..|G#5 ...9 ....|--- .... ....|--- .... ....
..16|.7|D#5 ...D ....|G#2 3C.. ....|--- .... ....
....|..|F#5 ...9 ....|--- .... ....|--- .... ....
....|.7|G#4 ...D ....|--- .... ....|--- ...3 ....
....|..|D#5 ...9 ....|--- .... ....|--- .... ....
....|.6|F#4 ...D ....|G#3 SFF. ....|A#4 ...E 31F0
....|..|G#4 ...9 ....|--- .... ....|--- .... ....
....|.5|D#4 ...D ....|--- .... ....|--- .... ....
....|..|F#4 ...9 ....|--- .... ....|--- .... ....
..2C|.4|G#5 ...D ....|G#1 3C.. ....|--- .... ....
....|..|D#4 ...9 ....|--- .... ....|--- .... ....
....|.4|F#5 ...D ....|--- .... ....|--- ...3 11.A
....|..|G#5 ...9 ....|--- .... ....|--- .... ....
..2C|.2|D#5 ...D ....|G#1 .C.. ....|G#4 ...E ....
....|..|F#5 ...9 ....|--- .... ....|--- .... ....
....|.1|G#4 ...D ....|--- .... ....|--- ...3 ....
....|..|D#5 ...9 ....|--- .... ....|--- .... ....
....|.1|F#4 ...D ....|G#3 KFF. ....|F#4 ...E ....
....|..|G#4 ...9 ....|--- .... ....|--- .... ....
..21|..|D#4 ...D ....|G#2 48F. ....|--- .... ....
....|..|F#4 ...9 ....|--- .... ....|--- .... ....
....|.2|G#5 ...D ....|G#3 SFF. ....|--- .... ....
....|..|D#4 ...9 ....|--- .... ....|--- .... ....
....|..|G#5 ...D ....|--- .... ....|--- ...3 ....
....|..|G#5 ...9 ....|--- .... ....|--- .... ....
..31|.1|G#5 ...D ....|C#2 3C.. ....|B-4 ...E ....
....|..|G#5 ...9 ....|--- .... ....|--- .... ....
....|..|G#5 ...D ....|--- .... 91.2|--- .... ....
....|..|G#5 ...9 ....|--- .... ....|--- .... ....
....|.3|E-5 ...D ....|G#3 KFF. ....|--- .... ....
....|..|G#5 ...9 ....|--- .... ....|--- .... ....
..53|..|D#5 ...D ....|E-1 4C.. ....|--- .... ....
....|..|E-5 ...9 ....|--- .... ....|--- .... ....
..2A|.1|B-4 ...D ....|E-2 3C.. ....|--- .... ....
....|..|D#5 ...9 ....|--- .... ....|--- .... ....
....|..|E-4 ...D ....|--- .... ....|--- .... ....
....|..|B-4 ...9 ....|--- .... ....|--- .... ....
....|.2|D#4 ...D ....|G#3 SFF. ....|--- .... ....
....|..|E-4 ...9 ....|--- .... ....|--- .... ....
....|..|B-3 ...D ....|--- .... ....|--- .... ....
....|..|D#4 ...9 ....|--- .... ....|--- .... ....
..53|.1|E-5 ...D ....|E-1 3C.. ....|--- .... 11.4
....|..|B-3 ...9 ....|--- .... ....|--- .... ....
....|..|D#5 ...D ....|--- .... ....|--- .... ....
....|..|E-5 ...9 ....|--- .... ....|--- .... ....
....|.3|B-4 ...D ....|G#3 KFF. ....|G#4 .... 31F0
....|..|D#5 ...9 ....|--- .... ....|--- .... ....
..53|..|E-4 ...D ....|E-1 4C.. ....|--- ...3 ....
....|..|B-4 ...9 ....|--- .... ....|--- .... ....
....|.1|D#4 ...D ....|G#3 KFF. ....|A#4 ...E ....
....|..|E-4 ...9 ....|--- .... ....|--- .... ....
..2A|..|B-3 ...D ....|E-2 4C.. ....|--- .... ....
....|..|D#4 ...9 ....|--- .... ....|--- .... ....
....|.2|E-5 ...D ....|G#3 SFF. ....|--- .... ....
....|..|B-3 ...9 ....|--- .... ....|--- .... ....
....|..|E-5 ...D ....|--- .... ....|--- ...3 ....
....|..|E-5 ...9 ....|--- .... ....|--- .... ....
....|.1|E-5 ...D ....|G#3 K... ....|B-4 ...E ....
....|..|E-5 ...9 ....|--- .... ....|--- .... ....
....|..|E-5 ...D ....|G#3 .... ....|--- .... ....
....|..|E-5 ...9 ....|--- .... ....|--- .... ....
....|.3|C#5 ...D ....|G#3 .... ....|--- .... ....
....|..|E-5 ...9 ....|--- .... ....|--- .... ....
..31|..|B-4 ...D ....|C#1 4CF. ....|--- ...3 ....
....|..|C#5 ...9 ....|--- .... ....|--- .... ....
..31|.1|G#4 ...D ....|C#2 3C.. ....|B-4 ...E ....
....|..|B-4 ...9 ....|--- .... ....|--- .... ....
....|..|C#4 ...D ....|--- .... ....|--- .... ....
....|..|G#4 ...9 ....|--- .... ....|--- .... ....
....|.2|B-3 ...D ....|G#3 SFF. ....|G#4 .... ....
....|..|C#4 ...9 ....|--- .... ....|--- .... ....
....|..|G#3 ...D ....|--- .... ....|--- .... ....
....|..|B-3 ...9 ....|--- .... ....|--- .... ....
..42|.1|C#5 ...D ....|C#1 3C.. ....|--- .... ....
....|..|G#3 ...9 ....|--- .... ....|--- .... ....
....|..|B-4 ...D ....|--- .... ....|--- ...3 ....
....|..|C#5 ...9 ....|--- .... ....|--- .... ....
..31|.3|G#4 ...D ....|C#1 .8.. ....|A#4 ...E 31.A
....|..|B-4 ...9 ....|--- .... ....|--- .... ....
....|..|C#4 ...D ....|--- .... ....|--- .... ....
....|..|G#4 ...9 ....|--- .... ....|--- .... ....
....|.1|B-3 ...D ....|G#3 KFF. ....|B-4 .... ....
....|..|C#4 ...9 ....|--- .... ....|--- .... ....
..31|..|G#3 ...D ....|C#2 4CF. ....|--- .... ....
....|..|B-3 ...9 ....|--- .... ....|--- .... ....
....|.2|C#5 ...D ....|G#3 SFF. ....|--- .... ....
....|..|G#3 ...9 ....|--- .... ....|--- .... ....
....|..|C#5 ...D ....|--- .... ....|--- ...3 11.A
....|..|C#5 ...9 ....|--- .... ....|--- .... ....
..2A|.1|C#5 ...D ....|E-2 3C.. ....|D#5 ...E 3129
....|..|C#5 ...9 ....|--- .... ....|--- .... ....
....|..|C#5 ...D ....|--- .... 91.2|--- .... ....
....|..|C#5 ...9 ....|--- .... ....|--- .... ....
....|.3|D#5 ...D ....|G#3 KFF. ....|--- .... ....
....|..|C#5 ...9 ....|--- .... ....|--- .... ....
..58|..|C#5 ...D ....|D#1 4C.. ....|--- .... ....
....|..|D#5 ...9 ....|--- .... ....|--- .... ....
..2C|.1|A#4 ...D ....|D#2 3C.. ....|E-5 .... ....
....|..|C#5 ...9 ....|--- .... ....|--- .... ....
....|..|D#4 ...D ....|--- .... ....|--- ...3 ....
....|..|A#4 ...9 ....|--- .... ....|--- .... ....
....|.2|C#4 ...D ....|G#3 SFF. ....|D#5 ...E ....
....|..|D#4 ...9 ....|--- .... ....|--- .... ....
....|..|A#3 ...D ....|--- .... ....|--- .... ....
....|..|C#4 ...9 ....|--- .... ....|--- .... ....
..58|.1|D#5 ...D ....|D#1 3C.. ....|C#5 .... ....
....|..|A#3 ...9 ....|--- .... ....|--- .... ....
....|..|C#5 ...D ....|--- .... ....|--- ...3 ....
....|..|D#5 ...9 ....|--- .... ....|--- .... ....
....|.3|A#4 ...D ....|G#3 KFF. ....|B-4 ...E ....
....|..|C#5 ...9 ....|--- .... ....|--- .... ....
..58|..|D#4 ...D ....|D#1 4C.. ....|--- .... ....
....|..|A#4 ...9 ....|--- .... ....|--- .... ....
....|.1|C#4 ...D ....|G#3 KFF. ....|--- .... ....
....|..|D#4 ...9 ....|--- .... ....|--- .... ....
..2C|..|A#3 ...D ....|D#2 4C.. ....|--- .... ....
....|..|C#4 ...9 ....|--- .... ....|--- .... ....
....|.2|D#5 ...D ....|G#3 SFF. ....|A#4 .... ....
....|..|A#3 ...9 ....|--- .... ....|--- .... ....
....|..|D#5 ...D ....|--- .... ....|--- .... ....
....|..|D#5 ...9 ....|--- .... ....|--- .... ....
..2C|.1|D#5 ...D ....|G#3 KCF. ....|--- .... ....
....|..|D#5 ...9 ....|--- .... ....|--- .... ....
....|..|D#5 ...D ....|G#3 .CF. ....|--- .... ....
....|..|D#5 ...9 ....|--- .... ....|--- .... ....

[Pattern8]
....|.8|G#4 6.7E ....|G#3 KFFF B..4|G#4 1.AE ....
....|.8|--- .... ....|G#1 4... ....|--- .... ....
..16|.7|--- ...D ....|G#2 3C.. ....|--- .... ....
....|.7|--- .... ....|--- .... ....|G#4 .... ....
....|.6|--- ...C ....|G#3 SFF. ....|--- .... ....
....|.5|--- .... ....|--- .... ....|--- .... ....
..2C|.4|--- ...B ....|G#1 3C.. ....|G#4 .... ....
....|.4|--- .... ....|--- .... ....|--- .... ....
..2C|.2|--- ...A ....|G#1 .8.. ....|G#4 .... ....
....|.1|--- .... ....|--- .... ....|--- .... ....
....|.1|--- ...9 ....|G#3 KFF. ....|--- .... ....
..21|..|--- ...8 ....|G#1 48F. ....|--- .... ....
..21|.2|G#3 S.FF ....|G#2 .CF. ....|G#4 .... ....
....|..|--- .... ....|--- .... ....|--- .... ....
..31|.1|--- .... ....|C#2 3C.. ....|G#5 .... ....
....|..|--- .... ....|--- .... 91.A|--- .... ....
....|.3|--- .... ....|G#3 KFF. ....|E-4 ..B. ....
..53|..|--- .... ....|E-1 4C.. ....|--- .... ....
..2A|.1|--- .... ....|E-2 3C.. ....|--- .... ....
....|..|--- .... ....|--- .... ....|E-4 .... ....
....|.2|--- .... ....|G#3 SFF. ....|--- .... ....
....|..|--- .... ....|--- .... ....|--- .... ....
..53|.1|--- .... ....|E-1 3C.. ....|E-4 .... ....
....|..|--- .... ....|--- .... ....|--- .... ....
....|.3|--- .... ....|G#3 KFF. ....|E-4 .... ....
..53|..|--- .... ....|E-1 4C.. ....|--- .... ....
....|.1|--- .... ....|G#3 KFF. ....|--- .... ....
..2A|..|--- .... ....|E-2 4C.. ....|--- .... ....
..1C|.2|G#3 .... ....|E-2 .8.. ....|E-4 .... ....
....|..|--- .... ....|--- .... ....|--- .... ....
..37|.1|G#3 K... ....|F#3 .C.. ....|--- .... ....
....|..|G#3 .... ....|--- .... 91.F|--- .... ....
....|.3|--- .... ....|G#3 KFF. ....|C#4 ..A. ....
..31|..|--- .... ....|C#1 4CF. ....|--- .... ....
..31|.1|--- .... ....|C#2 3C.. ....|--- .... ....
....|..|--- .... ....|--- .... ....|C#4 .... ....
....|.2|--- .... ....|G#3 SFF. ....|--- .... ....
....|..|--- .... ....|--- .... ....|--- .... ....
..42|.1|--- .... ....|C#1 3C.. ....|C#4 .... ....
....|..|--- .... ....|--- .... ....|--- .... ....
..31|.3|--- .... ....|C#1 .8.. ....|C#4 .... ....
....|..|--- .... ....|--- .... ....|--- .... ....
....|.1|--- .... ....|G#3 KFF. ....|--- .... ....
..31|..|--- .... ....|C#2 4CF. ....|--- .... ....
..2C|.2|G#3 S... ....|D#2 .8.. ....|C#4 .... ....
....|..|--- .... ....|--- .... ....|--- .... ....
..2A|.1|--- .... ....|E-2 3C.. ....|C#5 .... ....
....|..|--- .... ....|--- .... 91.2|--- .... ....
....|.3|--- .... ....|G#3 KFF. ....|D#4 .... ....
..58|..|--- .... ....|D#1 4C.. ....|--- .... ....
..2C|.1|--- .... ....|D#2 3C.. ....|--- .... ....
....|..|--- .... ....|--- .... ....|D#4 .... ....
....|.2|--- .... ....|G#3 SFF. ....|--- .... ....
....|..|--- .... ....|--- .... ....|--- .... ....
..58|.1|--- .... ....|D#1 3C.. ....|D#4 .... ....
....|..|--- .... ....|--- .... ....|--- .... ....
....|.3|--- .... ....|G#3 KFF. ....|D#4 .... ....
..58|..|--- .... ....|D#1 4C.. ....|--- .... ....
....|.1|--- .... ....|G#3 KFF. ....|--- .... ....
..2C|..|--- .... ....|D#2 4C.. ....|--- .... ....
..2A|.2|G#3 .... ....|E-1 .8.. ....|D#4 .... ....
....|..|--- .... ....|--- .... ....|--- .... ....
..2C|.1|G#3 K... ....|D#2 .E.. ....|--- .... ....
....|..|G#3 .... ....|--- .... 91.1|--- .... ....

[Pattern9]
....|.8|G#4 1.AC ....|G#3 KFFF ....|G#5 1.AC ....
....|.8|--- .... ....|G#1 4... ....|--- .... ....
..16|.7|--- .... ....|G#2 3C.. ....|--- .... ....
....|.7|G#4 .... ....|--- .... ....|G#5 .... ....
....|.6|--- .... ....|G#3 SFF. ....|--- .... ....
....|.5|--- .... ....|--- .... ....|--- .... ....
..2C|.4|G#4 .... ....|G#1 3C.. ....|G#5 .... ....
....|.4|--- .... ....|--- .... ....|--- .... ....
..2C|.2|G#4 .... ....|G#1 .C.. ....|G#5 .... ....
....|.1|--- .... ....|--- .... ....|--- .... ....
....|.1|--- .... ....|G#3 KFF. ....|--- .... ....
..21|..|--- .... ....|G#2 48F. ....|--- .... ....
....|.2|G#4 .... ....|G#3 SFF. ....|G#5 .... ....
....|..|--- .... ....|--- .... ....|--- .... ....
..31|.1|G#5 .... ....|C#2 3C.. ....|G#6 .... ....
....|..|--- .... ....|--- .... 91.2|--- .... ....
....|.3|E-4 ..B. ....|G#3 KFF. ....|E-5 ..B. ....
..53|..|--- .... ....|E-1 4C.. ....|--- .... ....
..2A|.1|--- .... ....|E-2 3C.. ....|--- .... ....
....|..|E-4 .... ....|--- .... ....|E-5 .... ....
....|.2|--- .... ....|G#3 SFF. ....|--- .... ....
....|..|--- .... ....|--- .... ....|--- .... ....
..53|.1|E-4 .... ....|E-1 3C.. ....|E-5 .... ....
....|..|--- .... ....|--- .... ....|--- .... ....
....|.3|E-4 .... ....|G#3 KFF. ....|E-5 .... ....
..53|..|--- .... ....|E-1 4C.. ....|--- .... ....
....|.1|--- .... ....|G#3 KFF. ....|--- .... ....
..2A|..|--- .... ....|E-2 4C.. ....|--- .... ....
....|.2|E-4 .... ....|G#3 SFF. ....|E-5 .... ....
....|..|--- .... ....|--- .... ....|--- .... ....
....|.1|--- .... ....|G#3 K... ....|--- .... ....
....|..|--- .... ....|G#3 .... ....|--- .... ....
....|.3|C#4 ..A. ....|G#3 .... ....|C#5 ..A. ....
..31|..|--- .... ....|C#1 4CF. ....|--- .... ....
..31|.1|--- .... ....|C#2 3C.. ....|--- .... ....
....|..|C#4 .... ....|--- .... ....|C#5 .... ....
....|.2|--- .... ....|G#3 SFF. ....|--- .... ....
....|..|--- .... ....|--- .... ....|--- .... ....
..42|.1|C#4 .... ....|C#1 3C.. ....|C#5 .... ....
....|..|--- .... ....|--- .... ....|--- .... ....
..31|.3|C#4 .... ....|C#1 .8.. ....|C#5 .... ....
....|..|--- .... ....|--- .... ....|--- .... ....
....|.1|--- .... ....|G#3 KFF. ....|--- .... ....
..31|..|--- .... ....|C#2 4CF. ....|--- .... ....
....|.2|C#4 .... ....|G#3 SFF. ....|C#5 .... ....
....|..|--- .... ....|--- .... ....|--- .... ....
..2A|.1|C#5 .... ....|E-2 3C.. ....|C#6 .... ....
....|..|--- .... ....|--- .... 91.2|--- .... ....
....|.3|D#4 .... ....|G#3 KFF. ....|D#5 .... ....
..58|..|--- .... ....|D#1 4C.. ....|--- .... ....
..2C|.1|--- .... ....|D#2 3C.. ....|--- .... ....
....|..|D#4 .... ....|--- .... ....|D#5 .... ....
....|.2|--- .... ....|G#3 SFF. ....|--- .... ....
....|..|--- .... ....|--- .... ....|--- .... ....
..58|.1|D#4 .... ....|D#1 3C.. ....|D#5 .... ....
....|..|--- .... ....|--- .... ....|--- .... ....
....|.3|D#4 .... ....|G#3 KFF. ....|D#5 .... ....
..58|..|--- .... ....|D#1 4C.. ....|D#5 .... ....
....|.1|--- .... ....|G#3 KFF. ....|--- .... ....
..2C|..|--- .... ....|D#2 4C.. ....|--- .... ....
....|.2|G#5 .F29 ....|G#3 SFF. ....|G#4 .F79 ....
....|..|G#5 ...A ....|--- .... ....|G#4 ...A ....
..2C|.1|G#5 ...B ....|G#3 KCF. ....|G#4 ...B ....
....|..|G#5 ...C ....|G#3 .CF. ....|G#4 ...C ....

[Pattern10]
....|.8|G#5 4.2D B..2|G#3 KFFF ....|B-4 ...E ....
....|..|D#5 ...9 ....|--- .... ....|--- .... ....
....|.8|F#5 ...D ....|G#1 4... ....|--- .... ....
....|..|G#5 ...9 ....|--- .... ....|--- .... ....
..16|.7|D#5 ...D ....|G#2 3C.. ....|--- .... ....
....|..|F#5 ...9 ....|--- .... ....|--- .... ....
....|.7|G#4 ...D ....|--- .... ....|--- ...3 ....
....|..|D#5 ...9 ....|--- .... ....|--- .... ....
....|.6|F#4 ...D ....|G#3 SFF. ....|A#4 ...E 31F0
....|..|G#4 ...9 ....|--- .... ....|--- .... ....
....|.5|D#4 ...D ....|--- .... ....|--- .... ....
....|..|F#4 ...9 ....|--- .... ....|--- .... ....
..2C|.4|G#5 ...D ....|G#1 3C.. ....|--- .... ....
....|..|D#4 ...9 ....|--- .... ....|--- .... ....
....|.4|F#5 ...D ....|--- .... ....|--- ...3 11.A
....|..|G#5 ...9 ....|--- .... ....|--- .... ....
..2C|.2|D#5 ...D ....|G#1 .C.. ....|G#4 ...E ....
....|..|F#5 ...9 ....|--- .... ....|--- .... ....
....|.1|G#4 ...D ....|--- .... ....|--- ...3 ....
....|..|D#5 ...9 ....|--- .... ....|--- .... ....
....|.1|F#4 ...D ....|G#3 KFF. ....|F#4 ...E ....
....|..|G#4 ...9 ....|--- .... ....|--- .... ....
..21|..|D#4 ...D ....|G#2 48F. ....|--- .... ....
....|..|F#4 ...9 ....|--- .... ....|--- .... ....
....|.2|G#5 ...D ....|G#3 SFF. ....|--- .... ....
....|..|D#4 ...9 ....|--- .... ....|--- .... ....
....|..|G#5 ...D ....|--- .... ....|--- ...3 ....
....|..|G#5 ...9 ....|--- .... ....|--- .... ....
..31|.1|G#5 ...D ....|C#2 3C.. ....|B-4 ...E ....
....|..|G#5 ...9 ....|--- .... ....|--- .... ....
....|..|G#5 ...D ....|--- .... 91.2|--- .... ....
....|..|G#5 ...9 ....|--- .... ....|--- .... ....
....|.3|E-5 ...D ....|G#3 KFF. ....|--- .... ....
....|..|G#5 ...9 ....|--- .... ....|--- .... ....
..53|..|D#5 ...D ....|E-1 4C.. ....|--- .... ....
....|..|E-5 ...9 ....|--- .... ....|--- .... ....
..2A|.1|B-4 ...D ....|E-2 3C.. ....|--- .... ....
....|..|D#5 ...9 ....|--- .... ....|--- .... ....
....|..|E-4 ...D ....|--- .... ....|--- .... ....
....|..|B-4 ...9 ....|--- .... ....|--- .... ....
....|.2|D#4 ...D ....|G#3 SFF. ....|--- .... ....
....|..|E-4 ...9 ....|--- .... ....|--- .... ....
....|..|B-3 ...D ....|--- .... ....|--- .... ....
....|..|D#4 ...9 ....|--- .... ....|--- .... ....
..53|.1|E-5 ...D ....|E-1 3C.. ....|--- .... 11.4
....|..|B-3 ...9 ....|--- .... ....|--- .... ....
....|..|D#5 ...D ....|--- .... ....|--- .... ....
....|..|E-5 ...9 ....|--- .... ....|--- .... ....
....|.3|B-4 ...D ....|G#3 KFF. ....|G#4 .... 31F0
....|..|D#5 ...9 ....|--- .... ....|--- .... ....
..53|..|E-4 ...D ....|E-1 4C.. ....|--- ...3 ....
....|..|B-4 ...9 ....|--- .... ....|--- .... ....
....|.1|D#4 ...D ....|G#3 KFF. ....|A#4 ...E ....
....|..|E-4 ...9 ....|--- .... ....|--- .... ....
..2A|..|B-3 ...D ....|E-2 4C.. ....|--- .... ....
....|..|D#4 ...9 ....|--- .... ....|--- .... ....
....|.2|E-5 ...D ....|G#3 SFF. ....|--- .... ....
....|..|B-3 ...9 ....|--- .... ....|--- .... ....
....|..|E-5 ...D ....|--- .... ....|--- ...3 ....
....|..|E-5 ...9 ....|--- .... ....|--- .... ....
....|.1|E-5 ...D ....|G#3 K... ....|B-4 ...E ....
....|..|E-5 ...9 ....|--- .... ....|--- .... ....
....|..|E-5 ...D ....|G#3 .... ....|--- .... ....
....|..|E-5 ...9 ....|--- .... ....|--- .... ....
....|.3|C#5 ...D ....|G#3 .... ....|--- .... ....
....|..|E-5 ...9 ....|--- .... ....|--- .... ....
..31|..|B-4 ...D ....|C#1 4CF. ....|--- ...3 ....
....|..|C#5 ...9 ....|--- .... ....|--- .... ....
..31|.1|G#4 ...D ....|C#2 3C.. ....|B-4 ...E ....
....|..|B-4 ...9 ....|--- .... ....|--- .... ....
....|..|C#4 ...D ....|--- .... ....|--- .... ....
....|..|G#4 ...9 ....|--- .... ....|--- .... ....
....|.2|B-3 ...D ....|G#3 SFF. ....|G#4 .... ....
....|..|C#4 ...9 ....|--- .... ....|--- .... ....
....|..|G#3 ...D ....|--- .... ....|--- .... ....
....|..|B-3 ...9 ....|--- .... ....|--- .... ....
..42|.1|C#5 ...D ....|C#1 3C.. ....|--- .... ....
....|..|G#3 ...9 ....|--- .... ....|--- .... ....
....|..|B-4 ...D ....|--- .... ....|--- ...3 ....
....|..|C#5 ...9 ....|--- .... ....|--- .... ....
..31|.3|G#4 ...D ....|C#1 .8.. ....|A#4 ...E 31.A
....|..|B-4 ...9 ....|--- .... ....|--- .... ....
....|..|C#4 ...D ....|--- .... ....|--- .... ....
....|..|G#4 ...9 ....|--- .... ....|--- .... ....
....|.1|B-3 ...D ....|G#3 KFF. ....|B-4 .... ....
....|..|C#4 ...9 ....|--- .... ....|--- .... ....
..31|..|G#3 ...D ....|C#2 4CF. ....|--- .... ....
....|..|B-3 ...9 ....|--- .... ....|--- .... ....
....|.2|C#5 ...D ....|G#3 SFF. ....|--- .... ....
....|..|G#3 ...9 ....|--- .... ....|--- .... ....
....|..|C#5 ...D ....|--- .... ....|--- ...3 11.A
....|..|C#5 ...9 ....|--- .... ....|--- .... ....
..2A|.1|C#5 ...D ....|E-2 3C.. ....|D#5 ...E 3129
....|..|C#5 ...9 ....|--- .... ....|--- .... ....
....|..|C#5 ...D ....|--- .... 91.2|--- .... ....
....|..|C#5 ...9 ....|--- .... ....|--- .... ....
....|.3|D#5 ...D ....|G#3 KFF. ....|--- .... ....
....|..|C#5 ...9 ....|--- .... ....|--- .... ....
..58|..|C#5 ...D ....|D#1 4C.. ....|--- .... ....
....|..|D#5 ...9 ....|--- .... ....|--- .... ....
..2C|.1|A#4 ...D ....|D#2 3C.. ....|E-5 .... ....
....|..|C#5 ...9 ....|--- .... ....|--- .... ....
....|..|D#4 ...D ....|--- .... ....|--- ...3 ....
....|..|A#4 ...9 ....|--- .... ....|--- .... ....
....|.2|C#4 ...D ....|G#3 SFF. ....|D#5 ...E ....
....|..|D#4 ...9 ....|--- .... ....|--- .... ....
....|..|A#3 ...D ....|--- .... ....|--- .... ....
....|..|C#4 ...9 ....|--- .... ....|--- .... ....
..58|.1|D#5 ...D ....|D#1 3C.. ....|C#5 .... ....
....|..|A#3 ...9 ....|--- .... ....|--- .... ....
....|..|C#5 ...D ....|--- .... ....|--- ...3 ....
....|..|D#5 ...9 ....|--- .... ....|--- .... ....
....|.3|A#4 ...D ....|G#3 KFF. ....|B-4 ...E ....
....|..|C#5 ...9 ....|--- .... ....|--- .... ....
..58|..|D#4 ...D ....|D#1 4C.. ....|--- .... ....
....|..|A#4 ...9 ....|--- .... ....|--- .... ....
....|.1|C#4 ...D ....|G#3 KFF. ....|--- .... ....
....|..|D#4 ...9 ....|--- .... ....|--- .... ....
..2C|..|A#3 ...D ....|D#2 4C.. ....|--- .... ....
....|..|C#4 ...9 ....|--- .... ....|--- .... ....
....|.2|D#5 ...D ....|G#3 SFF. ....|A#4 .... ....
....|..|A#3 ...9 ....|--- .... ....|--- .... ....
....|..|D#5 ...D ....|--- .... ....|--- .... ....
....|..|D#5 ...9 ....|--- .... ....|--- .... ....
..2C|.1|D#5 ...D ....|G#3 KCF. ....|--- .... ....
....|..|D#5 ...9 ....|--- .... ....|--- .... ....
....|..|D#5 ...D ....|G#3 .CF. ....|--- .... ....
....|..|D#5 ...9 ....|--- .... ....|--- .... ....

[Pattern11]
....|.8|G#4 1F7C ....|G#4 SFFF ....|G#5 1F2C ....
....|.8|G#4 ...8 ....|D#6 9.9D ....|G#5 ...8 ....
....|.7|B-4 ...C ....|--- ...C ....|B-5 ...C ....
....|.7|G#4 ...8 ....|--- .... ....|G#5 ...8 ....
....|.6|D#5 ...C ....|--- ...B ....|D#6 ...C ....
....|.5|B-4 ...8 ....|--- ...A ....|B-5 ...8 ....
....|.5|F#5 ...C ....|--- .... ....|F#6 ...C ....
....|.4|D#5 ...8 ....|--- ...B ....|D#6 ...8 ....
....|.3|G#4 ...A ....|--- .... ....|G#5 ...A ....
....|..|F#5 ...6 ....|--- ...A ....|F#6 ...6 ....
....|.1|B-4 ...A ....|--- .... ....|B-5 ...A ....
....|..|G#4 ...6 ....|--- ...9 ....|G#5 ...6 ....
....|.2|D#5 ...A ....|--- .... ....|D#6 ...A ....
....|..|B-4 ...6 ....|--- .... ....|B-5 ...6 ....
....|.1|F#5 ...A ....|--- ...8 ....|F#6 ...A ....
....|..|D#5 ...6 ....|--- .... ....|D#6 ...6 ....
....|.3|G#4 ...7 ....|--- ...7 ....|G#5 ...7 ....
....|..|G#4 ...3 ....|--- .... ....|G#5 ...3 ....
....|.1|B-4 ...7 ....|--- ...6 ....|B-5 ...7 ....
....|..|G#4 ...3 ....|--- .... ....|G#5 ...3 ....
....|.2|D#5 ...7 ....|--- ...5 ....|D#6 ...7 ....
....|..|B-4 ...3 ....|--- .... ....|B-5 ...3 ....
....|.1|F#5 ...7 ....|--- ...4 ....|F#6 ...7 ....
....|..|D#5 ...3 ....|--- ...3 ....|D#6 ...3 ....
....|.3|G#4 ...5 ....|--- .... ....|G#5 ...5 ....
....|..|F#5 ...1 ....|--- .... ....|F#6 ...1 ....
....|.1|B-4 ...5 ....|--- ...2 ....|B-5 ...5 ....
....|..|G#4 ...1 ....|--- .... ....|G#5 ...1 ....
....|.2|D#5 ...5 ....|--- ...1 ....|D#6 ...5 ....
....|..|B-4 ...1 ....|--- .... ....|B-5 ...1 ....
....|.1|F#5 ...5 ....|R-- .... ....|F#6 ...5 ....
....|..|D#5 ...1 ....|--- .... ....|D#6 ...1 ....
....|.3|G#4 ...3 ....|--- .... ....|G#5 ...3 ....
....|..|G#4 ...1 ....|--- .... ....|G#5 ...1 ....
....|.1|B-4 ...3 ....|--- .... ....|B-5 ...3 ....
....|..|G#4 ...1 ....|--- .... ....|G#5 ...1 ....
....|.2|D#5 ...3 ....|--- .... ....|D#6 ...3 ....
....|..|B-4 ...1 ....|--- .... ....|B-5 ...1 ....
....|.1|F#5 ...3 ....|--- .... ....|F#6 ...3 ....
....|..|D#5 ...1 ....|--- .... ....|D#6 ...1 ....
....|.3|G#4 ...2 ....|--- .... ....|G#5 ...2 ....
....|..|G#4 ...1 ....|--- .... ....|G#5 ...1 ....
....|.1|B-4 ...2 ....|--- .... ....|B-5 ...2 ....
....|..|G#4 ...1 ....|--- .... ....|G#5 ...1 ....
....|.2|D#5 ...2 ....|--- .... ....|D#6 ...2 ....
....|..|B-4 ...1 ....|--- .... ....|B-5 ...1 ....
....|.1|F#5 ...2 ....|--- .... ....|F#6 ...2 ....
....|..|D#5 ...1 ....|--- .... ....|D#6 ...1 ....
....|.3|G#4 .... ....|--- .... ....|G#5 .... ....
....|..|R-- .... ....|--- .... ....|R-- .... ....
....|.1|B-4 .... ....|--- .... ....|B-5 .... ....
....|..|R-- .... ....|--- .... ....|R-- .... ....
....|.2|D#5 .... ....|--- .... ....|D#6 .... ....
....|..|R-- .... ....|--- .... ....|R-- .... ....
....|.1|F#5 .... ....|--- .... ....|F#6 .... ....
....|..|R-- .... ....|--- .... ....|R-- .... ....
....|.3|--- .... ....|--- .... ....|--- .... ....
....|..|--- .... ....|--- .... ....|--- .... ....
....|.1|--- .... ....|--- .... ....|--- .... ....
....|..|--- .... ....|--- .... ....|--- .... ....
....|.2|--- .... ....|--- .... ....|--- .... ....
....|..|--- .... ....|--- .... ....|--- .... ....
....|.1|--- .... ....|--- .... ....|--- .... ....
....|..|--- .... ....|--- .... ....|--- .... ....

[Pattern12]
....|..|--- .... ....|--- .... ....|--- .... ....
....|..|--- .... ....|--- .... ....|--- .... ....
....|..|--- .... ....|--- .... ....|--- .... ....
....|..|--- .... ....|--- .... ....|--- .... ....

