[Module]
VortexTrackerII=0
Version=3.7
Title=
Author=
NoteTable=1
Speed=5
PlayOrder=L0,1,2,3,4,5,0,1,6,7,8,7,9,10,9,10,11,12,13,14,15,16,17,18,19,20,19,21

[Ornament1]
0,12,0,12,0,12,12,0,12,0,12,0,12,12,0,12,0,12,0,12,12,0,12,0,12,0,12,12,0,12,0,12,L12,0,12,12,0,12

[Ornament2]
L0,3,7,0,3,7,0,3,7,0,3,7,0,3,7,0,3,7,0,3,7,0,3,7,0,3,7,0,3,7,0,3

[Ornament3]
L0

[Ornament4]
L0,4,7,0,4,7,0,4,7,0,4,7,0,4,7,0,4,7,0,4,7,0,4,7,0,4,7,0,4,7,0,4

[Ornament5]
L0

[Ornament6]
L0

[Ornament7]
L0

[Ornament8]
L0

[Ornament9]
L-12,0,0,0,0,0,0,0,0,0,0,0,0,0,0,0,0,0,0,0,0,0,0,0,0,0,0,0,0,0,0,0

[Ornament10]
L0

[Ornament11]
0,0,-1,-1,0,0,0,-1,-1,-1,0,0,0,0,0,0,0,0,0,0,0,0,0,0,0,0,0,0,0,0,0,0,L-1,-1,0,0,0,-1

[Ornament12]
L0

[Ornament13]
-1,0,1,1,2,2,2,2,2,2,2,2,2,2,2,2,2,2,2,2,2,2,2,2,2,2,2,2,2,2,2,2,L2,2,2,2,2,2

[Ornament14]
L0

[Ornament15]
L0

[Sample1]
tne +000_ +00_ 0_ L

[Sample2]
tnE +000_ +00_ 0_
tnE +000_ +00_ 0_
tnE +000_ +00_ 0_
tnE +000_ +00_ 0_
tnE +000_ +00_ 0_
tnE +000_ +00_ 0_
tnE +000_ +00_ 0_
tnE +000_ +00_ 0_
tnE +000_ +00_ 0_
tnE +000_ +00_ 0_
tnE +000_ +00_ 0_
tnE +000_ +00_ 0_
tnE +000_ +00_ 0_
tnE +000_ +00_ 0_
tnE +000_ +00_ 0_
tnE +000_ +00_ 0_
tnE +000_ +00_ 0_
tnE +000_ +00_ 0_
tnE +000_ +00_ 0_
tnE +000_ +00_ 0_
tnE +000_ +00_ 0_
tnE +000_ +00_ 0_
tnE +000_ +00_ 0_
tnE +000_ +00_ 0_
tnE +000_ +00_ 0_
tnE +000_ +00_ 0_
tnE +000_ +00_ 0_
tnE +000_ +00_ 0_
tnE +000_ +00_ 0_
tnE +000_ +00_ 0_
tnE +000_ +00_ 0_
tnE +000_ +00_ 0_
tnE +000_ +00_ 0_ L

[Sample3]
tNE +000_ +00_ C_
tNE +000_ +00_ 8_
tNE +000_ +00_ 4_
TNE +000_ +00_ 0_
TNE +000_ +00_ 0_
TNE +000_ +00_ 0_
TNE +000_ +00_ 0_
TNE +000_ +00_ 0_
TNE +000_ +00_ 0_
TNE +000_ +00_ 0_
TNE +000_ +00_ 0_
TNE +000_ +00_ 0_
TNE +000_ +00_ 0_
TNE +000_ +00_ 0_
TNE +000_ +00_ 0_
TNE +000_ +00_ 0_
TNE +000_ +00_ 0_
TNE +000_ +00_ 0_
TNE +000_ +00_ 0_
TNE +000_ +00_ 0_
TNE +000_ +00_ 0_
TNE +000_ +00_ 0_
TNE +000_ +00_ 0_
TNE +000_ +00_ 0_
TNE +000_ +00_ 0_
TNE +000_ +00_ 0_
TNE +000_ +00_ 0_
TNE +000_ +00_ 0_
TNE +000_ +00_ 0_
TNE +000_ +00_ 0_
TNE +000_ +00_ 0_
TNE +000_ +00_ 0_
tne +000_ +00_ 0_ L

[Sample4]
TNE +000_ +00_ F_
TNE +000_ +00_ F_
TNE +000_ +00_ F_
TNE +000_ +00_ F_
TNE +000_ +00_ F_
TNE +000_ +00_ E_
TNE +000_ +00_ E_
TNE +000_ +00_ E_
TNE +000_ +00_ D_
TNE +000_ +00_ C_
TNE +000_ +00_ C_
TNE +000_ +00_ C_
TNE +000_ +00_ C_
TNE +000_ +00_ C_
TNE +000_ +00_ C_
TNE +000_ +00_ C_
TNE +000_ +00_ C_
TNE +000_ +00_ B_
TNE +000_ +00_ A_
TNE +000_ +00_ A_
TNE +000_ +00_ A_
TNE +000_ +00_ 9_
TNE +000_ +00_ 9_
TNE +000_ +00_ 8_
TNE +000_ +00_ 7_
TNE +000_ +00_ 7_
TNE +000_ +00_ 7_
TNE +000_ +00_ 7_
TNE +000_ +00_ 7_
TNE +000_ +00_ 7_
TNE +000_ +00_ 6_
TNE +000_ +00_ 4_
tne +000_ +00_ 0_ L

[Sample5]
TnE +200_ +00_ F_
TnE +400_ +00_ F_
TnE +600_ +00_ F_
TnE +800_ +00_ F_
TnE +A00_ +00_ E_
TnE +C00_ +00_ C_
TnE +E00_ +00_ A_
TnE +E97_ +00_ 8_
TnE +EBA_ +00_ 6_
TnE +ED8_ +00_ 4_
TnE +000_ +00_ 0_
TnE +000_ +00_ 0_
TnE +000_ +00_ 0_
TnE +000_ +00_ 0_
TnE +000_ +00_ 0_
TnE +000_ +00_ 0_
TnE +000_ +00_ 0_
TnE +000_ +00_ 0_
TnE +000_ +00_ 0_
TnE +000_ +00_ 0_
TnE +000_ +00_ 0_
TnE +000_ +00_ 0_
TnE +000_ +00_ 0_
TnE +000_ +00_ 0_
TnE +000_ +00_ 0_
TnE +000_ +00_ 0_
TnE +000_ +00_ 0_
TnE +000_ +00_ 0_
TnE +000_ +00_ 0_
TnE +000_ +00_ 0_
TnE +000_ +00_ 0_
TnE +000_ +00_ 0_
tne +000_ +00_ 0_ L

[Sample6]
TNE +000_ +03_ F_
TNE +02F_ +08_ F_
TNE +05E_ +0E_ D_
TNE +08D_ -0C_ C_
TNE +0BC_ -05_ B_
TNE +0EB_ -01_ A_
TNE +11A_ +06_ 9_
TNE +149_ +0D_ 8_
TNE +178_ -0D_ 6_
TNE +1A7_ -08_ 5_
TNE +1D6_ -02_ 4_
TNE +205_ +04_ 3_
TNE +234_ +0A_ 2_
TNE +263_ -0F_ 1_
TNE +000_ +00_ 0_
TNE +000_ +00_ 0_
TNE +000_ +00_ 0_
TNE +000_ +00_ 0_
TNE +000_ +00_ 0_
TNE +000_ +00_ 0_
TNE +000_ +00_ 0_
TNE +000_ +00_ 0_
TNE +000_ +00_ 0_
TNE +000_ +00_ 0_
TNE +000_ +00_ 0_
TNE +000_ +00_ 0_
TNE +000_ +00_ 0_
TNE +000_ +00_ 0_
TNE +000_ +00_ 0_
TNE +000_ +00_ 0_
TNE +000_ +00_ 0_
TNE +000_ +00_ 0_
tne +000_ +00_ 0_ L

[Sample7]
tne +000_ +00_ 0_ L

[Sample8]
TNE +000_ +00_ F_
TNE +000_ +00_ E_
TNE +000_ +00_ E_
TNE +000_ +00_ E_
TNE +000_ +00_ C_
TNE +000_ +00_ C_
TNE +000_ +00_ B_
TNE +000_ +00_ A_
TNE +000_ +00_ 9_
TNE +000_ +00_ 9_
TNE +000_ +00_ 8_
TNE +000_ +00_ 8_
TNE +000_ +00_ 7_
TNE +000_ +00_ 6_
TNE +000_ +00_ 6_
TNE +000_ +00_ 6_
TNE +000_ +00_ 6_
TNE +000_ +00_ 5_
TNE +000_ +00_ 5_
TNE +000_ +00_ 5_
TNE +000_ +00_ 4_
TNE +000_ +00_ 4_
TNE +000_ +00_ 4_
TNE +000_ +00_ 4_
TNE +000_ +00_ 4_
TNE +000_ +00_ 3_
TNE +000_ +00_ 3_
TNE +000_ +00_ 2_
TNE +000_ +00_ 1_
TNE +000_ +00_ 0_
TNE +000_ +00_ 0_
TNE +000_ +00_ 0_
tne +000_ +00_ 0_ L

[Sample9]
TnE +000_ +00_ F_
TnE -002_ +00_ F_
TnE -004_ +00_ F_
TnE -002_ +00_ E_
TnE +000_ +00_ D_
TnE +002_ +00_ C_
TnE +004_ +00_ C_
TnE +002_ +00_ B_
TnE +000_ +00_ B_
TnE -002_ +00_ B_
TnE -004_ +00_ A_
TnE -002_ +00_ A_
TnE +000_ +00_ A_
TnE +002_ +00_ 9_
TnE +004_ +00_ 9_
TnE +002_ +00_ 9_
TnE +000_ +00_ 9_
TnE -002_ +00_ 8_
TnE -004_ +00_ 8_
TnE -002_ +00_ 8_
TnE +000_ +00_ 7_
TnE +002_ +00_ 7_
TnE +004_ +00_ 7_
TnE +002_ +00_ 6_
TnE +000_ +00_ 6_
TnE -002_ +00_ 6_
TnE -004_ +00_ 5_
TnE -002_ +00_ 5_
TnE +000_ +00_ 4_
TnE +002_ +00_ 4_
TnE +004_ +00_ 3_
TnE +002_ +00_ 2_
tne +000_ +00_ 0_ L

[Sample10]
TnE +000_ +00_ D_
TnE -001_ +00_ D_
TnE +000_ +00_ C_
TnE +000_ +00_ C_
TnE +000_ +00_ B_
TnE +001_ +00_ B_
TnE +000_ +00_ B_
TnE +000_ +00_ B_
TnE +000_ +00_ B_
TnE +000_ +00_ A_
TnE +000_ +00_ A_
TnE +000_ +00_ A_
TnE +000_ +00_ A_
TnE +000_ +00_ 9_
TnE +000_ +00_ 9_
TnE +000_ +00_ 8_
TnE +000_ +00_ 8_
TnE +000_ +00_ 8_
TnE +000_ +00_ 7_
TnE +000_ +00_ 6_
TnE +000_ +00_ 6_
TnE +000_ +00_ 6_
TnE +000_ +00_ 5_
TnE +000_ +00_ 5_
TnE +000_ +00_ 5_
TnE +000_ +00_ 5_
TnE +000_ +00_ 4_
TnE +000_ +00_ 4_
TnE +000_ +00_ 4_
TnE +000_ +00_ 3_
TnE +000_ +00_ 3_
TnE +000_ +00_ 2_
tne +000_ +00_ 0_ L

[Sample11]
TnE +000_ +00_ A_
TnE +000_ +00_ A_
TnE +000_ +00_ A_
TnE +000_ +00_ A_
TnE +000_ +00_ A_
TnE +000_ +00_ A_
TnE +000_ +00_ A_
TnE +000_ +00_ A_
TnE +000_ +00_ A_
TnE +000_ +00_ A_
TnE +000_ +00_ A_
TnE +000_ +00_ A_
TnE +000_ +00_ A_
TnE +000_ +00_ A_
TnE +000_ +00_ A_
TnE +000_ +00_ A_
TnE +000_ +00_ A_
TnE +000_ +00_ A_
TnE +000_ +00_ A_
TnE +000_ +00_ A_
TnE +000_ +00_ A_
TnE +000_ +00_ A_
TnE +000_ +00_ A_
TnE +000_ +00_ A_
TnE +000_ +00_ A_
TnE +000_ +00_ A_
TnE +000_ +00_ A_
TnE +000_ +00_ A_
TnE +000_ +00_ A_
TnE +000_ +00_ A_
TnE +000_ +00_ A_
TnE +000_ +00_ A_
TnE +000_ +00_ A_ L
TnE +000_ +00_ A_
TnE +000_ +00_ A_
TnE +000_ +00_ A_
TnE +000_ +00_ A_
TnE +000_ +00_ A_

[Sample12]
TNE +000_ +00_ E_
TnE +000_ +00_ B_
TnE +000_ +00_ B_
TnE +000_ +00_ A_
TnE +000_ +00_ 9_
TnE +000_ +00_ 8_
TnE +000_ +00_ 7_
TnE +000_ +00_ 6_
TnE +000_ +00_ 5_
TnE +000_ +00_ 4_
TnE +000_ +00_ 3_
TnE +000_ +00_ 2_
TnE +000_ +00_ 1_
TnE +000_ +00_ 0_
TnE +000_ +00_ 0_
TnE +000_ +00_ 0_
TnE +000_ +00_ 0_
TnE +000_ +00_ 0_
TnE +000_ +00_ 0_
TnE +000_ +00_ 0_
TnE +000_ +00_ 0_
TnE +000_ +00_ 0_
TnE +000_ +00_ 0_
TnE +000_ +00_ 0_
TnE +000_ +00_ 0_
TnE +000_ +00_ 0_
TnE +000_ +00_ 0_
TnE +000_ +00_ 0_
TnE +000_ +00_ 0_
TnE +000_ +00_ 0_
TnE +000_ +00_ 0_
TnE +000_ +00_ 0_
tne +000_ +00_ 0_ L

[Sample13]
tne +000_ +00_ 0_ L

[Sample14]
TnE +000_ +00_ 9_
TnE +000_ +00_ 9_
TnE +000_ +00_ 8_
TnE +000_ +00_ 7_
TnE +000_ +00_ 7_
TnE +000_ +00_ 6_
TnE +000_ +00_ 6_
TnE +000_ +00_ 5_
TnE +000_ +00_ 5_
TnE +000_ +00_ 4_
TnE +000_ +00_ 3_
TnE +000_ +00_ 3_
TnE +000_ +00_ 2_
TnE +000_ +00_ 1_
TnE +000_ +00_ 0_
TnE +000_ +00_ 0_
TnE +000_ +00_ 0_
TnE +000_ +00_ 0_
TnE +000_ +00_ 0_
TnE +000_ +00_ 0_
TnE +000_ +00_ 0_
TnE +000_ +00_ 0_
TnE +000_ +00_ 0_
TnE +000_ +00_ 0_
TnE +000_ +00_ 0_
TnE +000_ +00_ 0_
TnE +000_ +00_ 0_
TnE +000_ +00_ 0_
TnE +000_ +00_ 0_
TnE +000_ +00_ 0_
TnE +000_ +00_ 0_
TnE +000_ +00_ 0_
tne +000_ +00_ 0_ L

[Sample15]
TnE +000_ +00_ B_
TnE +000_ +00_ B_
TnE +000_ +00_ A_
TnE +000_ +00_ A_
TnE +000_ +00_ 9_
TnE +000_ +00_ 8_
TnE +000_ +00_ 8_
TnE +000_ +00_ 7_
TnE +000_ +00_ 6_
TnE +000_ +00_ 6_
TnE +000_ +00_ 5_
TnE +000_ +00_ 5_
TnE +000_ +00_ 4_
TnE +000_ +00_ 4_
TnE +000_ +00_ 3_
TnE +000_ +00_ 3_
TnE +000_ +00_ 2_
TnE +000_ +00_ 1_
TnE +000_ +00_ 0_
TnE +000_ +00_ 0_
TnE +000_ +00_ 0_
TnE +000_ +00_ 0_
TnE +000_ +00_ 0_
TnE +000_ +00_ 0_
TnE +000_ +00_ 0_
TnE +000_ +00_ 0_
TnE +000_ +00_ 0_
TnE +000_ +00_ 0_
TnE +000_ +00_ 0_
TnE +000_ +00_ 0_
TnE +000_ +00_ 0_
TnE +000_ +00_ 0_
tne +000_ +00_ 0_ L

[Sample16]
TnE +000_ +00_ E_
TnE +000_ +00_ D_
TnE +000_ +00_ D_
TnE +000_ +00_ C_
TnE +000_ +00_ C_
TnE +000_ +00_ B_
TnE +000_ +00_ B_
TnE +000_ +00_ A_
TnE +000_ +00_ A_
TnE +000_ +00_ A_
TnE +000_ +00_ A_
TnE +000_ +00_ A_
TnE +000_ +00_ A_
TnE +000_ +00_ A_
TnE +000_ +00_ A_
TnE +000_ +00_ A_
TnE +000_ +00_ A_
TnE +000_ +00_ A_
TnE +000_ +00_ A_
TnE +000_ +00_ A_
TnE +000_ +00_ A_
TnE +000_ +00_ A_
TnE +000_ +00_ A_
TnE +000_ +00_ A_
TnE +000_ +00_ A_
TnE +000_ +00_ A_
TnE +000_ +00_ A_
TnE +000_ +00_ A_
TnE +000_ +00_ A_
TnE +000_ +00_ A_
TnE +000_ +00_ A_
TnE +000_ +00_ A_
TnE +000_ +00_ A_ L
TnE +000_ +00_ A_
TnE +000_ +00_ A_
TnE +000_ +00_ A_
TnE +000_ +00_ A_
TnE +000_ +00_ A_

[Sample17]
tne +000_ +00_ 0_ L

[Sample18]
tne +000_ +00_ 0_ L

[Sample19]
tne +000_ +00_ 0_ L

[Sample20]
tne +000_ +00_ 0_ L

[Sample21]
tne +000_ +00_ 0_ L

[Sample22]
tne +000_ +00_ 0_ L

[Sample23]
tne +000_ +00_ 0_ L

[Sample24]
tne +000_ +00_ 0_ L

[Sample25]
tne +000_ +00_ 0_ L

[Sample26]
tne +000_ +00_ 0_ L

[Sample27]
tne +000_ +00_ 0_ L

[Sample28]
tne +000_ +00_ 0_ L

[Sample29]
tne +000_ +00_ 0_ L

[Sample30]
tne +000_ +00_ 0_ L

[Sample31]
tne +000_ +00_ 0_ L

[Pattern0]
....|..|B-4 5F.. ....|A-4 CF2. ....|A-4 AF.. ....
....|..|--- .... ....|A-4 .... ....|--- .... ....
....|..|--- .... ....|A-4 8... ....|--- .... ....
....|..|--- .... ....|--- .... ....|G-4 E... ....
....|..|--- .... ....|C-4 3... ....|E-5 A... ....
....|..|--- .... ....|--- .... ....|A-4 E... ....
....|..|--- .... ....|A-4 8... ....|D-5 A... ....
....|..|--- .... ....|--- .... ....|E-5 E... ....
....|..|--- .... ....|A-4 C... ....|E-5 A... ....
....|..|--- .... ....|--- .... ....|D-5 E... ....
....|..|--- .... ....|A-4 8... ....|D-5 A... ....
....|..|--- .... ....|--- .... ....|E-5 E... ....
....|..|--- .... ....|C-4 3... ....|C-5 A... ....
....|..|--- .... ....|--- .... ....|D-5 E... ....
....|..|--- .... ....|A-4 8... ....|A-4 A... ....
....|..|--- .... ....|--- .... ....|--- .... ....
....|..|--- .... ....|A-4 C... ....|--- .... ....
....|..|--- .... ....|A-4 .... ....|--- .... ....
....|..|--- .... ....|A-4 8... ....|C-5 E... ....
....|..|--- .... ....|--- .... ....|A-4 .... ....
....|..|--- .... ....|C-4 3... ....|E-5 A... ....
....|..|--- .... ....|--- .... ....|A-4 E... ....
....|..|--- .... ....|A-4 8... ....|D-5 A... ....
....|..|--- .... ....|--- .... ....|E-5 E... ....
....|..|--- .... ....|A-4 C... ....|E-5 A... ....
....|..|--- .... ....|--- .... ....|D-5 E... ....
....|..|--- .... ....|A-4 8... ....|D-5 A... ....
....|..|--- .... ....|--- .... ....|E-5 E... ....
....|..|--- .... ....|C-4 3... ....|C-5 A... ....
....|..|--- .... ....|--- .... ....|D-5 E... ....
....|..|--- .... ....|A-4 8... ....|A-4 A... ....
....|..|--- .... ....|--- .... ....|--- .... ....
....|..|--- .... ....|F-4 C.4. ....|--- .... ....
....|..|--- .... ....|F-4 .... ....|--- .... ....
....|..|--- .... ....|F-4 8... ....|C-5 E... ....
....|..|--- .... ....|--- .... ....|A-4 .... ....
....|..|--- .... ....|C-4 3... ....|E-5 A... ....
....|..|--- .... ....|--- .... ....|A-4 E... ....
....|..|--- .... ....|F-4 8... ....|D-5 A... ....
....|..|--- .... ....|--- .... ....|E-5 E... ....
....|..|--- .... ....|F-4 C... ....|E-5 A... ....
....|..|--- .... ....|--- .... ....|D-5 E... ....
....|..|--- .... ....|F-4 8... ....|D-5 A... ....
....|..|--- .... ....|--- .... ....|E-5 E... ....
....|..|--- .... ....|C-4 3... ....|C-5 A... ....
....|..|--- .... ....|--- .... ....|D-5 E... ....
....|..|--- .... ....|F-4 8... ....|E-5 A... ....
....|..|--- .... ....|--- .... ....|--- .... ....
....|..|B-4 .... ....|G-4 C... ....|C-5 E... ....
....|..|--- .... ....|G-4 .... ....|--- .... ....
....|..|--- .... ....|G-4 8... ....|D-5 A... ....
....|..|--- .... ....|--- .... ....|--- .... ....
....|..|B-4 .... ....|C-4 3... ....|E-5 E... ....
....|..|--- .... ....|--- .... ....|--- .... ....
....|..|--- .... ....|G-4 8... ....|C-5 A... ....
....|..|--- .... ....|--- .... ....|--- .... ....
....|..|B-4 .... ....|G-4 C... ....|D-5 E... ....
....|..|--- .... ....|G-4 .... ....|--- .... ....
....|..|B-4 .... ....|G-4 8... ....|G-5 A... ....
....|..|--- .... ....|--- .... ....|--- .... ....
....|..|B-4 .... ....|C-4 3... ....|C-5 E... ....
....|..|B-4 .... ....|--- .... ....|--- .... ....
....|..|B-4 .... ....|G-4 8... ....|E-5 A... ....
....|..|B-4 .... ....|--- .... ....|--- .... ....

[Pattern1]
....|..|B-4 5F.. ....|A-4 CF2. ....|--- .... ....
..23|..|A-1 9E.. ....|A-4 .... ....|--- .... ....
..23|..|A-2 .8.. ....|A-4 8... ....|--- .... ....
....|..|--- .... ....|--- .... ....|--- .... ....
....|..|B-4 5F.. ....|C-4 3... ....|E-5 A... ....
..23|..|A-1 9E.. ....|--- .... ....|A-4 E... ....
..23|..|A-2 .8.. ....|A-4 8... ....|D-5 A... ....
....|..|--- .... ....|--- .... ....|E-5 E... ....
....|..|B-4 5F.. ....|A-4 C... ....|E-5 A... ....
..23|..|A-1 9E.. ....|--- .... ....|D-5 E... ....
..23|..|A-2 .8.. ....|A-4 8... ....|D-5 A... ....
....|..|--- .... ....|--- .... ....|E-5 E... ....
....|..|B-4 5F.. ....|C-4 3... ....|C-5 A... ....
..23|..|A-1 9E.. ....|--- .... ....|D-5 E... ....
..23|..|A-2 .8.. ....|A-4 8... ....|A-4 A... ....
....|..|--- .... ....|--- .... ....|--- .... ....
....|..|B-4 5F.. ....|A-4 C... ....|--- .... ....
..23|..|A-1 9E.. ....|A-4 .... ....|--- .... ....
..23|..|A-2 .8.. ....|A-4 8... ....|C-5 E... ....
....|..|--- .... ....|--- .... ....|A-4 .... ....
....|..|B-4 5F.. ....|C-4 3... ....|E-5 A... ....
..23|..|A-1 9E.. ....|--- .... ....|A-4 E... ....
..23|..|A-2 .8.. ....|A-4 8... ....|D-5 A... ....
....|..|--- .... ....|--- .... ....|E-5 E... ....
....|..|B-4 5F.. ....|A-4 C... ....|E-5 A... ....
..23|..|A-1 9E.. ....|--- .... ....|D-5 E... ....
..23|..|A-2 .8.. ....|A-4 8... ....|D-5 A... ....
....|..|--- .... ....|--- .... ....|E-5 E... ....
....|..|B-4 5F.. ....|C-4 3... ....|C-5 A... ....
..23|..|A-1 9E.. ....|--- .... ....|D-5 E... ....
..23|..|A-2 .8.. ....|A-4 8... ....|A-4 A... ....
....|..|B-4 5F.. ....|--- .... ....|--- .... ....
....|..|B-4 .... ....|F-4 C.4. ....|--- .... ....
..2C|..|F-1 9E.. ....|F-4 .... ....|--- .... ....
..2C|..|F-2 .8.. ....|F-4 8... ....|C-5 E... ....
....|..|--- .... ....|--- .... ....|A-4 .... ....
....|..|B-4 5F.. ....|C-4 3... ....|E-5 A... ....
..2C|..|F-1 9E.. ....|--- .... ....|A-4 E... ....
..2C|..|F-2 .8.. ....|F-4 8... ....|D-5 A... ....
....|..|--- .... ....|--- .... ....|E-5 E... ....
....|..|B-4 5F.. ....|F-4 C... ....|E-5 A... ....
..2C|..|F-1 9E.. ....|--- .... ....|D-5 E... ....
..2C|..|F-2 .8.. ....|F-4 8... ....|D-5 A... ....
....|..|--- .... ....|--- .... ....|E-5 E... ....
....|..|B-4 5F.. ....|C-4 3... ....|C-5 A... ....
..2C|..|F-1 9E.. ....|--- .... ....|D-5 E... ....
..2C|..|F-2 .8.. ....|F-4 8... ....|E-5 A... ....
....|..|--- .... ....|--- .... ....|--- .... ....
....|..|B-4 5F.. ....|B-3 6F.. ....|C-5 E... ....
..28|..|G-1 9E.. ....|G-4 C.4. ....|--- .... ....
..28|..|G-2 .C.. ....|G-4 8... ....|D-5 A... ....
....|..|--- .... ....|B-3 6F.. ....|--- .... ....
....|..|B-4 5F.. ....|B-3 .... ....|E-5 E... ....
..28|..|G-1 9E.. ....|B-3 .... ....|--- .... ....
..28|..|G-2 .C.. ....|G-4 8.4. ....|C-5 A... ....
....|..|--- .... ....|B-3 6F.. ....|--- .... ....
....|..|B-4 5F.. ....|B-3 .... ....|D-5 E... ....
..28|..|G-1 9E.. ....|B-3 .... ....|--- .... ....
..28|..|G-2 .C.. ....|B-3 .... ....|G-5 A... ....
....|..|--- .... ....|C-4 3... ....|--- .... ....
....|..|B-4 5F.. ....|B-3 6... ....|C-5 E... ....
..28|..|G-1 9E.. ....|B-3 .... ....|--- .... ....
..28|..|G-2 .C.. ....|B-3 .... ....|E-5 A... ....
....|..|B-4 5F.. ....|B-3 .... ....|--- .... ....

[Pattern2]
....|..|B-4 5F.. ....|A-4 CF2. ....|--- .... ....
..23|..|A-1 9E.. ....|A-4 .... ....|--- .... ....
..23|..|A-2 .8.. ....|A-4 8... ....|--- .... ....
....|..|--- .... ....|--- .... ....|G-4 F... ....
....|..|B-4 5F.. ....|B-3 6F.. ....|E-5 A... ....
..23|..|A-1 9E.. ....|A-4 C.2. ....|A-4 F... ....
..23|..|A-2 .8.. ....|A-4 8... ....|D-5 A... ....
....|..|--- .... ....|--- .... ....|E-5 F... ....
....|..|B-4 5F.. ....|A-4 C... ....|E-5 A... ....
..23|..|A-1 9E.. ....|A-4 .... ....|D-5 F... ....
..23|..|A-2 .8.. ....|A-4 8... ....|D-5 A... ....
....|..|--- .... ....|--- .... ....|E-5 F... ....
....|..|B-4 5F.. ....|B-3 6F.. ....|C-5 A... ....
..23|..|A-1 9E.. ....|A-4 C.2. ....|D-5 F... ....
..23|..|A-2 .8.. ....|A-4 8... ....|A-4 A... ....
....|..|--- .... ....|--- .... ....|--- .... ....
....|..|B-4 5F.. ....|A-4 C... ....|--- .... ....
..23|..|A-1 9E.. ....|A-4 .... ....|--- .... ....
..23|..|A-2 .8.. ....|A-4 8... ....|A-4 .... ....
....|..|--- .... ....|--- .... ....|G-4 F... ....
....|..|B-4 5F.. ....|B-3 6F.. ....|E-5 A... ....
..23|..|A-1 9E.. ....|A-4 C.2. ....|A-4 F... ....
..23|..|A-2 .8.. ....|A-4 8... ....|D-5 A... ....
....|..|--- .... ....|--- .... ....|E-5 F... ....
....|..|B-4 5F.. ....|A-4 C... ....|E-5 A... ....
..23|..|A-1 9E.. ....|B-3 6F.. ....|D-5 F... ....
..23|..|A-2 .8.. ....|A-4 8.2. ....|D-5 A... ....
....|..|--- .... ....|--- .... ....|E-5 F... ....
....|..|B-4 5F.. ....|B-3 6F.. ....|C-5 A... ....
..23|..|A-1 9E.. ....|A-4 C.2. ....|D-5 F... ....
..23|..|A-2 .8.. ....|A-4 8... ....|A-4 A... ....
....|..|B-4 5F.. ....|--- .... ....|--- .... ....
....|..|B-4 .... ....|F-4 C.4. ....|--- .... ....
..2C|..|F-1 9E.. ....|F-4 .... ....|--- .... ....
..2C|..|F-2 .8.. ....|F-4 8... ....|A-4 .... ....
....|..|--- .... ....|--- .... ....|G-4 F... ....
....|..|B-4 5F.. ....|B-3 6F.. ....|E-5 A... ....
..2C|..|F-1 9E.. ....|F-4 C.4. ....|A-4 F... ....
..2C|..|F-2 .8.. ....|F-4 8... ....|D-5 A... ....
....|..|--- .... ....|--- .... ....|E-5 F... ....
....|..|B-4 5F.. ....|F-4 C... ....|E-5 A... ....
..2C|..|F-1 9E.. ....|F-4 .... ....|D-5 F... ....
..2C|..|F-2 .8.. ....|F-4 8... ....|D-5 A... ....
....|..|--- .... ....|--- .... ....|E-5 F... ....
....|..|B-4 5F.. ....|B-3 6F.. ....|C-5 A... ....
..2C|..|F-1 9E.. ....|F-4 C.4. ....|D-5 F... ....
..2C|..|F-2 .8.. ....|F-4 8... ....|D-5 A... ....
....|..|--- .... ....|--- .... ....|--- .... ....
....|..|B-4 5F.. ....|G-4 C... ....|C-5 F... ....
..28|..|G-1 9E.. ....|G-4 .... ....|--- .... ....
..28|..|G-2 .C.. ....|G-4 8... ....|C-5 A... ....
....|..|--- .... ....|--- .... ....|--- .... ....
....|..|B-4 5F.. ....|B-3 6F.. ....|D-5 F... ....
..28|..|G-1 9E.. ....|G-4 C.4. ....|--- .... ....
..28|..|G-2 .C.. ....|G-4 8... ....|B-4 A... ....
....|..|--- .... ....|--- .... ....|--- .... ....
....|..|B-4 5F.. ....|B-3 6F.. ....|C-5 F... ....
..28|..|G-1 9E.. ....|B-3 .... ....|--- .... ....
..28|..|G-2 .C.. ....|G-4 8.4. ....|G-4 A... ....
....|..|--- .... ....|B-3 6F.. ....|--- .... ....
....|..|B-4 5F.. ....|B-3 .... ....|B-4 F... ....
..28|..|G-1 9E.. ....|G-4 C.4. ....|--- .... ....
..28|..|G-2 .C.. ....|B-3 6F.. ....|A-4 A... ....
....|..|B-4 5F.. ....|B-3 .... ....|--- .... ....

[Pattern3]
....|..|B-4 5F.. ....|A-4 CF2. ....|--- .... ....
..23|..|A-1 9E.. ....|A-4 .... ....|--- .... ....
..23|..|A-2 .8.. ....|A-4 8... ....|--- .... ....
....|..|--- .... ....|--- .... ....|--- .... ....
....|..|B-4 5F.. ....|B-3 6F.. ....|E-5 A... ....
..23|..|A-1 9E.. ....|A-4 C.2. ....|A-4 F... ....
..23|..|A-2 .8.. ....|A-4 8... ....|D-5 A... ....
....|..|--- .... ....|--- .... ....|E-5 F... ....
....|..|B-4 5F.. ....|A-4 C... ....|E-5 A... ....
..23|..|A-1 9E.. ....|B-3 6F.. ....|D-5 F... ....
..23|..|A-2 .8.. ....|A-4 8.2. ....|D-5 A... ....
....|..|--- .... ....|--- .... ....|E-5 F... ....
....|..|B-4 5F.. ....|B-3 6F.. ....|C-5 A... ....
..23|..|A-1 9E.. ....|A-4 C.2. ....|D-5 F... ....
..23|..|A-2 .8.. ....|A-4 8... ....|A-4 A... ....
....|..|--- .... ....|--- .... ....|--- .... ....
....|..|B-4 5F.. ....|A-4 C... ....|--- .... ....
..23|..|A-1 9E.. ....|A-4 .... ....|--- .... ....
..23|..|A-2 .8.. ....|A-4 8... ....|A-4 .... ....
....|..|--- .... ....|--- .... ....|G-4 F... ....
....|..|B-4 5F.. ....|B-3 6F.. ....|E-5 A... ....
..23|..|A-1 9E.. ....|A-4 C.2. ....|A-4 F... ....
..23|..|A-2 .8.. ....|A-4 8... ....|D-5 A... ....
....|..|--- .... ....|--- .... ....|E-5 F... ....
....|..|B-4 5F.. ....|A-4 C... ....|E-5 A... ....
..23|..|A-1 9E.. ....|B-3 6F.. ....|D-5 F... ....
..23|..|A-2 .8.. ....|A-4 8.2. ....|D-5 A... ....
....|..|--- .... ....|--- .... ....|E-5 F... ....
....|..|B-4 5F.. ....|B-3 6F.. ....|C-5 A... ....
..23|..|A-1 9E.. ....|A-4 C.2. ....|D-5 F... ....
..23|..|A-2 .8.. ....|A-4 8... ....|A-4 A... ....
....|..|B-4 5F.. ....|--- .... ....|--- .... ....
....|..|B-4 .... ....|F-4 C.4. ....|--- .... ....
..2C|..|F-1 9E.. ....|F-4 .... ....|--- .... ....
..2C|..|F-2 .8.. ....|F-4 8... ....|A-4 .... ....
....|..|--- .... ....|--- .... ....|G-4 F... ....
....|..|B-4 5F.. ....|B-3 6F.. ....|E-5 A... ....
..2C|..|F-1 9E.. ....|F-4 C.4. ....|A-4 F... ....
..2C|..|F-2 .8.. ....|F-4 8... ....|D-5 A... ....
....|..|--- .... ....|--- .... ....|E-5 F... ....
....|..|B-4 5F.. ....|F-4 C... ....|E-5 A... ....
..2C|..|F-1 9E.. ....|B-3 6F.. ....|D-5 F... ....
..2C|..|F-2 .8.. ....|F-4 8.4. ....|D-5 A... ....
....|..|--- .... ....|--- .... ....|E-5 F... ....
....|..|B-4 5F.. ....|B-3 6F.. ....|C-5 A... ....
..2C|..|F-1 9E.. ....|F-4 C.4. ....|D-5 F... ....
..2C|..|F-2 .8.. ....|F-4 8... ....|D-5 A... ....
....|..|--- .... ....|--- .... ....|--- .... ....
....|..|B-4 5F.. ....|G-4 C... ....|C-5 F... ....
..28|..|G-1 9E.. ....|B-3 6F.. ....|--- .... ....
..28|..|G-2 .C.. ....|G-4 8.4. ....|C-5 A... ....
....|..|--- .... ....|--- .... ....|--- .... ....
....|..|B-4 5F.. ....|B-3 6F.. ....|D-5 F... ....
..28|..|G-1 9E.. ....|G-4 C.4. ....|--- .... ....
..28|..|G-2 .C.. ....|G-4 8... ....|B-4 A... ....
....|..|--- .... ....|--- .... ....|--- .... ....
....|..|B-4 5F.. ....|B-3 6F.. ....|C-5 F... ....
..28|..|G-1 9E.. ....|B-3 .... ....|--- .... ....
..28|..|G-2 .C.. ....|G-4 8.4. ....|G-4 A... ....
....|..|--- .... ....|B-3 6F.. ....|--- .... ....
....|..|B-4 5F.. ....|B-3 .... ....|B-4 F... ....
..28|..|G-1 9E.. ....|G-4 C.4. ....|--- .... ....
..28|..|G-2 .C.. ....|B-3 6F.. ....|A-4 A... ....
....|..|B-4 5F.. ....|B-3 .... ....|--- .... ....

[Pattern4]
..12|..|B-4 5F.. ....|F-4 CF4. ....|A-5 AE.. ....
..1B|..|F-1 9... ....|F-4 .... ....|D-5 .E.. ....
..10|..|F-2 .... ....|F-4 8... ....|B-5 .E.. ....
..1B|..|--- .... ....|F-4 B... ....|D-5 .E.. ....
...F|..|B-4 5... ....|B-3 6F.. ....|C-6 .E.. ....
..1B|..|F-1 9... ....|F-4 C.4. ....|D-5 .E.. ....
....|..|F-2 .... ....|F-4 8... ....|D-6 .... ....
...F|..|--- .... ....|F-4 B... ....|C-6 .E.. ....
..1B|..|B-4 5... ....|F-4 C... ....|D-5 .E.. ....
...F|..|F-1 9... ....|F-4 .... ....|C-6 .E.. ....
..10|..|F-2 .... ....|F-4 8... ....|B-5 .E.. ....
..1B|..|--- .... ....|F-4 B... ....|D-5 .E.. ....
..12|..|B-4 5... ....|B-3 6F.. ....|A-5 .E.. ....
..1B|..|F-1 9... ....|F-4 C.4. ....|D-5 .E.. ....
..14|..|F-2 .... ....|F-4 8... ....|G-5 .E.. ....
..1B|..|B-4 5... ....|F-4 B... ....|D-5 .8.. ....
..12|..|B-4 .... ....|D-4 C.2. ....|A-5 .8.. ....
..1B|..|D-2 9... ....|B-3 6F.. ....|D-5 .8.. ....
..10|..|D-3 .... ....|D-4 8.2. ....|B-5 .8.. ....
..1B|..|--- .... ....|D-4 B... ....|D-5 .8.. ....
...F|..|B-4 5... ....|B-3 6F.. ....|C-6 .8.. ....
..1B|..|D-2 9... ....|D-4 C.2. ....|D-5 .8.. ....
....|..|D-3 .... ....|D-4 8... ....|D-6 .... ....
...C|..|--- .... ....|D-4 B... ....|E-5 .8.. ....
....|..|B-4 5... ....|D-4 C... ....|--- .... ....
....|..|D-2 9... ....|B-3 6F.. ....|E-5 BF.. ....
....|..|D-3 .... ....|D-4 8.2. ....|--- .... ....
....|..|--- .... ....|D-4 B... ....|E-5 ..B. ....
....|..|B-4 5... ....|B-3 6F.. ....|--- .... ....
....|..|D-2 9... ....|D-4 C.2. ....|--- .... ....
....|..|D-3 .... ....|D-4 8... ....|E-5 .F.. ....
....|..|--- .... ....|B-3 6F.. ....|E-5 .... ....
....|..|B-4 5... ....|A-4 C.2. ....|A-5 A.9. ....
....|..|A-1 9... ....|A-4 .... ....|G-5 E... ....
....|..|A-2 .... ....|A-4 8... ....|A-5 A... ....
....|..|--- .... ....|A-4 B... ....|A-5 .... ....
....|..|B-4 5... ....|B-3 6F.. ....|G-5 E... ....
....|..|A-1 9... ....|A-4 C.2. ....|A-5 A... ....
....|..|A-2 .... ....|A-4 8... ....|A-5 .... ....
....|..|--- .... ....|A-4 B... ....|G-5 E... ....
....|..|B-4 5... ....|A-4 C... ....|G-5 A... ....
....|..|A-1 9... ....|A-4 .... ....|A-5 E... ....
....|..|A-2 .... ....|A-4 8... ....|A-5 A... ....
....|..|--- .... ....|A-4 B... ....|G-5 E... ....
....|..|B-4 5... ....|B-3 6F.. ....|G-5 A... ....
....|..|A-1 9... ....|A-4 C.2. ....|--- .... ....
....|..|A-2 .... ....|A-4 8... ....|A-5 .... ....
....|..|B-4 5... ....|A-4 B... ....|G-5 E... ....
....|..|B-4 .... ....|A-4 C... ....|A-5 A... ....
....|..|A-1 9... ....|B-3 6F.. ....|G-5 E... ....
....|..|A-2 .... ....|A-4 8.2. ....|A-5 A... ....
....|..|--- .... ....|B-3 6F.. ....|A-5 .... ....
....|..|B-4 5... ....|B-3 .... ....|G-5 E... ....
....|..|A-1 9... ....|B-3 .... ....|A-5 A... ....
....|..|A-2 .... ....|A-4 8.2. ....|A-5 .... ....
....|..|--- .... ....|A-4 B... ....|G-5 E... ....
....|..|B-4 5... ....|A-4 C... ....|G-5 A... ....
....|..|A-1 9... ....|B-3 6F.. ....|A-5 E... ....
....|..|A-2 .... ....|A-4 8.2. ....|A-5 A... ....
....|..|--- .... ....|B-3 6F.. ....|G-5 E... ....
....|..|B-4 5... ....|B-3 .... ....|C-6 A... ....
....|..|A-1 9... ....|A-4 C.2. ....|--- .... ....
....|..|A-2 .... ....|B-3 6F.. ....|B-5 .... ....
....|..|B-4 5... ....|B-3 .... ....|C-6 E... ....

[Pattern5]
..12|..|B-4 5F.. ....|F-4 CF4. ....|A-5 AE.. ....
..1B|..|F-1 9... ....|F-4 .... ....|D-5 .E.. ....
..10|..|F-2 .... ....|F-4 8... ....|B-5 .E.. ....
..1B|..|--- .... ....|F-4 B... ....|D-5 .E.. ....
...F|..|B-4 5... ....|B-3 6F.. ....|C-6 .E.. ....
..1B|..|F-1 9... ....|F-4 C.4. ....|D-5 .E.. ....
....|..|F-2 .... ....|F-4 8... ....|D-6 .... ....
...F|..|--- .... ....|F-4 B... ....|C-6 .E.. ....
..1B|..|B-4 5... ....|F-4 C... ....|D-5 .E.. ....
...F|..|F-1 9... ....|F-4 .... ....|C-6 .E.. ....
..10|..|F-2 .... ....|F-4 8... ....|B-5 .E.. ....
..1B|..|--- .... ....|F-4 B... ....|D-5 .E.. ....
..12|..|B-4 5... ....|B-3 6F.. ....|A-5 .E.. ....
..1B|..|F-1 9... ....|F-4 C.4. ....|D-5 .E.. ....
..14|..|F-2 .... ....|F-4 8... ....|G-5 .E.. ....
..1B|..|B-4 5... ....|F-4 B... ....|D-5 .8.. ....
..12|..|B-4 .... ....|D-4 C.2. ....|A-5 .8.. ....
..1B|..|D-2 9... ....|B-3 6F.. ....|D-5 .8.. ....
..10|..|D-3 .... ....|D-4 8.2. ....|B-5 .8.. ....
..1B|..|--- .... ....|D-4 B... ....|D-5 .8.. ....
...F|..|B-4 5... ....|B-3 6F.. ....|C-6 .8.. ....
..1B|..|D-2 9... ....|D-4 C.2. ....|D-5 .8.. ....
....|..|D-3 .... ....|D-4 8... ....|D-6 .... ....
...C|..|--- .... ....|D-4 B... ....|E-5 .8.. ....
....|..|B-4 5... ....|D-4 C... ....|--- .... ....
....|..|D-2 9... ....|B-3 6F.. ....|E-5 BF.. ....
....|..|D-3 .... ....|D-4 8.2. ....|--- .... ....
....|..|--- .... ....|D-4 B... ....|E-5 ..B. ....
....|..|B-4 5... ....|B-3 6F.. ....|--- .... ....
....|..|D-2 9... ....|D-4 C.2. ....|--- .... ....
....|..|D-3 .... ....|D-4 8... ....|E-5 .F.. ....
....|..|--- .... ....|B-3 6F.. ....|E-5 .... ....
....|..|B-4 5... ....|A-4 C.2. ....|A-5 A.9. ....
....|..|A-1 9... ....|A-4 .... ....|G-5 E... ....
....|..|A-2 .... ....|A-4 8... ....|A-5 A... ....
....|..|--- .... ....|A-4 B... ....|A-5 .... ....
....|..|B-4 5... ....|B-3 6F.. ....|G-5 E... ....
....|..|A-1 9... ....|A-4 C.2. ....|A-5 A... ....
....|..|A-2 .... ....|A-4 8... ....|A-5 .... ....
....|..|--- .... ....|A-4 B... ....|G-5 E... ....
....|..|B-4 5... ....|A-4 C... ....|G-5 A... ....
....|..|A-1 9... ....|A-4 .... ....|A-5 E... ....
....|..|A-2 .... ....|A-4 8... ....|A-5 A... ....
....|..|--- .... ....|A-4 B... ....|G-5 E... ....
....|..|B-4 5... ....|B-3 6F.. ....|C-6 A... ....
....|..|A-1 9... ....|A-4 C.2. ....|A-5 E... ....
....|..|A-2 .... ....|A-4 8... ....|B-5 A... ....
....|..|B-4 5... ....|A-4 B... ....|A-5 .... ....
....|..|B-4 .... ....|A-4 C... ....|--- .... ....
....|..|A-1 9... ....|B-3 6F.. ....|B-5 F... ....
....|..|A-2 .... ....|A-4 8.2. ....|A-5 .... ....
....|..|--- .... ....|B-3 6F.. ....|--- .... ....
....|..|B-4 5... ....|B-3 .... ....|B-5 E... ....
....|..|A-1 9... ....|B-3 .... ....|A-5 .... ....
....|..|A-2 .... ....|A-4 8.2. ....|--- .... ....
....|..|--- .... ....|A-4 B... ....|--- .... ....
....|..|B-4 5... ....|A-4 C... ....|B-3 6F.. ....
....|..|A-1 9... ....|B-3 6F.. ....|R-- E... ....
....|..|A-2 .... ....|A-4 8.2. ....|B-3 6... ....
....|..|--- .... ....|B-3 6F.. ....|R-- E... ....
....|..|B-4 5... ....|B-3 .... ....|--- .... ....
....|..|A-1 9... ....|A-4 C.2. ....|B-3 6... ....
....|..|A-2 .... ....|B-3 6F.. ....|R-- A... ....
....|..|B-4 5... ....|B-3 .... ....|--- .... ....

[Pattern6]
....|..|B-4 5F.. ....|A-4 CF2. ....|A-1 4F.. ....
..23|..|A-1 9E.. ....|--- .... ....|--- .... ....
..23|..|A-2 .8.. ....|A-4 .... ....|--- .... ....
....|..|--- .... ....|--- .... ....|--- .... ....
....|..|B-4 5F.. ....|B-3 6F.. ....|D-5 G.D. ....
..23|..|A-1 9E.. ....|--- .... ....|--- .... ....
..23|..|A-2 .8.. ....|A-4 C.2. ....|--- .... ....
....|..|--- .... ....|--- .... ....|--- .... ....
....|..|B-4 5F.. ....|A-4 .... ....|D-5 A.9. ....
..23|..|A-1 9E.. ....|B-3 6F.. ....|--- .... ....
..23|..|A-2 .8.. ....|A-4 C.2. ....|D-5 F.D. ....
....|..|--- .... ....|--- .... ....|--- .... ....
....|..|B-4 5F.. ....|B-3 6F.. ....|C-5 A.9. ....
..23|..|A-1 9E.. ....|--- .... ....|D-5 F... ....
..23|..|A-2 .8.. ....|A-4 C.2. ....|A-4 A... ....
....|..|B-4 5F.. ....|--- .... ....|--- .... ....
....|..|B-4 .... ....|C-4 ..4. ....|G-4 F... ....
..1E|..|C-2 9E.. ....|--- .... ....|A-4 E... ....
..1E|..|C-3 .C.. ....|C-4 .... ....|--- .... ....
....|..|--- .... ....|--- .... ....|G-4 .... ....
....|..|B-4 5F.. ....|B-3 6F.. ....|D-5 G.D. ....
..1E|..|C-2 9E.. ....|--- .... ....|--- .... ....
..1E|..|C-3 .C.. ....|C-4 C.4. ....|--- .... ....
....|..|--- .... ....|--- .... ....|--- .... ....
....|..|B-4 5F.. ....|C-4 .... ....|D-5 A.9. ....
..1E|..|C-2 9E.. ....|--- .... ....|--- .... ....
..1E|..|C-3 .C.. ....|C-4 .... ....|D-5 F.D. ....
....|..|--- .... ....|--- .... ....|--- .... ....
....|..|B-4 5F.. ....|B-3 6F.. ....|C-5 A.9. ....
..1E|..|C-2 9E.. ....|--- .... ....|D-5 F... ....
..1E|..|C-3 .C.. ....|C-4 C.4. ....|D-5 A... ....
....|..|--- .... ....|B-3 6F.. ....|--- .... ....
....|..|B-4 5F.. ....|D-4 C.2. ....|C-5 F... ....
..36|..|D-2 2E.. ....|--- .... ....|D-5 E... ....
..24|..|D-3 9C.. ....|D-4 .... ....|--- .... ....
....|..|--- .... ....|--- .... ....|C-5 .... ....
....|..|B-4 5F.. ....|B-3 6F.. ....|A-4 A... ....
..36|..|D-2 2E.. ....|--- .... ....|--- .... ....
..24|..|D-3 9C.. ....|D-4 C.2. ....|D-5 F... ....
....|..|--- .... ....|--- .... ....|--- .... ....
....|..|B-4 5F.. ....|D-4 .... ....|B-4 A... ....
..36|..|D-2 2E.. ....|B-3 6F.. ....|--- .... ....
..24|..|D-3 9C.. ....|D-4 C.2. ....|A-4 F... ....
....|..|--- .... ....|--- .... ....|--- .... ....
....|..|B-4 5F.. ....|B-3 6F.. ....|C-5 A... ....
..36|..|D-2 2E.. ....|--- .... ....|B-4 F... ....
..24|..|D-3 9C.. ....|D-4 C.2. ....|C-5 G.D. ....
....|..|--- .... ....|--- .... ....|--- .... ....
....|..|B-4 5F.. ....|F-4 ..4. ....|--- .... ....
..1E|..|F-1 9E.. ....|--- .... ....|--- .... ....
..1E|..|F-2 .C.. ....|F-4 .... ....|D-5 A.9. ....
....|..|--- .... ....|--- .... ....|C-5 E.D. ....
....|..|B-4 5F.. ....|B-3 6F.. ....|C-5 A.9. ....
..1E|..|F-1 9E.. ....|--- .... ....|D-5 E... ....
..1E|..|F-2 .C.. ....|F-4 C.4. ....|C-5 A... ....
....|..|B-4 5F.. ....|--- .... ....|C-5 E... ....
....|..|B-4 .... ....|B-3 6F.. ....|B-4 A... ....
..10|..|G-1 9E.. ....|B-3 .... ....|C-5 E... ....
..28|..|G-2 .C.. ....|G-4 C.4. ....|B-4 A... ....
....|..|--- .... ....|G-4 .... ....|B-4 E... ....
....|..|B-4 5F.. ....|B-3 6F.. ....|G-4 A... ....
..10|..|G-1 9E.. ....|G-4 C.4. ....|B-4 E... ....
..28|..|G-2 .C.. ....|B-3 6F.. ....|G-4 A... ....
....|..|B-4 5F.. ....|B-3 .... ....|G-4 E... ....

[Pattern7]
....|..|B-4 5F.. ....|A-4 CF2. ....|A-4 AF9. ....
..23|..|A-1 9E.. ....|--- .... ....|--- .... ....
..23|..|A-2 .8.. ....|A-4 .... ....|G-4 F... ....
....|..|--- .... ....|--- .... ....|--- .... ....
....|..|B-4 5F.. ....|B-3 6F.. ....|D-5 G.D. ....
..23|..|A-1 9E.. ....|--- .... ....|--- .... ....
..23|..|A-2 .8.. ....|A-4 C.2. ....|--- .... ....
....|..|--- .... ....|--- .... ....|--- .... ....
....|..|B-4 5F.. ....|A-4 .... ....|D-5 A.9. ....
..23|..|A-1 9E.. ....|B-3 6F.. ....|--- .... ....
..23|..|A-2 .8.. ....|A-4 C.2. ....|D-5 F.D. ....
....|..|--- .... ....|--- .... ....|--- .... ....
....|..|B-4 5F.. ....|B-3 6F.. ....|C-5 A.9. ....
..23|..|A-1 9E.. ....|--- .... ....|D-5 F... ....
..23|..|A-2 .8.. ....|A-4 C.2. ....|A-4 A... ....
....|..|B-4 5F.. ....|--- .... ....|--- .... ....
....|..|B-4 .... ....|C-4 ..4. ....|G-4 F... ....
..1E|..|C-2 9E.. ....|--- .... ....|A-4 E... ....
..1E|..|C-3 .C.. ....|C-4 .... ....|--- .... ....
....|..|--- .... ....|--- .... ....|G-4 .... ....
....|..|B-4 5F.. ....|B-3 6F.. ....|D-5 G.D. ....
..1E|..|C-2 9E.. ....|--- .... ....|--- .... ....
..1E|..|C-3 .C.. ....|C-4 C.4. ....|--- .... ....
....|..|--- .... ....|--- .... ....|--- .... ....
....|..|B-4 5F.. ....|C-4 .... ....|D-5 A.9. ....
..1E|..|C-2 9E.. ....|B-3 6F.. ....|--- .... ....
..1E|..|C-3 .C.. ....|C-4 C.4. ....|D-5 F.D. ....
....|..|--- .... ....|--- .... ....|--- .... ....
....|..|B-4 5F.. ....|B-3 6F.. ....|C-5 A.9. ....
..1E|..|C-2 9E.. ....|C-4 C.4. ....|D-5 F... ....
..1E|..|C-3 .C.. ....|B-3 6F.. ....|D-5 A... ....
....|..|--- .... ....|B-3 .... ....|--- .... ....
....|..|B-4 5F.. ....|D-4 C.2. ....|C-5 F... ....
..35|..|D-2 2E.. ....|--- .... ....|D-5 E... ....
..24|..|D-3 9C.. ....|D-4 .... ....|--- .... ....
....|..|--- .... ....|--- .... ....|C-5 .... ....
....|..|B-4 5F.. ....|B-3 6F.. ....|A-4 A... ....
..35|..|D-2 2E.. ....|--- .... ....|--- .... ....
..24|..|D-3 9C.. ....|D-4 C.2. ....|D-5 F... ....
....|..|--- .... ....|--- .... ....|--- .... ....
....|..|B-4 5F.. ....|D-4 .... ....|B-4 A... ....
..35|..|D-2 2E.. ....|B-3 6F.. ....|--- .... ....
..24|..|D-3 9C.. ....|D-4 C.2. ....|A-4 F... ....
....|..|--- .... ....|--- .... ....|--- .... ....
....|..|B-4 5F.. ....|B-3 6F.. ....|C-5 A... ....
..35|..|D-2 2E.. ....|--- .... ....|B-4 F... ....
..24|..|D-3 9C.. ....|D-4 C.2. ....|C-5 G.D. ....
....|..|--- .... ....|--- .... ....|--- .... ....
....|..|B-4 5F.. ....|F-4 ..4. ....|--- .... ....
..1E|..|F-1 9E.. ....|--- .... ....|--- .... ....
..1E|..|F-2 .C.. ....|F-4 .... ....|D-5 A.9. ....
....|..|--- .... ....|--- .... ....|C-5 E.D. ....
....|..|B-4 5F.. ....|B-3 6F.. ....|C-5 A.9. ....
..1E|..|F-1 9E.. ....|--- .... ....|D-5 E... ....
..1E|..|F-2 .C.. ....|F-4 C.4. ....|C-5 A... ....
....|..|B-4 5F.. ....|B-3 6F.. ....|C-5 E... ....
....|..|B-4 .... ....|B-3 .... ....|B-4 A... ....
..10|..|G-1 9E.. ....|B-3 .... ....|C-5 E... ....
..28|..|G-2 .C.. ....|G-4 C.4. ....|B-4 A... ....
....|..|--- .... ....|G-4 .... ....|B-4 E... ....
....|..|B-4 5F.. ....|B-3 6F.. ....|G-5 A... ....
..10|..|G-1 9E.. ....|G-4 C.4. ....|B-4 E... ....
..28|..|G-2 .C.. ....|B-3 6F.. ....|G-5 A... ....
....|..|B-4 5F.. ....|B-3 .... ....|G-4 E... ....

[Pattern8]
....|..|B-4 5F.. ....|A-4 CF2. ....|E-5 AF.. ....
..23|..|A-1 9E.. ....|--- .... ....|--- .... ....
..23|..|A-2 .8.. ....|A-4 .... ....|G-5 E... ....
....|..|--- .... ....|--- .... ....|--- .... ....
....|..|B-4 5F.. ....|B-3 6F.. ....|D-5 G.D. ....
..23|..|A-1 9E.. ....|--- .... ....|--- .... ....
..23|..|A-2 .8.. ....|A-4 C.2. ....|--- .... ....
....|..|--- .... ....|--- .... ....|--- .... ....
....|..|B-4 5F.. ....|A-4 .... ....|D-5 A.9. ....
..23|..|A-1 9E.. ....|B-3 6F.. ....|--- .... ....
..23|..|A-2 .8.. ....|A-4 C.2. ....|D-5 F.D. ....
....|..|--- .... ....|B-3 6F.. ....|--- .... ....
....|..|B-4 5F.. ....|B-3 .... ....|C-5 A.9. ....
..23|..|A-1 9E.. ....|--- .... ....|D-5 F... ....
..23|..|A-2 .8.. ....|A-4 C.2. ....|A-4 A... ....
....|..|B-4 5F.. ....|--- .... ....|--- .... ....
....|..|B-4 .... ....|C-4 ..4. ....|G-4 F... ....
..1E|..|C-2 9E.. ....|--- .... ....|A-4 E... ....
..1E|..|C-3 .C.. ....|C-4 .... ....|--- .... ....
....|..|--- .... ....|--- .... ....|G-4 .... ....
....|..|B-4 5F.. ....|B-3 6F.. ....|D-5 G.D. ....
..1E|..|C-2 9E.. ....|--- .... ....|--- .... ....
..1E|..|C-3 .C.. ....|C-4 C.4. ....|--- .... ....
....|..|--- .... ....|--- .... ....|--- .... ....
....|..|B-4 5F.. ....|C-4 .... ....|D-5 A.9. ....
..1E|..|C-2 9E.. ....|--- .... ....|--- .... ....
..1E|..|C-3 .C.. ....|C-4 .... ....|D-5 F.D. ....
....|..|--- .... ....|--- .... ....|--- .... ....
....|..|B-4 5F.. ....|B-3 6F.. ....|C-5 A.9. ....
..1E|..|C-2 9E.. ....|--- .... ....|D-5 F... ....
..1E|..|C-3 .C.. ....|C-4 C.4. ....|D-5 A... ....
....|..|--- .... ....|B-3 6F.. ....|--- .... ....
....|..|B-4 5F.. ....|D-4 C.2. ....|C-5 F... ....
..35|..|D-2 2E.. ....|--- .... ....|D-5 E... ....
..24|..|D-3 9C.. ....|D-4 .... ....|--- .... ....
....|..|--- .... ....|--- .... ....|C-5 .... ....
....|..|B-4 5F.. ....|B-3 6F.. ....|A-4 A... ....
..35|..|D-2 2E.. ....|--- .... ....|--- .... ....
..24|..|D-3 9C.. ....|D-4 C.2. ....|D-5 F... ....
....|..|--- .... ....|--- .... ....|--- .... ....
....|..|B-4 5F.. ....|D-4 .... ....|B-4 A... ....
..35|..|D-2 2E.. ....|B-3 6F.. ....|--- .... ....
..24|..|D-3 9C.. ....|D-4 C.2. ....|A-4 F... ....
....|..|--- .... ....|B-3 6F.. ....|--- .... ....
....|..|B-4 5F.. ....|B-3 .... ....|C-5 A... ....
..35|..|D-2 2E.. ....|--- .... ....|B-4 F... ....
..24|..|D-3 9C.. ....|D-4 C.2. ....|C-5 G.D. ....
....|..|--- .... ....|--- .... ....|--- .... ....
....|..|B-4 5F.. ....|F-4 ..4. ....|--- .... ....
..1E|..|F-1 9E.. ....|--- .... ....|--- .... ....
..1E|..|F-2 .C.. ....|F-4 .... ....|D-5 A.9. ....
....|..|--- .... ....|--- .... ....|C-5 E.D. ....
....|..|B-4 5F.. ....|B-3 6F.. ....|C-5 A.9. ....
..1E|..|F-1 9E.. ....|--- .... ....|D-5 E... ....
..1E|..|F-2 .C.. ....|F-4 C.4. ....|C-5 A... ....
....|..|B-4 5F.. ....|--- .... ....|C-5 E... ....
....|..|B-4 .... ....|B-3 6F.. ....|B-4 A... ....
..10|..|G-1 9E.. ....|B-3 .... ....|C-5 E... ....
..28|..|G-2 .C.. ....|G-4 C.4. ....|B-4 A... ....
....|..|--- .... ....|G-4 .... ....|B-4 E... ....
....|..|B-4 5F.. ....|B-3 6F.. ....|G-4 A... ....
..10|..|G-1 9E.. ....|G-4 C.4. ....|B-4 E... ....
..28|..|G-2 .C.. ....|B-3 6F.. ....|G-4 A... ....
....|..|B-4 5F.. ....|B-3 .... ....|G-4 E... ....

[Pattern9]
...F|..|B-4 5F.. ....|F-4 CF4. ....|C-6 9E.. ....
..1E|..|F-1 9... ....|F-4 .... ....|C-6 .C.. ....
..20|..|F-2 .... ....|F-4 8... ....|B-5 .C.. ....
....|..|--- .... ....|F-4 B... ....|B-3 FF.. ....
..24|..|B-4 5... ....|B-3 6F.. ....|A-5 9C.. ....
....|..|F-1 9... ....|F-4 C.4. ....|A-3 FF.. ....
..28|..|F-2 .... ....|F-4 8... ....|G-5 9C.. ....
..24|..|--- .... ....|F-4 B... ....|A-5 .C.. ....
....|..|B-4 5... ....|F-4 C... ....|A-3 FF.. ....
....|..|F-1 9... ....|F-4 .... ....|--- .... ....
....|..|F-2 .... ....|F-4 8... ....|--- .... ....
....|..|--- .... ....|F-4 B... ....|--- .... ....
....|..|B-4 5... ....|B-3 6F.. ....|--- .... ....
....|..|F-1 9... ....|F-4 C.4. ....|--- .... ....
....|..|F-2 .... ....|F-4 8... ....|--- .... ....
....|..|B-4 5... ....|F-4 B... ....|--- .... ....
...F|..|B-4 .... ....|D-4 C.2. ....|C-6 9E.. ....
..1E|..|D-2 9... ....|B-3 6F.. ....|C-6 .C.. ....
..10|..|D-3 .... ....|D-4 8.2. ....|B-5 .E.. ....
....|..|--- .... ....|D-4 B... ....|B-3 FF.. ....
..12|..|B-4 5... ....|B-3 6F.. ....|A-5 9E.. ....
....|..|D-2 9... ....|D-4 C.2. ....|A-3 FF.. ....
..14|..|D-3 .... ....|D-4 8... ....|G-5 9E.. ....
..12|..|--- .... ....|D-4 B... ....|A-5 .E.. ....
....|..|B-4 5... ....|D-4 C... ....|A-3 FF.. ....
....|..|D-2 9... ....|B-3 6F.. ....|--- .... ....
..18|..|D-3 .... ....|D-4 8.2. ....|E-5 9E.. ....
....|..|--- .... ....|D-4 B... ....|E-3 FF.. ....
..14|..|B-4 5... ....|B-3 6F.. ....|G-5 9E.. ....
....|..|D-2 9... ....|D-4 C.2. ....|G-3 FF.. ....
..18|..|D-3 .... ....|D-4 8... ....|E-5 9E.. ....
..12|..|--- .... ....|B-3 6F.. ....|A-5 .E.. ....
....|..|B-4 5... ....|A-4 C.2. ....|A-3 FF.. ....
....|..|A-1 9... ....|A-4 .... ....|--- .... ....
....|..|A-2 .... ....|A-4 8... ....|--- .... ....
....|..|--- .... ....|A-4 B... ....|--- .... ....
....|..|B-4 5... ....|B-3 6F.. ....|--- .... ....
....|..|A-1 9... ....|A-4 C.2. ....|--- .... ....
....|..|A-2 .... ....|A-4 8... ....|--- .... ....
....|..|--- .... ....|A-4 B... ....|--- .... ....
....|..|B-4 5... ....|A-4 C... ....|B-3 6... ....
....|..|A-1 9... ....|A-4 .... ....|B-3 .... ....
....|..|A-2 .... ....|A-4 8... ....|R-- .... ....
....|..|--- .... ....|A-4 B... ....|B-3 .... ....
....|..|B-4 5... ....|B-3 6F.. ....|R-- .... ....
....|..|A-1 9... ....|A-4 C.2. ....|B-3 .... ....
....|..|A-2 .... ....|A-4 8... ....|R-- .... ....
....|..|B-4 5... ....|A-4 B... ....|B-3 .... ....
....|..|B-4 .... ....|A-4 C... ....|R-- .... ....
....|..|A-1 9... ....|B-3 6F.. ....|--- .... ....
....|..|A-2 .... ....|A-4 8.2. ....|B-3 .... ....
....|..|--- .... ....|B-3 6F.. ....|R-- .... ....
....|..|B-4 5... ....|B-3 .... ....|--- .... ....
....|..|A-1 9... ....|B-3 .... ....|--- .... ....
....|..|A-2 .... ....|A-4 8.2. ....|--- .... ....
....|..|--- .... ....|A-4 B... ....|B-3 .... ....
....|..|B-4 5... ....|A-4 C... ....|B-3 .... ....
....|..|A-1 9... ....|B-3 6F.. ....|R-- .... ....
....|..|A-2 .... ....|A-4 8.2. ....|--- .... ....
....|..|--- .... ....|B-3 6F.. ....|--- .... ....
....|..|B-4 5... ....|B-3 .... ....|--- .... ....
....|..|A-1 9... ....|A-4 C.2. ....|B-3 .... ....
....|..|A-2 .... ....|B-3 6F.. ....|R-- .... ....
....|..|B-4 5... ....|B-3 .... ....|--- .... ....

[Pattern10]
...F|..|B-4 5F.. ....|F-4 CF4. ....|C-6 9E.. ....
..1E|..|F-1 9... ....|F-4 .... ....|C-6 .C.. ....
..20|..|F-2 .... ....|F-4 8... ....|B-5 .C.. ....
....|..|--- .... ....|F-4 B... ....|B-3 FF.. ....
..24|..|B-4 5... ....|B-3 6F.. ....|A-5 9C.. ....
....|..|F-1 9... ....|F-4 C.4. ....|A-3 FF.. ....
..28|..|F-2 .... ....|F-4 8... ....|G-5 9C.. ....
..24|..|--- .... ....|F-4 B... ....|A-5 .C.. ....
....|..|B-4 5... ....|F-4 C... ....|A-3 FF.. ....
....|..|F-1 9... ....|F-4 .... ....|--- .... ....
....|..|F-2 .... ....|F-4 8... ....|E-6 .... ....
....|..|--- .... ....|F-4 B... ....|D-6 E... ....
....|..|B-4 5... ....|B-3 6F.. ....|D-6 F... ....
....|..|F-1 9... ....|F-4 C.4. ....|E-6 E... ....
....|..|F-2 .... ....|F-4 8... ....|A-5 F... ....
....|..|B-4 5... ....|F-4 B... ....|D-6 E... ....
...F|..|B-4 .... ....|D-4 C.2. ....|C-6 9E.. ....
..1E|..|D-2 9... ....|B-3 6F.. ....|C-6 .C.. ....
..10|..|D-3 .... ....|D-4 8.2. ....|B-5 .E.. ....
....|..|--- .... ....|D-4 B... ....|B-3 FF.. ....
..12|..|B-4 5... ....|B-3 6F.. ....|A-5 9E.. ....
....|..|D-2 9... ....|D-4 C.2. ....|A-3 FF.. ....
..14|..|D-3 .... ....|D-4 8... ....|G-5 9E.. ....
..12|..|--- .... ....|D-4 B... ....|A-5 .E.. ....
....|..|B-4 5... ....|D-4 C... ....|A-3 FF.. ....
....|..|D-2 9... ....|B-3 6F.. ....|--- .... ....
..18|..|D-3 .... ....|D-4 8.2. ....|E-5 9E.. ....
....|..|--- .... ....|D-4 B... ....|E-3 FF.. ....
..14|..|B-4 5... ....|B-3 6F.. ....|G-5 9E.. ....
....|..|D-2 9... ....|D-4 C.2. ....|G-3 FF.. ....
...F|..|D-3 .... ....|D-4 8... ....|C-6 9E.. ....
..12|..|--- .... ....|B-3 6F.. ....|A-5 .E.. ....
....|..|B-4 5... ....|A-4 C.2. ....|A-3 FF.. ....
....|..|A-1 9... ....|A-4 .... ....|--- .... ....
....|..|A-2 .... ....|A-4 8... ....|G-6 .... ....
....|..|--- .... ....|A-4 B... ....|E-6 E... ....
....|..|B-4 5... ....|B-3 6F.. ....|E-6 F... ....
....|..|A-1 9... ....|A-4 C.2. ....|G-6 E... ....
....|..|A-2 .... ....|A-4 8... ....|G-6 F... ....
....|..|--- .... ....|A-4 B... ....|E-6 E... ....
....|..|B-4 5... ....|A-4 C... ....|C-6 F... ....
....|..|A-1 9... ....|A-4 .... ....|G-6 E... ....
....|..|A-2 .... ....|A-4 8... ....|D-6 F... ....
....|..|--- .... ....|A-4 B... ....|C-6 E... ....
....|..|B-4 5... ....|B-3 6F.. ....|A-5 F... ....
....|..|A-1 9... ....|A-4 C.2. ....|D-6 E... ....
....|..|A-2 .... ....|A-4 8... ....|E-6 F... ....
....|..|B-4 5... ....|A-4 B... ....|--- .... ....
....|..|B-4 .... ....|A-4 C... ....|D-6 E... ....
....|..|A-1 9... ....|B-3 6F.. ....|E-6 .... ....
....|..|A-2 .... ....|A-4 8.2. ....|G-6 F... ....
....|..|--- .... ....|B-3 6F.. ....|E-6 E... ....
....|..|B-4 5... ....|B-3 .... ....|E-6 F... ....
....|..|A-1 9... ....|B-3 .... ....|G-6 E... ....
....|..|A-2 .... ....|A-4 8.2. ....|G-6 F... ....
....|..|--- .... ....|A-4 B... ....|E-6 E... ....
....|..|B-4 5... ....|A-4 C... ....|C-6 F... ....
....|..|A-1 9... ....|B-3 6F.. ....|G-6 E... ....
....|..|A-2 .... ....|A-4 8.2. ....|D-6 F... ....
....|..|--- .... ....|B-3 6F.. ....|C-6 E... ....
....|..|B-4 5... ....|B-3 .... ....|E-6 F... ....
....|..|A-1 9... ....|A-4 C.2. ....|D-6 E... ....
....|..|A-2 .... ....|B-3 6F.. ....|G-6 F... ....
....|..|B-4 5... ....|B-3 .... ....|E-6 E... ....

[Pattern11]
....|..|B-4 5F.. ....|A-4 CF4. ....|A-1 4F.. ....
..23|..|A-1 9E.. ....|A-4 .... ....|--- .... ....
..23|..|A-2 .8.. ....|A-4 .... ....|--- .... ....
....|..|--- .... ....|A-4 .... ....|--- .... ....
....|..|B-4 5F.. ....|B-3 6F.. ....|D-5 G.D. ....
..23|..|A-1 9E.. ....|A-4 C.4. ....|--- .... ....
..23|..|A-2 .8.. ....|A-4 .... ....|--- .... ....
....|..|--- .... ....|A-4 .... ....|--- .... ....
....|..|B-4 5F.. ....|A-4 .... ....|E-5 A.9. ....
..23|..|A-1 9E.. ....|A-4 .... ....|D-5 E.D. ....
..23|..|A-2 .8.. ....|A-4 .... ....|D-5 A.9. ....
....|..|--- .... ....|A-4 .... ....|E-5 E... ....
....|..|B-4 5F.. ....|B-3 6F.. ....|C#5 A... ....
..23|..|A-1 9E.. ....|A-4 C.4. ....|D-5 E... ....
..23|..|A-2 .8.. ....|A-4 .... ....|D-5 A... ....
....|..|--- .... ....|A-4 .... ....|--- .... ....
....|..|B-4 5F.. ....|E-4 .... ....|C#5 E... ....
..2F|..|E-1 9E.. ....|E-4 .... ....|D-5 .... ....
..2F|..|E-2 .8.. ....|E-4 .... ....|C#5 A... ....
....|..|--- .... ....|E-4 .... ....|--- .... ....
....|..|B-4 5F.. ....|B-3 6F.. ....|C#5 E... ....
..2F|..|E-1 9E.. ....|E-4 C.4. ....|D-5 .... ....
..2F|..|E-2 .8.. ....|E-4 .... ....|B-4 A... ....
....|..|--- .... ....|E-4 .... ....|--- .... ....
....|..|B-4 5F.. ....|E-4 .... ....|A-4 E... ....
..2F|..|E-1 9E.. ....|E-4 .... ....|B-4 .... ....
..2F|..|E-2 .8.. ....|B-3 6F.. ....|A-4 A... ....
....|..|--- .... ....|E-4 C.4. ....|B-4 E... ....
....|..|B-4 5F.. ....|E-4 .... ....|B-4 A... ....
..2F|..|E-1 9E.. ....|E-4 .... ....|A-4 E... ....
..2F|..|E-2 .8.. ....|B-3 6F.. ....|C#5 A... ....
....|..|--- .... ....|E-4 C.4. ....|B-4 E... ....
....|..|B-4 5F.. ....|G-4 .... ....|D-5 A... ....
..28|..|G-1 9E.. ....|G-4 .... ....|--- .... ....
..28|..|G-2 .C.. ....|G-4 .... ....|C#5 E... ....
....|..|--- .... ....|G-4 .... ....|D-5 .... ....
....|..|B-4 5F.. ....|B-3 6F.. ....|E-5 A... ....
..28|..|G-1 9E.. ....|G-4 C.4. ....|D-5 E... ....
..28|..|G-2 .C.. ....|G-4 .... ....|D-5 A... ....
....|..|--- .... ....|G-4 .... ....|--- .... ....
....|..|B-4 5F.. ....|G-4 .... ....|E-5 E... ....
..28|..|G-1 9E.. ....|G-4 .... ....|D-5 .... ....
..28|..|G-2 .C.. ....|G-4 .... ....|C#5 A... ....
....|..|--- .... ....|G-4 .... ....|--- .... ....
....|..|B-4 5F.. ....|B-3 6F.. ....|D-5 E... ....
..28|..|G-1 9E.. ....|G-4 C.4. ....|C#5 .... ....
..28|..|G-2 .C.. ....|G-4 .... ....|B-4 A... ....
....|..|--- .... ....|G-4 .... ....|--- .... ....
....|..|B-4 5F.. ....|D-4 .... ....|C#5 E... ....
..35|..|D-2 2E.. ....|D-4 .... ....|B-4 .... ....
..24|..|D-3 98.. ....|D-4 .... ....|C#5 A... ....
....|..|--- .... ....|D-4 .... ....|B-4 E... ....
....|..|B-4 5F.. ....|B-3 6F.. ....|A-4 A... ....
..35|..|D-2 2E.. ....|D-4 C.4. ....|--- .... ....
..24|..|D-3 98.. ....|D-4 .... ....|C#5 E... ....
....|..|--- .... ....|B-3 6F.. ....|A-4 .... ....
....|..|B-4 5F.. ....|D-4 C.4. ....|F#4 G.1. ....
..35|..|D-2 2E.. ....|B-3 6F.. ....|--- .... ....
..24|..|D-3 98.. ....|B-3 .... ....|A-4 A... ....
....|..|--- .... ....|D-4 C.4. ....|F#4 F... ....
....|..|B-4 5F.. ....|B-3 6F.. ....|F#4 G... ....
..35|..|D-2 2E.. ....|D-4 C.4. ....|--- .... ....
..24|..|D-3 98.. ....|B-3 6F.. ....|A-4 A... ....
....|..|--- .... ....|B-3 .... ....|F#4 F... ....

[Pattern12]
....|..|B-4 5F.. ....|A-4 CF4. ....|A-1 4F.. ....
..23|..|A-1 9E.. ....|A-4 .... ....|--- .... ....
..23|..|A-2 .8.. ....|A-4 .... ....|--- .... ....
....|..|--- .... ....|A-4 .... ....|--- .... ....
....|..|B-4 5F.. ....|B-3 6F.. ....|D-5 G.D. ....
..23|..|A-1 9E.. ....|A-4 C.4. ....|--- .... ....
..23|..|A-2 .8.. ....|A-4 .... ....|--- .... ....
....|..|--- .... ....|A-4 .... ....|--- .... ....
....|..|B-4 5F.. ....|A-4 .... ....|E-5 A.9. ....
..23|..|A-1 9E.. ....|A-4 .... ....|D-5 E.D. ....
..23|..|A-2 .8.. ....|A-4 .... ....|D-5 A.9. ....
....|..|--- .... ....|A-4 .... ....|E-5 E... ....
....|..|B-4 5F.. ....|B-3 6F.. ....|C#5 A... ....
..23|..|A-1 9E.. ....|A-4 C.4. ....|D-5 E... ....
..23|..|A-2 .8.. ....|A-4 .... ....|D-5 A... ....
....|..|--- .... ....|A-4 .... ....|--- .... ....
....|..|B-4 5F.. ....|E-4 .... ....|C#5 E... ....
..2F|..|E-1 9E.. ....|E-4 .... ....|D-5 .... ....
..2F|..|E-2 .8.. ....|E-4 .... ....|C#5 A... ....
....|..|--- .... ....|E-4 .... ....|--- .... ....
....|..|B-4 5F.. ....|B-3 6F.. ....|C#5 E... ....
..2F|..|E-1 9E.. ....|E-4 C.4. ....|D-5 .... ....
..2F|..|E-2 .8.. ....|E-4 .... ....|B-4 A... ....
....|..|--- .... ....|E-4 .... ....|--- .... ....
....|..|B-4 5F.. ....|E-4 .... ....|A-4 E... ....
..2F|..|E-1 9E.. ....|E-4 .... ....|B-4 .... ....
..2F|..|E-2 .8.. ....|B-3 6F.. ....|A-4 A... ....
....|..|--- .... ....|E-4 C.4. ....|B-4 E... ....
....|..|B-4 5F.. ....|E-4 .... ....|B-4 A... ....
..2F|..|E-1 9E.. ....|E-4 .... ....|A-4 E... ....
..2F|..|E-2 .8.. ....|B-3 6F.. ....|C#5 A... ....
....|..|--- .... ....|E-4 C.4. ....|B-4 E... ....
....|..|B-4 5F.. ....|G-4 .... ....|D-5 A... ....
..28|..|G-1 9E.. ....|G-4 .... ....|--- .... ....
..28|..|G-2 .C.. ....|G-4 .... ....|C#5 E... ....
....|..|--- .... ....|G-4 .... ....|D-5 .... ....
....|..|B-4 5F.. ....|B-3 6F.. ....|E-5 A... ....
..28|..|G-1 9E.. ....|G-4 C.4. ....|D-5 E... ....
..28|..|G-2 .C.. ....|G-4 .... ....|D-5 A... ....
....|..|--- .... ....|G-4 .... ....|--- .... ....
....|..|B-4 5F.. ....|G-4 .... ....|E-5 E... ....
..28|..|G-1 9E.. ....|G-4 .... ....|D-5 .... ....
..28|..|G-2 .C.. ....|G-4 .... ....|C#5 A... ....
....|..|--- .... ....|G-4 .... ....|D-5 E... ....
....|..|B-4 5F.. ....|B-3 6F.. ....|A-4 A... ....
..28|..|G-1 9E.. ....|G-4 C.4. ....|--- .... ....
..28|..|G-2 .C.. ....|G-4 .... ....|C#5 F... ....
....|..|--- .... ....|G-4 .... ....|A-4 .... ....
....|..|B-4 5F.. ....|D-4 .... ....|--- .... ....
..35|..|D-2 2E.. ....|D-4 .... ....|C#5 E... ....
..24|..|D-3 98.. ....|D-4 .... ....|A-4 .... ....
....|..|--- .... ....|D-4 .... ....|--- .... ....
....|..|B-4 5F.. ....|B-3 6F.. ....|F#4 G.1. ....
..35|..|D-2 2E.. ....|D-4 C.4. ....|--- .... ....
..24|..|D-3 98.. ....|D-4 .... ....|A-4 A... ....
....|..|--- .... ....|B-3 6F.. ....|F#4 F... ....
....|..|B-4 5F.. ....|D-4 C.4. ....|B-4 G... ....
..35|..|D-2 2E.. ....|B-3 6F.. ....|--- .... ....
..24|..|D-3 98.. ....|B-3 .... ....|A-4 A... ....
....|..|--- .... ....|D-4 C.4. ....|B-4 F... ....
....|..|B-4 5F.. ....|B-3 6F.. ....|F#4 G... ....
..35|..|D-2 2E.. ....|D-4 C.4. ....|--- .... ....
..24|..|D-3 98.. ....|B-3 6F.. ....|A-4 A... ....
....|..|--- .... ....|B-3 .... ....|F#4 F... ....

[Pattern13]
....|..|B-4 5F.. ....|A-4 CF4. ....|A-1 4F.. ....
..23|..|A-1 9E.. ....|A-4 .... ....|--- .... ....
..23|..|A-2 .8.. ....|A-4 8... ....|--- .... ....
....|..|--- .... ....|A-4 C... ....|--- .... ....
....|..|B-4 5F.. ....|B-3 6F.. ....|D-5 G.D. ....
..23|..|A-1 9E.. ....|A-4 C.4. ....|--- .... ....
..23|..|A-2 .8.. ....|A-4 8... ....|--- .... ....
....|..|--- .... ....|B-3 6F.. ....|--- .... ....
....|..|B-4 5F.. ....|A-4 C.4. ....|E-5 A.9. ....
..23|..|A-1 9E.. ....|B-3 6F.. ....|D-5 E.D. ....
..23|..|A-2 .8.. ....|A-4 8.4. ....|D-5 A.9. ....
....|..|--- .... ....|A-4 C... ....|E-5 E... ....
....|..|B-4 5F.. ....|B-3 6F.. ....|C#5 A... ....
..23|..|A-1 9E.. ....|A-4 C.4. ....|D-5 E... ....
..23|..|A-2 .8.. ....|A-4 8... ....|D-5 A... ....
....|..|--- .... ....|A-4 C... ....|--- .... ....
....|..|B-4 5F.. ....|E-4 .... ....|C#5 E... ....
..2F|..|E-1 9E.. ....|E-4 .... ....|D-5 .... ....
..2F|..|E-2 .8.. ....|E-4 8... ....|C#5 A... ....
....|..|--- .... ....|E-4 C... ....|--- .... ....
....|..|B-4 5F.. ....|B-3 6F.. ....|C#5 E... ....
..2F|..|E-1 9E.. ....|E-4 C.4. ....|D-5 .... ....
..2F|..|E-2 .8.. ....|E-4 8... ....|B-4 A... ....
....|..|--- .... ....|E-4 C... ....|--- .... ....
....|..|B-4 5F.. ....|E-4 8... ....|A-4 E... ....
..2F|..|E-1 9E.. ....|E-4 C... ....|B-4 .... ....
..2F|..|E-2 .8.. ....|B-3 6F.. ....|A-4 A... ....
....|..|--- .... ....|E-4 C.4. ....|B-4 E... ....
....|..|B-4 5F.. ....|E-4 8... ....|B-4 A... ....
..2F|..|E-1 9E.. ....|E-4 C... ....|A-4 E... ....
..2F|..|E-2 .8.. ....|B-3 6F.. ....|C#5 A... ....
....|..|--- .... ....|E-4 C.4. ....|B-4 E... ....
....|..|B-4 5F.. ....|G-4 .... ....|D-5 A... ....
..28|..|G-1 9E.. ....|G-4 .... ....|--- .... ....
..28|..|G-2 .C.. ....|G-4 8... ....|C#5 E... ....
....|..|--- .... ....|G-4 C... ....|D-5 .... ....
....|..|B-4 5F.. ....|B-3 6F.. ....|E-5 A... ....
..28|..|G-1 9E.. ....|G-4 C.4. ....|D-5 E... ....
..28|..|G-2 .C.. ....|G-4 8... ....|D-5 A... ....
....|..|--- .... ....|B-3 6F.. ....|--- .... ....
....|..|B-4 5F.. ....|G-4 C.4. ....|E-5 E... ....
..28|..|G-1 9E.. ....|B-3 6F.. ....|D-5 .... ....
..28|..|G-2 .C.. ....|G-4 8.4. ....|C#5 A... ....
....|..|--- .... ....|G-4 C... ....|--- .... ....
....|..|B-4 5F.. ....|B-3 6F.. ....|D-5 E... ....
..28|..|G-1 9E.. ....|G-4 C.4. ....|C#5 .... ....
..28|..|G-2 .C.. ....|G-4 8... ....|B-4 A... ....
....|..|--- .... ....|G-4 C... ....|--- .... ....
....|..|B-4 5F.. ....|D-4 .... ....|C#5 E... ....
..35|..|D-2 2E.. ....|D-4 .... ....|B-4 .... ....
..24|..|D-3 98.. ....|D-4 8... ....|C#5 A... ....
....|..|--- .... ....|D-4 C... ....|B-4 E... ....
....|..|B-4 5F.. ....|B-3 6F.. ....|A-4 A... ....
..35|..|D-2 2E.. ....|D-4 C.4. ....|--- .... ....
..24|..|D-3 98.. ....|D-4 8... ....|C#5 E... ....
....|..|--- .... ....|B-3 6F.. ....|A-4 .... ....
....|..|B-4 5F.. ....|D-4 C.4. ....|F#4 G.1. ....
..35|..|D-2 2E.. ....|B-3 6F.. ....|--- .... ....
..24|..|D-3 98.. ....|B-3 .... ....|A-4 A... ....
....|..|--- .... ....|D-4 C.4. ....|F#4 F... ....
....|..|B-4 5F.. ....|B-3 6F.. ....|F#4 G... ....
..35|..|D-2 2E.. ....|D-4 C.4. ....|--- .... ....
..24|..|D-3 98.. ....|B-3 6F.. ....|A-4 A... ....
....|..|--- .... ....|B-3 .... ....|F#4 F... ....

[Pattern14]
....|..|B-4 5F.. ....|A-4 CF4. ....|A-1 4F.. ....
..23|..|A-1 9E.. ....|A-4 .... ....|--- .... ....
..23|..|A-2 .8.. ....|A-4 8... ....|--- .... ....
....|..|--- .... ....|A-4 C... ....|--- .... ....
....|..|B-4 5F.. ....|B-3 6F.. ....|D-5 G.D. ....
..23|..|A-1 9E.. ....|A-4 C.4. ....|--- .... ....
..23|..|A-2 .8.. ....|A-4 8... ....|--- .... ....
....|..|--- .... ....|B-3 6F.. ....|--- .... ....
....|..|B-4 5F.. ....|A-4 C.4. ....|E-5 A.9. ....
..23|..|A-1 9E.. ....|B-3 6F.. ....|D-5 E.D. ....
..23|..|A-2 .8.. ....|A-4 8.4. ....|D-5 A.9. ....
....|..|--- .... ....|A-4 C... ....|E-5 E... ....
....|..|B-4 5F.. ....|B-3 6F.. ....|C#5 A... ....
..23|..|A-1 9E.. ....|A-4 C.4. ....|D-5 E... ....
..23|..|A-2 .8.. ....|A-4 8... ....|D-5 A... ....
....|..|--- .... ....|A-4 C... ....|--- .... ....
....|..|B-4 5F.. ....|E-4 .... ....|C#5 E... ....
..2F|..|E-1 9E.. ....|E-4 .... ....|D-5 .... ....
..2F|..|E-2 .8.. ....|E-4 8... ....|C#5 A... ....
....|..|--- .... ....|E-4 C... ....|--- .... ....
....|..|B-4 5F.. ....|B-3 6F.. ....|C#5 E... ....
..2F|..|E-1 9E.. ....|E-4 C.4. ....|D-5 .... ....
..2F|..|E-2 .8.. ....|E-4 8... ....|B-4 A... ....
....|..|--- .... ....|E-4 C... ....|--- .... ....
....|..|B-4 5F.. ....|E-4 8... ....|A-4 E... ....
..2F|..|E-1 9E.. ....|E-4 C... ....|B-4 .... ....
..2F|..|E-2 .8.. ....|B-3 6F.. ....|A-4 A... ....
....|..|--- .... ....|E-4 C.4. ....|B-4 E... ....
....|..|B-4 5F.. ....|E-4 8... ....|B-4 A... ....
..2F|..|E-1 9E.. ....|E-4 C... ....|A-4 E... ....
..2F|..|E-2 .8.. ....|B-3 6F.. ....|C#5 A... ....
....|..|--- .... ....|E-4 C.4. ....|B-4 E... ....
....|..|B-4 5F.. ....|G-4 .... ....|D-5 A... ....
..28|..|G-1 9E.. ....|G-4 .... ....|--- .... ....
..28|..|G-2 .C.. ....|G-4 8... ....|C#5 E... ....
....|..|--- .... ....|G-4 C... ....|D-5 .... ....
....|..|B-4 5F.. ....|B-3 6F.. ....|E-5 A... ....
..28|..|G-1 9E.. ....|G-4 C.4. ....|D-5 E... ....
..28|..|G-2 .C.. ....|G-4 8... ....|D-5 A... ....
....|..|--- .... ....|B-3 6F.. ....|--- .... ....
....|..|B-4 5F.. ....|G-4 C.4. ....|E-5 E... ....
..28|..|G-1 9E.. ....|B-3 6F.. ....|D-5 .... ....
..28|..|G-2 .C.. ....|G-4 8.4. ....|C#5 A... ....
....|..|--- .... ....|G-4 C... ....|D-5 E... ....
....|..|B-4 5F.. ....|B-3 6F.. ....|A-4 A... ....
..28|..|G-1 9E.. ....|G-4 C.4. ....|--- .... ....
..28|..|G-2 .C.. ....|G-4 8... ....|C#5 F... ....
....|..|--- .... ....|G-4 C... ....|A-4 .... ....
....|..|B-4 5F.. ....|D-4 .... ....|--- .... ....
..35|..|D-2 2E.. ....|D-4 .... ....|C#5 E... ....
..24|..|D-3 98.. ....|D-4 8... ....|A-4 .... ....
....|..|--- .... ....|D-4 C... ....|--- .... ....
....|..|B-4 5F.. ....|B-3 6F.. ....|F#4 G.1. ....
..35|..|D-2 2E.. ....|D-4 C.4. ....|--- .... ....
..24|..|D-3 98.. ....|D-4 8... ....|A-4 A... ....
....|..|--- .... ....|B-3 6F.. ....|F#4 F... ....
....|..|B-4 5F.. ....|D-4 C.4. ....|B-4 G... ....
..35|..|D-2 2E.. ....|B-3 6F.. ....|--- .... ....
..24|..|D-3 98.. ....|B-3 .... ....|A-4 A... ....
....|..|--- .... ....|D-4 C.4. ....|B-4 F... ....
....|..|B-4 5F.. ....|B-3 6F.. ....|F#4 G... ....
..35|..|D-2 2E.. ....|D-4 C.4. ....|--- .... ....
..24|..|D-3 98.. ....|B-3 6F.. ....|A-4 A... ....
....|..|--- .... ....|B-3 .... ....|F#4 F... ....

[Pattern15]
...F|..|B-4 5F.. ....|A-4 BF2. ....|C-6 AE.. ....
....|..|A-1 9... ....|--- .... ....|C-4 FF.. ....
..10|..|A-2 .... ....|--- .... ....|B-5 AE.. ....
....|..|--- .... ....|--- .... ....|B-3 FF.. ....
..12|..|B-4 5... ....|--- .... ....|A-5 AE.. ....
....|..|A-1 9... ....|--- .... ....|A-3 FF.. ....
..14|..|A-2 .... ....|--- .... ....|G-5 AE.. ....
..12|..|--- .... ....|--- .... ....|A-5 .E.. ....
....|..|B-4 5... ....|--- .... ....|--- .... ....
....|..|A-1 9... ....|--- .... ....|A-3 FF.. ....
....|..|A-2 .... ....|--- .... ....|--- .... ....
....|..|--- .... ....|--- .... ....|--- .... ....
....|..|B-4 5... ....|--- .... ....|--- .... ....
....|..|A-1 9... ....|--- .... ....|--- .... ....
....|..|A-2 .... ....|--- .... ....|--- .... ....
....|..|--- .... ....|--- .... ....|--- .... ....
....|..|B-4 5... ....|E-4 .... ....|--- .... ....
..18|..|E-1 9... ....|--- .... ....|E-5 AE.. ....
..14|..|E-2 .... ....|--- .... ....|G-5 .E.. ....
..18|..|--- .... ....|--- .... ....|E-5 .E.. ....
..12|..|B-4 5... ....|--- .... ....|A-5 .E.. ....
..18|..|E-1 9... ....|--- .... ....|E-5 .E.. ....
..10|..|E-2 .... ....|--- .... ....|B-5 .E.. ....
..18|..|--- .... ....|--- .... ....|E-5 .E.. ....
...F|..|B-4 5... ....|--- .... ....|C-6 .E.. ....
..18|..|E-1 9... ....|--- .... ....|E-5 .E.. ....
..10|..|E-2 .... ....|--- .... ....|B-5 .E.. ....
..18|..|--- .... ....|--- .... ....|E-5 .E.. ....
..12|..|B-4 5... ....|--- .... ....|A-5 .E.. ....
..18|..|E-1 9... ....|--- .... ....|E-5 .E.. ....
..14|..|E-2 .... ....|--- .... ....|G-5 .E.. ....
..18|..|B-4 5... ....|--- .... ....|E-5 .E.. ....
...F|..|B-4 .... ....|F-4 ..4. ....|C-6 .E.. ....
..1E|..|F-1 9... ....|--- .... ....|C-6 .C.. ....
..10|..|F-2 .... ....|--- .... ....|B-5 .E.. ....
....|..|--- .... ....|--- .... ....|B-3 FF.. ....
..12|..|B-4 5... ....|--- .... ....|A-5 AE.. ....
....|..|F-1 9... ....|--- .... ....|A-3 FF.. ....
..14|..|F-2 .... ....|--- .... ....|G-5 AE.. ....
..12|..|--- .... ....|--- .... ....|A-5 .E.. ....
....|..|B-4 5... ....|--- .... ....|--- .... ....
....|..|F-1 9... ....|--- .... ....|A-3 FF.. ....
....|..|F-2 .... ....|--- .... ....|--- .... ....
....|..|--- .... ....|--- .... ....|--- .... ....
..28|..|B-4 5... ....|--- .... ....|G-5 AC.. ....
....|..|F-1 9... ....|--- .... ....|--- .... ....
....|..|F-2 .... ....|--- .... ....|G-3 FF.. ....
....|..|B-4 5... ....|--- .... ....|--- .... ....
..36|..|B-4 .... ....|D-4 ..2. ....|D-5 A8.. ....
....|..|D-2 9... ....|--- .... ....|--- .... ....
....|..|D-3 .... ....|--- .... ....|D-3 FF.. ....
....|..|--- .... ....|--- .... ....|--- .... ....
....|..|B-4 5... ....|--- .... ....|--- .... ....
....|..|D-2 9... ....|--- .... ....|--- .... ....
....|..|D-3 .... ....|--- .... ....|--- .... ....
....|..|--- .... ....|--- .... ....|--- .... ....
....|..|B-4 5... ....|--- .... ....|--- .... ....
....|..|D-2 9... ....|--- .... ....|--- .... ....
....|..|D-3 .... ....|--- .... ....|--- .... ....
....|..|--- .... ....|--- .... ....|--- .... ....
....|..|B-4 5... ....|--- .... ....|--- .... ....
....|..|D-2 9... ....|--- .... ....|--- .... ....
....|..|D-3 .... ....|--- .... ....|--- .... ....
....|..|--- .... ....|--- .... ....|--- .... ....

[Pattern16]
...F|..|B-4 5F.. ....|A-4 CF2. ....|C-6 AE.. ....
....|..|A-1 9... ....|A-4 .... ....|C-4 FF.. ....
..10|..|A-2 .... ....|A-4 8... ....|B-5 AE.. ....
....|..|--- .... ....|A-4 B... ....|B-3 FF.. ....
..12|..|B-4 5... ....|A-4 C... ....|A-5 AE.. ....
....|..|A-1 9... ....|A-4 .... ....|A-3 FF.. ....
..14|..|A-2 .... ....|A-4 8... ....|G-5 AE.. ....
..12|..|--- .... ....|A-4 B... ....|A-5 .E.. ....
....|..|B-4 5... ....|A-4 C... ....|--- .... ....
....|..|A-1 9... ....|A-4 .... ....|A-3 FF.. ....
....|..|A-2 .... ....|A-4 8... ....|--- .... ....
....|..|--- .... ....|A-4 B... ....|--- .... ....
....|..|B-4 5... ....|A-4 C... ....|--- .... ....
....|..|A-1 9... ....|A-4 .... ....|--- .... ....
....|..|A-2 .... ....|A-4 8... ....|--- .... ....
....|..|--- .... ....|A-4 B... ....|--- .... ....
....|..|B-4 5... ....|E-4 C... ....|--- .... ....
..18|..|E-1 9... ....|E-4 .... ....|E-5 AE.. ....
..14|..|E-2 .... ....|E-4 8... ....|G-5 .E.. ....
..18|..|--- .... ....|E-4 B... ....|E-5 .E.. ....
..12|..|B-4 5... ....|E-4 C... ....|A-5 .E.. ....
..18|..|E-1 9... ....|E-4 .... ....|E-5 .E.. ....
..10|..|E-2 .... ....|E-4 8... ....|B-5 .E.. ....
..18|..|--- .... ....|E-4 B... ....|E-5 .E.. ....
...F|..|B-4 5... ....|E-4 C... ....|C-6 .E.. ....
..18|..|E-1 9... ....|E-4 .... ....|E-5 .E.. ....
..10|..|E-2 .... ....|E-4 8... ....|B-5 .E.. ....
..18|..|--- .... ....|E-4 B... ....|E-5 .E.. ....
..12|..|B-4 5... ....|E-4 C... ....|A-5 .E.. ....
..18|..|E-1 9... ....|E-4 .... ....|E-5 .E.. ....
..14|..|E-2 .... ....|E-4 8... ....|G-5 .E.. ....
..18|..|B-4 5... ....|E-4 B... ....|E-5 .E.. ....
...F|..|B-4 .... ....|F-4 C.4. ....|C-6 .E.. ....
..1E|..|F-1 9... ....|F-4 .... ....|C-6 .C.. ....
..10|..|F-2 .... ....|F-4 8... ....|B-5 .E.. ....
....|..|--- .... ....|F-4 B... ....|B-3 FF.. ....
..12|..|B-4 5... ....|F-4 C... ....|A-5 AE.. ....
....|..|F-1 9... ....|F-4 .... ....|A-3 FF.. ....
..14|..|F-2 .... ....|F-4 8... ....|G-5 AE.. ....
..12|..|--- .... ....|F-4 B... ....|A-5 .E.. ....
....|..|B-4 5... ....|F-4 C... ....|--- .... ....
....|..|F-1 9... ....|F-4 .... ....|A-3 FF.. ....
....|..|F-2 .... ....|F-4 8... ....|--- .... ....
....|..|--- .... ....|F-4 B... ....|--- .... ....
..10|..|B-4 5... ....|F-4 C... ....|B-5 AE.. ....
....|..|F-1 9... ....|F-4 .... ....|--- .... ....
....|..|F-2 .... ....|F-4 8... ....|B-3 FF.. ....
....|..|B-4 5... ....|F-4 B... ....|--- .... ....
...F|..|B-4 .... ....|D-4 C.2. ....|C-6 AE.. ....
....|..|D-2 9... ....|D-4 .... ....|--- .... ....
....|..|D-3 .... ....|D-4 8... ....|C-4 FF.. ....
....|..|--- .... ....|D-4 B... ....|--- .... ....
....|..|B-4 5... ....|D-4 C... ....|B-3 6... ....
....|..|D-2 9... ....|D-4 .... ....|B-3 .... ....
....|..|D-3 .... ....|D-4 8... ....|B-3 .... ....
....|..|--- .... ....|D-4 B... ....|B-3 .... ....
....|..|B-4 5... ....|D-4 C... ....|B-3 .... ....
....|..|D-2 9... ....|D-4 .... ....|B-3 .... ....
....|..|D-3 .... ....|D-4 8... ....|B-3 .... ....
....|..|--- .... ....|D-4 B... ....|B-3 .... ....
....|..|B-4 5... ....|D-4 C... ....|B-3 .... ....
....|..|D-2 9... ....|D-4 .... ....|B-3 .... ....
....|..|D-3 .... ....|D-4 8... ....|B-3 .... ....
....|..|--- .... ....|D-4 B... ....|B-3 .... ....

[Pattern17]
...F|..|B-4 5F.. ....|A-4 CF2. ....|C-6 A8.. ....
....|..|A-1 9... ....|A-4 .... ....|C-5 FF.. ....
..10|..|A-2 .... ....|A-4 8... ....|B-5 A8.. ....
....|..|--- .... ....|A-4 B... ....|B-4 FF.. ....
..12|..|B-4 5... ....|B-3 6F.. ....|A-5 A8.. ....
....|..|A-1 9... ....|A-4 C.2. ....|A-4 FF.. ....
..14|..|A-2 .... ....|A-4 8... ....|G-5 A8.. ....
..12|..|--- .... ....|B-3 6... ....|A-5 .8.. ....
....|..|B-4 5... ....|A-4 C... ....|--- .... ....
....|..|A-1 9... ....|B-3 6F.. ....|A-4 FF.. ....
....|..|A-2 .... ....|A-4 8.2. ....|--- .... ....
....|..|--- .... ....|A-4 B... ....|--- .... ....
....|..|B-4 5... ....|B-3 6F.. ....|--- .... ....
....|..|A-1 9... ....|A-4 C.2. ....|--- .... ....
....|..|A-2 .... ....|A-4 8... ....|--- .... ....
....|..|--- .... ....|A-4 B... ....|--- .... ....
....|..|B-4 5... ....|E-4 C... ....|--- .... ....
..18|..|E-1 9... ....|E-4 .... ....|E-5 A8.. ....
..14|..|E-2 .... ....|E-4 8... ....|G-5 .8.. ....
..18|..|--- .... ....|E-4 B... ....|E-5 .8.. ....
..12|..|B-4 5... ....|B-3 6F.. ....|A-5 .8.. ....
..18|..|E-1 9... ....|E-4 C.2. ....|E-5 .8.. ....
..10|..|E-2 .... ....|E-4 8... ....|B-5 .8.. ....
..18|..|--- .... ....|B-3 6F.. ....|E-5 .8.. ....
...F|..|B-4 5... ....|E-4 C.2. ....|C-6 .8.. ....
..18|..|E-1 9... ....|B-3 6F.. ....|E-5 .8.. ....
..10|..|E-2 .... ....|B-3 .... ....|B-5 .8.. ....
..18|..|--- .... ....|E-4 B.2. ....|E-5 .8.. ....
..12|..|B-4 5... ....|B-3 6F.. ....|A-5 .8.. ....
..18|..|E-1 9... ....|E-4 C.2. ....|E-5 .8.. ....
..14|..|E-2 .... ....|B-3 6F.. ....|G-5 .8.. ....
..18|..|B-4 5... ....|B-3 .... ....|E-5 .8.. ....
...F|..|B-4 .... ....|F-4 C.4. ....|C-6 .8.. ....
..1E|..|F-1 9... ....|F-4 .... ....|C-6 .8.. ....
..10|..|F-2 .... ....|F-4 8... ....|B-5 .8.. ....
....|..|--- .... ....|F-4 B... ....|B-4 FF.. ....
..12|..|B-4 5... ....|B-3 6F.. ....|A-5 A8.. ....
....|..|F-1 9... ....|F-4 C.4. ....|A-4 FF.. ....
..14|..|F-2 .... ....|F-4 8... ....|G-5 A8.. ....
..12|..|--- .... ....|B-3 6F.. ....|A-5 .8.. ....
....|..|B-4 5... ....|F-4 C.4. ....|--- .... ....
....|..|F-1 9... ....|B-3 6F.. ....|A-4 FF.. ....
....|..|F-2 .... ....|F-4 8.4. ....|--- .... ....
....|..|--- .... ....|F-4 B... ....|--- .... ....
..14|..|B-4 5... ....|B-3 6F.. ....|G-5 A8.. ....
....|..|F-1 9... ....|F-4 C.4. ....|--- .... ....
....|..|F-2 .... ....|F-4 8... ....|G-4 FF.. ....
....|..|B-4 5... ....|F-4 B... ....|--- .... ....
..1B|..|B-4 .... ....|B-3 6F.. ....|D-5 A8.. ....
....|..|D-2 9... ....|B-3 .... ....|--- .... ....
....|..|D-3 .... ....|D-4 8.2. ....|D-4 FF.. ....
....|..|--- .... ....|B-3 6F.. ....|--- .... ....
....|..|B-4 5... ....|B-3 .... ....|E-6 .... ....
....|..|D-2 9... ....|D-4 C.2. ....|D-6 E... ....
....|..|D-3 .... ....|B-3 6F.. ....|C-6 F... ....
....|..|--- .... ....|B-3 .... ....|E-6 E... ....
....|..|B-4 5... ....|D-4 C.2. ....|D-6 F... ....
....|..|D-2 9... ....|B-3 6F.. ....|C-6 E... ....
....|..|D-3 .... ....|B-3 .... ....|A-5 F... ....
....|..|--- .... ....|B-3 .... ....|D-6 E... ....
....|..|B-4 5... ....|B-3 .... ....|C-6 F... ....
....|..|D-2 9... ....|D-4 8.2. ....|A-5 E... ....
....|..|D-3 .... ....|B-3 6F.. ....|G-5 F... ....
....|..|--- .... ....|B-3 .... ....|C-6 E... ....

[Pattern18]
...F|..|B-4 5F.. ....|A-4 CF2. ....|C-6 A8.. ....
....|..|A-1 9... ....|A-4 .... ....|C-5 FF.. ....
..10|..|A-2 .... ....|A-4 8... ....|B-5 A8.. ....
....|..|--- .... ....|A-4 B... ....|B-4 FF.. ....
..12|..|B-4 5... ....|B-3 6F.. ....|A-5 A8.. ....
....|..|A-1 9... ....|A-4 C.2. ....|A-4 FF.. ....
..14|..|A-2 .... ....|A-4 8... ....|G-5 A8.. ....
..12|..|--- .... ....|B-3 6... ....|A-5 .8.. ....
....|..|B-4 5... ....|A-4 C... ....|--- .... ....
....|..|A-1 9... ....|B-3 6F.. ....|A-4 FF.. ....
....|..|A-2 .... ....|A-4 8.2. ....|--- .... ....
....|..|--- .... ....|A-4 B... ....|--- .... ....
....|..|B-4 5... ....|B-3 6F.. ....|--- .... ....
....|..|A-1 9... ....|A-4 C.2. ....|--- .... ....
....|..|A-2 .... ....|A-4 8... ....|--- .... ....
....|..|--- .... ....|A-4 B... ....|--- .... ....
....|..|B-4 5... ....|E-4 C... ....|--- .... ....
..18|..|E-1 9... ....|E-4 .... ....|E-5 A8.. ....
..14|..|E-2 .... ....|E-4 8... ....|G-5 .8.. ....
..18|..|--- .... ....|E-4 B... ....|E-5 .8.. ....
..12|..|B-4 5... ....|B-3 6F.. ....|A-5 .8.. ....
..18|..|E-1 9... ....|E-4 C.2. ....|E-5 .8.. ....
..10|..|E-2 .... ....|E-4 8... ....|B-5 .8.. ....
..18|..|--- .... ....|B-3 6F.. ....|E-5 .8.. ....
...F|..|B-4 5... ....|E-4 C.2. ....|C-6 .8.. ....
..18|..|E-1 9... ....|B-3 6F.. ....|E-5 .8.. ....
..10|..|E-2 .... ....|B-3 .... ....|B-5 .8.. ....
..18|..|--- .... ....|E-4 B.2. ....|E-5 .8.. ....
..12|..|B-4 5... ....|B-3 6F.. ....|A-5 .8.. ....
..18|..|E-1 9... ....|E-4 C.2. ....|E-5 .8.. ....
..14|..|E-2 .... ....|B-3 6F.. ....|G-5 .8.. ....
..18|..|B-4 5... ....|B-3 .... ....|E-5 .8.. ....
...F|..|B-4 .... ....|F-4 C.4. ....|C-6 .8.. ....
..1E|..|F-1 9... ....|F-4 .... ....|C-6 .8.. ....
..10|..|F-2 .... ....|F-4 8... ....|B-5 .8.. ....
....|..|--- .... ....|F-4 B... ....|B-4 FF.. ....
..12|..|B-4 5... ....|B-3 6F.. ....|A-5 A8.. ....
....|..|F-1 9... ....|F-4 C.4. ....|A-4 FF.. ....
..14|..|F-2 .... ....|F-4 8... ....|G-5 A8.. ....
..12|..|--- .... ....|B-3 6F.. ....|A-5 .8.. ....
....|..|B-4 5... ....|F-4 C.4. ....|--- .... ....
....|..|F-1 9... ....|B-3 6F.. ....|A-4 FF.. ....
....|..|F-2 .... ....|F-4 8.4. ....|--- .... ....
....|..|--- .... ....|F-4 B... ....|--- .... ....
..10|..|B-4 5... ....|B-3 6F.. ....|B-5 A8.. ....
....|..|F-1 9... ....|F-4 C.4. ....|--- .... ....
....|..|F-2 .... ....|F-4 8... ....|B-4 FF.. ....
....|..|B-4 5... ....|F-4 B... ....|--- .... ....
...F|..|B-4 .... ....|B-3 6F.. ....|C-6 A8.. ....
....|..|D-2 9... ....|B-3 .... ....|--- .... ....
....|..|D-3 .... ....|D-4 8.2. ....|C-5 FF.. ....
....|..|--- .... ....|B-3 6F.. ....|--- .... ....
....|..|B-4 5... ....|B-3 .... ....|E-6 .... ....
....|..|D-2 9... ....|D-4 C.2. ....|D-6 E... ....
....|..|D-3 .... ....|B-3 6F.. ....|C-6 F... ....
....|..|--- .... ....|B-3 .... ....|E-6 E... ....
....|..|B-4 5... ....|D-4 C.2. ....|D-6 F... ....
....|..|D-2 9... ....|B-3 6F.. ....|C-6 E... ....
....|..|D-3 .... ....|B-3 .... ....|A-5 F... ....
....|..|--- .... ....|B-3 .... ....|D-6 E... ....
....|..|B-4 5... ....|B-3 .... ....|C-6 F... ....
....|..|D-2 9... ....|D-4 8.2. ....|A-5 E... ....
....|..|D-3 .... ....|B-3 6F.. ....|G-5 F... ....
....|..|--- .... ....|B-3 .... ....|C-6 E... ....

[Pattern19]
....|..|B-4 5F.. ....|A-4 CF2. ....|A-4 FF1. ....
..23|..|A-1 AE.. ....|--- .... ....|G-4 E... ....
..23|..|A-2 .8.. ....|A-4 .... ....|E-5 F... ....
....|..|--- .... ....|--- .... ....|A-4 E... ....
....|..|B-4 5F.. ....|B-3 6F.. ....|D-5 F... ....
..23|..|A-1 AE.. ....|--- .... ....|E-5 E... ....
..23|..|A-2 .8.. ....|A-4 C.2. ....|E-5 F... ....
....|..|--- .... ....|A-4 .... ....|C-5 .... ....
....|..|B-4 5F.. ....|--- .... ....|E-5 E... ....
..23|..|A-1 AE.. ....|A-4 .... ....|C-5 F... ....
..23|..|A-2 .8.. ....|--- .... ....|E-5 .... ....
....|..|--- .... ....|A-4 .... ....|C-5 E... ....
....|..|B-4 5F.. ....|B-3 6F.. ....|B-4 F... ....
..23|..|A-1 AE.. ....|A-4 C.2. ....|E-5 E... ....
..23|..|A-2 .8.. ....|A-4 .... ....|E-5 F... ....
....|..|--- .... ....|--- .... ....|--- .... ....
....|..|B-4 5F.. ....|C-4 ..4. ....|B-4 E... ....
..1E|..|C-2 AE.. ....|--- .... ....|E-5 .... ....
..1E|..|C-3 .C.. ....|C-4 .... ....|--- .... ....
....|..|--- .... ....|--- .... ....|B-4 .... ....
....|..|B-4 5F.. ....|B-3 6F.. ....|A-4 A.9. ....
..1E|..|C-2 AE.. ....|--- .... ....|--- .... ....
..1E|..|C-3 .C.. ....|C-4 C.4. ....|G-4 E... ....
....|..|--- .... ....|C-4 .... ....|--- .... ....
....|..|B-4 5F.. ....|--- .... ....|B-4 A... ....
..1E|..|C-2 AE.. ....|C-4 .... ....|--- .... ....
..1E|..|C-3 .C.. ....|--- .... ....|A-4 E... ....
....|..|--- .... ....|C-4 .... ....|--- .... ....
....|..|B-4 5F.. ....|B-3 6F.. ....|C-5 A... ....
..1E|..|C-2 AE.. ....|C-4 C.4. ....|B-4 E... ....
..1E|..|C-3 .C.. ....|C-4 .... ....|B-4 G... ....
....|..|--- .... ....|B-3 6... ....|--- .... ....
....|..|B-4 5F.. ....|D-4 C.2. ....|--- .... ....
..35|..|D-2 2E.. ....|--- .... ....|--- .... ....
..35|..|D-3 .8.. ....|D-4 .... ....|A-4 A... ....
....|..|--- .... ....|--- .... ....|--- .... ....
....|..|B-4 5F.. ....|B-3 6F.. ....|B-4 F... ....
..35|..|D-2 2E.. ....|--- .... ....|A-4 E... ....
..35|..|D-3 .8.. ....|D-4 C.2. ....|--- .... ....
....|..|--- .... ....|D-4 .... ....|B-4 .... ....
....|..|B-4 5F.. ....|--- .... ....|B-4 A... ....
..35|..|D-2 2E.. ....|D-4 .... ....|--- .... ....
..35|..|D-3 .8.. ....|--- .... ....|B-4 E... ....
....|..|--- .... ....|D-4 .... ....|--- .... ....
....|..|B-4 5F.. ....|B-3 6F.. ....|C-5 A... ....
..35|..|D-2 2E.. ....|D-4 C.2. ....|A-4 E... ....
..35|..|D-3 .8.. ....|D-4 .... ....|C-5 G.D. ....
....|..|--- .... ....|--- .... ....|--- .... ....
....|..|B-4 5F.. ....|F-4 ..4. ....|--- .... ....
..2C|..|F-1 AE.. ....|--- .... ....|--- .... ....
..2C|..|F-2 .8.. ....|F-4 .... ....|C-5 A.9. ....
....|..|--- .... ....|--- .... ....|--- .... ....
....|..|B-4 5F.. ....|B-3 6F.. ....|C-5 E.D. ....
..2C|..|F-1 AE.. ....|--- .... ....|--- .... ....
..2C|..|F-2 .8.. ....|F-4 C.4. ....|B-4 A.9. ....
....|..|B-4 5F.. ....|F-4 .... ....|--- .... ....
....|..|B-4 .... ....|--- .... ....|C-5 E... ....
..2C|..|F-1 AE.. ....|F-4 .... ....|--- .... ....
..2C|..|F-2 .8.. ....|--- .... ....|G-4 A... ....
....|..|--- .... ....|F-4 .... ....|--- .... ....
....|..|B-4 5F.. ....|B-3 6F.. ....|B-4 E... ....
..2C|..|F-1 AE.. ....|F-4 C.4. ....|--- .... ....
..2C|..|F-2 .8.. ....|B-3 6F.. ....|E-4 A... ....
....|..|B-4 5F.. ....|B-3 .... ....|--- .... ....

[Pattern20]
....|..|B-4 5F.. ....|A-4 CF2. ....|A-4 FF1. ....
..23|..|A-1 AE.. ....|--- .... ....|G-4 E... ....
..23|..|A-2 .8.. ....|A-4 .... ....|E-5 F... ....
....|..|--- .... ....|--- .... ....|A-4 E... ....
....|..|B-4 5F.. ....|B-3 6F.. ....|D-5 F... ....
..23|..|A-1 AE.. ....|--- .... ....|E-5 E... ....
..23|..|A-2 .8.. ....|A-4 C.2. ....|E-5 F... ....
....|..|--- .... ....|A-4 .... ....|C-5 .... ....
....|..|B-4 5F.. ....|--- .... ....|E-5 E... ....
..23|..|A-1 AE.. ....|B-3 6F.. ....|C-5 F... ....
..23|..|A-2 .8.. ....|A-4 C.2. ....|D-5 E... ....
....|..|--- .... ....|A-4 .... ....|E-5 F... ....
....|..|B-4 5F.. ....|B-3 6F.. ....|B-4 .... ....
..23|..|A-1 AE.. ....|A-4 C.2. ....|E-5 E... ....
..23|..|A-2 .8.. ....|A-4 .... ....|E-5 F... ....
....|..|--- .... ....|--- .... ....|--- .... ....
....|..|B-4 5F.. ....|C-4 ..4. ....|B-4 E... ....
..1E|..|C-2 AE.. ....|--- .... ....|E-5 .... ....
..1E|..|C-3 .C.. ....|C-4 .... ....|--- .... ....
....|..|--- .... ....|--- .... ....|B-4 .... ....
....|..|B-4 5F.. ....|B-3 6F.. ....|A-4 A.9. ....
..1E|..|C-2 AE.. ....|--- .... ....|--- .... ....
..1E|..|C-3 .C.. ....|C-4 C.4. ....|A-4 E... ....
....|..|--- .... ....|C-4 .... ....|--- .... ....
....|..|B-4 5F.. ....|--- .... ....|B-4 A... ....
..1E|..|C-2 AE.. ....|C-4 .... ....|--- .... ....
..1E|..|C-3 .C.. ....|--- .... ....|A-4 E... ....
....|..|--- .... ....|C-4 .... ....|--- .... ....
....|..|B-4 5F.. ....|B-3 6F.. ....|C-5 A... ....
..1E|..|C-2 AE.. ....|C-4 C.4. ....|B-4 E... ....
..1E|..|C-3 .C.. ....|C-4 .... ....|A-4 G.D. ....
....|..|--- .... ....|B-3 6... ....|--- .... ....
....|..|B-4 5F.. ....|D-4 C.2. ....|--- .... ....
..35|..|D-2 2E.. ....|--- .... ....|--- .... ....
..35|..|D-3 .8.. ....|D-4 .... ....|A-4 A.9. ....
....|..|--- .... ....|--- .... ....|--- .... ....
....|..|B-4 5F.. ....|B-3 6F.. ....|B-4 F... ....
..35|..|D-2 2E.. ....|--- .... ....|A-4 E... ....
..35|..|D-3 .8.. ....|D-4 C.2. ....|--- .... ....
....|..|--- .... ....|D-4 .... ....|B-4 .... ....
....|..|B-4 5F.. ....|--- .... ....|B-4 A... ....
..35|..|D-2 2E.. ....|B-3 6F.. ....|--- .... ....
..35|..|D-3 .8.. ....|D-4 C.2. ....|A-4 E... ....
....|..|--- .... ....|D-4 .... ....|--- .... ....
....|..|B-4 5F.. ....|B-3 6F.. ....|C-5 A... ....
..35|..|D-2 2E.. ....|D-4 C.2. ....|B-4 E... ....
..35|..|D-3 .8.. ....|D-4 .... ....|C-5 G.D. ....
....|..|--- .... ....|--- .... ....|--- .... ....
....|..|B-4 5F.. ....|F-4 ..4. ....|--- .... ....
..2C|..|F-1 AE.. ....|--- .... ....|--- .... ....
..2C|..|F-2 .8.. ....|F-4 .... ....|C-5 A.9. ....
....|..|--- .... ....|--- .... ....|--- .... ....
....|..|B-4 5F.. ....|B-3 6F.. ....|C-5 E.D. ....
..2C|..|F-1 AE.. ....|--- .... ....|--- .... ....
..2C|..|F-2 .8.. ....|F-4 C.4. ....|B-4 A.9. ....
....|..|B-4 5F.. ....|F-4 .... ....|--- .... ....
....|..|B-4 .... ....|--- .... ....|C-5 E... ....
..2C|..|F-1 AE.. ....|F-4 .... ....|--- .... ....
..2C|..|F-2 .8.. ....|--- .... ....|G-4 A... ....
....|..|--- .... ....|F-4 .... ....|--- .... ....
....|..|B-4 5F.. ....|B-3 6F.. ....|B-4 E... ....
..2C|..|F-1 AE.. ....|F-4 C.4. ....|--- .... ....
..2C|..|F-2 .8.. ....|B-3 6F.. ....|A-4 A... ....
....|..|B-4 5F.. ....|B-3 .... ....|--- .... ....

[Pattern21]
....|..|B-4 5F.. ....|A-4 CF2. ....|A-4 FF1. ....
..23|..|A-1 AE.. ....|--- .... ....|G-4 E... ....
..23|..|A-2 .8.. ....|A-4 .... ....|E-5 F... ....
....|..|--- .... ....|--- .... ....|A-4 E... ....
....|..|B-4 5F.. ....|B-3 6F.. ....|D-5 F... ....
..23|..|A-1 AE.. ....|--- .... ....|E-5 E... ....
..23|..|A-2 .8.. ....|A-4 C.2. ....|E-5 F... ....
....|..|--- .... ....|A-4 .... ....|C-5 .... ....
....|..|B-4 5F.. ....|--- .... ....|E-5 E... ....
..23|..|A-1 AE.. ....|B-3 6F.. ....|C-5 F... ....
..23|..|A-2 .8.. ....|A-4 C.2. ....|D-5 E... ....
....|..|--- .... ....|A-4 .... ....|E-5 F... ....
....|..|B-4 5F.. ....|B-3 6F.. ....|B-4 .... ....
..23|..|A-1 AE.. ....|A-4 C.2. ....|E-5 E... ....
..23|..|A-2 .8.. ....|A-4 .... ....|E-5 F... ....
....|..|--- .... ....|--- .... ....|--- .... ....
....|..|B-4 5F.. ....|C-4 ..4. ....|B-4 E... ....
..1E|..|C-2 AE.. ....|--- .... ....|E-5 .... ....
..1E|..|C-3 .C.. ....|C-4 .... ....|--- .... ....
....|..|--- .... ....|--- .... ....|B-4 .... ....
....|..|B-4 5F.. ....|B-3 6F.. ....|A-4 A.9. ....
..1E|..|C-2 AE.. ....|--- .... ....|--- .... ....
..1E|..|C-3 .C.. ....|C-4 C.4. ....|A-4 E... ....
....|..|--- .... ....|C-4 .... ....|--- .... ....
....|..|B-4 5F.. ....|--- .... ....|B-4 A... ....
..1E|..|C-2 AE.. ....|C-4 .... ....|--- .... ....
..1E|..|C-3 .C.. ....|--- .... ....|A-4 E... ....
....|..|--- .... ....|C-4 .... ....|--- .... ....
....|..|B-4 5F.. ....|B-3 6F.. ....|C-5 A... ....
..1E|..|C-2 AE.. ....|C-4 C.4. ....|B-4 E... ....
..1E|..|C-3 .C.. ....|C-4 .... ....|A-4 G.D. ....
....|..|--- .... ....|B-3 6... ....|--- .... ....
....|..|B-4 5F.. ....|D-4 C.2. ....|--- .... ....
..35|..|D-2 2E.. ....|--- .... ....|--- .... ....
..35|..|D-3 .8.. ....|D-4 .... ....|A-4 A.9. ....
....|..|--- .... ....|--- .... ....|--- .... ....
....|..|B-4 5F.. ....|B-3 6F.. ....|B-4 F... ....
..35|..|D-2 2E.. ....|--- .... ....|A-4 E... ....
..35|..|D-3 .8.. ....|D-4 C.2. ....|--- .... ....
....|..|--- .... ....|D-4 .... ....|B-4 .... ....
....|..|B-4 5F.. ....|--- .... ....|B-4 A... ....
..35|..|D-2 2E.. ....|B-3 6F.. ....|--- .... ....
..35|..|D-3 .8.. ....|D-4 C.2. ....|A-4 E... ....
....|..|--- .... ....|D-4 .... ....|--- .... ....
....|..|B-4 5F.. ....|B-3 6F.. ....|C-5 A... ....
..35|..|D-2 2E.. ....|D-4 C.2. ....|B-4 E... ....
..35|..|D-3 .8.. ....|D-4 .... ....|C-5 G.D. ....
....|..|--- .... ....|--- .... ....|--- .... ....
....|..|B-4 5F.. ....|F-4 ..4. ....|--- .... ....
..2C|..|F-1 AE.. ....|--- .... ....|--- .... ....
..2C|..|F-2 .8.. ....|F-4 .... ....|D-5 A.9. ....
....|..|--- .... ....|--- .... ....|C-5 E.D. ....
....|..|B-4 5F.. ....|B-3 6F.. ....|C-5 A.9. ....
..2C|..|F-1 AE.. ....|--- .... ....|D-5 E... ....
..2C|..|F-2 .8.. ....|F-4 C.4. ....|C-5 A... ....
....|..|B-4 5F.. ....|F-4 .... ....|C-5 E... ....
....|..|B-4 .... ....|--- .... ....|B-4 A... ....
..2C|..|F-1 AE.. ....|F-4 .... ....|C-5 E... ....
..2C|..|F-2 .8.. ....|--- .... ....|B-4 A... ....
....|..|--- .... ....|F-4 .... ....|B-4 E... ....
....|..|B-4 5F.. ....|B-3 6F.. ....|G-4 A... ....
..2C|..|F-1 AE.. ....|F-4 C.4. ....|B-4 E... ....
..2C|..|F-2 .8.. ....|B-3 6F.. ....|G-4 A... ....
....|..|B-4 5F.. ....|B-3 .... ....|G-4 E... ....

